<?xml version="1.0" encoding="utf-8" standalone="no"?>
<!DOCTYPE svg PUBLIC "-//W3C//DTD SVG 1.1//EN"
  "http://www.w3.org/Graphics/SVG/1.1/DTD/svg11.dtd">
<svg xmlns:xlink="http://www.w3.org/1999/xlink" width="599.8225pt" height="631.8125pt" viewBox="0 0 599.8225 631.8125" xmlns="http://www.w3.org/2000/svg" version="1.1">
 <metadata>
  <rdf:RDF xmlns:dc="http://purl.org/dc/elements/1.1/" xmlns:cc="http://creativecommons.org/ns#" xmlns:rdf="http://www.w3.org/1999/02/22-rdf-syntax-ns#">
   <cc:Work>
    <dc:type rdf:resource="http://purl.org/dc/dcmitype/StillImage"/>
    <dc:date>2026-02-11T14:55:19.339932</dc:date>
    <dc:format>image/svg+xml</dc:format>
    <dc:creator>
     <cc:Agent>
      <dc:title>Matplotlib v3.10.0, https://matplotlib.org/</dc:title>
     </cc:Agent>
    </dc:creator>
   </cc:Work>
  </rdf:RDF>
 </metadata>
 <defs>
  <style type="text/css">*{stroke-linejoin: round; stroke-linecap: butt}</style>
 </defs>
 <g id="figure_1">
  <g id="patch_1">
   <path d="M 0 631.8125 
L 599.8225 631.8125 
L 599.8225 0 
L 0 0 
z
" style="fill: #ffffff"/>
  </g>
  <g id="axes_1">
   <g id="patch_2">
    <path d="M 11.0175 180.379583 
L 592.6225 180.379583 
L 592.6225 7.2 
L 11.0175 7.2 
L 11.0175 180.379583 
z
" style="fill: none"/>
   </g>
   <g id="matplotlib.axis_1">
    <g id="xtick_1">
     <g id="line2d_1">
      <path d="M 11.0175 180.379583 
L 11.0175 7.2 
" clip-path="url(#pfca7dc917b)" style="fill: none; stroke: #b0b0b0; stroke-width: 0.8; stroke-linecap: square"/>
     </g>
     <g id="line2d_2">
      <defs>
       <path id="mfa605a8f82" d="M 0 0 
L 0 3.5 
" style="stroke: #000000; stroke-width: 0.8"/>
      </defs>
      <g>
       <use xlink:href="#mfa605a8f82" x="11.0175" y="180.379583" style="stroke: #000000; stroke-width: 0.8"/>
      </g>
     </g>
    </g>
    <g id="xtick_2">
     <g id="line2d_3">
      <path d="M 177.190357 180.379583 
L 177.190357 7.2 
" clip-path="url(#pfca7dc917b)" style="fill: none; stroke: #b0b0b0; stroke-width: 0.8; stroke-linecap: square"/>
     </g>
     <g id="line2d_4">
      <g>
       <use xlink:href="#mfa605a8f82" x="177.190357" y="180.379583" style="stroke: #000000; stroke-width: 0.8"/>
      </g>
     </g>
    </g>
    <g id="xtick_3">
     <g id="line2d_5">
      <path d="M 343.363214 180.379583 
L 343.363214 7.2 
" clip-path="url(#pfca7dc917b)" style="fill: none; stroke: #b0b0b0; stroke-width: 0.8; stroke-linecap: square"/>
     </g>
     <g id="line2d_6">
      <g>
       <use xlink:href="#mfa605a8f82" x="343.363214" y="180.379583" style="stroke: #000000; stroke-width: 0.8"/>
      </g>
     </g>
    </g>
    <g id="xtick_4">
     <g id="line2d_7">
      <path d="M 509.536071 180.379583 
L 509.536071 7.2 
" clip-path="url(#pfca7dc917b)" style="fill: none; stroke: #b0b0b0; stroke-width: 0.8; stroke-linecap: square"/>
     </g>
     <g id="line2d_8">
      <g>
       <use xlink:href="#mfa605a8f82" x="509.536071" y="180.379583" style="stroke: #000000; stroke-width: 0.8"/>
      </g>
     </g>
    </g>
   </g>
   <g id="matplotlib.axis_2"/>
   <g id="FillBetweenPolyCollection_1">
    <defs>
     <path id="mcf74273fd6" d="M 87.083332 -451.439197 
L 87.083332 -451.432917 
L 89.872414 -451.432917 
L 92.661495 -451.432917 
L 95.450577 -451.432917 
L 98.239658 -451.432917 
L 101.02874 -451.432917 
L 103.817822 -451.432917 
L 106.606903 -451.432917 
L 109.395985 -451.432917 
L 112.185066 -451.432917 
L 114.974148 -451.432917 
L 117.763229 -451.432917 
L 120.552311 -451.432917 
L 123.341392 -451.432917 
L 126.130474 -451.432917 
L 128.919555 -451.432917 
L 131.708637 -451.432917 
L 134.497718 -451.432917 
L 137.2868 -451.432917 
L 140.075881 -451.432917 
L 142.864963 -451.432917 
L 145.654044 -451.432917 
L 148.443126 -451.432917 
L 151.232207 -451.432917 
L 154.021289 -451.432917 
L 156.81037 -451.432917 
L 159.599452 -451.432917 
L 162.388533 -451.432917 
L 165.177615 -451.432917 
L 167.966696 -451.432917 
L 170.755778 -451.432917 
L 173.544859 -451.432917 
L 176.333941 -451.432917 
L 179.123022 -451.432917 
L 181.912104 -451.432917 
L 184.701185 -451.432917 
L 187.490267 -451.432917 
L 190.279348 -451.432917 
L 193.06843 -451.432917 
L 195.857511 -451.432917 
L 198.646593 -451.432917 
L 201.435674 -451.432917 
L 204.224756 -451.432917 
L 207.013838 -451.432917 
L 209.802919 -451.432917 
L 212.592001 -451.432917 
L 215.381082 -451.432917 
L 218.170164 -451.432917 
L 220.959245 -451.432917 
L 223.748327 -451.432917 
L 226.537408 -451.432917 
L 229.32649 -451.432917 
L 232.115571 -451.432917 
L 234.904653 -451.432917 
L 237.693734 -451.432917 
L 240.482816 -451.432917 
L 243.271897 -451.432917 
L 246.060979 -451.432917 
L 248.85006 -451.432917 
L 251.639142 -451.432917 
L 254.428223 -451.432917 
L 257.217305 -451.432917 
L 260.006386 -451.432917 
L 262.795468 -451.432917 
L 265.584549 -451.432917 
L 268.373631 -451.432917 
L 271.162712 -451.432917 
L 273.951794 -451.432917 
L 276.740875 -451.432917 
L 279.529957 -451.432917 
L 282.319038 -451.432917 
L 285.10812 -451.432917 
L 287.897201 -451.432917 
L 290.686283 -451.432917 
L 293.475364 -451.432917 
L 296.264446 -451.432917 
L 299.053527 -451.432917 
L 301.842609 -451.432917 
L 304.63169 -451.432917 
L 307.420772 -451.432917 
L 310.209854 -451.432917 
L 312.998935 -451.432917 
L 315.788017 -451.432917 
L 318.577098 -451.432917 
L 321.36618 -451.432917 
L 324.155261 -451.432917 
L 326.944343 -451.432917 
L 329.733424 -451.432917 
L 332.522506 -451.432917 
L 335.311587 -451.432917 
L 338.100669 -451.432917 
L 340.88975 -451.432917 
L 343.678832 -451.432917 
L 346.467913 -451.432917 
L 349.256995 -451.432917 
L 352.046076 -451.432917 
L 354.835158 -451.432917 
L 357.624239 -451.432917 
L 360.413321 -451.432917 
L 363.202402 -451.432917 
L 365.991484 -451.432917 
L 368.780565 -451.432917 
L 371.569647 -451.432917 
L 374.358728 -451.432917 
L 377.14781 -451.432917 
L 379.936891 -451.432917 
L 382.725973 -451.432917 
L 385.515054 -451.432917 
L 388.304136 -451.432917 
L 391.093217 -451.432917 
L 393.882299 -451.432917 
L 396.67138 -451.432917 
L 399.460462 -451.432917 
L 402.249543 -451.432917 
L 405.038625 -451.432917 
L 407.827706 -451.432917 
L 410.616788 -451.432917 
L 413.40587 -451.432917 
L 416.194951 -451.432917 
L 418.984033 -451.432917 
L 421.773114 -451.432917 
L 424.562196 -451.432917 
L 427.351277 -451.432917 
L 430.140359 -451.432917 
L 432.92944 -451.432917 
L 435.718522 -451.432917 
L 438.507603 -451.432917 
L 441.296685 -451.432917 
L 444.085766 -451.432917 
L 446.874848 -451.432917 
L 449.663929 -451.432917 
L 452.453011 -451.432917 
L 455.242092 -451.432917 
L 458.031174 -451.432917 
L 460.820255 -451.432917 
L 463.609337 -451.432917 
L 466.398418 -451.432917 
L 469.1875 -451.432917 
L 471.976581 -451.432917 
L 474.765663 -451.432917 
L 477.554744 -451.432917 
L 480.343826 -451.432917 
L 483.132907 -451.432917 
L 485.921989 -451.432917 
L 488.71107 -451.432917 
L 491.500152 -451.432917 
L 494.289233 -451.432917 
L 497.078315 -451.432917 
L 499.867396 -451.432917 
L 502.656478 -451.432917 
L 505.445559 -451.432917 
L 508.234641 -451.432917 
L 511.023722 -451.432917 
L 513.812804 -451.432917 
L 516.601886 -451.432917 
L 519.390967 -451.432917 
L 522.180049 -451.432917 
L 524.96913 -451.432917 
L 527.758212 -451.432917 
L 530.547293 -451.432917 
L 533.336375 -451.432917 
L 536.125456 -451.432917 
L 538.914538 -451.432917 
L 541.703619 -451.432917 
L 544.492701 -451.432917 
L 547.281782 -451.432917 
L 550.070864 -451.432917 
L 552.859945 -451.432917 
L 555.649027 -451.432917 
L 558.438108 -451.432917 
L 561.22719 -451.432917 
L 564.016271 -451.432917 
L 566.805353 -451.432917 
L 569.594434 -451.432917 
L 572.383516 -451.432917 
L 575.172597 -451.432917 
L 577.961679 -451.432917 
L 580.75076 -451.432917 
L 583.539842 -451.432917 
L 586.328923 -451.432917 
L 589.118005 -451.432917 
L 591.907086 -451.432917 
L 594.696168 -451.432917 
L 597.485249 -451.432917 
L 600.274331 -451.432917 
L 603.063412 -451.432917 
L 605.852494 -451.432917 
L 608.641575 -451.432917 
L 611.430657 -451.432917 
L 614.219738 -451.432917 
L 617.00882 -451.432917 
L 619.797902 -451.432917 
L 622.586983 -451.432917 
L 625.376065 -451.432917 
L 628.165146 -451.432917 
L 630.954228 -451.432917 
L 633.743309 -451.432917 
L 636.532391 -451.432917 
L 639.321472 -451.432917 
L 642.110554 -451.432917 
L 642.110554 -451.439531 
L 642.110554 -451.439531 
L 639.321472 -451.451079 
L 636.532391 -451.477565 
L 633.743309 -451.531644 
L 630.954228 -451.630499 
L 628.165146 -451.79356 
L 625.376065 -452.038559 
L 622.586983 -452.37697 
L 619.797902 -452.80945 
L 617.00882 -453.321827 
L 614.219738 -453.884609 
L 611.430657 -454.462135 
L 608.641575 -455.03466 
L 605.852494 -455.624845 
L 603.063412 -456.308452 
L 600.274331 -457.191971 
L 597.485249 -458.360461 
L 594.696168 -459.822268 
L 591.907086 -461.484711 
L 589.118005 -463.17908 
L 586.328923 -464.723572 
L 583.539842 -465.988068 
L 580.75076 -466.923246 
L 577.961679 -467.54247 
L 575.172597 -467.879862 
L 572.383516 -467.962491 
L 569.594434 -467.81508 
L 566.805353 -467.480538 
L 564.016271 -467.024872 
L 561.22719 -466.516386 
L 558.438108 -466.002845 
L 555.649027 -465.517227 
L 552.859945 -465.113351 
L 550.070864 -464.898879 
L 547.281782 -465.031496 
L 544.492701 -465.674676 
L 541.703619 -466.938822 
L 538.914538 -468.834813 
L 536.125456 -471.248141 
L 533.336375 -473.932559 
L 530.547293 -476.534822 
L 527.758212 -478.672526 
L 524.96913 -480.063165 
L 522.180049 -480.651137 
L 519.390967 -480.651953 
L 516.601886 -480.470099 
L 513.812804 -480.526254 
L 511.023722 -481.085207 
L 508.234641 -482.167908 
L 505.445559 -483.577513 
L 502.656478 -485.01281 
L 499.867396 -486.210122 
L 497.078315 -487.052783 
L 494.289233 -487.609571 
L 491.500152 -488.094798 
L 488.71107 -488.768682 
L 485.921989 -489.816794 
L 483.132907 -491.264139 
L 480.343826 -492.975271 
L 477.554744 -494.745414 
L 474.765663 -496.421155 
L 471.976581 -497.96789 
L 469.1875 -499.45627 
L 466.398418 -501.014672 
L 463.609337 -502.803926 
L 460.820255 -505.009231 
L 458.031174 -507.797744 
L 455.242092 -511.223353 
L 452.453011 -515.134568 
L 449.663929 -519.168461 
L 446.874848 -522.862289 
L 444.085766 -525.834956 
L 441.296685 -527.947609 
L 438.507603 -529.367655 
L 435.718522 -530.514437 
L 432.92944 -531.924717 
L 430.140359 -534.107102 
L 427.351277 -537.436136 
L 424.562196 -542.088267 
L 421.773114 -547.996281 
L 418.984033 -554.826239 
L 416.194951 -562.02444 
L 413.40587 -568.972332 
L 410.616788 -575.20625 
L 407.827706 -580.574051 
L 405.038625 -585.205329 
L 402.249543 -589.289895 
L 399.460462 -592.809077 
L 396.67138 -595.421335 
L 393.882299 -596.608141 
L 391.093217 -596.001352 
L 388.304136 -593.678391 
L 385.515054 -590.229189 
L 382.725973 -586.552452 
L 379.936891 -583.507496 
L 377.14781 -581.610672 
L 374.358728 -580.900682 
L 371.569647 -580.982067 
L 368.780565 -581.178386 
L 365.991484 -580.715267 
L 363.202402 -578.886927 
L 360.413321 -575.198051 
L 357.624239 -569.47932 
L 354.835158 -561.944509 
L 352.046076 -553.138637 
L 349.256995 -543.773785 
L 346.467913 -534.5353 
L 343.678832 -525.967928 
L 340.88975 -518.471429 
L 338.100669 -512.328762 
L 335.311587 -507.678843 
L 332.522506 -504.444743 
L 329.733424 -502.320362 
L 326.944343 -500.890175 
L 324.155261 -499.828072 
L 321.36618 -499.027112 
L 318.577098 -498.552582 
L 315.788017 -498.450621 
L 312.998935 -498.559323 
L 310.209854 -498.468862 
L 307.420772 -497.669896 
L 304.63169 -495.795715 
L 301.842609 -492.797237 
L 299.053527 -488.941412 
L 296.264446 -484.656116 
L 293.475364 -480.348819 
L 290.686283 -476.31427 
L 287.897201 -472.742756 
L 285.10812 -469.755801 
L 282.319038 -467.40636 
L 279.529957 -465.65169 
L 276.740875 -464.350745 
L 273.951794 -463.314677 
L 271.162712 -462.386237 
L 268.373631 -461.496669 
L 265.584549 -460.664032 
L 262.795468 -459.936279 
L 260.006386 -459.319819 
L 257.217305 -458.747333 
L 254.428223 -458.113222 
L 251.639142 -457.352998 
L 248.85006 -456.50494 
L 246.060979 -455.70434 
L 243.271897 -455.113222 
L 240.482816 -454.834729 
L 237.693734 -454.865486 
L 234.904653 -455.107173 
L 232.115571 -455.420994 
L 229.32649 -455.688873 
L 226.537408 -455.848826 
L 223.748327 -455.893553 
L 220.959245 -455.846677 
L 218.170164 -455.741461 
L 215.381082 -455.614243 
L 212.592001 -455.503569 
L 209.802919 -455.439701 
L 207.013838 -455.424085 
L 204.224756 -455.416703 
L 201.435674 -455.34919 
L 198.646593 -455.161876 
L 195.857511 -454.842321 
L 193.06843 -454.43978 
L 190.279348 -454.044949 
L 187.490267 -453.744777 
L 184.701185 -453.576186 
L 181.912104 -453.504983 
L 179.123022 -453.444634 
L 176.333941 -453.306148 
L 173.544859 -453.048311 
L 170.755778 -452.696031 
L 167.966696 -452.318246 
L 165.177615 -451.985858 
L 162.388533 -451.739702 
L 159.599452 -451.583886 
L 156.81037 -451.498755 
L 154.021289 -451.458351 
L 151.232207 -451.44162 
L 148.443126 -451.435563 
L 145.654044 -451.433672 
L 142.864963 -451.433291 
L 140.075881 -451.433731 
L 137.2868 -451.435525 
L 134.497718 -451.440609 
L 131.708637 -451.453044 
L 128.919555 -451.479554 
L 126.130474 -451.528592 
L 123.341392 -451.606695 
L 120.552311 -451.712375 
L 117.763229 -451.830808 
L 114.974148 -451.934493 
L 112.185066 -451.99272 
L 109.395985 -451.986089 
L 106.606903 -451.916878 
L 103.817822 -451.807792 
L 101.02874 -451.690009 
L 98.239658 -451.589022 
L 95.450577 -451.516838 
L 92.661495 -451.47286 
L 89.872414 -451.449749 
L 87.083332 -451.439197 
z
" style="stroke: #0071b2; stroke-width: 1.5"/>
    </defs>
    <g clip-path="url(#pfca7dc917b)">
     <use xlink:href="#mcf74273fd6" x="0" y="631.8125" style="fill: #0071b2; fill-opacity: 0.75; stroke: #0071b2; stroke-width: 1.5"/>
    </g>
   </g>
   <g id="FillBetweenPolyCollection_2">
    <defs>
     <path id="mf9f876ed2f" d="M -17.419153 -451.459397 
L -17.419153 -451.432917 
L -14.46907 -451.432917 
L -11.518988 -451.432917 
L -8.568906 -451.432917 
L -5.618823 -451.432917 
L -2.668741 -451.432917 
L 0.281341 -451.432917 
L 3.231424 -451.432917 
L 6.181506 -451.432917 
L 9.131588 -451.432917 
L 12.081671 -451.432917 
L 15.031753 -451.432917 
L 17.981835 -451.432917 
L 20.931918 -451.432917 
L 23.882 -451.432917 
L 26.832082 -451.432917 
L 29.782165 -451.432917 
L 32.732247 -451.432917 
L 35.682329 -451.432917 
L 38.632412 -451.432917 
L 41.582494 -451.432917 
L 44.532576 -451.432917 
L 47.482659 -451.432917 
L 50.432741 -451.432917 
L 53.382823 -451.432917 
L 56.332906 -451.432917 
L 59.282988 -451.432917 
L 62.23307 -451.432917 
L 65.183153 -451.432917 
L 68.133235 -451.432917 
L 71.083317 -451.432917 
L 74.0334 -451.432917 
L 76.983482 -451.432917 
L 79.933564 -451.432917 
L 82.883647 -451.432917 
L 85.833729 -451.432917 
L 88.783811 -451.432917 
L 91.733894 -451.432917 
L 94.683976 -451.432917 
L 97.634058 -451.432917 
L 100.584141 -451.432917 
L 103.534223 -451.432917 
L 106.484305 -451.432917 
L 109.434388 -451.432917 
L 112.38447 -451.432917 
L 115.334552 -451.432917 
L 118.284635 -451.432917 
L 121.234717 -451.432917 
L 124.184799 -451.432917 
L 127.134882 -451.432917 
L 130.084964 -451.432917 
L 133.035046 -451.432917 
L 135.985129 -451.432917 
L 138.935211 -451.432917 
L 141.885293 -451.432917 
L 144.835376 -451.432917 
L 147.785458 -451.432917 
L 150.73554 -451.432917 
L 153.685623 -451.432917 
L 156.635705 -451.432917 
L 159.585787 -451.432917 
L 162.53587 -451.432917 
L 165.485952 -451.432917 
L 168.436034 -451.432917 
L 171.386117 -451.432917 
L 174.336199 -451.432917 
L 177.286281 -451.432917 
L 180.236364 -451.432917 
L 183.186446 -451.432917 
L 186.136528 -451.432917 
L 189.08661 -451.432917 
L 192.036693 -451.432917 
L 194.986775 -451.432917 
L 197.936857 -451.432917 
L 200.88694 -451.432917 
L 203.837022 -451.432917 
L 206.787104 -451.432917 
L 209.737187 -451.432917 
L 212.687269 -451.432917 
L 215.637351 -451.432917 
L 218.587434 -451.432917 
L 221.537516 -451.432917 
L 224.487598 -451.432917 
L 227.437681 -451.432917 
L 230.387763 -451.432917 
L 233.337845 -451.432917 
L 236.287928 -451.432917 
L 239.23801 -451.432917 
L 242.188092 -451.432917 
L 245.138175 -451.432917 
L 248.088257 -451.432917 
L 251.038339 -451.432917 
L 253.988422 -451.432917 
L 256.938504 -451.432917 
L 259.888586 -451.432917 
L 262.838669 -451.432917 
L 265.788751 -451.432917 
L 268.738833 -451.432917 
L 271.688916 -451.432917 
L 274.638998 -451.432917 
L 277.58908 -451.432917 
L 280.539163 -451.432917 
L 283.489245 -451.432917 
L 286.439327 -451.432917 
L 289.38941 -451.432917 
L 292.339492 -451.432917 
L 295.289574 -451.432917 
L 298.239657 -451.432917 
L 301.189739 -451.432917 
L 304.139821 -451.432917 
L 307.089904 -451.432917 
L 310.039986 -451.432917 
L 312.990068 -451.432917 
L 315.940151 -451.432917 
L 318.890233 -451.432917 
L 321.840315 -451.432917 
L 324.790398 -451.432917 
L 327.74048 -451.432917 
L 330.690562 -451.432917 
L 333.640645 -451.432917 
L 336.590727 -451.432917 
L 339.540809 -451.432917 
L 342.490892 -451.432917 
L 345.440974 -451.432917 
L 348.391056 -451.432917 
L 351.341139 -451.432917 
L 354.291221 -451.432917 
L 357.241303 -451.432917 
L 360.191386 -451.432917 
L 363.141468 -451.432917 
L 366.09155 -451.432917 
L 369.041633 -451.432917 
L 371.991715 -451.432917 
L 374.941797 -451.432917 
L 377.89188 -451.432917 
L 380.841962 -451.432917 
L 383.792044 -451.432917 
L 386.742127 -451.432917 
L 389.692209 -451.432917 
L 392.642291 -451.432917 
L 395.592374 -451.432917 
L 398.542456 -451.432917 
L 401.492538 -451.432917 
L 404.442621 -451.432917 
L 407.392703 -451.432917 
L 410.342785 -451.432917 
L 413.292868 -451.432917 
L 416.24295 -451.432917 
L 419.193032 -451.432917 
L 422.143115 -451.432917 
L 425.093197 -451.432917 
L 428.043279 -451.432917 
L 430.993362 -451.432917 
L 433.943444 -451.432917 
L 436.893526 -451.432917 
L 439.843609 -451.432917 
L 442.793691 -451.432917 
L 445.743773 -451.432917 
L 448.693856 -451.432917 
L 451.643938 -451.432917 
L 454.59402 -451.432917 
L 457.544103 -451.432917 
L 460.494185 -451.432917 
L 463.444267 -451.432917 
L 466.39435 -451.432917 
L 469.344432 -451.432917 
L 472.294514 -451.432917 
L 475.244597 -451.432917 
L 478.194679 -451.432917 
L 481.144761 -451.432917 
L 484.094844 -451.432917 
L 487.044926 -451.432917 
L 489.995008 -451.432917 
L 492.945091 -451.432917 
L 495.895173 -451.432917 
L 498.845255 -451.432917 
L 501.795338 -451.432917 
L 504.74542 -451.432917 
L 507.695502 -451.432917 
L 510.645584 -451.432917 
L 513.595667 -451.432917 
L 516.545749 -451.432917 
L 519.495831 -451.432917 
L 522.445914 -451.432917 
L 525.395996 -451.432917 
L 528.346078 -451.432917 
L 531.296161 -451.432917 
L 534.246243 -451.432917 
L 537.196325 -451.432917 
L 540.146408 -451.432917 
L 543.09649 -451.432917 
L 546.046572 -451.432917 
L 548.996655 -451.432917 
L 551.946737 -451.432917 
L 554.896819 -451.432917 
L 557.846902 -451.432917 
L 560.796984 -451.432917 
L 563.747066 -451.432917 
L 566.697149 -451.432917 
L 569.647231 -451.432917 
L 569.647231 -451.449638 
L 569.647231 -451.449638 
L 566.697149 -451.476266 
L 563.747066 -451.535496 
L 560.796984 -451.65475 
L 557.846902 -451.872098 
L 554.896819 -452.230797 
L 551.946737 -452.76741 
L 548.996655 -453.496818 
L 546.046572 -454.40178 
L 543.09649 -455.434768 
L 540.146408 -456.533215 
L 537.196325 -457.639527 
L 534.246243 -458.71247 
L 531.296161 -459.722759 
L 528.346078 -460.639322 
L 525.395996 -461.421971 
L 522.445914 -462.031532 
L 519.495831 -462.452226 
L 516.545749 -462.70749 
L 513.595667 -462.85281 
L 510.645584 -462.947276 
L 507.695502 -463.024196 
L 504.74542 -463.083125 
L 501.795338 -463.108525 
L 498.845255 -463.09903 
L 495.895173 -463.084865 
L 492.945091 -463.123663 
L 489.995008 -463.283317 
L 487.044926 -463.627429 
L 484.094844 -464.210469 
L 481.144761 -465.076862 
L 478.194679 -466.253885 
L 475.244597 -467.735159 
L 472.294514 -469.461902 
L 469.344432 -471.314379 
L 466.39435 -473.123882 
L 463.444267 -474.708581 
L 460.494185 -475.926574 
L 457.544103 -476.727723 
L 454.59402 -477.178148 
L 451.643938 -477.43754 
L 448.693856 -477.693225 
L 445.743773 -478.083287 
L 442.793691 -478.650983 
L 439.843609 -479.352405 
L 436.893526 -480.103574 
L 433.943444 -480.831318 
L 430.993362 -481.501024 
L 428.043279 -482.120665 
L 425.093197 -482.736813 
L 422.143115 -483.431855 
L 419.193032 -484.316426 
L 416.24295 -485.508726 
L 413.292868 -487.106322 
L 410.342785 -489.167882 
L 407.392703 -491.715901 
L 404.442621 -494.75203 
L 401.492538 -498.264993 
L 398.542456 -502.219483 
L 395.592374 -506.5336 
L 392.642291 -511.063184 
L 389.692209 -515.605649 
L 386.742127 -519.923946 
L 383.792044 -523.787108 
L 380.841962 -527.027383 
L 377.89188 -529.611125 
L 374.941797 -531.701928 
L 371.991715 -533.672508 
L 369.041633 -536.024666 
L 366.09155 -539.219762 
L 363.141468 -543.484469 
L 360.191386 -548.690066 
L 357.241303 -554.373083 
L 354.291221 -559.885228 
L 351.341139 -564.589284 
L 348.391056 -568.007966 
L 345.440974 -569.885087 
L 342.490892 -570.181572 
L 339.540809 -569.05033 
L 336.590727 -566.80788 
L 333.640645 -563.887125 
L 330.690562 -560.754904 
L 327.74048 -557.809669 
L 324.790398 -555.302508 
L 321.840315 -553.317376 
L 318.890233 -551.808726 
L 315.940151 -550.661952 
L 312.990068 -549.741988 
L 310.039986 -548.921525 
L 307.089904 -548.101492 
L 304.139821 -547.232209 
L 301.189739 -546.325102 
L 298.239657 -545.43838 
L 295.289574 -544.635677 
L 292.339492 -543.937872 
L 289.38941 -543.293054 
L 286.439327 -542.575615 
L 283.489245 -541.609524 
L 280.539163 -540.207078 
L 277.58908 -538.217885 
L 274.638998 -535.579575 
L 271.688916 -532.350877 
L 268.738833 -528.704955 
L 265.788751 -524.878458 
L 262.838669 -521.099362 
L 259.888586 -517.530127 
L 256.938504 -514.249759 
L 253.988422 -511.270656 
L 251.038339 -508.566493 
L 248.088257 -506.088136 
L 245.138175 -503.76083 
L 242.188092 -501.474301 
L 239.23801 -499.086298 
L 236.287928 -496.454615 
L 233.337845 -493.494649 
L 230.387763 -490.237991 
L 227.437681 -486.85619 
L 224.487598 -483.624196 
L 221.537516 -480.828749 
L 218.587434 -478.660727 
L 215.637351 -477.144068 
L 212.687269 -476.136494 
L 209.737187 -475.399203 
L 206.787104 -474.697457 
L 203.837022 -473.881766 
L 200.88694 -472.915309 
L 197.936857 -471.846154 
L 194.986775 -470.752244 
L 192.036693 -469.695452 
L 189.08661 -468.705473 
L 186.136528 -467.790094 
L 183.186446 -466.954597 
L 180.236364 -466.216174 
L 177.286281 -465.608789 
L 174.336199 -465.178155 
L 171.386117 -464.965731 
L 168.436034 -464.983491 
L 165.485952 -465.189607 
L 162.53587 -465.480637 
L 159.585787 -465.710144 
L 156.635705 -465.729901 
L 153.685623 -465.437803 
L 150.73554 -464.81322 
L 147.785458 -463.925472 
L 144.835376 -462.911209 
L 141.885293 -461.928112 
L 138.935211 -461.101782 
L 135.985129 -460.486366 
L 133.035046 -460.055739 
L 130.084964 -459.73009 
L 127.134882 -459.424711 
L 124.184799 -459.092576 
L 121.234717 -458.734405 
L 118.284635 -458.374268 
L 115.334552 -458.028113 
L 112.38447 -457.698291 
L 109.434388 -457.399622 
L 106.484305 -457.186034 
L 103.534223 -457.138486 
L 100.584141 -457.306784 
L 97.634058 -457.643595 
L 94.683976 -457.986693 
L 91.733894 -458.116706 
L 88.783811 -457.863434 
L 85.833729 -457.196933 
L 82.883647 -456.248473 
L 79.933564 -455.252165 
L 76.983482 -454.44439 
L 74.0334 -453.97394 
L 71.083317 -453.858884 
L 68.133235 -453.997294 
L 65.183153 -454.217939 
L 62.23307 -454.348125 
L 59.282988 -454.273933 
L 56.332906 -453.9716 
L 53.382823 -453.500198 
L 50.432741 -452.963507 
L 47.482659 -452.463074 
L 44.532576 -452.065381 
L 41.582494 -451.793952 
L 38.632412 -451.642084 
L 35.682329 -451.593501 
L 32.732247 -451.638856 
L 29.782165 -451.781309 
L 26.832082 -452.029834 
L 23.882 -452.383278 
L 20.931918 -452.8127 
L 17.981835 -453.252861 
L 15.031753 -453.612204 
L 12.081671 -453.801665 
L 9.131588 -453.76992 
L 6.181506 -453.525746 
L 3.231424 -453.134063 
L 0.281341 -452.688029 
L -2.668741 -452.273454 
L -5.618823 -451.943851 
L -8.568906 -451.714824 
L -11.518988 -451.574099 
L -14.46907 -451.497095 
L -17.419153 -451.459397 
z
" style="stroke: #d55e00; stroke-width: 1.5"/>
    </defs>
    <g clip-path="url(#pfca7dc917b)">
     <use xlink:href="#mf9f876ed2f" x="0" y="631.8125" style="fill: #d55e00; fill-opacity: 0.75; stroke: #d55e00; stroke-width: 1.5"/>
    </g>
   </g>
   <g id="line2d_9">
    <path d="M 11.0175 180.379583 
L 592.6225 180.379583 
" clip-path="url(#pfca7dc917b)" style="fill: none; stroke: #0071b2; stroke-width: 2; stroke-linecap: square"/>
   </g>
   <g id="line2d_10">
    <path d="M 11.0175 180.379583 
L 592.6225 180.379583 
" clip-path="url(#pfca7dc917b)" style="fill: none; stroke: #d55e00; stroke-width: 2; stroke-linecap: square"/>
   </g>
   <g id="text_1">
    <!-- Budapest -->
    <g style="fill: #2d2d2d" transform="translate(16.83355 37.591937) scale(0.16 -0.16)">
     <defs>
      <path id="DejaVuSans-42" d="M 1259 2228 
L 1259 519 
L 2272 519 
Q 2781 519 3026 730 
Q 3272 941 3272 1375 
Q 3272 1813 3026 2020 
Q 2781 2228 2272 2228 
L 1259 2228 
z
M 1259 4147 
L 1259 2741 
L 2194 2741 
Q 2656 2741 2882 2914 
Q 3109 3088 3109 3444 
Q 3109 3797 2882 3972 
Q 2656 4147 2194 4147 
L 1259 4147 
z
M 628 4666 
L 2241 4666 
Q 2963 4666 3353 4366 
Q 3744 4066 3744 3513 
Q 3744 3084 3544 2831 
Q 3344 2578 2956 2516 
Q 3422 2416 3680 2098 
Q 3938 1781 3938 1306 
Q 3938 681 3513 340 
Q 3088 0 2303 0 
L 628 0 
L 628 4666 
z
" transform="scale(0.015625)"/>
      <path id="DejaVuSans-75" d="M 544 1381 
L 544 3500 
L 1119 3500 
L 1119 1403 
Q 1119 906 1312 657 
Q 1506 409 1894 409 
Q 2359 409 2629 706 
Q 2900 1003 2900 1516 
L 2900 3500 
L 3475 3500 
L 3475 0 
L 2900 0 
L 2900 538 
Q 2691 219 2414 64 
Q 2138 -91 1772 -91 
Q 1169 -91 856 284 
Q 544 659 544 1381 
z
M 1991 3584 
L 1991 3584 
z
" transform="scale(0.015625)"/>
      <path id="DejaVuSans-64" d="M 2906 2969 
L 2906 4863 
L 3481 4863 
L 3481 0 
L 2906 0 
L 2906 525 
Q 2725 213 2448 61 
Q 2172 -91 1784 -91 
Q 1150 -91 751 415 
Q 353 922 353 1747 
Q 353 2572 751 3078 
Q 1150 3584 1784 3584 
Q 2172 3584 2448 3432 
Q 2725 3281 2906 2969 
z
M 947 1747 
Q 947 1113 1208 752 
Q 1469 391 1925 391 
Q 2381 391 2643 752 
Q 2906 1113 2906 1747 
Q 2906 2381 2643 2742 
Q 2381 3103 1925 3103 
Q 1469 3103 1208 2742 
Q 947 2381 947 1747 
z
" transform="scale(0.015625)"/>
      <path id="DejaVuSans-61" d="M 2194 1759 
Q 1497 1759 1228 1600 
Q 959 1441 959 1056 
Q 959 750 1161 570 
Q 1363 391 1709 391 
Q 2188 391 2477 730 
Q 2766 1069 2766 1631 
L 2766 1759 
L 2194 1759 
z
M 3341 1997 
L 3341 0 
L 2766 0 
L 2766 531 
Q 2569 213 2275 61 
Q 1981 -91 1556 -91 
Q 1019 -91 701 211 
Q 384 513 384 1019 
Q 384 1609 779 1909 
Q 1175 2209 1959 2209 
L 2766 2209 
L 2766 2266 
Q 2766 2663 2505 2880 
Q 2244 3097 1772 3097 
Q 1472 3097 1187 3025 
Q 903 2953 641 2809 
L 641 3341 
Q 956 3463 1253 3523 
Q 1550 3584 1831 3584 
Q 2591 3584 2966 3190 
Q 3341 2797 3341 1997 
z
" transform="scale(0.015625)"/>
      <path id="DejaVuSans-70" d="M 1159 525 
L 1159 -1331 
L 581 -1331 
L 581 3500 
L 1159 3500 
L 1159 2969 
Q 1341 3281 1617 3432 
Q 1894 3584 2278 3584 
Q 2916 3584 3314 3078 
Q 3713 2572 3713 1747 
Q 3713 922 3314 415 
Q 2916 -91 2278 -91 
Q 1894 -91 1617 61 
Q 1341 213 1159 525 
z
M 3116 1747 
Q 3116 2381 2855 2742 
Q 2594 3103 2138 3103 
Q 1681 3103 1420 2742 
Q 1159 2381 1159 1747 
Q 1159 1113 1420 752 
Q 1681 391 2138 391 
Q 2594 391 2855 752 
Q 3116 1113 3116 1747 
z
" transform="scale(0.015625)"/>
      <path id="DejaVuSans-65" d="M 3597 1894 
L 3597 1613 
L 953 1613 
Q 991 1019 1311 708 
Q 1631 397 2203 397 
Q 2534 397 2845 478 
Q 3156 559 3463 722 
L 3463 178 
Q 3153 47 2828 -22 
Q 2503 -91 2169 -91 
Q 1331 -91 842 396 
Q 353 884 353 1716 
Q 353 2575 817 3079 
Q 1281 3584 2069 3584 
Q 2775 3584 3186 3129 
Q 3597 2675 3597 1894 
z
M 3022 2063 
Q 3016 2534 2758 2815 
Q 2500 3097 2075 3097 
Q 1594 3097 1305 2825 
Q 1016 2553 972 2059 
L 3022 2063 
z
" transform="scale(0.015625)"/>
      <path id="DejaVuSans-73" d="M 2834 3397 
L 2834 2853 
Q 2591 2978 2328 3040 
Q 2066 3103 1784 3103 
Q 1356 3103 1142 2972 
Q 928 2841 928 2578 
Q 928 2378 1081 2264 
Q 1234 2150 1697 2047 
L 1894 2003 
Q 2506 1872 2764 1633 
Q 3022 1394 3022 966 
Q 3022 478 2636 193 
Q 2250 -91 1575 -91 
Q 1294 -91 989 -36 
Q 684 19 347 128 
L 347 722 
Q 666 556 975 473 
Q 1284 391 1588 391 
Q 1994 391 2212 530 
Q 2431 669 2431 922 
Q 2431 1156 2273 1281 
Q 2116 1406 1581 1522 
L 1381 1569 
Q 847 1681 609 1914 
Q 372 2147 372 2553 
Q 372 3047 722 3315 
Q 1072 3584 1716 3584 
Q 2034 3584 2315 3537 
Q 2597 3491 2834 3397 
z
" transform="scale(0.015625)"/>
      <path id="DejaVuSans-74" d="M 1172 4494 
L 1172 3500 
L 2356 3500 
L 2356 3053 
L 1172 3053 
L 1172 1153 
Q 1172 725 1289 603 
Q 1406 481 1766 481 
L 2356 481 
L 2356 0 
L 1766 0 
Q 1100 0 847 248 
Q 594 497 594 1153 
L 594 3053 
L 172 3053 
L 172 3500 
L 594 3500 
L 594 4494 
L 1172 4494 
z
" transform="scale(0.015625)"/>
     </defs>
     <use xlink:href="#DejaVuSans-42"/>
     <use xlink:href="#DejaVuSans-75" transform="translate(68.603516 0)"/>
     <use xlink:href="#DejaVuSans-64" transform="translate(131.982422 0)"/>
     <use xlink:href="#DejaVuSans-61" transform="translate(195.458984 0)"/>
     <use xlink:href="#DejaVuSans-70" transform="translate(256.738281 0)"/>
     <use xlink:href="#DejaVuSans-65" transform="translate(320.214844 0)"/>
     <use xlink:href="#DejaVuSans-73" transform="translate(381.738281 0)"/>
     <use xlink:href="#DejaVuSans-74" transform="translate(433.837891 0)"/>
    </g>
   </g>
   <g id="legend_1">
    <g id="patch_3">
     <path d="M 131.336094 38.949375 
L 472.303906 38.949375 
Q 475.103906 38.949375 475.103906 36.149375 
L 475.103906 17 
Q 475.103906 14.2 472.303906 14.2 
L 131.336094 14.2 
Q 128.536094 14.2 128.536094 17 
L 128.536094 36.149375 
Q 128.536094 38.949375 131.336094 38.949375 
z
" style="fill: #ffffff; opacity: 0.8; stroke: #cccccc; stroke-linejoin: miter"/>
    </g>
    <g id="patch_4">
     <path d="M 134.136094 30.437813 
L 162.136094 30.437813 
L 162.136094 20.637813 
L 134.136094 20.637813 
z
" style="fill: #0071b2; stroke: #0071b2; stroke-linejoin: miter"/>
    </g>
    <g id="text_2">
     <!-- multimodal acces -->
     <g transform="translate(173.336094 30.437813) scale(0.14 -0.14)">
      <defs>
       <path id="DejaVuSans-6d" d="M 3328 2828 
Q 3544 3216 3844 3400 
Q 4144 3584 4550 3584 
Q 5097 3584 5394 3201 
Q 5691 2819 5691 2113 
L 5691 0 
L 5113 0 
L 5113 2094 
Q 5113 2597 4934 2840 
Q 4756 3084 4391 3084 
Q 3944 3084 3684 2787 
Q 3425 2491 3425 1978 
L 3425 0 
L 2847 0 
L 2847 2094 
Q 2847 2600 2669 2842 
Q 2491 3084 2119 3084 
Q 1678 3084 1418 2786 
Q 1159 2488 1159 1978 
L 1159 0 
L 581 0 
L 581 3500 
L 1159 3500 
L 1159 2956 
Q 1356 3278 1631 3431 
Q 1906 3584 2284 3584 
Q 2666 3584 2933 3390 
Q 3200 3197 3328 2828 
z
" transform="scale(0.015625)"/>
       <path id="DejaVuSans-6c" d="M 603 4863 
L 1178 4863 
L 1178 0 
L 603 0 
L 603 4863 
z
" transform="scale(0.015625)"/>
       <path id="DejaVuSans-69" d="M 603 3500 
L 1178 3500 
L 1178 0 
L 603 0 
L 603 3500 
z
M 603 4863 
L 1178 4863 
L 1178 4134 
L 603 4134 
L 603 4863 
z
" transform="scale(0.015625)"/>
       <path id="DejaVuSans-6f" d="M 1959 3097 
Q 1497 3097 1228 2736 
Q 959 2375 959 1747 
Q 959 1119 1226 758 
Q 1494 397 1959 397 
Q 2419 397 2687 759 
Q 2956 1122 2956 1747 
Q 2956 2369 2687 2733 
Q 2419 3097 1959 3097 
z
M 1959 3584 
Q 2709 3584 3137 3096 
Q 3566 2609 3566 1747 
Q 3566 888 3137 398 
Q 2709 -91 1959 -91 
Q 1206 -91 779 398 
Q 353 888 353 1747 
Q 353 2609 779 3096 
Q 1206 3584 1959 3584 
z
" transform="scale(0.015625)"/>
       <path id="DejaVuSans-20" transform="scale(0.015625)"/>
       <path id="DejaVuSans-63" d="M 3122 3366 
L 3122 2828 
Q 2878 2963 2633 3030 
Q 2388 3097 2138 3097 
Q 1578 3097 1268 2742 
Q 959 2388 959 1747 
Q 959 1106 1268 751 
Q 1578 397 2138 397 
Q 2388 397 2633 464 
Q 2878 531 3122 666 
L 3122 134 
Q 2881 22 2623 -34 
Q 2366 -91 2075 -91 
Q 1284 -91 818 406 
Q 353 903 353 1747 
Q 353 2603 823 3093 
Q 1294 3584 2113 3584 
Q 2378 3584 2631 3529 
Q 2884 3475 3122 3366 
z
" transform="scale(0.015625)"/>
      </defs>
      <use xlink:href="#DejaVuSans-6d"/>
      <use xlink:href="#DejaVuSans-75" transform="translate(97.412109 0)"/>
      <use xlink:href="#DejaVuSans-6c" transform="translate(160.791016 0)"/>
      <use xlink:href="#DejaVuSans-74" transform="translate(188.574219 0)"/>
      <use xlink:href="#DejaVuSans-69" transform="translate(227.783203 0)"/>
      <use xlink:href="#DejaVuSans-6d" transform="translate(255.566406 0)"/>
      <use xlink:href="#DejaVuSans-6f" transform="translate(352.978516 0)"/>
      <use xlink:href="#DejaVuSans-64" transform="translate(414.160156 0)"/>
      <use xlink:href="#DejaVuSans-61" transform="translate(477.636719 0)"/>
      <use xlink:href="#DejaVuSans-6c" transform="translate(538.916016 0)"/>
      <use xlink:href="#DejaVuSans-20" transform="translate(566.699219 0)"/>
      <use xlink:href="#DejaVuSans-61" transform="translate(598.486328 0)"/>
      <use xlink:href="#DejaVuSans-63" transform="translate(659.765625 0)"/>
      <use xlink:href="#DejaVuSans-63" transform="translate(714.746094 0)"/>
      <use xlink:href="#DejaVuSans-65" transform="translate(769.726562 0)"/>
      <use xlink:href="#DejaVuSans-73" transform="translate(831.25 0)"/>
     </g>
    </g>
    <g id="patch_5">
     <path d="M 325.004219 30.437813 
L 353.004219 30.437813 
L 353.004219 20.637813 
L 325.004219 20.637813 
z
" style="fill: #d55e00; stroke: #d55e00; stroke-linejoin: miter"/>
    </g>
    <g id="text_3">
     <!-- walking access -->
     <g transform="translate(364.204219 30.437813) scale(0.14 -0.14)">
      <defs>
       <path id="DejaVuSans-77" d="M 269 3500 
L 844 3500 
L 1563 769 
L 2278 3500 
L 2956 3500 
L 3675 769 
L 4391 3500 
L 4966 3500 
L 4050 0 
L 3372 0 
L 2619 2869 
L 1863 0 
L 1184 0 
L 269 3500 
z
" transform="scale(0.015625)"/>
       <path id="DejaVuSans-6b" d="M 581 4863 
L 1159 4863 
L 1159 1991 
L 2875 3500 
L 3609 3500 
L 1753 1863 
L 3688 0 
L 2938 0 
L 1159 1709 
L 1159 0 
L 581 0 
L 581 4863 
z
" transform="scale(0.015625)"/>
       <path id="DejaVuSans-6e" d="M 3513 2113 
L 3513 0 
L 2938 0 
L 2938 2094 
Q 2938 2591 2744 2837 
Q 2550 3084 2163 3084 
Q 1697 3084 1428 2787 
Q 1159 2491 1159 1978 
L 1159 0 
L 581 0 
L 581 3500 
L 1159 3500 
L 1159 2956 
Q 1366 3272 1645 3428 
Q 1925 3584 2291 3584 
Q 2894 3584 3203 3211 
Q 3513 2838 3513 2113 
z
" transform="scale(0.015625)"/>
       <path id="DejaVuSans-67" d="M 2906 1791 
Q 2906 2416 2648 2759 
Q 2391 3103 1925 3103 
Q 1463 3103 1205 2759 
Q 947 2416 947 1791 
Q 947 1169 1205 825 
Q 1463 481 1925 481 
Q 2391 481 2648 825 
Q 2906 1169 2906 1791 
z
M 3481 434 
Q 3481 -459 3084 -895 
Q 2688 -1331 1869 -1331 
Q 1566 -1331 1297 -1286 
Q 1028 -1241 775 -1147 
L 775 -588 
Q 1028 -725 1275 -790 
Q 1522 -856 1778 -856 
Q 2344 -856 2625 -561 
Q 2906 -266 2906 331 
L 2906 616 
Q 2728 306 2450 153 
Q 2172 0 1784 0 
Q 1141 0 747 490 
Q 353 981 353 1791 
Q 353 2603 747 3093 
Q 1141 3584 1784 3584 
Q 2172 3584 2450 3431 
Q 2728 3278 2906 2969 
L 2906 3500 
L 3481 3500 
L 3481 434 
z
" transform="scale(0.015625)"/>
      </defs>
      <use xlink:href="#DejaVuSans-77"/>
      <use xlink:href="#DejaVuSans-61" transform="translate(81.787109 0)"/>
      <use xlink:href="#DejaVuSans-6c" transform="translate(143.066406 0)"/>
      <use xlink:href="#DejaVuSans-6b" transform="translate(170.849609 0)"/>
      <use xlink:href="#DejaVuSans-69" transform="translate(228.759766 0)"/>
      <use xlink:href="#DejaVuSans-6e" transform="translate(256.542969 0)"/>
      <use xlink:href="#DejaVuSans-67" transform="translate(319.921875 0)"/>
      <use xlink:href="#DejaVuSans-20" transform="translate(383.398438 0)"/>
      <use xlink:href="#DejaVuSans-61" transform="translate(415.185547 0)"/>
      <use xlink:href="#DejaVuSans-63" transform="translate(476.464844 0)"/>
      <use xlink:href="#DejaVuSans-63" transform="translate(531.445312 0)"/>
      <use xlink:href="#DejaVuSans-65" transform="translate(586.425781 0)"/>
      <use xlink:href="#DejaVuSans-73" transform="translate(647.949219 0)"/>
      <use xlink:href="#DejaVuSans-73" transform="translate(700.048828 0)"/>
     </g>
    </g>
   </g>
  </g>
  <g id="axes_2">
   <g id="patch_6">
    <path d="M 11.0175 384.399167 
L 592.6225 384.399167 
L 592.6225 211.219583 
L 11.0175 211.219583 
L 11.0175 384.399167 
z
" style="fill: none"/>
   </g>
   <g id="matplotlib.axis_3">
    <g id="xtick_5">
     <g id="line2d_11">
      <path d="M 11.0175 384.399167 
L 11.0175 211.219583 
" clip-path="url(#p865acc8bca)" style="fill: none; stroke: #b0b0b0; stroke-width: 0.8; stroke-linecap: square"/>
     </g>
     <g id="line2d_12">
      <g>
       <use xlink:href="#mfa605a8f82" x="11.0175" y="384.399167" style="stroke: #000000; stroke-width: 0.8"/>
      </g>
     </g>
    </g>
    <g id="xtick_6">
     <g id="line2d_13">
      <path d="M 177.190357 384.399167 
L 177.190357 211.219583 
" clip-path="url(#p865acc8bca)" style="fill: none; stroke: #b0b0b0; stroke-width: 0.8; stroke-linecap: square"/>
     </g>
     <g id="line2d_14">
      <g>
       <use xlink:href="#mfa605a8f82" x="177.190357" y="384.399167" style="stroke: #000000; stroke-width: 0.8"/>
      </g>
     </g>
    </g>
    <g id="xtick_7">
     <g id="line2d_15">
      <path d="M 343.363214 384.399167 
L 343.363214 211.219583 
" clip-path="url(#p865acc8bca)" style="fill: none; stroke: #b0b0b0; stroke-width: 0.8; stroke-linecap: square"/>
     </g>
     <g id="line2d_16">
      <g>
       <use xlink:href="#mfa605a8f82" x="343.363214" y="384.399167" style="stroke: #000000; stroke-width: 0.8"/>
      </g>
     </g>
    </g>
    <g id="xtick_8">
     <g id="line2d_17">
      <path d="M 509.536071 384.399167 
L 509.536071 211.219583 
" clip-path="url(#p865acc8bca)" style="fill: none; stroke: #b0b0b0; stroke-width: 0.8; stroke-linecap: square"/>
     </g>
     <g id="line2d_18">
      <g>
       <use xlink:href="#mfa605a8f82" x="509.536071" y="384.399167" style="stroke: #000000; stroke-width: 0.8"/>
      </g>
     </g>
    </g>
   </g>
   <g id="matplotlib.axis_4"/>
   <g id="FillBetweenPolyCollection_3">
    <path d="M -14.861944 384.390348 
L -14.861944 384.399167 
L -11.672088 384.399167 
L -8.482233 384.399167 
L -5.292377 384.399167 
L -2.102521 384.399167 
L 1.087335 384.399167 
L 4.27719 384.399167 
L 7.467046 384.399167 
L 10.656902 384.399167 
L 13.846758 384.399167 
L 17.036613 384.399167 
L 20.226469 384.399167 
L 23.416325 384.399167 
L 26.606181 384.399167 
L 29.796037 384.399167 
L 32.985892 384.399167 
L 36.175748 384.399167 
L 39.365604 384.399167 
L 42.55546 384.399167 
L 45.745315 384.399167 
L 48.935171 384.399167 
L 52.125027 384.399167 
L 55.314883 384.399167 
L 58.504738 384.399167 
L 61.694594 384.399167 
L 64.88445 384.399167 
L 68.074306 384.399167 
L 71.264161 384.399167 
L 74.454017 384.399167 
L 77.643873 384.399167 
L 80.833729 384.399167 
L 84.023584 384.399167 
L 87.21344 384.399167 
L 90.403296 384.399167 
L 93.593152 384.399167 
L 96.783007 384.399167 
L 99.972863 384.399167 
L 103.162719 384.399167 
L 106.352575 384.399167 
L 109.54243 384.399167 
L 112.732286 384.399167 
L 115.922142 384.399167 
L 119.111998 384.399167 
L 122.301854 384.399167 
L 125.491709 384.399167 
L 128.681565 384.399167 
L 131.871421 384.399167 
L 135.061277 384.399167 
L 138.251132 384.399167 
L 141.440988 384.399167 
L 144.630844 384.399167 
L 147.8207 384.399167 
L 151.010555 384.399167 
L 154.200411 384.399167 
L 157.390267 384.399167 
L 160.580123 384.399167 
L 163.769978 384.399167 
L 166.959834 384.399167 
L 170.14969 384.399167 
L 173.339546 384.399167 
L 176.529401 384.399167 
L 179.719257 384.399167 
L 182.909113 384.399167 
L 186.098969 384.399167 
L 189.288824 384.399167 
L 192.47868 384.399167 
L 195.668536 384.399167 
L 198.858392 384.399167 
L 202.048247 384.399167 
L 205.238103 384.399167 
L 208.427959 384.399167 
L 211.617815 384.399167 
L 214.807671 384.399167 
L 217.997526 384.399167 
L 221.187382 384.399167 
L 224.377238 384.399167 
L 227.567094 384.399167 
L 230.756949 384.399167 
L 233.946805 384.399167 
L 237.136661 384.399167 
L 240.326517 384.399167 
L 243.516372 384.399167 
L 246.706228 384.399167 
L 249.896084 384.399167 
L 253.08594 384.399167 
L 256.275795 384.399167 
L 259.465651 384.399167 
L 262.655507 384.399167 
L 265.845363 384.399167 
L 269.035218 384.399167 
L 272.225074 384.399167 
L 275.41493 384.399167 
L 278.604786 384.399167 
L 281.794641 384.399167 
L 284.984497 384.399167 
L 288.174353 384.399167 
L 291.364209 384.399167 
L 294.554064 384.399167 
L 297.74392 384.399167 
L 300.933776 384.399167 
L 304.123632 384.399167 
L 307.313488 384.399167 
L 310.503343 384.399167 
L 313.693199 384.399167 
L 316.883055 384.399167 
L 320.072911 384.399167 
L 323.262766 384.399167 
L 326.452622 384.399167 
L 329.642478 384.399167 
L 332.832334 384.399167 
L 336.022189 384.399167 
L 339.212045 384.399167 
L 342.401901 384.399167 
L 345.591757 384.399167 
L 348.781612 384.399167 
L 351.971468 384.399167 
L 355.161324 384.399167 
L 358.35118 384.399167 
L 361.541035 384.399167 
L 364.730891 384.399167 
L 367.920747 384.399167 
L 371.110603 384.399167 
L 374.300458 384.399167 
L 377.490314 384.399167 
L 380.68017 384.399167 
L 383.870026 384.399167 
L 387.059881 384.399167 
L 390.249737 384.399167 
L 393.439593 384.399167 
L 396.629449 384.399167 
L 399.819305 384.399167 
L 403.00916 384.399167 
L 406.199016 384.399167 
L 409.388872 384.399167 
L 412.578728 384.399167 
L 415.768583 384.399167 
L 418.958439 384.399167 
L 422.148295 384.399167 
L 425.338151 384.399167 
L 428.528006 384.399167 
L 431.717862 384.399167 
L 434.907718 384.399167 
L 438.097574 384.399167 
L 441.287429 384.399167 
L 444.477285 384.399167 
L 447.667141 384.399167 
L 450.856997 384.399167 
L 454.046852 384.399167 
L 457.236708 384.399167 
L 460.426564 384.399167 
L 463.61642 384.399167 
L 466.806275 384.399167 
L 469.996131 384.399167 
L 473.185987 384.399167 
L 476.375843 384.399167 
L 479.565698 384.399167 
L 482.755554 384.399167 
L 485.94541 384.399167 
L 489.135266 384.399167 
L 492.325122 384.399167 
L 495.514977 384.399167 
L 498.704833 384.399167 
L 501.894689 384.399167 
L 505.084545 384.399167 
L 508.2744 384.399167 
L 511.464256 384.399167 
L 514.654112 384.399167 
L 517.843968 384.399167 
L 521.033823 384.399167 
L 524.223679 384.399167 
L 527.413535 384.399167 
L 530.603391 384.399167 
L 533.793246 384.399167 
L 536.983102 384.399167 
L 540.172958 384.399167 
L 543.362814 384.399167 
L 546.552669 384.399167 
L 549.742525 384.399167 
L 552.932381 384.399167 
L 556.122237 384.399167 
L 559.312092 384.399167 
L 562.501948 384.399167 
L 565.691804 384.399167 
L 568.88166 384.399167 
L 572.071515 384.399167 
L 575.261371 384.399167 
L 578.451227 384.399167 
L 581.641083 384.399167 
L 584.830939 384.399167 
L 588.020794 384.399167 
L 591.21065 384.399167 
L 594.400506 384.399167 
L 597.590362 384.399167 
L 600.780217 384.399167 
L 603.970073 384.399167 
L 607.159929 384.399167 
L 610.349785 384.399167 
L 613.53964 384.399167 
L 616.729496 384.399167 
L 619.919352 384.399167 
L 619.919352 384.386373 
L 619.919352 384.386373 
L 616.729496 384.359924 
L 613.53964 384.29253 
L 610.349785 384.141783 
L 607.159929 383.845558 
L 603.970073 383.333292 
L 600.780217 382.55023 
L 597.590362 381.480786 
L 594.400506 380.146068 
L 591.21065 378.563274 
L 588.020794 376.694502 
L 584.830939 374.444344 
L 581.641083 371.739529 
L 578.451227 368.642405 
L 575.261371 365.393288 
L 572.071515 362.322709 
L 568.88166 359.691376 
L 565.691804 357.581464 
L 562.501948 355.910365 
L 559.312092 354.533661 
L 556.122237 353.353628 
L 552.932381 352.370353 
L 549.742525 351.65252 
L 546.552669 351.243909 
L 543.362814 351.072187 
L 540.172958 350.949935 
L 536.983102 350.687145 
L 533.793246 350.210551 
L 530.603391 349.559341 
L 527.413535 348.759803 
L 524.223679 347.725383 
L 521.033823 346.30288 
L 517.843968 344.41604 
L 514.654112 342.147406 
L 511.464256 339.672586 
L 508.2744 337.125062 
L 505.084545 334.541514 
L 501.894689 331.950855 
L 498.704833 329.517473 
L 495.514977 327.571454 
L 492.325122 326.432378 
L 489.135266 326.120513 
L 485.94541 326.198637 
L 482.755554 325.934021 
L 479.565698 324.712421 
L 476.375843 322.39601 
L 473.185987 319.33807 
L 469.996131 316.047392 
L 466.806275 312.778282 
L 463.61642 309.360659 
L 460.426564 305.372357 
L 457.236708 300.490611 
L 454.046852 294.740624 
L 450.856997 288.451067 
L 447.667141 281.954916 
L 444.477285 275.278855 
L 441.287429 268.09353 
L 438.097574 260.017731 
L 434.907718 251.101702 
L 431.717862 242.148603 
L 428.528006 234.605062 
L 425.338151 230.03378 
L 422.148295 229.462142 
L 418.958439 232.956014 
L 415.768583 239.588872 
L 412.578728 247.757333 
L 409.388872 255.685517 
L 406.199016 261.946329 
L 403.00916 265.845674 
L 399.819305 267.559827 
L 396.629449 267.990526 
L 393.439593 268.386087 
L 390.249737 269.860394 
L 387.059881 273.009417 
L 383.870026 277.802542 
L 380.68017 283.762271 
L 377.490314 290.255652 
L 374.300458 296.703121 
L 371.110603 302.672684 
L 367.920747 307.948141 
L 364.730891 312.59844 
L 361.541035 316.959549 
L 358.35118 321.457463 
L 355.161324 326.341275 
L 351.971468 331.499653 
L 348.781612 336.496791 
L 345.591757 340.815315 
L 342.401901 344.149956 
L 339.212045 346.566375 
L 336.022189 348.440884 
L 332.832334 350.24009 
L 329.642478 352.279878 
L 326.452622 354.590692 
L 323.262766 356.94666 
L 320.072911 359.031276 
L 316.883055 360.642314 
L 313.693199 361.816737 
L 310.503343 362.805669 
L 307.313488 363.927993 
L 304.123632 365.409615 
L 300.933776 367.307974 
L 297.74392 369.534797 
L 294.554064 371.912205 
L 291.364209 374.205799 
L 288.174353 376.14685 
L 284.984497 377.487558 
L 281.794641 378.088995 
L 278.604786 377.984795 
L 275.41493 377.369727 
L 272.225074 376.521496 
L 269.035218 375.707905 
L 265.845363 375.123285 
L 262.655507 374.864777 
L 259.465651 374.940099 
L 256.275795 375.297568 
L 253.08594 375.866965 
L 249.896084 376.591536 
L 246.706228 377.432066 
L 243.516372 378.342132 
L 240.326517 379.236477 
L 237.136661 379.982574 
L 233.946805 380.432556 
L 230.756949 380.488499 
L 227.567094 380.170415 
L 224.377238 379.643189 
L 221.187382 379.169617 
L 217.997526 378.999245 
L 214.807671 379.254055 
L 211.617815 379.88463 
L 208.427959 380.722228 
L 205.238103 381.581722 
L 202.048247 382.34123 
L 198.858392 382.958105 
L 195.668536 383.437716 
L 192.47868 383.797634 
L 189.288824 384.052963 
L 186.098969 384.218982 
L 182.909113 384.315437 
L 179.719257 384.364709 
L 176.529401 384.386582 
L 173.339546 384.394684 
L 170.14969 384.396052 
L 166.959834 384.392144 
L 163.769978 384.379349 
L 160.580123 384.34874 
L 157.390267 384.286978 
L 154.200411 384.181426 
L 151.010555 384.03057 
L 147.8207 383.854939 
L 144.630844 383.698312 
L 141.440988 383.611954 
L 138.251132 383.627954 
L 135.061277 383.740185 
L 131.871421 383.908044 
L 128.681565 384.079922 
L 125.491709 384.218168 
L 122.301854 384.309662 
L 119.111998 384.360563 
L 115.922142 384.384644 
L 112.732286 384.394402 
L 109.54243 384.397803 
L 106.352575 384.398825 
L 103.162719 384.399087 
L 99.972863 384.399123 
L 96.783007 384.399016 
L 93.593152 384.398524 
L 90.403296 384.396746 
L 87.21344 384.391208 
L 84.023584 384.376344 
L 80.833729 384.34208 
L 77.643873 384.274625 
L 74.454017 384.162187 
L 71.264161 384.005864 
L 68.074306 383.829843 
L 64.88445 383.680364 
L 61.694594 383.607619 
L 58.504738 383.638906 
L 55.314883 383.762275 
L 52.125027 383.933802 
L 48.935171 384.10255 
L 45.745315 384.234081 
L 42.55546 384.318254 
L 39.365604 384.361785 
L 36.175748 384.37541 
L 32.985892 384.36415 
L 29.796037 384.323785 
L 26.606181 384.243785 
L 23.416325 384.116531 
L 20.226469 383.950138 
L 17.036613 383.776855 
L 13.846758 383.646907 
L 10.656902 383.606034 
L 7.467046 383.669807 
L 4.27719 383.814168 
L 1.087335 383.989919 
L -2.102521 384.149458 
L -5.292377 384.266275 
L -8.482233 384.337481 
L -11.672088 384.374193 
L -14.861944 384.390348 
z
" clip-path="url(#p865acc8bca)" style="fill: #0071b2; fill-opacity: 0.75; stroke: #0071b2; stroke-width: 1.5"/>
   </g>
   <g id="FillBetweenPolyCollection_4">
    <defs>
     <path id="mc826d04799" d="M -16.119479 -247.438563 
L -16.119479 -247.413333 
L -13.245088 -247.413333 
L -10.370697 -247.413333 
L -7.496305 -247.413333 
L -4.621914 -247.413333 
L -1.747523 -247.413333 
L 1.126868 -247.413333 
L 4.00126 -247.413333 
L 6.875651 -247.413333 
L 9.750042 -247.413333 
L 12.624433 -247.413333 
L 15.498825 -247.413333 
L 18.373216 -247.413333 
L 21.247607 -247.413333 
L 24.121998 -247.413333 
L 26.99639 -247.413333 
L 29.870781 -247.413333 
L 32.745172 -247.413333 
L 35.619563 -247.413333 
L 38.493955 -247.413333 
L 41.368346 -247.413333 
L 44.242737 -247.413333 
L 47.117128 -247.413333 
L 49.99152 -247.413333 
L 52.865911 -247.413333 
L 55.740302 -247.413333 
L 58.614693 -247.413333 
L 61.489085 -247.413333 
L 64.363476 -247.413333 
L 67.237867 -247.413333 
L 70.112258 -247.413333 
L 72.98665 -247.413333 
L 75.861041 -247.413333 
L 78.735432 -247.413333 
L 81.609823 -247.413333 
L 84.484215 -247.413333 
L 87.358606 -247.413333 
L 90.232997 -247.413333 
L 93.107388 -247.413333 
L 95.98178 -247.413333 
L 98.856171 -247.413333 
L 101.730562 -247.413333 
L 104.604953 -247.413333 
L 107.479345 -247.413333 
L 110.353736 -247.413333 
L 113.228127 -247.413333 
L 116.102518 -247.413333 
L 118.97691 -247.413333 
L 121.851301 -247.413333 
L 124.725692 -247.413333 
L 127.600083 -247.413333 
L 130.474475 -247.413333 
L 133.348866 -247.413333 
L 136.223257 -247.413333 
L 139.097648 -247.413333 
L 141.97204 -247.413333 
L 144.846431 -247.413333 
L 147.720822 -247.413333 
L 150.595213 -247.413333 
L 153.469605 -247.413333 
L 156.343996 -247.413333 
L 159.218387 -247.413333 
L 162.092778 -247.413333 
L 164.96717 -247.413333 
L 167.841561 -247.413333 
L 170.715952 -247.413333 
L 173.590343 -247.413333 
L 176.464735 -247.413333 
L 179.339126 -247.413333 
L 182.213517 -247.413333 
L 185.087908 -247.413333 
L 187.9623 -247.413333 
L 190.836691 -247.413333 
L 193.711082 -247.413333 
L 196.585473 -247.413333 
L 199.459865 -247.413333 
L 202.334256 -247.413333 
L 205.208647 -247.413333 
L 208.083038 -247.413333 
L 210.95743 -247.413333 
L 213.831821 -247.413333 
L 216.706212 -247.413333 
L 219.580603 -247.413333 
L 222.454995 -247.413333 
L 225.329386 -247.413333 
L 228.203777 -247.413333 
L 231.078168 -247.413333 
L 233.95256 -247.413333 
L 236.826951 -247.413333 
L 239.701342 -247.413333 
L 242.575733 -247.413333 
L 245.450125 -247.413333 
L 248.324516 -247.413333 
L 251.198907 -247.413333 
L 254.073298 -247.413333 
L 256.94769 -247.413333 
L 259.822081 -247.413333 
L 262.696472 -247.413333 
L 265.570863 -247.413333 
L 268.445255 -247.413333 
L 271.319646 -247.413333 
L 274.194037 -247.413333 
L 277.068428 -247.413333 
L 279.94282 -247.413333 
L 282.817211 -247.413333 
L 285.691602 -247.413333 
L 288.565993 -247.413333 
L 291.440385 -247.413333 
L 294.314776 -247.413333 
L 297.189167 -247.413333 
L 300.063558 -247.413333 
L 302.93795 -247.413333 
L 305.812341 -247.413333 
L 308.686732 -247.413333 
L 311.561123 -247.413333 
L 314.435515 -247.413333 
L 317.309906 -247.413333 
L 320.184297 -247.413333 
L 323.058688 -247.413333 
L 325.93308 -247.413333 
L 328.807471 -247.413333 
L 331.681862 -247.413333 
L 334.556253 -247.413333 
L 337.430645 -247.413333 
L 340.305036 -247.413333 
L 343.179427 -247.413333 
L 346.053818 -247.413333 
L 348.92821 -247.413333 
L 351.802601 -247.413333 
L 354.676992 -247.413333 
L 357.551383 -247.413333 
L 360.425775 -247.413333 
L 363.300166 -247.413333 
L 366.174557 -247.413333 
L 369.048948 -247.413333 
L 371.92334 -247.413333 
L 374.797731 -247.413333 
L 377.672122 -247.413333 
L 380.546513 -247.413333 
L 383.420905 -247.413333 
L 386.295296 -247.413333 
L 389.169687 -247.413333 
L 392.044078 -247.413333 
L 394.91847 -247.413333 
L 397.792861 -247.413333 
L 400.667252 -247.413333 
L 403.541643 -247.413333 
L 406.416035 -247.413333 
L 409.290426 -247.413333 
L 412.164817 -247.413333 
L 415.039208 -247.413333 
L 417.9136 -247.413333 
L 420.787991 -247.413333 
L 423.662382 -247.413333 
L 426.536773 -247.413333 
L 429.411165 -247.413333 
L 432.285556 -247.413333 
L 435.159947 -247.413333 
L 438.034338 -247.413333 
L 440.90873 -247.413333 
L 443.783121 -247.413333 
L 446.657512 -247.413333 
L 449.531903 -247.413333 
L 452.406295 -247.413333 
L 455.280686 -247.413333 
L 458.155077 -247.413333 
L 461.029468 -247.413333 
L 463.90386 -247.413333 
L 466.778251 -247.413333 
L 469.652642 -247.413333 
L 472.527033 -247.413333 
L 475.401425 -247.413333 
L 478.275816 -247.413333 
L 481.150207 -247.413333 
L 484.024598 -247.413333 
L 486.89899 -247.413333 
L 489.773381 -247.413333 
L 492.647772 -247.413333 
L 495.522163 -247.413333 
L 498.396555 -247.413333 
L 501.270946 -247.413333 
L 504.145337 -247.413333 
L 507.019728 -247.413333 
L 509.89412 -247.413333 
L 512.768511 -247.413333 
L 515.642902 -247.413333 
L 518.517293 -247.413333 
L 521.391685 -247.413333 
L 524.266076 -247.413333 
L 527.140467 -247.413333 
L 530.014858 -247.413333 
L 532.88925 -247.413333 
L 535.763641 -247.413333 
L 538.638032 -247.413333 
L 541.512423 -247.413333 
L 544.386815 -247.413333 
L 547.261206 -247.413333 
L 550.135597 -247.413333 
L 553.009988 -247.413333 
L 555.88438 -247.413333 
L 555.88438 -247.465925 
L 555.88438 -247.465925 
L 553.009988 -247.55066 
L 550.135597 -247.739327 
L 547.261206 -248.117686 
L 544.386815 -248.800596 
L 541.512423 -249.908883 
L 538.638032 -251.523908 
L 535.763641 -253.632645 
L 532.88925 -256.090696 
L 530.014858 -258.630656 
L 527.140467 -260.922755 
L 524.266076 -262.665116 
L 521.391685 -263.664496 
L 518.517293 -263.877137 
L 515.642902 -263.403155 
L 512.768511 -262.446806 
L 509.89412 -261.259436 
L 507.019728 -260.079358 
L 504.145337 -259.08257 
L 501.270946 -258.359391 
L 498.396555 -257.926644 
L 495.522163 -257.77035 
L 492.647772 -257.897699 
L 489.773381 -258.370642 
L 486.89899 -259.302137 
L 484.024598 -260.814852 
L 481.150207 -262.979545 
L 478.275816 -265.757286 
L 475.401425 -268.965827 
L 472.527033 -272.282438 
L 469.652642 -275.288241 
L 466.778251 -277.550989 
L 463.90386 -278.729954 
L 461.029468 -278.671026 
L 458.155077 -277.453864 
L 455.280686 -275.366878 
L 452.406295 -272.817478 
L 449.531903 -270.216878 
L 446.657512 -267.889351 
L 443.783121 -266.036914 
L 440.90873 -264.754109 
L 438.034338 -264.059917 
L 435.159947 -263.915094 
L 432.285556 -264.220744 
L 429.411165 -264.822577 
L 426.536773 -265.548047 
L 423.662382 -266.276542 
L 420.787991 -267.010604 
L 417.9136 -267.908628 
L 415.039208 -269.262854 
L 412.164817 -271.43796 
L 409.290426 -274.798149 
L 406.416035 -279.640023 
L 403.541643 -286.133601 
L 400.667252 -294.274193 
L 397.792861 -303.861492 
L 394.91847 -314.527245 
L 392.044078 -325.810794 
L 389.169687 -337.243482 
L 386.295296 -348.386852 
L 383.420905 -358.804503 
L 380.546513 -368.013728 
L 377.672122 -375.499297 
L 374.797731 -380.832305 
L 371.92334 -383.844437 
L 369.048948 -384.741942 
L 366.174557 -384.069709 
L 363.300166 -382.540388 
L 360.425775 -380.840116 
L 357.551383 -379.528864 
L 354.676992 -379.064595 
L 351.802601 -379.870921 
L 348.92821 -382.327585 
L 346.053818 -386.626285 
L 343.179427 -392.555731 
L 340.305036 -399.365462 
L 337.430645 -405.83611 
L 334.556253 -410.564673 
L 331.681862 -412.34627 
L 328.807471 -410.489954 
L 325.93308 -404.962103 
L 323.058688 -396.346164 
L 320.184297 -385.672744 
L 317.309906 -374.18831 
L 314.435515 -363.118792 
L 311.561123 -353.472846 
L 308.686732 -345.919597 
L 305.812341 -340.753457 
L 302.93795 -337.923885 
L 300.063558 -337.084564 
L 297.189167 -337.630495 
L 294.314776 -338.737364 
L 291.440385 -339.452946 
L 288.565993 -338.872524 
L 285.691602 -336.363361 
L 282.817211 -331.74213 
L 279.94282 -325.311359 
L 277.068428 -317.731088 
L 274.194037 -309.787646 
L 271.319646 -302.162555 
L 268.445255 -295.284297 
L 265.570863 -289.293182 
L 262.696472 -284.102926 
L 259.822081 -279.516952 
L 256.94769 -275.348945 
L 254.073298 -271.502189 
L 251.198907 -267.983631 
L 248.324516 -264.86207 
L 245.450125 -262.206953 
L 242.575733 -260.045688 
L 239.701342 -258.354087 
L 236.826951 -257.068139 
L 233.95256 -256.097838 
L 231.078168 -255.336492 
L 228.203777 -254.673684 
L 225.329386 -254.019761 
L 222.454995 -253.335174 
L 219.580603 -252.645689 
L 216.706212 -252.028272 
L 213.831821 -251.570338 
L 210.95743 -251.322683 
L 208.083038 -251.271122 
L 205.208647 -251.341965 
L 202.334256 -251.439416 
L 199.459865 -251.497683 
L 196.585473 -251.523286 
L 193.711082 -251.606646 
L 190.836691 -251.895498 
L 187.9623 -252.540265 
L 185.087908 -253.634481 
L 182.213517 -255.174554 
L 179.339126 -257.052573 
L 176.464735 -259.080266 
L 173.590343 -261.030738 
L 170.715952 -262.682521 
L 167.841561 -263.856154 
L 164.96717 -264.440608 
L 162.092778 -264.409339 
L 159.218387 -263.82312 
L 156.343996 -262.814737 
L 153.469605 -261.55462 
L 150.595213 -260.206015 
L 147.720822 -258.886264 
L 144.846431 -257.650406 
L 141.97204 -256.502896 
L 139.097648 -255.427917 
L 136.223257 -254.418492 
L 133.348866 -253.488053 
L 130.474475 -252.66341 
L 127.600083 -251.971127 
L 124.725692 -251.428135 
L 121.851301 -251.036617 
L 118.97691 -250.778599 
L 116.102518 -250.613228 
L 113.228127 -250.486962 
L 110.353736 -250.35958 
L 107.479345 -250.230912 
L 104.604953 -250.144084 
L 101.730562 -250.154473 
L 98.856171 -250.280781 
L 95.98178 -250.47274 
L 93.107388 -250.622112 
L 90.232997 -250.614605 
L 87.358606 -250.391731 
L 84.484215 -249.985038 
L 81.609823 -249.504216 
L 78.735432 -249.089345 
L 75.861041 -248.854594 
L 72.98665 -248.847914 
L 70.112258 -249.037786 
L 67.237867 -249.326723 
L 64.363476 -249.585889 
L 61.489085 -249.700631 
L 58.614693 -249.610794 
L 55.740302 -249.328273 
L 52.865911 -248.923695 
L 49.99152 -248.4908 
L 47.117128 -248.108808 
L 44.242737 -247.820979 
L 41.368346 -247.634906 
L 38.493955 -247.537526 
L 35.619563 -247.513344 
L 32.745172 -247.557253 
L 29.870781 -247.678118 
L 26.99639 -247.892385 
L 24.121998 -248.20913 
L 21.247607 -248.611603 
L 18.373216 -249.045105 
L 15.498825 -249.42218 
L 12.624433 -249.6489 
L 9.750042 -249.662269 
L 6.875651 -249.45843 
L 4.00126 -249.094451 
L 1.126868 -248.662527 
L -1.747523 -248.252424 
L -4.621914 -247.922823 
L -7.496305 -247.69298 
L -10.370697 -247.552083 
L -13.245088 -247.475563 
L -16.119479 -247.438563 
z
" style="stroke: #d55e00; stroke-width: 1.5"/>
    </defs>
    <g clip-path="url(#p865acc8bca)">
     <use xlink:href="#mc826d04799" x="0" y="631.8125" style="fill: #d55e00; fill-opacity: 0.75; stroke: #d55e00; stroke-width: 1.5"/>
    </g>
   </g>
   <g id="line2d_19">
    <path d="M 11.0175 384.399167 
L 592.6225 384.399167 
" clip-path="url(#p865acc8bca)" style="fill: none; stroke: #0071b2; stroke-width: 2; stroke-linecap: square"/>
   </g>
   <g id="line2d_20">
    <path d="M 11.0175 384.399167 
L 592.6225 384.399167 
" clip-path="url(#p865acc8bca)" style="fill: none; stroke: #d55e00; stroke-width: 2; stroke-linecap: square"/>
   </g>
   <g id="text_4">
    <!-- Helsinki -->
    <g style="fill: #2d2d2d" transform="translate(16.83355 241.611521) scale(0.16 -0.16)">
     <defs>
      <path id="DejaVuSans-48" d="M 628 4666 
L 1259 4666 
L 1259 2753 
L 3553 2753 
L 3553 4666 
L 4184 4666 
L 4184 0 
L 3553 0 
L 3553 2222 
L 1259 2222 
L 1259 0 
L 628 0 
L 628 4666 
z
" transform="scale(0.015625)"/>
     </defs>
     <use xlink:href="#DejaVuSans-48"/>
     <use xlink:href="#DejaVuSans-65" transform="translate(75.195312 0)"/>
     <use xlink:href="#DejaVuSans-6c" transform="translate(136.71875 0)"/>
     <use xlink:href="#DejaVuSans-73" transform="translate(164.501953 0)"/>
     <use xlink:href="#DejaVuSans-69" transform="translate(216.601562 0)"/>
     <use xlink:href="#DejaVuSans-6e" transform="translate(244.384766 0)"/>
     <use xlink:href="#DejaVuSans-6b" transform="translate(307.763672 0)"/>
     <use xlink:href="#DejaVuSans-69" transform="translate(365.673828 0)"/>
    </g>
   </g>
  </g>
  <g id="axes_3">
   <g id="patch_7">
    <path d="M 11.0175 588.41875 
L 592.6225 588.41875 
L 592.6225 415.239167 
L 11.0175 415.239167 
L 11.0175 588.41875 
z
" style="fill: none"/>
   </g>
   <g id="matplotlib.axis_5">
    <g id="xtick_9">
     <g id="line2d_21">
      <path d="M 11.0175 588.41875 
L 11.0175 415.239167 
" clip-path="url(#pb2d9cfb2ac)" style="fill: none; stroke: #b0b0b0; stroke-width: 0.8; stroke-linecap: square"/>
     </g>
     <g id="line2d_22">
      <g>
       <use xlink:href="#mfa605a8f82" x="11.0175" y="588.41875" style="stroke: #000000; stroke-width: 0.8"/>
      </g>
     </g>
     <g id="text_5">
      <!-- 0 -->
      <g transform="translate(7.2 604.536875) scale(0.12 -0.12)">
       <defs>
        <path id="DejaVuSans-30" d="M 2034 4250 
Q 1547 4250 1301 3770 
Q 1056 3291 1056 2328 
Q 1056 1369 1301 889 
Q 1547 409 2034 409 
Q 2525 409 2770 889 
Q 3016 1369 3016 2328 
Q 3016 3291 2770 3770 
Q 2525 4250 2034 4250 
z
M 2034 4750 
Q 2819 4750 3233 4129 
Q 3647 3509 3647 2328 
Q 3647 1150 3233 529 
Q 2819 -91 2034 -91 
Q 1250 -91 836 529 
Q 422 1150 422 2328 
Q 422 3509 836 4129 
Q 1250 4750 2034 4750 
z
" transform="scale(0.015625)"/>
       </defs>
       <use xlink:href="#DejaVuSans-30"/>
      </g>
     </g>
    </g>
    <g id="xtick_10">
     <g id="line2d_23">
      <path d="M 177.190357 588.41875 
L 177.190357 415.239167 
" clip-path="url(#pb2d9cfb2ac)" style="fill: none; stroke: #b0b0b0; stroke-width: 0.8; stroke-linecap: square"/>
     </g>
     <g id="line2d_24">
      <g>
       <use xlink:href="#mfa605a8f82" x="177.190357" y="588.41875" style="stroke: #000000; stroke-width: 0.8"/>
      </g>
     </g>
     <g id="text_6">
      <!-- 1 -->
      <g transform="translate(173.372857 604.536875) scale(0.12 -0.12)">
       <defs>
        <path id="DejaVuSans-31" d="M 794 531 
L 1825 531 
L 1825 4091 
L 703 3866 
L 703 4441 
L 1819 4666 
L 2450 4666 
L 2450 531 
L 3481 531 
L 3481 0 
L 794 0 
L 794 531 
z
" transform="scale(0.015625)"/>
       </defs>
       <use xlink:href="#DejaVuSans-31"/>
      </g>
     </g>
    </g>
    <g id="xtick_11">
     <g id="line2d_25">
      <path d="M 343.363214 588.41875 
L 343.363214 415.239167 
" clip-path="url(#pb2d9cfb2ac)" style="fill: none; stroke: #b0b0b0; stroke-width: 0.8; stroke-linecap: square"/>
     </g>
     <g id="line2d_26">
      <g>
       <use xlink:href="#mfa605a8f82" x="343.363214" y="588.41875" style="stroke: #000000; stroke-width: 0.8"/>
      </g>
     </g>
     <g id="text_7">
      <!-- 2 -->
      <g transform="translate(339.545714 604.536875) scale(0.12 -0.12)">
       <defs>
        <path id="DejaVuSans-32" d="M 1228 531 
L 3431 531 
L 3431 0 
L 469 0 
L 469 531 
Q 828 903 1448 1529 
Q 2069 2156 2228 2338 
Q 2531 2678 2651 2914 
Q 2772 3150 2772 3378 
Q 2772 3750 2511 3984 
Q 2250 4219 1831 4219 
Q 1534 4219 1204 4116 
Q 875 4013 500 3803 
L 500 4441 
Q 881 4594 1212 4672 
Q 1544 4750 1819 4750 
Q 2544 4750 2975 4387 
Q 3406 4025 3406 3419 
Q 3406 3131 3298 2873 
Q 3191 2616 2906 2266 
Q 2828 2175 2409 1742 
Q 1991 1309 1228 531 
z
" transform="scale(0.015625)"/>
       </defs>
       <use xlink:href="#DejaVuSans-32"/>
      </g>
     </g>
    </g>
    <g id="xtick_12">
     <g id="line2d_27">
      <path d="M 509.536071 588.41875 
L 509.536071 415.239167 
" clip-path="url(#pb2d9cfb2ac)" style="fill: none; stroke: #b0b0b0; stroke-width: 0.8; stroke-linecap: square"/>
     </g>
     <g id="line2d_28">
      <g>
       <use xlink:href="#mfa605a8f82" x="509.536071" y="588.41875" style="stroke: #000000; stroke-width: 0.8"/>
      </g>
     </g>
     <g id="text_8">
      <!-- 3 -->
      <g transform="translate(505.718571 604.536875) scale(0.12 -0.12)">
       <defs>
        <path id="DejaVuSans-33" d="M 2597 2516 
Q 3050 2419 3304 2112 
Q 3559 1806 3559 1356 
Q 3559 666 3084 287 
Q 2609 -91 1734 -91 
Q 1441 -91 1130 -33 
Q 819 25 488 141 
L 488 750 
Q 750 597 1062 519 
Q 1375 441 1716 441 
Q 2309 441 2620 675 
Q 2931 909 2931 1356 
Q 2931 1769 2642 2001 
Q 2353 2234 1838 2234 
L 1294 2234 
L 1294 2753 
L 1863 2753 
Q 2328 2753 2575 2939 
Q 2822 3125 2822 3475 
Q 2822 3834 2567 4026 
Q 2313 4219 1838 4219 
Q 1578 4219 1281 4162 
Q 984 4106 628 3988 
L 628 4550 
Q 988 4650 1302 4700 
Q 1616 4750 1894 4750 
Q 2613 4750 3031 4423 
Q 3450 4097 3450 3541 
Q 3450 3153 3228 2886 
Q 3006 2619 2597 2516 
z
" transform="scale(0.015625)"/>
       </defs>
       <use xlink:href="#DejaVuSans-33"/>
      </g>
     </g>
    </g>
    <g id="text_9">
     <!-- $log_{10}$ Access (number of amenities) -->
     <g transform="translate(177.71 621.6725) scale(0.14 -0.14)">
      <defs>
       <path id="DejaVuSans-Oblique-6c" d="M 1172 4863 
L 1747 4863 
L 800 0 
L 225 0 
L 1172 4863 
z
" transform="scale(0.015625)"/>
       <path id="DejaVuSans-Oblique-6f" d="M 1625 -91 
Q 1009 -91 651 289 
Q 294 669 294 1325 
Q 294 1706 417 2101 
Q 541 2497 738 2766 
Q 1047 3184 1428 3384 
Q 1809 3584 2291 3584 
Q 2888 3584 3255 3212 
Q 3622 2841 3622 2241 
Q 3622 1825 3500 1412 
Q 3378 1000 3181 728 
Q 2875 309 2494 109 
Q 2113 -91 1625 -91 
z
M 891 1344 
Q 891 869 1089 633 
Q 1288 397 1691 397 
Q 2269 397 2648 901 
Q 3028 1406 3028 2181 
Q 3028 2634 2825 2865 
Q 2622 3097 2228 3097 
Q 1903 3097 1650 2945 
Q 1397 2794 1197 2484 
Q 1050 2253 970 1956 
Q 891 1659 891 1344 
z
" transform="scale(0.015625)"/>
       <path id="DejaVuSans-Oblique-67" d="M 3816 3500 
L 3219 434 
Q 3047 -456 2561 -893 
Q 2075 -1331 1253 -1331 
Q 950 -1331 690 -1286 
Q 431 -1241 206 -1147 
L 313 -588 
Q 525 -725 762 -790 
Q 1000 -856 1269 -856 
Q 1816 -856 2167 -557 
Q 2519 -259 2631 300 
L 2681 563 
Q 2441 288 2122 144 
Q 1803 0 1434 0 
Q 903 0 598 351 
Q 294 703 294 1319 
Q 294 1803 478 2267 
Q 663 2731 997 3091 
Q 1219 3328 1514 3456 
Q 1809 3584 2131 3584 
Q 2484 3584 2746 3420 
Q 3009 3256 3138 2956 
L 3238 3500 
L 3816 3500 
z
M 2950 2216 
Q 2950 2641 2750 2872 
Q 2550 3103 2181 3103 
Q 1953 3103 1747 3012 
Q 1541 2922 1394 2759 
Q 1156 2491 1023 2127 
Q 891 1763 891 1375 
Q 891 944 1092 712 
Q 1294 481 1672 481 
Q 2219 481 2584 976 
Q 2950 1472 2950 2216 
z
" transform="scale(0.015625)"/>
       <path id="DejaVuSans-41" d="M 2188 4044 
L 1331 1722 
L 3047 1722 
L 2188 4044 
z
M 1831 4666 
L 2547 4666 
L 4325 0 
L 3669 0 
L 3244 1197 
L 1141 1197 
L 716 0 
L 50 0 
L 1831 4666 
z
" transform="scale(0.015625)"/>
       <path id="DejaVuSans-28" d="M 1984 4856 
Q 1566 4138 1362 3434 
Q 1159 2731 1159 2009 
Q 1159 1288 1364 580 
Q 1569 -128 1984 -844 
L 1484 -844 
Q 1016 -109 783 600 
Q 550 1309 550 2009 
Q 550 2706 781 3412 
Q 1013 4119 1484 4856 
L 1984 4856 
z
" transform="scale(0.015625)"/>
       <path id="DejaVuSans-62" d="M 3116 1747 
Q 3116 2381 2855 2742 
Q 2594 3103 2138 3103 
Q 1681 3103 1420 2742 
Q 1159 2381 1159 1747 
Q 1159 1113 1420 752 
Q 1681 391 2138 391 
Q 2594 391 2855 752 
Q 3116 1113 3116 1747 
z
M 1159 2969 
Q 1341 3281 1617 3432 
Q 1894 3584 2278 3584 
Q 2916 3584 3314 3078 
Q 3713 2572 3713 1747 
Q 3713 922 3314 415 
Q 2916 -91 2278 -91 
Q 1894 -91 1617 61 
Q 1341 213 1159 525 
L 1159 0 
L 581 0 
L 581 4863 
L 1159 4863 
L 1159 2969 
z
" transform="scale(0.015625)"/>
       <path id="DejaVuSans-72" d="M 2631 2963 
Q 2534 3019 2420 3045 
Q 2306 3072 2169 3072 
Q 1681 3072 1420 2755 
Q 1159 2438 1159 1844 
L 1159 0 
L 581 0 
L 581 3500 
L 1159 3500 
L 1159 2956 
Q 1341 3275 1631 3429 
Q 1922 3584 2338 3584 
Q 2397 3584 2469 3576 
Q 2541 3569 2628 3553 
L 2631 2963 
z
" transform="scale(0.015625)"/>
       <path id="DejaVuSans-66" d="M 2375 4863 
L 2375 4384 
L 1825 4384 
Q 1516 4384 1395 4259 
Q 1275 4134 1275 3809 
L 1275 3500 
L 2222 3500 
L 2222 3053 
L 1275 3053 
L 1275 0 
L 697 0 
L 697 3053 
L 147 3053 
L 147 3500 
L 697 3500 
L 697 3744 
Q 697 4328 969 4595 
Q 1241 4863 1831 4863 
L 2375 4863 
z
" transform="scale(0.015625)"/>
       <path id="DejaVuSans-29" d="M 513 4856 
L 1013 4856 
Q 1481 4119 1714 3412 
Q 1947 2706 1947 2009 
Q 1947 1309 1714 600 
Q 1481 -109 1013 -844 
L 513 -844 
Q 928 -128 1133 580 
Q 1338 1288 1338 2009 
Q 1338 2731 1133 3434 
Q 928 4138 513 4856 
z
" transform="scale(0.015625)"/>
      </defs>
      <use xlink:href="#DejaVuSans-Oblique-6c" transform="translate(0 0.015625)"/>
      <use xlink:href="#DejaVuSans-Oblique-6f" transform="translate(27.783203 0.015625)"/>
      <use xlink:href="#DejaVuSans-Oblique-67" transform="translate(88.964844 0.015625)"/>
      <use xlink:href="#DejaVuSans-31" transform="translate(152.441406 -16.390625) scale(0.7)"/>
      <use xlink:href="#DejaVuSans-30" transform="translate(196.977539 -16.390625) scale(0.7)"/>
      <use xlink:href="#DejaVuSans-20" transform="translate(244.248047 0.015625)"/>
      <use xlink:href="#DejaVuSans-41" transform="translate(276.035156 0.015625)"/>
      <use xlink:href="#DejaVuSans-63" transform="translate(344.443359 0.015625)"/>
      <use xlink:href="#DejaVuSans-63" transform="translate(399.423828 0.015625)"/>
      <use xlink:href="#DejaVuSans-65" transform="translate(454.404297 0.015625)"/>
      <use xlink:href="#DejaVuSans-73" transform="translate(515.927734 0.015625)"/>
      <use xlink:href="#DejaVuSans-73" transform="translate(568.027344 0.015625)"/>
      <use xlink:href="#DejaVuSans-20" transform="translate(620.126953 0.015625)"/>
      <use xlink:href="#DejaVuSans-28" transform="translate(651.914062 0.015625)"/>
      <use xlink:href="#DejaVuSans-6e" transform="translate(690.927734 0.015625)"/>
      <use xlink:href="#DejaVuSans-75" transform="translate(754.306641 0.015625)"/>
      <use xlink:href="#DejaVuSans-6d" transform="translate(817.685547 0.015625)"/>
      <use xlink:href="#DejaVuSans-62" transform="translate(915.097656 0.015625)"/>
      <use xlink:href="#DejaVuSans-65" transform="translate(978.574219 0.015625)"/>
      <use xlink:href="#DejaVuSans-72" transform="translate(1040.097656 0.015625)"/>
      <use xlink:href="#DejaVuSans-20" transform="translate(1081.210938 0.015625)"/>
      <use xlink:href="#DejaVuSans-6f" transform="translate(1112.998047 0.015625)"/>
      <use xlink:href="#DejaVuSans-66" transform="translate(1174.179688 0.015625)"/>
      <use xlink:href="#DejaVuSans-20" transform="translate(1209.384766 0.015625)"/>
      <use xlink:href="#DejaVuSans-61" transform="translate(1241.171875 0.015625)"/>
      <use xlink:href="#DejaVuSans-6d" transform="translate(1302.451172 0.015625)"/>
      <use xlink:href="#DejaVuSans-65" transform="translate(1399.863281 0.015625)"/>
      <use xlink:href="#DejaVuSans-6e" transform="translate(1461.386719 0.015625)"/>
      <use xlink:href="#DejaVuSans-69" transform="translate(1524.765625 0.015625)"/>
      <use xlink:href="#DejaVuSans-74" transform="translate(1552.548828 0.015625)"/>
      <use xlink:href="#DejaVuSans-69" transform="translate(1591.757812 0.015625)"/>
      <use xlink:href="#DejaVuSans-65" transform="translate(1619.541016 0.015625)"/>
      <use xlink:href="#DejaVuSans-73" transform="translate(1681.064453 0.015625)"/>
      <use xlink:href="#DejaVuSans-29" transform="translate(1733.164062 0.015625)"/>
     </g>
    </g>
   </g>
   <g id="matplotlib.axis_6"/>
   <g id="FillBetweenPolyCollection_5">
    <path d="M -13.270644 588.413547 
L -13.270644 588.41875 
L -10.041312 588.41875 
L -6.81198 588.41875 
L -3.582648 588.41875 
L -0.353316 588.41875 
L 2.876016 588.41875 
L 6.105348 588.41875 
L 9.33468 588.41875 
L 12.564012 588.41875 
L 15.793344 588.41875 
L 19.022676 588.41875 
L 22.252008 588.41875 
L 25.48134 588.41875 
L 28.710672 588.41875 
L 31.940004 588.41875 
L 35.169336 588.41875 
L 38.398668 588.41875 
L 41.628 588.41875 
L 44.857332 588.41875 
L 48.086664 588.41875 
L 51.315996 588.41875 
L 54.545328 588.41875 
L 57.77466 588.41875 
L 61.003992 588.41875 
L 64.233324 588.41875 
L 67.462656 588.41875 
L 70.691988 588.41875 
L 73.92132 588.41875 
L 77.150652 588.41875 
L 80.379984 588.41875 
L 83.609316 588.41875 
L 86.838648 588.41875 
L 90.06798 588.41875 
L 93.297312 588.41875 
L 96.526644 588.41875 
L 99.755976 588.41875 
L 102.985308 588.41875 
L 106.21464 588.41875 
L 109.443972 588.41875 
L 112.673304 588.41875 
L 115.902636 588.41875 
L 119.131968 588.41875 
L 122.3613 588.41875 
L 125.590632 588.41875 
L 128.819964 588.41875 
L 132.049296 588.41875 
L 135.278628 588.41875 
L 138.50796 588.41875 
L 141.737292 588.41875 
L 144.966624 588.41875 
L 148.195956 588.41875 
L 151.425288 588.41875 
L 154.65462 588.41875 
L 157.883952 588.41875 
L 161.113284 588.41875 
L 164.342616 588.41875 
L 167.571948 588.41875 
L 170.80128 588.41875 
L 174.030612 588.41875 
L 177.259944 588.41875 
L 180.489276 588.41875 
L 183.718608 588.41875 
L 186.94794 588.41875 
L 190.177272 588.41875 
L 193.406604 588.41875 
L 196.635936 588.41875 
L 199.865268 588.41875 
L 203.0946 588.41875 
L 206.323932 588.41875 
L 209.553264 588.41875 
L 212.782596 588.41875 
L 216.011928 588.41875 
L 219.24126 588.41875 
L 222.470592 588.41875 
L 225.699924 588.41875 
L 228.929257 588.41875 
L 232.158589 588.41875 
L 235.387921 588.41875 
L 238.617253 588.41875 
L 241.846585 588.41875 
L 245.075917 588.41875 
L 248.305249 588.41875 
L 251.534581 588.41875 
L 254.763913 588.41875 
L 257.993245 588.41875 
L 261.222577 588.41875 
L 264.451909 588.41875 
L 267.681241 588.41875 
L 270.910573 588.41875 
L 274.139905 588.41875 
L 277.369237 588.41875 
L 280.598569 588.41875 
L 283.827901 588.41875 
L 287.057233 588.41875 
L 290.286565 588.41875 
L 293.515897 588.41875 
L 296.745229 588.41875 
L 299.974561 588.41875 
L 303.203893 588.41875 
L 306.433225 588.41875 
L 309.662557 588.41875 
L 312.891889 588.41875 
L 316.121221 588.41875 
L 319.350553 588.41875 
L 322.579885 588.41875 
L 325.809217 588.41875 
L 329.038549 588.41875 
L 332.267881 588.41875 
L 335.497213 588.41875 
L 338.726545 588.41875 
L 341.955877 588.41875 
L 345.185209 588.41875 
L 348.414541 588.41875 
L 351.643873 588.41875 
L 354.873205 588.41875 
L 358.102537 588.41875 
L 361.331869 588.41875 
L 364.561201 588.41875 
L 367.790533 588.41875 
L 371.019865 588.41875 
L 374.249197 588.41875 
L 377.478529 588.41875 
L 380.707861 588.41875 
L 383.937193 588.41875 
L 387.166525 588.41875 
L 390.395857 588.41875 
L 393.625189 588.41875 
L 396.854521 588.41875 
L 400.083853 588.41875 
L 403.313185 588.41875 
L 406.542517 588.41875 
L 409.771849 588.41875 
L 413.001181 588.41875 
L 416.230513 588.41875 
L 419.459845 588.41875 
L 422.689177 588.41875 
L 425.918509 588.41875 
L 429.147841 588.41875 
L 432.377173 588.41875 
L 435.606505 588.41875 
L 438.835837 588.41875 
L 442.065169 588.41875 
L 445.294501 588.41875 
L 448.523833 588.41875 
L 451.753165 588.41875 
L 454.982497 588.41875 
L 458.211829 588.41875 
L 461.441161 588.41875 
L 464.670493 588.41875 
L 467.899825 588.41875 
L 471.129157 588.41875 
L 474.358489 588.41875 
L 477.587821 588.41875 
L 480.817153 588.41875 
L 484.046485 588.41875 
L 487.275817 588.41875 
L 490.505149 588.41875 
L 493.734481 588.41875 
L 496.963813 588.41875 
L 500.193146 588.41875 
L 503.422478 588.41875 
L 506.65181 588.41875 
L 509.881142 588.41875 
L 513.110474 588.41875 
L 516.339806 588.41875 
L 519.569138 588.41875 
L 522.79847 588.41875 
L 526.027802 588.41875 
L 529.257134 588.41875 
L 532.486466 588.41875 
L 535.715798 588.41875 
L 538.94513 588.41875 
L 542.174462 588.41875 
L 545.403794 588.41875 
L 548.633126 588.41875 
L 551.862458 588.41875 
L 555.09179 588.41875 
L 558.321122 588.41875 
L 561.550454 588.41875 
L 564.779786 588.41875 
L 568.009118 588.41875 
L 571.23845 588.41875 
L 574.467782 588.41875 
L 577.697114 588.41875 
L 580.926446 588.41875 
L 584.155778 588.41875 
L 587.38511 588.41875 
L 590.614442 588.41875 
L 593.843774 588.41875 
L 597.073106 588.41875 
L 600.302438 588.41875 
L 603.53177 588.41875 
L 606.761102 588.41875 
L 609.990434 588.41875 
L 613.219766 588.41875 
L 616.449098 588.41875 
L 619.67843 588.41875 
L 622.907762 588.41875 
L 626.137094 588.41875 
L 629.366426 588.41875 
L 629.366426 588.413106 
L 629.366426 588.413106 
L 626.137094 588.400769 
L 622.907762 588.368888 
L 619.67843 588.297364 
L 616.449098 588.156588 
L 613.219766 587.910637 
L 609.990434 587.525372 
L 606.761102 586.981639 
L 603.53177 586.290794 
L 600.302438 585.501353 
L 597.073106 584.679834 
L 593.843774 583.863346 
L 590.614442 583.012829 
L 587.38511 582.007898 
L 584.155778 580.696111 
L 580.926446 578.971365 
L 577.697114 576.844865 
L 574.467782 574.477022 
L 571.23845 572.139682 
L 568.009118 570.099812 
L 564.779786 568.476787 
L 561.550454 567.168104 
L 558.321122 565.896806 
L 555.09179 564.344934 
L 551.862458 562.29393 
L 548.633126 559.713486 
L 545.403794 556.770681 
L 542.174462 553.746006 
L 538.94513 550.871108 
L 535.715798 548.164455 
L 532.486466 545.388595 
L 529.257134 542.200353 
L 526.027802 538.408863 
L 522.79847 534.140306 
L 519.569138 529.77736 
L 516.339806 525.736617 
L 513.110474 522.263207 
L 509.881142 519.360069 
L 506.65181 516.828282 
L 503.422478 514.324365 
L 500.193146 511.39803 
L 496.963813 507.586644 
L 493.734481 502.650105 
L 490.505149 496.858223 
L 487.275817 491.071493 
L 484.046485 486.445199 
L 480.817153 483.894942 
L 477.587821 483.652298 
L 474.358489 485.134261 
L 471.129157 487.139661 
L 467.899825 488.287431 
L 464.670493 487.573231 
L 461.441161 484.826213 
L 458.211829 480.79376 
L 454.982497 476.733666 
L 451.753165 473.702768 
L 448.523833 471.973277 
L 445.294501 470.982031 
L 442.065169 469.868431 
L 438.835837 468.191488 
L 435.606505 466.259679 
L 432.377173 464.857643 
L 429.147841 464.661258 
L 425.918509 465.803127 
L 422.689177 467.833221 
L 419.459845 470.025488 
L 416.230513 471.816837 
L 413.001181 473.129898 
L 409.771849 474.407809 
L 406.542517 476.3602 
L 403.313185 479.587703 
L 400.083853 484.310307 
L 396.854521 490.346301 
L 393.625189 497.315958 
L 390.395857 504.876862 
L 387.166525 512.779488 
L 383.937193 520.715196 
L 380.707861 528.153396 
L 377.478529 534.392996 
L 374.249197 538.853282 
L 371.019865 541.409093 
L 367.790533 542.525966 
L 364.561201 543.074658 
L 361.331869 543.90293 
L 358.102537 545.417412 
L 354.873205 547.4591 
L 351.643873 549.560154 
L 348.414541 551.365943 
L 345.185209 552.875936 
L 341.955877 554.343643 
L 338.726545 555.994564 
L 335.497213 557.850356 
L 332.267881 559.787089 
L 329.038549 561.713032 
L 325.809217 563.670078 
L 322.579885 565.770455 
L 319.350553 568.038725 
L 316.121221 570.310836 
L 312.891889 572.295246 
L 309.662557 573.755367 
L 306.433225 574.651143 
L 303.203893 575.112378 
L 299.974561 575.286038 
L 296.745229 575.224199 
L 293.515897 574.924187 
L 290.286565 574.462637 
L 287.057233 574.064502 
L 283.827901 574.017948 
L 280.598569 574.504242 
L 277.369237 575.488428 
L 274.139905 576.74606 
L 270.910573 577.983153 
L 267.681241 578.963273 
L 264.451909 579.588749 
L 261.222577 579.91859 
L 257.993245 580.120424 
L 254.763913 580.377318 
L 251.534581 580.79798 
L 248.305249 581.371315 
L 245.075917 581.969577 
L 241.846585 582.387469 
L 238.617253 582.417428 
L 235.387921 581.957842 
L 232.158589 581.106517 
L 228.929257 580.15673 
L 225.699924 579.460862 
L 222.470592 579.242793 
L 219.24126 579.50333 
L 216.011928 580.082589 
L 212.782596 580.797335 
L 209.553264 581.525077 
L 206.323932 582.19746 
L 203.0946 582.764271 
L 199.865268 583.187795 
L 196.635936 583.462702 
L 193.406604 583.623657 
L 190.177272 583.727059 
L 186.94794 583.830002 
L 183.718608 583.989347 
L 180.489276 584.266293 
L 177.259944 584.70207 
L 174.030612 585.270623 
L 170.80128 585.866303 
L 167.571948 586.362976 
L 164.342616 586.698818 
L 161.113284 586.906549 
L 157.883952 587.068655 
L 154.65462 587.250974 
L 151.425288 587.470439 
L 148.195956 587.703085 
L 144.966624 587.907182 
L 141.737292 588.043915 
L 138.50796 588.093434 
L 135.278628 588.065675 
L 132.049296 588.00022 
L 128.819964 587.950299 
L 125.590632 587.956277 
L 122.3613 588.025309 
L 119.131968 588.132385 
L 115.902636 588.240814 
L 112.673304 588.324423 
L 109.443972 588.376098 
L 106.21464 588.4023 
L 102.985308 588.413339 
L 99.755976 588.417232 
L 96.526644 588.418387 
L 93.297312 588.418676 
L 90.06798 588.418737 
L 86.838648 588.418748 
L 83.609316 588.41875 
L 80.379984 588.41875 
L 77.150652 588.41875 
L 73.92132 588.41875 
L 70.691988 588.41875 
L 67.462656 588.41875 
L 64.233324 588.41875 
L 61.003992 588.41875 
L 57.77466 588.41875 
L 54.545328 588.41875 
L 51.315996 588.418748 
L 48.086664 588.418737 
L 44.857332 588.418675 
L 41.628 588.418382 
L 38.398668 588.417213 
L 35.169336 588.413278 
L 31.940004 588.402141 
L 28.710672 588.375749 
L 25.48134 588.323797 
L 22.252008 588.23992 
L 19.022676 588.13149 
L 15.793344 588.025188 
L 12.564012 587.958862 
L 9.33468 587.960404 
L 6.105348 588.029133 
L 2.876016 588.136272 
L -0.353316 588.244074 
L -3.582648 588.326624 
L -6.81198 588.377308 
L -10.041312 588.40285 
L -13.270644 588.413547 
z
" clip-path="url(#pb2d9cfb2ac)" style="fill: #0071b2; fill-opacity: 0.75; stroke: #0071b2; stroke-width: 1.5"/>
   </g>
   <g id="FillBetweenPolyCollection_6">
    <path d="M -14.518169 588.394006 
L -14.518169 588.41875 
L -11.427614 588.41875 
L -8.337058 588.41875 
L -5.246502 588.41875 
L -2.155947 588.41875 
L 0.934609 588.41875 
L 4.025165 588.41875 
L 7.11572 588.41875 
L 10.206276 588.41875 
L 13.296832 588.41875 
L 16.387387 588.41875 
L 19.477943 588.41875 
L 22.568499 588.41875 
L 25.659054 588.41875 
L 28.74961 588.41875 
L 31.840166 588.41875 
L 34.930721 588.41875 
L 38.021277 588.41875 
L 41.111833 588.41875 
L 44.202388 588.41875 
L 47.292944 588.41875 
L 50.3835 588.41875 
L 53.474055 588.41875 
L 56.564611 588.41875 
L 59.655167 588.41875 
L 62.745722 588.41875 
L 65.836278 588.41875 
L 68.926834 588.41875 
L 72.01739 588.41875 
L 75.107945 588.41875 
L 78.198501 588.41875 
L 81.289057 588.41875 
L 84.379612 588.41875 
L 87.470168 588.41875 
L 90.560724 588.41875 
L 93.651279 588.41875 
L 96.741835 588.41875 
L 99.832391 588.41875 
L 102.922946 588.41875 
L 106.013502 588.41875 
L 109.104058 588.41875 
L 112.194613 588.41875 
L 115.285169 588.41875 
L 118.375725 588.41875 
L 121.46628 588.41875 
L 124.556836 588.41875 
L 127.647392 588.41875 
L 130.737947 588.41875 
L 133.828503 588.41875 
L 136.919059 588.41875 
L 140.009614 588.41875 
L 143.10017 588.41875 
L 146.190726 588.41875 
L 149.281281 588.41875 
L 152.371837 588.41875 
L 155.462393 588.41875 
L 158.552948 588.41875 
L 161.643504 588.41875 
L 164.73406 588.41875 
L 167.824615 588.41875 
L 170.915171 588.41875 
L 174.005727 588.41875 
L 177.096282 588.41875 
L 180.186838 588.41875 
L 183.277394 588.41875 
L 186.367949 588.41875 
L 189.458505 588.41875 
L 192.549061 588.41875 
L 195.639616 588.41875 
L 198.730172 588.41875 
L 201.820728 588.41875 
L 204.911283 588.41875 
L 208.001839 588.41875 
L 211.092395 588.41875 
L 214.18295 588.41875 
L 217.273506 588.41875 
L 220.364062 588.41875 
L 223.454618 588.41875 
L 226.545173 588.41875 
L 229.635729 588.41875 
L 232.726285 588.41875 
L 235.81684 588.41875 
L 238.907396 588.41875 
L 241.997952 588.41875 
L 245.088507 588.41875 
L 248.179063 588.41875 
L 251.269619 588.41875 
L 254.360174 588.41875 
L 257.45073 588.41875 
L 260.541286 588.41875 
L 263.631841 588.41875 
L 266.722397 588.41875 
L 269.812953 588.41875 
L 272.903508 588.41875 
L 275.994064 588.41875 
L 279.08462 588.41875 
L 282.175175 588.41875 
L 285.265731 588.41875 
L 288.356287 588.41875 
L 291.446842 588.41875 
L 294.537398 588.41875 
L 297.627954 588.41875 
L 300.718509 588.41875 
L 303.809065 588.41875 
L 306.899621 588.41875 
L 309.990176 588.41875 
L 313.080732 588.41875 
L 316.171288 588.41875 
L 319.261843 588.41875 
L 322.352399 588.41875 
L 325.442955 588.41875 
L 328.53351 588.41875 
L 331.624066 588.41875 
L 334.714622 588.41875 
L 337.805177 588.41875 
L 340.895733 588.41875 
L 343.986289 588.41875 
L 347.076844 588.41875 
L 350.1674 588.41875 
L 353.257956 588.41875 
L 356.348511 588.41875 
L 359.439067 588.41875 
L 362.529623 588.41875 
L 365.620178 588.41875 
L 368.710734 588.41875 
L 371.80129 588.41875 
L 374.891846 588.41875 
L 377.982401 588.41875 
L 381.072957 588.41875 
L 384.163513 588.41875 
L 387.254068 588.41875 
L 390.344624 588.41875 
L 393.43518 588.41875 
L 396.525735 588.41875 
L 399.616291 588.41875 
L 402.706847 588.41875 
L 405.797402 588.41875 
L 408.887958 588.41875 
L 411.978514 588.41875 
L 415.069069 588.41875 
L 418.159625 588.41875 
L 421.250181 588.41875 
L 424.340736 588.41875 
L 427.431292 588.41875 
L 430.521848 588.41875 
L 433.612403 588.41875 
L 436.702959 588.41875 
L 439.793515 588.41875 
L 442.88407 588.41875 
L 445.974626 588.41875 
L 449.065182 588.41875 
L 452.155737 588.41875 
L 455.246293 588.41875 
L 458.336849 588.41875 
L 461.427404 588.41875 
L 464.51796 588.41875 
L 467.608516 588.41875 
L 470.699071 588.41875 
L 473.789627 588.41875 
L 476.880183 588.41875 
L 479.970738 588.41875 
L 483.061294 588.41875 
L 486.15185 588.41875 
L 489.242405 588.41875 
L 492.332961 588.41875 
L 495.423517 588.41875 
L 498.514072 588.41875 
L 501.604628 588.41875 
L 504.695184 588.41875 
L 507.785739 588.41875 
L 510.876295 588.41875 
L 513.966851 588.41875 
L 517.057407 588.41875 
L 520.147962 588.41875 
L 523.238518 588.41875 
L 526.329074 588.41875 
L 529.419629 588.41875 
L 532.510185 588.41875 
L 535.600741 588.41875 
L 538.691296 588.41875 
L 541.781852 588.41875 
L 544.872408 588.41875 
L 547.962963 588.41875 
L 551.053519 588.41875 
L 554.144075 588.41875 
L 557.23463 588.41875 
L 560.325186 588.41875 
L 563.415742 588.41875 
L 566.506297 588.41875 
L 569.596853 588.41875 
L 572.687409 588.41875 
L 575.777964 588.41875 
L 578.86852 588.41875 
L 581.959076 588.41875 
L 585.049631 588.41875 
L 588.140187 588.41875 
L 591.230743 588.41875 
L 594.321298 588.41875 
L 597.411854 588.41875 
L 600.50241 588.41875 
L 600.50241 588.393982 
L 600.50241 588.393982 
L 597.411854 588.343884 
L 594.321298 588.2184 
L 591.230743 587.942916 
L 588.140187 587.412662 
L 585.049631 586.517314 
L 581.959076 585.189992 
L 578.86852 583.460716 
L 575.777964 581.479405 
L 572.687409 579.484968 
L 569.596853 577.73151 
L 566.506297 576.409559 
L 563.415742 575.595448 
L 560.325186 575.237451 
L 557.23463 575.17322 
L 554.144075 575.176666 
L 551.053519 575.032728 
L 547.962963 574.621108 
L 544.872408 573.968762 
L 541.781852 573.232257 
L 538.691296 572.606261 
L 535.600741 572.206526 
L 532.510185 572.004666 
L 529.419629 571.862187 
L 526.329074 571.63363 
L 523.238518 571.248593 
L 520.147962 570.699981 
L 517.057407 569.949454 
L 513.966851 568.838157 
L 510.876295 567.100494 
L 507.785739 564.512369 
L 504.695184 561.09774 
L 501.604628 557.238123 
L 498.514072 553.561472 
L 495.423517 550.642886 
L 492.332961 548.710798 
L 489.242405 547.558311 
L 486.15185 546.690322 
L 483.061294 545.555518 
L 479.970738 543.689131 
L 476.880183 540.727802 
L 473.789627 536.397631 
L 470.699071 530.583494 
L 467.608516 523.470765 
L 464.51796 515.63787 
L 461.427404 507.983041 
L 458.336849 501.481302 
L 455.246293 496.877959 
L 452.155737 494.447896 
L 449.065182 493.904235 
L 445.974626 494.487369 
L 442.88407 495.219158 
L 439.793515 495.244588 
L 436.702959 494.119052 
L 433.612403 491.892669 
L 430.521848 488.935039 
L 427.431292 485.605156 
L 424.340736 481.995659 
L 421.250181 477.944536 
L 418.159625 473.295543 
L 415.069069 468.167927 
L 411.978514 462.987558 
L 408.887958 458.261718 
L 405.797402 454.317805 
L 402.706847 451.231479 
L 399.616291 448.962883 
L 396.525735 447.535723 
L 393.43518 447.101697 
L 390.344624 447.877174 
L 387.254068 450.048153 
L 384.163513 453.717593 
L 381.072957 458.876844 
L 377.982401 465.350644 
L 374.891846 472.732248 
L 371.80129 480.390178 
L 368.710734 487.591782 
L 365.620178 493.694716 
L 362.529623 498.321167 
L 359.439067 501.469741 
L 356.348511 503.550891 
L 353.257956 505.311515 
L 350.1674 507.612621 
L 347.076844 511.10976 
L 343.986289 515.998176 
L 340.895733 521.981832 
L 337.805177 528.471367 
L 334.714622 534.853515 
L 331.624066 540.665325 
L 328.53351 545.636937 
L 325.442955 549.678239 
L 322.352399 552.874463 
L 319.261843 555.476824 
L 316.171288 557.838858 
L 313.080732 560.291285 
L 309.990176 563.008325 
L 306.899621 565.932536 
L 303.809065 568.791735 
L 300.718509 571.197996 
L 297.627954 572.7879 
L 294.537398 573.347188 
L 291.446842 572.870007 
L 288.356287 571.540114 
L 285.265731 569.666585 
L 282.175175 567.620171 
L 279.08462 565.78902 
L 275.994064 564.537803 
L 272.903508 564.148417 
L 269.812953 564.745443 
L 266.722397 566.240412 
L 263.631841 568.338942 
L 260.541286 570.629443 
L 257.45073 572.720909 
L 254.360174 574.358901 
L 251.269619 575.46198 
L 248.179063 576.079007 
L 245.088507 576.318926 
L 241.997952 576.305865 
L 238.907396 576.171344 
L 235.81684 576.056228 
L 232.726285 576.092375 
L 229.635729 576.36327 
L 226.545173 576.870856 
L 223.454618 577.536568 
L 220.364062 578.241955 
L 217.273506 578.888268 
L 214.18295 579.440677 
L 211.092395 579.929776 
L 208.001839 580.409763 
L 204.911283 580.903065 
L 201.820728 581.371536 
L 198.730172 581.736047 
L 195.639616 581.932268 
L 192.549061 581.963031 
L 189.458505 581.906313 
L 186.367949 581.868925 
L 183.277394 581.91971 
L 180.186838 582.054778 
L 177.096282 582.220331 
L 174.005727 582.368999 
L 170.915171 582.500101 
L 167.824615 582.654915 
L 164.73406 582.88026 
L 161.643504 583.195621 
L 158.552948 583.586196 
L 155.462393 584.017464 
L 152.371837 584.45338 
L 149.281281 584.866111 
L 146.190726 585.237328 
L 143.10017 585.555998 
L 140.009614 585.81571 
L 136.919059 586.013459 
L 133.828503 586.151135 
L 130.737947 586.235873 
L 127.647392 586.273056 
L 124.556836 586.256785 
L 121.46628 586.175802 
L 118.375725 586.041818 
L 115.285169 585.914864 
L 112.194613 585.888147 
L 109.104058 586.029711 
L 106.013502 586.327321 
L 102.922946 586.688868 
L 99.832391 587.002287 
L 96.741835 587.206403 
L 93.651279 587.318444 
L 90.560724 587.404558 
L 87.470168 587.524351 
L 84.379612 587.692604 
L 81.289057 587.878933 
L 78.198501 588.034871 
L 75.107945 588.123658 
L 72.01739 588.136057 
L 68.926834 588.090664 
L 65.836278 588.024337 
L 62.745722 587.977405 
L 59.655167 587.977773 
L 56.564611 588.03045 
L 53.474055 588.118586 
L 50.3835 588.215245 
L 47.292944 588.297606 
L 44.202388 588.354673 
L 41.111833 588.385709 
L 38.021277 588.392719 
L 34.930721 588.371672 
L 31.840166 588.305748 
L 28.74961 588.164074 
L 25.659054 587.911345 
L 22.568499 587.531778 
L 19.477943 587.059613 
L 16.387387 586.593304 
L 13.296832 586.269823 
L 10.206276 586.201471 
L 7.11572 586.413516 
L 4.025165 586.829267 
L 0.934609 587.314436 
L -2.155947 587.746276 
L -5.246502 588.059824 
L -8.337058 588.250839 
L -11.427614 588.349901 
L -14.518169 588.394006 
z
" clip-path="url(#pb2d9cfb2ac)" style="fill: #d55e00; fill-opacity: 0.75; stroke: #d55e00; stroke-width: 1.5"/>
   </g>
   <g id="line2d_29">
    <path d="M 11.0175 588.41875 
L 592.6225 588.41875 
" clip-path="url(#pb2d9cfb2ac)" style="fill: none; stroke: #0071b2; stroke-width: 2; stroke-linecap: square"/>
   </g>
   <g id="line2d_30">
    <path d="M 11.0175 588.41875 
L 592.6225 588.41875 
" clip-path="url(#pb2d9cfb2ac)" style="fill: none; stroke: #d55e00; stroke-width: 2; stroke-linecap: square"/>
   </g>
   <g id="text_10">
    <!-- Madrid -->
    <g style="fill: #2d2d2d" transform="translate(16.83355 445.631104) scale(0.16 -0.16)">
     <defs>
      <path id="DejaVuSans-4d" d="M 628 4666 
L 1569 4666 
L 2759 1491 
L 3956 4666 
L 4897 4666 
L 4897 0 
L 4281 0 
L 4281 4097 
L 3078 897 
L 2444 897 
L 1241 4097 
L 1241 0 
L 628 0 
L 628 4666 
z
" transform="scale(0.015625)"/>
     </defs>
     <use xlink:href="#DejaVuSans-4d"/>
     <use xlink:href="#DejaVuSans-61" transform="translate(86.279297 0)"/>
     <use xlink:href="#DejaVuSans-64" transform="translate(147.558594 0)"/>
     <use xlink:href="#DejaVuSans-72" transform="translate(211.035156 0)"/>
     <use xlink:href="#DejaVuSans-69" transform="translate(252.148438 0)"/>
     <use xlink:href="#DejaVuSans-64" transform="translate(279.931641 0)"/>
    </g>
   </g>
  </g>
 </g>
 <defs>
  <clipPath id="pfca7dc917b">
   <rect x="11.0175" y="7.2" width="581.605" height="173.179583"/>
  </clipPath>
  <clipPath id="p865acc8bca">
   <rect x="11.0175" y="211.219583" width="581.605" height="173.179583"/>
  </clipPath>
  <clipPath id="pb2d9cfb2ac">
   <rect x="11.0175" y="415.239167" width="581.605" height="173.179583"/>
  </clipPath>
 </defs>
</svg>
