<?xml version="1.0" encoding="utf-8" standalone="no"?>
<!DOCTYPE svg PUBLIC "-//W3C//DTD SVG 1.1//EN"
  "http://www.w3.org/Graphics/SVG/1.1/DTD/svg11.dtd">
<svg xmlns:xlink="http://www.w3.org/1999/xlink" width="529.6225pt" height="631.8125pt" viewBox="0 0 529.6225 631.8125" xmlns="http://www.w3.org/2000/svg" version="1.1">
 <metadata>
  <rdf:RDF xmlns:dc="http://purl.org/dc/elements/1.1/" xmlns:cc="http://creativecommons.org/ns#" xmlns:rdf="http://www.w3.org/1999/02/22-rdf-syntax-ns#">
   <cc:Work>
    <dc:type rdf:resource="http://purl.org/dc/dcmitype/StillImage"/>
    <dc:format>image/svg+xml</dc:format>
    <dc:creator>
     <cc:Agent>
      <dc:title>Gergő Pintér</dc:title>
     </cc:Agent>
    </dc:creator>
    <dc:rights>
     <cc:Agent>
      <dc:title>CC BY 4.0</dc:title>
     </cc:Agent>
    </dc:rights>
   </cc:Work>
  </rdf:RDF>
 </metadata>
 <defs>
  <style type="text/css">*{stroke-linejoin: round; stroke-linecap: butt}</style>
 </defs>
 <g id="figure_1">
  <g id="patch_1">
   <path d="M 0 631.8125 
L 529.6225 631.8125 
L 529.6225 0 
L 0 0 
z
" style="fill: #ffffff"/>
  </g>
  <g id="axes_1">
   <g id="patch_2">
    <path d="M 11.0175 180.379583 
L 522.4225 180.379583 
L 522.4225 7.2 
L 11.0175 7.2 
L 11.0175 180.379583 
z
" style="fill: none"/>
   </g>
   <g id="matplotlib.axis_1">
    <g id="xtick_1">
     <g id="line2d_1">
      <path d="M 11.0175 180.379583 
L 11.0175 7.2 
" clip-path="url(#pce5c579e31)" style="fill: none; stroke: #b0b0b0; stroke-width: 0.8; stroke-linecap: square"/>
     </g>
     <g id="line2d_2">
      <defs>
       <path id="mbcb02aef95" d="M 0 0 
L 0 3.5 
" style="stroke: #000000; stroke-width: 0.8"/>
      </defs>
      <g>
       <use xlink:href="#mbcb02aef95" x="11.0175" y="180.379583" style="stroke: #000000; stroke-width: 0.8"/>
      </g>
     </g>
    </g>
    <g id="xtick_2">
     <g id="line2d_3">
      <path d="M 157.133214 180.379583 
L 157.133214 7.2 
" clip-path="url(#pce5c579e31)" style="fill: none; stroke: #b0b0b0; stroke-width: 0.8; stroke-linecap: square"/>
     </g>
     <g id="line2d_4">
      <g>
       <use xlink:href="#mbcb02aef95" x="157.133214" y="180.379583" style="stroke: #000000; stroke-width: 0.8"/>
      </g>
     </g>
    </g>
    <g id="xtick_3">
     <g id="line2d_5">
      <path d="M 303.248929 180.379583 
L 303.248929 7.2 
" clip-path="url(#pce5c579e31)" style="fill: none; stroke: #b0b0b0; stroke-width: 0.8; stroke-linecap: square"/>
     </g>
     <g id="line2d_6">
      <g>
       <use xlink:href="#mbcb02aef95" x="303.248929" y="180.379583" style="stroke: #000000; stroke-width: 0.8"/>
      </g>
     </g>
    </g>
    <g id="xtick_4">
     <g id="line2d_7">
      <path d="M 449.364643 180.379583 
L 449.364643 7.2 
" clip-path="url(#pce5c579e31)" style="fill: none; stroke: #b0b0b0; stroke-width: 0.8; stroke-linecap: square"/>
     </g>
     <g id="line2d_8">
      <g>
       <use xlink:href="#mbcb02aef95" x="449.364643" y="180.379583" style="stroke: #000000; stroke-width: 0.8"/>
      </g>
     </g>
    </g>
   </g>
   <g id="matplotlib.axis_2"/>
   <g id="FillBetweenPolyCollection_1">
    <defs>
     <path id="mc433121912" d="M 77.90215 -451.438694 
L 77.90215 -451.432917 
L 80.354588 -451.432917 
L 82.807026 -451.432917 
L 85.259464 -451.432917 
L 87.711902 -451.432917 
L 90.164341 -451.432917 
L 92.616779 -451.432917 
L 95.069217 -451.432917 
L 97.521655 -451.432917 
L 99.974093 -451.432917 
L 102.426531 -451.432917 
L 104.878969 -451.432917 
L 107.331407 -451.432917 
L 109.783845 -451.432917 
L 112.236283 -451.432917 
L 114.688721 -451.432917 
L 117.141159 -451.432917 
L 119.593597 -451.432917 
L 122.046035 -451.432917 
L 124.498473 -451.432917 
L 126.950911 -451.432917 
L 129.403349 -451.432917 
L 131.855787 -451.432917 
L 134.308225 -451.432917 
L 136.760663 -451.432917 
L 139.213102 -451.432917 
L 141.66554 -451.432917 
L 144.117978 -451.432917 
L 146.570416 -451.432917 
L 149.022854 -451.432917 
L 151.475292 -451.432917 
L 153.92773 -451.432917 
L 156.380168 -451.432917 
L 158.832606 -451.432917 
L 161.285044 -451.432917 
L 163.737482 -451.432917 
L 166.18992 -451.432917 
L 168.642358 -451.432917 
L 171.094796 -451.432917 
L 173.547234 -451.432917 
L 175.999672 -451.432917 
L 178.45211 -451.432917 
L 180.904548 -451.432917 
L 183.356986 -451.432917 
L 185.809424 -451.432917 
L 188.261862 -451.432917 
L 190.714301 -451.432917 
L 193.166739 -451.432917 
L 195.619177 -451.432917 
L 198.071615 -451.432917 
L 200.524053 -451.432917 
L 202.976491 -451.432917 
L 205.428929 -451.432917 
L 207.881367 -451.432917 
L 210.333805 -451.432917 
L 212.786243 -451.432917 
L 215.238681 -451.432917 
L 217.691119 -451.432917 
L 220.143557 -451.432917 
L 222.595995 -451.432917 
L 225.048433 -451.432917 
L 227.500871 -451.432917 
L 229.953309 -451.432917 
L 232.405747 -451.432917 
L 234.858185 -451.432917 
L 237.310623 -451.432917 
L 239.763062 -451.432917 
L 242.2155 -451.432917 
L 244.667938 -451.432917 
L 247.120376 -451.432917 
L 249.572814 -451.432917 
L 252.025252 -451.432917 
L 254.47769 -451.432917 
L 256.930128 -451.432917 
L 259.382566 -451.432917 
L 261.835004 -451.432917 
L 264.287442 -451.432917 
L 266.73988 -451.432917 
L 269.192318 -451.432917 
L 271.644756 -451.432917 
L 274.097194 -451.432917 
L 276.549632 -451.432917 
L 279.00207 -451.432917 
L 281.454508 -451.432917 
L 283.906946 -451.432917 
L 286.359384 -451.432917 
L 288.811822 -451.432917 
L 291.264261 -451.432917 
L 293.716699 -451.432917 
L 296.169137 -451.432917 
L 298.621575 -451.432917 
L 301.074013 -451.432917 
L 303.526451 -451.432917 
L 305.978889 -451.432917 
L 308.431327 -451.432917 
L 310.883765 -451.432917 
L 313.336203 -451.432917 
L 315.788641 -451.432917 
L 318.241079 -451.432917 
L 320.693517 -451.432917 
L 323.145955 -451.432917 
L 325.598393 -451.432917 
L 328.050831 -451.432917 
L 330.503269 -451.432917 
L 332.955707 -451.432917 
L 335.408145 -451.432917 
L 337.860583 -451.432917 
L 340.313022 -451.432917 
L 342.76546 -451.432917 
L 345.217898 -451.432917 
L 347.670336 -451.432917 
L 350.122774 -451.432917 
L 352.575212 -451.432917 
L 355.02765 -451.432917 
L 357.480088 -451.432917 
L 359.932526 -451.432917 
L 362.384964 -451.432917 
L 364.837402 -451.432917 
L 367.28984 -451.432917 
L 369.742278 -451.432917 
L 372.194716 -451.432917 
L 374.647154 -451.432917 
L 377.099592 -451.432917 
L 379.55203 -451.432917 
L 382.004468 -451.432917 
L 384.456906 -451.432917 
L 386.909344 -451.432917 
L 389.361782 -451.432917 
L 391.814221 -451.432917 
L 394.266659 -451.432917 
L 396.719097 -451.432917 
L 399.171535 -451.432917 
L 401.623973 -451.432917 
L 404.076411 -451.432917 
L 406.528849 -451.432917 
L 408.981287 -451.432917 
L 411.433725 -451.432917 
L 413.886163 -451.432917 
L 416.338601 -451.432917 
L 418.791039 -451.432917 
L 421.243477 -451.432917 
L 423.695915 -451.432917 
L 426.148353 -451.432917 
L 428.600791 -451.432917 
L 431.053229 -451.432917 
L 433.505667 -451.432917 
L 435.958105 -451.432917 
L 438.410543 -451.432917 
L 440.862982 -451.432917 
L 443.31542 -451.432917 
L 445.767858 -451.432917 
L 448.220296 -451.432917 
L 450.672734 -451.432917 
L 453.125172 -451.432917 
L 455.57761 -451.432917 
L 458.030048 -451.432917 
L 460.482486 -451.432917 
L 462.934924 -451.432917 
L 465.387362 -451.432917 
L 467.8398 -451.432917 
L 470.292238 -451.432917 
L 472.744676 -451.432917 
L 475.197114 -451.432917 
L 477.649552 -451.432917 
L 480.10199 -451.432917 
L 482.554428 -451.432917 
L 485.006866 -451.432917 
L 487.459304 -451.432917 
L 489.911743 -451.432917 
L 492.364181 -451.432917 
L 494.816619 -451.432917 
L 497.269057 -451.432917 
L 499.721495 -451.432917 
L 502.173933 -451.432917 
L 504.626371 -451.432917 
L 507.078809 -451.432917 
L 509.531247 -451.432917 
L 511.983685 -451.432917 
L 514.436123 -451.432917 
L 516.888561 -451.432917 
L 519.340999 -451.432917 
L 521.793437 -451.432917 
L 524.245875 -451.432917 
L 526.698313 -451.432917 
L 529.150751 -451.432917 
L 531.603189 -451.432917 
L 534.055627 -451.432917 
L 536.508065 -451.432917 
L 538.960503 -451.432917 
L 541.412942 -451.432917 
L 543.86538 -451.432917 
L 546.317818 -451.432917 
L 548.770256 -451.432917 
L 551.222694 -451.432917 
L 553.675132 -451.432917 
L 556.12757 -451.432917 
L 558.580008 -451.432917 
L 561.032446 -451.432917 
L 563.484884 -451.432917 
L 565.937322 -451.432917 
L 565.937322 -451.439002 
L 565.937322 -451.439002 
L 563.484884 -451.449625 
L 561.032446 -451.473991 
L 558.580008 -451.523741 
L 556.12757 -451.614682 
L 553.675132 -451.76469 
L 551.222694 -451.990077 
L 548.770256 -452.301398 
L 546.317818 -452.699257 
L 543.86538 -453.170618 
L 541.412942 -453.68835 
L 538.960503 -454.219645 
L 536.508065 -454.746338 
L 534.055627 -455.289279 
L 531.603189 -455.918163 
L 529.150751 -456.730955 
L 526.698313 -457.805906 
L 524.245875 -459.150695 
L 521.793437 -460.680059 
L 519.340999 -462.238793 
L 516.888561 -463.659647 
L 514.436123 -464.822919 
L 511.983685 -465.683235 
L 509.531247 -466.25289 
L 507.078809 -466.563274 
L 504.626371 -466.639288 
L 502.173933 -466.503677 
L 499.721495 -466.195916 
L 497.269057 -465.776727 
L 494.816619 -465.308946 
L 492.364181 -464.836514 
L 489.911743 -464.389769 
L 487.459304 -464.018224 
L 485.006866 -463.820921 
L 482.554428 -463.942922 
L 480.10199 -464.534615 
L 477.649552 -465.697565 
L 475.197114 -467.441781 
L 472.744676 -469.66192 
L 470.292238 -472.131449 
L 467.8398 -474.525399 
L 465.387362 -476.491979 
L 462.934924 -477.771297 
L 460.482486 -478.312201 
L 458.030048 -478.312952 
L 455.57761 -478.145655 
L 453.125172 -478.197314 
L 450.672734 -478.711523 
L 448.220296 -479.707554 
L 445.767858 -481.004318 
L 443.31542 -482.324719 
L 440.862982 -483.426186 
L 438.410543 -484.201391 
L 435.958105 -484.713608 
L 433.505667 -485.159992 
L 431.053229 -485.779931 
L 428.600791 -486.744142 
L 426.148353 -488.075626 
L 423.695915 -489.64978 
L 421.243477 -491.278222 
L 418.791039 -492.819819 
L 416.338601 -494.242737 
L 413.886163 -495.611971 
L 411.433725 -497.045622 
L 408.981287 -498.691645 
L 406.528849 -500.720415 
L 404.076411 -503.285705 
L 401.623973 -506.437092 
L 399.171535 -510.035212 
L 396.719097 -513.74619 
L 394.266659 -517.144325 
L 391.814221 -519.879027 
L 389.361782 -521.822561 
L 386.909344 -523.128932 
L 384.456906 -524.183913 
L 382.004468 -525.481299 
L 379.55203 -527.488983 
L 377.099592 -530.551526 
L 374.647154 -534.831251 
L 372.194716 -540.266325 
L 369.742278 -546.54954 
L 367.28984 -553.171521 
L 364.837402 -559.563231 
L 362.384964 -565.298119 
L 359.932526 -570.236224 
L 357.480088 -574.496766 
L 355.02765 -578.25436 
L 352.575212 -581.49183 
L 350.122774 -583.894975 
L 347.670336 -584.986776 
L 345.217898 -584.428561 
L 342.76546 -582.291554 
L 340.313022 -579.118463 
L 337.860583 -575.736051 
L 335.408145 -572.934845 
L 332.955707 -571.189864 
L 330.503269 -570.536709 
L 328.050831 -570.611579 
L 325.598393 -570.792182 
L 323.145955 -570.366136 
L 320.693517 -568.684156 
L 318.241079 -565.290577 
L 315.788641 -560.029634 
L 313.336203 -553.097989 
L 310.883765 -544.997032 
L 308.431327 -536.381842 
L 305.978889 -527.882903 
L 303.526451 -520.001355 
L 301.074013 -513.104956 
L 298.621575 -507.454012 
L 296.169137 -503.176323 
L 293.716699 -500.201114 
L 291.264261 -498.246791 
L 288.811822 -496.931091 
L 286.359384 -495.954011 
L 283.906946 -495.217167 
L 281.454508 -494.780624 
L 279.00207 -494.686825 
L 276.549632 -494.786825 
L 274.097194 -494.703606 
L 271.644756 -493.968598 
L 269.192318 -492.244446 
L 266.73988 -489.485998 
L 264.287442 -485.938834 
L 261.835004 -481.996579 
L 259.382566 -478.034083 
L 256.930128 -474.322503 
L 254.47769 -471.036891 
L 252.025252 -468.289043 
L 249.572814 -466.127676 
L 247.120376 -464.513469 
L 244.667938 -463.316665 
L 242.2155 -462.363535 
L 239.763062 -461.509417 
L 237.310623 -460.691059 
L 234.858185 -459.925076 
L 232.405747 -459.255579 
L 229.953309 -458.688468 
L 227.500871 -458.16181 
L 225.048433 -457.57846 
L 222.595995 -456.879091 
L 220.143557 -456.098921 
L 217.691119 -455.36241 
L 215.238681 -454.818611 
L 212.786243 -454.562412 
L 210.333805 -454.590707 
L 207.881367 -454.813046 
L 205.428929 -455.101746 
L 202.976491 -455.348181 
L 200.524053 -455.49533 
L 198.071615 -455.536476 
L 195.619177 -455.493352 
L 193.166739 -455.39656 
L 190.714301 -455.279525 
L 188.261862 -455.177711 
L 185.809424 -455.118956 
L 183.356986 -455.10459 
L 180.904548 -455.097798 
L 178.45211 -455.03569 
L 175.999672 -454.86337 
L 173.547234 -454.569396 
L 171.094796 -454.199079 
L 168.642358 -453.835855 
L 166.18992 -453.559711 
L 163.737482 -453.404616 
L 161.285044 -453.339113 
L 158.832606 -453.283594 
L 156.380168 -453.156195 
L 153.92773 -452.918997 
L 151.475292 -452.594918 
L 149.022854 -452.247375 
L 146.570416 -451.941594 
L 144.117978 -451.715144 
L 141.66554 -451.5718 
L 139.213102 -451.493484 
L 136.760663 -451.456315 
L 134.308225 -451.440923 
L 131.855787 -451.435351 
L 129.403349 -451.433612 
L 126.950911 -451.433261 
L 124.498473 -451.433666 
L 122.046035 -451.435316 
L 119.593597 -451.439993 
L 117.141159 -451.451433 
L 114.688721 -451.47582 
L 112.236283 -451.520933 
L 109.783845 -451.592784 
L 107.331407 -451.690004 
L 104.878969 -451.798956 
L 102.426531 -451.894342 
L 99.974093 -451.947908 
L 97.521655 -451.941807 
L 95.069217 -451.878137 
L 92.616779 -451.777783 
L 90.164341 -451.669428 
L 87.711902 -451.576525 
L 85.259464 -451.51012 
L 82.807026 -451.469663 
L 80.354588 -451.448402 
L 77.90215 -451.438694 
z
" style="stroke: #0071b2; stroke-width: 1.5"/>
    </defs>
    <g clip-path="url(#pce5c579e31)">
     <use xlink:href="#mc433121912" x="0" y="631.8125" style="fill: #0071b2; fill-opacity: 0.75; stroke: #0071b2; stroke-width: 1.5"/>
    </g>
   </g>
   <g id="FillBetweenPolyCollection_2">
    <defs>
     <path id="mb752e16e09" d="M -13.986835 -451.457278 
L -13.986835 -451.432917 
L -11.392829 -451.432917 
L -8.798823 -451.432917 
L -6.204817 -451.432917 
L -3.610811 -451.432917 
L -1.016805 -451.432917 
L 1.577201 -451.432917 
L 4.171207 -451.432917 
L 6.765213 -451.432917 
L 9.359219 -451.432917 
L 11.953225 -451.432917 
L 14.547231 -451.432917 
L 17.141237 -451.432917 
L 19.735243 -451.432917 
L 22.329249 -451.432917 
L 24.923255 -451.432917 
L 27.517261 -451.432917 
L 30.111267 -451.432917 
L 32.705273 -451.432917 
L 35.299279 -451.432917 
L 37.893285 -451.432917 
L 40.487291 -451.432917 
L 43.081297 -451.432917 
L 45.675303 -451.432917 
L 48.269309 -451.432917 
L 50.863315 -451.432917 
L 53.457321 -451.432917 
L 56.051327 -451.432917 
L 58.645333 -451.432917 
L 61.239339 -451.432917 
L 63.833345 -451.432917 
L 66.427351 -451.432917 
L 69.021357 -451.432917 
L 71.615363 -451.432917 
L 74.209369 -451.432917 
L 76.803375 -451.432917 
L 79.397381 -451.432917 
L 81.991387 -451.432917 
L 84.585393 -451.432917 
L 87.179398 -451.432917 
L 89.773404 -451.432917 
L 92.36741 -451.432917 
L 94.961416 -451.432917 
L 97.555422 -451.432917 
L 100.149428 -451.432917 
L 102.743434 -451.432917 
L 105.33744 -451.432917 
L 107.931446 -451.432917 
L 110.525452 -451.432917 
L 113.119458 -451.432917 
L 115.713464 -451.432917 
L 118.30747 -451.432917 
L 120.901476 -451.432917 
L 123.495482 -451.432917 
L 126.089488 -451.432917 
L 128.683494 -451.432917 
L 131.2775 -451.432917 
L 133.871506 -451.432917 
L 136.465512 -451.432917 
L 139.059518 -451.432917 
L 141.653524 -451.432917 
L 144.24753 -451.432917 
L 146.841536 -451.432917 
L 149.435542 -451.432917 
L 152.029548 -451.432917 
L 154.623554 -451.432917 
L 157.21756 -451.432917 
L 159.811566 -451.432917 
L 162.405572 -451.432917 
L 164.999578 -451.432917 
L 167.593584 -451.432917 
L 170.18759 -451.432917 
L 172.781596 -451.432917 
L 175.375602 -451.432917 
L 177.969608 -451.432917 
L 180.563614 -451.432917 
L 183.15762 -451.432917 
L 185.751626 -451.432917 
L 188.345632 -451.432917 
L 190.939638 -451.432917 
L 193.533644 -451.432917 
L 196.12765 -451.432917 
L 198.721656 -451.432917 
L 201.315662 -451.432917 
L 203.909668 -451.432917 
L 206.503674 -451.432917 
L 209.09768 -451.432917 
L 211.691686 -451.432917 
L 214.285692 -451.432917 
L 216.879698 -451.432917 
L 219.473704 -451.432917 
L 222.06771 -451.432917 
L 224.661716 -451.432917 
L 227.255722 -451.432917 
L 229.849728 -451.432917 
L 232.443734 -451.432917 
L 235.03774 -451.432917 
L 237.631746 -451.432917 
L 240.225752 -451.432917 
L 242.819758 -451.432917 
L 245.413764 -451.432917 
L 248.00777 -451.432917 
L 250.601776 -451.432917 
L 253.195782 -451.432917 
L 255.789788 -451.432917 
L 258.383794 -451.432917 
L 260.9778 -451.432917 
L 263.571806 -451.432917 
L 266.165812 -451.432917 
L 268.759818 -451.432917 
L 271.353824 -451.432917 
L 273.94783 -451.432917 
L 276.541836 -451.432917 
L 279.135842 -451.432917 
L 281.729848 -451.432917 
L 284.323854 -451.432917 
L 286.91786 -451.432917 
L 289.511866 -451.432917 
L 292.105872 -451.432917 
L 294.699878 -451.432917 
L 297.293884 -451.432917 
L 299.88789 -451.432917 
L 302.481896 -451.432917 
L 305.075902 -451.432917 
L 307.669908 -451.432917 
L 310.263914 -451.432917 
L 312.85792 -451.432917 
L 315.451926 -451.432917 
L 318.045932 -451.432917 
L 320.639938 -451.432917 
L 323.233944 -451.432917 
L 325.82795 -451.432917 
L 328.421956 -451.432917 
L 331.015962 -451.432917 
L 333.609968 -451.432917 
L 336.203974 -451.432917 
L 338.79798 -451.432917 
L 341.391986 -451.432917 
L 343.985992 -451.432917 
L 346.579998 -451.432917 
L 349.174004 -451.432917 
L 351.76801 -451.432917 
L 354.362016 -451.432917 
L 356.956022 -451.432917 
L 359.550028 -451.432917 
L 362.144033 -451.432917 
L 364.738039 -451.432917 
L 367.332045 -451.432917 
L 369.926051 -451.432917 
L 372.520057 -451.432917 
L 375.114063 -451.432917 
L 377.708069 -451.432917 
L 380.302075 -451.432917 
L 382.896081 -451.432917 
L 385.490087 -451.432917 
L 388.084093 -451.432917 
L 390.678099 -451.432917 
L 393.272105 -451.432917 
L 395.866111 -451.432917 
L 398.460117 -451.432917 
L 401.054123 -451.432917 
L 403.648129 -451.432917 
L 406.242135 -451.432917 
L 408.836141 -451.432917 
L 411.430147 -451.432917 
L 414.024153 -451.432917 
L 416.618159 -451.432917 
L 419.212165 -451.432917 
L 421.806171 -451.432917 
L 424.400177 -451.432917 
L 426.994183 -451.432917 
L 429.588189 -451.432917 
L 432.182195 -451.432917 
L 434.776201 -451.432917 
L 437.370207 -451.432917 
L 439.964213 -451.432917 
L 442.558219 -451.432917 
L 445.152225 -451.432917 
L 447.746231 -451.432917 
L 450.340237 -451.432917 
L 452.934243 -451.432917 
L 455.528249 -451.432917 
L 458.122255 -451.432917 
L 460.716261 -451.432917 
L 463.310267 -451.432917 
L 465.904273 -451.432917 
L 468.498279 -451.432917 
L 471.092285 -451.432917 
L 473.686291 -451.432917 
L 476.280297 -451.432917 
L 478.874303 -451.432917 
L 481.468309 -451.432917 
L 484.062315 -451.432917 
L 486.656321 -451.432917 
L 489.250327 -451.432917 
L 491.844333 -451.432917 
L 494.438339 -451.432917 
L 497.032345 -451.432917 
L 499.626351 -451.432917 
L 502.220357 -451.432917 
L 502.220357 -451.448299 
L 502.220357 -451.448299 
L 499.626351 -451.472796 
L 497.032345 -451.527284 
L 494.438339 -451.636992 
L 491.844333 -451.836941 
L 489.250327 -452.166926 
L 486.656321 -452.660583 
L 484.062315 -453.331602 
L 481.468309 -454.164121 
L 478.874303 -455.114417 
L 476.280297 -456.124933 
L 473.686291 -457.142684 
L 471.092285 -458.129737 
L 468.498279 -459.059152 
L 465.904273 -459.902344 
L 463.310267 -460.622341 
L 460.716261 -461.183106 
L 458.122255 -461.570123 
L 455.528249 -461.804953 
L 452.934243 -461.93864 
L 450.340237 -462.025545 
L 447.746231 -462.096307 
L 445.152225 -462.150519 
L 442.558219 -462.173885 
L 439.964213 -462.165151 
L 437.370207 -462.15212 
L 434.776201 -462.187812 
L 432.182195 -462.334686 
L 429.588189 -462.651251 
L 426.994183 -463.187618 
L 424.400177 -463.984656 
L 421.806171 -465.067458 
L 419.212165 -466.430155 
L 416.618159 -468.018671 
L 414.024153 -469.722856 
L 411.430147 -471.387507 
L 408.836141 -472.84535 
L 406.242135 -473.965842 
L 403.648129 -474.702858 
L 401.054123 -475.117226 
L 398.460117 -475.355854 
L 395.866111 -475.591071 
L 393.272105 -475.949909 
L 390.678099 -476.47216 
L 388.084093 -477.117433 
L 385.490087 -477.808471 
L 382.896081 -478.477958 
L 380.302075 -479.094053 
L 377.708069 -479.664092 
L 375.114063 -480.230917 
L 372.520057 -480.870321 
L 369.926051 -481.684081 
L 367.332045 -482.780937 
L 364.738039 -484.250644 
L 362.144033 -486.147175 
L 359.550028 -488.491224 
L 356.956022 -491.284308 
L 354.362016 -494.516057 
L 351.76801 -498.153988 
L 349.174004 -502.122757 
L 346.579998 -506.289745 
L 343.985992 -510.468582 
L 341.391986 -514.441197 
L 338.79798 -517.995111 
L 336.203974 -520.976 
L 333.609968 -523.352912 
L 331.015962 -525.276345 
L 328.421956 -527.089179 
L 325.82795 -529.253045 
L 323.233944 -532.192372 
L 320.639938 -536.115686 
L 318.045932 -540.904572 
L 315.451926 -546.13266 
L 312.85792 -551.203555 
L 310.263914 -555.531048 
L 307.669908 -558.676063 
L 305.075902 -560.402919 
L 302.481896 -560.67567 
L 299.88789 -559.634984 
L 297.293884 -557.572044 
L 294.699878 -554.885097 
L 292.105872 -552.003613 
L 289.511866 -549.294145 
L 286.91786 -546.987684 
L 284.323854 -545.161463 
L 281.729848 -543.773582 
L 279.135842 -542.718608 
L 276.541836 -541.872287 
L 273.94783 -541.117503 
L 271.353824 -540.363114 
L 268.759818 -539.563417 
L 266.165812 -538.728925 
L 263.571806 -537.913185 
L 260.9778 -537.17474 
L 258.383794 -536.532794 
L 255.789788 -535.939594 
L 253.195782 -535.279587 
L 250.601776 -534.390831 
L 248.00777 -533.100652 
L 245.413764 -531.270695 
L 242.819758 -528.843583 
L 240.225752 -525.873345 
L 237.631746 -522.519281 
L 235.03774 -518.999098 
L 232.443734 -515.52252 
L 229.849728 -512.239005 
L 227.255722 -509.221233 
L 224.661716 -506.480608 
L 222.06771 -503.992915 
L 219.473704 -501.712952 
L 216.879698 -499.571949 
L 214.285692 -497.468457 
L 211.691686 -495.271616 
L 209.09768 -492.850601 
L 206.503674 -490.127582 
L 203.909668 -487.131621 
L 201.315662 -484.020535 
L 198.721656 -481.047264 
L 196.12765 -478.475594 
L 193.533644 -476.481124 
L 190.939638 -475.085875 
L 188.345632 -474.158957 
L 185.751626 -473.480687 
L 183.15762 -472.835117 
L 180.563614 -472.084722 
L 177.969608 -471.195631 
L 175.375602 -470.212062 
L 172.781596 -469.20572 
L 170.18759 -468.233525 
L 167.593584 -467.322794 
L 164.999578 -466.480692 
L 162.405572 -465.712077 
L 159.811566 -465.032765 
L 157.21756 -464.474001 
L 154.623554 -464.07784 
L 152.029548 -463.882421 
L 149.435542 -463.898759 
L 146.841536 -464.088376 
L 144.24753 -464.356109 
L 141.653524 -464.567244 
L 139.059518 -464.585419 
L 136.465512 -464.316703 
L 133.871506 -463.742118 
L 131.2775 -462.925436 
L 128.683494 -461.992365 
L 126.089488 -461.087966 
L 123.495482 -460.327783 
L 120.901476 -459.761632 
L 118.30747 -459.365477 
L 115.713464 -459.065896 
L 113.119458 -458.784963 
L 110.525452 -458.479416 
L 107.931446 -458.149917 
L 105.33744 -457.818609 
L 102.743434 -457.500163 
L 100.149428 -457.196744 
L 97.555422 -456.921983 
L 94.961416 -456.725493 
L 92.36741 -456.681751 
L 89.773404 -456.836577 
L 87.179398 -457.146427 
L 84.585393 -457.462059 
L 81.991387 -457.581665 
L 79.397381 -457.348667 
L 76.803375 -456.73552 
L 74.209369 -455.862985 
L 71.615363 -454.946432 
L 69.021357 -454.203319 
L 66.427351 -453.770529 
L 63.833345 -453.664684 
L 61.239339 -453.792014 
L 58.645333 -453.994996 
L 56.051327 -454.114761 
L 53.457321 -454.046508 
L 50.863315 -453.768377 
L 48.269309 -453.334711 
L 45.675303 -452.840982 
L 43.081297 -452.38061 
L 40.487291 -452.014752 
L 37.893285 -451.765051 
L 35.299279 -451.62534 
L 32.705273 -451.580647 
L 30.111267 -451.62237 
L 27.517261 -451.75342 
L 24.923255 -451.98205 
L 22.329249 -452.307201 
L 19.735243 -452.702248 
L 17.141237 -453.107174 
L 14.547231 -453.437751 
L 11.953225 -453.612045 
L 9.359219 -453.582842 
L 6.765213 -453.358213 
L 4.171207 -452.997885 
L 1.577201 -452.587557 
L -1.016805 -452.206169 
L -3.610811 -451.90295 
L -6.204817 -451.692257 
L -8.798823 -451.562797 
L -11.392829 -451.491958 
L -13.986835 -451.457278 
z
" style="stroke: #d55e00; stroke-width: 1.5"/>
    </defs>
    <g clip-path="url(#pce5c579e31)">
     <use xlink:href="#mb752e16e09" x="0" y="631.8125" style="fill: #d55e00; fill-opacity: 0.75; stroke: #d55e00; stroke-width: 1.5"/>
    </g>
   </g>
   <g id="line2d_9">
    <path d="M 11.0175 180.379583 
L 522.4225 180.379583 
" clip-path="url(#pce5c579e31)" style="fill: none; stroke: #0071b2; stroke-width: 2; stroke-linecap: square"/>
   </g>
   <g id="line2d_10">
    <path d="M 11.0175 180.379583 
L 522.4225 180.379583 
" clip-path="url(#pce5c579e31)" style="fill: none; stroke: #d55e00; stroke-width: 2; stroke-linecap: square"/>
   </g>
   <g id="text_1">
    <!-- Budapest -->
    <g style="fill: #2d2d2d" transform="translate(16.13155 37.591937) scale(0.16 -0.16)">
     <defs>
      <path id="DejaVuSans-42" d="M 1259 2228 
L 1259 519 
L 2272 519 
Q 2781 519 3026 730 
Q 3272 941 3272 1375 
Q 3272 1813 3026 2020 
Q 2781 2228 2272 2228 
L 1259 2228 
z
M 1259 4147 
L 1259 2741 
L 2194 2741 
Q 2656 2741 2882 2914 
Q 3109 3088 3109 3444 
Q 3109 3797 2882 3972 
Q 2656 4147 2194 4147 
L 1259 4147 
z
M 628 4666 
L 2241 4666 
Q 2963 4666 3353 4366 
Q 3744 4066 3744 3513 
Q 3744 3084 3544 2831 
Q 3344 2578 2956 2516 
Q 3422 2416 3680 2098 
Q 3938 1781 3938 1306 
Q 3938 681 3513 340 
Q 3088 0 2303 0 
L 628 0 
L 628 4666 
z
" transform="scale(0.015625)"/>
      <path id="DejaVuSans-75" d="M 544 1381 
L 544 3500 
L 1119 3500 
L 1119 1403 
Q 1119 906 1312 657 
Q 1506 409 1894 409 
Q 2359 409 2629 706 
Q 2900 1003 2900 1516 
L 2900 3500 
L 3475 3500 
L 3475 0 
L 2900 0 
L 2900 538 
Q 2691 219 2414 64 
Q 2138 -91 1772 -91 
Q 1169 -91 856 284 
Q 544 659 544 1381 
z
M 1991 3584 
L 1991 3584 
z
" transform="scale(0.015625)"/>
      <path id="DejaVuSans-64" d="M 2906 2969 
L 2906 4863 
L 3481 4863 
L 3481 0 
L 2906 0 
L 2906 525 
Q 2725 213 2448 61 
Q 2172 -91 1784 -91 
Q 1150 -91 751 415 
Q 353 922 353 1747 
Q 353 2572 751 3078 
Q 1150 3584 1784 3584 
Q 2172 3584 2448 3432 
Q 2725 3281 2906 2969 
z
M 947 1747 
Q 947 1113 1208 752 
Q 1469 391 1925 391 
Q 2381 391 2643 752 
Q 2906 1113 2906 1747 
Q 2906 2381 2643 2742 
Q 2381 3103 1925 3103 
Q 1469 3103 1208 2742 
Q 947 2381 947 1747 
z
" transform="scale(0.015625)"/>
      <path id="DejaVuSans-61" d="M 2194 1759 
Q 1497 1759 1228 1600 
Q 959 1441 959 1056 
Q 959 750 1161 570 
Q 1363 391 1709 391 
Q 2188 391 2477 730 
Q 2766 1069 2766 1631 
L 2766 1759 
L 2194 1759 
z
M 3341 1997 
L 3341 0 
L 2766 0 
L 2766 531 
Q 2569 213 2275 61 
Q 1981 -91 1556 -91 
Q 1019 -91 701 211 
Q 384 513 384 1019 
Q 384 1609 779 1909 
Q 1175 2209 1959 2209 
L 2766 2209 
L 2766 2266 
Q 2766 2663 2505 2880 
Q 2244 3097 1772 3097 
Q 1472 3097 1187 3025 
Q 903 2953 641 2809 
L 641 3341 
Q 956 3463 1253 3523 
Q 1550 3584 1831 3584 
Q 2591 3584 2966 3190 
Q 3341 2797 3341 1997 
z
" transform="scale(0.015625)"/>
      <path id="DejaVuSans-70" d="M 1159 525 
L 1159 -1331 
L 581 -1331 
L 581 3500 
L 1159 3500 
L 1159 2969 
Q 1341 3281 1617 3432 
Q 1894 3584 2278 3584 
Q 2916 3584 3314 3078 
Q 3713 2572 3713 1747 
Q 3713 922 3314 415 
Q 2916 -91 2278 -91 
Q 1894 -91 1617 61 
Q 1341 213 1159 525 
z
M 3116 1747 
Q 3116 2381 2855 2742 
Q 2594 3103 2138 3103 
Q 1681 3103 1420 2742 
Q 1159 2381 1159 1747 
Q 1159 1113 1420 752 
Q 1681 391 2138 391 
Q 2594 391 2855 752 
Q 3116 1113 3116 1747 
z
" transform="scale(0.015625)"/>
      <path id="DejaVuSans-65" d="M 3597 1894 
L 3597 1613 
L 953 1613 
Q 991 1019 1311 708 
Q 1631 397 2203 397 
Q 2534 397 2845 478 
Q 3156 559 3463 722 
L 3463 178 
Q 3153 47 2828 -22 
Q 2503 -91 2169 -91 
Q 1331 -91 842 396 
Q 353 884 353 1716 
Q 353 2575 817 3079 
Q 1281 3584 2069 3584 
Q 2775 3584 3186 3129 
Q 3597 2675 3597 1894 
z
M 3022 2063 
Q 3016 2534 2758 2815 
Q 2500 3097 2075 3097 
Q 1594 3097 1305 2825 
Q 1016 2553 972 2059 
L 3022 2063 
z
" transform="scale(0.015625)"/>
      <path id="DejaVuSans-73" d="M 2834 3397 
L 2834 2853 
Q 2591 2978 2328 3040 
Q 2066 3103 1784 3103 
Q 1356 3103 1142 2972 
Q 928 2841 928 2578 
Q 928 2378 1081 2264 
Q 1234 2150 1697 2047 
L 1894 2003 
Q 2506 1872 2764 1633 
Q 3022 1394 3022 966 
Q 3022 478 2636 193 
Q 2250 -91 1575 -91 
Q 1294 -91 989 -36 
Q 684 19 347 128 
L 347 722 
Q 666 556 975 473 
Q 1284 391 1588 391 
Q 1994 391 2212 530 
Q 2431 669 2431 922 
Q 2431 1156 2273 1281 
Q 2116 1406 1581 1522 
L 1381 1569 
Q 847 1681 609 1914 
Q 372 2147 372 2553 
Q 372 3047 722 3315 
Q 1072 3584 1716 3584 
Q 2034 3584 2315 3537 
Q 2597 3491 2834 3397 
z
" transform="scale(0.015625)"/>
      <path id="DejaVuSans-74" d="M 1172 4494 
L 1172 3500 
L 2356 3500 
L 2356 3053 
L 1172 3053 
L 1172 1153 
Q 1172 725 1289 603 
Q 1406 481 1766 481 
L 2356 481 
L 2356 0 
L 1766 0 
Q 1100 0 847 248 
Q 594 497 594 1153 
L 594 3053 
L 172 3053 
L 172 3500 
L 594 3500 
L 594 4494 
L 1172 4494 
z
" transform="scale(0.015625)"/>
     </defs>
     <use xlink:href="#DejaVuSans-42"/>
     <use xlink:href="#DejaVuSans-75" transform="translate(68.603516 0)"/>
     <use xlink:href="#DejaVuSans-64" transform="translate(131.982422 0)"/>
     <use xlink:href="#DejaVuSans-61" transform="translate(195.458984 0)"/>
     <use xlink:href="#DejaVuSans-70" transform="translate(256.738281 0)"/>
     <use xlink:href="#DejaVuSans-65" transform="translate(320.214844 0)"/>
     <use xlink:href="#DejaVuSans-73" transform="translate(381.738281 0)"/>
     <use xlink:href="#DejaVuSans-74" transform="translate(433.837891 0)"/>
    </g>
   </g>
   <g id="legend_1">
    <g id="patch_3">
     <path d="M 171.654687 38.949375 
L 512.6225 38.949375 
Q 515.4225 38.949375 515.4225 36.149375 
L 515.4225 17 
Q 515.4225 14.2 512.6225 14.2 
L 171.654687 14.2 
Q 168.854687 14.2 168.854687 17 
L 168.854687 36.149375 
Q 168.854687 38.949375 171.654687 38.949375 
z
" style="fill: #ffffff; opacity: 0.8; stroke: #cccccc; stroke-linejoin: miter"/>
    </g>
    <g id="patch_4">
     <path d="M 174.454687 30.437813 
L 202.454687 30.437813 
L 202.454687 20.637813 
L 174.454687 20.637813 
z
" style="fill: #0071b2; stroke: #0071b2; stroke-linejoin: miter"/>
    </g>
    <g id="text_2">
     <!-- multimodal acces -->
     <g transform="translate(213.654687 30.437813) scale(0.14 -0.14)">
      <defs>
       <path id="DejaVuSans-6d" d="M 3328 2828 
Q 3544 3216 3844 3400 
Q 4144 3584 4550 3584 
Q 5097 3584 5394 3201 
Q 5691 2819 5691 2113 
L 5691 0 
L 5113 0 
L 5113 2094 
Q 5113 2597 4934 2840 
Q 4756 3084 4391 3084 
Q 3944 3084 3684 2787 
Q 3425 2491 3425 1978 
L 3425 0 
L 2847 0 
L 2847 2094 
Q 2847 2600 2669 2842 
Q 2491 3084 2119 3084 
Q 1678 3084 1418 2786 
Q 1159 2488 1159 1978 
L 1159 0 
L 581 0 
L 581 3500 
L 1159 3500 
L 1159 2956 
Q 1356 3278 1631 3431 
Q 1906 3584 2284 3584 
Q 2666 3584 2933 3390 
Q 3200 3197 3328 2828 
z
" transform="scale(0.015625)"/>
       <path id="DejaVuSans-6c" d="M 603 4863 
L 1178 4863 
L 1178 0 
L 603 0 
L 603 4863 
z
" transform="scale(0.015625)"/>
       <path id="DejaVuSans-69" d="M 603 3500 
L 1178 3500 
L 1178 0 
L 603 0 
L 603 3500 
z
M 603 4863 
L 1178 4863 
L 1178 4134 
L 603 4134 
L 603 4863 
z
" transform="scale(0.015625)"/>
       <path id="DejaVuSans-6f" d="M 1959 3097 
Q 1497 3097 1228 2736 
Q 959 2375 959 1747 
Q 959 1119 1226 758 
Q 1494 397 1959 397 
Q 2419 397 2687 759 
Q 2956 1122 2956 1747 
Q 2956 2369 2687 2733 
Q 2419 3097 1959 3097 
z
M 1959 3584 
Q 2709 3584 3137 3096 
Q 3566 2609 3566 1747 
Q 3566 888 3137 398 
Q 2709 -91 1959 -91 
Q 1206 -91 779 398 
Q 353 888 353 1747 
Q 353 2609 779 3096 
Q 1206 3584 1959 3584 
z
" transform="scale(0.015625)"/>
       <path id="DejaVuSans-20" transform="scale(0.015625)"/>
       <path id="DejaVuSans-63" d="M 3122 3366 
L 3122 2828 
Q 2878 2963 2633 3030 
Q 2388 3097 2138 3097 
Q 1578 3097 1268 2742 
Q 959 2388 959 1747 
Q 959 1106 1268 751 
Q 1578 397 2138 397 
Q 2388 397 2633 464 
Q 2878 531 3122 666 
L 3122 134 
Q 2881 22 2623 -34 
Q 2366 -91 2075 -91 
Q 1284 -91 818 406 
Q 353 903 353 1747 
Q 353 2603 823 3093 
Q 1294 3584 2113 3584 
Q 2378 3584 2631 3529 
Q 2884 3475 3122 3366 
z
" transform="scale(0.015625)"/>
      </defs>
      <use xlink:href="#DejaVuSans-6d"/>
      <use xlink:href="#DejaVuSans-75" transform="translate(97.412109 0)"/>
      <use xlink:href="#DejaVuSans-6c" transform="translate(160.791016 0)"/>
      <use xlink:href="#DejaVuSans-74" transform="translate(188.574219 0)"/>
      <use xlink:href="#DejaVuSans-69" transform="translate(227.783203 0)"/>
      <use xlink:href="#DejaVuSans-6d" transform="translate(255.566406 0)"/>
      <use xlink:href="#DejaVuSans-6f" transform="translate(352.978516 0)"/>
      <use xlink:href="#DejaVuSans-64" transform="translate(414.160156 0)"/>
      <use xlink:href="#DejaVuSans-61" transform="translate(477.636719 0)"/>
      <use xlink:href="#DejaVuSans-6c" transform="translate(538.916016 0)"/>
      <use xlink:href="#DejaVuSans-20" transform="translate(566.699219 0)"/>
      <use xlink:href="#DejaVuSans-61" transform="translate(598.486328 0)"/>
      <use xlink:href="#DejaVuSans-63" transform="translate(659.765625 0)"/>
      <use xlink:href="#DejaVuSans-63" transform="translate(714.746094 0)"/>
      <use xlink:href="#DejaVuSans-65" transform="translate(769.726562 0)"/>
      <use xlink:href="#DejaVuSans-73" transform="translate(831.25 0)"/>
     </g>
    </g>
    <g id="patch_5">
     <path d="M 365.322812 30.437813 
L 393.322812 30.437813 
L 393.322812 20.637813 
L 365.322812 20.637813 
z
" style="fill: #d55e00; stroke: #d55e00; stroke-linejoin: miter"/>
    </g>
    <g id="text_3">
     <!-- walking access -->
     <g transform="translate(404.522812 30.437813) scale(0.14 -0.14)">
      <defs>
       <path id="DejaVuSans-77" d="M 269 3500 
L 844 3500 
L 1563 769 
L 2278 3500 
L 2956 3500 
L 3675 769 
L 4391 3500 
L 4966 3500 
L 4050 0 
L 3372 0 
L 2619 2869 
L 1863 0 
L 1184 0 
L 269 3500 
z
" transform="scale(0.015625)"/>
       <path id="DejaVuSans-6b" d="M 581 4863 
L 1159 4863 
L 1159 1991 
L 2875 3500 
L 3609 3500 
L 1753 1863 
L 3688 0 
L 2938 0 
L 1159 1709 
L 1159 0 
L 581 0 
L 581 4863 
z
" transform="scale(0.015625)"/>
       <path id="DejaVuSans-6e" d="M 3513 2113 
L 3513 0 
L 2938 0 
L 2938 2094 
Q 2938 2591 2744 2837 
Q 2550 3084 2163 3084 
Q 1697 3084 1428 2787 
Q 1159 2491 1159 1978 
L 1159 0 
L 581 0 
L 581 3500 
L 1159 3500 
L 1159 2956 
Q 1366 3272 1645 3428 
Q 1925 3584 2291 3584 
Q 2894 3584 3203 3211 
Q 3513 2838 3513 2113 
z
" transform="scale(0.015625)"/>
       <path id="DejaVuSans-67" d="M 2906 1791 
Q 2906 2416 2648 2759 
Q 2391 3103 1925 3103 
Q 1463 3103 1205 2759 
Q 947 2416 947 1791 
Q 947 1169 1205 825 
Q 1463 481 1925 481 
Q 2391 481 2648 825 
Q 2906 1169 2906 1791 
z
M 3481 434 
Q 3481 -459 3084 -895 
Q 2688 -1331 1869 -1331 
Q 1566 -1331 1297 -1286 
Q 1028 -1241 775 -1147 
L 775 -588 
Q 1028 -725 1275 -790 
Q 1522 -856 1778 -856 
Q 2344 -856 2625 -561 
Q 2906 -266 2906 331 
L 2906 616 
Q 2728 306 2450 153 
Q 2172 0 1784 0 
Q 1141 0 747 490 
Q 353 981 353 1791 
Q 353 2603 747 3093 
Q 1141 3584 1784 3584 
Q 2172 3584 2450 3431 
Q 2728 3278 2906 2969 
L 2906 3500 
L 3481 3500 
L 3481 434 
z
" transform="scale(0.015625)"/>
      </defs>
      <use xlink:href="#DejaVuSans-77"/>
      <use xlink:href="#DejaVuSans-61" transform="translate(81.787109 0)"/>
      <use xlink:href="#DejaVuSans-6c" transform="translate(143.066406 0)"/>
      <use xlink:href="#DejaVuSans-6b" transform="translate(170.849609 0)"/>
      <use xlink:href="#DejaVuSans-69" transform="translate(228.759766 0)"/>
      <use xlink:href="#DejaVuSans-6e" transform="translate(256.542969 0)"/>
      <use xlink:href="#DejaVuSans-67" transform="translate(319.921875 0)"/>
      <use xlink:href="#DejaVuSans-20" transform="translate(383.398438 0)"/>
      <use xlink:href="#DejaVuSans-61" transform="translate(415.185547 0)"/>
      <use xlink:href="#DejaVuSans-63" transform="translate(476.464844 0)"/>
      <use xlink:href="#DejaVuSans-63" transform="translate(531.445312 0)"/>
      <use xlink:href="#DejaVuSans-65" transform="translate(586.425781 0)"/>
      <use xlink:href="#DejaVuSans-73" transform="translate(647.949219 0)"/>
      <use xlink:href="#DejaVuSans-73" transform="translate(700.048828 0)"/>
     </g>
    </g>
   </g>
  </g>
  <g id="axes_2">
   <g id="patch_6">
    <path d="M 11.0175 384.399167 
L 522.4225 384.399167 
L 522.4225 211.219583 
L 11.0175 211.219583 
L 11.0175 384.399167 
z
" style="fill: none"/>
   </g>
   <g id="matplotlib.axis_3">
    <g id="xtick_5">
     <g id="line2d_11">
      <path d="M 11.0175 384.399167 
L 11.0175 211.219583 
" clip-path="url(#pd19bdead02)" style="fill: none; stroke: #b0b0b0; stroke-width: 0.8; stroke-linecap: square"/>
     </g>
     <g id="line2d_12">
      <g>
       <use xlink:href="#mbcb02aef95" x="11.0175" y="384.399167" style="stroke: #000000; stroke-width: 0.8"/>
      </g>
     </g>
    </g>
    <g id="xtick_6">
     <g id="line2d_13">
      <path d="M 157.133214 384.399167 
L 157.133214 211.219583 
" clip-path="url(#pd19bdead02)" style="fill: none; stroke: #b0b0b0; stroke-width: 0.8; stroke-linecap: square"/>
     </g>
     <g id="line2d_14">
      <g>
       <use xlink:href="#mbcb02aef95" x="157.133214" y="384.399167" style="stroke: #000000; stroke-width: 0.8"/>
      </g>
     </g>
    </g>
    <g id="xtick_7">
     <g id="line2d_15">
      <path d="M 303.248929 384.399167 
L 303.248929 211.219583 
" clip-path="url(#pd19bdead02)" style="fill: none; stroke: #b0b0b0; stroke-width: 0.8; stroke-linecap: square"/>
     </g>
     <g id="line2d_16">
      <g>
       <use xlink:href="#mbcb02aef95" x="303.248929" y="384.399167" style="stroke: #000000; stroke-width: 0.8"/>
      </g>
     </g>
    </g>
    <g id="xtick_8">
     <g id="line2d_17">
      <path d="M 449.364643 384.399167 
L 449.364643 211.219583 
" clip-path="url(#pd19bdead02)" style="fill: none; stroke: #b0b0b0; stroke-width: 0.8; stroke-linecap: square"/>
     </g>
     <g id="line2d_18">
      <g>
       <use xlink:href="#mbcb02aef95" x="449.364643" y="384.399167" style="stroke: #000000; stroke-width: 0.8"/>
      </g>
     </g>
    </g>
   </g>
   <g id="matplotlib.axis_4"/>
   <g id="FillBetweenPolyCollection_3">
    <path d="M -11.738283 384.391054 
L -11.738283 384.399167 
L -8.933444 384.399167 
L -6.128606 384.399167 
L -3.323767 384.399167 
L -0.518928 384.399167 
L 2.28591 384.399167 
L 5.090749 384.399167 
L 7.895588 384.399167 
L 10.700426 384.399167 
L 13.505265 384.399167 
L 16.310104 384.399167 
L 19.114942 384.399167 
L 21.919781 384.399167 
L 24.72462 384.399167 
L 27.529458 384.399167 
L 30.334297 384.399167 
L 33.139136 384.399167 
L 35.943974 384.399167 
L 38.748813 384.399167 
L 41.553652 384.399167 
L 44.35849 384.399167 
L 47.163329 384.399167 
L 49.968167 384.399167 
L 52.773006 384.399167 
L 55.577845 384.399167 
L 58.382683 384.399167 
L 61.187522 384.399167 
L 63.992361 384.399167 
L 66.797199 384.399167 
L 69.602038 384.399167 
L 72.406877 384.399167 
L 75.211715 384.399167 
L 78.016554 384.399167 
L 80.821393 384.399167 
L 83.626231 384.399167 
L 86.43107 384.399167 
L 89.235909 384.399167 
L 92.040747 384.399167 
L 94.845586 384.399167 
L 97.650425 384.399167 
L 100.455263 384.399167 
L 103.260102 384.399167 
L 106.06494 384.399167 
L 108.869779 384.399167 
L 111.674618 384.399167 
L 114.479456 384.399167 
L 117.284295 384.399167 
L 120.089134 384.399167 
L 122.893972 384.399167 
L 125.698811 384.399167 
L 128.50365 384.399167 
L 131.308488 384.399167 
L 134.113327 384.399167 
L 136.918166 384.399167 
L 139.723004 384.399167 
L 142.527843 384.399167 
L 145.332682 384.399167 
L 148.13752 384.399167 
L 150.942359 384.399167 
L 153.747198 384.399167 
L 156.552036 384.399167 
L 159.356875 384.399167 
L 162.161714 384.399167 
L 164.966552 384.399167 
L 167.771391 384.399167 
L 170.576229 384.399167 
L 173.381068 384.399167 
L 176.185907 384.399167 
L 178.990745 384.399167 
L 181.795584 384.399167 
L 184.600423 384.399167 
L 187.405261 384.399167 
L 190.2101 384.399167 
L 193.014939 384.399167 
L 195.819777 384.399167 
L 198.624616 384.399167 
L 201.429455 384.399167 
L 204.234293 384.399167 
L 207.039132 384.399167 
L 209.843971 384.399167 
L 212.648809 384.399167 
L 215.453648 384.399167 
L 218.258487 384.399167 
L 221.063325 384.399167 
L 223.868164 384.399167 
L 226.673003 384.399167 
L 229.477841 384.399167 
L 232.28268 384.399167 
L 235.087518 384.399167 
L 237.892357 384.399167 
L 240.697196 384.399167 
L 243.502034 384.399167 
L 246.306873 384.399167 
L 249.111712 384.399167 
L 251.91655 384.399167 
L 254.721389 384.399167 
L 257.526228 384.399167 
L 260.331066 384.399167 
L 263.135905 384.399167 
L 265.940744 384.399167 
L 268.745582 384.399167 
L 271.550421 384.399167 
L 274.35526 384.399167 
L 277.160098 384.399167 
L 279.964937 384.399167 
L 282.769776 384.399167 
L 285.574614 384.399167 
L 288.379453 384.399167 
L 291.184292 384.399167 
L 293.98913 384.399167 
L 296.793969 384.399167 
L 299.598807 384.399167 
L 302.403646 384.399167 
L 305.208485 384.399167 
L 308.013323 384.399167 
L 310.818162 384.399167 
L 313.623001 384.399167 
L 316.427839 384.399167 
L 319.232678 384.399167 
L 322.037517 384.399167 
L 324.842355 384.399167 
L 327.647194 384.399167 
L 330.452033 384.399167 
L 333.256871 384.399167 
L 336.06171 384.399167 
L 338.866549 384.399167 
L 341.671387 384.399167 
L 344.476226 384.399167 
L 347.281065 384.399167 
L 350.085903 384.399167 
L 352.890742 384.399167 
L 355.695581 384.399167 
L 358.500419 384.399167 
L 361.305258 384.399167 
L 364.110096 384.399167 
L 366.914935 384.399167 
L 369.719774 384.399167 
L 372.524612 384.399167 
L 375.329451 384.399167 
L 378.13429 384.399167 
L 380.939128 384.399167 
L 383.743967 384.399167 
L 386.548806 384.399167 
L 389.353644 384.399167 
L 392.158483 384.399167 
L 394.963322 384.399167 
L 397.76816 384.399167 
L 400.572999 384.399167 
L 403.377838 384.399167 
L 406.182676 384.399167 
L 408.987515 384.399167 
L 411.792354 384.399167 
L 414.597192 384.399167 
L 417.402031 384.399167 
L 420.20687 384.399167 
L 423.011708 384.399167 
L 425.816547 384.399167 
L 428.621385 384.399167 
L 431.426224 384.399167 
L 434.231063 384.399167 
L 437.035901 384.399167 
L 439.84074 384.399167 
L 442.645579 384.399167 
L 445.450417 384.399167 
L 448.255256 384.399167 
L 451.060095 384.399167 
L 453.864933 384.399167 
L 456.669772 384.399167 
L 459.474611 384.399167 
L 462.279449 384.399167 
L 465.084288 384.399167 
L 467.889127 384.399167 
L 470.693965 384.399167 
L 473.498804 384.399167 
L 476.303643 384.399167 
L 479.108481 384.399167 
L 481.91332 384.399167 
L 484.718159 384.399167 
L 487.522997 384.399167 
L 490.327836 384.399167 
L 493.132674 384.399167 
L 495.937513 384.399167 
L 498.742352 384.399167 
L 501.54719 384.399167 
L 504.352029 384.399167 
L 507.156868 384.399167 
L 509.961706 384.399167 
L 512.766545 384.399167 
L 515.571384 384.399167 
L 518.376222 384.399167 
L 521.181061 384.399167 
L 523.9859 384.399167 
L 526.790738 384.399167 
L 529.595577 384.399167 
L 532.400416 384.399167 
L 535.205254 384.399167 
L 538.010093 384.399167 
L 540.814932 384.399167 
L 543.61977 384.399167 
L 546.424609 384.399167 
L 546.424609 384.387397 
L 546.424609 384.387397 
L 543.61977 384.363066 
L 540.814932 384.301066 
L 538.010093 384.162387 
L 535.205254 383.889874 
L 532.400416 383.418616 
L 529.595577 382.698238 
L 526.790738 381.714404 
L 523.9859 380.486531 
L 521.181061 379.030441 
L 518.376222 377.311265 
L 515.571384 375.241233 
L 512.766545 372.752941 
L 509.961706 369.903744 
L 507.156868 366.91472 
L 504.352029 364.089943 
L 501.54719 361.669249 
L 498.742352 359.728238 
L 495.937513 358.190911 
L 493.132674 356.924413 
L 490.327836 355.838842 
L 487.522997 354.934279 
L 484.718159 354.273909 
L 481.91332 353.898007 
L 479.108481 353.740032 
L 476.303643 353.627566 
L 473.498804 353.385813 
L 470.693965 352.94737 
L 467.889127 352.34829 
L 465.084288 351.612756 
L 462.279449 350.661142 
L 459.474611 349.352511 
L 456.669772 347.616714 
L 453.864933 345.529685 
L 451.060095 343.252976 
L 448.255256 340.909383 
L 445.450417 338.532649 
L 442.645579 336.149374 
L 439.84074 333.910786 
L 437.035901 332.120547 
L 434.231063 331.072655 
L 431.426224 330.785755 
L 428.621385 330.857625 
L 425.816547 330.614192 
L 423.011708 329.490381 
L 420.20687 327.3594 
L 417.402031 324.546251 
L 414.597192 321.518993 
L 411.792354 318.511578 
L 408.987515 315.367538 
L 406.182676 311.698501 
L 403.377838 307.207542 
L 400.572999 301.917845 
L 397.76816 296.131771 
L 394.963322 290.15564 
L 392.158483 284.014002 
L 389.353644 277.403867 
L 386.548806 269.974541 
L 383.743967 261.772245 
L 380.939128 253.535847 
L 378.13429 246.596171 
L 375.329451 242.390823 
L 372.524612 241.864945 
L 369.719774 245.079131 
L 366.914935 251.181024 
L 364.110096 258.695595 
L 361.305258 265.989123 
L 358.500419 271.748753 
L 355.695581 275.335953 
L 352.890742 276.912887 
L 350.085903 277.309109 
L 347.281065 277.673004 
L 344.476226 279.029293 
L 341.671387 281.926234 
L 338.866549 286.335667 
L 336.06171 291.818316 
L 333.256871 297.791898 
L 330.452033 303.723243 
L 327.647194 309.214939 
L 324.842355 314.068092 
L 322.037517 318.346132 
L 319.232678 322.358132 
L 316.427839 326.495985 
L 313.623001 330.988845 
L 310.818162 335.734292 
L 308.013323 340.331405 
L 305.208485 344.304229 
L 302.403646 347.371929 
L 299.598807 349.594913 
L 296.793969 351.319366 
L 293.98913 352.974545 
L 291.184292 354.851046 
L 288.379453 356.976879 
L 285.574614 359.14425 
L 282.769776 361.061991 
L 279.964937 362.544064 
L 277.160098 363.624474 
L 274.35526 364.534242 
L 271.550421 365.566723 
L 268.745582 366.92974 
L 265.940744 368.676135 
L 263.135905 370.724699 
L 260.331066 372.911794 
L 257.526228 375.021784 
L 254.721389 376.807453 
L 251.91655 378.040836 
L 249.111712 378.594128 
L 246.306873 378.49827 
L 243.502034 377.932438 
L 240.697196 377.152108 
L 237.892357 376.403646 
L 235.087518 375.865825 
L 232.28268 375.628011 
L 229.477841 375.697304 
L 226.673003 376.026156 
L 223.868164 376.549973 
L 221.063325 377.216541 
L 218.258487 377.989787 
L 215.453648 378.827001 
L 212.648809 379.649754 
L 209.843971 380.336125 
L 207.039132 380.750085 
L 204.234293 380.801551 
L 201.429455 380.50893 
L 198.624616 380.023908 
L 195.819777 379.588246 
L 193.014939 379.431512 
L 190.2101 379.665925 
L 187.405261 380.246021 
L 184.600423 381.016569 
L 181.795584 381.80726 
L 178.990745 382.505969 
L 176.185907 383.073463 
L 173.381068 383.514681 
L 170.576229 383.845787 
L 167.771391 384.080677 
L 164.966552 384.233405 
L 162.161714 384.322139 
L 159.356875 384.367467 
L 156.552036 384.38759 
L 153.747198 384.395043 
L 150.942359 384.396301 
L 148.13752 384.392706 
L 145.332682 384.380935 
L 142.527843 384.352777 
L 139.723004 384.295958 
L 136.918166 384.198856 
L 134.113327 384.060077 
L 131.308488 383.898505 
L 128.50365 383.754416 
L 125.698811 383.674971 
L 122.893972 383.68969 
L 120.089134 383.792937 
L 117.284295 383.947359 
L 114.479456 384.105477 
L 111.674618 384.232657 
L 108.869779 384.316827 
L 106.06494 384.363653 
L 103.260102 384.385807 
L 100.455263 384.394783 
L 97.650425 384.397912 
L 94.845586 384.398853 
L 92.040747 384.399094 
L 89.235909 384.399126 
L 86.43107 384.399028 
L 83.626231 384.398576 
L 80.821393 384.39694 
L 78.016554 384.391845 
L 75.211715 384.378171 
L 72.406877 384.34665 
L 69.602038 384.284595 
L 66.797199 384.181157 
L 63.992361 384.037349 
L 61.187522 383.875418 
L 58.382683 383.737905 
L 55.577845 383.670983 
L 52.773006 383.699766 
L 49.968167 383.813258 
L 47.163329 383.971055 
L 44.35849 384.126294 
L 41.553652 384.247296 
L 38.748813 384.324731 
L 35.943974 384.364778 
L 33.139136 384.377312 
L 30.334297 384.366953 
L 27.529458 384.329819 
L 24.72462 384.256224 
L 21.919781 384.139156 
L 19.114942 383.986083 
L 16.310104 383.826671 
L 13.505265 383.707126 
L 10.700426 383.669524 
L 7.895588 383.728192 
L 5.090749 383.860997 
L 2.28591 384.02268 
L -0.518928 384.169447 
L -3.323767 384.276913 
L -6.128606 384.342419 
L -8.933444 384.376192 
L -11.738283 384.391054 
z
" clip-path="url(#pd19bdead02)" style="fill: #0071b2; fill-opacity: 0.75; stroke: #0071b2; stroke-width: 1.5"/>
   </g>
   <g id="FillBetweenPolyCollection_4">
    <defs>
     <path id="m9646c0e938" d="M -12.844033 -247.436544 
L -12.844033 -247.413333 
L -10.316582 -247.413333 
L -7.789131 -247.413333 
L -5.26168 -247.413333 
L -2.734229 -247.413333 
L -0.206778 -247.413333 
L 2.320672 -247.413333 
L 4.848123 -247.413333 
L 7.375574 -247.413333 
L 9.903025 -247.413333 
L 12.430476 -247.413333 
L 14.957927 -247.413333 
L 17.485378 -247.413333 
L 20.012828 -247.413333 
L 22.540279 -247.413333 
L 25.06773 -247.413333 
L 27.595181 -247.413333 
L 30.122632 -247.413333 
L 32.650083 -247.413333 
L 35.177534 -247.413333 
L 37.704984 -247.413333 
L 40.232435 -247.413333 
L 42.759886 -247.413333 
L 45.287337 -247.413333 
L 47.814788 -247.413333 
L 50.342239 -247.413333 
L 52.86969 -247.413333 
L 55.39714 -247.413333 
L 57.924591 -247.413333 
L 60.452042 -247.413333 
L 62.979493 -247.413333 
L 65.506944 -247.413333 
L 68.034395 -247.413333 
L 70.561846 -247.413333 
L 73.089296 -247.413333 
L 75.616747 -247.413333 
L 78.144198 -247.413333 
L 80.671649 -247.413333 
L 83.1991 -247.413333 
L 85.726551 -247.413333 
L 88.254002 -247.413333 
L 90.781452 -247.413333 
L 93.308903 -247.413333 
L 95.836354 -247.413333 
L 98.363805 -247.413333 
L 100.891256 -247.413333 
L 103.418707 -247.413333 
L 105.946158 -247.413333 
L 108.473608 -247.413333 
L 111.001059 -247.413333 
L 113.52851 -247.413333 
L 116.055961 -247.413333 
L 118.583412 -247.413333 
L 121.110863 -247.413333 
L 123.638314 -247.413333 
L 126.165764 -247.413333 
L 128.693215 -247.413333 
L 131.220666 -247.413333 
L 133.748117 -247.413333 
L 136.275568 -247.413333 
L 138.803019 -247.413333 
L 141.33047 -247.413333 
L 143.85792 -247.413333 
L 146.385371 -247.413333 
L 148.912822 -247.413333 
L 151.440273 -247.413333 
L 153.967724 -247.413333 
L 156.495175 -247.413333 
L 159.022626 -247.413333 
L 161.550076 -247.413333 
L 164.077527 -247.413333 
L 166.604978 -247.413333 
L 169.132429 -247.413333 
L 171.65988 -247.413333 
L 174.187331 -247.413333 
L 176.714782 -247.413333 
L 179.242232 -247.413333 
L 181.769683 -247.413333 
L 184.297134 -247.413333 
L 186.824585 -247.413333 
L 189.352036 -247.413333 
L 191.879487 -247.413333 
L 194.406938 -247.413333 
L 196.934389 -247.413333 
L 199.461839 -247.413333 
L 201.98929 -247.413333 
L 204.516741 -247.413333 
L 207.044192 -247.413333 
L 209.571643 -247.413333 
L 212.099094 -247.413333 
L 214.626545 -247.413333 
L 217.153995 -247.413333 
L 219.681446 -247.413333 
L 222.208897 -247.413333 
L 224.736348 -247.413333 
L 227.263799 -247.413333 
L 229.79125 -247.413333 
L 232.318701 -247.413333 
L 234.846151 -247.413333 
L 237.373602 -247.413333 
L 239.901053 -247.413333 
L 242.428504 -247.413333 
L 244.955955 -247.413333 
L 247.483406 -247.413333 
L 250.010857 -247.413333 
L 252.538307 -247.413333 
L 255.065758 -247.413333 
L 257.593209 -247.413333 
L 260.12066 -247.413333 
L 262.648111 -247.413333 
L 265.175562 -247.413333 
L 267.703013 -247.413333 
L 270.230463 -247.413333 
L 272.757914 -247.413333 
L 275.285365 -247.413333 
L 277.812816 -247.413333 
L 280.340267 -247.413333 
L 282.867718 -247.413333 
L 285.395169 -247.413333 
L 287.922619 -247.413333 
L 290.45007 -247.413333 
L 292.977521 -247.413333 
L 295.504972 -247.413333 
L 298.032423 -247.413333 
L 300.559874 -247.413333 
L 303.087325 -247.413333 
L 305.614775 -247.413333 
L 308.142226 -247.413333 
L 310.669677 -247.413333 
L 313.197128 -247.413333 
L 315.724579 -247.413333 
L 318.25203 -247.413333 
L 320.779481 -247.413333 
L 323.306931 -247.413333 
L 325.834382 -247.413333 
L 328.361833 -247.413333 
L 330.889284 -247.413333 
L 333.416735 -247.413333 
L 335.944186 -247.413333 
L 338.471637 -247.413333 
L 340.999087 -247.413333 
L 343.526538 -247.413333 
L 346.053989 -247.413333 
L 348.58144 -247.413333 
L 351.108891 -247.413333 
L 353.636342 -247.413333 
L 356.163793 -247.413333 
L 358.691243 -247.413333 
L 361.218694 -247.413333 
L 363.746145 -247.413333 
L 366.273596 -247.413333 
L 368.801047 -247.413333 
L 371.328498 -247.413333 
L 373.855949 -247.413333 
L 376.383399 -247.413333 
L 378.91085 -247.413333 
L 381.438301 -247.413333 
L 383.965752 -247.413333 
L 386.493203 -247.413333 
L 389.020654 -247.413333 
L 391.548105 -247.413333 
L 394.075556 -247.413333 
L 396.603006 -247.413333 
L 399.130457 -247.413333 
L 401.657908 -247.413333 
L 404.185359 -247.413333 
L 406.71281 -247.413333 
L 409.240261 -247.413333 
L 411.767712 -247.413333 
L 414.295162 -247.413333 
L 416.822613 -247.413333 
L 419.350064 -247.413333 
L 421.877515 -247.413333 
L 424.404966 -247.413333 
L 426.932417 -247.413333 
L 429.459868 -247.413333 
L 431.987318 -247.413333 
L 434.514769 -247.413333 
L 437.04222 -247.413333 
L 439.569671 -247.413333 
L 442.097122 -247.413333 
L 444.624573 -247.413333 
L 447.152024 -247.413333 
L 449.679474 -247.413333 
L 452.206925 -247.413333 
L 454.734376 -247.413333 
L 457.261827 -247.413333 
L 459.789278 -247.413333 
L 462.316729 -247.413333 
L 464.84418 -247.413333 
L 467.37163 -247.413333 
L 469.899081 -247.413333 
L 472.426532 -247.413333 
L 474.953983 -247.413333 
L 477.481434 -247.413333 
L 480.008885 -247.413333 
L 482.536336 -247.413333 
L 485.063786 -247.413333 
L 487.591237 -247.413333 
L 490.118688 -247.413333 
L 490.118688 -247.461715 
L 490.118688 -247.461715 
L 487.591237 -247.539667 
L 485.063786 -247.713231 
L 482.536336 -248.061302 
L 480.008885 -248.689544 
L 477.481434 -249.709113 
L 474.953983 -251.194854 
L 472.426532 -253.134786 
L 469.899081 -255.396068 
L 467.37163 -257.732702 
L 464.84418 -259.841318 
L 462.316729 -261.444202 
L 459.789278 -262.363581 
L 457.261827 -262.559199 
L 454.734376 -262.12316 
L 452.206925 -261.243367 
L 449.679474 -260.151047 
L 447.152024 -259.065435 
L 444.624573 -258.14844 
L 442.097122 -257.483152 
L 439.569671 -257.085047 
L 437.04222 -256.941264 
L 434.514769 -257.058419 
L 431.987318 -257.493503 
L 429.459868 -258.350431 
L 426.932417 -259.742052 
L 424.404966 -261.733461 
L 421.877515 -264.288841 
L 419.350064 -267.240537 
L 416.822613 -270.291651 
L 414.295162 -273.056838 
L 411.767712 -275.138451 
L 409.240261 -276.223039 
L 406.71281 -276.168829 
L 404.185359 -275.049102 
L 401.657908 -273.129179 
L 399.130457 -270.783861 
L 396.603006 -268.39144 
L 394.075556 -266.250233 
L 391.548105 -264.546085 
L 389.020654 -263.36597 
L 386.493203 -262.727348 
L 383.965752 -262.594118 
L 381.438301 -262.875301 
L 378.91085 -263.428957 
L 376.383399 -264.096352 
L 373.855949 -264.766531 
L 371.328498 -265.441831 
L 368.801047 -266.267967 
L 366.273596 -267.513787 
L 363.746145 -269.514774 
L 361.218694 -272.605978 
L 358.691243 -277.060257 
L 356.163793 -283.03402 
L 353.636342 -290.522953 
L 351.108891 -299.342782 
L 348.58144 -309.154735 
L 346.053989 -319.53503 
L 343.526538 -330.052524 
L 340.999087 -340.30386 
L 338.471637 -349.887572 
L 335.944186 -358.359593 
L 333.416735 -365.245938 
L 330.889284 -370.152035 
L 328.361833 -372.923044 
L 325.834382 -373.748703 
L 323.306931 -373.130283 
L 320.779481 -371.723385 
L 318.25203 -370.159221 
L 315.724579 -368.952935 
L 313.197128 -368.525831 
L 310.669677 -369.267611 
L 308.142226 -371.527617 
L 305.614775 -375.482204 
L 303.087325 -380.936993 
L 300.559874 -387.201602 
L 298.032423 -393.15427 
L 295.504972 -397.504309 
L 292.977521 -399.143288 
L 290.45007 -397.435572 
L 287.922619 -392.350228 
L 285.395169 -384.424001 
L 282.867718 -374.604994 
L 280.340267 -364.039896 
L 277.812816 -353.856499 
L 275.285365 -344.982717 
L 272.757914 -338.03411 
L 270.230463 -333.281523 
L 267.703013 -330.67846 
L 265.175562 -329.906328 
L 262.648111 -330.408557 
L 260.12066 -331.42682 
L 257.593209 -332.085119 
L 255.065758 -331.55116 
L 252.538307 -329.242857 
L 250.010857 -324.991558 
L 247.483406 -319.075575 
L 244.955955 -312.102109 
L 242.428504 -304.794544 
L 239.901053 -297.779846 
L 237.373602 -291.452197 
L 234.846151 -285.940675 
L 232.318701 -281.165902 
L 229.79125 -276.947038 
L 227.263799 -273.112682 
L 224.736348 -269.573862 
L 222.208897 -266.336966 
L 219.681446 -263.465288 
L 217.153995 -261.022715 
L 214.626545 -259.03446 
L 212.099094 -257.478273 
L 209.571643 -256.295266 
L 207.044192 -255.402638 
L 204.516741 -254.702238 
L 201.98929 -254.092488 
L 199.461839 -253.490912 
L 196.934389 -252.861127 
L 194.406938 -252.226835 
L 191.879487 -251.658844 
L 189.352036 -251.237567 
L 186.824585 -251.009737 
L 184.297134 -250.962304 
L 181.769683 -251.027476 
L 179.242232 -251.117126 
L 176.714782 -251.170728 
L 174.187331 -251.194282 
L 171.65988 -251.270969 
L 169.132429 -251.536698 
L 166.604978 -252.129851 
L 164.077527 -253.136474 
L 161.550076 -254.553264 
L 159.022626 -256.280946 
L 156.495175 -258.146321 
L 153.967724 -259.940656 
L 151.440273 -261.460213 
L 148.912822 -262.539896 
L 146.385371 -263.077564 
L 143.85792 -263.048798 
L 141.33047 -262.509507 
L 138.803019 -261.581845 
L 136.275568 -260.422602 
L 133.748117 -259.181953 
L 131.220666 -257.967849 
L 128.693215 -256.830922 
L 126.165764 -255.775271 
L 123.638314 -254.786345 
L 121.110863 -253.857725 
L 118.583412 -253.001768 
L 116.055961 -252.243138 
L 113.52851 -251.606273 
L 111.001059 -251.106748 
L 108.473608 -250.746571 
L 105.946158 -250.509207 
L 103.418707 -250.357075 
L 100.891256 -250.240916 
L 98.363805 -250.123732 
L 95.836354 -250.005363 
L 93.308903 -249.925486 
L 90.781452 -249.935043 
L 88.254002 -250.05124 
L 85.726551 -250.227832 
L 83.1991 -250.365248 
L 80.671649 -250.358341 
L 78.144198 -250.153308 
L 75.616747 -249.779172 
L 73.089296 -249.336839 
L 70.561846 -248.95518 
L 68.034395 -248.73922 
L 65.506944 -248.733075 
L 62.979493 -248.907748 
L 60.452042 -249.173555 
L 57.924591 -249.411975 
L 55.39714 -249.517531 
L 52.86969 -249.434886 
L 50.342239 -249.174981 
L 47.814788 -248.80279 
L 45.287337 -248.404549 
L 42.759886 -248.053135 
L 40.232435 -247.788346 
L 37.704984 -247.617169 
L 35.177534 -247.527584 
L 32.650083 -247.505338 
L 30.122632 -247.545732 
L 27.595181 -247.656922 
L 25.06773 -247.854037 
L 22.540279 -248.145426 
L 20.012828 -248.515681 
L 17.485378 -248.91448 
L 14.957927 -249.26137 
L 12.430476 -249.469942 
L 9.903025 -249.48224 
L 7.375574 -249.294719 
L 4.848123 -248.959877 
L 2.320672 -248.562529 
L -0.206778 -248.185255 
L -2.734229 -247.882038 
L -5.26168 -247.670594 
L -7.789131 -247.540976 
L -10.316582 -247.470582 
L -12.844033 -247.436544 
z
" style="stroke: #d55e00; stroke-width: 1.5"/>
    </defs>
    <g clip-path="url(#pd19bdead02)">
     <use xlink:href="#m9646c0e938" x="0" y="631.8125" style="fill: #d55e00; fill-opacity: 0.75; stroke: #d55e00; stroke-width: 1.5"/>
    </g>
   </g>
   <g id="line2d_19">
    <path d="M 11.0175 384.399167 
L 522.4225 384.399167 
" clip-path="url(#pd19bdead02)" style="fill: none; stroke: #0071b2; stroke-width: 2; stroke-linecap: square"/>
   </g>
   <g id="line2d_20">
    <path d="M 11.0175 384.399167 
L 522.4225 384.399167 
" clip-path="url(#pd19bdead02)" style="fill: none; stroke: #d55e00; stroke-width: 2; stroke-linecap: square"/>
   </g>
   <g id="text_4">
    <!-- Helsinki -->
    <g style="fill: #2d2d2d" transform="translate(16.13155 241.611521) scale(0.16 -0.16)">
     <defs>
      <path id="DejaVuSans-48" d="M 628 4666 
L 1259 4666 
L 1259 2753 
L 3553 2753 
L 3553 4666 
L 4184 4666 
L 4184 0 
L 3553 0 
L 3553 2222 
L 1259 2222 
L 1259 0 
L 628 0 
L 628 4666 
z
" transform="scale(0.015625)"/>
     </defs>
     <use xlink:href="#DejaVuSans-48"/>
     <use xlink:href="#DejaVuSans-65" transform="translate(75.195312 0)"/>
     <use xlink:href="#DejaVuSans-6c" transform="translate(136.71875 0)"/>
     <use xlink:href="#DejaVuSans-73" transform="translate(164.501953 0)"/>
     <use xlink:href="#DejaVuSans-69" transform="translate(216.601562 0)"/>
     <use xlink:href="#DejaVuSans-6e" transform="translate(244.384766 0)"/>
     <use xlink:href="#DejaVuSans-6b" transform="translate(307.763672 0)"/>
     <use xlink:href="#DejaVuSans-69" transform="translate(365.673828 0)"/>
    </g>
   </g>
  </g>
  <g id="axes_3">
   <g id="patch_7">
    <path d="M 11.0175 588.41875 
L 522.4225 588.41875 
L 522.4225 415.239167 
L 11.0175 415.239167 
L 11.0175 588.41875 
z
" style="fill: none"/>
   </g>
   <g id="matplotlib.axis_5">
    <g id="xtick_9">
     <g id="line2d_21">
      <path d="M 11.0175 588.41875 
L 11.0175 415.239167 
" clip-path="url(#pa959fe4b98)" style="fill: none; stroke: #b0b0b0; stroke-width: 0.8; stroke-linecap: square"/>
     </g>
     <g id="line2d_22">
      <g>
       <use xlink:href="#mbcb02aef95" x="11.0175" y="588.41875" style="stroke: #000000; stroke-width: 0.8"/>
      </g>
     </g>
     <g id="text_5">
      <!-- 0 -->
      <g transform="translate(7.2 604.536875) scale(0.12 -0.12)">
       <defs>
        <path id="DejaVuSans-30" d="M 2034 4250 
Q 1547 4250 1301 3770 
Q 1056 3291 1056 2328 
Q 1056 1369 1301 889 
Q 1547 409 2034 409 
Q 2525 409 2770 889 
Q 3016 1369 3016 2328 
Q 3016 3291 2770 3770 
Q 2525 4250 2034 4250 
z
M 2034 4750 
Q 2819 4750 3233 4129 
Q 3647 3509 3647 2328 
Q 3647 1150 3233 529 
Q 2819 -91 2034 -91 
Q 1250 -91 836 529 
Q 422 1150 422 2328 
Q 422 3509 836 4129 
Q 1250 4750 2034 4750 
z
" transform="scale(0.015625)"/>
       </defs>
       <use xlink:href="#DejaVuSans-30"/>
      </g>
     </g>
    </g>
    <g id="xtick_10">
     <g id="line2d_23">
      <path d="M 157.133214 588.41875 
L 157.133214 415.239167 
" clip-path="url(#pa959fe4b98)" style="fill: none; stroke: #b0b0b0; stroke-width: 0.8; stroke-linecap: square"/>
     </g>
     <g id="line2d_24">
      <g>
       <use xlink:href="#mbcb02aef95" x="157.133214" y="588.41875" style="stroke: #000000; stroke-width: 0.8"/>
      </g>
     </g>
     <g id="text_6">
      <!-- 1 -->
      <g transform="translate(153.315714 604.536875) scale(0.12 -0.12)">
       <defs>
        <path id="DejaVuSans-31" d="M 794 531 
L 1825 531 
L 1825 4091 
L 703 3866 
L 703 4441 
L 1819 4666 
L 2450 4666 
L 2450 531 
L 3481 531 
L 3481 0 
L 794 0 
L 794 531 
z
" transform="scale(0.015625)"/>
       </defs>
       <use xlink:href="#DejaVuSans-31"/>
      </g>
     </g>
    </g>
    <g id="xtick_11">
     <g id="line2d_25">
      <path d="M 303.248929 588.41875 
L 303.248929 415.239167 
" clip-path="url(#pa959fe4b98)" style="fill: none; stroke: #b0b0b0; stroke-width: 0.8; stroke-linecap: square"/>
     </g>
     <g id="line2d_26">
      <g>
       <use xlink:href="#mbcb02aef95" x="303.248929" y="588.41875" style="stroke: #000000; stroke-width: 0.8"/>
      </g>
     </g>
     <g id="text_7">
      <!-- 2 -->
      <g transform="translate(299.431429 604.536875) scale(0.12 -0.12)">
       <defs>
        <path id="DejaVuSans-32" d="M 1228 531 
L 3431 531 
L 3431 0 
L 469 0 
L 469 531 
Q 828 903 1448 1529 
Q 2069 2156 2228 2338 
Q 2531 2678 2651 2914 
Q 2772 3150 2772 3378 
Q 2772 3750 2511 3984 
Q 2250 4219 1831 4219 
Q 1534 4219 1204 4116 
Q 875 4013 500 3803 
L 500 4441 
Q 881 4594 1212 4672 
Q 1544 4750 1819 4750 
Q 2544 4750 2975 4387 
Q 3406 4025 3406 3419 
Q 3406 3131 3298 2873 
Q 3191 2616 2906 2266 
Q 2828 2175 2409 1742 
Q 1991 1309 1228 531 
z
" transform="scale(0.015625)"/>
       </defs>
       <use xlink:href="#DejaVuSans-32"/>
      </g>
     </g>
    </g>
    <g id="xtick_12">
     <g id="line2d_27">
      <path d="M 449.364643 588.41875 
L 449.364643 415.239167 
" clip-path="url(#pa959fe4b98)" style="fill: none; stroke: #b0b0b0; stroke-width: 0.8; stroke-linecap: square"/>
     </g>
     <g id="line2d_28">
      <g>
       <use xlink:href="#mbcb02aef95" x="449.364643" y="588.41875" style="stroke: #000000; stroke-width: 0.8"/>
      </g>
     </g>
     <g id="text_8">
      <!-- 3 -->
      <g transform="translate(445.547143 604.536875) scale(0.12 -0.12)">
       <defs>
        <path id="DejaVuSans-33" d="M 2597 2516 
Q 3050 2419 3304 2112 
Q 3559 1806 3559 1356 
Q 3559 666 3084 287 
Q 2609 -91 1734 -91 
Q 1441 -91 1130 -33 
Q 819 25 488 141 
L 488 750 
Q 750 597 1062 519 
Q 1375 441 1716 441 
Q 2309 441 2620 675 
Q 2931 909 2931 1356 
Q 2931 1769 2642 2001 
Q 2353 2234 1838 2234 
L 1294 2234 
L 1294 2753 
L 1863 2753 
Q 2328 2753 2575 2939 
Q 2822 3125 2822 3475 
Q 2822 3834 2567 4026 
Q 2313 4219 1838 4219 
Q 1578 4219 1281 4162 
Q 984 4106 628 3988 
L 628 4550 
Q 988 4650 1302 4700 
Q 1616 4750 1894 4750 
Q 2613 4750 3031 4423 
Q 3450 4097 3450 3541 
Q 3450 3153 3228 2886 
Q 3006 2619 2597 2516 
z
" transform="scale(0.015625)"/>
       </defs>
       <use xlink:href="#DejaVuSans-33"/>
      </g>
     </g>
    </g>
    <g id="text_9">
     <!-- $log_{10}$ Access (number of amenities) -->
     <g transform="translate(142.61 621.6725) scale(0.14 -0.14)">
      <defs>
       <path id="DejaVuSans-Oblique-6c" d="M 1172 4863 
L 1747 4863 
L 800 0 
L 225 0 
L 1172 4863 
z
" transform="scale(0.015625)"/>
       <path id="DejaVuSans-Oblique-6f" d="M 1625 -91 
Q 1009 -91 651 289 
Q 294 669 294 1325 
Q 294 1706 417 2101 
Q 541 2497 738 2766 
Q 1047 3184 1428 3384 
Q 1809 3584 2291 3584 
Q 2888 3584 3255 3212 
Q 3622 2841 3622 2241 
Q 3622 1825 3500 1412 
Q 3378 1000 3181 728 
Q 2875 309 2494 109 
Q 2113 -91 1625 -91 
z
M 891 1344 
Q 891 869 1089 633 
Q 1288 397 1691 397 
Q 2269 397 2648 901 
Q 3028 1406 3028 2181 
Q 3028 2634 2825 2865 
Q 2622 3097 2228 3097 
Q 1903 3097 1650 2945 
Q 1397 2794 1197 2484 
Q 1050 2253 970 1956 
Q 891 1659 891 1344 
z
" transform="scale(0.015625)"/>
       <path id="DejaVuSans-Oblique-67" d="M 3816 3500 
L 3219 434 
Q 3047 -456 2561 -893 
Q 2075 -1331 1253 -1331 
Q 950 -1331 690 -1286 
Q 431 -1241 206 -1147 
L 313 -588 
Q 525 -725 762 -790 
Q 1000 -856 1269 -856 
Q 1816 -856 2167 -557 
Q 2519 -259 2631 300 
L 2681 563 
Q 2441 288 2122 144 
Q 1803 0 1434 0 
Q 903 0 598 351 
Q 294 703 294 1319 
Q 294 1803 478 2267 
Q 663 2731 997 3091 
Q 1219 3328 1514 3456 
Q 1809 3584 2131 3584 
Q 2484 3584 2746 3420 
Q 3009 3256 3138 2956 
L 3238 3500 
L 3816 3500 
z
M 2950 2216 
Q 2950 2641 2750 2872 
Q 2550 3103 2181 3103 
Q 1953 3103 1747 3012 
Q 1541 2922 1394 2759 
Q 1156 2491 1023 2127 
Q 891 1763 891 1375 
Q 891 944 1092 712 
Q 1294 481 1672 481 
Q 2219 481 2584 976 
Q 2950 1472 2950 2216 
z
" transform="scale(0.015625)"/>
       <path id="DejaVuSans-41" d="M 2188 4044 
L 1331 1722 
L 3047 1722 
L 2188 4044 
z
M 1831 4666 
L 2547 4666 
L 4325 0 
L 3669 0 
L 3244 1197 
L 1141 1197 
L 716 0 
L 50 0 
L 1831 4666 
z
" transform="scale(0.015625)"/>
       <path id="DejaVuSans-28" d="M 1984 4856 
Q 1566 4138 1362 3434 
Q 1159 2731 1159 2009 
Q 1159 1288 1364 580 
Q 1569 -128 1984 -844 
L 1484 -844 
Q 1016 -109 783 600 
Q 550 1309 550 2009 
Q 550 2706 781 3412 
Q 1013 4119 1484 4856 
L 1984 4856 
z
" transform="scale(0.015625)"/>
       <path id="DejaVuSans-62" d="M 3116 1747 
Q 3116 2381 2855 2742 
Q 2594 3103 2138 3103 
Q 1681 3103 1420 2742 
Q 1159 2381 1159 1747 
Q 1159 1113 1420 752 
Q 1681 391 2138 391 
Q 2594 391 2855 752 
Q 3116 1113 3116 1747 
z
M 1159 2969 
Q 1341 3281 1617 3432 
Q 1894 3584 2278 3584 
Q 2916 3584 3314 3078 
Q 3713 2572 3713 1747 
Q 3713 922 3314 415 
Q 2916 -91 2278 -91 
Q 1894 -91 1617 61 
Q 1341 213 1159 525 
L 1159 0 
L 581 0 
L 581 4863 
L 1159 4863 
L 1159 2969 
z
" transform="scale(0.015625)"/>
       <path id="DejaVuSans-72" d="M 2631 2963 
Q 2534 3019 2420 3045 
Q 2306 3072 2169 3072 
Q 1681 3072 1420 2755 
Q 1159 2438 1159 1844 
L 1159 0 
L 581 0 
L 581 3500 
L 1159 3500 
L 1159 2956 
Q 1341 3275 1631 3429 
Q 1922 3584 2338 3584 
Q 2397 3584 2469 3576 
Q 2541 3569 2628 3553 
L 2631 2963 
z
" transform="scale(0.015625)"/>
       <path id="DejaVuSans-66" d="M 2375 4863 
L 2375 4384 
L 1825 4384 
Q 1516 4384 1395 4259 
Q 1275 4134 1275 3809 
L 1275 3500 
L 2222 3500 
L 2222 3053 
L 1275 3053 
L 1275 0 
L 697 0 
L 697 3053 
L 147 3053 
L 147 3500 
L 697 3500 
L 697 3744 
Q 697 4328 969 4595 
Q 1241 4863 1831 4863 
L 2375 4863 
z
" transform="scale(0.015625)"/>
       <path id="DejaVuSans-29" d="M 513 4856 
L 1013 4856 
Q 1481 4119 1714 3412 
Q 1947 2706 1947 2009 
Q 1947 1309 1714 600 
Q 1481 -109 1013 -844 
L 513 -844 
Q 928 -128 1133 580 
Q 1338 1288 1338 2009 
Q 1338 2731 1133 3434 
Q 928 4138 513 4856 
z
" transform="scale(0.015625)"/>
      </defs>
      <use xlink:href="#DejaVuSans-Oblique-6c" transform="translate(0 0.015625)"/>
      <use xlink:href="#DejaVuSans-Oblique-6f" transform="translate(27.783203 0.015625)"/>
      <use xlink:href="#DejaVuSans-Oblique-67" transform="translate(88.964844 0.015625)"/>
      <use xlink:href="#DejaVuSans-31" transform="translate(152.441406 -16.390625) scale(0.7)"/>
      <use xlink:href="#DejaVuSans-30" transform="translate(196.977539 -16.390625) scale(0.7)"/>
      <use xlink:href="#DejaVuSans-20" transform="translate(244.248047 0.015625)"/>
      <use xlink:href="#DejaVuSans-41" transform="translate(276.035156 0.015625)"/>
      <use xlink:href="#DejaVuSans-63" transform="translate(344.443359 0.015625)"/>
      <use xlink:href="#DejaVuSans-63" transform="translate(399.423828 0.015625)"/>
      <use xlink:href="#DejaVuSans-65" transform="translate(454.404297 0.015625)"/>
      <use xlink:href="#DejaVuSans-73" transform="translate(515.927734 0.015625)"/>
      <use xlink:href="#DejaVuSans-73" transform="translate(568.027344 0.015625)"/>
      <use xlink:href="#DejaVuSans-20" transform="translate(620.126953 0.015625)"/>
      <use xlink:href="#DejaVuSans-28" transform="translate(651.914062 0.015625)"/>
      <use xlink:href="#DejaVuSans-6e" transform="translate(690.927734 0.015625)"/>
      <use xlink:href="#DejaVuSans-75" transform="translate(754.306641 0.015625)"/>
      <use xlink:href="#DejaVuSans-6d" transform="translate(817.685547 0.015625)"/>
      <use xlink:href="#DejaVuSans-62" transform="translate(915.097656 0.015625)"/>
      <use xlink:href="#DejaVuSans-65" transform="translate(978.574219 0.015625)"/>
      <use xlink:href="#DejaVuSans-72" transform="translate(1040.097656 0.015625)"/>
      <use xlink:href="#DejaVuSans-20" transform="translate(1081.210938 0.015625)"/>
      <use xlink:href="#DejaVuSans-6f" transform="translate(1112.998047 0.015625)"/>
      <use xlink:href="#DejaVuSans-66" transform="translate(1174.179688 0.015625)"/>
      <use xlink:href="#DejaVuSans-20" transform="translate(1209.384766 0.015625)"/>
      <use xlink:href="#DejaVuSans-61" transform="translate(1241.171875 0.015625)"/>
      <use xlink:href="#DejaVuSans-6d" transform="translate(1302.451172 0.015625)"/>
      <use xlink:href="#DejaVuSans-65" transform="translate(1399.863281 0.015625)"/>
      <use xlink:href="#DejaVuSans-6e" transform="translate(1461.386719 0.015625)"/>
      <use xlink:href="#DejaVuSans-69" transform="translate(1524.765625 0.015625)"/>
      <use xlink:href="#DejaVuSans-74" transform="translate(1552.548828 0.015625)"/>
      <use xlink:href="#DejaVuSans-69" transform="translate(1591.757812 0.015625)"/>
      <use xlink:href="#DejaVuSans-65" transform="translate(1619.541016 0.015625)"/>
      <use xlink:href="#DejaVuSans-73" transform="translate(1681.064453 0.015625)"/>
      <use xlink:href="#DejaVuSans-29" transform="translate(1733.164062 0.015625)"/>
     </g>
    </g>
   </g>
   <g id="matplotlib.axis_6"/>
   <g id="FillBetweenPolyCollection_5">
    <path d="M -10.339054 588.413964 
L -10.339054 588.41875 
L -7.499504 588.41875 
L -4.659954 588.41875 
L -1.820404 588.41875 
L 1.019147 588.41875 
L 3.858697 588.41875 
L 6.698247 588.41875 
L 9.537797 588.41875 
L 12.377347 588.41875 
L 15.216897 588.41875 
L 18.056447 588.41875 
L 20.895997 588.41875 
L 23.735547 588.41875 
L 26.575098 588.41875 
L 29.414648 588.41875 
L 32.254198 588.41875 
L 35.093748 588.41875 
L 37.933298 588.41875 
L 40.772848 588.41875 
L 43.612398 588.41875 
L 46.451948 588.41875 
L 49.291498 588.41875 
L 52.131048 588.41875 
L 54.970599 588.41875 
L 57.810149 588.41875 
L 60.649699 588.41875 
L 63.489249 588.41875 
L 66.328799 588.41875 
L 69.168349 588.41875 
L 72.007899 588.41875 
L 74.847449 588.41875 
L 77.686999 588.41875 
L 80.526549 588.41875 
L 83.3661 588.41875 
L 86.20565 588.41875 
L 89.0452 588.41875 
L 91.88475 588.41875 
L 94.7243 588.41875 
L 97.56385 588.41875 
L 100.4034 588.41875 
L 103.24295 588.41875 
L 106.0825 588.41875 
L 108.922051 588.41875 
L 111.761601 588.41875 
L 114.601151 588.41875 
L 117.440701 588.41875 
L 120.280251 588.41875 
L 123.119801 588.41875 
L 125.959351 588.41875 
L 128.798901 588.41875 
L 131.638451 588.41875 
L 134.478001 588.41875 
L 137.317552 588.41875 
L 140.157102 588.41875 
L 142.996652 588.41875 
L 145.836202 588.41875 
L 148.675752 588.41875 
L 151.515302 588.41875 
L 154.354852 588.41875 
L 157.194402 588.41875 
L 160.033952 588.41875 
L 162.873502 588.41875 
L 165.713053 588.41875 
L 168.552603 588.41875 
L 171.392153 588.41875 
L 174.231703 588.41875 
L 177.071253 588.41875 
L 179.910803 588.41875 
L 182.750353 588.41875 
L 185.589903 588.41875 
L 188.429453 588.41875 
L 191.269003 588.41875 
L 194.108554 588.41875 
L 196.948104 588.41875 
L 199.787654 588.41875 
L 202.627204 588.41875 
L 205.466754 588.41875 
L 208.306304 588.41875 
L 211.145854 588.41875 
L 213.985404 588.41875 
L 216.824954 588.41875 
L 219.664505 588.41875 
L 222.504055 588.41875 
L 225.343605 588.41875 
L 228.183155 588.41875 
L 231.022705 588.41875 
L 233.862255 588.41875 
L 236.701805 588.41875 
L 239.541355 588.41875 
L 242.380905 588.41875 
L 245.220455 588.41875 
L 248.060006 588.41875 
L 250.899556 588.41875 
L 253.739106 588.41875 
L 256.578656 588.41875 
L 259.418206 588.41875 
L 262.257756 588.41875 
L 265.097306 588.41875 
L 267.936856 588.41875 
L 270.776406 588.41875 
L 273.615956 588.41875 
L 276.455507 588.41875 
L 279.295057 588.41875 
L 282.134607 588.41875 
L 284.974157 588.41875 
L 287.813707 588.41875 
L 290.653257 588.41875 
L 293.492807 588.41875 
L 296.332357 588.41875 
L 299.171907 588.41875 
L 302.011457 588.41875 
L 304.851008 588.41875 
L 307.690558 588.41875 
L 310.530108 588.41875 
L 313.369658 588.41875 
L 316.209208 588.41875 
L 319.048758 588.41875 
L 321.888308 588.41875 
L 324.727858 588.41875 
L 327.567408 588.41875 
L 330.406959 588.41875 
L 333.246509 588.41875 
L 336.086059 588.41875 
L 338.925609 588.41875 
L 341.765159 588.41875 
L 344.604709 588.41875 
L 347.444259 588.41875 
L 350.283809 588.41875 
L 353.123359 588.41875 
L 355.962909 588.41875 
L 358.80246 588.41875 
L 361.64201 588.41875 
L 364.48156 588.41875 
L 367.32111 588.41875 
L 370.16066 588.41875 
L 373.00021 588.41875 
L 375.83976 588.41875 
L 378.67931 588.41875 
L 381.51886 588.41875 
L 384.35841 588.41875 
L 387.197961 588.41875 
L 390.037511 588.41875 
L 392.877061 588.41875 
L 395.716611 588.41875 
L 398.556161 588.41875 
L 401.395711 588.41875 
L 404.235261 588.41875 
L 407.074811 588.41875 
L 409.914361 588.41875 
L 412.753912 588.41875 
L 415.593462 588.41875 
L 418.433012 588.41875 
L 421.272562 588.41875 
L 424.112112 588.41875 
L 426.951662 588.41875 
L 429.791212 588.41875 
L 432.630762 588.41875 
L 435.470312 588.41875 
L 438.309862 588.41875 
L 441.149413 588.41875 
L 443.988963 588.41875 
L 446.828513 588.41875 
L 449.668063 588.41875 
L 452.507613 588.41875 
L 455.347163 588.41875 
L 458.186713 588.41875 
L 461.026263 588.41875 
L 463.865813 588.41875 
L 466.705363 588.41875 
L 469.544914 588.41875 
L 472.384464 588.41875 
L 475.224014 588.41875 
L 478.063564 588.41875 
L 480.903114 588.41875 
L 483.742664 588.41875 
L 486.582214 588.41875 
L 489.421764 588.41875 
L 492.261314 588.41875 
L 495.100864 588.41875 
L 497.940415 588.41875 
L 500.779965 588.41875 
L 503.619515 588.41875 
L 506.459065 588.41875 
L 509.298615 588.41875 
L 512.138165 588.41875 
L 514.977715 588.41875 
L 517.817265 588.41875 
L 520.656815 588.41875 
L 523.496366 588.41875 
L 526.335916 588.41875 
L 529.175466 588.41875 
L 532.015016 588.41875 
L 534.854566 588.41875 
L 537.694116 588.41875 
L 540.533666 588.41875 
L 543.373216 588.41875 
L 546.212766 588.41875 
L 549.052316 588.41875 
L 551.891867 588.41875 
L 554.731417 588.41875 
L 554.731417 588.413558 
L 554.731417 588.413558 
L 551.891867 588.402208 
L 549.052316 588.37288 
L 546.212766 588.307081 
L 543.373216 588.177575 
L 540.533666 587.951312 
L 537.694116 587.596887 
L 534.854566 587.096681 
L 532.015016 586.461138 
L 529.175466 585.734893 
L 526.335916 584.979136 
L 523.496366 584.228009 
L 520.656815 583.445577 
L 517.817265 582.521091 
L 514.977715 581.314313 
L 512.138165 579.727634 
L 509.298615 577.771361 
L 506.459065 575.593066 
L 503.619515 573.442832 
L 500.779965 571.566254 
L 497.940415 570.073153 
L 495.100864 568.869231 
L 492.261314 567.699701 
L 489.421764 566.272057 
L 486.582214 564.385238 
L 483.742664 562.01136 
L 480.903114 559.304128 
L 478.063564 556.52158 
L 475.224014 553.87682 
L 472.384464 551.386836 
L 469.544914 548.833185 
L 466.705363 545.900164 
L 463.865813 542.412185 
L 461.026263 538.485329 
L 458.186713 534.471639 
L 455.347163 530.75436 
L 452.507613 527.558999 
L 449.668063 524.888258 
L 446.828513 522.559142 
L 443.988963 520.255665 
L 441.149413 517.563585 
L 438.309862 514.057303 
L 435.470312 509.515937 
L 432.630762 504.187699 
L 429.791212 498.864201 
L 426.951662 494.608244 
L 424.112112 492.262137 
L 421.272562 492.038917 
L 418.433012 493.402247 
L 415.593462 495.247113 
L 412.753912 496.303004 
L 409.914361 495.645976 
L 407.074811 493.118859 
L 404.235261 489.409206 
L 401.395711 485.674125 
L 398.556161 482.885852 
L 395.716611 481.294808 
L 392.877061 480.382912 
L 390.037511 479.358456 
L 387.197961 477.815754 
L 384.35841 476.038587 
L 381.51886 474.748785 
L 378.67931 474.56812 
L 375.83976 475.618582 
L 373.00021 477.486166 
L 370.16066 479.502941 
L 367.32111 481.150892 
L 364.48156 482.35884 
L 361.64201 483.534454 
L 358.80246 485.330555 
L 355.962909 488.299695 
L 353.123359 492.644251 
L 350.283809 498.19706 
L 347.444259 504.608792 
L 344.604709 511.564441 
L 341.765159 518.834457 
L 338.925609 526.134907 
L 336.086059 532.977675 
L 333.246509 538.717791 
L 330.406959 542.821028 
L 327.567408 545.172244 
L 324.727858 546.199711 
L 321.888308 546.704481 
L 319.048758 547.466448 
L 316.209208 548.859695 
L 313.369658 550.737945 
L 310.530108 552.670808 
L 307.690558 554.332043 
L 304.851008 555.72116 
L 302.011457 557.071376 
L 299.171907 558.59014 
L 296.332357 560.297374 
L 293.492807 562.079071 
L 290.653257 563.850841 
L 287.813707 565.651224 
L 284.974157 567.583465 
L 282.134607 569.670158 
L 279.295057 571.760385 
L 276.455507 573.585942 
L 273.615956 574.92918 
L 270.776406 575.753248 
L 267.936856 576.177561 
L 265.097306 576.33732 
L 262.257756 576.280431 
L 259.418206 576.004435 
L 256.578656 575.579832 
L 253.739106 575.213568 
L 250.899556 575.170741 
L 248.060006 575.618107 
L 245.220455 576.523508 
L 242.380905 577.680466 
L 239.541355 578.818529 
L 236.701805 579.72019 
L 233.862255 580.295596 
L 231.022705 580.599033 
L 228.183155 580.78471 
L 225.343605 581.021039 
L 222.504055 581.408027 
L 219.664505 581.935467 
L 216.824954 582.485837 
L 213.985404 582.870277 
L 211.145854 582.897838 
L 208.306304 582.475042 
L 205.466754 581.691866 
L 202.627204 580.818109 
L 199.787654 580.177946 
L 196.948104 579.977334 
L 194.108554 580.217015 
L 191.269003 580.749904 
L 188.429453 581.407433 
L 185.589903 582.07692 
L 182.750353 582.695478 
L 179.910803 583.216916 
L 177.071253 583.606536 
L 174.231703 583.859436 
L 171.392153 584.007507 
L 168.552603 584.102632 
L 165.713053 584.197334 
L 162.873502 584.343923 
L 160.033952 584.5987 
L 157.194402 584.999592 
L 154.354852 585.522633 
L 151.515302 586.070628 
L 148.675752 586.527542 
L 145.836202 586.8365 
L 142.996652 587.027602 
L 140.157102 587.176731 
L 137.317552 587.344455 
L 134.478001 587.546352 
L 131.638451 587.760375 
L 128.798901 587.948133 
L 125.959351 588.073921 
L 123.119801 588.119476 
L 120.280251 588.093939 
L 117.440701 588.033723 
L 114.601151 587.987799 
L 111.761601 587.993299 
L 108.922051 588.056804 
L 106.0825 588.155309 
L 103.24295 588.255058 
L 100.4034 588.331974 
L 97.56385 588.379512 
L 94.7243 588.403617 
L 91.88475 588.413772 
L 89.0452 588.417353 
L 86.20565 588.418416 
L 83.3661 588.418682 
L 80.526549 588.418738 
L 77.686999 588.418748 
L 74.847449 588.41875 
L 72.007899 588.41875 
L 69.168349 588.41875 
L 66.328799 588.41875 
L 63.489249 588.41875 
L 60.649699 588.41875 
L 57.810149 588.41875 
L 54.970599 588.41875 
L 52.131048 588.41875 
L 49.291498 588.41875 
L 46.451948 588.418748 
L 43.612398 588.418738 
L 40.772848 588.418681 
L 37.933298 588.418411 
L 35.093748 588.417336 
L 32.254198 588.413716 
L 29.414648 588.40347 
L 26.575098 588.379191 
L 23.735547 588.331398 
L 20.895997 588.254235 
L 18.056447 588.154485 
L 15.216897 588.056693 
L 12.377347 587.995676 
L 9.537797 587.997095 
L 6.698247 588.060322 
L 3.858697 588.158885 
L 1.019147 588.258057 
L -1.820404 588.333998 
L -4.659954 588.380626 
L -7.499504 588.404123 
L -10.339054 588.413964 
z
" clip-path="url(#pa959fe4b98)" style="fill: #0071b2; fill-opacity: 0.75; stroke: #0071b2; stroke-width: 1.5"/>
   </g>
   <g id="FillBetweenPolyCollection_6">
    <path d="M -11.436002 588.395987 
L -11.436002 588.41875 
L -8.718478 588.41875 
L -6.000954 588.41875 
L -3.28343 588.41875 
L -0.565905 588.41875 
L 2.151619 588.41875 
L 4.869143 588.41875 
L 7.586667 588.41875 
L 10.304191 588.41875 
L 13.021715 588.41875 
L 15.739239 588.41875 
L 18.456764 588.41875 
L 21.174288 588.41875 
L 23.891812 588.41875 
L 26.609336 588.41875 
L 29.32686 588.41875 
L 32.044384 588.41875 
L 34.761908 588.41875 
L 37.479432 588.41875 
L 40.196957 588.41875 
L 42.914481 588.41875 
L 45.632005 588.41875 
L 48.349529 588.41875 
L 51.067053 588.41875 
L 53.784577 588.41875 
L 56.502101 588.41875 
L 59.219626 588.41875 
L 61.93715 588.41875 
L 64.654674 588.41875 
L 67.372198 588.41875 
L 70.089722 588.41875 
L 72.807246 588.41875 
L 75.52477 588.41875 
L 78.242295 588.41875 
L 80.959819 588.41875 
L 83.677343 588.41875 
L 86.394867 588.41875 
L 89.112391 588.41875 
L 91.829915 588.41875 
L 94.547439 588.41875 
L 97.264963 588.41875 
L 99.982488 588.41875 
L 102.700012 588.41875 
L 105.417536 588.41875 
L 108.13506 588.41875 
L 110.852584 588.41875 
L 113.570108 588.41875 
L 116.287632 588.41875 
L 119.005157 588.41875 
L 121.722681 588.41875 
L 124.440205 588.41875 
L 127.157729 588.41875 
L 129.875253 588.41875 
L 132.592777 588.41875 
L 135.310301 588.41875 
L 138.027825 588.41875 
L 140.74535 588.41875 
L 143.462874 588.41875 
L 146.180398 588.41875 
L 148.897922 588.41875 
L 151.615446 588.41875 
L 154.33297 588.41875 
L 157.050494 588.41875 
L 159.768019 588.41875 
L 162.485543 588.41875 
L 165.203067 588.41875 
L 167.920591 588.41875 
L 170.638115 588.41875 
L 173.355639 588.41875 
L 176.073163 588.41875 
L 178.790687 588.41875 
L 181.508212 588.41875 
L 184.225736 588.41875 
L 186.94326 588.41875 
L 189.660784 588.41875 
L 192.378308 588.41875 
L 195.095832 588.41875 
L 197.813356 588.41875 
L 200.530881 588.41875 
L 203.248405 588.41875 
L 205.965929 588.41875 
L 208.683453 588.41875 
L 211.400977 588.41875 
L 214.118501 588.41875 
L 216.836025 588.41875 
L 219.55355 588.41875 
L 222.271074 588.41875 
L 224.988598 588.41875 
L 227.706122 588.41875 
L 230.423646 588.41875 
L 233.14117 588.41875 
L 235.858694 588.41875 
L 238.576218 588.41875 
L 241.293743 588.41875 
L 244.011267 588.41875 
L 246.728791 588.41875 
L 249.446315 588.41875 
L 252.163839 588.41875 
L 254.881363 588.41875 
L 257.598887 588.41875 
L 260.316412 588.41875 
L 263.033936 588.41875 
L 265.75146 588.41875 
L 268.468984 588.41875 
L 271.186508 588.41875 
L 273.904032 588.41875 
L 276.621556 588.41875 
L 279.33908 588.41875 
L 282.056605 588.41875 
L 284.774129 588.41875 
L 287.491653 588.41875 
L 290.209177 588.41875 
L 292.926701 588.41875 
L 295.644225 588.41875 
L 298.361749 588.41875 
L 301.079274 588.41875 
L 303.796798 588.41875 
L 306.514322 588.41875 
L 309.231846 588.41875 
L 311.94937 588.41875 
L 314.666894 588.41875 
L 317.384418 588.41875 
L 320.101942 588.41875 
L 322.819467 588.41875 
L 325.536991 588.41875 
L 328.254515 588.41875 
L 330.972039 588.41875 
L 333.689563 588.41875 
L 336.407087 588.41875 
L 339.124611 588.41875 
L 341.842136 588.41875 
L 344.55966 588.41875 
L 347.277184 588.41875 
L 349.994708 588.41875 
L 352.712232 588.41875 
L 355.429756 588.41875 
L 358.14728 588.41875 
L 360.864805 588.41875 
L 363.582329 588.41875 
L 366.299853 588.41875 
L 369.017377 588.41875 
L 371.734901 588.41875 
L 374.452425 588.41875 
L 377.169949 588.41875 
L 379.887473 588.41875 
L 382.604998 588.41875 
L 385.322522 588.41875 
L 388.040046 588.41875 
L 390.75757 588.41875 
L 393.475094 588.41875 
L 396.192618 588.41875 
L 398.910142 588.41875 
L 401.627667 588.41875 
L 404.345191 588.41875 
L 407.062715 588.41875 
L 409.780239 588.41875 
L 412.497763 588.41875 
L 415.215287 588.41875 
L 417.932811 588.41875 
L 420.650335 588.41875 
L 423.36786 588.41875 
L 426.085384 588.41875 
L 428.802908 588.41875 
L 431.520432 588.41875 
L 434.237956 588.41875 
L 436.95548 588.41875 
L 439.673004 588.41875 
L 442.390529 588.41875 
L 445.108053 588.41875 
L 447.825577 588.41875 
L 450.543101 588.41875 
L 453.260625 588.41875 
L 455.978149 588.41875 
L 458.695673 588.41875 
L 461.413197 588.41875 
L 464.130722 588.41875 
L 466.848246 588.41875 
L 469.56577 588.41875 
L 472.283294 588.41875 
L 475.000818 588.41875 
L 477.718342 588.41875 
L 480.435866 588.41875 
L 483.153391 588.41875 
L 485.870915 588.41875 
L 488.588439 588.41875 
L 491.305963 588.41875 
L 494.023487 588.41875 
L 496.741011 588.41875 
L 499.458535 588.41875 
L 502.176059 588.41875 
L 504.893584 588.41875 
L 507.611108 588.41875 
L 510.328632 588.41875 
L 513.046156 588.41875 
L 515.76368 588.41875 
L 518.481204 588.41875 
L 521.198728 588.41875 
L 523.916253 588.41875 
L 526.633777 588.41875 
L 529.351301 588.41875 
L 529.351301 588.395964 
L 529.351301 588.395964 
L 526.633777 588.349877 
L 523.916253 588.234438 
L 521.198728 587.981007 
L 518.481204 587.4932 
L 515.76368 586.669525 
L 513.046156 585.448456 
L 510.328632 583.857609 
L 507.611108 582.034904 
L 504.893584 580.200123 
L 502.176059 578.58703 
L 499.458535 577.370902 
L 496.741011 576.621961 
L 494.023487 576.292622 
L 491.305963 576.233533 
L 488.588439 576.236703 
L 485.870915 576.104287 
L 483.153391 575.725618 
L 480.435866 575.125492 
L 477.718342 574.447945 
L 475.000818 573.87206 
L 472.283294 573.504324 
L 469.56577 573.318624 
L 466.848246 573.18755 
L 464.130722 572.977289 
L 461.413197 572.623074 
L 458.695673 572.118379 
L 455.978149 571.427932 
L 453.260625 570.405595 
L 450.543101 568.807033 
L 447.825577 566.426089 
L 445.108053 563.284803 
L 442.390529 559.734151 
L 439.673004 556.351819 
L 436.95548 553.666867 
L 434.237956 551.889444 
L 431.520432 550.829214 
L 428.802908 550.030708 
L 426.085384 548.986746 
L 423.36786 547.269764 
L 420.650335 544.545492 
L 417.932811 540.561953 
L 415.215287 535.213241 
L 412.497763 528.66989 
L 409.780239 521.464024 
L 407.062715 514.421969 
L 404.345191 508.440698 
L 401.627667 504.205855 
L 398.910142 501.97032 
L 396.192618 501.470179 
L 393.475094 502.006633 
L 390.75757 502.679842 
L 388.040046 502.703236 
L 385.322522 501.6678 
L 382.604998 499.61964 
L 379.887473 496.898771 
L 377.169949 493.835446 
L 374.452425 490.514892 
L 371.734901 486.788065 
L 369.017377 482.511225 
L 366.299853 477.794078 
L 363.582329 473.028401 
L 360.864805 468.680868 
L 358.14728 465.052667 
L 355.429756 462.213403 
L 352.712232 460.12641 
L 349.994708 458.813495 
L 347.277184 458.414213 
L 344.55966 459.127613 
L 341.842136 461.124804 
L 339.124611 464.500503 
L 336.407087 469.246752 
L 333.689563 475.202321 
L 330.972039 481.993023 
L 328.254515 489.037931 
L 325.536991 495.663042 
L 322.819467 501.277433 
L 320.101942 505.533534 
L 317.384418 508.430062 
L 314.666894 510.344615 
L 311.94937 511.9643 
L 309.231846 514.081201 
L 306.514322 517.298392 
L 303.796798 521.795487 
L 301.079274 527.300148 
L 298.361749 533.270192 
L 295.644225 539.141445 
L 292.926701 544.488016 
L 290.209177 549.061647 
L 287.491653 552.77944 
L 284.774129 555.719804 
L 282.056605 558.113845 
L 279.33908 560.286797 
L 276.621556 562.542906 
L 273.904032 565.042445 
L 271.186508 567.732571 
L 268.468984 570.362889 
L 265.75146 572.576528 
L 263.033936 574.039159 
L 260.316412 574.553676 
L 257.598887 574.114694 
L 254.881363 572.891259 
L 252.163839 571.167707 
L 249.446315 569.28511 
L 246.728791 567.600544 
L 244.011267 566.449488 
L 241.293743 566.091272 
L 238.576218 566.640505 
L 235.858694 568.015801 
L 233.14117 569.946343 
L 230.423646 572.053488 
L 227.706122 573.977531 
L 224.988598 575.484401 
L 222.271074 576.499177 
L 219.55355 577.066811 
L 216.836025 577.287525 
L 214.118501 577.275509 
L 211.400977 577.151756 
L 208.683453 577.045856 
L 205.965929 577.079109 
L 203.248405 577.328318 
L 200.530881 577.795272 
L 197.813356 578.407693 
L 195.095832 579.056614 
L 192.378308 579.651189 
L 189.660784 580.159378 
L 186.94326 580.609324 
L 184.225736 581.050887 
L 181.508212 581.5047 
L 178.790687 581.93567 
L 176.073163 582.271001 
L 173.355639 582.451515 
L 170.638115 582.479815 
L 167.920591 582.427637 
L 165.203067 582.393243 
L 162.485543 582.439963 
L 159.768019 582.564218 
L 157.050494 582.716518 
L 154.33297 582.853285 
L 151.615446 582.973892 
L 148.897922 583.116314 
L 146.180398 583.323619 
L 143.462874 583.613736 
L 140.74535 583.973045 
L 138.027825 584.369789 
L 135.310301 584.77081 
L 132.592777 585.150502 
L 129.875253 585.492003 
L 127.157729 585.785163 
L 124.440205 586.024085 
L 121.722681 586.206004 
L 119.005157 586.332659 
L 116.287632 586.410614 
L 113.570108 586.44482 
L 110.852584 586.429851 
L 108.13506 586.355351 
L 105.417536 586.232093 
L 102.700012 586.115302 
L 99.982488 586.090723 
L 97.264963 586.220955 
L 94.547439 586.494741 
L 91.829915 586.827346 
L 89.112391 587.115676 
L 86.394867 587.303453 
L 83.677343 587.406524 
L 80.959819 587.485744 
L 78.242295 587.595949 
L 75.52477 587.750732 
L 72.807246 587.922145 
L 70.089722 588.065601 
L 67.372198 588.14728 
L 64.654674 588.158687 
L 61.93715 588.116928 
L 59.219626 588.05591 
L 56.502101 588.012735 
L 53.784577 588.013073 
L 51.067053 588.061533 
L 48.349529 588.142615 
L 45.632005 588.231536 
L 42.914481 588.307304 
L 40.196957 588.359803 
L 37.479432 588.388354 
L 34.761908 588.394803 
L 32.044384 588.375441 
L 29.32686 588.314794 
L 26.609336 588.184461 
L 23.891812 587.951963 
L 21.174288 587.602781 
L 18.456764 587.168412 
L 15.739239 586.739432 
L 13.021715 586.441846 
L 10.304191 586.378966 
L 7.586667 586.574036 
L 4.869143 586.956506 
L 2.151619 587.402837 
L -0.565905 587.800108 
L -3.28343 588.088557 
L -6.000954 588.26428 
L -8.718478 588.355412 
L -11.436002 588.395987 
z
" clip-path="url(#pa959fe4b98)" style="fill: #d55e00; fill-opacity: 0.75; stroke: #d55e00; stroke-width: 1.5"/>
   </g>
   <g id="line2d_29">
    <path d="M 11.0175 588.41875 
L 522.4225 588.41875 
" clip-path="url(#pa959fe4b98)" style="fill: none; stroke: #0071b2; stroke-width: 2; stroke-linecap: square"/>
   </g>
   <g id="line2d_30">
    <path d="M 11.0175 588.41875 
L 522.4225 588.41875 
" clip-path="url(#pa959fe4b98)" style="fill: none; stroke: #d55e00; stroke-width: 2; stroke-linecap: square"/>
   </g>
   <g id="text_10">
    <!-- Madrid -->
    <g style="fill: #2d2d2d" transform="translate(16.13155 445.631104) scale(0.16 -0.16)">
     <defs>
      <path id="DejaVuSans-4d" d="M 628 4666 
L 1569 4666 
L 2759 1491 
L 3956 4666 
L 4897 4666 
L 4897 0 
L 4281 0 
L 4281 4097 
L 3078 897 
L 2444 897 
L 1241 4097 
L 1241 0 
L 628 0 
L 628 4666 
z
" transform="scale(0.015625)"/>
     </defs>
     <use xlink:href="#DejaVuSans-4d"/>
     <use xlink:href="#DejaVuSans-61" transform="translate(86.279297 0)"/>
     <use xlink:href="#DejaVuSans-64" transform="translate(147.558594 0)"/>
     <use xlink:href="#DejaVuSans-72" transform="translate(211.035156 0)"/>
     <use xlink:href="#DejaVuSans-69" transform="translate(252.148438 0)"/>
     <use xlink:href="#DejaVuSans-64" transform="translate(279.931641 0)"/>
    </g>
   </g>
  </g>
 </g>
 <defs>
  <clipPath id="pce5c579e31">
   <rect x="11.0175" y="7.2" width="511.405" height="173.179583"/>
  </clipPath>
  <clipPath id="pd19bdead02">
   <rect x="11.0175" y="211.219583" width="511.405" height="173.179583"/>
  </clipPath>
  <clipPath id="pa959fe4b98">
   <rect x="11.0175" y="415.239167" width="511.405" height="173.179583"/>
  </clipPath>
 </defs>
</svg>
