<?xml version="1.0" encoding="utf-8" standalone="no"?>
<!DOCTYPE svg PUBLIC "-//W3C//DTD SVG 1.1//EN"
  "http://www.w3.org/Graphics/SVG/1.1/DTD/svg11.dtd">
<svg xmlns:xlink="http://www.w3.org/1999/xlink" width="648pt" height="216pt" viewBox="0 0 648 216" xmlns="http://www.w3.org/2000/svg" version="1.1">
 <metadata>
  <rdf:RDF xmlns:dc="http://purl.org/dc/elements/1.1/" xmlns:cc="http://creativecommons.org/ns#" xmlns:rdf="http://www.w3.org/1999/02/22-rdf-syntax-ns#">
   <cc:Work>
    <dc:type rdf:resource="http://purl.org/dc/dcmitype/StillImage"/>
    <dc:format>image/svg+xml</dc:format>
    <dc:creator>
     <cc:Agent>
      <dc:title>Gergő Pintér</dc:title>
     </cc:Agent>
    </dc:creator>
    <dc:rights>
     <cc:Agent>
      <dc:title>CC BY 4.0</dc:title>
     </cc:Agent>
    </dc:rights>
   </cc:Work>
  </rdf:RDF>
 </metadata>
 <defs>
  <style type="text/css">*{stroke-linejoin: round; stroke-linecap: butt}</style>
 </defs>
 <g id="figure_1">
  <g id="patch_1">
   <path d="M 0 216 
L 648 216 
L 648 0 
L 0 0 
z
" style="fill: #ffffff"/>
  </g>
  <g id="axes_1">
   <g id="patch_2">
    <path d="M 47.879615 180.707885 
L 242.919343 180.707885 
L 242.919343 18.118365 
L 47.879615 18.118365 
z
" style="fill: #ffffff"/>
   </g>
   <g id="matplotlib.axis_1">
    <g id="xtick_1">
     <g id="line2d_1">
      <defs>
       <path id="mbcb02aef95" d="M 0 0 
L 0 3.5 
" style="stroke: #000000; stroke-width: 0.8"/>
      </defs>
      <g>
       <use xlink:href="#mbcb02aef95" x="96.639547" y="180.707885" style="stroke: #000000; stroke-width: 0.8"/>
      </g>
     </g>
     <g id="text_1">
      <!-- 1 -->
      <g transform="translate(93.458297 195.306322) scale(0.1 -0.1)">
       <defs>
        <path id="DejaVuSans-31" d="M 794 531 
L 1825 531 
L 1825 4091 
L 703 3866 
L 703 4441 
L 1819 4666 
L 2450 4666 
L 2450 531 
L 3481 531 
L 3481 0 
L 794 0 
L 794 531 
z
" transform="scale(0.015625)"/>
       </defs>
       <use xlink:href="#DejaVuSans-31"/>
      </g>
     </g>
    </g>
    <g id="xtick_2">
     <g id="line2d_2">
      <g>
       <use xlink:href="#mbcb02aef95" x="194.159411" y="180.707885" style="stroke: #000000; stroke-width: 0.8"/>
      </g>
     </g>
     <g id="text_2">
      <!-- 2 -->
      <g transform="translate(190.978161 195.306322) scale(0.1 -0.1)">
       <defs>
        <path id="DejaVuSans-32" d="M 1228 531 
L 3431 531 
L 3431 0 
L 469 0 
L 469 531 
Q 828 903 1448 1529 
Q 2069 2156 2228 2338 
Q 2531 2678 2651 2914 
Q 2772 3150 2772 3378 
Q 2772 3750 2511 3984 
Q 2250 4219 1831 4219 
Q 1534 4219 1204 4116 
Q 875 4013 500 3803 
L 500 4441 
Q 881 4594 1212 4672 
Q 1544 4750 1819 4750 
Q 2544 4750 2975 4387 
Q 3406 4025 3406 3419 
Q 3406 3131 3298 2873 
Q 3191 2616 2906 2266 
Q 2828 2175 2409 1742 
Q 1991 1309 1228 531 
z
" transform="scale(0.015625)"/>
       </defs>
       <use xlink:href="#DejaVuSans-32"/>
      </g>
     </g>
    </g>
   </g>
   <g id="matplotlib.axis_2">
    <g id="ytick_1">
     <g id="line2d_3">
      <path d="M 47.879615 180.707885 
L 242.919343 180.707885 
" clip-path="url(#p6db97bd29c)" style="fill: none; stroke: #b0b0b0; stroke-width: 0.8; stroke-linecap: square"/>
     </g>
     <g id="text_3">
      <!-- 0.00 -->
      <g transform="translate(18.61399 184.507104) scale(0.1 -0.1)">
       <defs>
        <path id="DejaVuSans-30" d="M 2034 4250 
Q 1547 4250 1301 3770 
Q 1056 3291 1056 2328 
Q 1056 1369 1301 889 
Q 1547 409 2034 409 
Q 2525 409 2770 889 
Q 3016 1369 3016 2328 
Q 3016 3291 2770 3770 
Q 2525 4250 2034 4250 
z
M 2034 4750 
Q 2819 4750 3233 4129 
Q 3647 3509 3647 2328 
Q 3647 1150 3233 529 
Q 2819 -91 2034 -91 
Q 1250 -91 836 529 
Q 422 1150 422 2328 
Q 422 3509 836 4129 
Q 1250 4750 2034 4750 
z
" transform="scale(0.015625)"/>
        <path id="DejaVuSans-2e" d="M 684 794 
L 1344 794 
L 1344 0 
L 684 0 
L 684 794 
z
" transform="scale(0.015625)"/>
       </defs>
       <use xlink:href="#DejaVuSans-30"/>
       <use xlink:href="#DejaVuSans-2e" transform="translate(63.623047 0)"/>
       <use xlink:href="#DejaVuSans-30" transform="translate(95.410156 0)"/>
       <use xlink:href="#DejaVuSans-30" transform="translate(159.033203 0)"/>
      </g>
     </g>
    </g>
    <g id="ytick_2">
     <g id="line2d_4">
      <path d="M 47.879615 140.060505 
L 242.919343 140.060505 
" clip-path="url(#p6db97bd29c)" style="fill: none; stroke: #b0b0b0; stroke-width: 0.8; stroke-linecap: square"/>
     </g>
     <g id="text_4">
      <!-- 0.25 -->
      <g transform="translate(18.61399 143.859724) scale(0.1 -0.1)">
       <defs>
        <path id="DejaVuSans-35" d="M 691 4666 
L 3169 4666 
L 3169 4134 
L 1269 4134 
L 1269 2991 
Q 1406 3038 1543 3061 
Q 1681 3084 1819 3084 
Q 2600 3084 3056 2656 
Q 3513 2228 3513 1497 
Q 3513 744 3044 326 
Q 2575 -91 1722 -91 
Q 1428 -91 1123 -41 
Q 819 9 494 109 
L 494 744 
Q 775 591 1075 516 
Q 1375 441 1709 441 
Q 2250 441 2565 725 
Q 2881 1009 2881 1497 
Q 2881 1984 2565 2268 
Q 2250 2553 1709 2553 
Q 1456 2553 1204 2497 
Q 953 2441 691 2322 
L 691 4666 
z
" transform="scale(0.015625)"/>
       </defs>
       <use xlink:href="#DejaVuSans-30"/>
       <use xlink:href="#DejaVuSans-2e" transform="translate(63.623047 0)"/>
       <use xlink:href="#DejaVuSans-32" transform="translate(95.410156 0)"/>
       <use xlink:href="#DejaVuSans-35" transform="translate(159.033203 0)"/>
      </g>
     </g>
    </g>
    <g id="ytick_3">
     <g id="line2d_5">
      <path d="M 47.879615 99.413125 
L 242.919343 99.413125 
" clip-path="url(#p6db97bd29c)" style="fill: none; stroke: #b0b0b0; stroke-width: 0.8; stroke-linecap: square"/>
     </g>
     <g id="text_5">
      <!-- 0.50 -->
      <g transform="translate(18.61399 103.212344) scale(0.1 -0.1)">
       <use xlink:href="#DejaVuSans-30"/>
       <use xlink:href="#DejaVuSans-2e" transform="translate(63.623047 0)"/>
       <use xlink:href="#DejaVuSans-35" transform="translate(95.410156 0)"/>
       <use xlink:href="#DejaVuSans-30" transform="translate(159.033203 0)"/>
      </g>
     </g>
    </g>
    <g id="ytick_4">
     <g id="line2d_6">
      <path d="M 47.879615 58.765745 
L 242.919343 58.765745 
" clip-path="url(#p6db97bd29c)" style="fill: none; stroke: #b0b0b0; stroke-width: 0.8; stroke-linecap: square"/>
     </g>
     <g id="text_6">
      <!-- 0.75 -->
      <g transform="translate(18.61399 62.564964) scale(0.1 -0.1)">
       <defs>
        <path id="DejaVuSans-37" d="M 525 4666 
L 3525 4666 
L 3525 4397 
L 1831 0 
L 1172 0 
L 2766 4134 
L 525 4134 
L 525 4666 
z
" transform="scale(0.015625)"/>
       </defs>
       <use xlink:href="#DejaVuSans-30"/>
       <use xlink:href="#DejaVuSans-2e" transform="translate(63.623047 0)"/>
       <use xlink:href="#DejaVuSans-37" transform="translate(95.410156 0)"/>
       <use xlink:href="#DejaVuSans-35" transform="translate(159.033203 0)"/>
      </g>
     </g>
    </g>
    <g id="ytick_5">
     <g id="line2d_7">
      <path d="M 47.879615 18.118365 
L 242.919343 18.118365 
" clip-path="url(#p6db97bd29c)" style="fill: none; stroke: #b0b0b0; stroke-width: 0.8; stroke-linecap: square"/>
     </g>
     <g id="text_7">
      <!-- 1.00 -->
      <g transform="translate(18.61399 21.917584) scale(0.1 -0.1)">
       <use xlink:href="#DejaVuSans-31"/>
       <use xlink:href="#DejaVuSans-2e" transform="translate(63.623047 0)"/>
       <use xlink:href="#DejaVuSans-30" transform="translate(95.410156 0)"/>
       <use xlink:href="#DejaVuSans-30" transform="translate(159.033203 0)"/>
      </g>
     </g>
    </g>
    <g id="text_8">
     <!-- Ellipticity -->
     <g transform="translate(12.118365 126.9025) rotate(-90) scale(0.12 -0.12)">
      <defs>
       <path id="DejaVuSans-45" d="M 628 4666 
L 3578 4666 
L 3578 4134 
L 1259 4134 
L 1259 2753 
L 3481 2753 
L 3481 2222 
L 1259 2222 
L 1259 531 
L 3634 531 
L 3634 0 
L 628 0 
L 628 4666 
z
" transform="scale(0.015625)"/>
       <path id="DejaVuSans-6c" d="M 603 4863 
L 1178 4863 
L 1178 0 
L 603 0 
L 603 4863 
z
" transform="scale(0.015625)"/>
       <path id="DejaVuSans-69" d="M 603 3500 
L 1178 3500 
L 1178 0 
L 603 0 
L 603 3500 
z
M 603 4863 
L 1178 4863 
L 1178 4134 
L 603 4134 
L 603 4863 
z
" transform="scale(0.015625)"/>
       <path id="DejaVuSans-70" d="M 1159 525 
L 1159 -1331 
L 581 -1331 
L 581 3500 
L 1159 3500 
L 1159 2969 
Q 1341 3281 1617 3432 
Q 1894 3584 2278 3584 
Q 2916 3584 3314 3078 
Q 3713 2572 3713 1747 
Q 3713 922 3314 415 
Q 2916 -91 2278 -91 
Q 1894 -91 1617 61 
Q 1341 213 1159 525 
z
M 3116 1747 
Q 3116 2381 2855 2742 
Q 2594 3103 2138 3103 
Q 1681 3103 1420 2742 
Q 1159 2381 1159 1747 
Q 1159 1113 1420 752 
Q 1681 391 2138 391 
Q 2594 391 2855 752 
Q 3116 1113 3116 1747 
z
" transform="scale(0.015625)"/>
       <path id="DejaVuSans-74" d="M 1172 4494 
L 1172 3500 
L 2356 3500 
L 2356 3053 
L 1172 3053 
L 1172 1153 
Q 1172 725 1289 603 
Q 1406 481 1766 481 
L 2356 481 
L 2356 0 
L 1766 0 
Q 1100 0 847 248 
Q 594 497 594 1153 
L 594 3053 
L 172 3053 
L 172 3500 
L 594 3500 
L 594 4494 
L 1172 4494 
z
" transform="scale(0.015625)"/>
       <path id="DejaVuSans-63" d="M 3122 3366 
L 3122 2828 
Q 2878 2963 2633 3030 
Q 2388 3097 2138 3097 
Q 1578 3097 1268 2742 
Q 959 2388 959 1747 
Q 959 1106 1268 751 
Q 1578 397 2138 397 
Q 2388 397 2633 464 
Q 2878 531 3122 666 
L 3122 134 
Q 2881 22 2623 -34 
Q 2366 -91 2075 -91 
Q 1284 -91 818 406 
Q 353 903 353 1747 
Q 353 2603 823 3093 
Q 1294 3584 2113 3584 
Q 2378 3584 2631 3529 
Q 2884 3475 3122 3366 
z
" transform="scale(0.015625)"/>
       <path id="DejaVuSans-79" d="M 2059 -325 
Q 1816 -950 1584 -1140 
Q 1353 -1331 966 -1331 
L 506 -1331 
L 506 -850 
L 844 -850 
Q 1081 -850 1212 -737 
Q 1344 -625 1503 -206 
L 1606 56 
L 191 3500 
L 800 3500 
L 1894 763 
L 2988 3500 
L 3597 3500 
L 2059 -325 
z
" transform="scale(0.015625)"/>
      </defs>
      <use xlink:href="#DejaVuSans-45"/>
      <use xlink:href="#DejaVuSans-6c" transform="translate(63.183594 0)"/>
      <use xlink:href="#DejaVuSans-6c" transform="translate(90.966797 0)"/>
      <use xlink:href="#DejaVuSans-69" transform="translate(118.75 0)"/>
      <use xlink:href="#DejaVuSans-70" transform="translate(146.533203 0)"/>
      <use xlink:href="#DejaVuSans-74" transform="translate(210.009766 0)"/>
      <use xlink:href="#DejaVuSans-69" transform="translate(249.21875 0)"/>
      <use xlink:href="#DejaVuSans-63" transform="translate(277.001953 0)"/>
      <use xlink:href="#DejaVuSans-69" transform="translate(331.982422 0)"/>
      <use xlink:href="#DejaVuSans-74" transform="translate(359.765625 0)"/>
      <use xlink:href="#DejaVuSans-79" transform="translate(398.974609 0)"/>
     </g>
    </g>
   </g>
   <g id="FillBetweenPolyCollection_1">
    <defs>
     <path id="m6cf0b8a07d" d="M 96.678237 -23.350669 
L 96.600857 -23.350669 
L 96.574412 -25.183481 
L 96.534669 -27.016293 
L 96.477495 -28.849105 
L 96.398352 -30.681917 
L 96.292337 -32.514729 
L 96.154175 -34.347541 
L 95.97827 -36.180353 
L 95.759013 -38.013165 
L 95.491484 -39.845977 
L 95.172487 -41.67879 
L 94.801541 -43.511602 
L 94.381198 -45.344414 
L 93.916159 -47.177226 
L 93.411018 -49.010038 
L 92.867212 -50.84285 
L 92.280316 -52.675662 
L 91.639118 -54.508474 
L 90.927497 -56.341286 
L 90.129138 -58.174098 
L 89.233922 -60.00691 
L 88.243719 -61.839722 
L 87.175015 -63.672535 
L 86.056526 -65.505347 
L 84.921685 -67.338159 
L 83.798022 -69.170971 
L 82.697162 -71.003783 
L 81.609378 -72.836595 
L 80.505187 -74.669407 
L 79.343796 -76.502219 
L 78.085555 -78.335031 
L 76.704172 -80.167843 
L 75.194885 -82.000655 
L 73.576722 -83.833467 
L 71.889211 -85.66628 
L 70.185493 -87.499092 
L 68.524185 -89.331904 
L 66.961775 -91.164716 
L 65.546456 -92.997528 
L 64.313644 -94.83034 
L 63.283154 -96.663152 
L 62.45799 -98.495964 
L 61.824825 -100.328776 
L 61.356206 -102.161588 
L 61.014402 -103.9944 
L 60.756477 -105.827213 
L 60.539733 -107.660025 
L 60.326505 -109.492837 
L 60.087465 -111.325649 
L 59.803351 -113.158461 
L 59.465927 -114.991273 
L 59.079341 -116.824085 
L 58.662452 -118.656897 
L 58.251191 -120.489709 
L 57.898606 -122.322521 
L 57.669926 -124.155333 
L 57.631601 -125.988145 
L 57.836202 -127.820958 
L 58.307968 -129.65377 
L 59.034847 -131.486582 
L 59.971051 -133.319394 
L 61.05018 -135.152206 
L 62.204422 -136.985018 
L 63.382745 -138.81783 
L 64.561458 -140.650642 
L 65.744011 -142.483454 
L 66.951513 -144.316266 
L 68.209085 -146.149078 
L 69.534097 -147.981891 
L 70.930578 -149.814703 
L 72.390644 -151.647515 
L 73.900607 -153.480327 
L 75.44778 -155.313139 
L 77.024383 -157.145951 
L 78.626882 -158.978763 
L 80.251415 -160.811575 
L 81.887704 -162.644387 
L 83.514275 -164.477199 
L 85.097119 -166.310011 
L 86.592457 -168.142823 
L 87.952935 -169.975636 
L 89.135659 -171.808448 
L 90.110324 -173.64126 
L 90.865828 -175.474072 
L 91.414091 -177.306884 
L 91.790054 -179.139696 
L 92.047274 -180.972508 
L 92.249307 -182.80532 
L 92.458231 -184.638132 
L 92.72283 -186.470944 
L 93.069586 -188.303756 
L 93.499097 -190.136568 
L 93.988978 -191.969381 
L 94.502132 -193.802193 
L 94.997583 -195.635005 
L 95.440434 -197.467817 
L 95.808298 -199.300629 
L 96.093155 -201.133441 
L 96.299273 -202.966253 
L 96.438897 -204.799065 
L 96.840197 -204.799065 
L 96.840197 -204.799065 
L 96.979821 -202.966253 
L 97.185939 -201.133441 
L 97.470796 -199.300629 
L 97.83866 -197.467817 
L 98.281511 -195.635005 
L 98.776962 -193.802193 
L 99.290116 -191.969381 
L 99.779997 -190.136568 
L 100.209508 -188.303756 
L 100.556264 -186.470944 
L 100.820863 -184.638132 
L 101.029787 -182.80532 
L 101.23182 -180.972508 
L 101.48904 -179.139696 
L 101.865003 -177.306884 
L 102.413266 -175.474072 
L 103.168771 -173.64126 
L 104.143435 -171.808448 
L 105.32616 -169.975636 
L 106.686637 -168.142823 
L 108.181975 -166.310011 
L 109.764819 -164.477199 
L 111.39139 -162.644387 
L 113.027679 -160.811575 
L 114.652213 -158.978763 
L 116.254711 -157.145951 
L 117.831314 -155.313139 
L 119.378487 -153.480327 
L 120.88845 -151.647515 
L 122.348516 -149.814703 
L 123.744997 -147.981891 
L 125.07001 -146.149078 
L 126.327581 -144.316266 
L 127.535083 -142.483454 
L 128.717636 -140.650642 
L 129.896349 -138.81783 
L 131.074672 -136.985018 
L 132.228914 -135.152206 
L 133.308043 -133.319394 
L 134.244247 -131.486582 
L 134.971126 -129.65377 
L 135.442893 -127.820958 
L 135.647493 -125.988145 
L 135.609168 -124.155333 
L 135.380489 -122.322521 
L 135.027903 -120.489709 
L 134.616642 -118.656897 
L 134.199753 -116.824085 
L 133.813167 -114.991273 
L 133.475743 -113.158461 
L 133.191629 -111.325649 
L 132.952589 -109.492837 
L 132.739362 -107.660025 
L 132.522617 -105.827213 
L 132.264692 -103.9944 
L 131.922889 -102.161588 
L 131.454269 -100.328776 
L 130.821104 -98.495964 
L 129.99594 -96.663152 
L 128.96545 -94.83034 
L 127.732638 -92.997528 
L 126.317319 -91.164716 
L 124.754909 -89.331904 
L 123.093601 -87.499092 
L 121.389883 -85.66628 
L 119.702372 -83.833467 
L 118.084209 -82.000655 
L 116.574922 -80.167843 
L 115.193539 -78.335031 
L 113.935299 -76.502219 
L 112.773907 -74.669407 
L 111.669716 -72.836595 
L 110.581932 -71.003783 
L 109.481072 -69.170971 
L 108.357409 -67.338159 
L 107.222568 -65.505347 
L 106.10408 -63.672535 
L 105.035375 -61.839722 
L 104.045172 -60.00691 
L 103.149956 -58.174098 
L 102.351597 -56.341286 
L 101.639976 -54.508474 
L 100.998779 -52.675662 
L 100.411882 -50.84285 
L 99.868076 -49.010038 
L 99.362936 -47.177226 
L 98.897896 -45.344414 
L 98.477553 -43.511602 
L 98.106607 -41.67879 
L 97.787611 -39.845977 
L 97.520081 -38.013165 
L 97.300824 -36.180353 
L 97.124919 -34.347541 
L 96.986757 -32.514729 
L 96.880742 -30.681917 
L 96.801599 -28.849105 
L 96.744425 -27.016293 
L 96.704682 -25.183481 
L 96.678237 -23.350669 
z
" style="stroke: #6c6c6c; stroke-width: 1.25"/>
    </defs>
    <g clip-path="url(#p6db97bd29c)">
     <use xlink:href="#m6cf0b8a07d" x="0" y="216" style="fill: #9fd495; stroke: #6c6c6c; stroke-width: 1.25"/>
    </g>
   </g>
   <g id="FillBetweenPolyCollection_2">
    <defs>
     <path id="m69afbafc17" d="M 194.261907 -24.592081 
L 194.056916 -24.592081 
L 193.99368 -26.359906 
L 193.903028 -28.12773 
L 193.779492 -29.895555 
L 193.619298 -31.66338 
L 193.421313 -33.431205 
L 193.187505 -35.199029 
L 192.922639 -36.966854 
L 192.633185 -38.734679 
L 192.325669 -40.502503 
L 192.004978 -42.270328 
L 191.673169 -44.038153 
L 191.329113 -45.805978 
L 190.968987 -47.573802 
L 190.58727 -49.341627 
L 190.177762 -51.109452 
L 189.734298 -52.877276 
L 189.251152 -54.645101 
L 188.723367 -56.412926 
L 188.147342 -58.180751 
L 187.5217 -59.948575 
L 186.848126 -61.7164 
L 186.13158 -63.484225 
L 185.379427 -65.252049 
L 184.599437 -67.019874 
L 183.797184 -68.787699 
L 182.973748 -70.555523 
L 182.124553 -72.323348 
L 181.239776 -74.091173 
L 180.306176 -75.858998 
L 179.309735 -77.626822 
L 178.238371 -79.394647 
L 177.084121 -81.162472 
L 175.844489 -82.930296 
L 174.522943 -84.698121 
L 173.128745 -86.465946 
L 171.676395 -88.233771 
L 170.184978 -90.001595 
L 168.677584 -91.76942 
L 167.180775 -93.537245 
L 165.723794 -95.305069 
L 164.337108 -97.072894 
L 163.049995 -98.840719 
L 161.887318 -100.608544 
L 160.866175 -102.376368 
L 159.993453 -104.144193 
L 159.26525 -105.912018 
L 158.668546 -107.679842 
L 158.184817 -109.447667 
L 157.794589 -111.215492 
L 157.481757 -112.983317 
L 157.236615 -114.751141 
L 157.056937 -116.518966 
L 156.946903 -118.286791 
L 156.914046 -120.054615 
L 156.964865 -121.82244 
L 157.100255 -123.590265 
L 157.31225 -125.35809 
L 157.583613 -127.125914 
L 157.891134 -128.893739 
L 158.2123 -130.661564 
L 158.533536 -132.429388 
L 158.85725 -134.197213 
L 159.204902 -135.965038 
L 159.614434 -137.732863 
L 160.132344 -139.500687 
L 160.802586 -141.268512 
L 161.655633 -143.036337 
L 162.700924 -144.804161 
L 163.924643 -146.571986 
L 165.292917 -148.339811 
L 166.758868 -150.107636 
L 168.271099 -151.87546 
L 169.781256 -153.643285 
L 171.249172 -155.41111 
L 172.645116 -157.178934 
L 173.949637 -158.946759 
L 175.151955 -160.714584 
L 176.247939 -162.482409 
L 177.238561 -164.250233 
L 178.12932 -166.018058 
L 178.93075 -167.785883 
L 179.659683 -169.553707 
L 180.340471 -171.321532 
L 181.005114 -173.089357 
L 181.691258 -174.857182 
L 182.437543 -176.625006 
L 183.276726 -178.392831 
L 184.228058 -180.160656 
L 185.291134 -181.92848 
L 186.443419 -183.696305 
L 187.642698 -185.46413 
L 188.834212 -187.231955 
L 189.960648 -188.999779 
L 190.972314 -190.767604 
L 191.834831 -192.535429 
L 192.532723 -194.303253 
L 193.068644 -196.071078 
L 193.459272 -197.838903 
L 193.72958 -199.606728 
L 194.589243 -199.606728 
L 194.589243 -199.606728 
L 194.859551 -197.838903 
L 195.250179 -196.071078 
L 195.7861 -194.303253 
L 196.483991 -192.535429 
L 197.346508 -190.767604 
L 198.358174 -188.999779 
L 199.484611 -187.231955 
L 200.676124 -185.46413 
L 201.875404 -183.696305 
L 203.027688 -181.92848 
L 204.090765 -180.160656 
L 205.042096 -178.392831 
L 205.88128 -176.625006 
L 206.627565 -174.857182 
L 207.313708 -173.089357 
L 207.978351 -171.321532 
L 208.659139 -169.553707 
L 209.388073 -167.785883 
L 210.189503 -166.018058 
L 211.080262 -164.250233 
L 212.070884 -162.482409 
L 213.166868 -160.714584 
L 214.369185 -158.946759 
L 215.673707 -157.178934 
L 217.06965 -155.41111 
L 218.537566 -153.643285 
L 220.047724 -151.87546 
L 221.559954 -150.107636 
L 223.025905 -148.339811 
L 224.394179 -146.571986 
L 225.617899 -144.804161 
L 226.66319 -143.036337 
L 227.516236 -141.268512 
L 228.186478 -139.500687 
L 228.704389 -137.732863 
L 229.113921 -135.965038 
L 229.461572 -134.197213 
L 229.785287 -132.429388 
L 230.106522 -130.661564 
L 230.427688 -128.893739 
L 230.73521 -127.125914 
L 231.006572 -125.35809 
L 231.218568 -123.590265 
L 231.353958 -121.82244 
L 231.404777 -120.054615 
L 231.371919 -118.286791 
L 231.261886 -116.518966 
L 231.082208 -114.751141 
L 230.837065 -112.983317 
L 230.524234 -111.215492 
L 230.134006 -109.447667 
L 229.650277 -107.679842 
L 229.053573 -105.912018 
L 228.325369 -104.144193 
L 227.452648 -102.376368 
L 226.431504 -100.608544 
L 225.268827 -98.840719 
L 223.981714 -97.072894 
L 222.595028 -95.305069 
L 221.138047 -93.537245 
L 219.641238 -91.76942 
L 218.133845 -90.001595 
L 216.642427 -88.233771 
L 215.190077 -86.465946 
L 213.795879 -84.698121 
L 212.474333 -82.930296 
L 211.234701 -81.162472 
L 210.080451 -79.394647 
L 209.009088 -77.626822 
L 208.012647 -75.858998 
L 207.079047 -74.091173 
L 206.19427 -72.323348 
L 205.345075 -70.555523 
L 204.521639 -68.787699 
L 203.719386 -67.019874 
L 202.939395 -65.252049 
L 202.187242 -63.484225 
L 201.470696 -61.7164 
L 200.797122 -59.948575 
L 200.171481 -58.180751 
L 199.595455 -56.412926 
L 199.067671 -54.645101 
L 198.584524 -52.877276 
L 198.141061 -51.109452 
L 197.731552 -49.341627 
L 197.349835 -47.573802 
L 196.98971 -45.805978 
L 196.645654 -44.038153 
L 196.313845 -42.270328 
L 195.993154 -40.502503 
L 195.685637 -38.734679 
L 195.396183 -36.966854 
L 195.131318 -35.199029 
L 194.897509 -33.431205 
L 194.699525 -31.66338 
L 194.539331 -29.895555 
L 194.415794 -28.12773 
L 194.325143 -26.359906 
L 194.261907 -24.592081 
z
" style="stroke: #6c6c6c; stroke-width: 1.25"/>
    </defs>
    <g clip-path="url(#p6db97bd29c)">
     <use xlink:href="#m69afbafc17" x="0" y="216" style="fill: #9fd495; stroke: #6c6c6c; stroke-width: 1.25"/>
    </g>
   </g>
   <g id="line2d_8">
    <path d="M 96.639547 177.52113 
L 96.639547 26.329136 
" clip-path="url(#p6db97bd29c)" style="fill: none; stroke: #6c6c6c; stroke-width: 1.875; stroke-linecap: square"/>
   </g>
   <g id="line2d_9">
    <path d="M 96.639547 119.411636 
L 96.639547 77.268432 
" clip-path="url(#p6db97bd29c)" style="fill: none; stroke: #6c6c6c; stroke-width: 5.625; stroke-linecap: square"/>
   </g>
   <g id="line2d_10">
    <path d="M 96.639547 97.575863 
" clip-path="url(#p6db97bd29c)" style="fill: none; stroke: #6c6c6c; stroke-width: 1.5; stroke-linecap: square"/>
    <defs>
     <path id="md7bf87f7e4" d="M 2.34375 0 
L -2.34375 -0 
" style="stroke: #ffffff; stroke-width: 1.125"/>
    </defs>
    <g clip-path="url(#p6db97bd29c)">
     <use xlink:href="#md7bf87f7e4" x="96.639547" y="97.575863" style="fill: #ffffff; stroke: #ffffff; stroke-width: 1.125"/>
    </g>
   </g>
   <g id="line2d_11">
    <path d="M 194.159411 175.602574 
L 194.159411 32.198617 
" clip-path="url(#p6db97bd29c)" style="fill: none; stroke: #6c6c6c; stroke-width: 1.875; stroke-linecap: square"/>
   </g>
   <g id="line2d_12">
    <path d="M 194.159411 115.501358 
L 194.159411 73.171176 
" clip-path="url(#p6db97bd29c)" style="fill: none; stroke: #6c6c6c; stroke-width: 5.625; stroke-linecap: square"/>
   </g>
   <g id="line2d_13">
    <path d="M 194.159411 93.868822 
" clip-path="url(#p6db97bd29c)" style="fill: none; stroke: #6c6c6c; stroke-width: 1.5; stroke-linecap: square"/>
    <g clip-path="url(#p6db97bd29c)">
     <use xlink:href="#md7bf87f7e4" x="194.159411" y="93.868822" style="fill: #ffffff; stroke: #ffffff; stroke-width: 1.125"/>
    </g>
   </g>
   <g id="patch_3">
    <path d="M 47.879615 180.707885 
L 47.879615 18.118365 
" style="fill: none; stroke: #000000; stroke-width: 0.8; stroke-linejoin: miter; stroke-linecap: square"/>
   </g>
   <g id="text_9">
    <!-- Budapest -->
    <g transform="translate(117.015729 12.118365) scale(0.12 -0.12)">
     <defs>
      <path id="DejaVuSans-42" d="M 1259 2228 
L 1259 519 
L 2272 519 
Q 2781 519 3026 730 
Q 3272 941 3272 1375 
Q 3272 1813 3026 2020 
Q 2781 2228 2272 2228 
L 1259 2228 
z
M 1259 4147 
L 1259 2741 
L 2194 2741 
Q 2656 2741 2882 2914 
Q 3109 3088 3109 3444 
Q 3109 3797 2882 3972 
Q 2656 4147 2194 4147 
L 1259 4147 
z
M 628 4666 
L 2241 4666 
Q 2963 4666 3353 4366 
Q 3744 4066 3744 3513 
Q 3744 3084 3544 2831 
Q 3344 2578 2956 2516 
Q 3422 2416 3680 2098 
Q 3938 1781 3938 1306 
Q 3938 681 3513 340 
Q 3088 0 2303 0 
L 628 0 
L 628 4666 
z
" transform="scale(0.015625)"/>
      <path id="DejaVuSans-75" d="M 544 1381 
L 544 3500 
L 1119 3500 
L 1119 1403 
Q 1119 906 1312 657 
Q 1506 409 1894 409 
Q 2359 409 2629 706 
Q 2900 1003 2900 1516 
L 2900 3500 
L 3475 3500 
L 3475 0 
L 2900 0 
L 2900 538 
Q 2691 219 2414 64 
Q 2138 -91 1772 -91 
Q 1169 -91 856 284 
Q 544 659 544 1381 
z
M 1991 3584 
L 1991 3584 
z
" transform="scale(0.015625)"/>
      <path id="DejaVuSans-64" d="M 2906 2969 
L 2906 4863 
L 3481 4863 
L 3481 0 
L 2906 0 
L 2906 525 
Q 2725 213 2448 61 
Q 2172 -91 1784 -91 
Q 1150 -91 751 415 
Q 353 922 353 1747 
Q 353 2572 751 3078 
Q 1150 3584 1784 3584 
Q 2172 3584 2448 3432 
Q 2725 3281 2906 2969 
z
M 947 1747 
Q 947 1113 1208 752 
Q 1469 391 1925 391 
Q 2381 391 2643 752 
Q 2906 1113 2906 1747 
Q 2906 2381 2643 2742 
Q 2381 3103 1925 3103 
Q 1469 3103 1208 2742 
Q 947 2381 947 1747 
z
" transform="scale(0.015625)"/>
      <path id="DejaVuSans-61" d="M 2194 1759 
Q 1497 1759 1228 1600 
Q 959 1441 959 1056 
Q 959 750 1161 570 
Q 1363 391 1709 391 
Q 2188 391 2477 730 
Q 2766 1069 2766 1631 
L 2766 1759 
L 2194 1759 
z
M 3341 1997 
L 3341 0 
L 2766 0 
L 2766 531 
Q 2569 213 2275 61 
Q 1981 -91 1556 -91 
Q 1019 -91 701 211 
Q 384 513 384 1019 
Q 384 1609 779 1909 
Q 1175 2209 1959 2209 
L 2766 2209 
L 2766 2266 
Q 2766 2663 2505 2880 
Q 2244 3097 1772 3097 
Q 1472 3097 1187 3025 
Q 903 2953 641 2809 
L 641 3341 
Q 956 3463 1253 3523 
Q 1550 3584 1831 3584 
Q 2591 3584 2966 3190 
Q 3341 2797 3341 1997 
z
" transform="scale(0.015625)"/>
      <path id="DejaVuSans-65" d="M 3597 1894 
L 3597 1613 
L 953 1613 
Q 991 1019 1311 708 
Q 1631 397 2203 397 
Q 2534 397 2845 478 
Q 3156 559 3463 722 
L 3463 178 
Q 3153 47 2828 -22 
Q 2503 -91 2169 -91 
Q 1331 -91 842 396 
Q 353 884 353 1716 
Q 353 2575 817 3079 
Q 1281 3584 2069 3584 
Q 2775 3584 3186 3129 
Q 3597 2675 3597 1894 
z
M 3022 2063 
Q 3016 2534 2758 2815 
Q 2500 3097 2075 3097 
Q 1594 3097 1305 2825 
Q 1016 2553 972 2059 
L 3022 2063 
z
" transform="scale(0.015625)"/>
      <path id="DejaVuSans-73" d="M 2834 3397 
L 2834 2853 
Q 2591 2978 2328 3040 
Q 2066 3103 1784 3103 
Q 1356 3103 1142 2972 
Q 928 2841 928 2578 
Q 928 2378 1081 2264 
Q 1234 2150 1697 2047 
L 1894 2003 
Q 2506 1872 2764 1633 
Q 3022 1394 3022 966 
Q 3022 478 2636 193 
Q 2250 -91 1575 -91 
Q 1294 -91 989 -36 
Q 684 19 347 128 
L 347 722 
Q 666 556 975 473 
Q 1284 391 1588 391 
Q 1994 391 2212 530 
Q 2431 669 2431 922 
Q 2431 1156 2273 1281 
Q 2116 1406 1581 1522 
L 1381 1569 
Q 847 1681 609 1914 
Q 372 2147 372 2553 
Q 372 3047 722 3315 
Q 1072 3584 1716 3584 
Q 2034 3584 2315 3537 
Q 2597 3491 2834 3397 
z
" transform="scale(0.015625)"/>
     </defs>
     <use xlink:href="#DejaVuSans-42"/>
     <use xlink:href="#DejaVuSans-75" transform="translate(68.603516 0)"/>
     <use xlink:href="#DejaVuSans-64" transform="translate(131.982422 0)"/>
     <use xlink:href="#DejaVuSans-61" transform="translate(195.458984 0)"/>
     <use xlink:href="#DejaVuSans-70" transform="translate(256.738281 0)"/>
     <use xlink:href="#DejaVuSans-65" transform="translate(320.214844 0)"/>
     <use xlink:href="#DejaVuSans-73" transform="translate(381.738281 0)"/>
     <use xlink:href="#DejaVuSans-74" transform="translate(433.837891 0)"/>
    </g>
   </g>
  </g>
  <g id="axes_2">
   <g id="patch_4">
    <path d="M 248.919823 180.707885 
L 443.959552 180.707885 
L 443.959552 18.118365 
L 248.919823 18.118365 
z
" style="fill: #ffffff"/>
   </g>
   <g id="matplotlib.axis_3">
    <g id="xtick_3">
     <g id="line2d_14">
      <g>
       <use xlink:href="#mbcb02aef95" x="297.679755" y="180.707885" style="stroke: #000000; stroke-width: 0.8"/>
      </g>
     </g>
     <g id="text_10">
      <!-- 1 -->
      <g transform="translate(294.498505 195.306322) scale(0.1 -0.1)">
       <use xlink:href="#DejaVuSans-31"/>
      </g>
     </g>
    </g>
    <g id="xtick_4">
     <g id="line2d_15">
      <g>
       <use xlink:href="#mbcb02aef95" x="395.19962" y="180.707885" style="stroke: #000000; stroke-width: 0.8"/>
      </g>
     </g>
     <g id="text_11">
      <!-- 2 -->
      <g transform="translate(392.01837 195.306322) scale(0.1 -0.1)">
       <use xlink:href="#DejaVuSans-32"/>
      </g>
     </g>
    </g>
    <g id="text_12">
     <!-- Distance betweenness (log, median cut) -->
     <g transform="translate(225.204063 210.504135) scale(0.12 -0.12)">
      <defs>
       <path id="DejaVuSans-44" d="M 1259 4147 
L 1259 519 
L 2022 519 
Q 2988 519 3436 956 
Q 3884 1394 3884 2338 
Q 3884 3275 3436 3711 
Q 2988 4147 2022 4147 
L 1259 4147 
z
M 628 4666 
L 1925 4666 
Q 3281 4666 3915 4102 
Q 4550 3538 4550 2338 
Q 4550 1131 3912 565 
Q 3275 0 1925 0 
L 628 0 
L 628 4666 
z
" transform="scale(0.015625)"/>
       <path id="DejaVuSans-6e" d="M 3513 2113 
L 3513 0 
L 2938 0 
L 2938 2094 
Q 2938 2591 2744 2837 
Q 2550 3084 2163 3084 
Q 1697 3084 1428 2787 
Q 1159 2491 1159 1978 
L 1159 0 
L 581 0 
L 581 3500 
L 1159 3500 
L 1159 2956 
Q 1366 3272 1645 3428 
Q 1925 3584 2291 3584 
Q 2894 3584 3203 3211 
Q 3513 2838 3513 2113 
z
" transform="scale(0.015625)"/>
       <path id="DejaVuSans-20" transform="scale(0.015625)"/>
       <path id="DejaVuSans-62" d="M 3116 1747 
Q 3116 2381 2855 2742 
Q 2594 3103 2138 3103 
Q 1681 3103 1420 2742 
Q 1159 2381 1159 1747 
Q 1159 1113 1420 752 
Q 1681 391 2138 391 
Q 2594 391 2855 752 
Q 3116 1113 3116 1747 
z
M 1159 2969 
Q 1341 3281 1617 3432 
Q 1894 3584 2278 3584 
Q 2916 3584 3314 3078 
Q 3713 2572 3713 1747 
Q 3713 922 3314 415 
Q 2916 -91 2278 -91 
Q 1894 -91 1617 61 
Q 1341 213 1159 525 
L 1159 0 
L 581 0 
L 581 4863 
L 1159 4863 
L 1159 2969 
z
" transform="scale(0.015625)"/>
       <path id="DejaVuSans-77" d="M 269 3500 
L 844 3500 
L 1563 769 
L 2278 3500 
L 2956 3500 
L 3675 769 
L 4391 3500 
L 4966 3500 
L 4050 0 
L 3372 0 
L 2619 2869 
L 1863 0 
L 1184 0 
L 269 3500 
z
" transform="scale(0.015625)"/>
       <path id="DejaVuSans-28" d="M 1984 4856 
Q 1566 4138 1362 3434 
Q 1159 2731 1159 2009 
Q 1159 1288 1364 580 
Q 1569 -128 1984 -844 
L 1484 -844 
Q 1016 -109 783 600 
Q 550 1309 550 2009 
Q 550 2706 781 3412 
Q 1013 4119 1484 4856 
L 1984 4856 
z
" transform="scale(0.015625)"/>
       <path id="DejaVuSans-6f" d="M 1959 3097 
Q 1497 3097 1228 2736 
Q 959 2375 959 1747 
Q 959 1119 1226 758 
Q 1494 397 1959 397 
Q 2419 397 2687 759 
Q 2956 1122 2956 1747 
Q 2956 2369 2687 2733 
Q 2419 3097 1959 3097 
z
M 1959 3584 
Q 2709 3584 3137 3096 
Q 3566 2609 3566 1747 
Q 3566 888 3137 398 
Q 2709 -91 1959 -91 
Q 1206 -91 779 398 
Q 353 888 353 1747 
Q 353 2609 779 3096 
Q 1206 3584 1959 3584 
z
" transform="scale(0.015625)"/>
       <path id="DejaVuSans-67" d="M 2906 1791 
Q 2906 2416 2648 2759 
Q 2391 3103 1925 3103 
Q 1463 3103 1205 2759 
Q 947 2416 947 1791 
Q 947 1169 1205 825 
Q 1463 481 1925 481 
Q 2391 481 2648 825 
Q 2906 1169 2906 1791 
z
M 3481 434 
Q 3481 -459 3084 -895 
Q 2688 -1331 1869 -1331 
Q 1566 -1331 1297 -1286 
Q 1028 -1241 775 -1147 
L 775 -588 
Q 1028 -725 1275 -790 
Q 1522 -856 1778 -856 
Q 2344 -856 2625 -561 
Q 2906 -266 2906 331 
L 2906 616 
Q 2728 306 2450 153 
Q 2172 0 1784 0 
Q 1141 0 747 490 
Q 353 981 353 1791 
Q 353 2603 747 3093 
Q 1141 3584 1784 3584 
Q 2172 3584 2450 3431 
Q 2728 3278 2906 2969 
L 2906 3500 
L 3481 3500 
L 3481 434 
z
" transform="scale(0.015625)"/>
       <path id="DejaVuSans-2c" d="M 750 794 
L 1409 794 
L 1409 256 
L 897 -744 
L 494 -744 
L 750 256 
L 750 794 
z
" transform="scale(0.015625)"/>
       <path id="DejaVuSans-6d" d="M 3328 2828 
Q 3544 3216 3844 3400 
Q 4144 3584 4550 3584 
Q 5097 3584 5394 3201 
Q 5691 2819 5691 2113 
L 5691 0 
L 5113 0 
L 5113 2094 
Q 5113 2597 4934 2840 
Q 4756 3084 4391 3084 
Q 3944 3084 3684 2787 
Q 3425 2491 3425 1978 
L 3425 0 
L 2847 0 
L 2847 2094 
Q 2847 2600 2669 2842 
Q 2491 3084 2119 3084 
Q 1678 3084 1418 2786 
Q 1159 2488 1159 1978 
L 1159 0 
L 581 0 
L 581 3500 
L 1159 3500 
L 1159 2956 
Q 1356 3278 1631 3431 
Q 1906 3584 2284 3584 
Q 2666 3584 2933 3390 
Q 3200 3197 3328 2828 
z
" transform="scale(0.015625)"/>
       <path id="DejaVuSans-29" d="M 513 4856 
L 1013 4856 
Q 1481 4119 1714 3412 
Q 1947 2706 1947 2009 
Q 1947 1309 1714 600 
Q 1481 -109 1013 -844 
L 513 -844 
Q 928 -128 1133 580 
Q 1338 1288 1338 2009 
Q 1338 2731 1133 3434 
Q 928 4138 513 4856 
z
" transform="scale(0.015625)"/>
      </defs>
      <use xlink:href="#DejaVuSans-44"/>
      <use xlink:href="#DejaVuSans-69" transform="translate(77.001953 0)"/>
      <use xlink:href="#DejaVuSans-73" transform="translate(104.785156 0)"/>
      <use xlink:href="#DejaVuSans-74" transform="translate(156.884766 0)"/>
      <use xlink:href="#DejaVuSans-61" transform="translate(196.09375 0)"/>
      <use xlink:href="#DejaVuSans-6e" transform="translate(257.373047 0)"/>
      <use xlink:href="#DejaVuSans-63" transform="translate(320.751953 0)"/>
      <use xlink:href="#DejaVuSans-65" transform="translate(375.732422 0)"/>
      <use xlink:href="#DejaVuSans-20" transform="translate(437.255859 0)"/>
      <use xlink:href="#DejaVuSans-62" transform="translate(469.042969 0)"/>
      <use xlink:href="#DejaVuSans-65" transform="translate(532.519531 0)"/>
      <use xlink:href="#DejaVuSans-74" transform="translate(594.042969 0)"/>
      <use xlink:href="#DejaVuSans-77" transform="translate(633.251953 0)"/>
      <use xlink:href="#DejaVuSans-65" transform="translate(715.039062 0)"/>
      <use xlink:href="#DejaVuSans-65" transform="translate(776.5625 0)"/>
      <use xlink:href="#DejaVuSans-6e" transform="translate(838.085938 0)"/>
      <use xlink:href="#DejaVuSans-6e" transform="translate(901.464844 0)"/>
      <use xlink:href="#DejaVuSans-65" transform="translate(964.84375 0)"/>
      <use xlink:href="#DejaVuSans-73" transform="translate(1026.367188 0)"/>
      <use xlink:href="#DejaVuSans-73" transform="translate(1078.466797 0)"/>
      <use xlink:href="#DejaVuSans-20" transform="translate(1130.566406 0)"/>
      <use xlink:href="#DejaVuSans-28" transform="translate(1162.353516 0)"/>
      <use xlink:href="#DejaVuSans-6c" transform="translate(1201.367188 0)"/>
      <use xlink:href="#DejaVuSans-6f" transform="translate(1229.150391 0)"/>
      <use xlink:href="#DejaVuSans-67" transform="translate(1290.332031 0)"/>
      <use xlink:href="#DejaVuSans-2c" transform="translate(1353.808594 0)"/>
      <use xlink:href="#DejaVuSans-20" transform="translate(1385.595703 0)"/>
      <use xlink:href="#DejaVuSans-6d" transform="translate(1417.382812 0)"/>
      <use xlink:href="#DejaVuSans-65" transform="translate(1514.794922 0)"/>
      <use xlink:href="#DejaVuSans-64" transform="translate(1576.318359 0)"/>
      <use xlink:href="#DejaVuSans-69" transform="translate(1639.794922 0)"/>
      <use xlink:href="#DejaVuSans-61" transform="translate(1667.578125 0)"/>
      <use xlink:href="#DejaVuSans-6e" transform="translate(1728.857422 0)"/>
      <use xlink:href="#DejaVuSans-20" transform="translate(1792.236328 0)"/>
      <use xlink:href="#DejaVuSans-63" transform="translate(1824.023438 0)"/>
      <use xlink:href="#DejaVuSans-75" transform="translate(1879.003906 0)"/>
      <use xlink:href="#DejaVuSans-74" transform="translate(1942.382812 0)"/>
      <use xlink:href="#DejaVuSans-29" transform="translate(1981.591797 0)"/>
     </g>
    </g>
   </g>
   <g id="matplotlib.axis_4">
    <g id="ytick_6">
     <g id="line2d_16">
      <path d="M 248.919823 180.707885 
L 443.959552 180.707885 
" clip-path="url(#pf8458a8d35)" style="fill: none; stroke: #b0b0b0; stroke-width: 0.8; stroke-linecap: square"/>
     </g>
    </g>
    <g id="ytick_7">
     <g id="line2d_17">
      <path d="M 248.919823 140.060505 
L 443.959552 140.060505 
" clip-path="url(#pf8458a8d35)" style="fill: none; stroke: #b0b0b0; stroke-width: 0.8; stroke-linecap: square"/>
     </g>
    </g>
    <g id="ytick_8">
     <g id="line2d_18">
      <path d="M 248.919823 99.413125 
L 443.959552 99.413125 
" clip-path="url(#pf8458a8d35)" style="fill: none; stroke: #b0b0b0; stroke-width: 0.8; stroke-linecap: square"/>
     </g>
    </g>
    <g id="ytick_9">
     <g id="line2d_19">
      <path d="M 248.919823 58.765745 
L 443.959552 58.765745 
" clip-path="url(#pf8458a8d35)" style="fill: none; stroke: #b0b0b0; stroke-width: 0.8; stroke-linecap: square"/>
     </g>
    </g>
    <g id="ytick_10">
     <g id="line2d_20">
      <path d="M 248.919823 18.118365 
L 443.959552 18.118365 
" clip-path="url(#pf8458a8d35)" style="fill: none; stroke: #b0b0b0; stroke-width: 0.8; stroke-linecap: square"/>
     </g>
    </g>
   </g>
   <g id="FillBetweenPolyCollection_3">
    <defs>
     <path id="m6102e5987a" d="M 297.727559 -23.849732 
L 297.631952 -23.849732 
L 297.602516 -25.670656 
L 297.560641 -27.491579 
L 297.50412 -29.312502 
L 297.431566 -31.133426 
L 297.342657 -32.954349 
L 297.238056 -34.775273 
L 297.118932 -36.596196 
L 296.986181 -38.41712 
L 296.839585 -40.238043 
L 296.677197 -42.058967 
L 296.495179 -43.87989 
L 296.288121 -45.700813 
L 296.049697 -47.521737 
L 295.773426 -49.34266 
L 295.45339 -51.163584 
L 295.084921 -52.984507 
L 294.66535 -54.805431 
L 294.194828 -56.626354 
L 293.676943 -58.447278 
L 293.118543 -60.268201 
L 292.528126 -62.089124 
L 291.912513 -63.910048 
L 291.272296 -65.730971 
L 290.59745 -67.551895 
L 289.865081 -69.372818 
L 289.041131 -71.193742 
L 288.086826 -73.014665 
L 286.968938 -74.835589 
L 285.671215 -76.656512 
L 284.203251 -78.477435 
L 282.603318 -80.298359 
L 280.933295 -82.119282 
L 279.266362 -83.940206 
L 277.67068 -85.761129 
L 276.19387 -87.582053 
L 274.853048 -89.402976 
L 273.633511 -91.2239 
L 272.496428 -93.044823 
L 271.393032 -94.865747 
L 270.280875 -96.68667 
L 269.137231 -98.507593 
L 267.965839 -100.328517 
L 266.79547 -102.14944 
L 265.671344 -103.970364 
L 264.642431 -105.791287 
L 263.748585 -107.612211 
L 263.011036 -109.433134 
L 262.428471 -111.254058 
L 261.979243 -113.074981 
L 261.628691 -114.895904 
L 261.339372 -116.716828 
L 261.081483 -118.537751 
L 260.840735 -120.358675 
L 260.621681 -122.179598 
L 260.445766 -124.000522 
L 260.344947 -125.821445 
L 260.35311 -127.642369 
L 260.498122 -129.463292 
L 260.796939 -131.284215 
L 261.254912 -133.105139 
L 261.868719 -134.926062 
L 262.631081 -136.746986 
L 263.534957 -138.567909 
L 264.575445 -140.388833 
L 265.748789 -142.209756 
L 267.049174 -144.03068 
L 268.464792 -145.851603 
L 269.97485 -147.672526 
L 271.548721 -149.49345 
L 273.147756 -151.314373 
L 274.729463 -153.135297 
L 276.253187 -154.95622 
L 277.686077 -156.777144 
L 279.008059 -158.598067 
L 280.214776 -160.418991 
L 281.317922 -162.239914 
L 282.342903 -164.060837 
L 283.324233 -165.881761 
L 284.299344 -167.702684 
L 285.301707 -169.523608 
L 286.354312 -171.344531 
L 287.464724 -173.165455 
L 288.622943 -174.986378 
L 289.802881 -176.807302 
L 290.967435 -178.628225 
L 292.076029 -180.449148 
L 293.092617 -182.270072 
L 293.991926 -184.090995 
L 294.762358 -185.911919 
L 295.405217 -187.732842 
L 295.931169 -189.553766 
L 296.355631 -191.374689 
L 296.694717 -193.195613 
L 296.962762 -195.016536 
L 297.171543 -196.837459 
L 297.330678 -198.658383 
L 297.448457 -200.479306 
L 297.532491 -202.30023 
L 297.589949 -204.121153 
L 297.769561 -204.121153 
L 297.769561 -204.121153 
L 297.82702 -202.30023 
L 297.911053 -200.479306 
L 298.028832 -198.658383 
L 298.187968 -196.837459 
L 298.396749 -195.016536 
L 298.664793 -193.195613 
L 299.00388 -191.374689 
L 299.428341 -189.553766 
L 299.954294 -187.732842 
L 300.597153 -185.911919 
L 301.367585 -184.090995 
L 302.266894 -182.270072 
L 303.283482 -180.449148 
L 304.392076 -178.628225 
L 305.55663 -176.807302 
L 306.736568 -174.986378 
L 307.894787 -173.165455 
L 309.005199 -171.344531 
L 310.057803 -169.523608 
L 311.060167 -167.702684 
L 312.035278 -165.881761 
L 313.016607 -164.060837 
L 314.041589 -162.239914 
L 315.144735 -160.418991 
L 316.351452 -158.598067 
L 317.673433 -156.777144 
L 319.106324 -154.95622 
L 320.630048 -153.135297 
L 322.211754 -151.314373 
L 323.81079 -149.49345 
L 325.384661 -147.672526 
L 326.894718 -145.851603 
L 328.310337 -144.03068 
L 329.610721 -142.209756 
L 330.784065 -140.388833 
L 331.824553 -138.567909 
L 332.72843 -136.746986 
L 333.490792 -134.926062 
L 334.104599 -133.105139 
L 334.562572 -131.284215 
L 334.861389 -129.463292 
L 335.0064 -127.642369 
L 335.014564 -125.821445 
L 334.913745 -124.000522 
L 334.73783 -122.179598 
L 334.518776 -120.358675 
L 334.278028 -118.537751 
L 334.020139 -116.716828 
L 333.73082 -114.895904 
L 333.380267 -113.074981 
L 332.93104 -111.254058 
L 332.348474 -109.433134 
L 331.610926 -107.612211 
L 330.71708 -105.791287 
L 329.688167 -103.970364 
L 328.56404 -102.14944 
L 327.393672 -100.328517 
L 326.22228 -98.507593 
L 325.078635 -96.68667 
L 323.966479 -94.865747 
L 322.863083 -93.044823 
L 321.726 -91.2239 
L 320.506463 -89.402976 
L 319.165641 -87.582053 
L 317.688831 -85.761129 
L 316.093149 -83.940206 
L 314.426216 -82.119282 
L 312.756193 -80.298359 
L 311.15626 -78.477435 
L 309.688296 -76.656512 
L 308.390573 -74.835589 
L 307.272685 -73.014665 
L 306.31838 -71.193742 
L 305.49443 -69.372818 
L 304.76206 -67.551895 
L 304.087215 -65.730971 
L 303.446998 -63.910048 
L 302.831385 -62.089124 
L 302.240968 -60.268201 
L 301.682568 -58.447278 
L 301.164683 -56.626354 
L 300.694161 -54.805431 
L 300.27459 -52.984507 
L 299.906121 -51.163584 
L 299.586085 -49.34266 
L 299.309813 -47.521737 
L 299.071389 -45.700813 
L 298.864332 -43.87989 
L 298.682313 -42.058967 
L 298.519926 -40.238043 
L 298.37333 -38.41712 
L 298.240579 -36.596196 
L 298.121455 -34.775273 
L 298.016854 -32.954349 
L 297.927945 -31.133426 
L 297.855391 -29.312502 
L 297.79887 -27.491579 
L 297.756995 -25.670656 
L 297.727559 -23.849732 
z
" style="stroke: #747474; stroke-width: 1.25"/>
    </defs>
    <g clip-path="url(#pf8458a8d35)">
     <use xlink:href="#m6102e5987a" x="0" y="216" style="fill: #a7d4dc; stroke: #747474; stroke-width: 1.25"/>
    </g>
   </g>
   <g id="FillBetweenPolyCollection_4">
    <defs>
     <path id="m10335db3ba" d="M 395.272788 -27.175569 
L 395.126451 -27.175569 
L 395.083361 -28.973975 
L 395.022625 -30.77238 
L 394.941097 -32.570786 
L 394.836723 -34.369192 
L 394.708961 -36.167598 
L 394.55881 -37.966004 
L 394.388294 -39.76441 
L 394.199421 -41.562816 
L 393.992858 -43.361222 
L 393.766785 -45.159628 
L 393.516406 -46.958033 
L 393.234528 -48.756439 
L 392.913275 -50.554845 
L 392.546556 -52.353251 
L 392.13256 -54.151657 
L 391.675293 -55.950063 
L 391.184328 -57.748469 
L 390.672404 -59.546875 
L 390.151257 -61.345281 
L 389.626833 -63.143686 
L 389.095541 -64.942092 
L 388.543128 -66.740498 
L 387.947064 -68.538904 
L 387.28212 -70.33731 
L 386.527539 -72.135716 
L 385.673402 -73.934122 
L 384.723843 -75.732528 
L 383.695835 -77.530934 
L 382.61391 -79.329339 
L 381.502881 -81.127745 
L 380.381476 -82.926151 
L 379.259475 -84.724557 
L 378.13944 -86.522963 
L 377.022118 -88.321369 
L 375.912859 -90.119775 
L 374.825855 -91.918181 
L 373.783848 -93.716587 
L 372.812911 -95.514992 
L 371.934144 -97.313398 
L 371.155661 -99.111804 
L 370.46843 -100.91021 
L 369.84816 -102.708616 
L 369.263114 -104.507022 
L 368.685245 -106.305428 
L 368.100514 -108.103834 
L 367.514281 -109.90224 
L 366.949207 -111.700645 
L 366.435847 -113.499051 
L 365.998791 -115.297457 
L 365.643048 -117.095863 
L 365.34554 -118.894269 
L 365.055141 -120.692675 
L 364.701987 -122.491081 
L 364.21393 -124.289487 
L 363.535706 -126.087893 
L 362.645559 -127.886298 
L 361.564842 -129.684704 
L 360.358185 -131.48311 
L 359.124543 -133.281516 
L 357.981744 -135.079922 
L 357.048426 -136.878328 
L 356.427187 -138.676734 
L 356.191674 -140.47514 
L 356.378865 -142.273546 
L 356.986683 -144.071951 
L 357.976481 -145.870357 
L 359.279818 -147.668763 
L 360.808779 -149.467169 
L 362.468682 -151.265575 
L 364.171297 -153.063981 
L 365.846277 -154.862387 
L 367.448639 -156.660793 
L 368.961059 -158.459199 
L 370.391137 -160.257604 
L 371.764973 -162.05601 
L 373.119009 -163.854416 
L 374.491882 -165.652822 
L 375.917388 -167.451228 
L 377.418975 -169.249634 
L 379.005859 -171.04804 
L 380.670869 -172.846446 
L 382.39034 -174.644852 
L 384.126347 -176.443257 
L 385.831316 -178.241663 
L 387.454438 -180.040069 
L 388.948737 -181.838475 
L 390.277355 -183.636881 
L 391.417747 -185.435287 
L 392.36306 -187.233693 
L 393.120734 -189.032099 
L 393.709044 -190.830505 
L 394.152701 -192.62891 
L 394.478588 -194.427316 
L 394.712437 -196.225722 
L 394.876767 -198.024128 
L 394.990019 -199.822534 
L 395.066574 -201.62094 
L 395.117261 -203.419346 
L 395.150046 -205.217752 
L 395.249193 -205.217752 
L 395.249193 -205.217752 
L 395.281978 -203.419346 
L 395.332665 -201.62094 
L 395.40922 -199.822534 
L 395.522472 -198.024128 
L 395.686802 -196.225722 
L 395.920651 -194.427316 
L 396.246538 -192.62891 
L 396.690195 -190.830505 
L 397.278505 -189.032099 
L 398.036179 -187.233693 
L 398.981492 -185.435287 
L 400.121884 -183.636881 
L 401.450502 -181.838475 
L 402.944802 -180.040069 
L 404.567923 -178.241663 
L 406.272893 -176.443257 
L 408.008899 -174.644852 
L 409.72837 -172.846446 
L 411.393381 -171.04804 
L 412.980264 -169.249634 
L 414.481852 -167.451228 
L 415.907358 -165.652822 
L 417.280231 -163.854416 
L 418.634266 -162.05601 
L 420.008102 -160.257604 
L 421.43818 -158.459199 
L 422.9506 -156.660793 
L 424.552962 -154.862387 
L 426.227942 -153.063981 
L 427.930557 -151.265575 
L 429.59046 -149.467169 
L 431.119422 -147.668763 
L 432.422758 -145.870357 
L 433.412556 -144.071951 
L 434.020374 -142.273546 
L 434.207565 -140.47514 
L 433.972052 -138.676734 
L 433.350814 -136.878328 
L 432.417495 -135.079922 
L 431.274696 -133.281516 
L 430.041054 -131.48311 
L 428.834397 -129.684704 
L 427.75368 -127.886298 
L 426.863534 -126.087893 
L 426.185309 -124.289487 
L 425.697252 -122.491081 
L 425.344098 -120.692675 
L 425.053699 -118.894269 
L 424.756192 -117.095863 
L 424.400448 -115.297457 
L 423.963392 -113.499051 
L 423.450032 -111.700645 
L 422.884958 -109.90224 
L 422.298725 -108.103834 
L 421.713995 -106.305428 
L 421.136125 -104.507022 
L 420.55108 -102.708616 
L 419.93081 -100.91021 
L 419.243578 -99.111804 
L 418.465095 -97.313398 
L 417.586328 -95.514992 
L 416.615391 -93.716587 
L 415.573384 -91.918181 
L 414.48638 -90.119775 
L 413.377121 -88.321369 
L 412.259799 -86.522963 
L 411.139764 -84.724557 
L 410.017763 -82.926151 
L 408.896359 -81.127745 
L 407.78533 -79.329339 
L 406.703404 -77.530934 
L 405.675396 -75.732528 
L 404.725838 -73.934122 
L 403.8717 -72.135716 
L 403.117119 -70.33731 
L 402.452175 -68.538904 
L 401.856111 -66.740498 
L 401.303698 -64.942092 
L 400.772406 -63.143686 
L 400.247982 -61.345281 
L 399.726835 -59.546875 
L 399.214911 -57.748469 
L 398.723947 -55.950063 
L 398.26668 -54.151657 
L 397.852683 -52.353251 
L 397.485964 -50.554845 
L 397.164711 -48.756439 
L 396.882834 -46.958033 
L 396.632454 -45.159628 
L 396.406381 -43.361222 
L 396.199819 -41.562816 
L 396.010945 -39.76441 
L 395.840429 -37.966004 
L 395.690279 -36.167598 
L 395.562516 -34.369192 
L 395.458142 -32.570786 
L 395.376614 -30.77238 
L 395.315878 -28.973975 
L 395.272788 -27.175569 
z
" style="stroke: #747474; stroke-width: 1.25"/>
    </defs>
    <g clip-path="url(#pf8458a8d35)">
     <use xlink:href="#m10335db3ba" x="0" y="216" style="fill: #a7d4dc; stroke: #747474; stroke-width: 1.25"/>
    </g>
   </g>
   <g id="line2d_21">
    <path d="M 297.679755 166.188641 
L 297.679755 27.564816 
" clip-path="url(#pf8458a8d35)" style="fill: none; stroke: #747474; stroke-width: 1.875; stroke-linecap: square"/>
   </g>
   <g id="line2d_22">
    <path d="M 297.679755 113.306399 
L 297.679755 73.931282 
" clip-path="url(#pf8458a8d35)" style="fill: none; stroke: #747474; stroke-width: 5.625; stroke-linecap: square"/>
   </g>
   <g id="line2d_23">
    <path d="M 297.679755 93.031486 
" clip-path="url(#pf8458a8d35)" style="fill: none; stroke: #747474; stroke-width: 1.5; stroke-linecap: square"/>
    <g clip-path="url(#pf8458a8d35)">
     <use xlink:href="#md7bf87f7e4" x="297.679755" y="93.031486" style="fill: #ffffff; stroke: #ffffff; stroke-width: 1.125"/>
    </g>
   </g>
   <g id="line2d_24">
    <path d="M 395.19962 172.464596 
L 395.19962 27.142083 
" clip-path="url(#pf8458a8d35)" style="fill: none; stroke: #747474; stroke-width: 1.875; stroke-linecap: square"/>
   </g>
   <g id="line2d_25">
    <path d="M 395.19962 110.96511 
L 395.19962 68.569893 
" clip-path="url(#pf8458a8d35)" style="fill: none; stroke: #747474; stroke-width: 5.625; stroke-linecap: square"/>
   </g>
   <g id="line2d_26">
    <path d="M 395.19962 85.137765 
" clip-path="url(#pf8458a8d35)" style="fill: none; stroke: #747474; stroke-width: 1.5; stroke-linecap: square"/>
    <g clip-path="url(#pf8458a8d35)">
     <use xlink:href="#md7bf87f7e4" x="395.19962" y="85.137765" style="fill: #ffffff; stroke: #ffffff; stroke-width: 1.125"/>
    </g>
   </g>
   <g id="patch_5">
    <path d="M 248.919823 180.707885 
L 248.919823 18.118365 
" style="fill: none; stroke: #000000; stroke-width: 0.8; stroke-linejoin: miter; stroke-linecap: square"/>
   </g>
   <g id="text_13">
    <!-- Helsinki -->
    <g transform="translate(322.8325 12.118365) scale(0.12 -0.12)">
     <defs>
      <path id="DejaVuSans-48" d="M 628 4666 
L 1259 4666 
L 1259 2753 
L 3553 2753 
L 3553 4666 
L 4184 4666 
L 4184 0 
L 3553 0 
L 3553 2222 
L 1259 2222 
L 1259 0 
L 628 0 
L 628 4666 
z
" transform="scale(0.015625)"/>
      <path id="DejaVuSans-6b" d="M 581 4863 
L 1159 4863 
L 1159 1991 
L 2875 3500 
L 3609 3500 
L 1753 1863 
L 3688 0 
L 2938 0 
L 1159 1709 
L 1159 0 
L 581 0 
L 581 4863 
z
" transform="scale(0.015625)"/>
     </defs>
     <use xlink:href="#DejaVuSans-48"/>
     <use xlink:href="#DejaVuSans-65" transform="translate(75.195312 0)"/>
     <use xlink:href="#DejaVuSans-6c" transform="translate(136.71875 0)"/>
     <use xlink:href="#DejaVuSans-73" transform="translate(164.501953 0)"/>
     <use xlink:href="#DejaVuSans-69" transform="translate(216.601562 0)"/>
     <use xlink:href="#DejaVuSans-6e" transform="translate(244.384766 0)"/>
     <use xlink:href="#DejaVuSans-6b" transform="translate(307.763672 0)"/>
     <use xlink:href="#DejaVuSans-69" transform="translate(365.673828 0)"/>
    </g>
   </g>
  </g>
  <g id="axes_3">
   <g id="patch_6">
    <path d="M 449.960032 180.707885 
L 644.99976 180.707885 
L 644.99976 18.118365 
L 449.960032 18.118365 
z
" style="fill: #ffffff"/>
   </g>
   <g id="matplotlib.axis_5">
    <g id="xtick_5">
     <g id="line2d_27">
      <g>
       <use xlink:href="#mbcb02aef95" x="498.719964" y="180.707885" style="stroke: #000000; stroke-width: 0.8"/>
      </g>
     </g>
     <g id="text_14">
      <!-- 1 -->
      <g transform="translate(495.538714 195.306322) scale(0.1 -0.1)">
       <use xlink:href="#DejaVuSans-31"/>
      </g>
     </g>
    </g>
    <g id="xtick_6">
     <g id="line2d_28">
      <g>
       <use xlink:href="#mbcb02aef95" x="596.239828" y="180.707885" style="stroke: #000000; stroke-width: 0.8"/>
      </g>
     </g>
     <g id="text_15">
      <!-- 2 -->
      <g transform="translate(593.058578 195.306322) scale(0.1 -0.1)">
       <use xlink:href="#DejaVuSans-32"/>
      </g>
     </g>
    </g>
   </g>
   <g id="matplotlib.axis_6">
    <g id="ytick_11">
     <g id="line2d_29">
      <path d="M 449.960032 180.707885 
L 644.99976 180.707885 
" clip-path="url(#p0927b8b8ce)" style="fill: none; stroke: #b0b0b0; stroke-width: 0.8; stroke-linecap: square"/>
     </g>
    </g>
    <g id="ytick_12">
     <g id="line2d_30">
      <path d="M 449.960032 140.060505 
L 644.99976 140.060505 
" clip-path="url(#p0927b8b8ce)" style="fill: none; stroke: #b0b0b0; stroke-width: 0.8; stroke-linecap: square"/>
     </g>
    </g>
    <g id="ytick_13">
     <g id="line2d_31">
      <path d="M 449.960032 99.413125 
L 644.99976 99.413125 
" clip-path="url(#p0927b8b8ce)" style="fill: none; stroke: #b0b0b0; stroke-width: 0.8; stroke-linecap: square"/>
     </g>
    </g>
    <g id="ytick_14">
     <g id="line2d_32">
      <path d="M 449.960032 58.765745 
L 644.99976 58.765745 
" clip-path="url(#p0927b8b8ce)" style="fill: none; stroke: #b0b0b0; stroke-width: 0.8; stroke-linecap: square"/>
     </g>
    </g>
    <g id="ytick_15">
     <g id="line2d_33">
      <path d="M 449.960032 18.118365 
L 644.99976 18.118365 
" clip-path="url(#p0927b8b8ce)" style="fill: none; stroke: #b0b0b0; stroke-width: 0.8; stroke-linecap: square"/>
     </g>
    </g>
   </g>
   <g id="FillBetweenPolyCollection_5">
    <defs>
     <path id="m0a4bdcd8ef" d="M 498.805191 -27.555969 
L 498.634736 -27.555969 
L 498.567655 -29.321727 
L 498.460213 -31.087485 
L 498.296719 -32.853242 
L 498.060107 -34.619 
L 497.733951 -36.384758 
L 497.304832 -38.150516 
L 496.764403 -39.916274 
L 496.110437 -41.682031 
L 495.346497 -43.447789 
L 494.480394 -45.213547 
L 493.522252 -46.979305 
L 492.483171 -48.745063 
L 491.375113 -50.51082 
L 490.211769 -52.276578 
L 489.009334 -54.042336 
L 487.785929 -55.808094 
L 486.559122 -57.573852 
L 485.342289 -59.339609 
L 484.141622 -61.105367 
L 482.955637 -62.871125 
L 481.777908 -64.636883 
L 480.602022 -66.402641 
L 479.426531 -68.168398 
L 478.257536 -69.934156 
L 477.107754 -71.699914 
L 475.99255 -73.465672 
L 474.924697 -75.231429 
L 473.909924 -76.997187 
L 472.944679 -78.762945 
L 472.016544 -80.528703 
L 471.1069 -82.294461 
L 470.195117 -84.060218 
L 469.263542 -85.825976 
L 468.302545 -87.591734 
L 467.314714 -89.357492 
L 466.316967 -91.12325 
L 465.339333 -92.889007 
L 464.41975 -94.654765 
L 463.595473 -96.420523 
L 462.893207 -98.186281 
L 462.32109 -99.952039 
L 461.865621 -101.717796 
L 461.495271 -103.483554 
L 461.170322 -105.249312 
L 460.856169 -107.01507 
L 460.535948 -108.780828 
L 460.218389 -110.546585 
L 459.938273 -112.312343 
L 459.749358 -114.078101 
L 459.712018 -115.843859 
L 459.879501 -117.609616 
L 460.286824 -119.375374 
L 460.945165 -121.141132 
L 461.842432 -122.90689 
L 462.948607 -124.672648 
L 464.223116 -126.438405 
L 465.621429 -128.204163 
L 467.099164 -129.969921 
L 468.613573 -131.735679 
L 470.123597 -133.501437 
L 471.590181 -135.267194 
L 472.97805 -137.032952 
L 474.25911 -138.79871 
L 475.416577 -140.564468 
L 476.448423 -142.330226 
L 477.368859 -144.095983 
L 478.207163 -145.861741 
L 479.003814 -147.627499 
L 479.804449 -149.393257 
L 480.652479 -151.159015 
L 481.581595 -152.924772 
L 482.609606 -154.69053 
L 483.735127 -156.456288 
L 484.938154 -158.222046 
L 486.184641 -159.987804 
L 487.433999 -161.753561 
L 488.647464 -163.519319 
L 489.79501 -165.285077 
L 490.859002 -167.050835 
L 491.833953 -168.816592 
L 492.723129 -170.58235 
L 493.533689 -172.348108 
L 494.272325 -174.113866 
L 494.942808 -175.879624 
L 495.545866 -177.645381 
L 496.080799 -179.411139 
L 496.547679 -181.176897 
L 496.948958 -182.942655 
L 497.289852 -184.708413 
L 497.577529 -186.47417 
L 497.819638 -188.239928 
L 498.022947 -190.005686 
L 498.192596 -191.771444 
L 498.332162 -193.537202 
L 498.444271 -195.302959 
L 498.531381 -197.068717 
L 498.59634 -198.834475 
L 498.64255 -200.600233 
L 498.673775 -202.365991 
L 498.766152 -202.365991 
L 498.766152 -202.365991 
L 498.797378 -200.600233 
L 498.843588 -198.834475 
L 498.908546 -197.068717 
L 498.995656 -195.302959 
L 499.107766 -193.537202 
L 499.247331 -191.771444 
L 499.416981 -190.005686 
L 499.620289 -188.239928 
L 499.862399 -186.47417 
L 500.150075 -184.708413 
L 500.49097 -182.942655 
L 500.892248 -181.176897 
L 501.359128 -179.411139 
L 501.894062 -177.645381 
L 502.497119 -175.879624 
L 503.167602 -174.113866 
L 503.906238 -172.348108 
L 504.716799 -170.58235 
L 505.605974 -168.816592 
L 506.580925 -167.050835 
L 507.644917 -165.285077 
L 508.792464 -163.519319 
L 510.005928 -161.753561 
L 511.255286 -159.987804 
L 512.501774 -158.222046 
L 513.704801 -156.456288 
L 514.830322 -154.69053 
L 515.858333 -152.924772 
L 516.787448 -151.159015 
L 517.635479 -149.393257 
L 518.436113 -147.627499 
L 519.232765 -145.861741 
L 520.071068 -144.095983 
L 520.991505 -142.330226 
L 522.023351 -140.564468 
L 523.180818 -138.79871 
L 524.461877 -137.032952 
L 525.849746 -135.267194 
L 527.31633 -133.501437 
L 528.826355 -131.735679 
L 530.340764 -129.969921 
L 531.818499 -128.204163 
L 533.216811 -126.438405 
L 534.491321 -124.672648 
L 535.597496 -122.90689 
L 536.494763 -121.141132 
L 537.153104 -119.375374 
L 537.560427 -117.609616 
L 537.727909 -115.843859 
L 537.69057 -114.078101 
L 537.501654 -112.312343 
L 537.221539 -110.546585 
L 536.903979 -108.780828 
L 536.583759 -107.01507 
L 536.269605 -105.249312 
L 535.944656 -103.483554 
L 535.574307 -101.717796 
L 535.118837 -99.952039 
L 534.54672 -98.186281 
L 533.844454 -96.420523 
L 533.020178 -94.654765 
L 532.100594 -92.889007 
L 531.122961 -91.12325 
L 530.125214 -89.357492 
L 529.137383 -87.591734 
L 528.176386 -85.825976 
L 527.24481 -84.060218 
L 526.333028 -82.294461 
L 525.423383 -80.528703 
L 524.495248 -78.762945 
L 523.530004 -76.997187 
L 522.51523 -75.231429 
L 521.447378 -73.465672 
L 520.332174 -71.699914 
L 519.182392 -69.934156 
L 518.013396 -68.168398 
L 516.837905 -66.402641 
L 515.66202 -64.636883 
L 514.48429 -62.871125 
L 513.298306 -61.105367 
L 512.097638 -59.339609 
L 510.880805 -57.573852 
L 509.653998 -55.808094 
L 508.430594 -54.042336 
L 507.228158 -52.276578 
L 506.064814 -50.51082 
L 504.956757 -48.745063 
L 503.917676 -46.979305 
L 502.959534 -45.213547 
L 502.09343 -43.447789 
L 501.32949 -41.682031 
L 500.675525 -39.916274 
L 500.135095 -38.150516 
L 499.705977 -36.384758 
L 499.37982 -34.619 
L 499.143208 -32.853242 
L 498.979714 -31.087485 
L 498.872273 -29.321727 
L 498.805191 -27.555969 
z
" style="stroke: #7a7a7a; stroke-width: 1.25"/>
    </defs>
    <g clip-path="url(#p0927b8b8ce)">
     <use xlink:href="#m0a4bdcd8ef" x="0" y="216" style="fill: #f2a5a3; stroke: #7a7a7a; stroke-width: 1.25"/>
    </g>
   </g>
   <g id="FillBetweenPolyCollection_6">
    <defs>
     <path id="mc796c6bbb6" d="M 596.389742 -25.39481 
L 596.089914 -25.39481 
L 595.987738 -27.268935 
L 595.834061 -29.14306 
L 595.613942 -31.017185 
L 595.313394 -32.89131 
L 594.921644 -34.765435 
L 594.433138 -36.63956 
L 593.848603 -38.513684 
L 593.174638 -40.387809 
L 592.421806 -42.261934 
L 591.601762 -44.136059 
L 590.724416 -46.010184 
L 589.79617 -47.884309 
L 588.81986 -49.758434 
L 587.796262 -51.632559 
L 586.7264 -53.506684 
L 585.613588 -55.380809 
L 584.464491 -57.254934 
L 583.289096 -59.129059 
L 582.100109 -61.003183 
L 580.912383 -62.877308 
L 579.742651 -64.751433 
L 578.609158 -66.625558 
L 577.530476 -68.499683 
L 576.522938 -70.373808 
L 575.596903 -72.247933 
L 574.75293 -74.122058 
L 573.979421 -75.996183 
L 573.253091 -77.870308 
L 572.542751 -79.744433 
L 571.815751 -81.618558 
L 571.045476 -83.492682 
L 570.217885 -85.366807 
L 569.335339 -87.240932 
L 568.416666 -89.115057 
L 567.49343 -90.989182 
L 566.603318 -92.863307 
L 565.782252 -94.737432 
L 565.057119 -96.611557 
L 564.44086 -98.485682 
L 563.931129 -100.359807 
L 563.512865 -102.233932 
L 563.164154 -104.108056 
L 562.863838 -105.982181 
L 562.598745 -107.856306 
L 562.368461 -109.730431 
L 562.186259 -111.604556 
L 562.076044 -113.478681 
L 562.066487 -115.352806 
L 562.184348 -117.226931 
L 562.448978 -119.101056 
L 562.869236 -120.975181 
L 563.442896 -122.849306 
L 564.157753 -124.723431 
L 564.993353 -126.597555 
L 565.922699 -128.47168 
L 566.913918 -130.345805 
L 567.932362 -132.21993 
L 568.943574 -134.094055 
L 569.917026 -135.96818 
L 570.829954 -137.842305 
L 571.670147 -139.71643 
L 572.436753 -141.590555 
L 573.13874 -143.46468 
L 573.791555 -145.338805 
L 574.413226 -147.21293 
L 575.021344 -149.087054 
L 575.631876 -150.961179 
L 576.259823 -152.835304 
L 576.920723 -154.709429 
L 577.631529 -156.583554 
L 578.409661 -158.457679 
L 579.269975 -160.331804 
L 580.220495 -162.205929 
L 581.258491 -164.080054 
L 582.368434 -165.954179 
L 583.522712 -167.828304 
L 584.685043 -169.702428 
L 585.81577 -171.576553 
L 586.87788 -173.450678 
L 587.842618 -175.324803 
L 588.693732 -177.198928 
L 589.429633 -179.073053 
L 590.062966 -180.947178 
L 590.617494 -182.821303 
L 591.12278 -184.695428 
L 591.607738 -186.569553 
L 592.094573 -188.443678 
L 592.59461 -190.317803 
L 593.106977 -192.191927 
L 593.620292 -194.066052 
L 594.116613 -195.940177 
L 594.57636 -197.814302 
L 594.982826 -199.688427 
L 595.325237 -201.562552 
L 595.599922 -203.436677 
L 595.809748 -205.310802 
L 595.962401 -207.184927 
L 596.068197 -209.059052 
L 596.13806 -210.933177 
L 596.341595 -210.933177 
L 596.341595 -210.933177 
L 596.411459 -209.059052 
L 596.517255 -207.184927 
L 596.669907 -205.310802 
L 596.879734 -203.436677 
L 597.154419 -201.562552 
L 597.49683 -199.688427 
L 597.903296 -197.814302 
L 598.363043 -195.940177 
L 598.859364 -194.066052 
L 599.372679 -192.191927 
L 599.885046 -190.317803 
L 600.385083 -188.443678 
L 600.871918 -186.569553 
L 601.356876 -184.695428 
L 601.862162 -182.821303 
L 602.41669 -180.947178 
L 603.050023 -179.073053 
L 603.785924 -177.198928 
L 604.637038 -175.324803 
L 605.601776 -173.450678 
L 606.663886 -171.576553 
L 607.794613 -169.702428 
L 608.956944 -167.828304 
L 610.111222 -165.954179 
L 611.221165 -164.080054 
L 612.259161 -162.205929 
L 613.209681 -160.331804 
L 614.069995 -158.457679 
L 614.848127 -156.583554 
L 615.558933 -154.709429 
L 616.219833 -152.835304 
L 616.84778 -150.961179 
L 617.458312 -149.087054 
L 618.066429 -147.21293 
L 618.688101 -145.338805 
L 619.340916 -143.46468 
L 620.042903 -141.590555 
L 620.809509 -139.71643 
L 621.649702 -137.842305 
L 622.562629 -135.96818 
L 623.536082 -134.094055 
L 624.547293 -132.21993 
L 625.565738 -130.345805 
L 626.556957 -128.47168 
L 627.486303 -126.597555 
L 628.321903 -124.723431 
L 629.03676 -122.849306 
L 629.61042 -120.975181 
L 630.030678 -119.101056 
L 630.295308 -117.226931 
L 630.413169 -115.352806 
L 630.403612 -113.478681 
L 630.293396 -111.604556 
L 630.111194 -109.730431 
L 629.880911 -107.856306 
L 629.615818 -105.982181 
L 629.315502 -104.108056 
L 628.966791 -102.233932 
L 628.548527 -100.359807 
L 628.038796 -98.485682 
L 627.422537 -96.611557 
L 626.697404 -94.737432 
L 625.876338 -92.863307 
L 624.986226 -90.989182 
L 624.062989 -89.115057 
L 623.144317 -87.240932 
L 622.261771 -85.366807 
L 621.43418 -83.492682 
L 620.663904 -81.618558 
L 619.936905 -79.744433 
L 619.226565 -77.870308 
L 618.500235 -75.996183 
L 617.726725 -74.122058 
L 616.882753 -72.247933 
L 615.956718 -70.373808 
L 614.949179 -68.499683 
L 613.870497 -66.625558 
L 612.737005 -64.751433 
L 611.567272 -62.877308 
L 610.379547 -61.003183 
L 609.19056 -59.129059 
L 608.015165 -57.254934 
L 606.866068 -55.380809 
L 605.753256 -53.506684 
L 604.683393 -51.632559 
L 603.659796 -49.758434 
L 602.683486 -47.884309 
L 601.75524 -46.010184 
L 600.877894 -44.136059 
L 600.05785 -42.261934 
L 599.305018 -40.387809 
L 598.631053 -38.513684 
L 598.046517 -36.63956 
L 597.558012 -34.765435 
L 597.166262 -32.89131 
L 596.865714 -31.017185 
L 596.645595 -29.14306 
L 596.491918 -27.268935 
L 596.389742 -25.39481 
z
" style="stroke: #7a7a7a; stroke-width: 1.25"/>
    </defs>
    <g clip-path="url(#p0927b8b8ce)">
     <use xlink:href="#mc796c6bbb6" x="0" y="216" style="fill: #f2a5a3; stroke: #7a7a7a; stroke-width: 1.25"/>
    </g>
   </g>
   <g id="line2d_34">
    <path d="M 498.719964 173.814089 
L 498.719964 28.263951 
" clip-path="url(#p0927b8b8ce)" style="fill: none; stroke: #7a7a7a; stroke-width: 1.875; stroke-linecap: square"/>
   </g>
   <g id="line2d_35">
    <path d="M 498.719964 128.19147 
L 498.719964 86.113302 
" clip-path="url(#p0927b8b8ce)" style="fill: none; stroke: #7a7a7a; stroke-width: 5.625; stroke-linecap: square"/>
   </g>
   <g id="line2d_36">
    <path d="M 498.719964 106.680877 
" clip-path="url(#p0927b8b8ce)" style="fill: none; stroke: #7a7a7a; stroke-width: 1.5; stroke-linecap: square"/>
    <g clip-path="url(#p0927b8b8ce)">
     <use xlink:href="#md7bf87f7e4" x="498.719964" y="106.680877" style="fill: #ffffff; stroke: #ffffff; stroke-width: 1.125"/>
    </g>
   </g>
   <g id="line2d_37">
    <path d="M 596.239828 173.976679 
L 596.239828 21.695334 
" clip-path="url(#p0927b8b8ce)" style="fill: none; stroke: #7a7a7a; stroke-width: 1.875; stroke-linecap: square"/>
   </g>
   <g id="line2d_38">
    <path d="M 596.239828 125.809534 
L 596.239828 78.548825 
" clip-path="url(#p0927b8b8ce)" style="fill: none; stroke: #7a7a7a; stroke-width: 5.625; stroke-linecap: square"/>
   </g>
   <g id="line2d_39">
    <path d="M 596.239828 102.421031 
" clip-path="url(#p0927b8b8ce)" style="fill: none; stroke: #7a7a7a; stroke-width: 1.5; stroke-linecap: square"/>
    <g clip-path="url(#p0927b8b8ce)">
     <use xlink:href="#md7bf87f7e4" x="596.239828" y="102.421031" style="fill: #ffffff; stroke: #ffffff; stroke-width: 1.125"/>
    </g>
   </g>
   <g id="patch_7">
    <path d="M 449.960032 180.707885 
L 449.960032 18.118365 
" style="fill: none; stroke: #000000; stroke-width: 0.8; stroke-linejoin: miter; stroke-linecap: square"/>
   </g>
   <g id="text_16">
    <!-- Madrid -->
    <g transform="translate(526.874583 12.118365) scale(0.12 -0.12)">
     <defs>
      <path id="DejaVuSans-4d" d="M 628 4666 
L 1569 4666 
L 2759 1491 
L 3956 4666 
L 4897 4666 
L 4897 0 
L 4281 0 
L 4281 4097 
L 3078 897 
L 2444 897 
L 1241 4097 
L 1241 0 
L 628 0 
L 628 4666 
z
" transform="scale(0.015625)"/>
      <path id="DejaVuSans-72" d="M 2631 2963 
Q 2534 3019 2420 3045 
Q 2306 3072 2169 3072 
Q 1681 3072 1420 2755 
Q 1159 2438 1159 1844 
L 1159 0 
L 581 0 
L 581 3500 
L 1159 3500 
L 1159 2956 
Q 1341 3275 1631 3429 
Q 1922 3584 2338 3584 
Q 2397 3584 2469 3576 
Q 2541 3569 2628 3553 
L 2631 2963 
z
" transform="scale(0.015625)"/>
     </defs>
     <use xlink:href="#DejaVuSans-4d"/>
     <use xlink:href="#DejaVuSans-61" transform="translate(86.279297 0)"/>
     <use xlink:href="#DejaVuSans-64" transform="translate(147.558594 0)"/>
     <use xlink:href="#DejaVuSans-72" transform="translate(211.035156 0)"/>
     <use xlink:href="#DejaVuSans-69" transform="translate(252.148438 0)"/>
     <use xlink:href="#DejaVuSans-64" transform="translate(279.931641 0)"/>
    </g>
   </g>
  </g>
 </g>
 <defs>
  <clipPath id="p6db97bd29c">
   <rect x="47.879615" y="18.118365" width="195.039728" height="162.58952"/>
  </clipPath>
  <clipPath id="pf8458a8d35">
   <rect x="248.919823" y="18.118365" width="195.039728" height="162.58952"/>
  </clipPath>
  <clipPath id="p0927b8b8ce">
   <rect x="449.960032" y="18.118365" width="195.039728" height="162.58952"/>
  </clipPath>
 </defs>
</svg>
