<?xml version="1.0" encoding="utf-8" standalone="no"?>
<!DOCTYPE svg PUBLIC "-//W3C//DTD SVG 1.1//EN"
  "http://www.w3.org/Graphics/SVG/1.1/DTD/svg11.dtd">
<svg xmlns:xlink="http://www.w3.org/1999/xlink" width="648pt" height="288pt" viewBox="0 0 648 288" xmlns="http://www.w3.org/2000/svg" version="1.1">
 <metadata>
  <rdf:RDF xmlns:dc="http://purl.org/dc/elements/1.1/" xmlns:cc="http://creativecommons.org/ns#" xmlns:rdf="http://www.w3.org/1999/02/22-rdf-syntax-ns#">
   <cc:Work>
    <dc:type rdf:resource="http://purl.org/dc/dcmitype/StillImage"/>
    <dc:format>image/svg+xml</dc:format>
    <dc:creator>
     <cc:Agent>
      <dc:title>Gergő Pintér</dc:title>
     </cc:Agent>
    </dc:creator>
    <dc:rights>
     <cc:Agent>
      <dc:title>CC BY 4.0</dc:title>
     </cc:Agent>
    </dc:rights>
   </cc:Work>
  </rdf:RDF>
 </metadata>
 <defs>
  <style type="text/css">*{stroke-linejoin: round; stroke-linecap: butt}</style>
 </defs>
 <g id="figure_1">
  <g id="patch_1">
   <path d="M 0 288 
L 648 288 
L 648 0 
L 0 0 
z
" style="fill: #ffffff"/>
  </g>
  <g id="axes_1">
   <g id="patch_2">
    <path d="M 47.879615 252.707885 
L 242.919343 252.707885 
L 242.919343 18.118365 
L 47.879615 18.118365 
z
" style="fill: #ffffff"/>
   </g>
   <g id="matplotlib.axis_1">
    <g id="xtick_1">
     <g id="line2d_1">
      <defs>
       <path id="mbcb02aef95" d="M 0 0 
L 0 3.5 
" style="stroke: #000000; stroke-width: 0.8"/>
      </defs>
      <g>
       <use xlink:href="#mbcb02aef95" x="96.639547" y="252.707885" style="stroke: #000000; stroke-width: 0.8"/>
      </g>
     </g>
     <g id="text_1">
      <!-- 1 -->
      <g transform="translate(93.458297 267.306323) scale(0.1 -0.1)">
       <defs>
        <path id="DejaVuSans-31" d="M 794 531 
L 1825 531 
L 1825 4091 
L 703 3866 
L 703 4441 
L 1819 4666 
L 2450 4666 
L 2450 531 
L 3481 531 
L 3481 0 
L 794 0 
L 794 531 
z
" transform="scale(0.015625)"/>
       </defs>
       <use xlink:href="#DejaVuSans-31"/>
      </g>
     </g>
    </g>
    <g id="xtick_2">
     <g id="line2d_2">
      <g>
       <use xlink:href="#mbcb02aef95" x="194.159411" y="252.707885" style="stroke: #000000; stroke-width: 0.8"/>
      </g>
     </g>
     <g id="text_2">
      <!-- 2 -->
      <g transform="translate(190.978161 267.306323) scale(0.1 -0.1)">
       <defs>
        <path id="DejaVuSans-32" d="M 1228 531 
L 3431 531 
L 3431 0 
L 469 0 
L 469 531 
Q 828 903 1448 1529 
Q 2069 2156 2228 2338 
Q 2531 2678 2651 2914 
Q 2772 3150 2772 3378 
Q 2772 3750 2511 3984 
Q 2250 4219 1831 4219 
Q 1534 4219 1204 4116 
Q 875 4013 500 3803 
L 500 4441 
Q 881 4594 1212 4672 
Q 1544 4750 1819 4750 
Q 2544 4750 2975 4387 
Q 3406 4025 3406 3419 
Q 3406 3131 3298 2873 
Q 3191 2616 2906 2266 
Q 2828 2175 2409 1742 
Q 1991 1309 1228 531 
z
" transform="scale(0.015625)"/>
       </defs>
       <use xlink:href="#DejaVuSans-32"/>
      </g>
     </g>
    </g>
   </g>
   <g id="matplotlib.axis_2">
    <g id="ytick_1">
     <g id="line2d_3">
      <path d="M 47.879615 252.707885 
L 242.919343 252.707885 
" clip-path="url(#p5fb1e0c10f)" style="fill: none; stroke: #b0b0b0; stroke-width: 0.8; stroke-linecap: square"/>
     </g>
     <g id="text_3">
      <!-- 0.00 -->
      <g transform="translate(18.61399 256.507104) scale(0.1 -0.1)">
       <defs>
        <path id="DejaVuSans-30" d="M 2034 4250 
Q 1547 4250 1301 3770 
Q 1056 3291 1056 2328 
Q 1056 1369 1301 889 
Q 1547 409 2034 409 
Q 2525 409 2770 889 
Q 3016 1369 3016 2328 
Q 3016 3291 2770 3770 
Q 2525 4250 2034 4250 
z
M 2034 4750 
Q 2819 4750 3233 4129 
Q 3647 3509 3647 2328 
Q 3647 1150 3233 529 
Q 2819 -91 2034 -91 
Q 1250 -91 836 529 
Q 422 1150 422 2328 
Q 422 3509 836 4129 
Q 1250 4750 2034 4750 
z
" transform="scale(0.015625)"/>
        <path id="DejaVuSans-2e" d="M 684 794 
L 1344 794 
L 1344 0 
L 684 0 
L 684 794 
z
" transform="scale(0.015625)"/>
       </defs>
       <use xlink:href="#DejaVuSans-30"/>
       <use xlink:href="#DejaVuSans-2e" transform="translate(63.623047 0)"/>
       <use xlink:href="#DejaVuSans-30" transform="translate(95.410156 0)"/>
       <use xlink:href="#DejaVuSans-30" transform="translate(159.033203 0)"/>
      </g>
     </g>
    </g>
    <g id="ytick_2">
     <g id="line2d_4">
      <path d="M 47.879615 194.060505 
L 242.919343 194.060505 
" clip-path="url(#p5fb1e0c10f)" style="fill: none; stroke: #b0b0b0; stroke-width: 0.8; stroke-linecap: square"/>
     </g>
     <g id="text_4">
      <!-- 0.25 -->
      <g transform="translate(18.61399 197.859724) scale(0.1 -0.1)">
       <defs>
        <path id="DejaVuSans-35" d="M 691 4666 
L 3169 4666 
L 3169 4134 
L 1269 4134 
L 1269 2991 
Q 1406 3038 1543 3061 
Q 1681 3084 1819 3084 
Q 2600 3084 3056 2656 
Q 3513 2228 3513 1497 
Q 3513 744 3044 326 
Q 2575 -91 1722 -91 
Q 1428 -91 1123 -41 
Q 819 9 494 109 
L 494 744 
Q 775 591 1075 516 
Q 1375 441 1709 441 
Q 2250 441 2565 725 
Q 2881 1009 2881 1497 
Q 2881 1984 2565 2268 
Q 2250 2553 1709 2553 
Q 1456 2553 1204 2497 
Q 953 2441 691 2322 
L 691 4666 
z
" transform="scale(0.015625)"/>
       </defs>
       <use xlink:href="#DejaVuSans-30"/>
       <use xlink:href="#DejaVuSans-2e" transform="translate(63.623047 0)"/>
       <use xlink:href="#DejaVuSans-32" transform="translate(95.410156 0)"/>
       <use xlink:href="#DejaVuSans-35" transform="translate(159.033203 0)"/>
      </g>
     </g>
    </g>
    <g id="ytick_3">
     <g id="line2d_5">
      <path d="M 47.879615 135.413125 
L 242.919343 135.413125 
" clip-path="url(#p5fb1e0c10f)" style="fill: none; stroke: #b0b0b0; stroke-width: 0.8; stroke-linecap: square"/>
     </g>
     <g id="text_5">
      <!-- 0.50 -->
      <g transform="translate(18.61399 139.212344) scale(0.1 -0.1)">
       <use xlink:href="#DejaVuSans-30"/>
       <use xlink:href="#DejaVuSans-2e" transform="translate(63.623047 0)"/>
       <use xlink:href="#DejaVuSans-35" transform="translate(95.410156 0)"/>
       <use xlink:href="#DejaVuSans-30" transform="translate(159.033203 0)"/>
      </g>
     </g>
    </g>
    <g id="ytick_4">
     <g id="line2d_6">
      <path d="M 47.879615 76.765745 
L 242.919343 76.765745 
" clip-path="url(#p5fb1e0c10f)" style="fill: none; stroke: #b0b0b0; stroke-width: 0.8; stroke-linecap: square"/>
     </g>
     <g id="text_6">
      <!-- 0.75 -->
      <g transform="translate(18.61399 80.564964) scale(0.1 -0.1)">
       <defs>
        <path id="DejaVuSans-37" d="M 525 4666 
L 3525 4666 
L 3525 4397 
L 1831 0 
L 1172 0 
L 2766 4134 
L 525 4134 
L 525 4666 
z
" transform="scale(0.015625)"/>
       </defs>
       <use xlink:href="#DejaVuSans-30"/>
       <use xlink:href="#DejaVuSans-2e" transform="translate(63.623047 0)"/>
       <use xlink:href="#DejaVuSans-37" transform="translate(95.410156 0)"/>
       <use xlink:href="#DejaVuSans-35" transform="translate(159.033203 0)"/>
      </g>
     </g>
    </g>
    <g id="ytick_5">
     <g id="line2d_7">
      <path d="M 47.879615 18.118365 
L 242.919343 18.118365 
" clip-path="url(#p5fb1e0c10f)" style="fill: none; stroke: #b0b0b0; stroke-width: 0.8; stroke-linecap: square"/>
     </g>
     <g id="text_7">
      <!-- 1.00 -->
      <g transform="translate(18.61399 21.917584) scale(0.1 -0.1)">
       <use xlink:href="#DejaVuSans-31"/>
       <use xlink:href="#DejaVuSans-2e" transform="translate(63.623047 0)"/>
       <use xlink:href="#DejaVuSans-30" transform="translate(95.410156 0)"/>
       <use xlink:href="#DejaVuSans-30" transform="translate(159.033203 0)"/>
      </g>
     </g>
    </g>
    <g id="text_8">
     <!-- Ellipticity -->
     <g transform="translate(12.118365 162.9025) rotate(-90) scale(0.12 -0.12)">
      <defs>
       <path id="DejaVuSans-45" d="M 628 4666 
L 3578 4666 
L 3578 4134 
L 1259 4134 
L 1259 2753 
L 3481 2753 
L 3481 2222 
L 1259 2222 
L 1259 531 
L 3634 531 
L 3634 0 
L 628 0 
L 628 4666 
z
" transform="scale(0.015625)"/>
       <path id="DejaVuSans-6c" d="M 603 4863 
L 1178 4863 
L 1178 0 
L 603 0 
L 603 4863 
z
" transform="scale(0.015625)"/>
       <path id="DejaVuSans-69" d="M 603 3500 
L 1178 3500 
L 1178 0 
L 603 0 
L 603 3500 
z
M 603 4863 
L 1178 4863 
L 1178 4134 
L 603 4134 
L 603 4863 
z
" transform="scale(0.015625)"/>
       <path id="DejaVuSans-70" d="M 1159 525 
L 1159 -1331 
L 581 -1331 
L 581 3500 
L 1159 3500 
L 1159 2969 
Q 1341 3281 1617 3432 
Q 1894 3584 2278 3584 
Q 2916 3584 3314 3078 
Q 3713 2572 3713 1747 
Q 3713 922 3314 415 
Q 2916 -91 2278 -91 
Q 1894 -91 1617 61 
Q 1341 213 1159 525 
z
M 3116 1747 
Q 3116 2381 2855 2742 
Q 2594 3103 2138 3103 
Q 1681 3103 1420 2742 
Q 1159 2381 1159 1747 
Q 1159 1113 1420 752 
Q 1681 391 2138 391 
Q 2594 391 2855 752 
Q 3116 1113 3116 1747 
z
" transform="scale(0.015625)"/>
       <path id="DejaVuSans-74" d="M 1172 4494 
L 1172 3500 
L 2356 3500 
L 2356 3053 
L 1172 3053 
L 1172 1153 
Q 1172 725 1289 603 
Q 1406 481 1766 481 
L 2356 481 
L 2356 0 
L 1766 0 
Q 1100 0 847 248 
Q 594 497 594 1153 
L 594 3053 
L 172 3053 
L 172 3500 
L 594 3500 
L 594 4494 
L 1172 4494 
z
" transform="scale(0.015625)"/>
       <path id="DejaVuSans-63" d="M 3122 3366 
L 3122 2828 
Q 2878 2963 2633 3030 
Q 2388 3097 2138 3097 
Q 1578 3097 1268 2742 
Q 959 2388 959 1747 
Q 959 1106 1268 751 
Q 1578 397 2138 397 
Q 2388 397 2633 464 
Q 2878 531 3122 666 
L 3122 134 
Q 2881 22 2623 -34 
Q 2366 -91 2075 -91 
Q 1284 -91 818 406 
Q 353 903 353 1747 
Q 353 2603 823 3093 
Q 1294 3584 2113 3584 
Q 2378 3584 2631 3529 
Q 2884 3475 3122 3366 
z
" transform="scale(0.015625)"/>
       <path id="DejaVuSans-79" d="M 2059 -325 
Q 1816 -950 1584 -1140 
Q 1353 -1331 966 -1331 
L 506 -1331 
L 506 -850 
L 844 -850 
Q 1081 -850 1212 -737 
Q 1344 -625 1503 -206 
L 1606 56 
L 191 3500 
L 800 3500 
L 1894 763 
L 2988 3500 
L 3597 3500 
L 2059 -325 
z
" transform="scale(0.015625)"/>
      </defs>
      <use xlink:href="#DejaVuSans-45"/>
      <use xlink:href="#DejaVuSans-6c" transform="translate(63.183594 0)"/>
      <use xlink:href="#DejaVuSans-6c" transform="translate(90.966797 0)"/>
      <use xlink:href="#DejaVuSans-69" transform="translate(118.75 0)"/>
      <use xlink:href="#DejaVuSans-70" transform="translate(146.533203 0)"/>
      <use xlink:href="#DejaVuSans-74" transform="translate(210.009766 0)"/>
      <use xlink:href="#DejaVuSans-69" transform="translate(249.21875 0)"/>
      <use xlink:href="#DejaVuSans-63" transform="translate(277.001953 0)"/>
      <use xlink:href="#DejaVuSans-69" transform="translate(331.982422 0)"/>
      <use xlink:href="#DejaVuSans-74" transform="translate(359.765625 0)"/>
      <use xlink:href="#DejaVuSans-79" transform="translate(398.974609 0)"/>
     </g>
    </g>
   </g>
   <g id="FillBetweenPolyCollection_1">
    <defs>
     <path id="m68c1e1c3bf" d="M 96.678237 -18.062603 
L 96.600857 -18.062603 
L 96.574412 -20.707044 
L 96.534669 -23.351486 
L 96.477495 -25.995928 
L 96.398352 -28.640369 
L 96.292337 -31.284811 
L 96.154175 -33.929253 
L 95.97827 -36.573694 
L 95.759013 -39.218136 
L 95.491484 -41.862578 
L 95.172487 -44.50702 
L 94.801541 -47.151461 
L 94.381198 -49.795903 
L 93.916159 -52.440345 
L 93.411018 -55.084786 
L 92.867212 -57.729228 
L 92.280316 -60.37367 
L 91.639118 -63.018111 
L 90.927497 -65.662553 
L 90.129138 -68.306995 
L 89.233922 -70.951437 
L 88.243719 -73.595878 
L 87.175015 -76.24032 
L 86.056526 -78.884762 
L 84.921685 -81.529203 
L 83.798022 -84.173645 
L 82.697162 -86.818087 
L 81.609378 -89.462529 
L 80.505187 -92.10697 
L 79.343796 -94.751412 
L 78.085555 -97.395854 
L 76.704172 -100.040295 
L 75.194885 -102.684737 
L 73.576722 -105.329179 
L 71.889211 -107.97362 
L 70.185493 -110.618062 
L 68.524185 -113.262504 
L 66.961775 -115.906946 
L 65.546456 -118.551387 
L 64.313644 -121.195829 
L 63.283154 -123.840271 
L 62.45799 -126.484712 
L 61.824825 -129.129154 
L 61.356206 -131.773596 
L 61.014402 -134.418038 
L 60.756477 -137.062479 
L 60.539733 -139.706921 
L 60.326505 -142.351363 
L 60.087465 -144.995804 
L 59.803351 -147.640246 
L 59.465927 -150.284688 
L 59.079341 -152.929129 
L 58.662452 -155.573571 
L 58.251191 -158.218013 
L 57.898606 -160.862455 
L 57.669926 -163.506896 
L 57.631601 -166.151338 
L 57.836202 -168.79578 
L 58.307968 -171.440221 
L 59.034847 -174.084663 
L 59.971051 -176.729105 
L 61.05018 -179.373547 
L 62.204422 -182.017988 
L 63.382745 -184.66243 
L 64.561458 -187.306872 
L 65.744011 -189.951313 
L 66.951513 -192.595755 
L 68.209085 -195.240197 
L 69.534097 -197.884638 
L 70.930578 -200.52908 
L 72.390644 -203.173522 
L 73.900607 -205.817964 
L 75.44778 -208.462405 
L 77.024383 -211.106847 
L 78.626882 -213.751289 
L 80.251415 -216.39573 
L 81.887704 -219.040172 
L 83.514275 -221.684614 
L 85.097119 -224.329056 
L 86.592457 -226.973497 
L 87.952935 -229.617939 
L 89.135659 -232.262381 
L 90.110324 -234.906822 
L 90.865828 -237.551264 
L 91.414091 -240.195706 
L 91.790054 -242.840147 
L 92.047274 -245.484589 
L 92.249307 -248.129031 
L 92.458231 -250.773473 
L 92.72283 -253.417914 
L 93.069586 -256.062356 
L 93.499097 -258.706798 
L 93.988978 -261.351239 
L 94.502132 -263.995681 
L 94.997583 -266.640123 
L 95.440434 -269.284564 
L 95.808298 -271.929006 
L 96.093155 -274.573448 
L 96.299273 -277.21789 
L 96.438897 -279.862331 
L 96.840197 -279.862331 
L 96.840197 -279.862331 
L 96.979821 -277.21789 
L 97.185939 -274.573448 
L 97.470796 -271.929006 
L 97.83866 -269.284564 
L 98.281511 -266.640123 
L 98.776962 -263.995681 
L 99.290116 -261.351239 
L 99.779997 -258.706798 
L 100.209508 -256.062356 
L 100.556264 -253.417914 
L 100.820863 -250.773473 
L 101.029787 -248.129031 
L 101.23182 -245.484589 
L 101.48904 -242.840147 
L 101.865003 -240.195706 
L 102.413266 -237.551264 
L 103.168771 -234.906822 
L 104.143435 -232.262381 
L 105.32616 -229.617939 
L 106.686637 -226.973497 
L 108.181975 -224.329056 
L 109.764819 -221.684614 
L 111.39139 -219.040172 
L 113.027679 -216.39573 
L 114.652213 -213.751289 
L 116.254711 -211.106847 
L 117.831314 -208.462405 
L 119.378487 -205.817964 
L 120.88845 -203.173522 
L 122.348516 -200.52908 
L 123.744997 -197.884638 
L 125.07001 -195.240197 
L 126.327581 -192.595755 
L 127.535083 -189.951313 
L 128.717636 -187.306872 
L 129.896349 -184.66243 
L 131.074672 -182.017988 
L 132.228914 -179.373547 
L 133.308043 -176.729105 
L 134.244247 -174.084663 
L 134.971126 -171.440221 
L 135.442893 -168.79578 
L 135.647493 -166.151338 
L 135.609168 -163.506896 
L 135.380489 -160.862455 
L 135.027903 -158.218013 
L 134.616642 -155.573571 
L 134.199753 -152.929129 
L 133.813167 -150.284688 
L 133.475743 -147.640246 
L 133.191629 -144.995804 
L 132.952589 -142.351363 
L 132.739362 -139.706921 
L 132.522617 -137.062479 
L 132.264692 -134.418038 
L 131.922889 -131.773596 
L 131.454269 -129.129154 
L 130.821104 -126.484712 
L 129.99594 -123.840271 
L 128.96545 -121.195829 
L 127.732638 -118.551387 
L 126.317319 -115.906946 
L 124.754909 -113.262504 
L 123.093601 -110.618062 
L 121.389883 -107.97362 
L 119.702372 -105.329179 
L 118.084209 -102.684737 
L 116.574922 -100.040295 
L 115.193539 -97.395854 
L 113.935299 -94.751412 
L 112.773907 -92.10697 
L 111.669716 -89.462529 
L 110.581932 -86.818087 
L 109.481072 -84.173645 
L 108.357409 -81.529203 
L 107.222568 -78.884762 
L 106.10408 -76.24032 
L 105.035375 -73.595878 
L 104.045172 -70.951437 
L 103.149956 -68.306995 
L 102.351597 -65.662553 
L 101.639976 -63.018111 
L 100.998779 -60.37367 
L 100.411882 -57.729228 
L 99.868076 -55.084786 
L 99.362936 -52.440345 
L 98.897896 -49.795903 
L 98.477553 -47.151461 
L 98.106607 -44.50702 
L 97.787611 -41.862578 
L 97.520081 -39.218136 
L 97.300824 -36.573694 
L 97.124919 -33.929253 
L 96.986757 -31.284811 
L 96.880742 -28.640369 
L 96.801599 -25.995928 
L 96.744425 -23.351486 
L 96.704682 -20.707044 
L 96.678237 -18.062603 
z
" style="stroke: #6c6c6c; stroke-width: 1.25"/>
    </defs>
    <g clip-path="url(#p5fb1e0c10f)">
     <use xlink:href="#m68c1e1c3bf" x="0" y="288" style="fill: #9fd495; stroke: #6c6c6c; stroke-width: 1.25"/>
    </g>
   </g>
   <g id="FillBetweenPolyCollection_2">
    <defs>
     <path id="mc8b4b59901" d="M 194.261907 -19.853753 
L 194.056916 -19.853753 
L 193.99368 -22.404429 
L 193.903028 -24.955105 
L 193.779492 -27.50578 
L 193.619298 -30.056456 
L 193.421313 -32.607132 
L 193.187505 -35.157808 
L 192.922639 -37.708484 
L 192.633185 -40.259159 
L 192.325669 -42.809835 
L 192.004978 -45.360511 
L 191.673169 -47.911187 
L 191.329113 -50.461862 
L 190.968987 -53.012538 
L 190.58727 -55.563214 
L 190.177762 -58.11389 
L 189.734298 -60.664566 
L 189.251152 -63.215241 
L 188.723367 -65.765917 
L 188.147342 -68.316593 
L 187.5217 -70.867269 
L 186.848126 -73.417945 
L 186.13158 -75.96862 
L 185.379427 -78.519296 
L 184.599437 -81.069972 
L 183.797184 -83.620648 
L 182.973748 -86.171323 
L 182.124553 -88.721999 
L 181.239776 -91.272675 
L 180.306176 -93.823351 
L 179.309735 -96.374027 
L 178.238371 -98.924702 
L 177.084121 -101.475378 
L 175.844489 -104.026054 
L 174.522943 -106.57673 
L 173.128745 -109.127405 
L 171.676395 -111.678081 
L 170.184978 -114.228757 
L 168.677584 -116.779433 
L 167.180775 -119.330109 
L 165.723794 -121.880784 
L 164.337108 -124.43146 
L 163.049995 -126.982136 
L 161.887318 -129.532812 
L 160.866175 -132.083487 
L 159.993453 -134.634163 
L 159.26525 -137.184839 
L 158.668546 -139.735515 
L 158.184817 -142.286191 
L 157.794589 -144.836866 
L 157.481757 -147.387542 
L 157.236615 -149.938218 
L 157.056937 -152.488894 
L 156.946903 -155.039569 
L 156.914046 -157.590245 
L 156.964865 -160.140921 
L 157.100255 -162.691597 
L 157.31225 -165.242273 
L 157.583613 -167.792948 
L 157.891134 -170.343624 
L 158.2123 -172.8943 
L 158.533536 -175.444976 
L 158.85725 -177.995652 
L 159.204902 -180.546327 
L 159.614434 -183.097003 
L 160.132344 -185.647679 
L 160.802586 -188.198355 
L 161.655633 -190.74903 
L 162.700924 -193.299706 
L 163.924643 -195.850382 
L 165.292917 -198.401058 
L 166.758868 -200.951734 
L 168.271099 -203.502409 
L 169.781256 -206.053085 
L 171.249172 -208.603761 
L 172.645116 -211.154437 
L 173.949637 -213.705112 
L 175.151955 -216.255788 
L 176.247939 -218.806464 
L 177.238561 -221.35714 
L 178.12932 -223.907816 
L 178.93075 -226.458491 
L 179.659683 -229.009167 
L 180.340471 -231.559843 
L 181.005114 -234.110519 
L 181.691258 -236.661194 
L 182.437543 -239.21187 
L 183.276726 -241.762546 
L 184.228058 -244.313222 
L 185.291134 -246.863898 
L 186.443419 -249.414573 
L 187.642698 -251.965249 
L 188.834212 -254.515925 
L 189.960648 -257.066601 
L 190.972314 -259.617276 
L 191.834831 -262.167952 
L 192.532723 -264.718628 
L 193.068644 -267.269304 
L 193.459272 -269.81998 
L 193.72958 -272.370655 
L 194.589243 -272.370655 
L 194.589243 -272.370655 
L 194.859551 -269.81998 
L 195.250179 -267.269304 
L 195.7861 -264.718628 
L 196.483991 -262.167952 
L 197.346508 -259.617276 
L 198.358174 -257.066601 
L 199.484611 -254.515925 
L 200.676124 -251.965249 
L 201.875404 -249.414573 
L 203.027688 -246.863898 
L 204.090765 -244.313222 
L 205.042096 -241.762546 
L 205.88128 -239.21187 
L 206.627565 -236.661194 
L 207.313708 -234.110519 
L 207.978351 -231.559843 
L 208.659139 -229.009167 
L 209.388073 -226.458491 
L 210.189503 -223.907816 
L 211.080262 -221.35714 
L 212.070884 -218.806464 
L 213.166868 -216.255788 
L 214.369185 -213.705112 
L 215.673707 -211.154437 
L 217.06965 -208.603761 
L 218.537566 -206.053085 
L 220.047724 -203.502409 
L 221.559954 -200.951734 
L 223.025905 -198.401058 
L 224.394179 -195.850382 
L 225.617899 -193.299706 
L 226.66319 -190.74903 
L 227.516236 -188.198355 
L 228.186478 -185.647679 
L 228.704389 -183.097003 
L 229.113921 -180.546327 
L 229.461572 -177.995652 
L 229.785287 -175.444976 
L 230.106522 -172.8943 
L 230.427688 -170.343624 
L 230.73521 -167.792948 
L 231.006572 -165.242273 
L 231.218568 -162.691597 
L 231.353958 -160.140921 
L 231.404777 -157.590245 
L 231.371919 -155.039569 
L 231.261886 -152.488894 
L 231.082208 -149.938218 
L 230.837065 -147.387542 
L 230.524234 -144.836866 
L 230.134006 -142.286191 
L 229.650277 -139.735515 
L 229.053573 -137.184839 
L 228.325369 -134.634163 
L 227.452648 -132.083487 
L 226.431504 -129.532812 
L 225.268827 -126.982136 
L 223.981714 -124.43146 
L 222.595028 -121.880784 
L 221.138047 -119.330109 
L 219.641238 -116.779433 
L 218.133845 -114.228757 
L 216.642427 -111.678081 
L 215.190077 -109.127405 
L 213.795879 -106.57673 
L 212.474333 -104.026054 
L 211.234701 -101.475378 
L 210.080451 -98.924702 
L 209.009088 -96.374027 
L 208.012647 -93.823351 
L 207.079047 -91.272675 
L 206.19427 -88.721999 
L 205.345075 -86.171323 
L 204.521639 -83.620648 
L 203.719386 -81.069972 
L 202.939395 -78.519296 
L 202.187242 -75.96862 
L 201.470696 -73.417945 
L 200.797122 -70.867269 
L 200.171481 -68.316593 
L 199.595455 -65.765917 
L 199.067671 -63.215241 
L 198.584524 -60.664566 
L 198.141061 -58.11389 
L 197.731552 -55.563214 
L 197.349835 -53.012538 
L 196.98971 -50.461862 
L 196.645654 -47.911187 
L 196.313845 -45.360511 
L 195.993154 -42.809835 
L 195.685637 -40.259159 
L 195.396183 -37.708484 
L 195.131318 -35.157808 
L 194.897509 -32.607132 
L 194.699525 -30.056456 
L 194.539331 -27.50578 
L 194.415794 -24.955105 
L 194.325143 -22.404429 
L 194.261907 -19.853753 
z
" style="stroke: #6c6c6c; stroke-width: 1.25"/>
    </defs>
    <g clip-path="url(#p5fb1e0c10f)">
     <use xlink:href="#mc8b4b59901" x="0" y="288" style="fill: #9fd495; stroke: #6c6c6c; stroke-width: 1.25"/>
    </g>
   </g>
   <g id="line2d_8">
    <path d="M 96.639547 248.10993 
L 96.639547 29.965136 
" clip-path="url(#p5fb1e0c10f)" style="fill: none; stroke: #6c6c6c; stroke-width: 1.875; stroke-linecap: square"/>
   </g>
   <g id="line2d_9">
    <path d="M 96.639547 164.267636 
L 96.639547 103.462032 
" clip-path="url(#p5fb1e0c10f)" style="fill: none; stroke: #6c6c6c; stroke-width: 5.625; stroke-linecap: square"/>
   </g>
   <g id="line2d_10">
    <path d="M 96.639547 132.762263 
" clip-path="url(#p5fb1e0c10f)" style="fill: none; stroke: #6c6c6c; stroke-width: 1.5; stroke-linecap: square"/>
    <defs>
     <path id="md7bf87f7e4" d="M 2.34375 0 
L -2.34375 -0 
" style="stroke: #ffffff; stroke-width: 1.125"/>
    </defs>
    <g clip-path="url(#p5fb1e0c10f)">
     <use xlink:href="#md7bf87f7e4" x="96.639547" y="132.762263" style="fill: #ffffff; stroke: #ffffff; stroke-width: 1.125"/>
    </g>
   </g>
   <g id="line2d_11">
    <path d="M 194.159411 245.341774 
L 194.159411 38.433817 
" clip-path="url(#p5fb1e0c10f)" style="fill: none; stroke: #6c6c6c; stroke-width: 1.875; stroke-linecap: square"/>
   </g>
   <g id="line2d_12">
    <path d="M 194.159411 158.625758 
L 194.159411 97.550376 
" clip-path="url(#p5fb1e0c10f)" style="fill: none; stroke: #6c6c6c; stroke-width: 5.625; stroke-linecap: square"/>
   </g>
   <g id="line2d_13">
    <path d="M 194.159411 127.413622 
" clip-path="url(#p5fb1e0c10f)" style="fill: none; stroke: #6c6c6c; stroke-width: 1.5; stroke-linecap: square"/>
    <g clip-path="url(#p5fb1e0c10f)">
     <use xlink:href="#md7bf87f7e4" x="194.159411" y="127.413622" style="fill: #ffffff; stroke: #ffffff; stroke-width: 1.125"/>
    </g>
   </g>
   <g id="patch_3">
    <path d="M 47.879615 252.707885 
L 47.879615 18.118365 
" style="fill: none; stroke: #000000; stroke-width: 0.8; stroke-linejoin: miter; stroke-linecap: square"/>
   </g>
   <g id="text_9">
    <!-- Budapest -->
    <g transform="translate(117.015729 12.118365) scale(0.12 -0.12)">
     <defs>
      <path id="DejaVuSans-42" d="M 1259 2228 
L 1259 519 
L 2272 519 
Q 2781 519 3026 730 
Q 3272 941 3272 1375 
Q 3272 1813 3026 2020 
Q 2781 2228 2272 2228 
L 1259 2228 
z
M 1259 4147 
L 1259 2741 
L 2194 2741 
Q 2656 2741 2882 2914 
Q 3109 3088 3109 3444 
Q 3109 3797 2882 3972 
Q 2656 4147 2194 4147 
L 1259 4147 
z
M 628 4666 
L 2241 4666 
Q 2963 4666 3353 4366 
Q 3744 4066 3744 3513 
Q 3744 3084 3544 2831 
Q 3344 2578 2956 2516 
Q 3422 2416 3680 2098 
Q 3938 1781 3938 1306 
Q 3938 681 3513 340 
Q 3088 0 2303 0 
L 628 0 
L 628 4666 
z
" transform="scale(0.015625)"/>
      <path id="DejaVuSans-75" d="M 544 1381 
L 544 3500 
L 1119 3500 
L 1119 1403 
Q 1119 906 1312 657 
Q 1506 409 1894 409 
Q 2359 409 2629 706 
Q 2900 1003 2900 1516 
L 2900 3500 
L 3475 3500 
L 3475 0 
L 2900 0 
L 2900 538 
Q 2691 219 2414 64 
Q 2138 -91 1772 -91 
Q 1169 -91 856 284 
Q 544 659 544 1381 
z
M 1991 3584 
L 1991 3584 
z
" transform="scale(0.015625)"/>
      <path id="DejaVuSans-64" d="M 2906 2969 
L 2906 4863 
L 3481 4863 
L 3481 0 
L 2906 0 
L 2906 525 
Q 2725 213 2448 61 
Q 2172 -91 1784 -91 
Q 1150 -91 751 415 
Q 353 922 353 1747 
Q 353 2572 751 3078 
Q 1150 3584 1784 3584 
Q 2172 3584 2448 3432 
Q 2725 3281 2906 2969 
z
M 947 1747 
Q 947 1113 1208 752 
Q 1469 391 1925 391 
Q 2381 391 2643 752 
Q 2906 1113 2906 1747 
Q 2906 2381 2643 2742 
Q 2381 3103 1925 3103 
Q 1469 3103 1208 2742 
Q 947 2381 947 1747 
z
" transform="scale(0.015625)"/>
      <path id="DejaVuSans-61" d="M 2194 1759 
Q 1497 1759 1228 1600 
Q 959 1441 959 1056 
Q 959 750 1161 570 
Q 1363 391 1709 391 
Q 2188 391 2477 730 
Q 2766 1069 2766 1631 
L 2766 1759 
L 2194 1759 
z
M 3341 1997 
L 3341 0 
L 2766 0 
L 2766 531 
Q 2569 213 2275 61 
Q 1981 -91 1556 -91 
Q 1019 -91 701 211 
Q 384 513 384 1019 
Q 384 1609 779 1909 
Q 1175 2209 1959 2209 
L 2766 2209 
L 2766 2266 
Q 2766 2663 2505 2880 
Q 2244 3097 1772 3097 
Q 1472 3097 1187 3025 
Q 903 2953 641 2809 
L 641 3341 
Q 956 3463 1253 3523 
Q 1550 3584 1831 3584 
Q 2591 3584 2966 3190 
Q 3341 2797 3341 1997 
z
" transform="scale(0.015625)"/>
      <path id="DejaVuSans-65" d="M 3597 1894 
L 3597 1613 
L 953 1613 
Q 991 1019 1311 708 
Q 1631 397 2203 397 
Q 2534 397 2845 478 
Q 3156 559 3463 722 
L 3463 178 
Q 3153 47 2828 -22 
Q 2503 -91 2169 -91 
Q 1331 -91 842 396 
Q 353 884 353 1716 
Q 353 2575 817 3079 
Q 1281 3584 2069 3584 
Q 2775 3584 3186 3129 
Q 3597 2675 3597 1894 
z
M 3022 2063 
Q 3016 2534 2758 2815 
Q 2500 3097 2075 3097 
Q 1594 3097 1305 2825 
Q 1016 2553 972 2059 
L 3022 2063 
z
" transform="scale(0.015625)"/>
      <path id="DejaVuSans-73" d="M 2834 3397 
L 2834 2853 
Q 2591 2978 2328 3040 
Q 2066 3103 1784 3103 
Q 1356 3103 1142 2972 
Q 928 2841 928 2578 
Q 928 2378 1081 2264 
Q 1234 2150 1697 2047 
L 1894 2003 
Q 2506 1872 2764 1633 
Q 3022 1394 3022 966 
Q 3022 478 2636 193 
Q 2250 -91 1575 -91 
Q 1294 -91 989 -36 
Q 684 19 347 128 
L 347 722 
Q 666 556 975 473 
Q 1284 391 1588 391 
Q 1994 391 2212 530 
Q 2431 669 2431 922 
Q 2431 1156 2273 1281 
Q 2116 1406 1581 1522 
L 1381 1569 
Q 847 1681 609 1914 
Q 372 2147 372 2553 
Q 372 3047 722 3315 
Q 1072 3584 1716 3584 
Q 2034 3584 2315 3537 
Q 2597 3491 2834 3397 
z
" transform="scale(0.015625)"/>
     </defs>
     <use xlink:href="#DejaVuSans-42"/>
     <use xlink:href="#DejaVuSans-75" transform="translate(68.603516 0)"/>
     <use xlink:href="#DejaVuSans-64" transform="translate(131.982422 0)"/>
     <use xlink:href="#DejaVuSans-61" transform="translate(195.458984 0)"/>
     <use xlink:href="#DejaVuSans-70" transform="translate(256.738281 0)"/>
     <use xlink:href="#DejaVuSans-65" transform="translate(320.214844 0)"/>
     <use xlink:href="#DejaVuSans-73" transform="translate(381.738281 0)"/>
     <use xlink:href="#DejaVuSans-74" transform="translate(433.837891 0)"/>
    </g>
   </g>
  </g>
  <g id="axes_2">
   <g id="patch_4">
    <path d="M 248.919823 252.707885 
L 443.959552 252.707885 
L 443.959552 18.118365 
L 248.919823 18.118365 
z
" style="fill: #ffffff"/>
   </g>
   <g id="matplotlib.axis_3">
    <g id="xtick_3">
     <g id="line2d_14">
      <g>
       <use xlink:href="#mbcb02aef95" x="297.679755" y="252.707885" style="stroke: #000000; stroke-width: 0.8"/>
      </g>
     </g>
     <g id="text_10">
      <!-- 1 -->
      <g transform="translate(294.498505 267.306323) scale(0.1 -0.1)">
       <use xlink:href="#DejaVuSans-31"/>
      </g>
     </g>
    </g>
    <g id="xtick_4">
     <g id="line2d_15">
      <g>
       <use xlink:href="#mbcb02aef95" x="395.19962" y="252.707885" style="stroke: #000000; stroke-width: 0.8"/>
      </g>
     </g>
     <g id="text_11">
      <!-- 2 -->
      <g transform="translate(392.01837 267.306323) scale(0.1 -0.1)">
       <use xlink:href="#DejaVuSans-32"/>
      </g>
     </g>
    </g>
    <g id="text_12">
     <!-- Distance betweenness (log, median cut) -->
     <g transform="translate(225.204063 282.504135) scale(0.12 -0.12)">
      <defs>
       <path id="DejaVuSans-44" d="M 1259 4147 
L 1259 519 
L 2022 519 
Q 2988 519 3436 956 
Q 3884 1394 3884 2338 
Q 3884 3275 3436 3711 
Q 2988 4147 2022 4147 
L 1259 4147 
z
M 628 4666 
L 1925 4666 
Q 3281 4666 3915 4102 
Q 4550 3538 4550 2338 
Q 4550 1131 3912 565 
Q 3275 0 1925 0 
L 628 0 
L 628 4666 
z
" transform="scale(0.015625)"/>
       <path id="DejaVuSans-6e" d="M 3513 2113 
L 3513 0 
L 2938 0 
L 2938 2094 
Q 2938 2591 2744 2837 
Q 2550 3084 2163 3084 
Q 1697 3084 1428 2787 
Q 1159 2491 1159 1978 
L 1159 0 
L 581 0 
L 581 3500 
L 1159 3500 
L 1159 2956 
Q 1366 3272 1645 3428 
Q 1925 3584 2291 3584 
Q 2894 3584 3203 3211 
Q 3513 2838 3513 2113 
z
" transform="scale(0.015625)"/>
       <path id="DejaVuSans-20" transform="scale(0.015625)"/>
       <path id="DejaVuSans-62" d="M 3116 1747 
Q 3116 2381 2855 2742 
Q 2594 3103 2138 3103 
Q 1681 3103 1420 2742 
Q 1159 2381 1159 1747 
Q 1159 1113 1420 752 
Q 1681 391 2138 391 
Q 2594 391 2855 752 
Q 3116 1113 3116 1747 
z
M 1159 2969 
Q 1341 3281 1617 3432 
Q 1894 3584 2278 3584 
Q 2916 3584 3314 3078 
Q 3713 2572 3713 1747 
Q 3713 922 3314 415 
Q 2916 -91 2278 -91 
Q 1894 -91 1617 61 
Q 1341 213 1159 525 
L 1159 0 
L 581 0 
L 581 4863 
L 1159 4863 
L 1159 2969 
z
" transform="scale(0.015625)"/>
       <path id="DejaVuSans-77" d="M 269 3500 
L 844 3500 
L 1563 769 
L 2278 3500 
L 2956 3500 
L 3675 769 
L 4391 3500 
L 4966 3500 
L 4050 0 
L 3372 0 
L 2619 2869 
L 1863 0 
L 1184 0 
L 269 3500 
z
" transform="scale(0.015625)"/>
       <path id="DejaVuSans-28" d="M 1984 4856 
Q 1566 4138 1362 3434 
Q 1159 2731 1159 2009 
Q 1159 1288 1364 580 
Q 1569 -128 1984 -844 
L 1484 -844 
Q 1016 -109 783 600 
Q 550 1309 550 2009 
Q 550 2706 781 3412 
Q 1013 4119 1484 4856 
L 1984 4856 
z
" transform="scale(0.015625)"/>
       <path id="DejaVuSans-6f" d="M 1959 3097 
Q 1497 3097 1228 2736 
Q 959 2375 959 1747 
Q 959 1119 1226 758 
Q 1494 397 1959 397 
Q 2419 397 2687 759 
Q 2956 1122 2956 1747 
Q 2956 2369 2687 2733 
Q 2419 3097 1959 3097 
z
M 1959 3584 
Q 2709 3584 3137 3096 
Q 3566 2609 3566 1747 
Q 3566 888 3137 398 
Q 2709 -91 1959 -91 
Q 1206 -91 779 398 
Q 353 888 353 1747 
Q 353 2609 779 3096 
Q 1206 3584 1959 3584 
z
" transform="scale(0.015625)"/>
       <path id="DejaVuSans-67" d="M 2906 1791 
Q 2906 2416 2648 2759 
Q 2391 3103 1925 3103 
Q 1463 3103 1205 2759 
Q 947 2416 947 1791 
Q 947 1169 1205 825 
Q 1463 481 1925 481 
Q 2391 481 2648 825 
Q 2906 1169 2906 1791 
z
M 3481 434 
Q 3481 -459 3084 -895 
Q 2688 -1331 1869 -1331 
Q 1566 -1331 1297 -1286 
Q 1028 -1241 775 -1147 
L 775 -588 
Q 1028 -725 1275 -790 
Q 1522 -856 1778 -856 
Q 2344 -856 2625 -561 
Q 2906 -266 2906 331 
L 2906 616 
Q 2728 306 2450 153 
Q 2172 0 1784 0 
Q 1141 0 747 490 
Q 353 981 353 1791 
Q 353 2603 747 3093 
Q 1141 3584 1784 3584 
Q 2172 3584 2450 3431 
Q 2728 3278 2906 2969 
L 2906 3500 
L 3481 3500 
L 3481 434 
z
" transform="scale(0.015625)"/>
       <path id="DejaVuSans-2c" d="M 750 794 
L 1409 794 
L 1409 256 
L 897 -744 
L 494 -744 
L 750 256 
L 750 794 
z
" transform="scale(0.015625)"/>
       <path id="DejaVuSans-6d" d="M 3328 2828 
Q 3544 3216 3844 3400 
Q 4144 3584 4550 3584 
Q 5097 3584 5394 3201 
Q 5691 2819 5691 2113 
L 5691 0 
L 5113 0 
L 5113 2094 
Q 5113 2597 4934 2840 
Q 4756 3084 4391 3084 
Q 3944 3084 3684 2787 
Q 3425 2491 3425 1978 
L 3425 0 
L 2847 0 
L 2847 2094 
Q 2847 2600 2669 2842 
Q 2491 3084 2119 3084 
Q 1678 3084 1418 2786 
Q 1159 2488 1159 1978 
L 1159 0 
L 581 0 
L 581 3500 
L 1159 3500 
L 1159 2956 
Q 1356 3278 1631 3431 
Q 1906 3584 2284 3584 
Q 2666 3584 2933 3390 
Q 3200 3197 3328 2828 
z
" transform="scale(0.015625)"/>
       <path id="DejaVuSans-29" d="M 513 4856 
L 1013 4856 
Q 1481 4119 1714 3412 
Q 1947 2706 1947 2009 
Q 1947 1309 1714 600 
Q 1481 -109 1013 -844 
L 513 -844 
Q 928 -128 1133 580 
Q 1338 1288 1338 2009 
Q 1338 2731 1133 3434 
Q 928 4138 513 4856 
z
" transform="scale(0.015625)"/>
      </defs>
      <use xlink:href="#DejaVuSans-44"/>
      <use xlink:href="#DejaVuSans-69" transform="translate(77.001953 0)"/>
      <use xlink:href="#DejaVuSans-73" transform="translate(104.785156 0)"/>
      <use xlink:href="#DejaVuSans-74" transform="translate(156.884766 0)"/>
      <use xlink:href="#DejaVuSans-61" transform="translate(196.09375 0)"/>
      <use xlink:href="#DejaVuSans-6e" transform="translate(257.373047 0)"/>
      <use xlink:href="#DejaVuSans-63" transform="translate(320.751953 0)"/>
      <use xlink:href="#DejaVuSans-65" transform="translate(375.732422 0)"/>
      <use xlink:href="#DejaVuSans-20" transform="translate(437.255859 0)"/>
      <use xlink:href="#DejaVuSans-62" transform="translate(469.042969 0)"/>
      <use xlink:href="#DejaVuSans-65" transform="translate(532.519531 0)"/>
      <use xlink:href="#DejaVuSans-74" transform="translate(594.042969 0)"/>
      <use xlink:href="#DejaVuSans-77" transform="translate(633.251953 0)"/>
      <use xlink:href="#DejaVuSans-65" transform="translate(715.039062 0)"/>
      <use xlink:href="#DejaVuSans-65" transform="translate(776.5625 0)"/>
      <use xlink:href="#DejaVuSans-6e" transform="translate(838.085938 0)"/>
      <use xlink:href="#DejaVuSans-6e" transform="translate(901.464844 0)"/>
      <use xlink:href="#DejaVuSans-65" transform="translate(964.84375 0)"/>
      <use xlink:href="#DejaVuSans-73" transform="translate(1026.367188 0)"/>
      <use xlink:href="#DejaVuSans-73" transform="translate(1078.466797 0)"/>
      <use xlink:href="#DejaVuSans-20" transform="translate(1130.566406 0)"/>
      <use xlink:href="#DejaVuSans-28" transform="translate(1162.353516 0)"/>
      <use xlink:href="#DejaVuSans-6c" transform="translate(1201.367188 0)"/>
      <use xlink:href="#DejaVuSans-6f" transform="translate(1229.150391 0)"/>
      <use xlink:href="#DejaVuSans-67" transform="translate(1290.332031 0)"/>
      <use xlink:href="#DejaVuSans-2c" transform="translate(1353.808594 0)"/>
      <use xlink:href="#DejaVuSans-20" transform="translate(1385.595703 0)"/>
      <use xlink:href="#DejaVuSans-6d" transform="translate(1417.382812 0)"/>
      <use xlink:href="#DejaVuSans-65" transform="translate(1514.794922 0)"/>
      <use xlink:href="#DejaVuSans-64" transform="translate(1576.318359 0)"/>
      <use xlink:href="#DejaVuSans-69" transform="translate(1639.794922 0)"/>
      <use xlink:href="#DejaVuSans-61" transform="translate(1667.578125 0)"/>
      <use xlink:href="#DejaVuSans-6e" transform="translate(1728.857422 0)"/>
      <use xlink:href="#DejaVuSans-20" transform="translate(1792.236328 0)"/>
      <use xlink:href="#DejaVuSans-63" transform="translate(1824.023438 0)"/>
      <use xlink:href="#DejaVuSans-75" transform="translate(1879.003906 0)"/>
      <use xlink:href="#DejaVuSans-74" transform="translate(1942.382812 0)"/>
      <use xlink:href="#DejaVuSans-29" transform="translate(1981.591797 0)"/>
     </g>
    </g>
   </g>
   <g id="matplotlib.axis_4">
    <g id="ytick_6">
     <g id="line2d_16">
      <path d="M 248.919823 252.707885 
L 443.959552 252.707885 
" clip-path="url(#p8e98db492e)" style="fill: none; stroke: #b0b0b0; stroke-width: 0.8; stroke-linecap: square"/>
     </g>
    </g>
    <g id="ytick_7">
     <g id="line2d_17">
      <path d="M 248.919823 194.060505 
L 443.959552 194.060505 
" clip-path="url(#p8e98db492e)" style="fill: none; stroke: #b0b0b0; stroke-width: 0.8; stroke-linecap: square"/>
     </g>
    </g>
    <g id="ytick_8">
     <g id="line2d_18">
      <path d="M 248.919823 135.413125 
L 443.959552 135.413125 
" clip-path="url(#p8e98db492e)" style="fill: none; stroke: #b0b0b0; stroke-width: 0.8; stroke-linecap: square"/>
     </g>
    </g>
    <g id="ytick_9">
     <g id="line2d_19">
      <path d="M 248.919823 76.765745 
L 443.959552 76.765745 
" clip-path="url(#p8e98db492e)" style="fill: none; stroke: #b0b0b0; stroke-width: 0.8; stroke-linecap: square"/>
     </g>
    </g>
    <g id="ytick_10">
     <g id="line2d_20">
      <path d="M 248.919823 18.118365 
L 443.959552 18.118365 
" clip-path="url(#p8e98db492e)" style="fill: none; stroke: #b0b0b0; stroke-width: 0.8; stroke-linecap: square"/>
     </g>
    </g>
   </g>
   <g id="FillBetweenPolyCollection_3">
    <defs>
     <path id="mba0ddbb69d" d="M 297.727559 -18.782668 
L 297.631952 -18.782668 
L 297.602516 -21.409956 
L 297.560641 -24.037245 
L 297.50412 -26.664533 
L 297.431566 -29.291821 
L 297.342657 -31.91911 
L 297.238056 -34.546398 
L 297.118932 -37.173686 
L 296.986181 -39.800975 
L 296.839585 -42.428263 
L 296.677197 -45.055552 
L 296.495179 -47.68284 
L 296.288121 -50.310128 
L 296.049697 -52.937417 
L 295.773426 -55.564705 
L 295.45339 -58.191993 
L 295.084921 -60.819282 
L 294.66535 -63.44657 
L 294.194828 -66.073859 
L 293.676943 -68.701147 
L 293.118543 -71.328435 
L 292.528126 -73.955724 
L 291.912513 -76.583012 
L 291.272296 -79.210301 
L 290.59745 -81.837589 
L 289.865081 -84.464877 
L 289.041131 -87.092166 
L 288.086826 -89.719454 
L 286.968938 -92.346742 
L 285.671215 -94.974031 
L 284.203251 -97.601319 
L 282.603318 -100.228608 
L 280.933295 -102.855896 
L 279.266362 -105.483184 
L 277.67068 -108.110473 
L 276.19387 -110.737761 
L 274.853048 -113.36505 
L 273.633511 -115.992338 
L 272.496428 -118.619626 
L 271.393032 -121.246915 
L 270.280875 -123.874203 
L 269.137231 -126.501491 
L 267.965839 -129.12878 
L 266.79547 -131.756068 
L 265.671344 -134.383357 
L 264.642431 -137.010645 
L 263.748585 -139.637933 
L 263.011036 -142.265222 
L 262.428471 -144.89251 
L 261.979243 -147.519798 
L 261.628691 -150.147087 
L 261.339372 -152.774375 
L 261.081483 -155.401664 
L 260.840735 -158.028952 
L 260.621681 -160.65624 
L 260.445766 -163.283529 
L 260.344947 -165.910817 
L 260.35311 -168.538106 
L 260.498122 -171.165394 
L 260.796939 -173.792682 
L 261.254912 -176.419971 
L 261.868719 -179.047259 
L 262.631081 -181.674547 
L 263.534957 -184.301836 
L 264.575445 -186.929124 
L 265.748789 -189.556413 
L 267.049174 -192.183701 
L 268.464792 -194.810989 
L 269.97485 -197.438278 
L 271.548721 -200.065566 
L 273.147756 -202.692855 
L 274.729463 -205.320143 
L 276.253187 -207.947431 
L 277.686077 -210.57472 
L 279.008059 -213.202008 
L 280.214776 -215.829296 
L 281.317922 -218.456585 
L 282.342903 -221.083873 
L 283.324233 -223.711162 
L 284.299344 -226.33845 
L 285.301707 -228.965738 
L 286.354312 -231.593027 
L 287.464724 -234.220315 
L 288.622943 -236.847603 
L 289.802881 -239.474892 
L 290.967435 -242.10218 
L 292.076029 -244.729469 
L 293.092617 -247.356757 
L 293.991926 -249.984045 
L 294.762358 -252.611334 
L 295.405217 -255.238622 
L 295.931169 -257.865911 
L 296.355631 -260.493199 
L 296.694717 -263.120487 
L 296.962762 -265.747776 
L 297.171543 -268.375064 
L 297.330678 -271.002352 
L 297.448457 -273.629641 
L 297.532491 -276.256929 
L 297.589949 -278.884218 
L 297.769561 -278.884218 
L 297.769561 -278.884218 
L 297.82702 -276.256929 
L 297.911053 -273.629641 
L 298.028832 -271.002352 
L 298.187968 -268.375064 
L 298.396749 -265.747776 
L 298.664793 -263.120487 
L 299.00388 -260.493199 
L 299.428341 -257.865911 
L 299.954294 -255.238622 
L 300.597153 -252.611334 
L 301.367585 -249.984045 
L 302.266894 -247.356757 
L 303.283482 -244.729469 
L 304.392076 -242.10218 
L 305.55663 -239.474892 
L 306.736568 -236.847603 
L 307.894787 -234.220315 
L 309.005199 -231.593027 
L 310.057803 -228.965738 
L 311.060167 -226.33845 
L 312.035278 -223.711162 
L 313.016607 -221.083873 
L 314.041589 -218.456585 
L 315.144735 -215.829296 
L 316.351452 -213.202008 
L 317.673433 -210.57472 
L 319.106324 -207.947431 
L 320.630048 -205.320143 
L 322.211754 -202.692855 
L 323.81079 -200.065566 
L 325.384661 -197.438278 
L 326.894718 -194.810989 
L 328.310337 -192.183701 
L 329.610721 -189.556413 
L 330.784065 -186.929124 
L 331.824553 -184.301836 
L 332.72843 -181.674547 
L 333.490792 -179.047259 
L 334.104599 -176.419971 
L 334.562572 -173.792682 
L 334.861389 -171.165394 
L 335.0064 -168.538106 
L 335.014564 -165.910817 
L 334.913745 -163.283529 
L 334.73783 -160.65624 
L 334.518776 -158.028952 
L 334.278028 -155.401664 
L 334.020139 -152.774375 
L 333.73082 -150.147087 
L 333.380267 -147.519798 
L 332.93104 -144.89251 
L 332.348474 -142.265222 
L 331.610926 -139.637933 
L 330.71708 -137.010645 
L 329.688167 -134.383357 
L 328.56404 -131.756068 
L 327.393672 -129.12878 
L 326.22228 -126.501491 
L 325.078635 -123.874203 
L 323.966479 -121.246915 
L 322.863083 -118.619626 
L 321.726 -115.992338 
L 320.506463 -113.36505 
L 319.165641 -110.737761 
L 317.688831 -108.110473 
L 316.093149 -105.483184 
L 314.426216 -102.855896 
L 312.756193 -100.228608 
L 311.15626 -97.601319 
L 309.688296 -94.974031 
L 308.390573 -92.346742 
L 307.272685 -89.719454 
L 306.31838 -87.092166 
L 305.49443 -84.464877 
L 304.76206 -81.837589 
L 304.087215 -79.210301 
L 303.446998 -76.583012 
L 302.831385 -73.955724 
L 302.240968 -71.328435 
L 301.682568 -68.701147 
L 301.164683 -66.073859 
L 300.694161 -63.44657 
L 300.27459 -60.819282 
L 299.906121 -58.191993 
L 299.586085 -55.564705 
L 299.309813 -52.937417 
L 299.071389 -50.310128 
L 298.864332 -47.68284 
L 298.682313 -45.055552 
L 298.519926 -42.428263 
L 298.37333 -39.800975 
L 298.240579 -37.173686 
L 298.121455 -34.546398 
L 298.016854 -31.91911 
L 297.927945 -29.291821 
L 297.855391 -26.664533 
L 297.79887 -24.037245 
L 297.756995 -21.409956 
L 297.727559 -18.782668 
z
" style="stroke: #747474; stroke-width: 1.25"/>
    </defs>
    <g clip-path="url(#p8e98db492e)">
     <use xlink:href="#mba0ddbb69d" x="0" y="288" style="fill: #a7d4dc; stroke: #747474; stroke-width: 1.25"/>
    </g>
   </g>
   <g id="FillBetweenPolyCollection_4">
    <defs>
     <path id="m654b06fc2b" d="M 395.272788 -23.581294 
L 395.126451 -23.581294 
L 395.083361 -26.176094 
L 395.022625 -28.770893 
L 394.941097 -31.365692 
L 394.836723 -33.960492 
L 394.708961 -36.555291 
L 394.55881 -39.15009 
L 394.388294 -41.74489 
L 394.199421 -44.339689 
L 393.992858 -46.934488 
L 393.766785 -49.529287 
L 393.516406 -52.124087 
L 393.234528 -54.718886 
L 392.913275 -57.313685 
L 392.546556 -59.908485 
L 392.13256 -62.503284 
L 391.675293 -65.098083 
L 391.184328 -67.692883 
L 390.672404 -70.287682 
L 390.151257 -72.882481 
L 389.626833 -75.477281 
L 389.095541 -78.07208 
L 388.543128 -80.666879 
L 387.947064 -83.261678 
L 387.28212 -85.856478 
L 386.527539 -88.451277 
L 385.673402 -91.046076 
L 384.723843 -93.640876 
L 383.695835 -96.235675 
L 382.61391 -98.830474 
L 381.502881 -101.425274 
L 380.381476 -104.020073 
L 379.259475 -106.614872 
L 378.13944 -109.209672 
L 377.022118 -111.804471 
L 375.912859 -114.39927 
L 374.825855 -116.994069 
L 373.783848 -119.588869 
L 372.812911 -122.183668 
L 371.934144 -124.778467 
L 371.155661 -127.373267 
L 370.46843 -129.968066 
L 369.84816 -132.562865 
L 369.263114 -135.157665 
L 368.685245 -137.752464 
L 368.100514 -140.347263 
L 367.514281 -142.942063 
L 366.949207 -145.536862 
L 366.435847 -148.131661 
L 365.998791 -150.72646 
L 365.643048 -153.32126 
L 365.34554 -155.916059 
L 365.055141 -158.510858 
L 364.701987 -161.105658 
L 364.21393 -163.700457 
L 363.535706 -166.295256 
L 362.645559 -168.890056 
L 361.564842 -171.484855 
L 360.358185 -174.079654 
L 359.124543 -176.674454 
L 357.981744 -179.269253 
L 357.048426 -181.864052 
L 356.427187 -184.458852 
L 356.191674 -187.053651 
L 356.378865 -189.64845 
L 356.986683 -192.243249 
L 357.976481 -194.838049 
L 359.279818 -197.432848 
L 360.808779 -200.027647 
L 362.468682 -202.622447 
L 364.171297 -205.217246 
L 365.846277 -207.812045 
L 367.448639 -210.406845 
L 368.961059 -213.001644 
L 370.391137 -215.596443 
L 371.764973 -218.191243 
L 373.119009 -220.786042 
L 374.491882 -223.380841 
L 375.917388 -225.97564 
L 377.418975 -228.57044 
L 379.005859 -231.165239 
L 380.670869 -233.760038 
L 382.39034 -236.354838 
L 384.126347 -238.949637 
L 385.831316 -241.544436 
L 387.454438 -244.139236 
L 388.948737 -246.734035 
L 390.277355 -249.328834 
L 391.417747 -251.923634 
L 392.36306 -254.518433 
L 393.120734 -257.113232 
L 393.709044 -259.708031 
L 394.152701 -262.302831 
L 394.478588 -264.89763 
L 394.712437 -267.492429 
L 394.876767 -270.087229 
L 394.990019 -272.682028 
L 395.066574 -275.276827 
L 395.117261 -277.871627 
L 395.150046 -280.466426 
L 395.249193 -280.466426 
L 395.249193 -280.466426 
L 395.281978 -277.871627 
L 395.332665 -275.276827 
L 395.40922 -272.682028 
L 395.522472 -270.087229 
L 395.686802 -267.492429 
L 395.920651 -264.89763 
L 396.246538 -262.302831 
L 396.690195 -259.708031 
L 397.278505 -257.113232 
L 398.036179 -254.518433 
L 398.981492 -251.923634 
L 400.121884 -249.328834 
L 401.450502 -246.734035 
L 402.944802 -244.139236 
L 404.567923 -241.544436 
L 406.272893 -238.949637 
L 408.008899 -236.354838 
L 409.72837 -233.760038 
L 411.393381 -231.165239 
L 412.980264 -228.57044 
L 414.481852 -225.97564 
L 415.907358 -223.380841 
L 417.280231 -220.786042 
L 418.634266 -218.191243 
L 420.008102 -215.596443 
L 421.43818 -213.001644 
L 422.9506 -210.406845 
L 424.552962 -207.812045 
L 426.227942 -205.217246 
L 427.930557 -202.622447 
L 429.59046 -200.027647 
L 431.119422 -197.432848 
L 432.422758 -194.838049 
L 433.412556 -192.243249 
L 434.020374 -189.64845 
L 434.207565 -187.053651 
L 433.972052 -184.458852 
L 433.350814 -181.864052 
L 432.417495 -179.269253 
L 431.274696 -176.674454 
L 430.041054 -174.079654 
L 428.834397 -171.484855 
L 427.75368 -168.890056 
L 426.863534 -166.295256 
L 426.185309 -163.700457 
L 425.697252 -161.105658 
L 425.344098 -158.510858 
L 425.053699 -155.916059 
L 424.756192 -153.32126 
L 424.400448 -150.72646 
L 423.963392 -148.131661 
L 423.450032 -145.536862 
L 422.884958 -142.942063 
L 422.298725 -140.347263 
L 421.713995 -137.752464 
L 421.136125 -135.157665 
L 420.55108 -132.562865 
L 419.93081 -129.968066 
L 419.243578 -127.373267 
L 418.465095 -124.778467 
L 417.586328 -122.183668 
L 416.615391 -119.588869 
L 415.573384 -116.994069 
L 414.48638 -114.39927 
L 413.377121 -111.804471 
L 412.259799 -109.209672 
L 411.139764 -106.614872 
L 410.017763 -104.020073 
L 408.896359 -101.425274 
L 407.78533 -98.830474 
L 406.703404 -96.235675 
L 405.675396 -93.640876 
L 404.725838 -91.046076 
L 403.8717 -88.451277 
L 403.117119 -85.856478 
L 402.452175 -83.261678 
L 401.856111 -80.666879 
L 401.303698 -78.07208 
L 400.772406 -75.477281 
L 400.247982 -72.882481 
L 399.726835 -70.287682 
L 399.214911 -67.692883 
L 398.723947 -65.098083 
L 398.26668 -62.503284 
L 397.852683 -59.908485 
L 397.485964 -57.313685 
L 397.164711 -54.718886 
L 396.882834 -52.124087 
L 396.632454 -49.529287 
L 396.406381 -46.934488 
L 396.199819 -44.339689 
L 396.010945 -41.74489 
L 395.840429 -39.15009 
L 395.690279 -36.555291 
L 395.562516 -33.960492 
L 395.458142 -31.365692 
L 395.376614 -28.770893 
L 395.315878 -26.176094 
L 395.272788 -23.581294 
z
" style="stroke: #747474; stroke-width: 1.25"/>
    </defs>
    <g clip-path="url(#p8e98db492e)">
     <use xlink:href="#m654b06fc2b" x="0" y="288" style="fill: #a7d4dc; stroke: #747474; stroke-width: 1.25"/>
    </g>
   </g>
   <g id="line2d_21">
    <path d="M 297.679755 231.759041 
L 297.679755 31.748016 
" clip-path="url(#p8e98db492e)" style="fill: none; stroke: #747474; stroke-width: 1.875; stroke-linecap: square"/>
   </g>
   <g id="line2d_22">
    <path d="M 297.679755 155.458799 
L 297.679755 98.647082 
" clip-path="url(#p8e98db492e)" style="fill: none; stroke: #747474; stroke-width: 5.625; stroke-linecap: square"/>
   </g>
   <g id="line2d_23">
    <path d="M 297.679755 126.205486 
" clip-path="url(#p8e98db492e)" style="fill: none; stroke: #747474; stroke-width: 1.5; stroke-linecap: square"/>
    <g clip-path="url(#p8e98db492e)">
     <use xlink:href="#md7bf87f7e4" x="297.679755" y="126.205486" style="fill: #ffffff; stroke: #ffffff; stroke-width: 1.125"/>
    </g>
   </g>
   <g id="line2d_24">
    <path d="M 395.19962 240.814196 
L 395.19962 31.138083 
" clip-path="url(#p8e98db492e)" style="fill: none; stroke: #747474; stroke-width: 1.875; stroke-linecap: square"/>
   </g>
   <g id="line2d_25">
    <path d="M 395.19962 152.08071 
L 395.19962 90.911493 
" clip-path="url(#p8e98db492e)" style="fill: none; stroke: #747474; stroke-width: 5.625; stroke-linecap: square"/>
   </g>
   <g id="line2d_26">
    <path d="M 395.19962 114.816165 
" clip-path="url(#p8e98db492e)" style="fill: none; stroke: #747474; stroke-width: 1.5; stroke-linecap: square"/>
    <g clip-path="url(#p8e98db492e)">
     <use xlink:href="#md7bf87f7e4" x="395.19962" y="114.816165" style="fill: #ffffff; stroke: #ffffff; stroke-width: 1.125"/>
    </g>
   </g>
   <g id="patch_5">
    <path d="M 248.919823 252.707885 
L 248.919823 18.118365 
" style="fill: none; stroke: #000000; stroke-width: 0.8; stroke-linejoin: miter; stroke-linecap: square"/>
   </g>
   <g id="text_13">
    <!-- Helsinki -->
    <g transform="translate(322.8325 12.118365) scale(0.12 -0.12)">
     <defs>
      <path id="DejaVuSans-48" d="M 628 4666 
L 1259 4666 
L 1259 2753 
L 3553 2753 
L 3553 4666 
L 4184 4666 
L 4184 0 
L 3553 0 
L 3553 2222 
L 1259 2222 
L 1259 0 
L 628 0 
L 628 4666 
z
" transform="scale(0.015625)"/>
      <path id="DejaVuSans-6b" d="M 581 4863 
L 1159 4863 
L 1159 1991 
L 2875 3500 
L 3609 3500 
L 1753 1863 
L 3688 0 
L 2938 0 
L 1159 1709 
L 1159 0 
L 581 0 
L 581 4863 
z
" transform="scale(0.015625)"/>
     </defs>
     <use xlink:href="#DejaVuSans-48"/>
     <use xlink:href="#DejaVuSans-65" transform="translate(75.195312 0)"/>
     <use xlink:href="#DejaVuSans-6c" transform="translate(136.71875 0)"/>
     <use xlink:href="#DejaVuSans-73" transform="translate(164.501953 0)"/>
     <use xlink:href="#DejaVuSans-69" transform="translate(216.601562 0)"/>
     <use xlink:href="#DejaVuSans-6e" transform="translate(244.384766 0)"/>
     <use xlink:href="#DejaVuSans-6b" transform="translate(307.763672 0)"/>
     <use xlink:href="#DejaVuSans-69" transform="translate(365.673828 0)"/>
    </g>
   </g>
  </g>
  <g id="axes_3">
   <g id="patch_6">
    <path d="M 449.960032 252.707885 
L 644.99976 252.707885 
L 644.99976 18.118365 
L 449.960032 18.118365 
z
" style="fill: #ffffff"/>
   </g>
   <g id="matplotlib.axis_5">
    <g id="xtick_5">
     <g id="line2d_27">
      <g>
       <use xlink:href="#mbcb02aef95" x="498.719964" y="252.707885" style="stroke: #000000; stroke-width: 0.8"/>
      </g>
     </g>
     <g id="text_14">
      <!-- 1 -->
      <g transform="translate(495.538714 267.306323) scale(0.1 -0.1)">
       <use xlink:href="#DejaVuSans-31"/>
      </g>
     </g>
    </g>
    <g id="xtick_6">
     <g id="line2d_28">
      <g>
       <use xlink:href="#mbcb02aef95" x="596.239828" y="252.707885" style="stroke: #000000; stroke-width: 0.8"/>
      </g>
     </g>
     <g id="text_15">
      <!-- 2 -->
      <g transform="translate(593.058578 267.306323) scale(0.1 -0.1)">
       <use xlink:href="#DejaVuSans-32"/>
      </g>
     </g>
    </g>
   </g>
   <g id="matplotlib.axis_6">
    <g id="ytick_11">
     <g id="line2d_29">
      <path d="M 449.960032 252.707885 
L 644.99976 252.707885 
" clip-path="url(#p207dddf198)" style="fill: none; stroke: #b0b0b0; stroke-width: 0.8; stroke-linecap: square"/>
     </g>
    </g>
    <g id="ytick_12">
     <g id="line2d_30">
      <path d="M 449.960032 194.060505 
L 644.99976 194.060505 
" clip-path="url(#p207dddf198)" style="fill: none; stroke: #b0b0b0; stroke-width: 0.8; stroke-linecap: square"/>
     </g>
    </g>
    <g id="ytick_13">
     <g id="line2d_31">
      <path d="M 449.960032 135.413125 
L 644.99976 135.413125 
" clip-path="url(#p207dddf198)" style="fill: none; stroke: #b0b0b0; stroke-width: 0.8; stroke-linecap: square"/>
     </g>
    </g>
    <g id="ytick_14">
     <g id="line2d_32">
      <path d="M 449.960032 76.765745 
L 644.99976 76.765745 
" clip-path="url(#p207dddf198)" style="fill: none; stroke: #b0b0b0; stroke-width: 0.8; stroke-linecap: square"/>
     </g>
    </g>
    <g id="ytick_15">
     <g id="line2d_33">
      <path d="M 449.960032 18.118365 
L 644.99976 18.118365 
" clip-path="url(#p207dddf198)" style="fill: none; stroke: #b0b0b0; stroke-width: 0.8; stroke-linecap: square"/>
     </g>
    </g>
   </g>
   <g id="FillBetweenPolyCollection_5">
    <defs>
     <path id="md8f7b54d26" d="M 498.805191 -24.130149 
L 498.634736 -24.130149 
L 498.567655 -26.677842 
L 498.460213 -29.225536 
L 498.296719 -31.773229 
L 498.060107 -34.320923 
L 497.733951 -36.868616 
L 497.304832 -39.41631 
L 496.764403 -41.964004 
L 496.110437 -44.511697 
L 495.346497 -47.059391 
L 494.480394 -49.607084 
L 493.522252 -52.154778 
L 492.483171 -54.702471 
L 491.375113 -57.250165 
L 490.211769 -59.797858 
L 489.009334 -62.345552 
L 487.785929 -64.893246 
L 486.559122 -67.440939 
L 485.342289 -69.988633 
L 484.141622 -72.536326 
L 482.955637 -75.08402 
L 481.777908 -77.631713 
L 480.602022 -80.179407 
L 479.426531 -82.7271 
L 478.257536 -85.274794 
L 477.107754 -87.822488 
L 475.99255 -90.370181 
L 474.924697 -92.917875 
L 473.909924 -95.465568 
L 472.944679 -98.013262 
L 472.016544 -100.560955 
L 471.1069 -103.108649 
L 470.195117 -105.656343 
L 469.263542 -108.204036 
L 468.302545 -110.75173 
L 467.314714 -113.299423 
L 466.316967 -115.847117 
L 465.339333 -118.39481 
L 464.41975 -120.942504 
L 463.595473 -123.490197 
L 462.893207 -126.037891 
L 462.32109 -128.585585 
L 461.865621 -131.133278 
L 461.495271 -133.680972 
L 461.170322 -136.228665 
L 460.856169 -138.776359 
L 460.535948 -141.324052 
L 460.218389 -143.871746 
L 459.938273 -146.419439 
L 459.749358 -148.967133 
L 459.712018 -151.514827 
L 459.879501 -154.06252 
L 460.286824 -156.610214 
L 460.945165 -159.157907 
L 461.842432 -161.705601 
L 462.948607 -164.253294 
L 464.223116 -166.800988 
L 465.621429 -169.348681 
L 467.099164 -171.896375 
L 468.613573 -174.444069 
L 470.123597 -176.991762 
L 471.590181 -179.539456 
L 472.97805 -182.087149 
L 474.25911 -184.634843 
L 475.416577 -187.182536 
L 476.448423 -189.73023 
L 477.368859 -192.277924 
L 478.207163 -194.825617 
L 479.003814 -197.373311 
L 479.804449 -199.921004 
L 480.652479 -202.468698 
L 481.581595 -205.016391 
L 482.609606 -207.564085 
L 483.735127 -210.111778 
L 484.938154 -212.659472 
L 486.184641 -215.207166 
L 487.433999 -217.754859 
L 488.647464 -220.302553 
L 489.79501 -222.850246 
L 490.859002 -225.39794 
L 491.833953 -227.945633 
L 492.723129 -230.493327 
L 493.533689 -233.04102 
L 494.272325 -235.588714 
L 494.942808 -238.136408 
L 495.545866 -240.684101 
L 496.080799 -243.231795 
L 496.547679 -245.779488 
L 496.948958 -248.327182 
L 497.289852 -250.874875 
L 497.577529 -253.422569 
L 497.819638 -255.970263 
L 498.022947 -258.517956 
L 498.192596 -261.06565 
L 498.332162 -263.613343 
L 498.444271 -266.161037 
L 498.531381 -268.70873 
L 498.59634 -271.256424 
L 498.64255 -273.804117 
L 498.673775 -276.351811 
L 498.766152 -276.351811 
L 498.766152 -276.351811 
L 498.797378 -273.804117 
L 498.843588 -271.256424 
L 498.908546 -268.70873 
L 498.995656 -266.161037 
L 499.107766 -263.613343 
L 499.247331 -261.06565 
L 499.416981 -258.517956 
L 499.620289 -255.970263 
L 499.862399 -253.422569 
L 500.150075 -250.874875 
L 500.49097 -248.327182 
L 500.892248 -245.779488 
L 501.359128 -243.231795 
L 501.894062 -240.684101 
L 502.497119 -238.136408 
L 503.167602 -235.588714 
L 503.906238 -233.04102 
L 504.716799 -230.493327 
L 505.605974 -227.945633 
L 506.580925 -225.39794 
L 507.644917 -222.850246 
L 508.792464 -220.302553 
L 510.005928 -217.754859 
L 511.255286 -215.207166 
L 512.501774 -212.659472 
L 513.704801 -210.111778 
L 514.830322 -207.564085 
L 515.858333 -205.016391 
L 516.787448 -202.468698 
L 517.635479 -199.921004 
L 518.436113 -197.373311 
L 519.232765 -194.825617 
L 520.071068 -192.277924 
L 520.991505 -189.73023 
L 522.023351 -187.182536 
L 523.180818 -184.634843 
L 524.461877 -182.087149 
L 525.849746 -179.539456 
L 527.31633 -176.991762 
L 528.826355 -174.444069 
L 530.340764 -171.896375 
L 531.818499 -169.348681 
L 533.216811 -166.800988 
L 534.491321 -164.253294 
L 535.597496 -161.705601 
L 536.494763 -159.157907 
L 537.153104 -156.610214 
L 537.560427 -154.06252 
L 537.727909 -151.514827 
L 537.69057 -148.967133 
L 537.501654 -146.419439 
L 537.221539 -143.871746 
L 536.903979 -141.324052 
L 536.583759 -138.776359 
L 536.269605 -136.228665 
L 535.944656 -133.680972 
L 535.574307 -131.133278 
L 535.118837 -128.585585 
L 534.54672 -126.037891 
L 533.844454 -123.490197 
L 533.020178 -120.942504 
L 532.100594 -118.39481 
L 531.122961 -115.847117 
L 530.125214 -113.299423 
L 529.137383 -110.75173 
L 528.176386 -108.204036 
L 527.24481 -105.656343 
L 526.333028 -103.108649 
L 525.423383 -100.560955 
L 524.495248 -98.013262 
L 523.530004 -95.465568 
L 522.51523 -92.917875 
L 521.447378 -90.370181 
L 520.332174 -87.822488 
L 519.182392 -85.274794 
L 518.013396 -82.7271 
L 516.837905 -80.179407 
L 515.66202 -77.631713 
L 514.48429 -75.08402 
L 513.298306 -72.536326 
L 512.097638 -69.988633 
L 510.880805 -67.440939 
L 509.653998 -64.893246 
L 508.430594 -62.345552 
L 507.228158 -59.797858 
L 506.064814 -57.250165 
L 504.956757 -54.702471 
L 503.917676 -52.154778 
L 502.959534 -49.607084 
L 502.09343 -47.059391 
L 501.32949 -44.511697 
L 500.675525 -41.964004 
L 500.135095 -39.41631 
L 499.705977 -36.868616 
L 499.37982 -34.320923 
L 499.143208 -31.773229 
L 498.979714 -29.225536 
L 498.872273 -26.677842 
L 498.805191 -24.130149 
z
" style="stroke: #7a7a7a; stroke-width: 1.25"/>
    </defs>
    <g clip-path="url(#p207dddf198)">
     <use xlink:href="#md8f7b54d26" x="0" y="288" style="fill: #f2a5a3; stroke: #7a7a7a; stroke-width: 1.25"/>
    </g>
   </g>
   <g id="FillBetweenPolyCollection_6">
    <defs>
     <path id="mff650c7b3e" d="M 596.389742 -21.011957 
L 596.089914 -21.011957 
L 595.987738 -23.716006 
L 595.834061 -26.420056 
L 595.613942 -29.124105 
L 595.313394 -31.828154 
L 594.921644 -34.532203 
L 594.433138 -37.236252 
L 593.848603 -39.940302 
L 593.174638 -42.644351 
L 592.421806 -45.3484 
L 591.601762 -48.052449 
L 590.724416 -50.756499 
L 589.79617 -53.460548 
L 588.81986 -56.164597 
L 587.796262 -58.868646 
L 586.7264 -61.572695 
L 585.613588 -64.276745 
L 584.464491 -66.980794 
L 583.289096 -69.684843 
L 582.100109 -72.388892 
L 580.912383 -75.092941 
L 579.742651 -77.796991 
L 578.609158 -80.50104 
L 577.530476 -83.205089 
L 576.522938 -85.909138 
L 575.596903 -88.613188 
L 574.75293 -91.317237 
L 573.979421 -94.021286 
L 573.253091 -96.725335 
L 572.542751 -99.429384 
L 571.815751 -102.133434 
L 571.045476 -104.837483 
L 570.217885 -107.541532 
L 569.335339 -110.245581 
L 568.416666 -112.94963 
L 567.49343 -115.65368 
L 566.603318 -118.357729 
L 565.782252 -121.061778 
L 565.057119 -123.765827 
L 564.44086 -126.469877 
L 563.931129 -129.173926 
L 563.512865 -131.877975 
L 563.164154 -134.582024 
L 562.863838 -137.286073 
L 562.598745 -139.990123 
L 562.368461 -142.694172 
L 562.186259 -145.398221 
L 562.076044 -148.10227 
L 562.066487 -150.80632 
L 562.184348 -153.510369 
L 562.448978 -156.214418 
L 562.869236 -158.918467 
L 563.442896 -161.622516 
L 564.157753 -164.326566 
L 564.993353 -167.030615 
L 565.922699 -169.734664 
L 566.913918 -172.438713 
L 567.932362 -175.142762 
L 568.943574 -177.846812 
L 569.917026 -180.550861 
L 570.829954 -183.25491 
L 571.670147 -185.958959 
L 572.436753 -188.663009 
L 573.13874 -191.367058 
L 573.791555 -194.071107 
L 574.413226 -196.775156 
L 575.021344 -199.479205 
L 575.631876 -202.183255 
L 576.259823 -204.887304 
L 576.920723 -207.591353 
L 577.631529 -210.295402 
L 578.409661 -212.999451 
L 579.269975 -215.703501 
L 580.220495 -218.40755 
L 581.258491 -221.111599 
L 582.368434 -223.815648 
L 583.522712 -226.519698 
L 584.685043 -229.223747 
L 585.81577 -231.927796 
L 586.87788 -234.631845 
L 587.842618 -237.335894 
L 588.693732 -240.039944 
L 589.429633 -242.743993 
L 590.062966 -245.448042 
L 590.617494 -248.152091 
L 591.12278 -250.856141 
L 591.607738 -253.56019 
L 592.094573 -256.264239 
L 592.59461 -258.968288 
L 593.106977 -261.672337 
L 593.620292 -264.376387 
L 594.116613 -267.080436 
L 594.57636 -269.784485 
L 594.982826 -272.488534 
L 595.325237 -275.192583 
L 595.599922 -277.896633 
L 595.809748 -280.600682 
L 595.962401 -283.304731 
L 596.068197 -286.00878 
L 596.13806 -288.71283 
L 596.341595 -288.71283 
L 596.341595 -288.71283 
L 596.411459 -286.00878 
L 596.517255 -283.304731 
L 596.669907 -280.600682 
L 596.879734 -277.896633 
L 597.154419 -275.192583 
L 597.49683 -272.488534 
L 597.903296 -269.784485 
L 598.363043 -267.080436 
L 598.859364 -264.376387 
L 599.372679 -261.672337 
L 599.885046 -258.968288 
L 600.385083 -256.264239 
L 600.871918 -253.56019 
L 601.356876 -250.856141 
L 601.862162 -248.152091 
L 602.41669 -245.448042 
L 603.050023 -242.743993 
L 603.785924 -240.039944 
L 604.637038 -237.335894 
L 605.601776 -234.631845 
L 606.663886 -231.927796 
L 607.794613 -229.223747 
L 608.956944 -226.519698 
L 610.111222 -223.815648 
L 611.221165 -221.111599 
L 612.259161 -218.40755 
L 613.209681 -215.703501 
L 614.069995 -212.999451 
L 614.848127 -210.295402 
L 615.558933 -207.591353 
L 616.219833 -204.887304 
L 616.84778 -202.183255 
L 617.458312 -199.479205 
L 618.066429 -196.775156 
L 618.688101 -194.071107 
L 619.340916 -191.367058 
L 620.042903 -188.663009 
L 620.809509 -185.958959 
L 621.649702 -183.25491 
L 622.562629 -180.550861 
L 623.536082 -177.846812 
L 624.547293 -175.142762 
L 625.565738 -172.438713 
L 626.556957 -169.734664 
L 627.486303 -167.030615 
L 628.321903 -164.326566 
L 629.03676 -161.622516 
L 629.61042 -158.918467 
L 630.030678 -156.214418 
L 630.295308 -153.510369 
L 630.413169 -150.80632 
L 630.403612 -148.10227 
L 630.293396 -145.398221 
L 630.111194 -142.694172 
L 629.880911 -139.990123 
L 629.615818 -137.286073 
L 629.315502 -134.582024 
L 628.966791 -131.877975 
L 628.548527 -129.173926 
L 628.038796 -126.469877 
L 627.422537 -123.765827 
L 626.697404 -121.061778 
L 625.876338 -118.357729 
L 624.986226 -115.65368 
L 624.062989 -112.94963 
L 623.144317 -110.245581 
L 622.261771 -107.541532 
L 621.43418 -104.837483 
L 620.663904 -102.133434 
L 619.936905 -99.429384 
L 619.226565 -96.725335 
L 618.500235 -94.021286 
L 617.726725 -91.317237 
L 616.882753 -88.613188 
L 615.956718 -85.909138 
L 614.949179 -83.205089 
L 613.870497 -80.50104 
L 612.737005 -77.796991 
L 611.567272 -75.092941 
L 610.379547 -72.388892 
L 609.19056 -69.684843 
L 608.015165 -66.980794 
L 606.866068 -64.276745 
L 605.753256 -61.572695 
L 604.683393 -58.868646 
L 603.659796 -56.164597 
L 602.683486 -53.460548 
L 601.75524 -50.756499 
L 600.877894 -48.052449 
L 600.05785 -45.3484 
L 599.305018 -42.644351 
L 598.631053 -39.940302 
L 598.046517 -37.236252 
L 597.558012 -34.532203 
L 597.166262 -31.828154 
L 596.865714 -29.124105 
L 596.645595 -26.420056 
L 596.491918 -23.716006 
L 596.389742 -21.011957 
z
" style="stroke: #7a7a7a; stroke-width: 1.25"/>
    </defs>
    <g clip-path="url(#p207dddf198)">
     <use xlink:href="#mff650c7b3e" x="0" y="288" style="fill: #f2a5a3; stroke: #7a7a7a; stroke-width: 1.25"/>
    </g>
   </g>
   <g id="line2d_34">
    <path d="M 498.719964 242.761289 
L 498.719964 32.756751 
" clip-path="url(#p207dddf198)" style="fill: none; stroke: #7a7a7a; stroke-width: 1.875; stroke-linecap: square"/>
   </g>
   <g id="line2d_35">
    <path d="M 498.719964 176.93547 
L 498.719964 116.223702 
" clip-path="url(#p207dddf198)" style="fill: none; stroke: #7a7a7a; stroke-width: 5.625; stroke-linecap: square"/>
   </g>
   <g id="line2d_36">
    <path d="M 498.719964 145.899277 
" clip-path="url(#p207dddf198)" style="fill: none; stroke: #7a7a7a; stroke-width: 1.5; stroke-linecap: square"/>
    <g clip-path="url(#p207dddf198)">
     <use xlink:href="#md7bf87f7e4" x="498.719964" y="145.899277" style="fill: #ffffff; stroke: #ffffff; stroke-width: 1.125"/>
    </g>
   </g>
   <g id="line2d_37">
    <path d="M 596.239828 242.995879 
L 596.239828 23.279334 
" clip-path="url(#p207dddf198)" style="fill: none; stroke: #7a7a7a; stroke-width: 1.875; stroke-linecap: square"/>
   </g>
   <g id="line2d_38">
    <path d="M 596.239828 173.498734 
L 596.239828 105.309425 
" clip-path="url(#p207dddf198)" style="fill: none; stroke: #7a7a7a; stroke-width: 5.625; stroke-linecap: square"/>
   </g>
   <g id="line2d_39">
    <path d="M 596.239828 139.753031 
" clip-path="url(#p207dddf198)" style="fill: none; stroke: #7a7a7a; stroke-width: 1.5; stroke-linecap: square"/>
    <g clip-path="url(#p207dddf198)">
     <use xlink:href="#md7bf87f7e4" x="596.239828" y="139.753031" style="fill: #ffffff; stroke: #ffffff; stroke-width: 1.125"/>
    </g>
   </g>
   <g id="patch_7">
    <path d="M 449.960032 252.707885 
L 449.960032 18.118365 
" style="fill: none; stroke: #000000; stroke-width: 0.8; stroke-linejoin: miter; stroke-linecap: square"/>
   </g>
   <g id="text_16">
    <!-- Madrid -->
    <g transform="translate(526.874583 12.118365) scale(0.12 -0.12)">
     <defs>
      <path id="DejaVuSans-4d" d="M 628 4666 
L 1569 4666 
L 2759 1491 
L 3956 4666 
L 4897 4666 
L 4897 0 
L 4281 0 
L 4281 4097 
L 3078 897 
L 2444 897 
L 1241 4097 
L 1241 0 
L 628 0 
L 628 4666 
z
" transform="scale(0.015625)"/>
      <path id="DejaVuSans-72" d="M 2631 2963 
Q 2534 3019 2420 3045 
Q 2306 3072 2169 3072 
Q 1681 3072 1420 2755 
Q 1159 2438 1159 1844 
L 1159 0 
L 581 0 
L 581 3500 
L 1159 3500 
L 1159 2956 
Q 1341 3275 1631 3429 
Q 1922 3584 2338 3584 
Q 2397 3584 2469 3576 
Q 2541 3569 2628 3553 
L 2631 2963 
z
" transform="scale(0.015625)"/>
     </defs>
     <use xlink:href="#DejaVuSans-4d"/>
     <use xlink:href="#DejaVuSans-61" transform="translate(86.279297 0)"/>
     <use xlink:href="#DejaVuSans-64" transform="translate(147.558594 0)"/>
     <use xlink:href="#DejaVuSans-72" transform="translate(211.035156 0)"/>
     <use xlink:href="#DejaVuSans-69" transform="translate(252.148438 0)"/>
     <use xlink:href="#DejaVuSans-64" transform="translate(279.931641 0)"/>
    </g>
   </g>
  </g>
 </g>
 <defs>
  <clipPath id="p5fb1e0c10f">
   <rect x="47.879615" y="18.118365" width="195.039728" height="234.58952"/>
  </clipPath>
  <clipPath id="p8e98db492e">
   <rect x="248.919823" y="18.118365" width="195.039728" height="234.58952"/>
  </clipPath>
  <clipPath id="p207dddf198">
   <rect x="449.960032" y="18.118365" width="195.039728" height="234.58952"/>
  </clipPath>
 </defs>
</svg>
