<?xml version="1.0" encoding="utf-8" standalone="no"?>
<!DOCTYPE svg PUBLIC "-//W3C//DTD SVG 1.1//EN"
  "http://www.w3.org/Graphics/SVG/1.1/DTD/svg11.dtd">
<svg xmlns:xlink="http://www.w3.org/1999/xlink" width="432pt" height="288pt" viewBox="0 0 432 288" xmlns="http://www.w3.org/2000/svg" version="1.1">
 <metadata>
  <rdf:RDF xmlns:dc="http://purl.org/dc/elements/1.1/" xmlns:cc="http://creativecommons.org/ns#" xmlns:rdf="http://www.w3.org/1999/02/22-rdf-syntax-ns#">
   <cc:Work>
    <dc:type rdf:resource="http://purl.org/dc/dcmitype/StillImage"/>
    <dc:format>image/svg+xml</dc:format>
    <dc:creator>
     <cc:Agent>
      <dc:title>Gergő Pintér</dc:title>
     </cc:Agent>
    </dc:creator>
    <dc:rights>
     <cc:Agent>
      <dc:title>CC BY 4.0</dc:title>
     </cc:Agent>
    </dc:rights>
   </cc:Work>
  </rdf:RDF>
 </metadata>
 <defs>
  <style type="text/css">*{stroke-linejoin: round; stroke-linecap: butt}</style>
 </defs>
 <g id="figure_1">
  <g id="patch_1">
   <path d="M 0 288 
L 432 288 
L 432 0 
L 0 0 
z
" style="fill: #ffffff"/>
  </g>
  <g id="axes_1">
   <g id="patch_2">
    <path d="M 16.36274 252.681635 
L 421.048198 252.681635 
L 421.048198 6.799459 
L 16.36274 6.799459 
z
" style="fill: #ffffff"/>
   </g>
   <g id="matplotlib.axis_1">
    <g id="xtick_1">
     <g id="line2d_1">
      <path d="M 43.34177 252.681635 
L 43.34177 6.799459 
" clip-path="url(#p0a2ed60046)" style="fill: none; stroke: #e7e7e7; stroke-width: 0.8; stroke-linecap: square"/>
     </g>
     <g id="line2d_2">
      <defs>
       <path id="mbcb02aef95" d="M 0 0 
L 0 3.5 
" style="stroke: #000000; stroke-width: 0.8"/>
      </defs>
      <g>
       <use xlink:href="#mbcb02aef95" x="43.34177" y="252.681635" style="stroke: #000000; stroke-width: 0.8"/>
      </g>
     </g>
     <g id="text_1">
      <!-- −1.4 -->
      <g transform="translate(31.200364 267.280073) scale(0.1 -0.1)">
       <defs>
        <path id="DejaVuSans-2212" d="M 678 2272 
L 4684 2272 
L 4684 1741 
L 678 1741 
L 678 2272 
z
" transform="scale(0.015625)"/>
        <path id="DejaVuSans-31" d="M 794 531 
L 1825 531 
L 1825 4091 
L 703 3866 
L 703 4441 
L 1819 4666 
L 2450 4666 
L 2450 531 
L 3481 531 
L 3481 0 
L 794 0 
L 794 531 
z
" transform="scale(0.015625)"/>
        <path id="DejaVuSans-2e" d="M 684 794 
L 1344 794 
L 1344 0 
L 684 0 
L 684 794 
z
" transform="scale(0.015625)"/>
        <path id="DejaVuSans-34" d="M 2419 4116 
L 825 1625 
L 2419 1625 
L 2419 4116 
z
M 2253 4666 
L 3047 4666 
L 3047 1625 
L 3713 1625 
L 3713 1100 
L 3047 1100 
L 3047 0 
L 2419 0 
L 2419 1100 
L 313 1100 
L 313 1709 
L 2253 4666 
z
" transform="scale(0.015625)"/>
       </defs>
       <use xlink:href="#DejaVuSans-2212"/>
       <use xlink:href="#DejaVuSans-31" transform="translate(83.789062 0)"/>
       <use xlink:href="#DejaVuSans-2e" transform="translate(147.412109 0)"/>
       <use xlink:href="#DejaVuSans-34" transform="translate(179.199219 0)"/>
      </g>
     </g>
    </g>
    <g id="xtick_2">
     <g id="line2d_3">
      <path d="M 97.299831 252.681635 
L 97.299831 6.799459 
" clip-path="url(#p0a2ed60046)" style="fill: none; stroke: #e7e7e7; stroke-width: 0.8; stroke-linecap: square"/>
     </g>
     <g id="line2d_4">
      <g>
       <use xlink:href="#mbcb02aef95" x="97.299831" y="252.681635" style="stroke: #000000; stroke-width: 0.8"/>
      </g>
     </g>
     <g id="text_2">
      <!-- −1.2 -->
      <g transform="translate(85.158425 267.280073) scale(0.1 -0.1)">
       <defs>
        <path id="DejaVuSans-32" d="M 1228 531 
L 3431 531 
L 3431 0 
L 469 0 
L 469 531 
Q 828 903 1448 1529 
Q 2069 2156 2228 2338 
Q 2531 2678 2651 2914 
Q 2772 3150 2772 3378 
Q 2772 3750 2511 3984 
Q 2250 4219 1831 4219 
Q 1534 4219 1204 4116 
Q 875 4013 500 3803 
L 500 4441 
Q 881 4594 1212 4672 
Q 1544 4750 1819 4750 
Q 2544 4750 2975 4387 
Q 3406 4025 3406 3419 
Q 3406 3131 3298 2873 
Q 3191 2616 2906 2266 
Q 2828 2175 2409 1742 
Q 1991 1309 1228 531 
z
" transform="scale(0.015625)"/>
       </defs>
       <use xlink:href="#DejaVuSans-2212"/>
       <use xlink:href="#DejaVuSans-31" transform="translate(83.789062 0)"/>
       <use xlink:href="#DejaVuSans-2e" transform="translate(147.412109 0)"/>
       <use xlink:href="#DejaVuSans-32" transform="translate(179.199219 0)"/>
      </g>
     </g>
    </g>
    <g id="xtick_3">
     <g id="line2d_5">
      <path d="M 151.257893 252.681635 
L 151.257893 6.799459 
" clip-path="url(#p0a2ed60046)" style="fill: none; stroke: #e7e7e7; stroke-width: 0.8; stroke-linecap: square"/>
     </g>
     <g id="line2d_6">
      <g>
       <use xlink:href="#mbcb02aef95" x="151.257893" y="252.681635" style="stroke: #000000; stroke-width: 0.8"/>
      </g>
     </g>
     <g id="text_3">
      <!-- −1.0 -->
      <g transform="translate(139.116486 267.280073) scale(0.1 -0.1)">
       <defs>
        <path id="DejaVuSans-30" d="M 2034 4250 
Q 1547 4250 1301 3770 
Q 1056 3291 1056 2328 
Q 1056 1369 1301 889 
Q 1547 409 2034 409 
Q 2525 409 2770 889 
Q 3016 1369 3016 2328 
Q 3016 3291 2770 3770 
Q 2525 4250 2034 4250 
z
M 2034 4750 
Q 2819 4750 3233 4129 
Q 3647 3509 3647 2328 
Q 3647 1150 3233 529 
Q 2819 -91 2034 -91 
Q 1250 -91 836 529 
Q 422 1150 422 2328 
Q 422 3509 836 4129 
Q 1250 4750 2034 4750 
z
" transform="scale(0.015625)"/>
       </defs>
       <use xlink:href="#DejaVuSans-2212"/>
       <use xlink:href="#DejaVuSans-31" transform="translate(83.789062 0)"/>
       <use xlink:href="#DejaVuSans-2e" transform="translate(147.412109 0)"/>
       <use xlink:href="#DejaVuSans-30" transform="translate(179.199219 0)"/>
      </g>
     </g>
    </g>
    <g id="xtick_4">
     <g id="line2d_7">
      <path d="M 205.215954 252.681635 
L 205.215954 6.799459 
" clip-path="url(#p0a2ed60046)" style="fill: none; stroke: #e7e7e7; stroke-width: 0.8; stroke-linecap: square"/>
     </g>
     <g id="line2d_8">
      <g>
       <use xlink:href="#mbcb02aef95" x="205.215954" y="252.681635" style="stroke: #000000; stroke-width: 0.8"/>
      </g>
     </g>
     <g id="text_4">
      <!-- −0.8 -->
      <g transform="translate(193.074547 267.280073) scale(0.1 -0.1)">
       <defs>
        <path id="DejaVuSans-38" d="M 2034 2216 
Q 1584 2216 1326 1975 
Q 1069 1734 1069 1313 
Q 1069 891 1326 650 
Q 1584 409 2034 409 
Q 2484 409 2743 651 
Q 3003 894 3003 1313 
Q 3003 1734 2745 1975 
Q 2488 2216 2034 2216 
z
M 1403 2484 
Q 997 2584 770 2862 
Q 544 3141 544 3541 
Q 544 4100 942 4425 
Q 1341 4750 2034 4750 
Q 2731 4750 3128 4425 
Q 3525 4100 3525 3541 
Q 3525 3141 3298 2862 
Q 3072 2584 2669 2484 
Q 3125 2378 3379 2068 
Q 3634 1759 3634 1313 
Q 3634 634 3220 271 
Q 2806 -91 2034 -91 
Q 1263 -91 848 271 
Q 434 634 434 1313 
Q 434 1759 690 2068 
Q 947 2378 1403 2484 
z
M 1172 3481 
Q 1172 3119 1398 2916 
Q 1625 2713 2034 2713 
Q 2441 2713 2670 2916 
Q 2900 3119 2900 3481 
Q 2900 3844 2670 4047 
Q 2441 4250 2034 4250 
Q 1625 4250 1398 4047 
Q 1172 3844 1172 3481 
z
" transform="scale(0.015625)"/>
       </defs>
       <use xlink:href="#DejaVuSans-2212"/>
       <use xlink:href="#DejaVuSans-30" transform="translate(83.789062 0)"/>
       <use xlink:href="#DejaVuSans-2e" transform="translate(147.412109 0)"/>
       <use xlink:href="#DejaVuSans-38" transform="translate(179.199219 0)"/>
      </g>
     </g>
    </g>
    <g id="xtick_5">
     <g id="line2d_9">
      <path d="M 259.174014 252.681635 
L 259.174014 6.799459 
" clip-path="url(#p0a2ed60046)" style="fill: none; stroke: #e7e7e7; stroke-width: 0.8; stroke-linecap: square"/>
     </g>
     <g id="line2d_10">
      <g>
       <use xlink:href="#mbcb02aef95" x="259.174014" y="252.681635" style="stroke: #000000; stroke-width: 0.8"/>
      </g>
     </g>
     <g id="text_5">
      <!-- −0.6 -->
      <g transform="translate(247.032608 267.280073) scale(0.1 -0.1)">
       <defs>
        <path id="DejaVuSans-36" d="M 2113 2584 
Q 1688 2584 1439 2293 
Q 1191 2003 1191 1497 
Q 1191 994 1439 701 
Q 1688 409 2113 409 
Q 2538 409 2786 701 
Q 3034 994 3034 1497 
Q 3034 2003 2786 2293 
Q 2538 2584 2113 2584 
z
M 3366 4563 
L 3366 3988 
Q 3128 4100 2886 4159 
Q 2644 4219 2406 4219 
Q 1781 4219 1451 3797 
Q 1122 3375 1075 2522 
Q 1259 2794 1537 2939 
Q 1816 3084 2150 3084 
Q 2853 3084 3261 2657 
Q 3669 2231 3669 1497 
Q 3669 778 3244 343 
Q 2819 -91 2113 -91 
Q 1303 -91 875 529 
Q 447 1150 447 2328 
Q 447 3434 972 4092 
Q 1497 4750 2381 4750 
Q 2619 4750 2861 4703 
Q 3103 4656 3366 4563 
z
" transform="scale(0.015625)"/>
       </defs>
       <use xlink:href="#DejaVuSans-2212"/>
       <use xlink:href="#DejaVuSans-30" transform="translate(83.789062 0)"/>
       <use xlink:href="#DejaVuSans-2e" transform="translate(147.412109 0)"/>
       <use xlink:href="#DejaVuSans-36" transform="translate(179.199219 0)"/>
      </g>
     </g>
    </g>
    <g id="xtick_6">
     <g id="line2d_11">
      <path d="M 313.132076 252.681635 
L 313.132076 6.799459 
" clip-path="url(#p0a2ed60046)" style="fill: none; stroke: #e7e7e7; stroke-width: 0.8; stroke-linecap: square"/>
     </g>
     <g id="line2d_12">
      <g>
       <use xlink:href="#mbcb02aef95" x="313.132076" y="252.681635" style="stroke: #000000; stroke-width: 0.8"/>
      </g>
     </g>
     <g id="text_6">
      <!-- −0.4 -->
      <g transform="translate(300.990669 267.280073) scale(0.1 -0.1)">
       <use xlink:href="#DejaVuSans-2212"/>
       <use xlink:href="#DejaVuSans-30" transform="translate(83.789062 0)"/>
       <use xlink:href="#DejaVuSans-2e" transform="translate(147.412109 0)"/>
       <use xlink:href="#DejaVuSans-34" transform="translate(179.199219 0)"/>
      </g>
     </g>
    </g>
    <g id="xtick_7">
     <g id="line2d_13">
      <path d="M 367.090137 252.681635 
L 367.090137 6.799459 
" clip-path="url(#p0a2ed60046)" style="fill: none; stroke: #e7e7e7; stroke-width: 0.8; stroke-linecap: square"/>
     </g>
     <g id="line2d_14">
      <g>
       <use xlink:href="#mbcb02aef95" x="367.090137" y="252.681635" style="stroke: #000000; stroke-width: 0.8"/>
      </g>
     </g>
     <g id="text_7">
      <!-- −0.2 -->
      <g transform="translate(354.94873 267.280073) scale(0.1 -0.1)">
       <use xlink:href="#DejaVuSans-2212"/>
       <use xlink:href="#DejaVuSans-30" transform="translate(83.789062 0)"/>
       <use xlink:href="#DejaVuSans-2e" transform="translate(147.412109 0)"/>
       <use xlink:href="#DejaVuSans-32" transform="translate(179.199219 0)"/>
      </g>
     </g>
    </g>
    <g id="xtick_8">
     <g id="line2d_15">
      <path d="M 421.048198 252.681635 
L 421.048198 6.799459 
" clip-path="url(#p0a2ed60046)" style="fill: none; stroke: #e7e7e7; stroke-width: 0.8; stroke-linecap: square"/>
     </g>
     <g id="line2d_16">
      <g>
       <use xlink:href="#mbcb02aef95" x="421.048198" y="252.681635" style="stroke: #000000; stroke-width: 0.8"/>
      </g>
     </g>
     <g id="text_8">
      <!-- 0.0 -->
      <g transform="translate(413.096635 267.280073) scale(0.1 -0.1)">
       <use xlink:href="#DejaVuSans-30"/>
       <use xlink:href="#DejaVuSans-2e" transform="translate(63.623047 0)"/>
       <use xlink:href="#DejaVuSans-30" transform="translate(95.410156 0)"/>
      </g>
     </g>
    </g>
    <g id="text_9">
     <!-- $log_{10}$ Gini -->
     <g transform="translate(190.325469 282.47976) scale(0.12 -0.12)">
      <defs>
       <path id="DejaVuSans-Oblique-6c" d="M 1172 4863 
L 1747 4863 
L 800 0 
L 225 0 
L 1172 4863 
z
" transform="scale(0.015625)"/>
       <path id="DejaVuSans-Oblique-6f" d="M 1625 -91 
Q 1009 -91 651 289 
Q 294 669 294 1325 
Q 294 1706 417 2101 
Q 541 2497 738 2766 
Q 1047 3184 1428 3384 
Q 1809 3584 2291 3584 
Q 2888 3584 3255 3212 
Q 3622 2841 3622 2241 
Q 3622 1825 3500 1412 
Q 3378 1000 3181 728 
Q 2875 309 2494 109 
Q 2113 -91 1625 -91 
z
M 891 1344 
Q 891 869 1089 633 
Q 1288 397 1691 397 
Q 2269 397 2648 901 
Q 3028 1406 3028 2181 
Q 3028 2634 2825 2865 
Q 2622 3097 2228 3097 
Q 1903 3097 1650 2945 
Q 1397 2794 1197 2484 
Q 1050 2253 970 1956 
Q 891 1659 891 1344 
z
" transform="scale(0.015625)"/>
       <path id="DejaVuSans-Oblique-67" d="M 3816 3500 
L 3219 434 
Q 3047 -456 2561 -893 
Q 2075 -1331 1253 -1331 
Q 950 -1331 690 -1286 
Q 431 -1241 206 -1147 
L 313 -588 
Q 525 -725 762 -790 
Q 1000 -856 1269 -856 
Q 1816 -856 2167 -557 
Q 2519 -259 2631 300 
L 2681 563 
Q 2441 288 2122 144 
Q 1803 0 1434 0 
Q 903 0 598 351 
Q 294 703 294 1319 
Q 294 1803 478 2267 
Q 663 2731 997 3091 
Q 1219 3328 1514 3456 
Q 1809 3584 2131 3584 
Q 2484 3584 2746 3420 
Q 3009 3256 3138 2956 
L 3238 3500 
L 3816 3500 
z
M 2950 2216 
Q 2950 2641 2750 2872 
Q 2550 3103 2181 3103 
Q 1953 3103 1747 3012 
Q 1541 2922 1394 2759 
Q 1156 2491 1023 2127 
Q 891 1763 891 1375 
Q 891 944 1092 712 
Q 1294 481 1672 481 
Q 2219 481 2584 976 
Q 2950 1472 2950 2216 
z
" transform="scale(0.015625)"/>
       <path id="DejaVuSans-20" transform="scale(0.015625)"/>
       <path id="DejaVuSans-47" d="M 3809 666 
L 3809 1919 
L 2778 1919 
L 2778 2438 
L 4434 2438 
L 4434 434 
Q 4069 175 3628 42 
Q 3188 -91 2688 -91 
Q 1594 -91 976 548 
Q 359 1188 359 2328 
Q 359 3472 976 4111 
Q 1594 4750 2688 4750 
Q 3144 4750 3555 4637 
Q 3966 4525 4313 4306 
L 4313 3634 
Q 3963 3931 3569 4081 
Q 3175 4231 2741 4231 
Q 1884 4231 1454 3753 
Q 1025 3275 1025 2328 
Q 1025 1384 1454 906 
Q 1884 428 2741 428 
Q 3075 428 3337 486 
Q 3600 544 3809 666 
z
" transform="scale(0.015625)"/>
       <path id="DejaVuSans-69" d="M 603 3500 
L 1178 3500 
L 1178 0 
L 603 0 
L 603 3500 
z
M 603 4863 
L 1178 4863 
L 1178 4134 
L 603 4134 
L 603 4863 
z
" transform="scale(0.015625)"/>
       <path id="DejaVuSans-6e" d="M 3513 2113 
L 3513 0 
L 2938 0 
L 2938 2094 
Q 2938 2591 2744 2837 
Q 2550 3084 2163 3084 
Q 1697 3084 1428 2787 
Q 1159 2491 1159 1978 
L 1159 0 
L 581 0 
L 581 3500 
L 1159 3500 
L 1159 2956 
Q 1366 3272 1645 3428 
Q 1925 3584 2291 3584 
Q 2894 3584 3203 3211 
Q 3513 2838 3513 2113 
z
" transform="scale(0.015625)"/>
      </defs>
      <use xlink:href="#DejaVuSans-Oblique-6c" transform="translate(0 0.015625)"/>
      <use xlink:href="#DejaVuSans-Oblique-6f" transform="translate(27.783203 0.015625)"/>
      <use xlink:href="#DejaVuSans-Oblique-67" transform="translate(88.964844 0.015625)"/>
      <use xlink:href="#DejaVuSans-31" transform="translate(152.441406 -16.390625) scale(0.7)"/>
      <use xlink:href="#DejaVuSans-30" transform="translate(196.977539 -16.390625) scale(0.7)"/>
      <use xlink:href="#DejaVuSans-20" transform="translate(244.248047 0.015625)"/>
      <use xlink:href="#DejaVuSans-47" transform="translate(276.035156 0.015625)"/>
      <use xlink:href="#DejaVuSans-69" transform="translate(353.525391 0.015625)"/>
      <use xlink:href="#DejaVuSans-6e" transform="translate(381.308594 0.015625)"/>
      <use xlink:href="#DejaVuSans-69" transform="translate(444.6875 0.015625)"/>
     </g>
    </g>
   </g>
   <g id="matplotlib.axis_2">
    <g id="ytick_1">
     <g id="line2d_17">
      <path d="M 16.36274 252.681635 
L 421.048198 252.681635 
" clip-path="url(#p0a2ed60046)" style="fill: none; stroke: #e7e7e7; stroke-width: 0.8; stroke-linecap: square"/>
     </g>
     <g id="line2d_18">
      <defs>
       <path id="me5179b328b" d="M 0 0 
L -3.5 0 
" style="stroke: #000000; stroke-width: 0.8"/>
      </defs>
      <g>
       <use xlink:href="#me5179b328b" x="16.36274" y="252.681635" style="stroke: #000000; stroke-width: 0.8"/>
      </g>
     </g>
     <g id="text_10">
      <!-- 0 -->
      <g transform="translate(3.00024 256.480854) scale(0.1 -0.1)">
       <use xlink:href="#DejaVuSans-30"/>
      </g>
     </g>
    </g>
    <g id="ytick_2">
     <g id="line2d_19">
      <path d="M 16.36274 203.5052 
L 421.048198 203.5052 
" clip-path="url(#p0a2ed60046)" style="fill: none; stroke: #e7e7e7; stroke-width: 0.8; stroke-linecap: square"/>
     </g>
     <g id="line2d_20">
      <g>
       <use xlink:href="#me5179b328b" x="16.36274" y="203.5052" style="stroke: #000000; stroke-width: 0.8"/>
      </g>
     </g>
     <g id="text_11">
      <!-- 1 -->
      <g transform="translate(3.00024 207.304418) scale(0.1 -0.1)">
       <use xlink:href="#DejaVuSans-31"/>
      </g>
     </g>
    </g>
    <g id="ytick_3">
     <g id="line2d_21">
      <path d="M 16.36274 154.328764 
L 421.048198 154.328764 
" clip-path="url(#p0a2ed60046)" style="fill: none; stroke: #e7e7e7; stroke-width: 0.8; stroke-linecap: square"/>
     </g>
     <g id="line2d_22">
      <g>
       <use xlink:href="#me5179b328b" x="16.36274" y="154.328764" style="stroke: #000000; stroke-width: 0.8"/>
      </g>
     </g>
     <g id="text_12">
      <!-- 2 -->
      <g transform="translate(3.00024 158.127983) scale(0.1 -0.1)">
       <use xlink:href="#DejaVuSans-32"/>
      </g>
     </g>
    </g>
    <g id="ytick_4">
     <g id="line2d_23">
      <path d="M 16.36274 105.152329 
L 421.048198 105.152329 
" clip-path="url(#p0a2ed60046)" style="fill: none; stroke: #e7e7e7; stroke-width: 0.8; stroke-linecap: square"/>
     </g>
     <g id="line2d_24">
      <g>
       <use xlink:href="#me5179b328b" x="16.36274" y="105.152329" style="stroke: #000000; stroke-width: 0.8"/>
      </g>
     </g>
     <g id="text_13">
      <!-- 3 -->
      <g transform="translate(3.00024 108.951548) scale(0.1 -0.1)">
       <defs>
        <path id="DejaVuSans-33" d="M 2597 2516 
Q 3050 2419 3304 2112 
Q 3559 1806 3559 1356 
Q 3559 666 3084 287 
Q 2609 -91 1734 -91 
Q 1441 -91 1130 -33 
Q 819 25 488 141 
L 488 750 
Q 750 597 1062 519 
Q 1375 441 1716 441 
Q 2309 441 2620 675 
Q 2931 909 2931 1356 
Q 2931 1769 2642 2001 
Q 2353 2234 1838 2234 
L 1294 2234 
L 1294 2753 
L 1863 2753 
Q 2328 2753 2575 2939 
Q 2822 3125 2822 3475 
Q 2822 3834 2567 4026 
Q 2313 4219 1838 4219 
Q 1578 4219 1281 4162 
Q 984 4106 628 3988 
L 628 4550 
Q 988 4650 1302 4700 
Q 1616 4750 1894 4750 
Q 2613 4750 3031 4423 
Q 3450 4097 3450 3541 
Q 3450 3153 3228 2886 
Q 3006 2619 2597 2516 
z
" transform="scale(0.015625)"/>
       </defs>
       <use xlink:href="#DejaVuSans-33"/>
      </g>
     </g>
    </g>
    <g id="ytick_5">
     <g id="line2d_25">
      <path d="M 16.36274 55.975894 
L 421.048198 55.975894 
" clip-path="url(#p0a2ed60046)" style="fill: none; stroke: #e7e7e7; stroke-width: 0.8; stroke-linecap: square"/>
     </g>
     <g id="line2d_26">
      <g>
       <use xlink:href="#me5179b328b" x="16.36274" y="55.975894" style="stroke: #000000; stroke-width: 0.8"/>
      </g>
     </g>
     <g id="text_14">
      <!-- 4 -->
      <g transform="translate(3.00024 59.775113) scale(0.1 -0.1)">
       <use xlink:href="#DejaVuSans-34"/>
      </g>
     </g>
    </g>
    <g id="ytick_6">
     <g id="line2d_27">
      <path d="M 16.36274 6.799459 
L 421.048198 6.799459 
" clip-path="url(#p0a2ed60046)" style="fill: none; stroke: #e7e7e7; stroke-width: 0.8; stroke-linecap: square"/>
     </g>
     <g id="line2d_28">
      <g>
       <use xlink:href="#me5179b328b" x="16.36274" y="6.799459" style="stroke: #000000; stroke-width: 0.8"/>
      </g>
     </g>
     <g id="text_15">
      <!-- 5 -->
      <g transform="translate(3.00024 10.598678) scale(0.1 -0.1)">
       <defs>
        <path id="DejaVuSans-35" d="M 691 4666 
L 3169 4666 
L 3169 4134 
L 1269 4134 
L 1269 2991 
Q 1406 3038 1543 3061 
Q 1681 3084 1819 3084 
Q 2600 3084 3056 2656 
Q 3513 2228 3513 1497 
Q 3513 744 3044 326 
Q 2575 -91 1722 -91 
Q 1428 -91 1123 -41 
Q 819 9 494 109 
L 494 744 
Q 775 591 1075 516 
Q 1375 441 1709 441 
Q 2250 441 2565 725 
Q 2881 1009 2881 1497 
Q 2881 1984 2565 2268 
Q 2250 2553 1709 2553 
Q 1456 2553 1204 2497 
Q 953 2441 691 2322 
L 691 4666 
z
" transform="scale(0.015625)"/>
       </defs>
       <use xlink:href="#DejaVuSans-35"/>
      </g>
     </g>
    </g>
   </g>
   <g id="FillBetweenPolyCollection_1">
    <defs>
     <path id="mc92278412e" d="M 93.465597 -35.323989 
L 93.465597 -35.318365 
L 94.411595 -35.318365 
L 95.357592 -35.318365 
L 96.30359 -35.318365 
L 97.249588 -35.318365 
L 98.195585 -35.318365 
L 99.141583 -35.318365 
L 100.08758 -35.318365 
L 101.033578 -35.318365 
L 101.979576 -35.318365 
L 102.925573 -35.318365 
L 103.871571 -35.318365 
L 104.817569 -35.318365 
L 105.763566 -35.318365 
L 106.709564 -35.318365 
L 107.655562 -35.318365 
L 108.601559 -35.318365 
L 109.547557 -35.318365 
L 110.493555 -35.318365 
L 111.439552 -35.318365 
L 112.38555 -35.318365 
L 113.331548 -35.318365 
L 114.277545 -35.318365 
L 115.223543 -35.318365 
L 116.169541 -35.318365 
L 117.115538 -35.318365 
L 118.061536 -35.318365 
L 119.007534 -35.318365 
L 119.953531 -35.318365 
L 120.899529 -35.318365 
L 121.845527 -35.318365 
L 122.791524 -35.318365 
L 123.737522 -35.318365 
L 124.683519 -35.318365 
L 125.629517 -35.318365 
L 126.575515 -35.318365 
L 127.521512 -35.318365 
L 128.46751 -35.318365 
L 129.413508 -35.318365 
L 130.359505 -35.318365 
L 131.305503 -35.318365 
L 132.251501 -35.318365 
L 133.197498 -35.318365 
L 134.143496 -35.318365 
L 135.089494 -35.318365 
L 136.035491 -35.318365 
L 136.981489 -35.318365 
L 137.927487 -35.318365 
L 138.873484 -35.318365 
L 139.819482 -35.318365 
L 140.76548 -35.318365 
L 141.711477 -35.318365 
L 142.657475 -35.318365 
L 143.603473 -35.318365 
L 144.54947 -35.318365 
L 145.495468 -35.318365 
L 146.441466 -35.318365 
L 147.387463 -35.318365 
L 148.333461 -35.318365 
L 149.279459 -35.318365 
L 150.225456 -35.318365 
L 151.171454 -35.318365 
L 152.117451 -35.318365 
L 153.063449 -35.318365 
L 154.009447 -35.318365 
L 154.955444 -35.318365 
L 155.901442 -35.318365 
L 156.84744 -35.318365 
L 157.793437 -35.318365 
L 158.739435 -35.318365 
L 159.685433 -35.318365 
L 160.63143 -35.318365 
L 161.577428 -35.318365 
L 162.523426 -35.318365 
L 163.469423 -35.318365 
L 164.415421 -35.318365 
L 165.361419 -35.318365 
L 166.307416 -35.318365 
L 167.253414 -35.318365 
L 168.199412 -35.318365 
L 169.145409 -35.318365 
L 170.091407 -35.318365 
L 171.037405 -35.318365 
L 171.983402 -35.318365 
L 172.9294 -35.318365 
L 173.875398 -35.318365 
L 174.821395 -35.318365 
L 175.767393 -35.318365 
L 176.71339 -35.318365 
L 177.659388 -35.318365 
L 178.605386 -35.318365 
L 179.551383 -35.318365 
L 180.497381 -35.318365 
L 181.443379 -35.318365 
L 182.389376 -35.318365 
L 183.335374 -35.318365 
L 184.281372 -35.318365 
L 185.227369 -35.318365 
L 186.173367 -35.318365 
L 187.119365 -35.318365 
L 188.065362 -35.318365 
L 189.01136 -35.318365 
L 189.957358 -35.318365 
L 190.903355 -35.318365 
L 191.849353 -35.318365 
L 192.795351 -35.318365 
L 193.741348 -35.318365 
L 194.687346 -35.318365 
L 195.633344 -35.318365 
L 196.579341 -35.318365 
L 197.525339 -35.318365 
L 198.471337 -35.318365 
L 199.417334 -35.318365 
L 200.363332 -35.318365 
L 201.309329 -35.318365 
L 202.255327 -35.318365 
L 203.201325 -35.318365 
L 204.147322 -35.318365 
L 205.09332 -35.318365 
L 206.039318 -35.318365 
L 206.985315 -35.318365 
L 207.931313 -35.318365 
L 208.877311 -35.318365 
L 209.823308 -35.318365 
L 210.769306 -35.318365 
L 211.715304 -35.318365 
L 212.661301 -35.318365 
L 213.607299 -35.318365 
L 214.553297 -35.318365 
L 215.499294 -35.318365 
L 216.445292 -35.318365 
L 217.39129 -35.318365 
L 218.337287 -35.318365 
L 219.283285 -35.318365 
L 220.229283 -35.318365 
L 221.17528 -35.318365 
L 222.121278 -35.318365 
L 223.067276 -35.318365 
L 224.013273 -35.318365 
L 224.959271 -35.318365 
L 225.905269 -35.318365 
L 226.851266 -35.318365 
L 227.797264 -35.318365 
L 228.743261 -35.318365 
L 229.689259 -35.318365 
L 230.635257 -35.318365 
L 231.581254 -35.318365 
L 232.527252 -35.318365 
L 233.47325 -35.318365 
L 234.419247 -35.318365 
L 235.365245 -35.318365 
L 236.311243 -35.318365 
L 237.25724 -35.318365 
L 238.203238 -35.318365 
L 239.149236 -35.318365 
L 240.095233 -35.318365 
L 241.041231 -35.318365 
L 241.987229 -35.318365 
L 242.933226 -35.318365 
L 243.879224 -35.318365 
L 244.825222 -35.318365 
L 245.771219 -35.318365 
L 246.717217 -35.318365 
L 247.663215 -35.318365 
L 248.609212 -35.318365 
L 249.55521 -35.318365 
L 250.501208 -35.318365 
L 251.447205 -35.318365 
L 252.393203 -35.318365 
L 253.3392 -35.318365 
L 254.285198 -35.318365 
L 255.231196 -35.318365 
L 256.177193 -35.318365 
L 257.123191 -35.318365 
L 258.069189 -35.318365 
L 259.015186 -35.318365 
L 259.961184 -35.318365 
L 260.907182 -35.318365 
L 261.853179 -35.318365 
L 262.799177 -35.318365 
L 263.745175 -35.318365 
L 264.691172 -35.318365 
L 265.63717 -35.318365 
L 266.583168 -35.318365 
L 267.529165 -35.318365 
L 268.475163 -35.318365 
L 269.421161 -35.318365 
L 270.367158 -35.318365 
L 271.313156 -35.318365 
L 272.259154 -35.318365 
L 273.205151 -35.318365 
L 274.151149 -35.318365 
L 275.097147 -35.318365 
L 276.043144 -35.318365 
L 276.989142 -35.318365 
L 277.935139 -35.318365 
L 278.881137 -35.318365 
L 279.827135 -35.318365 
L 280.773132 -35.318365 
L 281.71913 -35.318365 
L 281.71913 -35.335727 
L 281.71913 -35.335727 
L 280.773132 -35.34781 
L 279.827135 -35.367213 
L 278.881137 -35.397643 
L 277.935139 -35.444251 
L 276.989142 -35.513975 
L 276.043144 -35.615851 
L 275.097147 -35.76124 
L 274.151149 -35.963913 
L 273.205151 -36.239897 
L 272.259154 -36.607031 
L 271.313156 -37.084182 
L 270.367158 -37.690105 
L 269.421161 -38.442004 
L 268.475163 -39.353878 
L 267.529165 -40.434822 
L 266.583168 -41.687467 
L 265.63717 -43.106771 
L 264.691172 -44.679347 
L 263.745175 -46.383459 
L 262.799177 -48.189751 
L 261.853179 -50.062677 
L 260.907182 -51.962497 
L 259.961184 -53.847664 
L 259.015186 -55.677361 
L 258.069189 -57.413954 
L 257.123191 -59.025139 
L 256.177193 -60.48563 
L 255.231196 -61.778262 
L 254.285198 -62.894491 
L 253.3392 -63.834282 
L 252.393203 -64.605467 
L 251.447205 -65.222644 
L 250.501208 -65.705765 
L 249.55521 -66.078507 
L 248.609212 -66.366586 
L 247.663215 -66.596124 
L 246.717217 -66.79218 
L 245.771219 -66.977534 
L 244.825222 -67.171777 
L 243.879224 -67.390722 
L 242.933226 -67.64614 
L 241.987229 -67.945748 
L 241.041231 -68.293393 
L 240.095233 -68.689332 
L 239.149236 -69.130531 
L 238.203238 -69.610903 
L 237.25724 -70.121459 
L 236.311243 -70.650369 
L 235.365245 -71.183007 
L 234.419247 -71.702055 
L 233.47325 -72.187791 
L 232.527252 -72.618679 
L 231.581254 -72.97231 
L 230.635257 -73.226731 
L 229.689259 -73.362066 
L 228.743261 -73.362292 
L 227.797264 -73.21696 
L 226.851266 -72.922613 
L 225.905269 -72.483684 
L 224.959271 -71.912727 
L 224.013273 -71.229905 
L 223.067276 -70.461807 
L 222.121278 -69.639743 
L 221.17528 -68.797761 
L 220.229283 -67.970655 
L 219.283285 -67.192199 
L 218.337287 -66.493803 
L 217.39129 -65.903651 
L 216.445292 -65.446312 
L 215.499294 -65.1427 
L 214.553297 -65.010227 
L 213.607299 -65.062979 
L 212.661301 -65.311775 
L 211.715304 -65.764056 
L 210.769306 -66.423641 
L 209.823308 -67.290455 
L 208.877311 -68.360447 
L 207.931313 -69.625886 
L 206.985315 -71.076274 
L 206.039318 -72.700013 
L 205.09332 -74.486869 
L 204.147322 -76.431151 
L 203.201325 -78.535322 
L 202.255327 -80.813644 
L 201.309329 -83.295278 
L 200.363332 -86.026197 
L 199.417334 -89.069281 
L 198.471337 -92.502043 
L 197.525339 -96.411681 
L 196.579341 -100.887436 
L 195.633344 -106.010635 
L 194.687346 -111.843187 
L 193.741348 -118.415625 
L 192.795351 -125.716088 
L 191.849353 -133.681648 
L 190.903355 -142.193377 
L 189.957358 -151.076188 
L 189.01136 -160.104055 
L 188.065362 -169.010617 
L 187.119365 -177.504503 
L 186.173367 -185.288108 
L 185.227369 -192.078043 
L 184.281372 -197.625167 
L 183.335374 -201.732109 
L 182.389376 -204.266391 
L 181.443379 -205.167806 
L 180.497381 -204.449377 
L 179.551383 -202.192028 
L 178.605386 -198.533846 
L 177.659388 -193.655434 
L 176.71339 -187.763238 
L 175.767393 -181.072832 
L 174.821395 -173.793979 
L 173.875398 -166.118844 
L 172.9294 -158.2142 
L 171.983402 -150.217798 
L 171.037405 -142.238531 
L 170.091407 -134.359529 
L 169.145409 -126.643094 
L 168.199412 -119.13632 
L 167.253414 -111.876382 
L 166.307416 -104.894758 
L 165.361419 -98.219993 
L 164.415421 -91.878967 
L 163.469423 -85.896877 
L 162.523426 -80.296339 
L 161.577428 -75.096043 
L 160.63143 -70.309373 
L 159.685433 -65.943282 
L 158.739435 -61.997603 
L 157.793437 -58.464853 
L 156.84744 -55.330513 
L 155.901442 -52.573717 
L 154.955444 -50.16827 
L 154.009447 -48.083918 
L 153.063449 -46.287768 
L 152.117451 -44.745792 
L 151.171454 -43.424295 
L 150.225456 -42.291252 
L 149.279459 -41.317419 
L 148.333461 -40.477116 
L 147.387463 -39.748648 
L 146.441466 -39.114351 
L 145.495468 -38.5603 
L 144.54947 -38.075775 
L 143.603473 -37.652575 
L 142.657475 -37.284309 
L 141.711477 -36.965754 
L 140.76548 -36.692356 
L 139.819482 -36.459899 
L 138.873484 -36.264359 
L 137.927487 -36.101879 
L 136.981489 -35.968852 
L 136.035491 -35.862022 
L 135.089494 -35.778577 
L 134.143496 -35.716198 
L 133.197498 -35.673038 
L 132.251501 -35.647648 
L 131.305503 -35.638861 
L 130.359505 -35.645654 
L 129.413508 -35.667016 
L 128.46751 -35.701848 
L 127.521512 -35.748889 
L 126.575515 -35.806683 
L 125.629517 -35.873582 
L 124.683519 -35.947747 
L 123.737522 -36.02717 
L 122.791524 -36.109674 
L 121.845527 -36.192898 
L 120.899529 -36.274289 
L 119.953531 -36.351087 
L 119.007534 -36.420354 
L 118.061536 -36.479051 
L 117.115538 -36.524176 
L 116.169541 -36.552967 
L 115.223543 -36.56316 
L 114.277545 -36.553242 
L 113.331548 -36.522686 
L 112.38555 -36.472099 
L 111.439552 -36.403268 
L 110.493555 -36.319059 
L 109.547557 -36.223202 
L 108.601559 -36.119977 
L 107.655562 -36.013832 
L 106.709564 -35.909015 
L 105.763566 -35.809241 
L 104.817569 -35.717455 
L 103.871571 -35.635699 
L 102.925573 -35.56509 
L 101.979576 -35.5059 
L 101.033578 -35.457699 
L 100.08758 -35.41954 
L 99.141583 -35.390159 
L 98.195585 -35.368145 
L 97.249588 -35.352089 
L 96.30359 -35.340686 
L 95.357592 -35.332797 
L 94.411595 -35.327481 
L 93.465597 -35.323989 
z
" style="stroke: #0071b2; stroke-width: 1.5"/>
    </defs>
    <g clip-path="url(#p0a2ed60046)">
     <use xlink:href="#mc92278412e" x="0" y="288" style="fill: #0071b2; fill-opacity: 0.75; stroke: #0071b2; stroke-width: 1.5"/>
    </g>
   </g>
   <g id="FillBetweenPolyCollection_2">
    <path d="M -189.995664 252.679098 
L -189.995664 252.681635 
L -187.589499 252.681635 
L -185.183334 252.681635 
L -182.777169 252.681635 
L -180.371005 252.681635 
L -177.96484 252.681635 
L -175.558675 252.681635 
L -173.15251 252.681635 
L -170.746346 252.681635 
L -168.340181 252.681635 
L -165.934016 252.681635 
L -163.527851 252.681635 
L -161.121686 252.681635 
L -158.715522 252.681635 
L -156.309357 252.681635 
L -153.903192 252.681635 
L -151.497027 252.681635 
L -149.090863 252.681635 
L -146.684698 252.681635 
L -144.278533 252.681635 
L -141.872368 252.681635 
L -139.466203 252.681635 
L -137.060039 252.681635 
L -134.653874 252.681635 
L -132.247709 252.681635 
L -129.841544 252.681635 
L -127.43538 252.681635 
L -125.029215 252.681635 
L -122.62305 252.681635 
L -120.216885 252.681635 
L -117.81072 252.681635 
L -115.404556 252.681635 
L -112.998391 252.681635 
L -110.592226 252.681635 
L -108.186061 252.681635 
L -105.779897 252.681635 
L -103.373732 252.681635 
L -100.967567 252.681635 
L -98.561402 252.681635 
L -96.155237 252.681635 
L -93.749073 252.681635 
L -91.342908 252.681635 
L -88.936743 252.681635 
L -86.530578 252.681635 
L -84.124414 252.681635 
L -81.718249 252.681635 
L -79.312084 252.681635 
L -76.905919 252.681635 
L -74.499754 252.681635 
L -72.09359 252.681635 
L -69.687425 252.681635 
L -67.28126 252.681635 
L -64.875095 252.681635 
L -62.468931 252.681635 
L -60.062766 252.681635 
L -57.656601 252.681635 
L -55.250436 252.681635 
L -52.844271 252.681635 
L -50.438107 252.681635 
L -48.031942 252.681635 
L -45.625777 252.681635 
L -43.219612 252.681635 
L -40.813448 252.681635 
L -38.407283 252.681635 
L -36.001118 252.681635 
L -33.594953 252.681635 
L -31.188788 252.681635 
L -28.782624 252.681635 
L -26.376459 252.681635 
L -23.970294 252.681635 
L -21.564129 252.681635 
L -19.157965 252.681635 
L -16.7518 252.681635 
L -14.345635 252.681635 
L -11.93947 252.681635 
L -9.533305 252.681635 
L -7.127141 252.681635 
L -4.720976 252.681635 
L -2.314811 252.681635 
L 0.091354 252.681635 
L 2.497518 252.681635 
L 4.903683 252.681635 
L 7.309848 252.681635 
L 9.716013 252.681635 
L 12.122178 252.681635 
L 14.528342 252.681635 
L 16.934507 252.681635 
L 19.340672 252.681635 
L 21.746837 252.681635 
L 24.153001 252.681635 
L 26.559166 252.681635 
L 28.965331 252.681635 
L 31.371496 252.681635 
L 33.777661 252.681635 
L 36.183825 252.681635 
L 38.58999 252.681635 
L 40.996155 252.681635 
L 43.40232 252.681635 
L 45.808484 252.681635 
L 48.214649 252.681635 
L 50.620814 252.681635 
L 53.026979 252.681635 
L 55.433144 252.681635 
L 57.839308 252.681635 
L 60.245473 252.681635 
L 62.651638 252.681635 
L 65.057803 252.681635 
L 67.463967 252.681635 
L 69.870132 252.681635 
L 72.276297 252.681635 
L 74.682462 252.681635 
L 77.088627 252.681635 
L 79.494791 252.681635 
L 81.900956 252.681635 
L 84.307121 252.681635 
L 86.713286 252.681635 
L 89.11945 252.681635 
L 91.525615 252.681635 
L 93.93178 252.681635 
L 96.337945 252.681635 
L 98.74411 252.681635 
L 101.150274 252.681635 
L 103.556439 252.681635 
L 105.962604 252.681635 
L 108.368769 252.681635 
L 110.774933 252.681635 
L 113.181098 252.681635 
L 115.587263 252.681635 
L 117.993428 252.681635 
L 120.399593 252.681635 
L 122.805757 252.681635 
L 125.211922 252.681635 
L 127.618087 252.681635 
L 130.024252 252.681635 
L 132.430416 252.681635 
L 134.836581 252.681635 
L 137.242746 252.681635 
L 139.648911 252.681635 
L 142.055076 252.681635 
L 144.46124 252.681635 
L 146.867405 252.681635 
L 149.27357 252.681635 
L 151.679735 252.681635 
L 154.085899 252.681635 
L 156.492064 252.681635 
L 158.898229 252.681635 
L 161.304394 252.681635 
L 163.710559 252.681635 
L 166.116723 252.681635 
L 168.522888 252.681635 
L 170.929053 252.681635 
L 173.335218 252.681635 
L 175.741382 252.681635 
L 178.147547 252.681635 
L 180.553712 252.681635 
L 182.959877 252.681635 
L 185.366042 252.681635 
L 187.772206 252.681635 
L 190.178371 252.681635 
L 192.584536 252.681635 
L 194.990701 252.681635 
L 197.396865 252.681635 
L 199.80303 252.681635 
L 202.209195 252.681635 
L 204.61536 252.681635 
L 207.021525 252.681635 
L 209.427689 252.681635 
L 211.833854 252.681635 
L 214.240019 252.681635 
L 216.646184 252.681635 
L 219.052348 252.681635 
L 221.458513 252.681635 
L 223.864678 252.681635 
L 226.270843 252.681635 
L 228.677008 252.681635 
L 231.083172 252.681635 
L 233.489337 252.681635 
L 235.895502 252.681635 
L 238.301667 252.681635 
L 240.707831 252.681635 
L 243.113996 252.681635 
L 245.520161 252.681635 
L 247.926326 252.681635 
L 250.33249 252.681635 
L 252.738655 252.681635 
L 255.14482 252.681635 
L 257.550985 252.681635 
L 259.95715 252.681635 
L 262.363314 252.681635 
L 264.769479 252.681635 
L 267.175644 252.681635 
L 269.581809 252.681635 
L 271.987973 252.681635 
L 274.394138 252.681635 
L 276.800303 252.681635 
L 279.206468 252.681635 
L 281.612633 252.681635 
L 284.018797 252.681635 
L 286.424962 252.681635 
L 288.831127 252.681635 
L 288.831127 252.674002 
L 288.831127 252.674002 
L 286.424962 252.656189 
L 284.018797 252.605419 
L 281.612633 252.476516 
L 279.206468 252.185532 
L 276.800303 251.602761 
L 274.394138 250.569605 
L 271.987973 248.951997 
L 269.581809 246.720283 
L 267.175644 244.012899 
L 264.769479 241.129173 
L 262.363314 238.430526 
L 259.95715 236.19361 
L 257.550985 234.500674 
L 255.14482 233.233576 
L 252.738655 232.173834 
L 250.33249 231.148204 
L 247.926326 230.132428 
L 245.520161 229.24834 
L 243.113996 228.657798 
L 240.707831 228.43342 
L 238.301667 228.505809 
L 235.895502 228.720954 
L 233.489337 228.947398 
L 231.083172 229.140748 
L 228.677008 229.325538 
L 226.270843 229.527898 
L 223.864678 229.718749 
L 221.458513 229.800251 
L 219.052348 229.628848 
L 216.646184 229.050223 
L 214.240019 227.926525 
L 211.833854 226.14686 
L 209.427689 223.615851 
L 207.021525 220.217056 
L 204.61536 215.760407 
L 202.209195 209.945261 
L 199.80303 202.38435 
L 197.396865 192.718879 
L 194.990701 180.808929 
L 192.584536 166.927131 
L 190.178371 151.855038 
L 187.772206 136.814461 
L 185.366042 123.252548 
L 182.959877 112.574663 
L 180.553712 105.917654 
L 178.147547 103.993762 
L 175.741382 106.995053 
L 173.335218 114.565814 
L 170.929053 125.869653 
L 168.522888 139.748474 
L 166.116723 154.927157 
L 163.710559 170.213153 
L 161.304394 184.658347 
L 158.898229 197.652485 
L 156.492064 208.919885 
L 154.085899 218.42916 
L 151.679735 226.276048 
L 149.27357 232.604847 
L 146.867405 237.5862 
L 144.46124 241.419288 
L 142.055076 244.31992 
L 139.648911 246.487344 
L 137.242746 248.073219 
L 134.836581 249.177393 
L 132.430416 249.871443 
L 130.024252 250.229076 
L 127.618087 250.34218 
L 125.211922 250.317294 
L 122.805757 250.260543 
L 120.399593 250.259868 
L 117.993428 250.368771 
L 115.587263 250.595649 
L 113.181098 250.905643 
L 110.774933 251.238732 
L 108.368769 251.537306 
L 105.962604 251.768222 
L 103.556439 251.927631 
L 101.150274 252.029474 
L 98.74411 252.089715 
L 96.337945 252.118865 
L 93.93178 252.125749 
L 91.525615 252.124458 
L 89.11945 252.134028 
L 86.713286 252.168668 
L 84.307121 252.22705 
L 81.900956 252.291302 
L 79.494791 252.33786 
L 77.088627 252.352052 
L 74.682462 252.336028 
L 72.276297 252.306082 
L 69.870132 252.283278 
L 67.463967 252.284086 
L 65.057803 252.315132 
L 62.651638 252.372567 
L 60.245473 252.444918 
L 57.839308 252.518004 
L 55.433144 252.580136 
L 53.026979 252.62542 
L 50.620814 252.653948 
L 48.214649 252.669547 
L 45.808484 252.676967 
L 43.40232 252.680044 
L 40.996155 252.681157 
L 38.58999 252.681508 
L 36.183825 252.681604 
L 33.777661 252.681622 
L 31.371496 252.681601 
L 28.965331 252.681496 
L 26.559166 252.681119 
L 24.153001 252.679943 
L 21.746837 252.676758 
L 19.340672 252.669276 
L 16.934507 252.654088 
L 14.528342 252.62764 
L 12.122178 252.588559 
L 9.716013 252.540537 
L 7.309848 252.493525 
L 4.903683 252.461087 
L 2.497518 252.45423 
L 0.091354 252.475431 
L -2.314811 252.517198 
L -4.720976 252.566315 
L -7.127141 252.610512 
L -9.533305 252.643059 
L -11.93947 252.663234 
L -14.345635 252.673916 
L -16.7518 252.678787 
L -19.157965 252.680711 
L -21.564129 252.681371 
L -23.970294 252.681569 
L -26.376459 252.68162 
L -28.782624 252.681632 
L -31.188788 252.681635 
L -33.594953 252.681635 
L -36.001118 252.681635 
L -38.407283 252.681635 
L -40.813448 252.681635 
L -43.219612 252.681635 
L -45.625777 252.681635 
L -48.031942 252.681635 
L -50.438107 252.681635 
L -52.844271 252.681635 
L -55.250436 252.681635 
L -57.656601 252.681635 
L -60.062766 252.681635 
L -62.468931 252.681635 
L -64.875095 252.681635 
L -67.28126 252.681635 
L -69.687425 252.681635 
L -72.09359 252.681635 
L -74.499754 252.681635 
L -76.905919 252.681635 
L -79.312084 252.681635 
L -81.718249 252.681635 
L -84.124414 252.681635 
L -86.530578 252.681635 
L -88.936743 252.681635 
L -91.342908 252.681635 
L -93.749073 252.681635 
L -96.155237 252.681635 
L -98.561402 252.681635 
L -100.967567 252.681635 
L -103.373732 252.681635 
L -105.779897 252.681635 
L -108.186061 252.681635 
L -110.592226 252.681635 
L -112.998391 252.681635 
L -115.404556 252.681635 
L -117.81072 252.681635 
L -120.216885 252.681635 
L -122.62305 252.681635 
L -125.029215 252.681635 
L -127.43538 252.681635 
L -129.841544 252.681635 
L -132.247709 252.681635 
L -134.653874 252.681635 
L -137.060039 252.681634 
L -139.466203 252.681627 
L -141.872368 252.681597 
L -144.278533 252.681474 
L -146.684698 252.681044 
L -149.090863 252.679726 
L -151.497027 252.67621 
L -153.903192 252.668075 
L -156.309357 252.651829 
L -158.715522 252.624016 
L -161.121686 252.58368 
L -163.527851 252.535185 
L -165.934016 252.489079 
L -168.340181 252.458983 
L -170.746346 252.455224 
L -173.15251 252.479159 
L -175.558675 252.522395 
L -177.96484 252.571498 
L -180.371005 252.614644 
L -182.777169 252.6458 
L -185.183334 252.664777 
L -187.589499 252.674661 
L -189.995664 252.679098 
z
" clip-path="url(#p0a2ed60046)" style="fill: #d55e00; fill-opacity: 0.75; stroke: #d55e00; stroke-width: 1.5"/>
   </g>
   <g id="patch_3">
    <path d="M 16.36274 252.681635 
L 16.36274 6.799459 
" style="fill: none; stroke: #000000; stroke-width: 0.8; stroke-linejoin: miter; stroke-linecap: square"/>
   </g>
   <g id="patch_4">
    <path d="M 421.048198 252.681635 
L 421.048198 6.799459 
" style="fill: none; stroke: #000000; stroke-width: 0.8; stroke-linejoin: miter; stroke-linecap: square"/>
   </g>
   <g id="patch_5">
    <path d="M 16.36274 252.681635 
L 421.048198 252.681635 
" style="fill: none; stroke: #000000; stroke-width: 0.8; stroke-linejoin: miter; stroke-linecap: square"/>
   </g>
   <g id="patch_6">
    <path d="M 16.36274 6.799459 
L 421.048198 6.799459 
" style="fill: none; stroke: #000000; stroke-width: 0.8; stroke-linejoin: miter; stroke-linecap: square"/>
   </g>
   <g id="legend_1">
    <g id="patch_7">
     <path d="M 48.221562 38.548834 
L 389.189375 38.548834 
Q 391.989375 38.548834 391.989375 35.748834 
L 391.989375 16.599459 
Q 391.989375 13.799459 389.189375 13.799459 
L 48.221562 13.799459 
Q 45.421562 13.799459 45.421562 16.599459 
L 45.421562 35.748834 
Q 45.421562 38.548834 48.221562 38.548834 
z
" style="fill: #ffffff; opacity: 0.8; stroke: #cccccc; stroke-linejoin: miter"/>
    </g>
    <g id="patch_8">
     <path d="M 51.021562 30.037271 
L 79.021562 30.037271 
L 79.021562 20.237271 
L 51.021562 20.237271 
z
" style="fill: #0071b2; stroke: #0071b2; stroke-linejoin: miter"/>
    </g>
    <g id="text_16">
     <!-- multimodal acces -->
     <g transform="translate(90.221562 30.037271) scale(0.14 -0.14)">
      <defs>
       <path id="DejaVuSans-6d" d="M 3328 2828 
Q 3544 3216 3844 3400 
Q 4144 3584 4550 3584 
Q 5097 3584 5394 3201 
Q 5691 2819 5691 2113 
L 5691 0 
L 5113 0 
L 5113 2094 
Q 5113 2597 4934 2840 
Q 4756 3084 4391 3084 
Q 3944 3084 3684 2787 
Q 3425 2491 3425 1978 
L 3425 0 
L 2847 0 
L 2847 2094 
Q 2847 2600 2669 2842 
Q 2491 3084 2119 3084 
Q 1678 3084 1418 2786 
Q 1159 2488 1159 1978 
L 1159 0 
L 581 0 
L 581 3500 
L 1159 3500 
L 1159 2956 
Q 1356 3278 1631 3431 
Q 1906 3584 2284 3584 
Q 2666 3584 2933 3390 
Q 3200 3197 3328 2828 
z
" transform="scale(0.015625)"/>
       <path id="DejaVuSans-75" d="M 544 1381 
L 544 3500 
L 1119 3500 
L 1119 1403 
Q 1119 906 1312 657 
Q 1506 409 1894 409 
Q 2359 409 2629 706 
Q 2900 1003 2900 1516 
L 2900 3500 
L 3475 3500 
L 3475 0 
L 2900 0 
L 2900 538 
Q 2691 219 2414 64 
Q 2138 -91 1772 -91 
Q 1169 -91 856 284 
Q 544 659 544 1381 
z
M 1991 3584 
L 1991 3584 
z
" transform="scale(0.015625)"/>
       <path id="DejaVuSans-6c" d="M 603 4863 
L 1178 4863 
L 1178 0 
L 603 0 
L 603 4863 
z
" transform="scale(0.015625)"/>
       <path id="DejaVuSans-74" d="M 1172 4494 
L 1172 3500 
L 2356 3500 
L 2356 3053 
L 1172 3053 
L 1172 1153 
Q 1172 725 1289 603 
Q 1406 481 1766 481 
L 2356 481 
L 2356 0 
L 1766 0 
Q 1100 0 847 248 
Q 594 497 594 1153 
L 594 3053 
L 172 3053 
L 172 3500 
L 594 3500 
L 594 4494 
L 1172 4494 
z
" transform="scale(0.015625)"/>
       <path id="DejaVuSans-6f" d="M 1959 3097 
Q 1497 3097 1228 2736 
Q 959 2375 959 1747 
Q 959 1119 1226 758 
Q 1494 397 1959 397 
Q 2419 397 2687 759 
Q 2956 1122 2956 1747 
Q 2956 2369 2687 2733 
Q 2419 3097 1959 3097 
z
M 1959 3584 
Q 2709 3584 3137 3096 
Q 3566 2609 3566 1747 
Q 3566 888 3137 398 
Q 2709 -91 1959 -91 
Q 1206 -91 779 398 
Q 353 888 353 1747 
Q 353 2609 779 3096 
Q 1206 3584 1959 3584 
z
" transform="scale(0.015625)"/>
       <path id="DejaVuSans-64" d="M 2906 2969 
L 2906 4863 
L 3481 4863 
L 3481 0 
L 2906 0 
L 2906 525 
Q 2725 213 2448 61 
Q 2172 -91 1784 -91 
Q 1150 -91 751 415 
Q 353 922 353 1747 
Q 353 2572 751 3078 
Q 1150 3584 1784 3584 
Q 2172 3584 2448 3432 
Q 2725 3281 2906 2969 
z
M 947 1747 
Q 947 1113 1208 752 
Q 1469 391 1925 391 
Q 2381 391 2643 752 
Q 2906 1113 2906 1747 
Q 2906 2381 2643 2742 
Q 2381 3103 1925 3103 
Q 1469 3103 1208 2742 
Q 947 2381 947 1747 
z
" transform="scale(0.015625)"/>
       <path id="DejaVuSans-61" d="M 2194 1759 
Q 1497 1759 1228 1600 
Q 959 1441 959 1056 
Q 959 750 1161 570 
Q 1363 391 1709 391 
Q 2188 391 2477 730 
Q 2766 1069 2766 1631 
L 2766 1759 
L 2194 1759 
z
M 3341 1997 
L 3341 0 
L 2766 0 
L 2766 531 
Q 2569 213 2275 61 
Q 1981 -91 1556 -91 
Q 1019 -91 701 211 
Q 384 513 384 1019 
Q 384 1609 779 1909 
Q 1175 2209 1959 2209 
L 2766 2209 
L 2766 2266 
Q 2766 2663 2505 2880 
Q 2244 3097 1772 3097 
Q 1472 3097 1187 3025 
Q 903 2953 641 2809 
L 641 3341 
Q 956 3463 1253 3523 
Q 1550 3584 1831 3584 
Q 2591 3584 2966 3190 
Q 3341 2797 3341 1997 
z
" transform="scale(0.015625)"/>
       <path id="DejaVuSans-63" d="M 3122 3366 
L 3122 2828 
Q 2878 2963 2633 3030 
Q 2388 3097 2138 3097 
Q 1578 3097 1268 2742 
Q 959 2388 959 1747 
Q 959 1106 1268 751 
Q 1578 397 2138 397 
Q 2388 397 2633 464 
Q 2878 531 3122 666 
L 3122 134 
Q 2881 22 2623 -34 
Q 2366 -91 2075 -91 
Q 1284 -91 818 406 
Q 353 903 353 1747 
Q 353 2603 823 3093 
Q 1294 3584 2113 3584 
Q 2378 3584 2631 3529 
Q 2884 3475 3122 3366 
z
" transform="scale(0.015625)"/>
       <path id="DejaVuSans-65" d="M 3597 1894 
L 3597 1613 
L 953 1613 
Q 991 1019 1311 708 
Q 1631 397 2203 397 
Q 2534 397 2845 478 
Q 3156 559 3463 722 
L 3463 178 
Q 3153 47 2828 -22 
Q 2503 -91 2169 -91 
Q 1331 -91 842 396 
Q 353 884 353 1716 
Q 353 2575 817 3079 
Q 1281 3584 2069 3584 
Q 2775 3584 3186 3129 
Q 3597 2675 3597 1894 
z
M 3022 2063 
Q 3016 2534 2758 2815 
Q 2500 3097 2075 3097 
Q 1594 3097 1305 2825 
Q 1016 2553 972 2059 
L 3022 2063 
z
" transform="scale(0.015625)"/>
       <path id="DejaVuSans-73" d="M 2834 3397 
L 2834 2853 
Q 2591 2978 2328 3040 
Q 2066 3103 1784 3103 
Q 1356 3103 1142 2972 
Q 928 2841 928 2578 
Q 928 2378 1081 2264 
Q 1234 2150 1697 2047 
L 1894 2003 
Q 2506 1872 2764 1633 
Q 3022 1394 3022 966 
Q 3022 478 2636 193 
Q 2250 -91 1575 -91 
Q 1294 -91 989 -36 
Q 684 19 347 128 
L 347 722 
Q 666 556 975 473 
Q 1284 391 1588 391 
Q 1994 391 2212 530 
Q 2431 669 2431 922 
Q 2431 1156 2273 1281 
Q 2116 1406 1581 1522 
L 1381 1569 
Q 847 1681 609 1914 
Q 372 2147 372 2553 
Q 372 3047 722 3315 
Q 1072 3584 1716 3584 
Q 2034 3584 2315 3537 
Q 2597 3491 2834 3397 
z
" transform="scale(0.015625)"/>
      </defs>
      <use xlink:href="#DejaVuSans-6d"/>
      <use xlink:href="#DejaVuSans-75" transform="translate(97.412109 0)"/>
      <use xlink:href="#DejaVuSans-6c" transform="translate(160.791016 0)"/>
      <use xlink:href="#DejaVuSans-74" transform="translate(188.574219 0)"/>
      <use xlink:href="#DejaVuSans-69" transform="translate(227.783203 0)"/>
      <use xlink:href="#DejaVuSans-6d" transform="translate(255.566406 0)"/>
      <use xlink:href="#DejaVuSans-6f" transform="translate(352.978516 0)"/>
      <use xlink:href="#DejaVuSans-64" transform="translate(414.160156 0)"/>
      <use xlink:href="#DejaVuSans-61" transform="translate(477.636719 0)"/>
      <use xlink:href="#DejaVuSans-6c" transform="translate(538.916016 0)"/>
      <use xlink:href="#DejaVuSans-20" transform="translate(566.699219 0)"/>
      <use xlink:href="#DejaVuSans-61" transform="translate(598.486328 0)"/>
      <use xlink:href="#DejaVuSans-63" transform="translate(659.765625 0)"/>
      <use xlink:href="#DejaVuSans-63" transform="translate(714.746094 0)"/>
      <use xlink:href="#DejaVuSans-65" transform="translate(769.726562 0)"/>
      <use xlink:href="#DejaVuSans-73" transform="translate(831.25 0)"/>
     </g>
    </g>
    <g id="patch_9">
     <path d="M 241.889687 30.037271 
L 269.889687 30.037271 
L 269.889687 20.237271 
L 241.889687 20.237271 
z
" style="fill: #d55e00; stroke: #d55e00; stroke-linejoin: miter"/>
    </g>
    <g id="text_17">
     <!-- walking access -->
     <g transform="translate(281.089687 30.037271) scale(0.14 -0.14)">
      <defs>
       <path id="DejaVuSans-77" d="M 269 3500 
L 844 3500 
L 1563 769 
L 2278 3500 
L 2956 3500 
L 3675 769 
L 4391 3500 
L 4966 3500 
L 4050 0 
L 3372 0 
L 2619 2869 
L 1863 0 
L 1184 0 
L 269 3500 
z
" transform="scale(0.015625)"/>
       <path id="DejaVuSans-6b" d="M 581 4863 
L 1159 4863 
L 1159 1991 
L 2875 3500 
L 3609 3500 
L 1753 1863 
L 3688 0 
L 2938 0 
L 1159 1709 
L 1159 0 
L 581 0 
L 581 4863 
z
" transform="scale(0.015625)"/>
       <path id="DejaVuSans-67" d="M 2906 1791 
Q 2906 2416 2648 2759 
Q 2391 3103 1925 3103 
Q 1463 3103 1205 2759 
Q 947 2416 947 1791 
Q 947 1169 1205 825 
Q 1463 481 1925 481 
Q 2391 481 2648 825 
Q 2906 1169 2906 1791 
z
M 3481 434 
Q 3481 -459 3084 -895 
Q 2688 -1331 1869 -1331 
Q 1566 -1331 1297 -1286 
Q 1028 -1241 775 -1147 
L 775 -588 
Q 1028 -725 1275 -790 
Q 1522 -856 1778 -856 
Q 2344 -856 2625 -561 
Q 2906 -266 2906 331 
L 2906 616 
Q 2728 306 2450 153 
Q 2172 0 1784 0 
Q 1141 0 747 490 
Q 353 981 353 1791 
Q 353 2603 747 3093 
Q 1141 3584 1784 3584 
Q 2172 3584 2450 3431 
Q 2728 3278 2906 2969 
L 2906 3500 
L 3481 3500 
L 3481 434 
z
" transform="scale(0.015625)"/>
      </defs>
      <use xlink:href="#DejaVuSans-77"/>
      <use xlink:href="#DejaVuSans-61" transform="translate(81.787109 0)"/>
      <use xlink:href="#DejaVuSans-6c" transform="translate(143.066406 0)"/>
      <use xlink:href="#DejaVuSans-6b" transform="translate(170.849609 0)"/>
      <use xlink:href="#DejaVuSans-69" transform="translate(228.759766 0)"/>
      <use xlink:href="#DejaVuSans-6e" transform="translate(256.542969 0)"/>
      <use xlink:href="#DejaVuSans-67" transform="translate(319.921875 0)"/>
      <use xlink:href="#DejaVuSans-20" transform="translate(383.398438 0)"/>
      <use xlink:href="#DejaVuSans-61" transform="translate(415.185547 0)"/>
      <use xlink:href="#DejaVuSans-63" transform="translate(476.464844 0)"/>
      <use xlink:href="#DejaVuSans-63" transform="translate(531.445312 0)"/>
      <use xlink:href="#DejaVuSans-65" transform="translate(586.425781 0)"/>
      <use xlink:href="#DejaVuSans-73" transform="translate(647.949219 0)"/>
      <use xlink:href="#DejaVuSans-73" transform="translate(700.048828 0)"/>
     </g>
    </g>
   </g>
  </g>
 </g>
 <defs>
  <clipPath id="p0a2ed60046">
   <rect x="16.36274" y="6.799459" width="404.685457" height="245.882176"/>
  </clipPath>
 </defs>
</svg>
