<?xml version="1.0" encoding="utf-8" standalone="no"?>
<!DOCTYPE svg PUBLIC "-//W3C//DTD SVG 1.1//EN"
  "http://www.w3.org/Graphics/SVG/1.1/DTD/svg11.dtd">
<svg xmlns:xlink="http://www.w3.org/1999/xlink" width="432pt" height="288pt" viewBox="0 0 432 288" xmlns="http://www.w3.org/2000/svg" version="1.1">
 <metadata>
  <rdf:RDF xmlns:dc="http://purl.org/dc/elements/1.1/" xmlns:cc="http://creativecommons.org/ns#" xmlns:rdf="http://www.w3.org/1999/02/22-rdf-syntax-ns#">
   <cc:Work>
    <dc:type rdf:resource="http://purl.org/dc/dcmitype/StillImage"/>
    <dc:format>image/svg+xml</dc:format>
    <dc:creator>
     <cc:Agent>
      <dc:title>Gergő Pintér</dc:title>
     </cc:Agent>
    </dc:creator>
    <dc:rights>
     <cc:Agent>
      <dc:title>CC BY 4.0</dc:title>
     </cc:Agent>
    </dc:rights>
   </cc:Work>
  </rdf:RDF>
 </metadata>
 <defs>
  <style type="text/css">*{stroke-linejoin: round; stroke-linecap: butt}</style>
 </defs>
 <g id="figure_1">
  <g id="patch_1">
   <path d="M 0 288 
L 432 288 
L 432 0 
L 0 0 
z
" style="fill: #ffffff"/>
  </g>
  <g id="axes_1">
   <g id="patch_2">
    <path d="M 16.36274 252.681635 
L 421.048198 252.681635 
L 421.048198 6.799459 
L 16.36274 6.799459 
z
" style="fill: #ffffff"/>
   </g>
   <g id="matplotlib.axis_1">
    <g id="xtick_1">
     <g id="line2d_1">
      <path d="M 16.36274 252.681635 
L 16.36274 6.799459 
" clip-path="url(#p0a2ed60046)" style="fill: none; stroke: #e7e7e7; stroke-width: 0.8; stroke-linecap: square"/>
     </g>
     <g id="line2d_2">
      <defs>
       <path id="mbcb02aef95" d="M 0 0 
L 0 3.5 
" style="stroke: #000000; stroke-width: 0.8"/>
      </defs>
      <g>
       <use xlink:href="#mbcb02aef95" x="16.36274" y="252.681635" style="stroke: #000000; stroke-width: 0.8"/>
      </g>
     </g>
     <g id="text_1">
      <!-- 1.0 -->
      <g transform="translate(8.411178 267.280073) scale(0.1 -0.1)">
       <defs>
        <path id="DejaVuSans-31" d="M 794 531 
L 1825 531 
L 1825 4091 
L 703 3866 
L 703 4441 
L 1819 4666 
L 2450 4666 
L 2450 531 
L 3481 531 
L 3481 0 
L 794 0 
L 794 531 
z
" transform="scale(0.015625)"/>
        <path id="DejaVuSans-2e" d="M 684 794 
L 1344 794 
L 1344 0 
L 684 0 
L 684 794 
z
" transform="scale(0.015625)"/>
        <path id="DejaVuSans-30" d="M 2034 4250 
Q 1547 4250 1301 3770 
Q 1056 3291 1056 2328 
Q 1056 1369 1301 889 
Q 1547 409 2034 409 
Q 2525 409 2770 889 
Q 3016 1369 3016 2328 
Q 3016 3291 2770 3770 
Q 2525 4250 2034 4250 
z
M 2034 4750 
Q 2819 4750 3233 4129 
Q 3647 3509 3647 2328 
Q 3647 1150 3233 529 
Q 2819 -91 2034 -91 
Q 1250 -91 836 529 
Q 422 1150 422 2328 
Q 422 3509 836 4129 
Q 1250 4750 2034 4750 
z
" transform="scale(0.015625)"/>
       </defs>
       <use xlink:href="#DejaVuSans-31"/>
       <use xlink:href="#DejaVuSans-2e" transform="translate(63.623047 0)"/>
       <use xlink:href="#DejaVuSans-30" transform="translate(95.410156 0)"/>
      </g>
     </g>
    </g>
    <g id="xtick_2">
     <g id="line2d_3">
      <path d="M 97.299832 252.681635 
L 97.299832 6.799459 
" clip-path="url(#p0a2ed60046)" style="fill: none; stroke: #e7e7e7; stroke-width: 0.8; stroke-linecap: square"/>
     </g>
     <g id="line2d_4">
      <g>
       <use xlink:href="#mbcb02aef95" x="97.299832" y="252.681635" style="stroke: #000000; stroke-width: 0.8"/>
      </g>
     </g>
     <g id="text_2">
      <!-- 1.2 -->
      <g transform="translate(89.348269 267.280073) scale(0.1 -0.1)">
       <defs>
        <path id="DejaVuSans-32" d="M 1228 531 
L 3431 531 
L 3431 0 
L 469 0 
L 469 531 
Q 828 903 1448 1529 
Q 2069 2156 2228 2338 
Q 2531 2678 2651 2914 
Q 2772 3150 2772 3378 
Q 2772 3750 2511 3984 
Q 2250 4219 1831 4219 
Q 1534 4219 1204 4116 
Q 875 4013 500 3803 
L 500 4441 
Q 881 4594 1212 4672 
Q 1544 4750 1819 4750 
Q 2544 4750 2975 4387 
Q 3406 4025 3406 3419 
Q 3406 3131 3298 2873 
Q 3191 2616 2906 2266 
Q 2828 2175 2409 1742 
Q 1991 1309 1228 531 
z
" transform="scale(0.015625)"/>
       </defs>
       <use xlink:href="#DejaVuSans-31"/>
       <use xlink:href="#DejaVuSans-2e" transform="translate(63.623047 0)"/>
       <use xlink:href="#DejaVuSans-32" transform="translate(95.410156 0)"/>
      </g>
     </g>
    </g>
    <g id="xtick_3">
     <g id="line2d_5">
      <path d="M 178.236923 252.681635 
L 178.236923 6.799459 
" clip-path="url(#p0a2ed60046)" style="fill: none; stroke: #e7e7e7; stroke-width: 0.8; stroke-linecap: square"/>
     </g>
     <g id="line2d_6">
      <g>
       <use xlink:href="#mbcb02aef95" x="178.236923" y="252.681635" style="stroke: #000000; stroke-width: 0.8"/>
      </g>
     </g>
     <g id="text_3">
      <!-- 1.4 -->
      <g transform="translate(170.285361 267.280073) scale(0.1 -0.1)">
       <defs>
        <path id="DejaVuSans-34" d="M 2419 4116 
L 825 1625 
L 2419 1625 
L 2419 4116 
z
M 2253 4666 
L 3047 4666 
L 3047 1625 
L 3713 1625 
L 3713 1100 
L 3047 1100 
L 3047 0 
L 2419 0 
L 2419 1100 
L 313 1100 
L 313 1709 
L 2253 4666 
z
" transform="scale(0.015625)"/>
       </defs>
       <use xlink:href="#DejaVuSans-31"/>
       <use xlink:href="#DejaVuSans-2e" transform="translate(63.623047 0)"/>
       <use xlink:href="#DejaVuSans-34" transform="translate(95.410156 0)"/>
      </g>
     </g>
    </g>
    <g id="xtick_4">
     <g id="line2d_7">
      <path d="M 259.174015 252.681635 
L 259.174015 6.799459 
" clip-path="url(#p0a2ed60046)" style="fill: none; stroke: #e7e7e7; stroke-width: 0.8; stroke-linecap: square"/>
     </g>
     <g id="line2d_8">
      <g>
       <use xlink:href="#mbcb02aef95" x="259.174015" y="252.681635" style="stroke: #000000; stroke-width: 0.8"/>
      </g>
     </g>
     <g id="text_4">
      <!-- 1.6 -->
      <g transform="translate(251.222452 267.280073) scale(0.1 -0.1)">
       <defs>
        <path id="DejaVuSans-36" d="M 2113 2584 
Q 1688 2584 1439 2293 
Q 1191 2003 1191 1497 
Q 1191 994 1439 701 
Q 1688 409 2113 409 
Q 2538 409 2786 701 
Q 3034 994 3034 1497 
Q 3034 2003 2786 2293 
Q 2538 2584 2113 2584 
z
M 3366 4563 
L 3366 3988 
Q 3128 4100 2886 4159 
Q 2644 4219 2406 4219 
Q 1781 4219 1451 3797 
Q 1122 3375 1075 2522 
Q 1259 2794 1537 2939 
Q 1816 3084 2150 3084 
Q 2853 3084 3261 2657 
Q 3669 2231 3669 1497 
Q 3669 778 3244 343 
Q 2819 -91 2113 -91 
Q 1303 -91 875 529 
Q 447 1150 447 2328 
Q 447 3434 972 4092 
Q 1497 4750 2381 4750 
Q 2619 4750 2861 4703 
Q 3103 4656 3366 4563 
z
" transform="scale(0.015625)"/>
       </defs>
       <use xlink:href="#DejaVuSans-31"/>
       <use xlink:href="#DejaVuSans-2e" transform="translate(63.623047 0)"/>
       <use xlink:href="#DejaVuSans-36" transform="translate(95.410156 0)"/>
      </g>
     </g>
    </g>
    <g id="xtick_5">
     <g id="line2d_9">
      <path d="M 340.111106 252.681635 
L 340.111106 6.799459 
" clip-path="url(#p0a2ed60046)" style="fill: none; stroke: #e7e7e7; stroke-width: 0.8; stroke-linecap: square"/>
     </g>
     <g id="line2d_10">
      <g>
       <use xlink:href="#mbcb02aef95" x="340.111106" y="252.681635" style="stroke: #000000; stroke-width: 0.8"/>
      </g>
     </g>
     <g id="text_5">
      <!-- 1.8 -->
      <g transform="translate(332.159544 267.280073) scale(0.1 -0.1)">
       <defs>
        <path id="DejaVuSans-38" d="M 2034 2216 
Q 1584 2216 1326 1975 
Q 1069 1734 1069 1313 
Q 1069 891 1326 650 
Q 1584 409 2034 409 
Q 2484 409 2743 651 
Q 3003 894 3003 1313 
Q 3003 1734 2745 1975 
Q 2488 2216 2034 2216 
z
M 1403 2484 
Q 997 2584 770 2862 
Q 544 3141 544 3541 
Q 544 4100 942 4425 
Q 1341 4750 2034 4750 
Q 2731 4750 3128 4425 
Q 3525 4100 3525 3541 
Q 3525 3141 3298 2862 
Q 3072 2584 2669 2484 
Q 3125 2378 3379 2068 
Q 3634 1759 3634 1313 
Q 3634 634 3220 271 
Q 2806 -91 2034 -91 
Q 1263 -91 848 271 
Q 434 634 434 1313 
Q 434 1759 690 2068 
Q 947 2378 1403 2484 
z
M 1172 3481 
Q 1172 3119 1398 2916 
Q 1625 2713 2034 2713 
Q 2441 2713 2670 2916 
Q 2900 3119 2900 3481 
Q 2900 3844 2670 4047 
Q 2441 4250 2034 4250 
Q 1625 4250 1398 4047 
Q 1172 3844 1172 3481 
z
" transform="scale(0.015625)"/>
       </defs>
       <use xlink:href="#DejaVuSans-31"/>
       <use xlink:href="#DejaVuSans-2e" transform="translate(63.623047 0)"/>
       <use xlink:href="#DejaVuSans-38" transform="translate(95.410156 0)"/>
      </g>
     </g>
    </g>
    <g id="xtick_6">
     <g id="line2d_11">
      <path d="M 421.048198 252.681635 
L 421.048198 6.799459 
" clip-path="url(#p0a2ed60046)" style="fill: none; stroke: #e7e7e7; stroke-width: 0.8; stroke-linecap: square"/>
     </g>
     <g id="line2d_12">
      <g>
       <use xlink:href="#mbcb02aef95" x="421.048198" y="252.681635" style="stroke: #000000; stroke-width: 0.8"/>
      </g>
     </g>
     <g id="text_6">
      <!-- 2.0 -->
      <g transform="translate(413.096635 267.280073) scale(0.1 -0.1)">
       <use xlink:href="#DejaVuSans-32"/>
       <use xlink:href="#DejaVuSans-2e" transform="translate(63.623047 0)"/>
       <use xlink:href="#DejaVuSans-30" transform="translate(95.410156 0)"/>
      </g>
     </g>
    </g>
    <g id="text_7">
     <!-- $log_{10}$ Gini -->
     <g transform="translate(190.325469 282.47976) scale(0.12 -0.12)">
      <defs>
       <path id="DejaVuSans-Oblique-6c" d="M 1172 4863 
L 1747 4863 
L 800 0 
L 225 0 
L 1172 4863 
z
" transform="scale(0.015625)"/>
       <path id="DejaVuSans-Oblique-6f" d="M 1625 -91 
Q 1009 -91 651 289 
Q 294 669 294 1325 
Q 294 1706 417 2101 
Q 541 2497 738 2766 
Q 1047 3184 1428 3384 
Q 1809 3584 2291 3584 
Q 2888 3584 3255 3212 
Q 3622 2841 3622 2241 
Q 3622 1825 3500 1412 
Q 3378 1000 3181 728 
Q 2875 309 2494 109 
Q 2113 -91 1625 -91 
z
M 891 1344 
Q 891 869 1089 633 
Q 1288 397 1691 397 
Q 2269 397 2648 901 
Q 3028 1406 3028 2181 
Q 3028 2634 2825 2865 
Q 2622 3097 2228 3097 
Q 1903 3097 1650 2945 
Q 1397 2794 1197 2484 
Q 1050 2253 970 1956 
Q 891 1659 891 1344 
z
" transform="scale(0.015625)"/>
       <path id="DejaVuSans-Oblique-67" d="M 3816 3500 
L 3219 434 
Q 3047 -456 2561 -893 
Q 2075 -1331 1253 -1331 
Q 950 -1331 690 -1286 
Q 431 -1241 206 -1147 
L 313 -588 
Q 525 -725 762 -790 
Q 1000 -856 1269 -856 
Q 1816 -856 2167 -557 
Q 2519 -259 2631 300 
L 2681 563 
Q 2441 288 2122 144 
Q 1803 0 1434 0 
Q 903 0 598 351 
Q 294 703 294 1319 
Q 294 1803 478 2267 
Q 663 2731 997 3091 
Q 1219 3328 1514 3456 
Q 1809 3584 2131 3584 
Q 2484 3584 2746 3420 
Q 3009 3256 3138 2956 
L 3238 3500 
L 3816 3500 
z
M 2950 2216 
Q 2950 2641 2750 2872 
Q 2550 3103 2181 3103 
Q 1953 3103 1747 3012 
Q 1541 2922 1394 2759 
Q 1156 2491 1023 2127 
Q 891 1763 891 1375 
Q 891 944 1092 712 
Q 1294 481 1672 481 
Q 2219 481 2584 976 
Q 2950 1472 2950 2216 
z
" transform="scale(0.015625)"/>
       <path id="DejaVuSans-20" transform="scale(0.015625)"/>
       <path id="DejaVuSans-47" d="M 3809 666 
L 3809 1919 
L 2778 1919 
L 2778 2438 
L 4434 2438 
L 4434 434 
Q 4069 175 3628 42 
Q 3188 -91 2688 -91 
Q 1594 -91 976 548 
Q 359 1188 359 2328 
Q 359 3472 976 4111 
Q 1594 4750 2688 4750 
Q 3144 4750 3555 4637 
Q 3966 4525 4313 4306 
L 4313 3634 
Q 3963 3931 3569 4081 
Q 3175 4231 2741 4231 
Q 1884 4231 1454 3753 
Q 1025 3275 1025 2328 
Q 1025 1384 1454 906 
Q 1884 428 2741 428 
Q 3075 428 3337 486 
Q 3600 544 3809 666 
z
" transform="scale(0.015625)"/>
       <path id="DejaVuSans-69" d="M 603 3500 
L 1178 3500 
L 1178 0 
L 603 0 
L 603 3500 
z
M 603 4863 
L 1178 4863 
L 1178 4134 
L 603 4134 
L 603 4863 
z
" transform="scale(0.015625)"/>
       <path id="DejaVuSans-6e" d="M 3513 2113 
L 3513 0 
L 2938 0 
L 2938 2094 
Q 2938 2591 2744 2837 
Q 2550 3084 2163 3084 
Q 1697 3084 1428 2787 
Q 1159 2491 1159 1978 
L 1159 0 
L 581 0 
L 581 3500 
L 1159 3500 
L 1159 2956 
Q 1366 3272 1645 3428 
Q 1925 3584 2291 3584 
Q 2894 3584 3203 3211 
Q 3513 2838 3513 2113 
z
" transform="scale(0.015625)"/>
      </defs>
      <use xlink:href="#DejaVuSans-Oblique-6c" transform="translate(0 0.015625)"/>
      <use xlink:href="#DejaVuSans-Oblique-6f" transform="translate(27.783203 0.015625)"/>
      <use xlink:href="#DejaVuSans-Oblique-67" transform="translate(88.964844 0.015625)"/>
      <use xlink:href="#DejaVuSans-31" transform="translate(152.441406 -16.390625) scale(0.7)"/>
      <use xlink:href="#DejaVuSans-30" transform="translate(196.977539 -16.390625) scale(0.7)"/>
      <use xlink:href="#DejaVuSans-20" transform="translate(244.248047 0.015625)"/>
      <use xlink:href="#DejaVuSans-47" transform="translate(276.035156 0.015625)"/>
      <use xlink:href="#DejaVuSans-69" transform="translate(353.525391 0.015625)"/>
      <use xlink:href="#DejaVuSans-6e" transform="translate(381.308594 0.015625)"/>
      <use xlink:href="#DejaVuSans-69" transform="translate(444.6875 0.015625)"/>
     </g>
    </g>
   </g>
   <g id="matplotlib.axis_2">
    <g id="ytick_1">
     <g id="line2d_13">
      <path d="M 16.36274 252.681635 
L 421.048198 252.681635 
" clip-path="url(#p0a2ed60046)" style="fill: none; stroke: #e7e7e7; stroke-width: 0.8; stroke-linecap: square"/>
     </g>
     <g id="line2d_14">
      <defs>
       <path id="me5179b328b" d="M 0 0 
L -3.5 0 
" style="stroke: #000000; stroke-width: 0.8"/>
      </defs>
      <g>
       <use xlink:href="#me5179b328b" x="16.36274" y="252.681635" style="stroke: #000000; stroke-width: 0.8"/>
      </g>
     </g>
     <g id="text_8">
      <!-- 0 -->
      <g transform="translate(3.00024 256.480854) scale(0.1 -0.1)">
       <use xlink:href="#DejaVuSans-30"/>
      </g>
     </g>
    </g>
    <g id="ytick_2">
     <g id="line2d_15">
      <path d="M 16.36274 217.55561 
L 421.048198 217.55561 
" clip-path="url(#p0a2ed60046)" style="fill: none; stroke: #e7e7e7; stroke-width: 0.8; stroke-linecap: square"/>
     </g>
     <g id="line2d_16">
      <g>
       <use xlink:href="#me5179b328b" x="16.36274" y="217.55561" style="stroke: #000000; stroke-width: 0.8"/>
      </g>
     </g>
     <g id="text_9">
      <!-- 1 -->
      <g transform="translate(3.00024 221.354829) scale(0.1 -0.1)">
       <use xlink:href="#DejaVuSans-31"/>
      </g>
     </g>
    </g>
    <g id="ytick_3">
     <g id="line2d_17">
      <path d="M 16.36274 182.429585 
L 421.048198 182.429585 
" clip-path="url(#p0a2ed60046)" style="fill: none; stroke: #e7e7e7; stroke-width: 0.8; stroke-linecap: square"/>
     </g>
     <g id="line2d_18">
      <g>
       <use xlink:href="#me5179b328b" x="16.36274" y="182.429585" style="stroke: #000000; stroke-width: 0.8"/>
      </g>
     </g>
     <g id="text_10">
      <!-- 2 -->
      <g transform="translate(3.00024 186.228803) scale(0.1 -0.1)">
       <use xlink:href="#DejaVuSans-32"/>
      </g>
     </g>
    </g>
    <g id="ytick_4">
     <g id="line2d_19">
      <path d="M 16.36274 147.303559 
L 421.048198 147.303559 
" clip-path="url(#p0a2ed60046)" style="fill: none; stroke: #e7e7e7; stroke-width: 0.8; stroke-linecap: square"/>
     </g>
     <g id="line2d_20">
      <g>
       <use xlink:href="#me5179b328b" x="16.36274" y="147.303559" style="stroke: #000000; stroke-width: 0.8"/>
      </g>
     </g>
     <g id="text_11">
      <!-- 3 -->
      <g transform="translate(3.00024 151.102778) scale(0.1 -0.1)">
       <defs>
        <path id="DejaVuSans-33" d="M 2597 2516 
Q 3050 2419 3304 2112 
Q 3559 1806 3559 1356 
Q 3559 666 3084 287 
Q 2609 -91 1734 -91 
Q 1441 -91 1130 -33 
Q 819 25 488 141 
L 488 750 
Q 750 597 1062 519 
Q 1375 441 1716 441 
Q 2309 441 2620 675 
Q 2931 909 2931 1356 
Q 2931 1769 2642 2001 
Q 2353 2234 1838 2234 
L 1294 2234 
L 1294 2753 
L 1863 2753 
Q 2328 2753 2575 2939 
Q 2822 3125 2822 3475 
Q 2822 3834 2567 4026 
Q 2313 4219 1838 4219 
Q 1578 4219 1281 4162 
Q 984 4106 628 3988 
L 628 4550 
Q 988 4650 1302 4700 
Q 1616 4750 1894 4750 
Q 2613 4750 3031 4423 
Q 3450 4097 3450 3541 
Q 3450 3153 3228 2886 
Q 3006 2619 2597 2516 
z
" transform="scale(0.015625)"/>
       </defs>
       <use xlink:href="#DejaVuSans-33"/>
      </g>
     </g>
    </g>
    <g id="ytick_5">
     <g id="line2d_21">
      <path d="M 16.36274 112.177534 
L 421.048198 112.177534 
" clip-path="url(#p0a2ed60046)" style="fill: none; stroke: #e7e7e7; stroke-width: 0.8; stroke-linecap: square"/>
     </g>
     <g id="line2d_22">
      <g>
       <use xlink:href="#me5179b328b" x="16.36274" y="112.177534" style="stroke: #000000; stroke-width: 0.8"/>
      </g>
     </g>
     <g id="text_12">
      <!-- 4 -->
      <g transform="translate(3.00024 115.976753) scale(0.1 -0.1)">
       <use xlink:href="#DejaVuSans-34"/>
      </g>
     </g>
    </g>
    <g id="ytick_6">
     <g id="line2d_23">
      <path d="M 16.36274 77.051509 
L 421.048198 77.051509 
" clip-path="url(#p0a2ed60046)" style="fill: none; stroke: #e7e7e7; stroke-width: 0.8; stroke-linecap: square"/>
     </g>
     <g id="line2d_24">
      <g>
       <use xlink:href="#me5179b328b" x="16.36274" y="77.051509" style="stroke: #000000; stroke-width: 0.8"/>
      </g>
     </g>
     <g id="text_13">
      <!-- 5 -->
      <g transform="translate(3.00024 80.850728) scale(0.1 -0.1)">
       <defs>
        <path id="DejaVuSans-35" d="M 691 4666 
L 3169 4666 
L 3169 4134 
L 1269 4134 
L 1269 2991 
Q 1406 3038 1543 3061 
Q 1681 3084 1819 3084 
Q 2600 3084 3056 2656 
Q 3513 2228 3513 1497 
Q 3513 744 3044 326 
Q 2575 -91 1722 -91 
Q 1428 -91 1123 -41 
Q 819 9 494 109 
L 494 744 
Q 775 591 1075 516 
Q 1375 441 1709 441 
Q 2250 441 2565 725 
Q 2881 1009 2881 1497 
Q 2881 1984 2565 2268 
Q 2250 2553 1709 2553 
Q 1456 2553 1204 2497 
Q 953 2441 691 2322 
L 691 4666 
z
" transform="scale(0.015625)"/>
       </defs>
       <use xlink:href="#DejaVuSans-35"/>
      </g>
     </g>
    </g>
    <g id="ytick_7">
     <g id="line2d_25">
      <path d="M 16.36274 41.925484 
L 421.048198 41.925484 
" clip-path="url(#p0a2ed60046)" style="fill: none; stroke: #e7e7e7; stroke-width: 0.8; stroke-linecap: square"/>
     </g>
     <g id="line2d_26">
      <g>
       <use xlink:href="#me5179b328b" x="16.36274" y="41.925484" style="stroke: #000000; stroke-width: 0.8"/>
      </g>
     </g>
     <g id="text_14">
      <!-- 6 -->
      <g transform="translate(3.00024 45.724703) scale(0.1 -0.1)">
       <use xlink:href="#DejaVuSans-36"/>
      </g>
     </g>
    </g>
    <g id="ytick_8">
     <g id="line2d_27">
      <path d="M 16.36274 6.799459 
L 421.048198 6.799459 
" clip-path="url(#p0a2ed60046)" style="fill: none; stroke: #e7e7e7; stroke-width: 0.8; stroke-linecap: square"/>
     </g>
     <g id="line2d_28">
      <g>
       <use xlink:href="#me5179b328b" x="16.36274" y="6.799459" style="stroke: #000000; stroke-width: 0.8"/>
      </g>
     </g>
     <g id="text_15">
      <!-- 7 -->
      <g transform="translate(3.00024 10.598678) scale(0.1 -0.1)">
       <defs>
        <path id="DejaVuSans-37" d="M 525 4666 
L 3525 4666 
L 3525 4397 
L 1831 0 
L 1172 0 
L 2766 4134 
L 525 4134 
L 525 4666 
z
" transform="scale(0.015625)"/>
       </defs>
       <use xlink:href="#DejaVuSans-37"/>
      </g>
     </g>
    </g>
   </g>
   <g id="FillBetweenPolyCollection_1">
    <defs>
     <path id="m855acd605f" d="M 159.843719 -35.330128 
L 159.843719 -35.318365 
L 160.495082 -35.318365 
L 161.146445 -35.318365 
L 161.797808 -35.318365 
L 162.449171 -35.318365 
L 163.100534 -35.318365 
L 163.751897 -35.318365 
L 164.403261 -35.318365 
L 165.054624 -35.318365 
L 165.705987 -35.318365 
L 166.35735 -35.318365 
L 167.008713 -35.318365 
L 167.660076 -35.318365 
L 168.311439 -35.318365 
L 168.962802 -35.318365 
L 169.614165 -35.318365 
L 170.265528 -35.318365 
L 170.916892 -35.318365 
L 171.568255 -35.318365 
L 172.219618 -35.318365 
L 172.870981 -35.318365 
L 173.522344 -35.318365 
L 174.173707 -35.318365 
L 174.82507 -35.318365 
L 175.476433 -35.318365 
L 176.127796 -35.318365 
L 176.779159 -35.318365 
L 177.430523 -35.318365 
L 178.081886 -35.318365 
L 178.733249 -35.318365 
L 179.384612 -35.318365 
L 180.035975 -35.318365 
L 180.687338 -35.318365 
L 181.338701 -35.318365 
L 181.990064 -35.318365 
L 182.641427 -35.318365 
L 183.292791 -35.318365 
L 183.944154 -35.318365 
L 184.595517 -35.318365 
L 185.24688 -35.318365 
L 185.898243 -35.318365 
L 186.549606 -35.318365 
L 187.200969 -35.318365 
L 187.852332 -35.318365 
L 188.503695 -35.318365 
L 189.155058 -35.318365 
L 189.806422 -35.318365 
L 190.457785 -35.318365 
L 191.109148 -35.318365 
L 191.760511 -35.318365 
L 192.411874 -35.318365 
L 193.063237 -35.318365 
L 193.7146 -35.318365 
L 194.365963 -35.318365 
L 195.017326 -35.318365 
L 195.668689 -35.318365 
L 196.320053 -35.318365 
L 196.971416 -35.318365 
L 197.622779 -35.318365 
L 198.274142 -35.318365 
L 198.925505 -35.318365 
L 199.576868 -35.318365 
L 200.228231 -35.318365 
L 200.879594 -35.318365 
L 201.530957 -35.318365 
L 202.18232 -35.318365 
L 202.833684 -35.318365 
L 203.485047 -35.318365 
L 204.13641 -35.318365 
L 204.787773 -35.318365 
L 205.439136 -35.318365 
L 206.090499 -35.318365 
L 206.741862 -35.318365 
L 207.393225 -35.318365 
L 208.044588 -35.318365 
L 208.695952 -35.318365 
L 209.347315 -35.318365 
L 209.998678 -35.318365 
L 210.650041 -35.318365 
L 211.301404 -35.318365 
L 211.952767 -35.318365 
L 212.60413 -35.318365 
L 213.255493 -35.318365 
L 213.906856 -35.318365 
L 214.558219 -35.318365 
L 215.209583 -35.318365 
L 215.860946 -35.318365 
L 216.512309 -35.318365 
L 217.163672 -35.318365 
L 217.815035 -35.318365 
L 218.466398 -35.318365 
L 219.117761 -35.318365 
L 219.769124 -35.318365 
L 220.420487 -35.318365 
L 221.07185 -35.318365 
L 221.723214 -35.318365 
L 222.374577 -35.318365 
L 223.02594 -35.318365 
L 223.677303 -35.318365 
L 224.328666 -35.318365 
L 224.980029 -35.318365 
L 225.631392 -35.318365 
L 226.282755 -35.318365 
L 226.934118 -35.318365 
L 227.585482 -35.318365 
L 228.236845 -35.318365 
L 228.888208 -35.318365 
L 229.539571 -35.318365 
L 230.190934 -35.318365 
L 230.842297 -35.318365 
L 231.49366 -35.318365 
L 232.145023 -35.318365 
L 232.796386 -35.318365 
L 233.447749 -35.318365 
L 234.099113 -35.318365 
L 234.750476 -35.318365 
L 235.401839 -35.318365 
L 236.053202 -35.318365 
L 236.704565 -35.318365 
L 237.355928 -35.318365 
L 238.007291 -35.318365 
L 238.658654 -35.318365 
L 239.310017 -35.318365 
L 239.96138 -35.318365 
L 240.612744 -35.318365 
L 241.264107 -35.318365 
L 241.91547 -35.318365 
L 242.566833 -35.318365 
L 243.218196 -35.318365 
L 243.869559 -35.318365 
L 244.520922 -35.318365 
L 245.172285 -35.318365 
L 245.823648 -35.318365 
L 246.475011 -35.318365 
L 247.126375 -35.318365 
L 247.777738 -35.318365 
L 248.429101 -35.318365 
L 249.080464 -35.318365 
L 249.731827 -35.318365 
L 250.38319 -35.318365 
L 251.034553 -35.318365 
L 251.685916 -35.318365 
L 252.337279 -35.318365 
L 252.988643 -35.318365 
L 253.640006 -35.318365 
L 254.291369 -35.318365 
L 254.942732 -35.318365 
L 255.594095 -35.318365 
L 256.245458 -35.318365 
L 256.896821 -35.318365 
L 257.548184 -35.318365 
L 258.199547 -35.318365 
L 258.85091 -35.318365 
L 259.502274 -35.318365 
L 260.153637 -35.318365 
L 260.805 -35.318365 
L 261.456363 -35.318365 
L 262.107726 -35.318365 
L 262.759089 -35.318365 
L 263.410452 -35.318365 
L 264.061815 -35.318365 
L 264.713178 -35.318365 
L 265.364541 -35.318365 
L 266.015905 -35.318365 
L 266.667268 -35.318365 
L 267.318631 -35.318365 
L 267.969994 -35.318365 
L 268.621357 -35.318365 
L 269.27272 -35.318365 
L 269.924083 -35.318365 
L 270.575446 -35.318365 
L 271.226809 -35.318365 
L 271.878172 -35.318365 
L 272.529536 -35.318365 
L 273.180899 -35.318365 
L 273.832262 -35.318365 
L 274.483625 -35.318365 
L 275.134988 -35.318365 
L 275.786351 -35.318365 
L 276.437714 -35.318365 
L 277.089077 -35.318365 
L 277.74044 -35.318365 
L 278.391804 -35.318365 
L 279.043167 -35.318365 
L 279.69453 -35.318365 
L 280.345893 -35.318365 
L 280.997256 -35.318365 
L 281.648619 -35.318365 
L 282.299982 -35.318365 
L 282.951345 -35.318365 
L 283.602708 -35.318365 
L 284.254071 -35.318365 
L 284.905435 -35.318365 
L 285.556798 -35.318365 
L 286.208161 -35.318365 
L 286.859524 -35.318365 
L 287.510887 -35.318365 
L 288.16225 -35.318365 
L 288.813613 -35.318365 
L 289.464976 -35.318365 
L 289.464976 -35.347606 
L 289.464976 -35.347606 
L 288.813613 -35.368246 
L 288.16225 -35.401025 
L 287.510887 -35.451473 
L 286.859524 -35.526713 
L 286.208161 -35.635474 
L 285.556798 -35.787863 
L 284.905435 -35.994854 
L 284.254071 -36.267467 
L 283.602708 -36.615656 
L 282.951345 -37.047026 
L 282.299982 -37.565506 
L 281.648619 -38.170198 
L 280.997256 -38.854567 
L 280.345893 -39.606126 
L 279.69453 -40.406689 
L 279.043167 -41.23317 
L 278.391804 -42.05884 
L 277.74044 -42.854905 
L 277.089077 -43.592272 
L 276.437714 -44.243371 
L 275.786351 -44.783968 
L 275.134988 -45.194894 
L 274.483625 -45.463616 
L 273.832262 -45.585569 
L 273.180899 -45.565106 
L 272.529536 -45.41594 
L 271.878172 -45.160951 
L 271.226809 -44.831305 
L 270.575446 -44.464928 
L 269.924083 -44.104413 
L 269.27272 -43.794568 
L 268.621357 -43.579745 
L 267.969994 -43.501127 
L 267.318631 -43.594095 
L 266.667268 -43.885754 
L 266.015905 -44.392746 
L 265.364541 -45.119499 
L 264.713178 -46.057129 
L 264.061815 -47.183285 
L 263.410452 -48.463208 
L 262.759089 -49.8522 
L 262.107726 -51.299503 
L 261.456363 -52.753385 
L 260.805 -54.166906 
L 260.153637 -55.503671 
L 259.502274 -56.742728 
L 258.85091 -57.881808 
L 258.199547 -58.938293 
L 257.548184 -59.947595 
L 256.896821 -60.959053 
L 256.245458 -62.029784 
L 255.594095 -63.217308 
L 254.942732 -64.571916 
L 254.291369 -66.129825 
L 253.640006 -67.908049 
L 252.988643 -69.901703 
L 252.337279 -72.084104 
L 251.685916 -74.409697 
L 251.034553 -76.819405 
L 250.38319 -79.247681 
L 249.731827 -81.630263 
L 249.080464 -83.9115 
L 248.429101 -86.050178 
L 247.777738 -88.022984 
L 247.126375 -89.825166 
L 246.475011 -91.46842 
L 245.823648 -92.976522 
L 245.172285 -94.379629 
L 244.520922 -95.708327 
L 243.869559 -96.988503 
L 243.218196 -98.23784 
L 242.566833 -99.46436 
L 241.91547 -100.667002 
L 241.264107 -101.837865 
L 240.612744 -102.965485 
L 239.96138 -104.038497 
L 239.310017 -105.049111 
L 238.658654 -105.996052 
L 238.007291 -106.886848 
L 237.355928 -107.739513 
L 236.704565 -108.583775 
L 236.053202 -109.461877 
L 235.401839 -110.428856 
L 234.750476 -111.551988 
L 234.099113 -112.908973 
L 233.447749 -114.584444 
L 232.796386 -116.664611 
L 232.145023 -119.230188 
L 231.49366 -122.348215 
L 230.842297 -126.063719 
L 230.190934 -130.392385 
L 229.539571 -135.315332 
L 228.888208 -140.776847 
L 228.236845 -146.685467 
L 227.585482 -152.918365 
L 226.934118 -159.32861 
L 226.282755 -165.754632 
L 225.631392 -172.03115 
L 224.980029 -178.000795 
L 224.328666 -183.525706 
L 223.677303 -188.498267 
L 223.02594 -192.850124 
L 222.374577 -196.558463 
L 221.723214 -199.648556 
L 221.07185 -202.191773 
L 220.420487 -204.298674 
L 219.769124 -206.107448 
L 219.117761 -207.768687 
L 218.466398 -209.428174 
L 217.815035 -211.209776 
L 217.163672 -213.200665 
L 216.512309 -215.44077 
L 215.860946 -217.917792 
L 215.209583 -220.568285 
L 214.558219 -223.284462 
L 213.906856 -225.925615 
L 213.255493 -228.332442 
L 212.60413 -230.342253 
L 211.952767 -231.80298 
L 211.301404 -232.584148 
L 210.650041 -232.583534 
L 209.998678 -231.729025 
L 209.347315 -229.976111 
L 208.695952 -227.302351 
L 208.044588 -223.700793 
L 207.393225 -219.174532 
L 206.741862 -213.734208 
L 206.090499 -207.399373 
L 205.439136 -200.203474 
L 204.787773 -192.20097 
L 204.13641 -183.474341 
L 203.485047 -174.138482 
L 202.833684 -164.340568 
L 202.18232 -154.254491 
L 201.530957 -144.070368 
L 200.879594 -133.980816 
L 200.228231 -124.166429 
L 199.576868 -114.783027 
L 198.925505 -105.952686 
L 198.274142 -97.759641 
L 197.622779 -90.251043 
L 196.971416 -83.441631 
L 196.320053 -77.32081 
L 195.668689 -71.860492 
L 195.017326 -67.022294 
L 194.365963 -62.763169 
L 193.7146 -59.039104 
L 193.063237 -55.806964 
L 192.411874 -53.024929 
L 191.760511 -50.652068 
L 191.109148 -48.647603 
L 190.457785 -46.970302 
L 189.806422 -45.578268 
L 189.155058 -44.429238 
L 188.503695 -43.481379 
L 187.852332 -42.694435 
L 187.200969 -42.031051 
L 186.549606 -41.458061 
L 185.898243 -40.947551 
L 185.24688 -40.477522 
L 184.595517 -40.032111 
L 183.944154 -39.601331 
L 183.292791 -39.180427 
L 182.641427 -38.768953 
L 181.990064 -38.369729 
L 181.338701 -37.987783 
L 180.687338 -37.629401 
L 180.035975 -37.301291 
L 179.384612 -37.009901 
L 178.733249 -36.760826 
L 178.081886 -36.558294 
L 177.430523 -36.404695 
L 176.779159 -36.300168 
L 176.127796 -36.24229 
L 175.476433 -36.225927 
L 174.82507 -36.243339 
L 174.173707 -36.284587 
L 173.522344 -36.338263 
L 172.870981 -36.3925 
L 172.219618 -36.436141 
L 171.568255 -36.459903 
L 170.916892 -36.457343 
L 170.265528 -36.425457 
L 169.614165 -36.364804 
L 168.962802 -36.279135 
L 168.311439 -36.174613 
L 167.660076 -36.058767 
L 167.008713 -35.939389 
L 166.35735 -35.82355 
L 165.705987 -35.716883 
L 165.054624 -35.623206 
L 164.403261 -35.54447 
L 163.751897 -35.480975 
L 163.100534 -35.431755 
L 162.449171 -35.395029 
L 161.797808 -35.368622 
L 161.146445 -35.350309 
L 160.495082 -35.338051 
L 159.843719 -35.330128 
z
" style="stroke: #0071b2; stroke-width: 1.5"/>
    </defs>
    <g clip-path="url(#p0a2ed60046)">
     <use xlink:href="#m855acd605f" x="0" y="288" style="fill: #0071b2; fill-opacity: 0.75; stroke: #0071b2; stroke-width: 1.5"/>
    </g>
   </g>
   <g id="FillBetweenPolyCollection_2">
    <defs>
     <path id="mebda554ffc" d="M 130.480155 -35.322212 
L 130.480155 -35.318365 
L 131.283476 -35.318365 
L 132.086797 -35.318365 
L 132.890118 -35.318365 
L 133.69344 -35.318365 
L 134.496761 -35.318365 
L 135.300082 -35.318365 
L 136.103404 -35.318365 
L 136.906725 -35.318365 
L 137.710046 -35.318365 
L 138.513368 -35.318365 
L 139.316689 -35.318365 
L 140.12001 -35.318365 
L 140.923332 -35.318365 
L 141.726653 -35.318365 
L 142.529974 -35.318365 
L 143.333296 -35.318365 
L 144.136617 -35.318365 
L 144.939938 -35.318365 
L 145.743259 -35.318365 
L 146.546581 -35.318365 
L 147.349902 -35.318365 
L 148.153223 -35.318365 
L 148.956545 -35.318365 
L 149.759866 -35.318365 
L 150.563187 -35.318365 
L 151.366509 -35.318365 
L 152.16983 -35.318365 
L 152.973151 -35.318365 
L 153.776473 -35.318365 
L 154.579794 -35.318365 
L 155.383115 -35.318365 
L 156.186437 -35.318365 
L 156.989758 -35.318365 
L 157.793079 -35.318365 
L 158.596401 -35.318365 
L 159.399722 -35.318365 
L 160.203043 -35.318365 
L 161.006364 -35.318365 
L 161.809686 -35.318365 
L 162.613007 -35.318365 
L 163.416328 -35.318365 
L 164.21965 -35.318365 
L 165.022971 -35.318365 
L 165.826292 -35.318365 
L 166.629614 -35.318365 
L 167.432935 -35.318365 
L 168.236256 -35.318365 
L 169.039578 -35.318365 
L 169.842899 -35.318365 
L 170.64622 -35.318365 
L 171.449542 -35.318365 
L 172.252863 -35.318365 
L 173.056184 -35.318365 
L 173.859506 -35.318365 
L 174.662827 -35.318365 
L 175.466148 -35.318365 
L 176.269469 -35.318365 
L 177.072791 -35.318365 
L 177.876112 -35.318365 
L 178.679433 -35.318365 
L 179.482755 -35.318365 
L 180.286076 -35.318365 
L 181.089397 -35.318365 
L 181.892719 -35.318365 
L 182.69604 -35.318365 
L 183.499361 -35.318365 
L 184.302683 -35.318365 
L 185.106004 -35.318365 
L 185.909325 -35.318365 
L 186.712647 -35.318365 
L 187.515968 -35.318365 
L 188.319289 -35.318365 
L 189.12261 -35.318365 
L 189.925932 -35.318365 
L 190.729253 -35.318365 
L 191.532574 -35.318365 
L 192.335896 -35.318365 
L 193.139217 -35.318365 
L 193.942538 -35.318365 
L 194.74586 -35.318365 
L 195.549181 -35.318365 
L 196.352502 -35.318365 
L 197.155824 -35.318365 
L 197.959145 -35.318365 
L 198.762466 -35.318365 
L 199.565788 -35.318365 
L 200.369109 -35.318365 
L 201.17243 -35.318365 
L 201.975752 -35.318365 
L 202.779073 -35.318365 
L 203.582394 -35.318365 
L 204.385715 -35.318365 
L 205.189037 -35.318365 
L 205.992358 -35.318365 
L 206.795679 -35.318365 
L 207.599001 -35.318365 
L 208.402322 -35.318365 
L 209.205643 -35.318365 
L 210.008965 -35.318365 
L 210.812286 -35.318365 
L 211.615607 -35.318365 
L 212.418929 -35.318365 
L 213.22225 -35.318365 
L 214.025571 -35.318365 
L 214.828893 -35.318365 
L 215.632214 -35.318365 
L 216.435535 -35.318365 
L 217.238856 -35.318365 
L 218.042178 -35.318365 
L 218.845499 -35.318365 
L 219.64882 -35.318365 
L 220.452142 -35.318365 
L 221.255463 -35.318365 
L 222.058784 -35.318365 
L 222.862106 -35.318365 
L 223.665427 -35.318365 
L 224.468748 -35.318365 
L 225.27207 -35.318365 
L 226.075391 -35.318365 
L 226.878712 -35.318365 
L 227.682034 -35.318365 
L 228.485355 -35.318365 
L 229.288676 -35.318365 
L 230.091998 -35.318365 
L 230.895319 -35.318365 
L 231.69864 -35.318365 
L 232.501961 -35.318365 
L 233.305283 -35.318365 
L 234.108604 -35.318365 
L 234.911925 -35.318365 
L 235.715247 -35.318365 
L 236.518568 -35.318365 
L 237.321889 -35.318365 
L 238.125211 -35.318365 
L 238.928532 -35.318365 
L 239.731853 -35.318365 
L 240.535175 -35.318365 
L 241.338496 -35.318365 
L 242.141817 -35.318365 
L 242.945139 -35.318365 
L 243.74846 -35.318365 
L 244.551781 -35.318365 
L 245.355103 -35.318365 
L 246.158424 -35.318365 
L 246.961745 -35.318365 
L 247.765066 -35.318365 
L 248.568388 -35.318365 
L 249.371709 -35.318365 
L 250.17503 -35.318365 
L 250.978352 -35.318365 
L 251.781673 -35.318365 
L 252.584994 -35.318365 
L 253.388316 -35.318365 
L 254.191637 -35.318365 
L 254.994958 -35.318365 
L 255.79828 -35.318365 
L 256.601601 -35.318365 
L 257.404922 -35.318365 
L 258.208244 -35.318365 
L 259.011565 -35.318365 
L 259.814886 -35.318365 
L 260.618207 -35.318365 
L 261.421529 -35.318365 
L 262.22485 -35.318365 
L 263.028171 -35.318365 
L 263.831493 -35.318365 
L 264.634814 -35.318365 
L 265.438135 -35.318365 
L 266.241457 -35.318365 
L 267.044778 -35.318365 
L 267.848099 -35.318365 
L 268.651421 -35.318365 
L 269.454742 -35.318365 
L 270.258063 -35.318365 
L 271.061385 -35.318365 
L 271.864706 -35.318365 
L 272.668027 -35.318365 
L 273.471349 -35.318365 
L 274.27467 -35.318365 
L 275.077991 -35.318365 
L 275.881312 -35.318365 
L 276.684634 -35.318365 
L 277.487955 -35.318365 
L 278.291276 -35.318365 
L 279.094598 -35.318365 
L 279.897919 -35.318365 
L 280.70124 -35.318365 
L 281.504562 -35.318365 
L 282.307883 -35.318365 
L 283.111204 -35.318365 
L 283.914526 -35.318365 
L 284.717847 -35.318365 
L 285.521168 -35.318365 
L 286.32449 -35.318365 
L 287.127811 -35.318365 
L 287.931132 -35.318365 
L 288.734453 -35.318365 
L 289.537775 -35.318365 
L 290.341096 -35.318365 
L 290.341096 -35.382766 
L 290.341096 -35.382766 
L 289.537775 -35.436408 
L 288.734453 -35.526448 
L 287.931132 -35.67119 
L 287.127811 -35.893941 
L 286.32449 -36.221974 
L 285.521168 -36.683975 
L 284.717847 -37.305855 
L 283.914526 -38.105219 
L 283.111204 -39.085378 
L 282.307883 -40.230289 
L 281.504562 -41.502012 
L 280.70124 -42.842017 
L 279.897919 -44.176899 
L 279.094598 -45.427903 
L 278.291276 -46.522486 
L 277.487955 -47.405379 
L 276.684634 -48.046565 
L 275.881312 -48.444306 
L 275.077991 -48.622712 
L 274.27467 -48.624812 
L 273.471349 -48.503208 
L 272.668027 -48.310858 
L 271.864706 -48.094185 
L 271.061385 -47.889776 
L 270.258063 -47.724719 
L 269.454742 -47.619597 
L 268.651421 -47.592521 
L 267.848099 -47.662519 
L 267.044778 -47.851065 
L 266.241457 -48.181227 
L 265.438135 -48.674761 
L 264.634814 -49.34802 
L 263.831493 -50.207866 
L 263.028171 -51.248696 
L 262.22485 -52.45136 
L 261.421529 -53.78435 
L 260.618207 -55.20721 
L 259.814886 -56.675804 
L 259.011565 -58.14884 
L 258.208244 -59.594874 
L 257.404922 -60.998851 
L 256.601601 -62.367074 
L 255.79828 -63.729498 
L 254.994958 -65.138382 
L 254.191637 -66.662767 
L 253.388316 -68.378978 
L 252.584994 -70.358175 
L 251.781673 -72.652872 
L 250.978352 -75.284849 
L 250.17503 -78.236988 
L 249.371709 -81.451032 
L 248.568388 -84.83216 
L 247.765066 -88.2599 
L 246.961745 -91.603467 
L 246.158424 -94.738648 
L 245.355103 -97.563018 
L 244.551781 -100.006809 
L 243.74846 -102.037863 
L 242.945139 -103.660612 
L 242.141817 -104.910362 
L 241.338496 -105.845048 
L 240.535175 -106.536806 
L 239.731853 -107.065272 
L 238.928532 -107.513702 
L 238.125211 -107.968024 
L 237.321889 -108.518174 
L 236.518568 -109.260522 
L 235.715247 -110.299902 
L 234.911925 -111.749738 
L 234.108604 -113.728903 
L 233.305283 -116.354261 
L 232.501961 -119.728584 
L 231.69864 -123.92452 
L 230.895319 -128.966608 
L 230.091998 -134.814684 
L 229.288676 -141.352828 
L 228.485355 -148.387932 
L 227.682034 -155.660664 
L 226.878712 -162.869095 
L 226.075391 -169.702275 
L 225.27207 -175.878265 
L 224.468748 -181.17958 
L 223.665427 -185.479201 
L 222.862106 -188.752261 
L 222.058784 -191.071724 
L 221.255463 -192.58987 
L 220.452142 -193.51029 
L 219.64882 -194.056558 
L 218.845499 -194.443572 
L 218.042178 -194.85595 
L 217.238856 -195.435372 
L 216.435535 -196.276235 
L 215.632214 -197.427141 
L 214.828893 -198.89505 
L 214.025571 -200.64934 
L 213.22225 -202.624248 
L 212.418929 -204.719583 
L 211.615607 -206.800652 
L 210.812286 -208.69886 
L 210.008965 -210.214451 
L 209.205643 -211.12262 
L 208.402322 -211.18398 
L 207.599001 -210.160024 
L 206.795679 -207.833554 
L 205.992358 -204.032918 
L 205.189037 -198.657203 
L 204.385715 -191.697988 
L 203.582394 -183.252466 
L 202.779073 -173.52346 
L 201.975752 -162.804246 
L 201.17243 -151.449601 
L 200.369109 -139.838009 
L 199.565788 -128.332239 
L 198.762466 -117.245762 
L 197.959145 -106.820574 
L 197.155824 -97.218747 
L 196.352502 -88.526563 
L 195.549181 -80.767517 
L 194.74586 -73.919446 
L 193.942538 -67.931475 
L 193.139217 -62.737921 
L 192.335896 -58.267956 
L 191.532574 -54.451195 
L 190.729253 -51.220108 
L 189.925932 -48.510424 
L 189.12261 -46.260528 
L 188.319289 -44.410662 
L 187.515968 -42.902484 
L 186.712647 -41.679344 
L 185.909325 -40.687385 
L 185.106004 -39.877345 
L 184.302683 -39.206644 
L 183.499361 -38.64121 
L 182.69604 -38.156489 
L 181.892719 -37.737273 
L 181.089397 -37.376291 
L 180.286076 -37.071866 
L 179.482755 -36.825147 
L 178.679433 -36.637495 
L 177.876112 -36.508476 
L 177.072791 -36.434675 
L 176.269469 -36.409347 
L 175.466148 -36.422729 
L 174.662827 -36.462836 
L 173.859506 -36.516554 
L 173.056184 -36.570905 
L 172.252863 -36.614361 
L 171.449542 -36.638046 
L 170.64622 -36.636631 
L 169.842899 -36.608727 
L 169.039578 -36.556671 
L 168.236256 -36.485724 
L 167.432935 -36.402854 
L 166.629614 -36.315385 
L 165.826292 -36.229783 
L 165.022971 -36.150794 
L 164.21965 -36.081039 
L 163.416328 -36.021027 
L 162.613007 -35.969526 
L 161.809686 -35.92415 
L 161.006364 -35.882071 
L 160.203043 -35.840724 
L 159.399722 -35.798419 
L 158.596401 -35.754758 
L 157.793079 -35.710777 
L 156.989758 -35.66879 
L 156.186437 -35.631945 
L 155.383115 -35.603595 
L 154.579794 -35.586616 
L 153.776473 -35.582802 
L 152.973151 -35.592472 
L 152.16983 -35.614375 
L 151.366509 -35.645875 
L 150.563187 -35.6834 
L 149.759866 -35.723007 
L 148.956545 -35.760963 
L 148.153223 -35.794168 
L 147.349902 -35.820374 
L 146.546581 -35.838162 
L 145.743259 -35.846748 
L 144.939938 -35.845744 
L 144.136617 -35.834987 
L 143.333296 -35.814512 
L 142.529974 -35.784671 
L 141.726653 -35.74632 
L 140.923332 -35.700969 
L 140.12001 -35.650786 
L 139.316689 -35.598427 
L 138.513368 -35.546715 
L 137.710046 -35.498259 
L 136.906725 -35.455111 
L 136.103404 -35.418556 
L 135.300082 -35.389059 
L 134.496761 -35.366372 
L 133.69344 -35.349724 
L 132.890118 -35.338061 
L 132.086797 -35.330257 
L 131.283476 -35.325266 
L 130.480155 -35.322212 
z
" style="stroke: #d55e00; stroke-width: 1.5"/>
    </defs>
    <g clip-path="url(#p0a2ed60046)">
     <use xlink:href="#mebda554ffc" x="0" y="288" style="fill: #d55e00; fill-opacity: 0.75; stroke: #d55e00; stroke-width: 1.5"/>
    </g>
   </g>
   <g id="patch_3">
    <path d="M 16.36274 252.681635 
L 16.36274 6.799459 
" style="fill: none; stroke: #000000; stroke-width: 0.8; stroke-linejoin: miter; stroke-linecap: square"/>
   </g>
   <g id="patch_4">
    <path d="M 421.048198 252.681635 
L 421.048198 6.799459 
" style="fill: none; stroke: #000000; stroke-width: 0.8; stroke-linejoin: miter; stroke-linecap: square"/>
   </g>
   <g id="patch_5">
    <path d="M 16.36274 252.681635 
L 421.048198 252.681635 
" style="fill: none; stroke: #000000; stroke-width: 0.8; stroke-linejoin: miter; stroke-linecap: square"/>
   </g>
   <g id="patch_6">
    <path d="M 16.36274 6.799459 
L 421.048198 6.799459 
" style="fill: none; stroke: #000000; stroke-width: 0.8; stroke-linejoin: miter; stroke-linecap: square"/>
   </g>
   <g id="legend_1">
    <g id="patch_7">
     <path d="M 48.221562 38.548834 
L 389.189375 38.548834 
Q 391.989375 38.548834 391.989375 35.748834 
L 391.989375 16.599459 
Q 391.989375 13.799459 389.189375 13.799459 
L 48.221562 13.799459 
Q 45.421562 13.799459 45.421562 16.599459 
L 45.421562 35.748834 
Q 45.421562 38.548834 48.221562 38.548834 
z
" style="fill: #ffffff; opacity: 0.8; stroke: #cccccc; stroke-linejoin: miter"/>
    </g>
    <g id="patch_8">
     <path d="M 51.021562 30.037271 
L 79.021562 30.037271 
L 79.021562 20.237271 
L 51.021562 20.237271 
z
" style="fill: #0071b2; stroke: #0071b2; stroke-linejoin: miter"/>
    </g>
    <g id="text_16">
     <!-- multimodal acces -->
     <g transform="translate(90.221562 30.037271) scale(0.14 -0.14)">
      <defs>
       <path id="DejaVuSans-6d" d="M 3328 2828 
Q 3544 3216 3844 3400 
Q 4144 3584 4550 3584 
Q 5097 3584 5394 3201 
Q 5691 2819 5691 2113 
L 5691 0 
L 5113 0 
L 5113 2094 
Q 5113 2597 4934 2840 
Q 4756 3084 4391 3084 
Q 3944 3084 3684 2787 
Q 3425 2491 3425 1978 
L 3425 0 
L 2847 0 
L 2847 2094 
Q 2847 2600 2669 2842 
Q 2491 3084 2119 3084 
Q 1678 3084 1418 2786 
Q 1159 2488 1159 1978 
L 1159 0 
L 581 0 
L 581 3500 
L 1159 3500 
L 1159 2956 
Q 1356 3278 1631 3431 
Q 1906 3584 2284 3584 
Q 2666 3584 2933 3390 
Q 3200 3197 3328 2828 
z
" transform="scale(0.015625)"/>
       <path id="DejaVuSans-75" d="M 544 1381 
L 544 3500 
L 1119 3500 
L 1119 1403 
Q 1119 906 1312 657 
Q 1506 409 1894 409 
Q 2359 409 2629 706 
Q 2900 1003 2900 1516 
L 2900 3500 
L 3475 3500 
L 3475 0 
L 2900 0 
L 2900 538 
Q 2691 219 2414 64 
Q 2138 -91 1772 -91 
Q 1169 -91 856 284 
Q 544 659 544 1381 
z
M 1991 3584 
L 1991 3584 
z
" transform="scale(0.015625)"/>
       <path id="DejaVuSans-6c" d="M 603 4863 
L 1178 4863 
L 1178 0 
L 603 0 
L 603 4863 
z
" transform="scale(0.015625)"/>
       <path id="DejaVuSans-74" d="M 1172 4494 
L 1172 3500 
L 2356 3500 
L 2356 3053 
L 1172 3053 
L 1172 1153 
Q 1172 725 1289 603 
Q 1406 481 1766 481 
L 2356 481 
L 2356 0 
L 1766 0 
Q 1100 0 847 248 
Q 594 497 594 1153 
L 594 3053 
L 172 3053 
L 172 3500 
L 594 3500 
L 594 4494 
L 1172 4494 
z
" transform="scale(0.015625)"/>
       <path id="DejaVuSans-6f" d="M 1959 3097 
Q 1497 3097 1228 2736 
Q 959 2375 959 1747 
Q 959 1119 1226 758 
Q 1494 397 1959 397 
Q 2419 397 2687 759 
Q 2956 1122 2956 1747 
Q 2956 2369 2687 2733 
Q 2419 3097 1959 3097 
z
M 1959 3584 
Q 2709 3584 3137 3096 
Q 3566 2609 3566 1747 
Q 3566 888 3137 398 
Q 2709 -91 1959 -91 
Q 1206 -91 779 398 
Q 353 888 353 1747 
Q 353 2609 779 3096 
Q 1206 3584 1959 3584 
z
" transform="scale(0.015625)"/>
       <path id="DejaVuSans-64" d="M 2906 2969 
L 2906 4863 
L 3481 4863 
L 3481 0 
L 2906 0 
L 2906 525 
Q 2725 213 2448 61 
Q 2172 -91 1784 -91 
Q 1150 -91 751 415 
Q 353 922 353 1747 
Q 353 2572 751 3078 
Q 1150 3584 1784 3584 
Q 2172 3584 2448 3432 
Q 2725 3281 2906 2969 
z
M 947 1747 
Q 947 1113 1208 752 
Q 1469 391 1925 391 
Q 2381 391 2643 752 
Q 2906 1113 2906 1747 
Q 2906 2381 2643 2742 
Q 2381 3103 1925 3103 
Q 1469 3103 1208 2742 
Q 947 2381 947 1747 
z
" transform="scale(0.015625)"/>
       <path id="DejaVuSans-61" d="M 2194 1759 
Q 1497 1759 1228 1600 
Q 959 1441 959 1056 
Q 959 750 1161 570 
Q 1363 391 1709 391 
Q 2188 391 2477 730 
Q 2766 1069 2766 1631 
L 2766 1759 
L 2194 1759 
z
M 3341 1997 
L 3341 0 
L 2766 0 
L 2766 531 
Q 2569 213 2275 61 
Q 1981 -91 1556 -91 
Q 1019 -91 701 211 
Q 384 513 384 1019 
Q 384 1609 779 1909 
Q 1175 2209 1959 2209 
L 2766 2209 
L 2766 2266 
Q 2766 2663 2505 2880 
Q 2244 3097 1772 3097 
Q 1472 3097 1187 3025 
Q 903 2953 641 2809 
L 641 3341 
Q 956 3463 1253 3523 
Q 1550 3584 1831 3584 
Q 2591 3584 2966 3190 
Q 3341 2797 3341 1997 
z
" transform="scale(0.015625)"/>
       <path id="DejaVuSans-63" d="M 3122 3366 
L 3122 2828 
Q 2878 2963 2633 3030 
Q 2388 3097 2138 3097 
Q 1578 3097 1268 2742 
Q 959 2388 959 1747 
Q 959 1106 1268 751 
Q 1578 397 2138 397 
Q 2388 397 2633 464 
Q 2878 531 3122 666 
L 3122 134 
Q 2881 22 2623 -34 
Q 2366 -91 2075 -91 
Q 1284 -91 818 406 
Q 353 903 353 1747 
Q 353 2603 823 3093 
Q 1294 3584 2113 3584 
Q 2378 3584 2631 3529 
Q 2884 3475 3122 3366 
z
" transform="scale(0.015625)"/>
       <path id="DejaVuSans-65" d="M 3597 1894 
L 3597 1613 
L 953 1613 
Q 991 1019 1311 708 
Q 1631 397 2203 397 
Q 2534 397 2845 478 
Q 3156 559 3463 722 
L 3463 178 
Q 3153 47 2828 -22 
Q 2503 -91 2169 -91 
Q 1331 -91 842 396 
Q 353 884 353 1716 
Q 353 2575 817 3079 
Q 1281 3584 2069 3584 
Q 2775 3584 3186 3129 
Q 3597 2675 3597 1894 
z
M 3022 2063 
Q 3016 2534 2758 2815 
Q 2500 3097 2075 3097 
Q 1594 3097 1305 2825 
Q 1016 2553 972 2059 
L 3022 2063 
z
" transform="scale(0.015625)"/>
       <path id="DejaVuSans-73" d="M 2834 3397 
L 2834 2853 
Q 2591 2978 2328 3040 
Q 2066 3103 1784 3103 
Q 1356 3103 1142 2972 
Q 928 2841 928 2578 
Q 928 2378 1081 2264 
Q 1234 2150 1697 2047 
L 1894 2003 
Q 2506 1872 2764 1633 
Q 3022 1394 3022 966 
Q 3022 478 2636 193 
Q 2250 -91 1575 -91 
Q 1294 -91 989 -36 
Q 684 19 347 128 
L 347 722 
Q 666 556 975 473 
Q 1284 391 1588 391 
Q 1994 391 2212 530 
Q 2431 669 2431 922 
Q 2431 1156 2273 1281 
Q 2116 1406 1581 1522 
L 1381 1569 
Q 847 1681 609 1914 
Q 372 2147 372 2553 
Q 372 3047 722 3315 
Q 1072 3584 1716 3584 
Q 2034 3584 2315 3537 
Q 2597 3491 2834 3397 
z
" transform="scale(0.015625)"/>
      </defs>
      <use xlink:href="#DejaVuSans-6d"/>
      <use xlink:href="#DejaVuSans-75" transform="translate(97.412109 0)"/>
      <use xlink:href="#DejaVuSans-6c" transform="translate(160.791016 0)"/>
      <use xlink:href="#DejaVuSans-74" transform="translate(188.574219 0)"/>
      <use xlink:href="#DejaVuSans-69" transform="translate(227.783203 0)"/>
      <use xlink:href="#DejaVuSans-6d" transform="translate(255.566406 0)"/>
      <use xlink:href="#DejaVuSans-6f" transform="translate(352.978516 0)"/>
      <use xlink:href="#DejaVuSans-64" transform="translate(414.160156 0)"/>
      <use xlink:href="#DejaVuSans-61" transform="translate(477.636719 0)"/>
      <use xlink:href="#DejaVuSans-6c" transform="translate(538.916016 0)"/>
      <use xlink:href="#DejaVuSans-20" transform="translate(566.699219 0)"/>
      <use xlink:href="#DejaVuSans-61" transform="translate(598.486328 0)"/>
      <use xlink:href="#DejaVuSans-63" transform="translate(659.765625 0)"/>
      <use xlink:href="#DejaVuSans-63" transform="translate(714.746094 0)"/>
      <use xlink:href="#DejaVuSans-65" transform="translate(769.726562 0)"/>
      <use xlink:href="#DejaVuSans-73" transform="translate(831.25 0)"/>
     </g>
    </g>
    <g id="patch_9">
     <path d="M 241.889687 30.037271 
L 269.889687 30.037271 
L 269.889687 20.237271 
L 241.889687 20.237271 
z
" style="fill: #d55e00; stroke: #d55e00; stroke-linejoin: miter"/>
    </g>
    <g id="text_17">
     <!-- walking access -->
     <g transform="translate(281.089687 30.037271) scale(0.14 -0.14)">
      <defs>
       <path id="DejaVuSans-77" d="M 269 3500 
L 844 3500 
L 1563 769 
L 2278 3500 
L 2956 3500 
L 3675 769 
L 4391 3500 
L 4966 3500 
L 4050 0 
L 3372 0 
L 2619 2869 
L 1863 0 
L 1184 0 
L 269 3500 
z
" transform="scale(0.015625)"/>
       <path id="DejaVuSans-6b" d="M 581 4863 
L 1159 4863 
L 1159 1991 
L 2875 3500 
L 3609 3500 
L 1753 1863 
L 3688 0 
L 2938 0 
L 1159 1709 
L 1159 0 
L 581 0 
L 581 4863 
z
" transform="scale(0.015625)"/>
       <path id="DejaVuSans-67" d="M 2906 1791 
Q 2906 2416 2648 2759 
Q 2391 3103 1925 3103 
Q 1463 3103 1205 2759 
Q 947 2416 947 1791 
Q 947 1169 1205 825 
Q 1463 481 1925 481 
Q 2391 481 2648 825 
Q 2906 1169 2906 1791 
z
M 3481 434 
Q 3481 -459 3084 -895 
Q 2688 -1331 1869 -1331 
Q 1566 -1331 1297 -1286 
Q 1028 -1241 775 -1147 
L 775 -588 
Q 1028 -725 1275 -790 
Q 1522 -856 1778 -856 
Q 2344 -856 2625 -561 
Q 2906 -266 2906 331 
L 2906 616 
Q 2728 306 2450 153 
Q 2172 0 1784 0 
Q 1141 0 747 490 
Q 353 981 353 1791 
Q 353 2603 747 3093 
Q 1141 3584 1784 3584 
Q 2172 3584 2450 3431 
Q 2728 3278 2906 2969 
L 2906 3500 
L 3481 3500 
L 3481 434 
z
" transform="scale(0.015625)"/>
      </defs>
      <use xlink:href="#DejaVuSans-77"/>
      <use xlink:href="#DejaVuSans-61" transform="translate(81.787109 0)"/>
      <use xlink:href="#DejaVuSans-6c" transform="translate(143.066406 0)"/>
      <use xlink:href="#DejaVuSans-6b" transform="translate(170.849609 0)"/>
      <use xlink:href="#DejaVuSans-69" transform="translate(228.759766 0)"/>
      <use xlink:href="#DejaVuSans-6e" transform="translate(256.542969 0)"/>
      <use xlink:href="#DejaVuSans-67" transform="translate(319.921875 0)"/>
      <use xlink:href="#DejaVuSans-20" transform="translate(383.398438 0)"/>
      <use xlink:href="#DejaVuSans-61" transform="translate(415.185547 0)"/>
      <use xlink:href="#DejaVuSans-63" transform="translate(476.464844 0)"/>
      <use xlink:href="#DejaVuSans-63" transform="translate(531.445312 0)"/>
      <use xlink:href="#DejaVuSans-65" transform="translate(586.425781 0)"/>
      <use xlink:href="#DejaVuSans-73" transform="translate(647.949219 0)"/>
      <use xlink:href="#DejaVuSans-73" transform="translate(700.048828 0)"/>
     </g>
    </g>
   </g>
  </g>
 </g>
 <defs>
  <clipPath id="p0a2ed60046">
   <rect x="16.36274" y="6.799459" width="404.685457" height="245.882176"/>
  </clipPath>
 </defs>
</svg>
