<?xml version="1.0" encoding="utf-8" standalone="no"?>
<!DOCTYPE svg PUBLIC "-//W3C//DTD SVG 1.1//EN"
  "http://www.w3.org/Graphics/SVG/1.1/DTD/svg11.dtd">
<svg xmlns:xlink="http://www.w3.org/1999/xlink" width="288pt" height="288pt" viewBox="0 0 288 288" xmlns="http://www.w3.org/2000/svg" version="1.1">
 <metadata>
  <rdf:RDF xmlns:dc="http://purl.org/dc/elements/1.1/" xmlns:cc="http://creativecommons.org/ns#" xmlns:rdf="http://www.w3.org/1999/02/22-rdf-syntax-ns#">
   <cc:Work>
    <dc:type rdf:resource="http://purl.org/dc/dcmitype/StillImage"/>
    <dc:format>image/svg+xml</dc:format>
    <dc:creator>
     <cc:Agent>
      <dc:title>Gergő Pintér</dc:title>
     </cc:Agent>
    </dc:creator>
    <dc:rights>
     <cc:Agent>
      <dc:title>CC BY 4.0</dc:title>
     </cc:Agent>
    </dc:rights>
   </cc:Work>
  </rdf:RDF>
 </metadata>
 <defs>
  <style type="text/css">*{stroke-linejoin: round; stroke-linecap: butt}</style>
 </defs>
 <g id="figure_1">
  <g id="patch_1">
   <path d="M 0 288 
L 288 288 
L 288 0 
L 0 0 
z
" style="fill: #ffffff"/>
  </g>
  <g id="axes_1">
   <g id="patch_2">
    <path d="M 16.36274 252.681635 
L 277.048198 252.681635 
L 277.048198 6.799459 
L 16.36274 6.799459 
z
" style="fill: #ffffff"/>
   </g>
   <g id="matplotlib.axis_1">
    <g id="xtick_1">
     <g id="line2d_1">
      <path d="M 16.36274 252.681635 
L 16.36274 6.799459 
" clip-path="url(#pb387f83b48)" style="fill: none; stroke: #e7e7e7; stroke-width: 0.8; stroke-linecap: square"/>
     </g>
     <g id="line2d_2">
      <defs>
       <path id="mbcb02aef95" d="M 0 0 
L 0 3.5 
" style="stroke: #000000; stroke-width: 0.8"/>
      </defs>
      <g>
       <use xlink:href="#mbcb02aef95" x="16.36274" y="252.681635" style="stroke: #000000; stroke-width: 0.8"/>
      </g>
     </g>
     <g id="text_1">
      <!-- 1.0 -->
      <g transform="translate(8.411178 267.280073) scale(0.1 -0.1)">
       <defs>
        <path id="DejaVuSans-31" d="M 794 531 
L 1825 531 
L 1825 4091 
L 703 3866 
L 703 4441 
L 1819 4666 
L 2450 4666 
L 2450 531 
L 3481 531 
L 3481 0 
L 794 0 
L 794 531 
z
" transform="scale(0.015625)"/>
        <path id="DejaVuSans-2e" d="M 684 794 
L 1344 794 
L 1344 0 
L 684 0 
L 684 794 
z
" transform="scale(0.015625)"/>
        <path id="DejaVuSans-30" d="M 2034 4250 
Q 1547 4250 1301 3770 
Q 1056 3291 1056 2328 
Q 1056 1369 1301 889 
Q 1547 409 2034 409 
Q 2525 409 2770 889 
Q 3016 1369 3016 2328 
Q 3016 3291 2770 3770 
Q 2525 4250 2034 4250 
z
M 2034 4750 
Q 2819 4750 3233 4129 
Q 3647 3509 3647 2328 
Q 3647 1150 3233 529 
Q 2819 -91 2034 -91 
Q 1250 -91 836 529 
Q 422 1150 422 2328 
Q 422 3509 836 4129 
Q 1250 4750 2034 4750 
z
" transform="scale(0.015625)"/>
       </defs>
       <use xlink:href="#DejaVuSans-31"/>
       <use xlink:href="#DejaVuSans-2e" transform="translate(63.623047 0)"/>
       <use xlink:href="#DejaVuSans-30" transform="translate(95.410156 0)"/>
      </g>
     </g>
    </g>
    <g id="xtick_2">
     <g id="line2d_3">
      <path d="M 68.499832 252.681635 
L 68.499832 6.799459 
" clip-path="url(#pb387f83b48)" style="fill: none; stroke: #e7e7e7; stroke-width: 0.8; stroke-linecap: square"/>
     </g>
     <g id="line2d_4">
      <g>
       <use xlink:href="#mbcb02aef95" x="68.499832" y="252.681635" style="stroke: #000000; stroke-width: 0.8"/>
      </g>
     </g>
     <g id="text_2">
      <!-- 1.2 -->
      <g transform="translate(60.548269 267.280073) scale(0.1 -0.1)">
       <defs>
        <path id="DejaVuSans-32" d="M 1228 531 
L 3431 531 
L 3431 0 
L 469 0 
L 469 531 
Q 828 903 1448 1529 
Q 2069 2156 2228 2338 
Q 2531 2678 2651 2914 
Q 2772 3150 2772 3378 
Q 2772 3750 2511 3984 
Q 2250 4219 1831 4219 
Q 1534 4219 1204 4116 
Q 875 4013 500 3803 
L 500 4441 
Q 881 4594 1212 4672 
Q 1544 4750 1819 4750 
Q 2544 4750 2975 4387 
Q 3406 4025 3406 3419 
Q 3406 3131 3298 2873 
Q 3191 2616 2906 2266 
Q 2828 2175 2409 1742 
Q 1991 1309 1228 531 
z
" transform="scale(0.015625)"/>
       </defs>
       <use xlink:href="#DejaVuSans-31"/>
       <use xlink:href="#DejaVuSans-2e" transform="translate(63.623047 0)"/>
       <use xlink:href="#DejaVuSans-32" transform="translate(95.410156 0)"/>
      </g>
     </g>
    </g>
    <g id="xtick_3">
     <g id="line2d_5">
      <path d="M 120.636923 252.681635 
L 120.636923 6.799459 
" clip-path="url(#pb387f83b48)" style="fill: none; stroke: #e7e7e7; stroke-width: 0.8; stroke-linecap: square"/>
     </g>
     <g id="line2d_6">
      <g>
       <use xlink:href="#mbcb02aef95" x="120.636923" y="252.681635" style="stroke: #000000; stroke-width: 0.8"/>
      </g>
     </g>
     <g id="text_3">
      <!-- 1.4 -->
      <g transform="translate(112.685361 267.280073) scale(0.1 -0.1)">
       <defs>
        <path id="DejaVuSans-34" d="M 2419 4116 
L 825 1625 
L 2419 1625 
L 2419 4116 
z
M 2253 4666 
L 3047 4666 
L 3047 1625 
L 3713 1625 
L 3713 1100 
L 3047 1100 
L 3047 0 
L 2419 0 
L 2419 1100 
L 313 1100 
L 313 1709 
L 2253 4666 
z
" transform="scale(0.015625)"/>
       </defs>
       <use xlink:href="#DejaVuSans-31"/>
       <use xlink:href="#DejaVuSans-2e" transform="translate(63.623047 0)"/>
       <use xlink:href="#DejaVuSans-34" transform="translate(95.410156 0)"/>
      </g>
     </g>
    </g>
    <g id="xtick_4">
     <g id="line2d_7">
      <path d="M 172.774014 252.681635 
L 172.774014 6.799459 
" clip-path="url(#pb387f83b48)" style="fill: none; stroke: #e7e7e7; stroke-width: 0.8; stroke-linecap: square"/>
     </g>
     <g id="line2d_8">
      <g>
       <use xlink:href="#mbcb02aef95" x="172.774014" y="252.681635" style="stroke: #000000; stroke-width: 0.8"/>
      </g>
     </g>
     <g id="text_4">
      <!-- 1.6 -->
      <g transform="translate(164.822452 267.280073) scale(0.1 -0.1)">
       <defs>
        <path id="DejaVuSans-36" d="M 2113 2584 
Q 1688 2584 1439 2293 
Q 1191 2003 1191 1497 
Q 1191 994 1439 701 
Q 1688 409 2113 409 
Q 2538 409 2786 701 
Q 3034 994 3034 1497 
Q 3034 2003 2786 2293 
Q 2538 2584 2113 2584 
z
M 3366 4563 
L 3366 3988 
Q 3128 4100 2886 4159 
Q 2644 4219 2406 4219 
Q 1781 4219 1451 3797 
Q 1122 3375 1075 2522 
Q 1259 2794 1537 2939 
Q 1816 3084 2150 3084 
Q 2853 3084 3261 2657 
Q 3669 2231 3669 1497 
Q 3669 778 3244 343 
Q 2819 -91 2113 -91 
Q 1303 -91 875 529 
Q 447 1150 447 2328 
Q 447 3434 972 4092 
Q 1497 4750 2381 4750 
Q 2619 4750 2861 4703 
Q 3103 4656 3366 4563 
z
" transform="scale(0.015625)"/>
       </defs>
       <use xlink:href="#DejaVuSans-31"/>
       <use xlink:href="#DejaVuSans-2e" transform="translate(63.623047 0)"/>
       <use xlink:href="#DejaVuSans-36" transform="translate(95.410156 0)"/>
      </g>
     </g>
    </g>
    <g id="xtick_5">
     <g id="line2d_9">
      <path d="M 224.911106 252.681635 
L 224.911106 6.799459 
" clip-path="url(#pb387f83b48)" style="fill: none; stroke: #e7e7e7; stroke-width: 0.8; stroke-linecap: square"/>
     </g>
     <g id="line2d_10">
      <g>
       <use xlink:href="#mbcb02aef95" x="224.911106" y="252.681635" style="stroke: #000000; stroke-width: 0.8"/>
      </g>
     </g>
     <g id="text_5">
      <!-- 1.8 -->
      <g transform="translate(216.959543 267.280073) scale(0.1 -0.1)">
       <defs>
        <path id="DejaVuSans-38" d="M 2034 2216 
Q 1584 2216 1326 1975 
Q 1069 1734 1069 1313 
Q 1069 891 1326 650 
Q 1584 409 2034 409 
Q 2484 409 2743 651 
Q 3003 894 3003 1313 
Q 3003 1734 2745 1975 
Q 2488 2216 2034 2216 
z
M 1403 2484 
Q 997 2584 770 2862 
Q 544 3141 544 3541 
Q 544 4100 942 4425 
Q 1341 4750 2034 4750 
Q 2731 4750 3128 4425 
Q 3525 4100 3525 3541 
Q 3525 3141 3298 2862 
Q 3072 2584 2669 2484 
Q 3125 2378 3379 2068 
Q 3634 1759 3634 1313 
Q 3634 634 3220 271 
Q 2806 -91 2034 -91 
Q 1263 -91 848 271 
Q 434 634 434 1313 
Q 434 1759 690 2068 
Q 947 2378 1403 2484 
z
M 1172 3481 
Q 1172 3119 1398 2916 
Q 1625 2713 2034 2713 
Q 2441 2713 2670 2916 
Q 2900 3119 2900 3481 
Q 2900 3844 2670 4047 
Q 2441 4250 2034 4250 
Q 1625 4250 1398 4047 
Q 1172 3844 1172 3481 
z
" transform="scale(0.015625)"/>
       </defs>
       <use xlink:href="#DejaVuSans-31"/>
       <use xlink:href="#DejaVuSans-2e" transform="translate(63.623047 0)"/>
       <use xlink:href="#DejaVuSans-38" transform="translate(95.410156 0)"/>
      </g>
     </g>
    </g>
    <g id="xtick_6">
     <g id="line2d_11">
      <path d="M 277.048198 252.681635 
L 277.048198 6.799459 
" clip-path="url(#pb387f83b48)" style="fill: none; stroke: #e7e7e7; stroke-width: 0.8; stroke-linecap: square"/>
     </g>
     <g id="line2d_12">
      <g>
       <use xlink:href="#mbcb02aef95" x="277.048198" y="252.681635" style="stroke: #000000; stroke-width: 0.8"/>
      </g>
     </g>
     <g id="text_6">
      <!-- 2.0 -->
      <g transform="translate(269.096635 267.280073) scale(0.1 -0.1)">
       <use xlink:href="#DejaVuSans-32"/>
       <use xlink:href="#DejaVuSans-2e" transform="translate(63.623047 0)"/>
       <use xlink:href="#DejaVuSans-30" transform="translate(95.410156 0)"/>
      </g>
     </g>
    </g>
    <g id="text_7">
     <!-- $log_{10}$ Gini -->
     <g transform="translate(118.325469 282.47976) scale(0.12 -0.12)">
      <defs>
       <path id="DejaVuSans-Oblique-6c" d="M 1172 4863 
L 1747 4863 
L 800 0 
L 225 0 
L 1172 4863 
z
" transform="scale(0.015625)"/>
       <path id="DejaVuSans-Oblique-6f" d="M 1625 -91 
Q 1009 -91 651 289 
Q 294 669 294 1325 
Q 294 1706 417 2101 
Q 541 2497 738 2766 
Q 1047 3184 1428 3384 
Q 1809 3584 2291 3584 
Q 2888 3584 3255 3212 
Q 3622 2841 3622 2241 
Q 3622 1825 3500 1412 
Q 3378 1000 3181 728 
Q 2875 309 2494 109 
Q 2113 -91 1625 -91 
z
M 891 1344 
Q 891 869 1089 633 
Q 1288 397 1691 397 
Q 2269 397 2648 901 
Q 3028 1406 3028 2181 
Q 3028 2634 2825 2865 
Q 2622 3097 2228 3097 
Q 1903 3097 1650 2945 
Q 1397 2794 1197 2484 
Q 1050 2253 970 1956 
Q 891 1659 891 1344 
z
" transform="scale(0.015625)"/>
       <path id="DejaVuSans-Oblique-67" d="M 3816 3500 
L 3219 434 
Q 3047 -456 2561 -893 
Q 2075 -1331 1253 -1331 
Q 950 -1331 690 -1286 
Q 431 -1241 206 -1147 
L 313 -588 
Q 525 -725 762 -790 
Q 1000 -856 1269 -856 
Q 1816 -856 2167 -557 
Q 2519 -259 2631 300 
L 2681 563 
Q 2441 288 2122 144 
Q 1803 0 1434 0 
Q 903 0 598 351 
Q 294 703 294 1319 
Q 294 1803 478 2267 
Q 663 2731 997 3091 
Q 1219 3328 1514 3456 
Q 1809 3584 2131 3584 
Q 2484 3584 2746 3420 
Q 3009 3256 3138 2956 
L 3238 3500 
L 3816 3500 
z
M 2950 2216 
Q 2950 2641 2750 2872 
Q 2550 3103 2181 3103 
Q 1953 3103 1747 3012 
Q 1541 2922 1394 2759 
Q 1156 2491 1023 2127 
Q 891 1763 891 1375 
Q 891 944 1092 712 
Q 1294 481 1672 481 
Q 2219 481 2584 976 
Q 2950 1472 2950 2216 
z
" transform="scale(0.015625)"/>
       <path id="DejaVuSans-20" transform="scale(0.015625)"/>
       <path id="DejaVuSans-47" d="M 3809 666 
L 3809 1919 
L 2778 1919 
L 2778 2438 
L 4434 2438 
L 4434 434 
Q 4069 175 3628 42 
Q 3188 -91 2688 -91 
Q 1594 -91 976 548 
Q 359 1188 359 2328 
Q 359 3472 976 4111 
Q 1594 4750 2688 4750 
Q 3144 4750 3555 4637 
Q 3966 4525 4313 4306 
L 4313 3634 
Q 3963 3931 3569 4081 
Q 3175 4231 2741 4231 
Q 1884 4231 1454 3753 
Q 1025 3275 1025 2328 
Q 1025 1384 1454 906 
Q 1884 428 2741 428 
Q 3075 428 3337 486 
Q 3600 544 3809 666 
z
" transform="scale(0.015625)"/>
       <path id="DejaVuSans-69" d="M 603 3500 
L 1178 3500 
L 1178 0 
L 603 0 
L 603 3500 
z
M 603 4863 
L 1178 4863 
L 1178 4134 
L 603 4134 
L 603 4863 
z
" transform="scale(0.015625)"/>
       <path id="DejaVuSans-6e" d="M 3513 2113 
L 3513 0 
L 2938 0 
L 2938 2094 
Q 2938 2591 2744 2837 
Q 2550 3084 2163 3084 
Q 1697 3084 1428 2787 
Q 1159 2491 1159 1978 
L 1159 0 
L 581 0 
L 581 3500 
L 1159 3500 
L 1159 2956 
Q 1366 3272 1645 3428 
Q 1925 3584 2291 3584 
Q 2894 3584 3203 3211 
Q 3513 2838 3513 2113 
z
" transform="scale(0.015625)"/>
      </defs>
      <use xlink:href="#DejaVuSans-Oblique-6c" transform="translate(0 0.015625)"/>
      <use xlink:href="#DejaVuSans-Oblique-6f" transform="translate(27.783203 0.015625)"/>
      <use xlink:href="#DejaVuSans-Oblique-67" transform="translate(88.964844 0.015625)"/>
      <use xlink:href="#DejaVuSans-31" transform="translate(152.441406 -16.390625) scale(0.7)"/>
      <use xlink:href="#DejaVuSans-30" transform="translate(196.977539 -16.390625) scale(0.7)"/>
      <use xlink:href="#DejaVuSans-20" transform="translate(244.248047 0.015625)"/>
      <use xlink:href="#DejaVuSans-47" transform="translate(276.035156 0.015625)"/>
      <use xlink:href="#DejaVuSans-69" transform="translate(353.525391 0.015625)"/>
      <use xlink:href="#DejaVuSans-6e" transform="translate(381.308594 0.015625)"/>
      <use xlink:href="#DejaVuSans-69" transform="translate(444.6875 0.015625)"/>
     </g>
    </g>
   </g>
   <g id="matplotlib.axis_2">
    <g id="ytick_1">
     <g id="line2d_13">
      <path d="M 16.36274 252.681635 
L 277.048198 252.681635 
" clip-path="url(#pb387f83b48)" style="fill: none; stroke: #e7e7e7; stroke-width: 0.8; stroke-linecap: square"/>
     </g>
     <g id="line2d_14">
      <defs>
       <path id="me5179b328b" d="M 0 0 
L -3.5 0 
" style="stroke: #000000; stroke-width: 0.8"/>
      </defs>
      <g>
       <use xlink:href="#me5179b328b" x="16.36274" y="252.681635" style="stroke: #000000; stroke-width: 0.8"/>
      </g>
     </g>
     <g id="text_8">
      <!-- 0 -->
      <g transform="translate(3.00024 256.480854) scale(0.1 -0.1)">
       <use xlink:href="#DejaVuSans-30"/>
      </g>
     </g>
    </g>
    <g id="ytick_2">
     <g id="line2d_15">
      <path d="M 16.36274 221.946363 
L 277.048198 221.946363 
" clip-path="url(#pb387f83b48)" style="fill: none; stroke: #e7e7e7; stroke-width: 0.8; stroke-linecap: square"/>
     </g>
     <g id="line2d_16">
      <g>
       <use xlink:href="#me5179b328b" x="16.36274" y="221.946363" style="stroke: #000000; stroke-width: 0.8"/>
      </g>
     </g>
     <g id="text_9">
      <!-- 1 -->
      <g transform="translate(3.00024 225.745582) scale(0.1 -0.1)">
       <use xlink:href="#DejaVuSans-31"/>
      </g>
     </g>
    </g>
    <g id="ytick_3">
     <g id="line2d_17">
      <path d="M 16.36274 191.211091 
L 277.048198 191.211091 
" clip-path="url(#pb387f83b48)" style="fill: none; stroke: #e7e7e7; stroke-width: 0.8; stroke-linecap: square"/>
     </g>
     <g id="line2d_18">
      <g>
       <use xlink:href="#me5179b328b" x="16.36274" y="191.211091" style="stroke: #000000; stroke-width: 0.8"/>
      </g>
     </g>
     <g id="text_10">
      <!-- 2 -->
      <g transform="translate(3.00024 195.01031) scale(0.1 -0.1)">
       <use xlink:href="#DejaVuSans-32"/>
      </g>
     </g>
    </g>
    <g id="ytick_4">
     <g id="line2d_19">
      <path d="M 16.36274 160.475819 
L 277.048198 160.475819 
" clip-path="url(#pb387f83b48)" style="fill: none; stroke: #e7e7e7; stroke-width: 0.8; stroke-linecap: square"/>
     </g>
     <g id="line2d_20">
      <g>
       <use xlink:href="#me5179b328b" x="16.36274" y="160.475819" style="stroke: #000000; stroke-width: 0.8"/>
      </g>
     </g>
     <g id="text_11">
      <!-- 3 -->
      <g transform="translate(3.00024 164.275038) scale(0.1 -0.1)">
       <defs>
        <path id="DejaVuSans-33" d="M 2597 2516 
Q 3050 2419 3304 2112 
Q 3559 1806 3559 1356 
Q 3559 666 3084 287 
Q 2609 -91 1734 -91 
Q 1441 -91 1130 -33 
Q 819 25 488 141 
L 488 750 
Q 750 597 1062 519 
Q 1375 441 1716 441 
Q 2309 441 2620 675 
Q 2931 909 2931 1356 
Q 2931 1769 2642 2001 
Q 2353 2234 1838 2234 
L 1294 2234 
L 1294 2753 
L 1863 2753 
Q 2328 2753 2575 2939 
Q 2822 3125 2822 3475 
Q 2822 3834 2567 4026 
Q 2313 4219 1838 4219 
Q 1578 4219 1281 4162 
Q 984 4106 628 3988 
L 628 4550 
Q 988 4650 1302 4700 
Q 1616 4750 1894 4750 
Q 2613 4750 3031 4423 
Q 3450 4097 3450 3541 
Q 3450 3153 3228 2886 
Q 3006 2619 2597 2516 
z
" transform="scale(0.015625)"/>
       </defs>
       <use xlink:href="#DejaVuSans-33"/>
      </g>
     </g>
    </g>
    <g id="ytick_5">
     <g id="line2d_21">
      <path d="M 16.36274 129.740547 
L 277.048198 129.740547 
" clip-path="url(#pb387f83b48)" style="fill: none; stroke: #e7e7e7; stroke-width: 0.8; stroke-linecap: square"/>
     </g>
     <g id="line2d_22">
      <g>
       <use xlink:href="#me5179b328b" x="16.36274" y="129.740547" style="stroke: #000000; stroke-width: 0.8"/>
      </g>
     </g>
     <g id="text_12">
      <!-- 4 -->
      <g transform="translate(3.00024 133.539766) scale(0.1 -0.1)">
       <use xlink:href="#DejaVuSans-34"/>
      </g>
     </g>
    </g>
    <g id="ytick_6">
     <g id="line2d_23">
      <path d="M 16.36274 99.005275 
L 277.048198 99.005275 
" clip-path="url(#pb387f83b48)" style="fill: none; stroke: #e7e7e7; stroke-width: 0.8; stroke-linecap: square"/>
     </g>
     <g id="line2d_24">
      <g>
       <use xlink:href="#me5179b328b" x="16.36274" y="99.005275" style="stroke: #000000; stroke-width: 0.8"/>
      </g>
     </g>
     <g id="text_13">
      <!-- 5 -->
      <g transform="translate(3.00024 102.804494) scale(0.1 -0.1)">
       <defs>
        <path id="DejaVuSans-35" d="M 691 4666 
L 3169 4666 
L 3169 4134 
L 1269 4134 
L 1269 2991 
Q 1406 3038 1543 3061 
Q 1681 3084 1819 3084 
Q 2600 3084 3056 2656 
Q 3513 2228 3513 1497 
Q 3513 744 3044 326 
Q 2575 -91 1722 -91 
Q 1428 -91 1123 -41 
Q 819 9 494 109 
L 494 744 
Q 775 591 1075 516 
Q 1375 441 1709 441 
Q 2250 441 2565 725 
Q 2881 1009 2881 1497 
Q 2881 1984 2565 2268 
Q 2250 2553 1709 2553 
Q 1456 2553 1204 2497 
Q 953 2441 691 2322 
L 691 4666 
z
" transform="scale(0.015625)"/>
       </defs>
       <use xlink:href="#DejaVuSans-35"/>
      </g>
     </g>
    </g>
    <g id="ytick_7">
     <g id="line2d_25">
      <path d="M 16.36274 68.270003 
L 277.048198 68.270003 
" clip-path="url(#pb387f83b48)" style="fill: none; stroke: #e7e7e7; stroke-width: 0.8; stroke-linecap: square"/>
     </g>
     <g id="line2d_26">
      <g>
       <use xlink:href="#me5179b328b" x="16.36274" y="68.270003" style="stroke: #000000; stroke-width: 0.8"/>
      </g>
     </g>
     <g id="text_14">
      <!-- 6 -->
      <g transform="translate(3.00024 72.069222) scale(0.1 -0.1)">
       <use xlink:href="#DejaVuSans-36"/>
      </g>
     </g>
    </g>
    <g id="ytick_8">
     <g id="line2d_27">
      <path d="M 16.36274 37.534731 
L 277.048198 37.534731 
" clip-path="url(#pb387f83b48)" style="fill: none; stroke: #e7e7e7; stroke-width: 0.8; stroke-linecap: square"/>
     </g>
     <g id="line2d_28">
      <g>
       <use xlink:href="#me5179b328b" x="16.36274" y="37.534731" style="stroke: #000000; stroke-width: 0.8"/>
      </g>
     </g>
     <g id="text_15">
      <!-- 7 -->
      <g transform="translate(3.00024 41.33395) scale(0.1 -0.1)">
       <defs>
        <path id="DejaVuSans-37" d="M 525 4666 
L 3525 4666 
L 3525 4397 
L 1831 0 
L 1172 0 
L 2766 4134 
L 525 4134 
L 525 4666 
z
" transform="scale(0.015625)"/>
       </defs>
       <use xlink:href="#DejaVuSans-37"/>
      </g>
     </g>
    </g>
    <g id="ytick_9">
     <g id="line2d_29">
      <path d="M 16.36274 6.799459 
L 277.048198 6.799459 
" clip-path="url(#pb387f83b48)" style="fill: none; stroke: #e7e7e7; stroke-width: 0.8; stroke-linecap: square"/>
     </g>
     <g id="line2d_30">
      <g>
       <use xlink:href="#me5179b328b" x="16.36274" y="6.799459" style="stroke: #000000; stroke-width: 0.8"/>
      </g>
     </g>
     <g id="text_16">
      <!-- 8 -->
      <g transform="translate(3.00024 10.598678) scale(0.1 -0.1)">
       <use xlink:href="#DejaVuSans-38"/>
      </g>
     </g>
    </g>
   </g>
   <g id="FillBetweenPolyCollection_1">
    <defs>
     <path id="m4628b18857" d="M 108.788608 -35.328657 
L 108.788608 -35.318365 
L 109.208195 -35.318365 
L 109.627782 -35.318365 
L 110.04737 -35.318365 
L 110.466957 -35.318365 
L 110.886544 -35.318365 
L 111.306132 -35.318365 
L 111.725719 -35.318365 
L 112.145306 -35.318365 
L 112.564894 -35.318365 
L 112.984481 -35.318365 
L 113.404068 -35.318365 
L 113.823656 -35.318365 
L 114.243243 -35.318365 
L 114.66283 -35.318365 
L 115.082418 -35.318365 
L 115.502005 -35.318365 
L 115.921592 -35.318365 
L 116.34118 -35.318365 
L 116.760767 -35.318365 
L 117.180354 -35.318365 
L 117.599942 -35.318365 
L 118.019529 -35.318365 
L 118.439116 -35.318365 
L 118.858704 -35.318365 
L 119.278291 -35.318365 
L 119.697878 -35.318365 
L 120.117466 -35.318365 
L 120.537053 -35.318365 
L 120.95664 -35.318365 
L 121.376228 -35.318365 
L 121.795815 -35.318365 
L 122.215402 -35.318365 
L 122.63499 -35.318365 
L 123.054577 -35.318365 
L 123.474164 -35.318365 
L 123.893752 -35.318365 
L 124.313339 -35.318365 
L 124.732926 -35.318365 
L 125.152513 -35.318365 
L 125.572101 -35.318365 
L 125.991688 -35.318365 
L 126.411275 -35.318365 
L 126.830863 -35.318365 
L 127.25045 -35.318365 
L 127.670037 -35.318365 
L 128.089625 -35.318365 
L 128.509212 -35.318365 
L 128.928799 -35.318365 
L 129.348387 -35.318365 
L 129.767974 -35.318365 
L 130.187561 -35.318365 
L 130.607149 -35.318365 
L 131.026736 -35.318365 
L 131.446323 -35.318365 
L 131.865911 -35.318365 
L 132.285498 -35.318365 
L 132.705085 -35.318365 
L 133.124673 -35.318365 
L 133.54426 -35.318365 
L 133.963847 -35.318365 
L 134.383435 -35.318365 
L 134.803022 -35.318365 
L 135.222609 -35.318365 
L 135.642197 -35.318365 
L 136.061784 -35.318365 
L 136.481371 -35.318365 
L 136.900959 -35.318365 
L 137.320546 -35.318365 
L 137.740133 -35.318365 
L 138.159721 -35.318365 
L 138.579308 -35.318365 
L 138.998895 -35.318365 
L 139.418483 -35.318365 
L 139.83807 -35.318365 
L 140.257657 -35.318365 
L 140.677244 -35.318365 
L 141.096832 -35.318365 
L 141.516419 -35.318365 
L 141.936006 -35.318365 
L 142.355594 -35.318365 
L 142.775181 -35.318365 
L 143.194768 -35.318365 
L 143.614356 -35.318365 
L 144.033943 -35.318365 
L 144.45353 -35.318365 
L 144.873118 -35.318365 
L 145.292705 -35.318365 
L 145.712292 -35.318365 
L 146.13188 -35.318365 
L 146.551467 -35.318365 
L 146.971054 -35.318365 
L 147.390642 -35.318365 
L 147.810229 -35.318365 
L 148.229816 -35.318365 
L 148.649404 -35.318365 
L 149.068991 -35.318365 
L 149.488578 -35.318365 
L 149.908166 -35.318365 
L 150.327753 -35.318365 
L 150.74734 -35.318365 
L 151.166928 -35.318365 
L 151.586515 -35.318365 
L 152.006102 -35.318365 
L 152.42569 -35.318365 
L 152.845277 -35.318365 
L 153.264864 -35.318365 
L 153.684452 -35.318365 
L 154.104039 -35.318365 
L 154.523626 -35.318365 
L 154.943214 -35.318365 
L 155.362801 -35.318365 
L 155.782388 -35.318365 
L 156.201976 -35.318365 
L 156.621563 -35.318365 
L 157.04115 -35.318365 
L 157.460737 -35.318365 
L 157.880325 -35.318365 
L 158.299912 -35.318365 
L 158.719499 -35.318365 
L 159.139087 -35.318365 
L 159.558674 -35.318365 
L 159.978261 -35.318365 
L 160.397849 -35.318365 
L 160.817436 -35.318365 
L 161.237023 -35.318365 
L 161.656611 -35.318365 
L 162.076198 -35.318365 
L 162.495785 -35.318365 
L 162.915373 -35.318365 
L 163.33496 -35.318365 
L 163.754547 -35.318365 
L 164.174135 -35.318365 
L 164.593722 -35.318365 
L 165.013309 -35.318365 
L 165.432897 -35.318365 
L 165.852484 -35.318365 
L 166.272071 -35.318365 
L 166.691659 -35.318365 
L 167.111246 -35.318365 
L 167.530833 -35.318365 
L 167.950421 -35.318365 
L 168.370008 -35.318365 
L 168.789595 -35.318365 
L 169.209183 -35.318365 
L 169.62877 -35.318365 
L 170.048357 -35.318365 
L 170.467945 -35.318365 
L 170.887532 -35.318365 
L 171.307119 -35.318365 
L 171.726707 -35.318365 
L 172.146294 -35.318365 
L 172.565881 -35.318365 
L 172.985468 -35.318365 
L 173.405056 -35.318365 
L 173.824643 -35.318365 
L 174.24423 -35.318365 
L 174.663818 -35.318365 
L 175.083405 -35.318365 
L 175.502992 -35.318365 
L 175.92258 -35.318365 
L 176.342167 -35.318365 
L 176.761754 -35.318365 
L 177.181342 -35.318365 
L 177.600929 -35.318365 
L 178.020516 -35.318365 
L 178.440104 -35.318365 
L 178.859691 -35.318365 
L 179.279278 -35.318365 
L 179.698866 -35.318365 
L 180.118453 -35.318365 
L 180.53804 -35.318365 
L 180.957628 -35.318365 
L 181.377215 -35.318365 
L 181.796802 -35.318365 
L 182.21639 -35.318365 
L 182.635977 -35.318365 
L 183.055564 -35.318365 
L 183.475152 -35.318365 
L 183.894739 -35.318365 
L 184.314326 -35.318365 
L 184.733914 -35.318365 
L 185.153501 -35.318365 
L 185.573088 -35.318365 
L 185.992676 -35.318365 
L 186.412263 -35.318365 
L 186.83185 -35.318365 
L 187.251438 -35.318365 
L 187.671025 -35.318365 
L 188.090612 -35.318365 
L 188.5102 -35.318365 
L 188.929787 -35.318365 
L 189.349374 -35.318365 
L 189.768961 -35.318365 
L 190.188549 -35.318365 
L 190.608136 -35.318365 
L 191.027723 -35.318365 
L 191.447311 -35.318365 
L 191.866898 -35.318365 
L 192.286485 -35.318365 
L 192.286485 -35.343951 
L 192.286485 -35.343951 
L 191.866898 -35.362011 
L 191.447311 -35.390692 
L 191.027723 -35.434834 
L 190.608136 -35.50067 
L 190.188549 -35.595835 
L 189.768961 -35.729175 
L 189.349374 -35.910293 
L 188.929787 -36.148829 
L 188.5102 -36.453495 
L 188.090612 -36.830943 
L 187.671025 -37.284613 
L 187.251438 -37.813719 
L 186.83185 -38.412542 
L 186.412263 -39.070156 
L 185.992676 -39.770648 
L 185.573088 -40.493819 
L 185.153501 -41.21628 
L 184.733914 -41.912838 
L 184.314326 -42.558033 
L 183.894739 -43.127745 
L 183.475152 -43.600768 
L 183.055564 -43.960328 
L 182.635977 -44.19546 
L 182.21639 -44.302168 
L 181.796802 -44.284264 
L 181.377215 -44.153743 
L 180.957628 -43.930627 
L 180.53804 -43.642188 
L 180.118453 -43.321607 
L 179.698866 -43.006157 
L 179.279278 -42.735043 
L 178.859691 -42.547072 
L 178.440104 -42.478282 
L 178.020516 -42.559629 
L 177.600929 -42.81483 
L 177.181342 -43.258448 
L 176.761754 -43.894357 
L 176.342167 -44.714783 
L 175.92258 -45.70017 
L 175.502992 -46.820103 
L 175.083405 -48.03547 
L 174.663818 -49.301861 
L 174.24423 -50.574007 
L 173.824643 -51.810838 
L 173.405056 -52.980507 
L 172.985468 -54.064682 
L 172.565881 -55.061378 
L 172.146294 -55.985802 
L 171.726707 -56.868941 
L 171.307119 -57.753967 
L 170.887532 -58.690856 
L 170.467945 -59.72994 
L 170.048357 -60.915222 
L 169.62877 -62.278392 
L 169.209183 -63.834339 
L 168.789595 -65.578785 
L 168.370008 -67.488386 
L 167.950421 -69.52328 
L 167.530833 -71.631775 
L 167.111246 -73.756517 
L 166.691659 -75.841276 
L 166.272071 -77.837358 
L 165.852484 -79.708701 
L 165.432897 -81.434906 
L 165.013309 -83.011816 
L 164.593722 -84.449663 
L 164.174135 -85.769252 
L 163.754547 -86.996971 
L 163.33496 -88.159581 
L 162.915373 -89.279736 
L 162.495785 -90.372906 
L 162.076198 -91.44611 
L 161.656611 -92.498423 
L 161.237023 -93.522928 
L 160.817436 -94.509595 
L 160.397849 -95.44848 
L 159.978261 -96.332768 
L 159.558674 -97.161341 
L 159.139087 -97.940787 
L 158.719499 -98.68687 
L 158.299912 -99.425599 
L 157.880325 -100.193938 
L 157.460737 -101.040044 
L 157.04115 -102.022785 
L 156.621563 -103.210147 
L 156.201976 -104.676184 
L 155.782388 -106.49633 
L 155.362801 -108.74121 
L 154.943214 -111.469484 
L 154.523626 -114.72055 
L 154.104039 -118.508132 
L 153.684452 -122.815711 
L 153.264864 -127.594537 
L 152.845277 -132.764579 
L 152.42569 -138.218365 
L 152.006102 -143.827329 
L 151.586515 -149.450099 
L 151.166928 -154.942052 
L 150.74734 -160.165491 
L 150.327753 -164.999788 
L 149.908166 -169.350779 
L 149.488578 -173.158654 
L 149.068991 -176.403451 
L 148.649404 -179.107282 
L 148.229816 -181.332597 
L 147.810229 -183.176136 
L 147.390642 -184.758813 
L 146.971054 -186.212397 
L 146.551467 -187.664448 
L 146.13188 -189.22335 
L 145.712292 -190.965378 
L 145.292705 -192.92547 
L 144.873118 -195.092864 
L 144.45353 -197.412045 
L 144.033943 -199.7887 
L 143.614356 -202.099709 
L 143.194768 -204.205682 
L 142.775181 -205.964267 
L 142.355594 -207.242403 
L 141.936006 -207.925925 
L 141.516419 -207.925388 
L 141.096832 -207.177693 
L 140.677244 -205.643893 
L 140.257657 -203.304353 
L 139.83807 -200.152989 
L 139.418483 -196.192511 
L 138.998895 -191.432227 
L 138.579308 -185.889247 
L 138.159721 -179.592835 
L 137.740133 -172.590645 
L 137.320546 -164.954844 
L 136.900959 -156.785967 
L 136.481371 -148.212793 
L 136.061784 -139.387475 
L 135.642197 -130.476367 
L 135.222609 -121.648009 
L 134.803022 -113.060421 
L 134.383435 -104.849945 
L 133.963847 -97.123396 
L 133.54426 -89.954482 
L 133.124673 -83.384459 
L 132.705085 -77.426223 
L 132.285498 -72.070505 
L 131.865911 -67.292726 
L 131.446323 -63.059303 
L 131.026736 -59.332569 
L 130.607149 -56.074012 
L 130.187561 -53.245889 
L 129.767974 -50.811608 
L 129.348387 -48.735355 
L 128.928799 -46.981448 
L 128.509212 -45.51381 
L 128.089625 -44.29578 
L 127.670037 -43.290379 
L 127.25045 -42.461003 
L 126.830863 -41.772426 
L 126.411275 -41.191965 
L 125.991688 -40.690599 
L 125.572101 -40.243902 
L 125.152513 -39.832627 
L 124.732926 -39.442893 
L 124.313339 -39.065961 
L 123.893752 -38.697669 
L 123.474164 -38.33763 
L 123.054577 -37.988308 
L 122.63499 -37.654106 
L 122.215402 -37.340521 
L 121.795815 -37.053426 
L 121.376228 -36.798459 
L 120.95664 -36.580519 
L 120.537053 -36.403303 
L 120.117466 -36.268904 
L 119.697878 -36.177443 
L 119.278291 -36.126799 
L 118.858704 -36.112481 
L 118.439116 -36.127717 
L 118.019529 -36.163809 
L 117.599942 -36.210776 
L 117.180354 -36.258233 
L 116.760767 -36.296419 
L 116.34118 -36.317211 
L 115.921592 -36.314971 
L 115.502005 -36.287071 
L 115.082418 -36.233999 
L 114.66283 -36.159039 
L 114.243243 -36.067582 
L 113.823656 -35.966217 
L 113.404068 -35.861761 
L 112.984481 -35.760402 
L 112.564894 -35.667068 
L 112.145306 -35.585101 
L 111.725719 -35.516207 
L 111.306132 -35.460649 
L 110.886544 -35.417581 
L 110.466957 -35.385446 
L 110.04737 -35.36234 
L 109.627782 -35.346316 
L 109.208195 -35.33559 
L 108.788608 -35.328657 
z
" style="stroke: #0071b2; stroke-width: 1.5"/>
    </defs>
    <g clip-path="url(#pb387f83b48)">
     <use xlink:href="#m4628b18857" x="0" y="288" style="fill: #0071b2; fill-opacity: 0.75; stroke: #0071b2; stroke-width: 1.5"/>
    </g>
   </g>
   <g id="FillBetweenPolyCollection_2">
    <defs>
     <path id="m9618219250" d="M 89.873537 -35.321732 
L 89.873537 -35.318365 
L 90.391011 -35.318365 
L 90.908485 -35.318365 
L 91.425959 -35.318365 
L 91.943433 -35.318365 
L 92.460907 -35.318365 
L 92.97838 -35.318365 
L 93.495854 -35.318365 
L 94.013328 -35.318365 
L 94.530802 -35.318365 
L 95.048276 -35.318365 
L 95.56575 -35.318365 
L 96.083224 -35.318365 
L 96.600698 -35.318365 
L 97.118172 -35.318365 
L 97.635646 -35.318365 
L 98.15312 -35.318365 
L 98.670594 -35.318365 
L 99.188068 -35.318365 
L 99.705542 -35.318365 
L 100.223016 -35.318365 
L 100.74049 -35.318365 
L 101.257964 -35.318365 
L 101.775438 -35.318365 
L 102.292912 -35.318365 
L 102.810386 -35.318365 
L 103.32786 -35.318365 
L 103.845334 -35.318365 
L 104.362808 -35.318365 
L 104.880281 -35.318365 
L 105.397755 -35.318365 
L 105.915229 -35.318365 
L 106.432703 -35.318365 
L 106.950177 -35.318365 
L 107.467651 -35.318365 
L 107.985125 -35.318365 
L 108.502599 -35.318365 
L 109.020073 -35.318365 
L 109.537547 -35.318365 
L 110.055021 -35.318365 
L 110.572495 -35.318365 
L 111.089969 -35.318365 
L 111.607443 -35.318365 
L 112.124917 -35.318365 
L 112.642391 -35.318365 
L 113.159865 -35.318365 
L 113.677339 -35.318365 
L 114.194813 -35.318365 
L 114.712287 -35.318365 
L 115.229761 -35.318365 
L 115.747235 -35.318365 
L 116.264708 -35.318365 
L 116.782182 -35.318365 
L 117.299656 -35.318365 
L 117.81713 -35.318365 
L 118.334604 -35.318365 
L 118.852078 -35.318365 
L 119.369552 -35.318365 
L 119.887026 -35.318365 
L 120.4045 -35.318365 
L 120.921974 -35.318365 
L 121.439448 -35.318365 
L 121.956922 -35.318365 
L 122.474396 -35.318365 
L 122.99187 -35.318365 
L 123.509344 -35.318365 
L 124.026818 -35.318365 
L 124.544292 -35.318365 
L 125.061766 -35.318365 
L 125.57924 -35.318365 
L 126.096714 -35.318365 
L 126.614188 -35.318365 
L 127.131662 -35.318365 
L 127.649135 -35.318365 
L 128.166609 -35.318365 
L 128.684083 -35.318365 
L 129.201557 -35.318365 
L 129.719031 -35.318365 
L 130.236505 -35.318365 
L 130.753979 -35.318365 
L 131.271453 -35.318365 
L 131.788927 -35.318365 
L 132.306401 -35.318365 
L 132.823875 -35.318365 
L 133.341349 -35.318365 
L 133.858823 -35.318365 
L 134.376297 -35.318365 
L 134.893771 -35.318365 
L 135.411245 -35.318365 
L 135.928719 -35.318365 
L 136.446193 -35.318365 
L 136.963667 -35.318365 
L 137.481141 -35.318365 
L 137.998615 -35.318365 
L 138.516089 -35.318365 
L 139.033563 -35.318365 
L 139.551036 -35.318365 
L 140.06851 -35.318365 
L 140.585984 -35.318365 
L 141.103458 -35.318365 
L 141.620932 -35.318365 
L 142.138406 -35.318365 
L 142.65588 -35.318365 
L 143.173354 -35.318365 
L 143.690828 -35.318365 
L 144.208302 -35.318365 
L 144.725776 -35.318365 
L 145.24325 -35.318365 
L 145.760724 -35.318365 
L 146.278198 -35.318365 
L 146.795672 -35.318365 
L 147.313146 -35.318365 
L 147.83062 -35.318365 
L 148.348094 -35.318365 
L 148.865568 -35.318365 
L 149.383042 -35.318365 
L 149.900516 -35.318365 
L 150.41799 -35.318365 
L 150.935463 -35.318365 
L 151.452937 -35.318365 
L 151.970411 -35.318365 
L 152.487885 -35.318365 
L 153.005359 -35.318365 
L 153.522833 -35.318365 
L 154.040307 -35.318365 
L 154.557781 -35.318365 
L 155.075255 -35.318365 
L 155.592729 -35.318365 
L 156.110203 -35.318365 
L 156.627677 -35.318365 
L 157.145151 -35.318365 
L 157.662625 -35.318365 
L 158.180099 -35.318365 
L 158.697573 -35.318365 
L 159.215047 -35.318365 
L 159.732521 -35.318365 
L 160.249995 -35.318365 
L 160.767469 -35.318365 
L 161.284943 -35.318365 
L 161.802417 -35.318365 
L 162.319891 -35.318365 
L 162.837364 -35.318365 
L 163.354838 -35.318365 
L 163.872312 -35.318365 
L 164.389786 -35.318365 
L 164.90726 -35.318365 
L 165.424734 -35.318365 
L 165.942208 -35.318365 
L 166.459682 -35.318365 
L 166.977156 -35.318365 
L 167.49463 -35.318365 
L 168.012104 -35.318365 
L 168.529578 -35.318365 
L 169.047052 -35.318365 
L 169.564526 -35.318365 
L 170.082 -35.318365 
L 170.599474 -35.318365 
L 171.116948 -35.318365 
L 171.634422 -35.318365 
L 172.151896 -35.318365 
L 172.66937 -35.318365 
L 173.186844 -35.318365 
L 173.704318 -35.318365 
L 174.221791 -35.318365 
L 174.739265 -35.318365 
L 175.256739 -35.318365 
L 175.774213 -35.318365 
L 176.291687 -35.318365 
L 176.809161 -35.318365 
L 177.326635 -35.318365 
L 177.844109 -35.318365 
L 178.361583 -35.318365 
L 178.879057 -35.318365 
L 179.396531 -35.318365 
L 179.914005 -35.318365 
L 180.431479 -35.318365 
L 180.948953 -35.318365 
L 181.466427 -35.318365 
L 181.983901 -35.318365 
L 182.501375 -35.318365 
L 183.018849 -35.318365 
L 183.536323 -35.318365 
L 184.053797 -35.318365 
L 184.571271 -35.318365 
L 185.088745 -35.318365 
L 185.606219 -35.318365 
L 186.123692 -35.318365 
L 186.641166 -35.318365 
L 187.15864 -35.318365 
L 187.676114 -35.318365 
L 188.193588 -35.318365 
L 188.711062 -35.318365 
L 189.228536 -35.318365 
L 189.74601 -35.318365 
L 190.263484 -35.318365 
L 190.780958 -35.318365 
L 191.298432 -35.318365 
L 191.815906 -35.318365 
L 192.33338 -35.318365 
L 192.850854 -35.318365 
L 192.850854 -35.374716 
L 192.850854 -35.374716 
L 192.33338 -35.421653 
L 191.815906 -35.500437 
L 191.298432 -35.627086 
L 190.780958 -35.821994 
L 190.263484 -36.109023 
L 189.74601 -36.513274 
L 189.228536 -37.057419 
L 188.711062 -37.756862 
L 188.193588 -38.614501 
L 187.676114 -39.616299 
L 187.15864 -40.729056 
L 186.641166 -41.90156 
L 186.123692 -43.069582 
L 185.606219 -44.164211 
L 185.088745 -45.121971 
L 184.571271 -45.894502 
L 184.053797 -46.45554 
L 183.536323 -46.803563 
L 183.018849 -46.959669 
L 182.501375 -46.961506 
L 181.983901 -46.855103 
L 181.466427 -46.686796 
L 180.948953 -46.497207 
L 180.431479 -46.31835 
L 179.914005 -46.173925 
L 179.396531 -46.081943 
L 178.879057 -46.058251 
L 178.361583 -46.1195 
L 177.844109 -46.284477 
L 177.326635 -46.573369 
L 176.809161 -47.005211 
L 176.291687 -47.594313 
L 175.774213 -48.346678 
L 175.256739 -49.257405 
L 174.739265 -50.309735 
L 174.221791 -51.476102 
L 173.704318 -52.721105 
L 173.186844 -54.006125 
L 172.66937 -55.29503 
L 172.151896 -56.56031 
L 171.634422 -57.788791 
L 171.116948 -58.985986 
L 170.599474 -60.178107 
L 170.082 -61.41088 
L 169.564526 -62.744717 
L 169.047052 -64.246401 
L 168.529578 -65.978199 
L 168.012104 -67.986059 
L 167.49463 -70.289038 
L 166.977156 -72.87216 
L 166.459682 -75.684449 
L 165.942208 -78.642935 
L 165.424734 -81.642208 
L 164.90726 -84.567829 
L 164.389786 -87.311112 
L 163.872312 -89.782436 
L 163.354838 -91.920753 
L 162.837364 -93.697926 
L 162.319891 -95.117831 
L 161.802417 -96.211363 
L 161.284943 -97.029213 
L 160.767469 -97.634501 
L 160.249995 -98.096909 
L 159.732521 -98.489285 
L 159.215047 -98.886816 
L 158.697573 -99.368198 
L 158.180099 -100.017753 
L 157.662625 -100.92721 
L 157.145151 -102.195817 
L 156.627677 -103.927586 
L 156.110203 -106.224774 
L 155.592729 -109.177307 
L 155.075255 -112.848751 
L 154.557781 -117.260577 
L 154.040307 -122.377644 
L 153.522833 -128.09852 
L 153.005359 -134.254236 
L 152.487885 -140.617877 
L 151.970411 -146.925254 
L 151.452937 -152.904286 
L 150.935463 -158.308277 
L 150.41799 -162.946928 
L 149.900516 -166.709096 
L 149.383042 -169.573024 
L 148.865568 -171.602554 
L 148.348094 -172.930932 
L 147.83062 -173.7363 
L 147.313146 -174.214284 
L 146.795672 -174.552921 
L 146.278198 -174.913751 
L 145.760724 -175.420746 
L 145.24325 -176.156501 
L 144.725776 -177.163544 
L 144.208302 -178.447965 
L 143.690828 -179.982968 
L 143.173354 -181.711013 
L 142.65588 -183.544431 
L 142.138406 -185.365366 
L 141.620932 -187.026299 
L 141.103458 -188.35244 
L 140.585984 -189.147088 
L 140.06851 -189.200778 
L 139.551036 -188.304816 
L 139.033563 -186.269155 
L 138.516089 -182.943599 
L 137.998615 -178.239848 
L 137.481141 -172.150535 
L 136.963667 -164.760703 
L 136.446193 -156.247823 
L 135.928719 -146.86851 
L 135.411245 -136.933197 
L 134.893771 -126.773053 
L 134.376297 -116.705505 
L 133.858823 -107.004838 
L 133.341349 -97.882798 
L 132.823875 -89.4812 
L 132.306401 -81.875538 
L 131.788927 -75.086373 
L 131.271453 -69.094311 
L 130.753979 -63.854836 
L 130.236505 -59.310476 
L 129.719031 -55.399257 
L 129.201557 -52.059591 
L 128.684083 -49.23239 
L 128.166609 -46.861416 
L 127.649135 -44.892758 
L 127.131662 -43.274125 
L 126.614188 -41.95447 
L 126.096714 -40.884221 
L 125.57924 -40.016257 
L 125.061766 -39.307473 
L 124.544292 -38.720609 
L 124.026818 -38.225854 
L 123.509344 -37.801724 
L 122.99187 -37.43491 
L 122.474396 -37.11905 
L 121.956922 -36.852678 
L 121.439448 -36.636799 
L 120.921974 -36.472604 
L 120.4045 -36.359712 
L 119.887026 -36.295137 
L 119.369552 -36.272974 
L 118.852078 -36.284684 
L 118.334604 -36.319777 
L 117.81713 -36.366781 
L 117.299656 -36.414337 
L 116.782182 -36.452361 
L 116.264708 -36.473086 
L 115.747235 -36.471848 
L 115.229761 -36.447432 
L 114.712287 -36.401883 
L 114.194813 -36.339804 
L 113.677339 -36.267293 
L 113.159865 -36.190758 
L 112.642391 -36.115855 
L 112.124917 -36.046741 
L 111.607443 -35.985705 
L 111.089969 -35.933194 
L 110.572495 -35.88813 
L 110.055021 -35.848427 
L 109.537547 -35.811608 
L 109.020073 -35.775429 
L 108.502599 -35.738412 
L 107.985125 -35.700209 
L 107.467651 -35.661726 
L 106.950177 -35.624987 
L 106.432703 -35.592747 
L 105.915229 -35.567941 
L 105.397755 -35.553085 
L 104.880281 -35.549747 
L 104.362808 -35.558209 
L 103.845334 -35.577373 
L 103.32786 -35.604936 
L 102.810386 -35.63777 
L 102.292912 -35.672427 
L 101.775438 -35.705638 
L 101.257964 -35.734692 
L 100.74049 -35.757623 
L 100.223016 -35.773187 
L 99.705542 -35.7807 
L 99.188068 -35.779822 
L 98.670594 -35.770409 
L 98.15312 -35.752494 
L 97.635646 -35.726383 
L 97.118172 -35.692826 
L 96.600698 -35.653144 
L 96.083224 -35.609234 
L 95.56575 -35.563419 
L 95.048276 -35.518171 
L 94.530802 -35.475772 
L 94.013328 -35.438018 
L 93.495854 -35.406032 
L 92.97838 -35.380223 
L 92.460907 -35.360371 
L 91.943433 -35.345804 
L 91.425959 -35.335599 
L 90.908485 -35.328771 
L 90.391011 -35.324403 
L 89.873537 -35.321732 
z
" style="stroke: #d55e00; stroke-width: 1.5"/>
    </defs>
    <g clip-path="url(#pb387f83b48)">
     <use xlink:href="#m9618219250" x="0" y="288" style="fill: #d55e00; fill-opacity: 0.75; stroke: #d55e00; stroke-width: 1.5"/>
    </g>
   </g>
   <g id="patch_3">
    <path d="M 16.36274 252.681635 
L 16.36274 6.799459 
" style="fill: none; stroke: #000000; stroke-width: 0.8; stroke-linejoin: miter; stroke-linecap: square"/>
   </g>
   <g id="patch_4">
    <path d="M 277.048198 252.681635 
L 277.048198 6.799459 
" style="fill: none; stroke: #000000; stroke-width: 0.8; stroke-linejoin: miter; stroke-linecap: square"/>
   </g>
   <g id="patch_5">
    <path d="M 16.36274 252.681635 
L 277.048198 252.681635 
" style="fill: none; stroke: #000000; stroke-width: 0.8; stroke-linejoin: miter; stroke-linecap: square"/>
   </g>
   <g id="patch_6">
    <path d="M 16.36274 6.799459 
L 277.048198 6.799459 
" style="fill: none; stroke: #000000; stroke-width: 0.8; stroke-linejoin: miter; stroke-linecap: square"/>
   </g>
   <g id="legend_1">
    <g id="patch_7">
     <path d="M 68.488125 55.362584 
L 224.922812 55.362584 
Q 227.522812 55.362584 227.522812 52.762584 
L 227.522812 15.899459 
Q 227.522812 13.299459 224.922812 13.299459 
L 68.488125 13.299459 
Q 65.888125 13.299459 65.888125 15.899459 
L 65.888125 52.762584 
Q 65.888125 55.362584 68.488125 55.362584 
z
" style="fill: #ffffff; opacity: 0.8; stroke: #cccccc; stroke-linejoin: miter"/>
    </g>
    <g id="patch_8">
     <path d="M 71.088125 28.377427 
L 97.088125 28.377427 
L 97.088125 19.277427 
L 71.088125 19.277427 
z
" style="fill: #0071b2; stroke: #0071b2; stroke-linejoin: miter"/>
    </g>
    <g id="text_17">
     <!-- multimodal acces -->
     <g transform="translate(107.488125 28.377427) scale(0.13 -0.13)">
      <defs>
       <path id="DejaVuSans-6d" d="M 3328 2828 
Q 3544 3216 3844 3400 
Q 4144 3584 4550 3584 
Q 5097 3584 5394 3201 
Q 5691 2819 5691 2113 
L 5691 0 
L 5113 0 
L 5113 2094 
Q 5113 2597 4934 2840 
Q 4756 3084 4391 3084 
Q 3944 3084 3684 2787 
Q 3425 2491 3425 1978 
L 3425 0 
L 2847 0 
L 2847 2094 
Q 2847 2600 2669 2842 
Q 2491 3084 2119 3084 
Q 1678 3084 1418 2786 
Q 1159 2488 1159 1978 
L 1159 0 
L 581 0 
L 581 3500 
L 1159 3500 
L 1159 2956 
Q 1356 3278 1631 3431 
Q 1906 3584 2284 3584 
Q 2666 3584 2933 3390 
Q 3200 3197 3328 2828 
z
" transform="scale(0.015625)"/>
       <path id="DejaVuSans-75" d="M 544 1381 
L 544 3500 
L 1119 3500 
L 1119 1403 
Q 1119 906 1312 657 
Q 1506 409 1894 409 
Q 2359 409 2629 706 
Q 2900 1003 2900 1516 
L 2900 3500 
L 3475 3500 
L 3475 0 
L 2900 0 
L 2900 538 
Q 2691 219 2414 64 
Q 2138 -91 1772 -91 
Q 1169 -91 856 284 
Q 544 659 544 1381 
z
M 1991 3584 
L 1991 3584 
z
" transform="scale(0.015625)"/>
       <path id="DejaVuSans-6c" d="M 603 4863 
L 1178 4863 
L 1178 0 
L 603 0 
L 603 4863 
z
" transform="scale(0.015625)"/>
       <path id="DejaVuSans-74" d="M 1172 4494 
L 1172 3500 
L 2356 3500 
L 2356 3053 
L 1172 3053 
L 1172 1153 
Q 1172 725 1289 603 
Q 1406 481 1766 481 
L 2356 481 
L 2356 0 
L 1766 0 
Q 1100 0 847 248 
Q 594 497 594 1153 
L 594 3053 
L 172 3053 
L 172 3500 
L 594 3500 
L 594 4494 
L 1172 4494 
z
" transform="scale(0.015625)"/>
       <path id="DejaVuSans-6f" d="M 1959 3097 
Q 1497 3097 1228 2736 
Q 959 2375 959 1747 
Q 959 1119 1226 758 
Q 1494 397 1959 397 
Q 2419 397 2687 759 
Q 2956 1122 2956 1747 
Q 2956 2369 2687 2733 
Q 2419 3097 1959 3097 
z
M 1959 3584 
Q 2709 3584 3137 3096 
Q 3566 2609 3566 1747 
Q 3566 888 3137 398 
Q 2709 -91 1959 -91 
Q 1206 -91 779 398 
Q 353 888 353 1747 
Q 353 2609 779 3096 
Q 1206 3584 1959 3584 
z
" transform="scale(0.015625)"/>
       <path id="DejaVuSans-64" d="M 2906 2969 
L 2906 4863 
L 3481 4863 
L 3481 0 
L 2906 0 
L 2906 525 
Q 2725 213 2448 61 
Q 2172 -91 1784 -91 
Q 1150 -91 751 415 
Q 353 922 353 1747 
Q 353 2572 751 3078 
Q 1150 3584 1784 3584 
Q 2172 3584 2448 3432 
Q 2725 3281 2906 2969 
z
M 947 1747 
Q 947 1113 1208 752 
Q 1469 391 1925 391 
Q 2381 391 2643 752 
Q 2906 1113 2906 1747 
Q 2906 2381 2643 2742 
Q 2381 3103 1925 3103 
Q 1469 3103 1208 2742 
Q 947 2381 947 1747 
z
" transform="scale(0.015625)"/>
       <path id="DejaVuSans-61" d="M 2194 1759 
Q 1497 1759 1228 1600 
Q 959 1441 959 1056 
Q 959 750 1161 570 
Q 1363 391 1709 391 
Q 2188 391 2477 730 
Q 2766 1069 2766 1631 
L 2766 1759 
L 2194 1759 
z
M 3341 1997 
L 3341 0 
L 2766 0 
L 2766 531 
Q 2569 213 2275 61 
Q 1981 -91 1556 -91 
Q 1019 -91 701 211 
Q 384 513 384 1019 
Q 384 1609 779 1909 
Q 1175 2209 1959 2209 
L 2766 2209 
L 2766 2266 
Q 2766 2663 2505 2880 
Q 2244 3097 1772 3097 
Q 1472 3097 1187 3025 
Q 903 2953 641 2809 
L 641 3341 
Q 956 3463 1253 3523 
Q 1550 3584 1831 3584 
Q 2591 3584 2966 3190 
Q 3341 2797 3341 1997 
z
" transform="scale(0.015625)"/>
       <path id="DejaVuSans-63" d="M 3122 3366 
L 3122 2828 
Q 2878 2963 2633 3030 
Q 2388 3097 2138 3097 
Q 1578 3097 1268 2742 
Q 959 2388 959 1747 
Q 959 1106 1268 751 
Q 1578 397 2138 397 
Q 2388 397 2633 464 
Q 2878 531 3122 666 
L 3122 134 
Q 2881 22 2623 -34 
Q 2366 -91 2075 -91 
Q 1284 -91 818 406 
Q 353 903 353 1747 
Q 353 2603 823 3093 
Q 1294 3584 2113 3584 
Q 2378 3584 2631 3529 
Q 2884 3475 3122 3366 
z
" transform="scale(0.015625)"/>
       <path id="DejaVuSans-65" d="M 3597 1894 
L 3597 1613 
L 953 1613 
Q 991 1019 1311 708 
Q 1631 397 2203 397 
Q 2534 397 2845 478 
Q 3156 559 3463 722 
L 3463 178 
Q 3153 47 2828 -22 
Q 2503 -91 2169 -91 
Q 1331 -91 842 396 
Q 353 884 353 1716 
Q 353 2575 817 3079 
Q 1281 3584 2069 3584 
Q 2775 3584 3186 3129 
Q 3597 2675 3597 1894 
z
M 3022 2063 
Q 3016 2534 2758 2815 
Q 2500 3097 2075 3097 
Q 1594 3097 1305 2825 
Q 1016 2553 972 2059 
L 3022 2063 
z
" transform="scale(0.015625)"/>
       <path id="DejaVuSans-73" d="M 2834 3397 
L 2834 2853 
Q 2591 2978 2328 3040 
Q 2066 3103 1784 3103 
Q 1356 3103 1142 2972 
Q 928 2841 928 2578 
Q 928 2378 1081 2264 
Q 1234 2150 1697 2047 
L 1894 2003 
Q 2506 1872 2764 1633 
Q 3022 1394 3022 966 
Q 3022 478 2636 193 
Q 2250 -91 1575 -91 
Q 1294 -91 989 -36 
Q 684 19 347 128 
L 347 722 
Q 666 556 975 473 
Q 1284 391 1588 391 
Q 1994 391 2212 530 
Q 2431 669 2431 922 
Q 2431 1156 2273 1281 
Q 2116 1406 1581 1522 
L 1381 1569 
Q 847 1681 609 1914 
Q 372 2147 372 2553 
Q 372 3047 722 3315 
Q 1072 3584 1716 3584 
Q 2034 3584 2315 3537 
Q 2597 3491 2834 3397 
z
" transform="scale(0.015625)"/>
      </defs>
      <use xlink:href="#DejaVuSans-6d"/>
      <use xlink:href="#DejaVuSans-75" transform="translate(97.412109 0)"/>
      <use xlink:href="#DejaVuSans-6c" transform="translate(160.791016 0)"/>
      <use xlink:href="#DejaVuSans-74" transform="translate(188.574219 0)"/>
      <use xlink:href="#DejaVuSans-69" transform="translate(227.783203 0)"/>
      <use xlink:href="#DejaVuSans-6d" transform="translate(255.566406 0)"/>
      <use xlink:href="#DejaVuSans-6f" transform="translate(352.978516 0)"/>
      <use xlink:href="#DejaVuSans-64" transform="translate(414.160156 0)"/>
      <use xlink:href="#DejaVuSans-61" transform="translate(477.636719 0)"/>
      <use xlink:href="#DejaVuSans-6c" transform="translate(538.916016 0)"/>
      <use xlink:href="#DejaVuSans-20" transform="translate(566.699219 0)"/>
      <use xlink:href="#DejaVuSans-61" transform="translate(598.486328 0)"/>
      <use xlink:href="#DejaVuSans-63" transform="translate(659.765625 0)"/>
      <use xlink:href="#DejaVuSans-63" transform="translate(714.746094 0)"/>
      <use xlink:href="#DejaVuSans-65" transform="translate(769.726562 0)"/>
      <use xlink:href="#DejaVuSans-73" transform="translate(831.25 0)"/>
     </g>
    </g>
    <g id="patch_9">
     <path d="M 71.088125 47.45899 
L 97.088125 47.45899 
L 97.088125 38.35899 
L 71.088125 38.35899 
z
" style="fill: #d55e00; stroke: #d55e00; stroke-linejoin: miter"/>
    </g>
    <g id="text_18">
     <!-- walking access -->
     <g transform="translate(107.488125 47.45899) scale(0.13 -0.13)">
      <defs>
       <path id="DejaVuSans-77" d="M 269 3500 
L 844 3500 
L 1563 769 
L 2278 3500 
L 2956 3500 
L 3675 769 
L 4391 3500 
L 4966 3500 
L 4050 0 
L 3372 0 
L 2619 2869 
L 1863 0 
L 1184 0 
L 269 3500 
z
" transform="scale(0.015625)"/>
       <path id="DejaVuSans-6b" d="M 581 4863 
L 1159 4863 
L 1159 1991 
L 2875 3500 
L 3609 3500 
L 1753 1863 
L 3688 0 
L 2938 0 
L 1159 1709 
L 1159 0 
L 581 0 
L 581 4863 
z
" transform="scale(0.015625)"/>
       <path id="DejaVuSans-67" d="M 2906 1791 
Q 2906 2416 2648 2759 
Q 2391 3103 1925 3103 
Q 1463 3103 1205 2759 
Q 947 2416 947 1791 
Q 947 1169 1205 825 
Q 1463 481 1925 481 
Q 2391 481 2648 825 
Q 2906 1169 2906 1791 
z
M 3481 434 
Q 3481 -459 3084 -895 
Q 2688 -1331 1869 -1331 
Q 1566 -1331 1297 -1286 
Q 1028 -1241 775 -1147 
L 775 -588 
Q 1028 -725 1275 -790 
Q 1522 -856 1778 -856 
Q 2344 -856 2625 -561 
Q 2906 -266 2906 331 
L 2906 616 
Q 2728 306 2450 153 
Q 2172 0 1784 0 
Q 1141 0 747 490 
Q 353 981 353 1791 
Q 353 2603 747 3093 
Q 1141 3584 1784 3584 
Q 2172 3584 2450 3431 
Q 2728 3278 2906 2969 
L 2906 3500 
L 3481 3500 
L 3481 434 
z
" transform="scale(0.015625)"/>
      </defs>
      <use xlink:href="#DejaVuSans-77"/>
      <use xlink:href="#DejaVuSans-61" transform="translate(81.787109 0)"/>
      <use xlink:href="#DejaVuSans-6c" transform="translate(143.066406 0)"/>
      <use xlink:href="#DejaVuSans-6b" transform="translate(170.849609 0)"/>
      <use xlink:href="#DejaVuSans-69" transform="translate(228.759766 0)"/>
      <use xlink:href="#DejaVuSans-6e" transform="translate(256.542969 0)"/>
      <use xlink:href="#DejaVuSans-67" transform="translate(319.921875 0)"/>
      <use xlink:href="#DejaVuSans-20" transform="translate(383.398438 0)"/>
      <use xlink:href="#DejaVuSans-61" transform="translate(415.185547 0)"/>
      <use xlink:href="#DejaVuSans-63" transform="translate(476.464844 0)"/>
      <use xlink:href="#DejaVuSans-63" transform="translate(531.445312 0)"/>
      <use xlink:href="#DejaVuSans-65" transform="translate(586.425781 0)"/>
      <use xlink:href="#DejaVuSans-73" transform="translate(647.949219 0)"/>
      <use xlink:href="#DejaVuSans-73" transform="translate(700.048828 0)"/>
     </g>
    </g>
   </g>
  </g>
 </g>
 <defs>
  <clipPath id="pb387f83b48">
   <rect x="16.36274" y="6.799459" width="260.685457" height="245.882176"/>
  </clipPath>
 </defs>
</svg>
