<?xml version="1.0" encoding="utf-8" standalone="no"?>
<!DOCTYPE svg PUBLIC "-//W3C//DTD SVG 1.1//EN"
  "http://www.w3.org/Graphics/SVG/1.1/DTD/svg11.dtd">
<svg xmlns:xlink="http://www.w3.org/1999/xlink" width="288pt" height="288pt" viewBox="0 0 288 288" xmlns="http://www.w3.org/2000/svg" version="1.1">
 <metadata>
  <rdf:RDF xmlns:dc="http://purl.org/dc/elements/1.1/" xmlns:cc="http://creativecommons.org/ns#" xmlns:rdf="http://www.w3.org/1999/02/22-rdf-syntax-ns#">
   <cc:Work>
    <dc:type rdf:resource="http://purl.org/dc/dcmitype/StillImage"/>
    <dc:format>image/svg+xml</dc:format>
    <dc:creator>
     <cc:Agent>
      <dc:title>Gergő Pintér</dc:title>
     </cc:Agent>
    </dc:creator>
    <dc:rights>
     <cc:Agent>
      <dc:title>CC BY 4.0</dc:title>
     </cc:Agent>
    </dc:rights>
   </cc:Work>
  </rdf:RDF>
 </metadata>
 <defs>
  <style type="text/css">*{stroke-linejoin: round; stroke-linecap: butt}</style>
 </defs>
 <g id="figure_1">
  <g id="patch_1">
   <path d="M 0 288 
L 288 288 
L 288 0 
L 0 0 
z
" style="fill: #ffffff"/>
  </g>
  <g id="axes_1">
   <g id="patch_2">
    <path d="M 16.36274 252.681635 
L 277.048198 252.681635 
L 277.048198 6.799459 
L 16.36274 6.799459 
z
" style="fill: #ffffff"/>
   </g>
   <g id="matplotlib.axis_1">
    <g id="xtick_1">
     <g id="line2d_1">
      <path d="M 33.741771 252.681635 
L 33.741771 6.799459 
" clip-path="url(#pb387f83b48)" style="fill: none; stroke: #e7e7e7; stroke-width: 0.8; stroke-linecap: square"/>
     </g>
     <g id="line2d_2">
      <defs>
       <path id="mbcb02aef95" d="M 0 0 
L 0 3.5 
" style="stroke: #000000; stroke-width: 0.8"/>
      </defs>
      <g>
       <use xlink:href="#mbcb02aef95" x="33.741771" y="252.681635" style="stroke: #000000; stroke-width: 0.8"/>
      </g>
     </g>
     <g id="text_1">
      <!-- −1.4 -->
      <g transform="translate(21.600364 267.280073) scale(0.1 -0.1)">
       <defs>
        <path id="DejaVuSans-2212" d="M 678 2272 
L 4684 2272 
L 4684 1741 
L 678 1741 
L 678 2272 
z
" transform="scale(0.015625)"/>
        <path id="DejaVuSans-31" d="M 794 531 
L 1825 531 
L 1825 4091 
L 703 3866 
L 703 4441 
L 1819 4666 
L 2450 4666 
L 2450 531 
L 3481 531 
L 3481 0 
L 794 0 
L 794 531 
z
" transform="scale(0.015625)"/>
        <path id="DejaVuSans-2e" d="M 684 794 
L 1344 794 
L 1344 0 
L 684 0 
L 684 794 
z
" transform="scale(0.015625)"/>
        <path id="DejaVuSans-34" d="M 2419 4116 
L 825 1625 
L 2419 1625 
L 2419 4116 
z
M 2253 4666 
L 3047 4666 
L 3047 1625 
L 3713 1625 
L 3713 1100 
L 3047 1100 
L 3047 0 
L 2419 0 
L 2419 1100 
L 313 1100 
L 313 1709 
L 2253 4666 
z
" transform="scale(0.015625)"/>
       </defs>
       <use xlink:href="#DejaVuSans-2212"/>
       <use xlink:href="#DejaVuSans-31" transform="translate(83.789062 0)"/>
       <use xlink:href="#DejaVuSans-2e" transform="translate(147.412109 0)"/>
       <use xlink:href="#DejaVuSans-34" transform="translate(179.199219 0)"/>
      </g>
     </g>
    </g>
    <g id="xtick_2">
     <g id="line2d_3">
      <path d="M 68.499831 252.681635 
L 68.499831 6.799459 
" clip-path="url(#pb387f83b48)" style="fill: none; stroke: #e7e7e7; stroke-width: 0.8; stroke-linecap: square"/>
     </g>
     <g id="line2d_4">
      <g>
       <use xlink:href="#mbcb02aef95" x="68.499831" y="252.681635" style="stroke: #000000; stroke-width: 0.8"/>
      </g>
     </g>
     <g id="text_2">
      <!-- −1.2 -->
      <g transform="translate(56.358425 267.280073) scale(0.1 -0.1)">
       <defs>
        <path id="DejaVuSans-32" d="M 1228 531 
L 3431 531 
L 3431 0 
L 469 0 
L 469 531 
Q 828 903 1448 1529 
Q 2069 2156 2228 2338 
Q 2531 2678 2651 2914 
Q 2772 3150 2772 3378 
Q 2772 3750 2511 3984 
Q 2250 4219 1831 4219 
Q 1534 4219 1204 4116 
Q 875 4013 500 3803 
L 500 4441 
Q 881 4594 1212 4672 
Q 1544 4750 1819 4750 
Q 2544 4750 2975 4387 
Q 3406 4025 3406 3419 
Q 3406 3131 3298 2873 
Q 3191 2616 2906 2266 
Q 2828 2175 2409 1742 
Q 1991 1309 1228 531 
z
" transform="scale(0.015625)"/>
       </defs>
       <use xlink:href="#DejaVuSans-2212"/>
       <use xlink:href="#DejaVuSans-31" transform="translate(83.789062 0)"/>
       <use xlink:href="#DejaVuSans-2e" transform="translate(147.412109 0)"/>
       <use xlink:href="#DejaVuSans-32" transform="translate(179.199219 0)"/>
      </g>
     </g>
    </g>
    <g id="xtick_3">
     <g id="line2d_5">
      <path d="M 103.257893 252.681635 
L 103.257893 6.799459 
" clip-path="url(#pb387f83b48)" style="fill: none; stroke: #e7e7e7; stroke-width: 0.8; stroke-linecap: square"/>
     </g>
     <g id="line2d_6">
      <g>
       <use xlink:href="#mbcb02aef95" x="103.257893" y="252.681635" style="stroke: #000000; stroke-width: 0.8"/>
      </g>
     </g>
     <g id="text_3">
      <!-- −1.0 -->
      <g transform="translate(91.116486 267.280073) scale(0.1 -0.1)">
       <defs>
        <path id="DejaVuSans-30" d="M 2034 4250 
Q 1547 4250 1301 3770 
Q 1056 3291 1056 2328 
Q 1056 1369 1301 889 
Q 1547 409 2034 409 
Q 2525 409 2770 889 
Q 3016 1369 3016 2328 
Q 3016 3291 2770 3770 
Q 2525 4250 2034 4250 
z
M 2034 4750 
Q 2819 4750 3233 4129 
Q 3647 3509 3647 2328 
Q 3647 1150 3233 529 
Q 2819 -91 2034 -91 
Q 1250 -91 836 529 
Q 422 1150 422 2328 
Q 422 3509 836 4129 
Q 1250 4750 2034 4750 
z
" transform="scale(0.015625)"/>
       </defs>
       <use xlink:href="#DejaVuSans-2212"/>
       <use xlink:href="#DejaVuSans-31" transform="translate(83.789062 0)"/>
       <use xlink:href="#DejaVuSans-2e" transform="translate(147.412109 0)"/>
       <use xlink:href="#DejaVuSans-30" transform="translate(179.199219 0)"/>
      </g>
     </g>
    </g>
    <g id="xtick_4">
     <g id="line2d_7">
      <path d="M 138.015954 252.681635 
L 138.015954 6.799459 
" clip-path="url(#pb387f83b48)" style="fill: none; stroke: #e7e7e7; stroke-width: 0.8; stroke-linecap: square"/>
     </g>
     <g id="line2d_8">
      <g>
       <use xlink:href="#mbcb02aef95" x="138.015954" y="252.681635" style="stroke: #000000; stroke-width: 0.8"/>
      </g>
     </g>
     <g id="text_4">
      <!-- −0.8 -->
      <g transform="translate(125.874547 267.280073) scale(0.1 -0.1)">
       <defs>
        <path id="DejaVuSans-38" d="M 2034 2216 
Q 1584 2216 1326 1975 
Q 1069 1734 1069 1313 
Q 1069 891 1326 650 
Q 1584 409 2034 409 
Q 2484 409 2743 651 
Q 3003 894 3003 1313 
Q 3003 1734 2745 1975 
Q 2488 2216 2034 2216 
z
M 1403 2484 
Q 997 2584 770 2862 
Q 544 3141 544 3541 
Q 544 4100 942 4425 
Q 1341 4750 2034 4750 
Q 2731 4750 3128 4425 
Q 3525 4100 3525 3541 
Q 3525 3141 3298 2862 
Q 3072 2584 2669 2484 
Q 3125 2378 3379 2068 
Q 3634 1759 3634 1313 
Q 3634 634 3220 271 
Q 2806 -91 2034 -91 
Q 1263 -91 848 271 
Q 434 634 434 1313 
Q 434 1759 690 2068 
Q 947 2378 1403 2484 
z
M 1172 3481 
Q 1172 3119 1398 2916 
Q 1625 2713 2034 2713 
Q 2441 2713 2670 2916 
Q 2900 3119 2900 3481 
Q 2900 3844 2670 4047 
Q 2441 4250 2034 4250 
Q 1625 4250 1398 4047 
Q 1172 3844 1172 3481 
z
" transform="scale(0.015625)"/>
       </defs>
       <use xlink:href="#DejaVuSans-2212"/>
       <use xlink:href="#DejaVuSans-30" transform="translate(83.789062 0)"/>
       <use xlink:href="#DejaVuSans-2e" transform="translate(147.412109 0)"/>
       <use xlink:href="#DejaVuSans-38" transform="translate(179.199219 0)"/>
      </g>
     </g>
    </g>
    <g id="xtick_5">
     <g id="line2d_9">
      <path d="M 172.774015 252.681635 
L 172.774015 6.799459 
" clip-path="url(#pb387f83b48)" style="fill: none; stroke: #e7e7e7; stroke-width: 0.8; stroke-linecap: square"/>
     </g>
     <g id="line2d_10">
      <g>
       <use xlink:href="#mbcb02aef95" x="172.774015" y="252.681635" style="stroke: #000000; stroke-width: 0.8"/>
      </g>
     </g>
     <g id="text_5">
      <!-- −0.6 -->
      <g transform="translate(160.632608 267.280073) scale(0.1 -0.1)">
       <defs>
        <path id="DejaVuSans-36" d="M 2113 2584 
Q 1688 2584 1439 2293 
Q 1191 2003 1191 1497 
Q 1191 994 1439 701 
Q 1688 409 2113 409 
Q 2538 409 2786 701 
Q 3034 994 3034 1497 
Q 3034 2003 2786 2293 
Q 2538 2584 2113 2584 
z
M 3366 4563 
L 3366 3988 
Q 3128 4100 2886 4159 
Q 2644 4219 2406 4219 
Q 1781 4219 1451 3797 
Q 1122 3375 1075 2522 
Q 1259 2794 1537 2939 
Q 1816 3084 2150 3084 
Q 2853 3084 3261 2657 
Q 3669 2231 3669 1497 
Q 3669 778 3244 343 
Q 2819 -91 2113 -91 
Q 1303 -91 875 529 
Q 447 1150 447 2328 
Q 447 3434 972 4092 
Q 1497 4750 2381 4750 
Q 2619 4750 2861 4703 
Q 3103 4656 3366 4563 
z
" transform="scale(0.015625)"/>
       </defs>
       <use xlink:href="#DejaVuSans-2212"/>
       <use xlink:href="#DejaVuSans-30" transform="translate(83.789062 0)"/>
       <use xlink:href="#DejaVuSans-2e" transform="translate(147.412109 0)"/>
       <use xlink:href="#DejaVuSans-36" transform="translate(179.199219 0)"/>
      </g>
     </g>
    </g>
    <g id="xtick_6">
     <g id="line2d_11">
      <path d="M 207.532076 252.681635 
L 207.532076 6.799459 
" clip-path="url(#pb387f83b48)" style="fill: none; stroke: #e7e7e7; stroke-width: 0.8; stroke-linecap: square"/>
     </g>
     <g id="line2d_12">
      <g>
       <use xlink:href="#mbcb02aef95" x="207.532076" y="252.681635" style="stroke: #000000; stroke-width: 0.8"/>
      </g>
     </g>
     <g id="text_6">
      <!-- −0.4 -->
      <g transform="translate(195.390669 267.280073) scale(0.1 -0.1)">
       <use xlink:href="#DejaVuSans-2212"/>
       <use xlink:href="#DejaVuSans-30" transform="translate(83.789062 0)"/>
       <use xlink:href="#DejaVuSans-2e" transform="translate(147.412109 0)"/>
       <use xlink:href="#DejaVuSans-34" transform="translate(179.199219 0)"/>
      </g>
     </g>
    </g>
    <g id="xtick_7">
     <g id="line2d_13">
      <path d="M 242.290137 252.681635 
L 242.290137 6.799459 
" clip-path="url(#pb387f83b48)" style="fill: none; stroke: #e7e7e7; stroke-width: 0.8; stroke-linecap: square"/>
     </g>
     <g id="line2d_14">
      <g>
       <use xlink:href="#mbcb02aef95" x="242.290137" y="252.681635" style="stroke: #000000; stroke-width: 0.8"/>
      </g>
     </g>
     <g id="text_7">
      <!-- −0.2 -->
      <g transform="translate(230.14873 267.280073) scale(0.1 -0.1)">
       <use xlink:href="#DejaVuSans-2212"/>
       <use xlink:href="#DejaVuSans-30" transform="translate(83.789062 0)"/>
       <use xlink:href="#DejaVuSans-2e" transform="translate(147.412109 0)"/>
       <use xlink:href="#DejaVuSans-32" transform="translate(179.199219 0)"/>
      </g>
     </g>
    </g>
    <g id="xtick_8">
     <g id="line2d_15">
      <path d="M 277.048198 252.681635 
L 277.048198 6.799459 
" clip-path="url(#pb387f83b48)" style="fill: none; stroke: #e7e7e7; stroke-width: 0.8; stroke-linecap: square"/>
     </g>
     <g id="line2d_16">
      <g>
       <use xlink:href="#mbcb02aef95" x="277.048198" y="252.681635" style="stroke: #000000; stroke-width: 0.8"/>
      </g>
     </g>
     <g id="text_8">
      <!-- 0.0 -->
      <g transform="translate(269.096635 267.280073) scale(0.1 -0.1)">
       <use xlink:href="#DejaVuSans-30"/>
       <use xlink:href="#DejaVuSans-2e" transform="translate(63.623047 0)"/>
       <use xlink:href="#DejaVuSans-30" transform="translate(95.410156 0)"/>
      </g>
     </g>
    </g>
    <g id="text_9">
     <!-- $log_{10}$ Gini -->
     <g transform="translate(118.325469 282.47976) scale(0.12 -0.12)">
      <defs>
       <path id="DejaVuSans-Oblique-6c" d="M 1172 4863 
L 1747 4863 
L 800 0 
L 225 0 
L 1172 4863 
z
" transform="scale(0.015625)"/>
       <path id="DejaVuSans-Oblique-6f" d="M 1625 -91 
Q 1009 -91 651 289 
Q 294 669 294 1325 
Q 294 1706 417 2101 
Q 541 2497 738 2766 
Q 1047 3184 1428 3384 
Q 1809 3584 2291 3584 
Q 2888 3584 3255 3212 
Q 3622 2841 3622 2241 
Q 3622 1825 3500 1412 
Q 3378 1000 3181 728 
Q 2875 309 2494 109 
Q 2113 -91 1625 -91 
z
M 891 1344 
Q 891 869 1089 633 
Q 1288 397 1691 397 
Q 2269 397 2648 901 
Q 3028 1406 3028 2181 
Q 3028 2634 2825 2865 
Q 2622 3097 2228 3097 
Q 1903 3097 1650 2945 
Q 1397 2794 1197 2484 
Q 1050 2253 970 1956 
Q 891 1659 891 1344 
z
" transform="scale(0.015625)"/>
       <path id="DejaVuSans-Oblique-67" d="M 3816 3500 
L 3219 434 
Q 3047 -456 2561 -893 
Q 2075 -1331 1253 -1331 
Q 950 -1331 690 -1286 
Q 431 -1241 206 -1147 
L 313 -588 
Q 525 -725 762 -790 
Q 1000 -856 1269 -856 
Q 1816 -856 2167 -557 
Q 2519 -259 2631 300 
L 2681 563 
Q 2441 288 2122 144 
Q 1803 0 1434 0 
Q 903 0 598 351 
Q 294 703 294 1319 
Q 294 1803 478 2267 
Q 663 2731 997 3091 
Q 1219 3328 1514 3456 
Q 1809 3584 2131 3584 
Q 2484 3584 2746 3420 
Q 3009 3256 3138 2956 
L 3238 3500 
L 3816 3500 
z
M 2950 2216 
Q 2950 2641 2750 2872 
Q 2550 3103 2181 3103 
Q 1953 3103 1747 3012 
Q 1541 2922 1394 2759 
Q 1156 2491 1023 2127 
Q 891 1763 891 1375 
Q 891 944 1092 712 
Q 1294 481 1672 481 
Q 2219 481 2584 976 
Q 2950 1472 2950 2216 
z
" transform="scale(0.015625)"/>
       <path id="DejaVuSans-20" transform="scale(0.015625)"/>
       <path id="DejaVuSans-47" d="M 3809 666 
L 3809 1919 
L 2778 1919 
L 2778 2438 
L 4434 2438 
L 4434 434 
Q 4069 175 3628 42 
Q 3188 -91 2688 -91 
Q 1594 -91 976 548 
Q 359 1188 359 2328 
Q 359 3472 976 4111 
Q 1594 4750 2688 4750 
Q 3144 4750 3555 4637 
Q 3966 4525 4313 4306 
L 4313 3634 
Q 3963 3931 3569 4081 
Q 3175 4231 2741 4231 
Q 1884 4231 1454 3753 
Q 1025 3275 1025 2328 
Q 1025 1384 1454 906 
Q 1884 428 2741 428 
Q 3075 428 3337 486 
Q 3600 544 3809 666 
z
" transform="scale(0.015625)"/>
       <path id="DejaVuSans-69" d="M 603 3500 
L 1178 3500 
L 1178 0 
L 603 0 
L 603 3500 
z
M 603 4863 
L 1178 4863 
L 1178 4134 
L 603 4134 
L 603 4863 
z
" transform="scale(0.015625)"/>
       <path id="DejaVuSans-6e" d="M 3513 2113 
L 3513 0 
L 2938 0 
L 2938 2094 
Q 2938 2591 2744 2837 
Q 2550 3084 2163 3084 
Q 1697 3084 1428 2787 
Q 1159 2491 1159 1978 
L 1159 0 
L 581 0 
L 581 3500 
L 1159 3500 
L 1159 2956 
Q 1366 3272 1645 3428 
Q 1925 3584 2291 3584 
Q 2894 3584 3203 3211 
Q 3513 2838 3513 2113 
z
" transform="scale(0.015625)"/>
      </defs>
      <use xlink:href="#DejaVuSans-Oblique-6c" transform="translate(0 0.015625)"/>
      <use xlink:href="#DejaVuSans-Oblique-6f" transform="translate(27.783203 0.015625)"/>
      <use xlink:href="#DejaVuSans-Oblique-67" transform="translate(88.964844 0.015625)"/>
      <use xlink:href="#DejaVuSans-31" transform="translate(152.441406 -16.390625) scale(0.7)"/>
      <use xlink:href="#DejaVuSans-30" transform="translate(196.977539 -16.390625) scale(0.7)"/>
      <use xlink:href="#DejaVuSans-20" transform="translate(244.248047 0.015625)"/>
      <use xlink:href="#DejaVuSans-47" transform="translate(276.035156 0.015625)"/>
      <use xlink:href="#DejaVuSans-69" transform="translate(353.525391 0.015625)"/>
      <use xlink:href="#DejaVuSans-6e" transform="translate(381.308594 0.015625)"/>
      <use xlink:href="#DejaVuSans-69" transform="translate(444.6875 0.015625)"/>
     </g>
    </g>
   </g>
   <g id="matplotlib.axis_2">
    <g id="ytick_1">
     <g id="line2d_17">
      <path d="M 16.36274 252.681635 
L 277.048198 252.681635 
" clip-path="url(#pb387f83b48)" style="fill: none; stroke: #e7e7e7; stroke-width: 0.8; stroke-linecap: square"/>
     </g>
     <g id="line2d_18">
      <defs>
       <path id="me5179b328b" d="M 0 0 
L -3.5 0 
" style="stroke: #000000; stroke-width: 0.8"/>
      </defs>
      <g>
       <use xlink:href="#me5179b328b" x="16.36274" y="252.681635" style="stroke: #000000; stroke-width: 0.8"/>
      </g>
     </g>
     <g id="text_10">
      <!-- 0 -->
      <g transform="translate(3.00024 256.480854) scale(0.1 -0.1)">
       <use xlink:href="#DejaVuSans-30"/>
      </g>
     </g>
    </g>
    <g id="ytick_2">
     <g id="line2d_19">
      <path d="M 16.36274 203.5052 
L 277.048198 203.5052 
" clip-path="url(#pb387f83b48)" style="fill: none; stroke: #e7e7e7; stroke-width: 0.8; stroke-linecap: square"/>
     </g>
     <g id="line2d_20">
      <g>
       <use xlink:href="#me5179b328b" x="16.36274" y="203.5052" style="stroke: #000000; stroke-width: 0.8"/>
      </g>
     </g>
     <g id="text_11">
      <!-- 1 -->
      <g transform="translate(3.00024 207.304418) scale(0.1 -0.1)">
       <use xlink:href="#DejaVuSans-31"/>
      </g>
     </g>
    </g>
    <g id="ytick_3">
     <g id="line2d_21">
      <path d="M 16.36274 154.328764 
L 277.048198 154.328764 
" clip-path="url(#pb387f83b48)" style="fill: none; stroke: #e7e7e7; stroke-width: 0.8; stroke-linecap: square"/>
     </g>
     <g id="line2d_22">
      <g>
       <use xlink:href="#me5179b328b" x="16.36274" y="154.328764" style="stroke: #000000; stroke-width: 0.8"/>
      </g>
     </g>
     <g id="text_12">
      <!-- 2 -->
      <g transform="translate(3.00024 158.127983) scale(0.1 -0.1)">
       <use xlink:href="#DejaVuSans-32"/>
      </g>
     </g>
    </g>
    <g id="ytick_4">
     <g id="line2d_23">
      <path d="M 16.36274 105.152329 
L 277.048198 105.152329 
" clip-path="url(#pb387f83b48)" style="fill: none; stroke: #e7e7e7; stroke-width: 0.8; stroke-linecap: square"/>
     </g>
     <g id="line2d_24">
      <g>
       <use xlink:href="#me5179b328b" x="16.36274" y="105.152329" style="stroke: #000000; stroke-width: 0.8"/>
      </g>
     </g>
     <g id="text_13">
      <!-- 3 -->
      <g transform="translate(3.00024 108.951548) scale(0.1 -0.1)">
       <defs>
        <path id="DejaVuSans-33" d="M 2597 2516 
Q 3050 2419 3304 2112 
Q 3559 1806 3559 1356 
Q 3559 666 3084 287 
Q 2609 -91 1734 -91 
Q 1441 -91 1130 -33 
Q 819 25 488 141 
L 488 750 
Q 750 597 1062 519 
Q 1375 441 1716 441 
Q 2309 441 2620 675 
Q 2931 909 2931 1356 
Q 2931 1769 2642 2001 
Q 2353 2234 1838 2234 
L 1294 2234 
L 1294 2753 
L 1863 2753 
Q 2328 2753 2575 2939 
Q 2822 3125 2822 3475 
Q 2822 3834 2567 4026 
Q 2313 4219 1838 4219 
Q 1578 4219 1281 4162 
Q 984 4106 628 3988 
L 628 4550 
Q 988 4650 1302 4700 
Q 1616 4750 1894 4750 
Q 2613 4750 3031 4423 
Q 3450 4097 3450 3541 
Q 3450 3153 3228 2886 
Q 3006 2619 2597 2516 
z
" transform="scale(0.015625)"/>
       </defs>
       <use xlink:href="#DejaVuSans-33"/>
      </g>
     </g>
    </g>
    <g id="ytick_5">
     <g id="line2d_25">
      <path d="M 16.36274 55.975894 
L 277.048198 55.975894 
" clip-path="url(#pb387f83b48)" style="fill: none; stroke: #e7e7e7; stroke-width: 0.8; stroke-linecap: square"/>
     </g>
     <g id="line2d_26">
      <g>
       <use xlink:href="#me5179b328b" x="16.36274" y="55.975894" style="stroke: #000000; stroke-width: 0.8"/>
      </g>
     </g>
     <g id="text_14">
      <!-- 4 -->
      <g transform="translate(3.00024 59.775113) scale(0.1 -0.1)">
       <use xlink:href="#DejaVuSans-34"/>
      </g>
     </g>
    </g>
    <g id="ytick_6">
     <g id="line2d_27">
      <path d="M 16.36274 6.799459 
L 277.048198 6.799459 
" clip-path="url(#pb387f83b48)" style="fill: none; stroke: #e7e7e7; stroke-width: 0.8; stroke-linecap: square"/>
     </g>
     <g id="line2d_28">
      <g>
       <use xlink:href="#me5179b328b" x="16.36274" y="6.799459" style="stroke: #000000; stroke-width: 0.8"/>
      </g>
     </g>
     <g id="text_15">
      <!-- 5 -->
      <g transform="translate(3.00024 10.598678) scale(0.1 -0.1)">
       <defs>
        <path id="DejaVuSans-35" d="M 691 4666 
L 3169 4666 
L 3169 4134 
L 1269 4134 
L 1269 2991 
Q 1406 3038 1543 3061 
Q 1681 3084 1819 3084 
Q 2600 3084 3056 2656 
Q 3513 2228 3513 1497 
Q 3513 744 3044 326 
Q 2575 -91 1722 -91 
Q 1428 -91 1123 -41 
Q 819 9 494 109 
L 494 744 
Q 775 591 1075 516 
Q 1375 441 1709 441 
Q 2250 441 2565 725 
Q 2881 1009 2881 1497 
Q 2881 1984 2565 2268 
Q 2250 2553 1709 2553 
Q 1456 2553 1204 2497 
Q 953 2441 691 2322 
L 691 4666 
z
" transform="scale(0.015625)"/>
       </defs>
       <use xlink:href="#DejaVuSans-35"/>
      </g>
     </g>
    </g>
   </g>
   <g id="FillBetweenPolyCollection_1">
    <path d="M -193.54823 252.674473 
L -193.54823 252.681635 
L -191.558325 252.681635 
L -189.568419 252.681635 
L -187.578514 252.681635 
L -185.588608 252.681635 
L -183.598703 252.681635 
L -181.608797 252.681635 
L -179.618892 252.681635 
L -177.628986 252.681635 
L -175.639081 252.681635 
L -173.649175 252.681635 
L -171.65927 252.681635 
L -169.669364 252.681635 
L -167.679459 252.681635 
L -165.689553 252.681635 
L -163.699648 252.681635 
L -161.709742 252.681635 
L -159.719837 252.681635 
L -157.729931 252.681635 
L -155.740026 252.681635 
L -153.75012 252.681635 
L -151.760215 252.681635 
L -149.770309 252.681635 
L -147.780404 252.681635 
L -145.790498 252.681635 
L -143.800593 252.681635 
L -141.810687 252.681635 
L -139.820782 252.681635 
L -137.830876 252.681635 
L -135.840971 252.681635 
L -133.851065 252.681635 
L -131.86116 252.681635 
L -129.871254 252.681635 
L -127.881349 252.681635 
L -125.891443 252.681635 
L -123.901538 252.681635 
L -121.911632 252.681635 
L -119.921727 252.681635 
L -117.931821 252.681635 
L -115.941916 252.681635 
L -113.95201 252.681635 
L -111.962105 252.681635 
L -109.972199 252.681635 
L -107.982294 252.681635 
L -105.992388 252.681635 
L -104.002483 252.681635 
L -102.012577 252.681635 
L -100.022672 252.681635 
L -98.032766 252.681635 
L -96.042861 252.681635 
L -94.052955 252.681635 
L -92.06305 252.681635 
L -90.073144 252.681635 
L -88.083239 252.681635 
L -86.093333 252.681635 
L -84.103428 252.681635 
L -82.113522 252.681635 
L -80.123617 252.681635 
L -78.133711 252.681635 
L -76.143806 252.681635 
L -74.1539 252.681635 
L -72.163995 252.681635 
L -70.174089 252.681635 
L -68.184184 252.681635 
L -66.194278 252.681635 
L -64.204373 252.681635 
L -62.214467 252.681635 
L -60.224562 252.681635 
L -58.234656 252.681635 
L -56.244751 252.681635 
L -54.254845 252.681635 
L -52.26494 252.681635 
L -50.275034 252.681635 
L -48.285129 252.681635 
L -46.295223 252.681635 
L -44.305318 252.681635 
L -42.315412 252.681635 
L -40.325507 252.681635 
L -38.335601 252.681635 
L -36.345696 252.681635 
L -34.35579 252.681635 
L -32.365885 252.681635 
L -30.375979 252.681635 
L -28.386074 252.681635 
L -26.396168 252.681635 
L -24.406263 252.681635 
L -22.416357 252.681635 
L -20.426452 252.681635 
L -18.436546 252.681635 
L -16.446641 252.681635 
L -14.456735 252.681635 
L -12.46683 252.681635 
L -10.476924 252.681635 
L -8.487019 252.681635 
L -6.497113 252.681635 
L -4.507208 252.681635 
L -2.517302 252.681635 
L -0.527397 252.681635 
L 1.462509 252.681635 
L 3.452414 252.681635 
L 5.44232 252.681635 
L 7.432225 252.681635 
L 9.422131 252.681635 
L 11.412036 252.681635 
L 13.401942 252.681635 
L 15.391847 252.681635 
L 17.381753 252.681635 
L 19.371658 252.681635 
L 21.361564 252.681635 
L 23.351469 252.681635 
L 25.341375 252.681635 
L 27.33128 252.681635 
L 29.321186 252.681635 
L 31.311091 252.681635 
L 33.300997 252.681635 
L 35.290902 252.681635 
L 37.280808 252.681635 
L 39.270713 252.681635 
L 41.260619 252.681635 
L 43.250524 252.681635 
L 45.24043 252.681635 
L 47.230335 252.681635 
L 49.220241 252.681635 
L 51.210146 252.681635 
L 53.200052 252.681635 
L 55.189957 252.681635 
L 57.179863 252.681635 
L 59.169768 252.681635 
L 61.159674 252.681635 
L 63.149579 252.681635 
L 65.139485 252.681635 
L 67.12939 252.681635 
L 69.119296 252.681635 
L 71.109202 252.681635 
L 73.099107 252.681635 
L 75.089013 252.681635 
L 77.078918 252.681635 
L 79.068824 252.681635 
L 81.058729 252.681635 
L 83.048635 252.681635 
L 85.03854 252.681635 
L 87.028446 252.681635 
L 89.018351 252.681635 
L 91.008257 252.681635 
L 92.998162 252.681635 
L 94.988068 252.681635 
L 96.977973 252.681635 
L 98.967879 252.681635 
L 100.957784 252.681635 
L 102.94769 252.681635 
L 104.937595 252.681635 
L 106.927501 252.681635 
L 108.917406 252.681635 
L 110.907312 252.681635 
L 112.897217 252.681635 
L 114.887123 252.681635 
L 116.877028 252.681635 
L 118.866934 252.681635 
L 120.856839 252.681635 
L 122.846745 252.681635 
L 124.83665 252.681635 
L 126.826556 252.681635 
L 128.816461 252.681635 
L 130.806367 252.681635 
L 132.796272 252.681635 
L 134.786178 252.681635 
L 136.776083 252.681635 
L 138.765989 252.681635 
L 140.755894 252.681635 
L 142.7458 252.681635 
L 144.735705 252.681635 
L 146.725611 252.681635 
L 148.715516 252.681635 
L 150.705422 252.681635 
L 152.695327 252.681635 
L 154.685233 252.681635 
L 156.675138 252.681635 
L 158.665044 252.681635 
L 160.654949 252.681635 
L 162.644855 252.681635 
L 164.63476 252.681635 
L 166.624666 252.681635 
L 168.614571 252.681635 
L 170.604477 252.681635 
L 172.594382 252.681635 
L 174.584288 252.681635 
L 176.574193 252.681635 
L 178.564099 252.681635 
L 180.554004 252.681635 
L 182.54391 252.681635 
L 184.533815 252.681635 
L 186.523721 252.681635 
L 188.513626 252.681635 
L 190.503532 252.681635 
L 192.493437 252.681635 
L 194.483343 252.681635 
L 196.473248 252.681635 
L 198.463154 252.681635 
L 200.453059 252.681635 
L 202.442965 252.681635 
L 202.442965 252.671213 
L 202.442965 252.671213 
L 200.453059 252.653336 
L 198.463154 252.61188 
L 196.473248 252.525415 
L 194.483343 252.363441 
L 192.493437 252.091375 
L 190.503532 251.682405 
L 188.513626 251.133174 
L 186.523721 250.47445 
L 184.533815 249.766123 
L 182.54391 249.072999 
L 180.554004 248.431375 
L 178.564099 247.825511 
L 176.574193 247.186721 
L 174.584288 246.408217 
L 172.594382 245.353607 
L 170.604477 243.843307 
L 168.614571 241.628667 
L 166.624666 238.385445 
L 164.63476 233.755473 
L 162.644855 227.439926 
L 160.654949 219.320041 
L 158.665044 209.567253 
L 156.675138 198.701469 
L 154.685233 187.555712 
L 152.695327 177.116137 
L 150.705422 168.249937 
L 148.715516 161.409511 
L 146.725611 156.4635 
L 144.735705 152.786689 
L 142.7458 149.61737 
L 140.755894 146.523281 
L 138.765989 143.721615 
L 136.776083 142.059156 
L 134.786178 142.650869 
L 132.796272 146.372096 
L 130.806367 153.466918 
L 128.816461 163.441648 
L 126.826556 175.244241 
L 124.83665 187.604107 
L 122.846745 199.37466 
L 120.856839 209.762431 
L 118.866934 218.398279 
L 116.877028 225.274426 
L 114.887123 230.611227 
L 112.897217 234.718257 
L 110.907312 237.888215 
L 108.917406 240.336813 
L 106.927501 242.190793 
L 104.937595 243.519362 
L 102.94769 244.389462 
L 100.957784 244.909984 
L 98.967879 245.233885 
L 96.977973 245.515859 
L 94.988068 245.856677 
L 92.998162 246.275079 
L 91.008257 246.725165 
L 89.018351 247.141779 
L 87.028446 247.479184 
L 85.03854 247.721976 
L 83.048635 247.875394 
L 81.058729 247.957014 
L 79.068824 248.001075 
L 77.078918 248.064635 
L 75.089013 248.216704 
L 73.099107 248.506945 
L 71.109202 248.933815 
L 69.119296 249.438564 
L 67.12939 249.933464 
L 65.139485 250.346262 
L 63.149579 250.651492 
L 61.159674 250.87103 
L 59.169768 251.049073 
L 57.179863 251.221948 
L 55.189957 251.401665 
L 53.200052 251.578725 
L 51.210146 251.736085 
L 49.220241 251.861447 
L 47.230335 251.95031 
L 45.24043 252.001632 
L 43.250524 252.013844 
L 41.260619 251.987077 
L 39.270713 251.930344 
L 37.280808 251.866359 
L 35.290902 251.827258 
L 33.300997 251.841487 
L 31.311091 251.919678 
L 29.321186 252.048833 
L 27.33128 252.198366 
L 25.341375 252.333547 
L 23.351469 252.428282 
L 21.361564 252.471754 
L 19.371658 252.468533 
L 17.381753 252.434713 
L 15.391847 252.392284 
L 13.401942 252.362664 
L 11.412036 252.360386 
L 9.422131 252.389024 
L 7.432225 252.441388 
L 5.44232 252.503982 
L 3.452414 252.563211 
L 1.462509 252.609946 
L -0.527397 252.640551 
L -2.517302 252.654714 
L -4.507208 252.651796 
L -6.497113 252.627528 
L -8.487019 252.572432 
L -10.476924 252.473199 
L -12.46683 252.317917 
L -14.456735 252.104691 
L -16.446641 251.850442 
L -18.436546 251.594249 
L -20.426452 251.390163 
L -22.416357 251.289576 
L -24.406263 251.320496 
L -26.396168 251.474991 
L -28.386074 251.71242 
L -30.375979 251.97671 
L -32.365885 252.217694 
L -34.35579 252.405512 
L -36.345696 252.533111 
L -38.335601 252.609475 
L -40.325507 252.649984 
L -42.315412 252.669107 
L -44.305318 252.677162 
L -46.295223 252.680195 
L -48.285129 252.681217 
L -50.275034 252.681526 
L -52.26494 252.681609 
L -54.254845 252.68163 
L -56.244751 252.681634 
L -58.234656 252.681635 
L -60.224562 252.681635 
L -62.214467 252.681635 
L -64.204373 252.681635 
L -66.194278 252.681635 
L -68.184184 252.681635 
L -70.174089 252.681635 
L -72.163995 252.681635 
L -74.1539 252.681635 
L -76.143806 252.681635 
L -78.133711 252.681635 
L -80.123617 252.681635 
L -82.113522 252.681635 
L -84.103428 252.681635 
L -86.093333 252.681635 
L -88.083239 252.681635 
L -90.073144 252.681635 
L -92.06305 252.681635 
L -94.052955 252.681635 
L -96.042861 252.681635 
L -98.032766 252.681635 
L -100.022672 252.681635 
L -102.012577 252.681635 
L -104.002483 252.681635 
L -105.992388 252.681635 
L -107.982294 252.681635 
L -109.972199 252.681635 
L -111.962105 252.681635 
L -113.95201 252.681635 
L -115.941916 252.681635 
L -117.931821 252.681635 
L -119.921727 252.681635 
L -121.911632 252.681635 
L -123.901538 252.681635 
L -125.891443 252.681635 
L -127.881349 252.681635 
L -129.871254 252.681635 
L -131.86116 252.681635 
L -133.851065 252.681635 
L -135.840971 252.681635 
L -137.830876 252.681635 
L -139.820782 252.681635 
L -141.810687 252.681635 
L -143.800593 252.681634 
L -145.790498 252.681628 
L -147.780404 252.681605 
L -149.770309 252.681515 
L -151.760215 252.681197 
L -153.75012 252.680198 
L -155.740026 252.677394 
L -157.729931 252.670373 
L -159.719837 252.654723 
L -161.709742 252.623759 
L -163.699648 252.569625 
L -165.689553 252.486553 
L -167.679459 252.375876 
L -169.669364 252.250368 
L -171.65927 252.134219 
L -173.649175 252.05633 
L -175.639081 252.038844 
L -177.628986 252.086998 
L -179.618892 252.186597 
L -181.608797 252.31076 
L -183.598703 252.431588 
L -185.588608 252.529923 
L -187.578514 252.598799 
L -189.568419 252.640932 
L -191.558325 252.663637 
L -193.54823 252.674473 
z
" clip-path="url(#pb387f83b48)" style="fill: #0071b2; fill-opacity: 0.75; stroke: #0071b2; stroke-width: 1.5"/>
   </g>
   <g id="FillBetweenPolyCollection_2">
    <path d="M -87.582282 252.678321 
L -87.582282 252.681635 
L -86.106339 252.681635 
L -84.630396 252.681635 
L -83.154452 252.681635 
L -81.678509 252.681635 
L -80.202566 252.681635 
L -78.726623 252.681635 
L -77.25068 252.681635 
L -75.774736 252.681635 
L -74.298793 252.681635 
L -72.82285 252.681635 
L -71.346907 252.681635 
L -69.870964 252.681635 
L -68.395021 252.681635 
L -66.919077 252.681635 
L -65.443134 252.681635 
L -63.967191 252.681635 
L -62.491248 252.681635 
L -61.015305 252.681635 
L -59.539361 252.681635 
L -58.063418 252.681635 
L -56.587475 252.681635 
L -55.111532 252.681635 
L -53.635589 252.681635 
L -52.159646 252.681635 
L -50.683702 252.681635 
L -49.207759 252.681635 
L -47.731816 252.681635 
L -46.255873 252.681635 
L -44.77993 252.681635 
L -43.303986 252.681635 
L -41.828043 252.681635 
L -40.3521 252.681635 
L -38.876157 252.681635 
L -37.400214 252.681635 
L -35.924271 252.681635 
L -34.448327 252.681635 
L -32.972384 252.681635 
L -31.496441 252.681635 
L -30.020498 252.681635 
L -28.544555 252.681635 
L -27.068612 252.681635 
L -25.592668 252.681635 
L -24.116725 252.681635 
L -22.640782 252.681635 
L -21.164839 252.681635 
L -19.688896 252.681635 
L -18.212952 252.681635 
L -16.737009 252.681635 
L -15.261066 252.681635 
L -13.785123 252.681635 
L -12.30918 252.681635 
L -10.833237 252.681635 
L -9.357293 252.681635 
L -7.88135 252.681635 
L -6.405407 252.681635 
L -4.929464 252.681635 
L -3.453521 252.681635 
L -1.977577 252.681635 
L -0.501634 252.681635 
L 0.974309 252.681635 
L 2.450252 252.681635 
L 3.926195 252.681635 
L 5.402138 252.681635 
L 6.878082 252.681635 
L 8.354025 252.681635 
L 9.829968 252.681635 
L 11.305911 252.681635 
L 12.781854 252.681635 
L 14.257798 252.681635 
L 15.733741 252.681635 
L 17.209684 252.681635 
L 18.685627 252.681635 
L 20.16157 252.681635 
L 21.637513 252.681635 
L 23.113457 252.681635 
L 24.5894 252.681635 
L 26.065343 252.681635 
L 27.541286 252.681635 
L 29.017229 252.681635 
L 30.493173 252.681635 
L 31.969116 252.681635 
L 33.445059 252.681635 
L 34.921002 252.681635 
L 36.396945 252.681635 
L 37.872888 252.681635 
L 39.348832 252.681635 
L 40.824775 252.681635 
L 42.300718 252.681635 
L 43.776661 252.681635 
L 45.252604 252.681635 
L 46.728548 252.681635 
L 48.204491 252.681635 
L 49.680434 252.681635 
L 51.156377 252.681635 
L 52.63232 252.681635 
L 54.108263 252.681635 
L 55.584207 252.681635 
L 57.06015 252.681635 
L 58.536093 252.681635 
L 60.012036 252.681635 
L 61.487979 252.681635 
L 62.963923 252.681635 
L 64.439866 252.681635 
L 65.915809 252.681635 
L 67.391752 252.681635 
L 68.867695 252.681635 
L 70.343638 252.681635 
L 71.819582 252.681635 
L 73.295525 252.681635 
L 74.771468 252.681635 
L 76.247411 252.681635 
L 77.723354 252.681635 
L 79.199298 252.681635 
L 80.675241 252.681635 
L 82.151184 252.681635 
L 83.627127 252.681635 
L 85.10307 252.681635 
L 86.579013 252.681635 
L 88.054957 252.681635 
L 89.5309 252.681635 
L 91.006843 252.681635 
L 92.482786 252.681635 
L 93.958729 252.681635 
L 95.434673 252.681635 
L 96.910616 252.681635 
L 98.386559 252.681635 
L 99.862502 252.681635 
L 101.338445 252.681635 
L 102.814388 252.681635 
L 104.290332 252.681635 
L 105.766275 252.681635 
L 107.242218 252.681635 
L 108.718161 252.681635 
L 110.194104 252.681635 
L 111.670048 252.681635 
L 113.145991 252.681635 
L 114.621934 252.681635 
L 116.097877 252.681635 
L 117.57382 252.681635 
L 119.049763 252.681635 
L 120.525707 252.681635 
L 122.00165 252.681635 
L 123.477593 252.681635 
L 124.953536 252.681635 
L 126.429479 252.681635 
L 127.905423 252.681635 
L 129.381366 252.681635 
L 130.857309 252.681635 
L 132.333252 252.681635 
L 133.809195 252.681635 
L 135.285138 252.681635 
L 136.761082 252.681635 
L 138.237025 252.681635 
L 139.712968 252.681635 
L 141.188911 252.681635 
L 142.664854 252.681635 
L 144.140798 252.681635 
L 145.616741 252.681635 
L 147.092684 252.681635 
L 148.568627 252.681635 
L 150.04457 252.681635 
L 151.520513 252.681635 
L 152.996457 252.681635 
L 154.4724 252.681635 
L 155.948343 252.681635 
L 157.424286 252.681635 
L 158.900229 252.681635 
L 160.376173 252.681635 
L 161.852116 252.681635 
L 163.328059 252.681635 
L 164.804002 252.681635 
L 166.279945 252.681635 
L 167.755888 252.681635 
L 169.231832 252.681635 
L 170.707775 252.681635 
L 172.183718 252.681635 
L 173.659661 252.681635 
L 175.135604 252.681635 
L 176.611548 252.681635 
L 178.087491 252.681635 
L 179.563434 252.681635 
L 181.039377 252.681635 
L 182.51532 252.681635 
L 183.991263 252.681635 
L 185.467207 252.681635 
L 186.94315 252.681635 
L 188.419093 252.681635 
L 189.895036 252.681635 
L 191.370979 252.681635 
L 192.846923 252.681635 
L 194.322866 252.681635 
L 195.798809 252.681635 
L 197.274752 252.681635 
L 198.750695 252.681635 
L 200.226638 252.681635 
L 201.702582 252.681635 
L 203.178525 252.681635 
L 204.654468 252.681635 
L 206.130411 252.681635 
L 206.130411 252.675552 
L 206.130411 252.675552 
L 204.654468 252.660377 
L 203.178525 252.620653 
L 201.702582 252.537836 
L 200.226638 252.40203 
L 198.750695 252.23023 
L 197.274752 252.06763 
L 195.798809 251.957515 
L 194.322866 251.905177 
L 192.846923 251.880562 
L 191.370979 251.858282 
L 189.895036 251.840354 
L 188.419093 251.831444 
L 186.94315 251.803836 
L 185.467207 251.700927 
L 183.991263 251.479897 
L 182.51532 251.155816 
L 181.039377 250.808415 
L 179.563434 250.538644 
L 178.087491 250.39998 
L 176.611548 250.345668 
L 175.135604 250.218536 
L 173.659661 249.799891 
L 172.183718 248.918368 
L 170.707775 247.557608 
L 169.231832 245.86005 
L 167.755888 244.007714 
L 166.279945 242.09031 
L 164.804002 240.064716 
L 163.328059 237.786849 
L 161.852116 235.047478 
L 160.376173 231.599085 
L 158.900229 227.176609 
L 157.424286 221.485133 
L 155.948343 214.191706 
L 154.4724 205.054979 
L 152.996457 194.214559 
L 151.520513 182.3891 
L 150.04457 170.69825 
L 148.568627 160.180974 
L 147.092684 151.392233 
L 145.616741 144.317471 
L 144.140798 138.532577 
L 142.664854 133.485645 
L 141.188911 128.825591 
L 139.712968 124.610274 
L 138.237025 121.253552 
L 136.761082 119.341924 
L 135.285138 119.522903 
L 133.809195 122.376127 
L 132.333252 128.094827 
L 130.857309 136.183734 
L 129.381366 145.563657 
L 127.905423 155.073621 
L 126.429479 163.982595 
L 124.953536 172.22512 
L 123.477593 180.295585 
L 122.00165 188.812034 
L 120.525707 197.938873 
L 119.049763 207.109165 
L 117.57382 215.344461 
L 116.097877 221.908395 
L 114.621934 226.71209 
L 113.145991 230.206866 
L 111.670048 233.002965 
L 110.194104 235.564516 
L 108.718161 238.095958 
L 107.242218 240.558131 
L 105.766275 242.769029 
L 104.290332 244.5655 
L 102.814388 245.933848 
L 101.338445 247.008067 
L 99.862502 247.957466 
L 98.386559 248.881761 
L 96.910616 249.784008 
L 95.434673 250.599173 
L 93.958729 251.238663 
L 92.482786 251.63962 
L 91.006843 251.806777 
L 89.5309 251.816077 
L 88.054957 251.768545 
L 86.579013 251.733222 
L 85.10307 251.730906 
L 83.627127 251.761648 
L 82.151184 251.832338 
L 80.675241 251.953658 
L 79.199298 252.119688 
L 77.723354 252.300321 
L 76.247411 252.456119 
L 74.771468 252.559187 
L 73.295525 252.600841 
L 71.819582 252.585895 
L 70.343638 252.527971 
L 68.867695 252.452343 
L 67.391752 252.395059 
L 65.915809 252.387019 
L 64.439866 252.433203 
L 62.963923 252.509815 
L 61.487979 252.583787 
L 60.012036 252.634047 
L 58.536093 252.655787 
L 57.06015 252.650646 
L 55.584207 252.617974 
L 54.108263 252.557196 
L 52.63232 252.478732 
L 51.156377 252.409925 
L 49.680434 252.383314 
L 48.204491 252.413132 
L 46.728548 252.483531 
L 45.252604 252.561819 
L 43.776661 252.622231 
L 42.300718 252.657492 
L 40.824775 252.673591 
L 39.348832 252.679438 
L 37.872888 252.681143 
L 36.396945 252.681545 
L 34.921002 252.681621 
L 33.445059 252.681633 
L 31.969116 252.681635 
L 30.493173 252.681635 
L 29.017229 252.681635 
L 27.541286 252.681635 
L 26.065343 252.681635 
L 24.5894 252.681635 
L 23.113457 252.681635 
L 21.637513 252.681635 
L 20.16157 252.681635 
L 18.685627 252.681635 
L 17.209684 252.681635 
L 15.733741 252.681635 
L 14.257798 252.681635 
L 12.781854 252.681635 
L 11.305911 252.681635 
L 9.829968 252.681635 
L 8.354025 252.681635 
L 6.878082 252.681635 
L 5.402138 252.681635 
L 3.926195 252.681635 
L 2.450252 252.681635 
L 0.974309 252.681635 
L -0.501634 252.681635 
L -1.977577 252.681635 
L -3.453521 252.681635 
L -4.929464 252.681635 
L -6.405407 252.681635 
L -7.88135 252.681635 
L -9.357293 252.681635 
L -10.833237 252.681635 
L -12.30918 252.681635 
L -13.785123 252.681635 
L -15.261066 252.681635 
L -16.737009 252.681635 
L -18.212952 252.681635 
L -19.688896 252.681635 
L -21.164839 252.681635 
L -22.640782 252.681635 
L -24.116725 252.681635 
L -25.592668 252.681635 
L -27.068612 252.681635 
L -28.544555 252.681635 
L -30.020498 252.681635 
L -31.496441 252.681635 
L -32.972384 252.681635 
L -34.448327 252.681635 
L -35.924271 252.681635 
L -37.400214 252.681635 
L -38.876157 252.681635 
L -40.3521 252.681635 
L -41.828043 252.681635 
L -43.303986 252.681635 
L -44.77993 252.681635 
L -46.255873 252.681635 
L -47.731816 252.681635 
L -49.207759 252.681635 
L -50.683702 252.681635 
L -52.159646 252.681635 
L -53.635589 252.681635 
L -55.111532 252.681635 
L -56.587475 252.681635 
L -58.063418 252.681635 
L -59.539361 252.681635 
L -61.015305 252.681634 
L -62.491248 252.681627 
L -63.967191 252.681577 
L -65.443134 252.681302 
L -66.919077 252.680076 
L -68.395021 252.675645 
L -69.870964 252.662774 
L -71.346907 252.632948 
L -72.82285 252.578613 
L -74.298793 252.502935 
L -75.774736 252.427538 
L -77.25068 252.385457 
L -78.726623 252.398638 
L -80.202566 252.459974 
L -81.678509 252.539312 
L -83.154452 252.606725 
L -84.630396 252.649314 
L -86.106339 252.670204 
L -87.582282 252.678321 
z
" clip-path="url(#pb387f83b48)" style="fill: #d55e00; fill-opacity: 0.75; stroke: #d55e00; stroke-width: 1.5"/>
   </g>
   <g id="patch_3">
    <path d="M 16.36274 252.681635 
L 16.36274 6.799459 
" style="fill: none; stroke: #000000; stroke-width: 0.8; stroke-linejoin: miter; stroke-linecap: square"/>
   </g>
   <g id="patch_4">
    <path d="M 277.048198 252.681635 
L 277.048198 6.799459 
" style="fill: none; stroke: #000000; stroke-width: 0.8; stroke-linejoin: miter; stroke-linecap: square"/>
   </g>
   <g id="patch_5">
    <path d="M 16.36274 252.681635 
L 277.048198 252.681635 
" style="fill: none; stroke: #000000; stroke-width: 0.8; stroke-linejoin: miter; stroke-linecap: square"/>
   </g>
   <g id="patch_6">
    <path d="M 16.36274 6.799459 
L 277.048198 6.799459 
" style="fill: none; stroke: #000000; stroke-width: 0.8; stroke-linejoin: miter; stroke-linecap: square"/>
   </g>
   <g id="legend_1">
    <g id="patch_7">
     <path d="M 68.488125 55.362584 
L 224.922812 55.362584 
Q 227.522812 55.362584 227.522812 52.762584 
L 227.522812 15.899459 
Q 227.522812 13.299459 224.922812 13.299459 
L 68.488125 13.299459 
Q 65.888125 13.299459 65.888125 15.899459 
L 65.888125 52.762584 
Q 65.888125 55.362584 68.488125 55.362584 
z
" style="fill: #ffffff; opacity: 0.8; stroke: #cccccc; stroke-linejoin: miter"/>
    </g>
    <g id="patch_8">
     <path d="M 71.088125 28.377427 
L 97.088125 28.377427 
L 97.088125 19.277427 
L 71.088125 19.277427 
z
" style="fill: #0071b2; stroke: #0071b2; stroke-linejoin: miter"/>
    </g>
    <g id="text_16">
     <!-- multimodal acces -->
     <g transform="translate(107.488125 28.377427) scale(0.13 -0.13)">
      <defs>
       <path id="DejaVuSans-6d" d="M 3328 2828 
Q 3544 3216 3844 3400 
Q 4144 3584 4550 3584 
Q 5097 3584 5394 3201 
Q 5691 2819 5691 2113 
L 5691 0 
L 5113 0 
L 5113 2094 
Q 5113 2597 4934 2840 
Q 4756 3084 4391 3084 
Q 3944 3084 3684 2787 
Q 3425 2491 3425 1978 
L 3425 0 
L 2847 0 
L 2847 2094 
Q 2847 2600 2669 2842 
Q 2491 3084 2119 3084 
Q 1678 3084 1418 2786 
Q 1159 2488 1159 1978 
L 1159 0 
L 581 0 
L 581 3500 
L 1159 3500 
L 1159 2956 
Q 1356 3278 1631 3431 
Q 1906 3584 2284 3584 
Q 2666 3584 2933 3390 
Q 3200 3197 3328 2828 
z
" transform="scale(0.015625)"/>
       <path id="DejaVuSans-75" d="M 544 1381 
L 544 3500 
L 1119 3500 
L 1119 1403 
Q 1119 906 1312 657 
Q 1506 409 1894 409 
Q 2359 409 2629 706 
Q 2900 1003 2900 1516 
L 2900 3500 
L 3475 3500 
L 3475 0 
L 2900 0 
L 2900 538 
Q 2691 219 2414 64 
Q 2138 -91 1772 -91 
Q 1169 -91 856 284 
Q 544 659 544 1381 
z
M 1991 3584 
L 1991 3584 
z
" transform="scale(0.015625)"/>
       <path id="DejaVuSans-6c" d="M 603 4863 
L 1178 4863 
L 1178 0 
L 603 0 
L 603 4863 
z
" transform="scale(0.015625)"/>
       <path id="DejaVuSans-74" d="M 1172 4494 
L 1172 3500 
L 2356 3500 
L 2356 3053 
L 1172 3053 
L 1172 1153 
Q 1172 725 1289 603 
Q 1406 481 1766 481 
L 2356 481 
L 2356 0 
L 1766 0 
Q 1100 0 847 248 
Q 594 497 594 1153 
L 594 3053 
L 172 3053 
L 172 3500 
L 594 3500 
L 594 4494 
L 1172 4494 
z
" transform="scale(0.015625)"/>
       <path id="DejaVuSans-6f" d="M 1959 3097 
Q 1497 3097 1228 2736 
Q 959 2375 959 1747 
Q 959 1119 1226 758 
Q 1494 397 1959 397 
Q 2419 397 2687 759 
Q 2956 1122 2956 1747 
Q 2956 2369 2687 2733 
Q 2419 3097 1959 3097 
z
M 1959 3584 
Q 2709 3584 3137 3096 
Q 3566 2609 3566 1747 
Q 3566 888 3137 398 
Q 2709 -91 1959 -91 
Q 1206 -91 779 398 
Q 353 888 353 1747 
Q 353 2609 779 3096 
Q 1206 3584 1959 3584 
z
" transform="scale(0.015625)"/>
       <path id="DejaVuSans-64" d="M 2906 2969 
L 2906 4863 
L 3481 4863 
L 3481 0 
L 2906 0 
L 2906 525 
Q 2725 213 2448 61 
Q 2172 -91 1784 -91 
Q 1150 -91 751 415 
Q 353 922 353 1747 
Q 353 2572 751 3078 
Q 1150 3584 1784 3584 
Q 2172 3584 2448 3432 
Q 2725 3281 2906 2969 
z
M 947 1747 
Q 947 1113 1208 752 
Q 1469 391 1925 391 
Q 2381 391 2643 752 
Q 2906 1113 2906 1747 
Q 2906 2381 2643 2742 
Q 2381 3103 1925 3103 
Q 1469 3103 1208 2742 
Q 947 2381 947 1747 
z
" transform="scale(0.015625)"/>
       <path id="DejaVuSans-61" d="M 2194 1759 
Q 1497 1759 1228 1600 
Q 959 1441 959 1056 
Q 959 750 1161 570 
Q 1363 391 1709 391 
Q 2188 391 2477 730 
Q 2766 1069 2766 1631 
L 2766 1759 
L 2194 1759 
z
M 3341 1997 
L 3341 0 
L 2766 0 
L 2766 531 
Q 2569 213 2275 61 
Q 1981 -91 1556 -91 
Q 1019 -91 701 211 
Q 384 513 384 1019 
Q 384 1609 779 1909 
Q 1175 2209 1959 2209 
L 2766 2209 
L 2766 2266 
Q 2766 2663 2505 2880 
Q 2244 3097 1772 3097 
Q 1472 3097 1187 3025 
Q 903 2953 641 2809 
L 641 3341 
Q 956 3463 1253 3523 
Q 1550 3584 1831 3584 
Q 2591 3584 2966 3190 
Q 3341 2797 3341 1997 
z
" transform="scale(0.015625)"/>
       <path id="DejaVuSans-63" d="M 3122 3366 
L 3122 2828 
Q 2878 2963 2633 3030 
Q 2388 3097 2138 3097 
Q 1578 3097 1268 2742 
Q 959 2388 959 1747 
Q 959 1106 1268 751 
Q 1578 397 2138 397 
Q 2388 397 2633 464 
Q 2878 531 3122 666 
L 3122 134 
Q 2881 22 2623 -34 
Q 2366 -91 2075 -91 
Q 1284 -91 818 406 
Q 353 903 353 1747 
Q 353 2603 823 3093 
Q 1294 3584 2113 3584 
Q 2378 3584 2631 3529 
Q 2884 3475 3122 3366 
z
" transform="scale(0.015625)"/>
       <path id="DejaVuSans-65" d="M 3597 1894 
L 3597 1613 
L 953 1613 
Q 991 1019 1311 708 
Q 1631 397 2203 397 
Q 2534 397 2845 478 
Q 3156 559 3463 722 
L 3463 178 
Q 3153 47 2828 -22 
Q 2503 -91 2169 -91 
Q 1331 -91 842 396 
Q 353 884 353 1716 
Q 353 2575 817 3079 
Q 1281 3584 2069 3584 
Q 2775 3584 3186 3129 
Q 3597 2675 3597 1894 
z
M 3022 2063 
Q 3016 2534 2758 2815 
Q 2500 3097 2075 3097 
Q 1594 3097 1305 2825 
Q 1016 2553 972 2059 
L 3022 2063 
z
" transform="scale(0.015625)"/>
       <path id="DejaVuSans-73" d="M 2834 3397 
L 2834 2853 
Q 2591 2978 2328 3040 
Q 2066 3103 1784 3103 
Q 1356 3103 1142 2972 
Q 928 2841 928 2578 
Q 928 2378 1081 2264 
Q 1234 2150 1697 2047 
L 1894 2003 
Q 2506 1872 2764 1633 
Q 3022 1394 3022 966 
Q 3022 478 2636 193 
Q 2250 -91 1575 -91 
Q 1294 -91 989 -36 
Q 684 19 347 128 
L 347 722 
Q 666 556 975 473 
Q 1284 391 1588 391 
Q 1994 391 2212 530 
Q 2431 669 2431 922 
Q 2431 1156 2273 1281 
Q 2116 1406 1581 1522 
L 1381 1569 
Q 847 1681 609 1914 
Q 372 2147 372 2553 
Q 372 3047 722 3315 
Q 1072 3584 1716 3584 
Q 2034 3584 2315 3537 
Q 2597 3491 2834 3397 
z
" transform="scale(0.015625)"/>
      </defs>
      <use xlink:href="#DejaVuSans-6d"/>
      <use xlink:href="#DejaVuSans-75" transform="translate(97.412109 0)"/>
      <use xlink:href="#DejaVuSans-6c" transform="translate(160.791016 0)"/>
      <use xlink:href="#DejaVuSans-74" transform="translate(188.574219 0)"/>
      <use xlink:href="#DejaVuSans-69" transform="translate(227.783203 0)"/>
      <use xlink:href="#DejaVuSans-6d" transform="translate(255.566406 0)"/>
      <use xlink:href="#DejaVuSans-6f" transform="translate(352.978516 0)"/>
      <use xlink:href="#DejaVuSans-64" transform="translate(414.160156 0)"/>
      <use xlink:href="#DejaVuSans-61" transform="translate(477.636719 0)"/>
      <use xlink:href="#DejaVuSans-6c" transform="translate(538.916016 0)"/>
      <use xlink:href="#DejaVuSans-20" transform="translate(566.699219 0)"/>
      <use xlink:href="#DejaVuSans-61" transform="translate(598.486328 0)"/>
      <use xlink:href="#DejaVuSans-63" transform="translate(659.765625 0)"/>
      <use xlink:href="#DejaVuSans-63" transform="translate(714.746094 0)"/>
      <use xlink:href="#DejaVuSans-65" transform="translate(769.726562 0)"/>
      <use xlink:href="#DejaVuSans-73" transform="translate(831.25 0)"/>
     </g>
    </g>
    <g id="patch_9">
     <path d="M 71.088125 47.45899 
L 97.088125 47.45899 
L 97.088125 38.35899 
L 71.088125 38.35899 
z
" style="fill: #d55e00; stroke: #d55e00; stroke-linejoin: miter"/>
    </g>
    <g id="text_17">
     <!-- walking access -->
     <g transform="translate(107.488125 47.45899) scale(0.13 -0.13)">
      <defs>
       <path id="DejaVuSans-77" d="M 269 3500 
L 844 3500 
L 1563 769 
L 2278 3500 
L 2956 3500 
L 3675 769 
L 4391 3500 
L 4966 3500 
L 4050 0 
L 3372 0 
L 2619 2869 
L 1863 0 
L 1184 0 
L 269 3500 
z
" transform="scale(0.015625)"/>
       <path id="DejaVuSans-6b" d="M 581 4863 
L 1159 4863 
L 1159 1991 
L 2875 3500 
L 3609 3500 
L 1753 1863 
L 3688 0 
L 2938 0 
L 1159 1709 
L 1159 0 
L 581 0 
L 581 4863 
z
" transform="scale(0.015625)"/>
       <path id="DejaVuSans-67" d="M 2906 1791 
Q 2906 2416 2648 2759 
Q 2391 3103 1925 3103 
Q 1463 3103 1205 2759 
Q 947 2416 947 1791 
Q 947 1169 1205 825 
Q 1463 481 1925 481 
Q 2391 481 2648 825 
Q 2906 1169 2906 1791 
z
M 3481 434 
Q 3481 -459 3084 -895 
Q 2688 -1331 1869 -1331 
Q 1566 -1331 1297 -1286 
Q 1028 -1241 775 -1147 
L 775 -588 
Q 1028 -725 1275 -790 
Q 1522 -856 1778 -856 
Q 2344 -856 2625 -561 
Q 2906 -266 2906 331 
L 2906 616 
Q 2728 306 2450 153 
Q 2172 0 1784 0 
Q 1141 0 747 490 
Q 353 981 353 1791 
Q 353 2603 747 3093 
Q 1141 3584 1784 3584 
Q 2172 3584 2450 3431 
Q 2728 3278 2906 2969 
L 2906 3500 
L 3481 3500 
L 3481 434 
z
" transform="scale(0.015625)"/>
      </defs>
      <use xlink:href="#DejaVuSans-77"/>
      <use xlink:href="#DejaVuSans-61" transform="translate(81.787109 0)"/>
      <use xlink:href="#DejaVuSans-6c" transform="translate(143.066406 0)"/>
      <use xlink:href="#DejaVuSans-6b" transform="translate(170.849609 0)"/>
      <use xlink:href="#DejaVuSans-69" transform="translate(228.759766 0)"/>
      <use xlink:href="#DejaVuSans-6e" transform="translate(256.542969 0)"/>
      <use xlink:href="#DejaVuSans-67" transform="translate(319.921875 0)"/>
      <use xlink:href="#DejaVuSans-20" transform="translate(383.398438 0)"/>
      <use xlink:href="#DejaVuSans-61" transform="translate(415.185547 0)"/>
      <use xlink:href="#DejaVuSans-63" transform="translate(476.464844 0)"/>
      <use xlink:href="#DejaVuSans-63" transform="translate(531.445312 0)"/>
      <use xlink:href="#DejaVuSans-65" transform="translate(586.425781 0)"/>
      <use xlink:href="#DejaVuSans-73" transform="translate(647.949219 0)"/>
      <use xlink:href="#DejaVuSans-73" transform="translate(700.048828 0)"/>
     </g>
    </g>
   </g>
  </g>
 </g>
 <defs>
  <clipPath id="pb387f83b48">
   <rect x="16.36274" y="6.799459" width="260.685457" height="245.882176"/>
  </clipPath>
 </defs>
</svg>
