<?xml version="1.0" encoding="utf-8" standalone="no"?>
<!DOCTYPE svg PUBLIC "-//W3C//DTD SVG 1.1//EN"
  "http://www.w3.org/Graphics/SVG/1.1/DTD/svg11.dtd">
<svg xmlns:xlink="http://www.w3.org/1999/xlink" width="288pt" height="288pt" viewBox="0 0 288 288" xmlns="http://www.w3.org/2000/svg" version="1.1">
 <metadata>
  <rdf:RDF xmlns:dc="http://purl.org/dc/elements/1.1/" xmlns:cc="http://creativecommons.org/ns#" xmlns:rdf="http://www.w3.org/1999/02/22-rdf-syntax-ns#">
   <cc:Work>
    <dc:type rdf:resource="http://purl.org/dc/dcmitype/StillImage"/>
    <dc:format>image/svg+xml</dc:format>
    <dc:creator>
     <cc:Agent>
      <dc:title>Gergő Pintér</dc:title>
     </cc:Agent>
    </dc:creator>
    <dc:rights>
     <cc:Agent>
      <dc:title>CC BY 4.0</dc:title>
     </cc:Agent>
    </dc:rights>
   </cc:Work>
  </rdf:RDF>
 </metadata>
 <defs>
  <style type="text/css">*{stroke-linejoin: round; stroke-linecap: butt}</style>
 </defs>
 <g id="figure_1">
  <g id="patch_1">
   <path d="M 0 288 
L 288 288 
L 288 0 
L 0 0 
z
" style="fill: #ffffff"/>
  </g>
  <g id="axes_1">
   <g id="patch_2">
    <path d="M 16.36274 252.681635 
L 277.048198 252.681635 
L 277.048198 6.799459 
L 16.36274 6.799459 
z
" style="fill: #ffffff"/>
   </g>
   <g id="matplotlib.axis_1">
    <g id="xtick_1">
     <g id="line2d_1">
      <path d="M 33.741771 252.681635 
L 33.741771 6.799459 
" clip-path="url(#pb387f83b48)" style="fill: none; stroke: #e7e7e7; stroke-width: 0.8; stroke-linecap: square"/>
     </g>
     <g id="line2d_2">
      <defs>
       <path id="mbcb02aef95" d="M 0 0 
L 0 3.5 
" style="stroke: #000000; stroke-width: 0.8"/>
      </defs>
      <g>
       <use xlink:href="#mbcb02aef95" x="33.741771" y="252.681635" style="stroke: #000000; stroke-width: 0.8"/>
      </g>
     </g>
     <g id="text_1">
      <!-- −1.4 -->
      <g transform="translate(21.600364 267.280073) scale(0.1 -0.1)">
       <defs>
        <path id="DejaVuSans-2212" d="M 678 2272 
L 4684 2272 
L 4684 1741 
L 678 1741 
L 678 2272 
z
" transform="scale(0.015625)"/>
        <path id="DejaVuSans-31" d="M 794 531 
L 1825 531 
L 1825 4091 
L 703 3866 
L 703 4441 
L 1819 4666 
L 2450 4666 
L 2450 531 
L 3481 531 
L 3481 0 
L 794 0 
L 794 531 
z
" transform="scale(0.015625)"/>
        <path id="DejaVuSans-2e" d="M 684 794 
L 1344 794 
L 1344 0 
L 684 0 
L 684 794 
z
" transform="scale(0.015625)"/>
        <path id="DejaVuSans-34" d="M 2419 4116 
L 825 1625 
L 2419 1625 
L 2419 4116 
z
M 2253 4666 
L 3047 4666 
L 3047 1625 
L 3713 1625 
L 3713 1100 
L 3047 1100 
L 3047 0 
L 2419 0 
L 2419 1100 
L 313 1100 
L 313 1709 
L 2253 4666 
z
" transform="scale(0.015625)"/>
       </defs>
       <use xlink:href="#DejaVuSans-2212"/>
       <use xlink:href="#DejaVuSans-31" transform="translate(83.789062 0)"/>
       <use xlink:href="#DejaVuSans-2e" transform="translate(147.412109 0)"/>
       <use xlink:href="#DejaVuSans-34" transform="translate(179.199219 0)"/>
      </g>
     </g>
    </g>
    <g id="xtick_2">
     <g id="line2d_3">
      <path d="M 68.499831 252.681635 
L 68.499831 6.799459 
" clip-path="url(#pb387f83b48)" style="fill: none; stroke: #e7e7e7; stroke-width: 0.8; stroke-linecap: square"/>
     </g>
     <g id="line2d_4">
      <g>
       <use xlink:href="#mbcb02aef95" x="68.499831" y="252.681635" style="stroke: #000000; stroke-width: 0.8"/>
      </g>
     </g>
     <g id="text_2">
      <!-- −1.2 -->
      <g transform="translate(56.358425 267.280073) scale(0.1 -0.1)">
       <defs>
        <path id="DejaVuSans-32" d="M 1228 531 
L 3431 531 
L 3431 0 
L 469 0 
L 469 531 
Q 828 903 1448 1529 
Q 2069 2156 2228 2338 
Q 2531 2678 2651 2914 
Q 2772 3150 2772 3378 
Q 2772 3750 2511 3984 
Q 2250 4219 1831 4219 
Q 1534 4219 1204 4116 
Q 875 4013 500 3803 
L 500 4441 
Q 881 4594 1212 4672 
Q 1544 4750 1819 4750 
Q 2544 4750 2975 4387 
Q 3406 4025 3406 3419 
Q 3406 3131 3298 2873 
Q 3191 2616 2906 2266 
Q 2828 2175 2409 1742 
Q 1991 1309 1228 531 
z
" transform="scale(0.015625)"/>
       </defs>
       <use xlink:href="#DejaVuSans-2212"/>
       <use xlink:href="#DejaVuSans-31" transform="translate(83.789062 0)"/>
       <use xlink:href="#DejaVuSans-2e" transform="translate(147.412109 0)"/>
       <use xlink:href="#DejaVuSans-32" transform="translate(179.199219 0)"/>
      </g>
     </g>
    </g>
    <g id="xtick_3">
     <g id="line2d_5">
      <path d="M 103.257893 252.681635 
L 103.257893 6.799459 
" clip-path="url(#pb387f83b48)" style="fill: none; stroke: #e7e7e7; stroke-width: 0.8; stroke-linecap: square"/>
     </g>
     <g id="line2d_6">
      <g>
       <use xlink:href="#mbcb02aef95" x="103.257893" y="252.681635" style="stroke: #000000; stroke-width: 0.8"/>
      </g>
     </g>
     <g id="text_3">
      <!-- −1.0 -->
      <g transform="translate(91.116486 267.280073) scale(0.1 -0.1)">
       <defs>
        <path id="DejaVuSans-30" d="M 2034 4250 
Q 1547 4250 1301 3770 
Q 1056 3291 1056 2328 
Q 1056 1369 1301 889 
Q 1547 409 2034 409 
Q 2525 409 2770 889 
Q 3016 1369 3016 2328 
Q 3016 3291 2770 3770 
Q 2525 4250 2034 4250 
z
M 2034 4750 
Q 2819 4750 3233 4129 
Q 3647 3509 3647 2328 
Q 3647 1150 3233 529 
Q 2819 -91 2034 -91 
Q 1250 -91 836 529 
Q 422 1150 422 2328 
Q 422 3509 836 4129 
Q 1250 4750 2034 4750 
z
" transform="scale(0.015625)"/>
       </defs>
       <use xlink:href="#DejaVuSans-2212"/>
       <use xlink:href="#DejaVuSans-31" transform="translate(83.789062 0)"/>
       <use xlink:href="#DejaVuSans-2e" transform="translate(147.412109 0)"/>
       <use xlink:href="#DejaVuSans-30" transform="translate(179.199219 0)"/>
      </g>
     </g>
    </g>
    <g id="xtick_4">
     <g id="line2d_7">
      <path d="M 138.015954 252.681635 
L 138.015954 6.799459 
" clip-path="url(#pb387f83b48)" style="fill: none; stroke: #e7e7e7; stroke-width: 0.8; stroke-linecap: square"/>
     </g>
     <g id="line2d_8">
      <g>
       <use xlink:href="#mbcb02aef95" x="138.015954" y="252.681635" style="stroke: #000000; stroke-width: 0.8"/>
      </g>
     </g>
     <g id="text_4">
      <!-- −0.8 -->
      <g transform="translate(125.874547 267.280073) scale(0.1 -0.1)">
       <defs>
        <path id="DejaVuSans-38" d="M 2034 2216 
Q 1584 2216 1326 1975 
Q 1069 1734 1069 1313 
Q 1069 891 1326 650 
Q 1584 409 2034 409 
Q 2484 409 2743 651 
Q 3003 894 3003 1313 
Q 3003 1734 2745 1975 
Q 2488 2216 2034 2216 
z
M 1403 2484 
Q 997 2584 770 2862 
Q 544 3141 544 3541 
Q 544 4100 942 4425 
Q 1341 4750 2034 4750 
Q 2731 4750 3128 4425 
Q 3525 4100 3525 3541 
Q 3525 3141 3298 2862 
Q 3072 2584 2669 2484 
Q 3125 2378 3379 2068 
Q 3634 1759 3634 1313 
Q 3634 634 3220 271 
Q 2806 -91 2034 -91 
Q 1263 -91 848 271 
Q 434 634 434 1313 
Q 434 1759 690 2068 
Q 947 2378 1403 2484 
z
M 1172 3481 
Q 1172 3119 1398 2916 
Q 1625 2713 2034 2713 
Q 2441 2713 2670 2916 
Q 2900 3119 2900 3481 
Q 2900 3844 2670 4047 
Q 2441 4250 2034 4250 
Q 1625 4250 1398 4047 
Q 1172 3844 1172 3481 
z
" transform="scale(0.015625)"/>
       </defs>
       <use xlink:href="#DejaVuSans-2212"/>
       <use xlink:href="#DejaVuSans-30" transform="translate(83.789062 0)"/>
       <use xlink:href="#DejaVuSans-2e" transform="translate(147.412109 0)"/>
       <use xlink:href="#DejaVuSans-38" transform="translate(179.199219 0)"/>
      </g>
     </g>
    </g>
    <g id="xtick_5">
     <g id="line2d_9">
      <path d="M 172.774015 252.681635 
L 172.774015 6.799459 
" clip-path="url(#pb387f83b48)" style="fill: none; stroke: #e7e7e7; stroke-width: 0.8; stroke-linecap: square"/>
     </g>
     <g id="line2d_10">
      <g>
       <use xlink:href="#mbcb02aef95" x="172.774015" y="252.681635" style="stroke: #000000; stroke-width: 0.8"/>
      </g>
     </g>
     <g id="text_5">
      <!-- −0.6 -->
      <g transform="translate(160.632608 267.280073) scale(0.1 -0.1)">
       <defs>
        <path id="DejaVuSans-36" d="M 2113 2584 
Q 1688 2584 1439 2293 
Q 1191 2003 1191 1497 
Q 1191 994 1439 701 
Q 1688 409 2113 409 
Q 2538 409 2786 701 
Q 3034 994 3034 1497 
Q 3034 2003 2786 2293 
Q 2538 2584 2113 2584 
z
M 3366 4563 
L 3366 3988 
Q 3128 4100 2886 4159 
Q 2644 4219 2406 4219 
Q 1781 4219 1451 3797 
Q 1122 3375 1075 2522 
Q 1259 2794 1537 2939 
Q 1816 3084 2150 3084 
Q 2853 3084 3261 2657 
Q 3669 2231 3669 1497 
Q 3669 778 3244 343 
Q 2819 -91 2113 -91 
Q 1303 -91 875 529 
Q 447 1150 447 2328 
Q 447 3434 972 4092 
Q 1497 4750 2381 4750 
Q 2619 4750 2861 4703 
Q 3103 4656 3366 4563 
z
" transform="scale(0.015625)"/>
       </defs>
       <use xlink:href="#DejaVuSans-2212"/>
       <use xlink:href="#DejaVuSans-30" transform="translate(83.789062 0)"/>
       <use xlink:href="#DejaVuSans-2e" transform="translate(147.412109 0)"/>
       <use xlink:href="#DejaVuSans-36" transform="translate(179.199219 0)"/>
      </g>
     </g>
    </g>
    <g id="xtick_6">
     <g id="line2d_11">
      <path d="M 207.532076 252.681635 
L 207.532076 6.799459 
" clip-path="url(#pb387f83b48)" style="fill: none; stroke: #e7e7e7; stroke-width: 0.8; stroke-linecap: square"/>
     </g>
     <g id="line2d_12">
      <g>
       <use xlink:href="#mbcb02aef95" x="207.532076" y="252.681635" style="stroke: #000000; stroke-width: 0.8"/>
      </g>
     </g>
     <g id="text_6">
      <!-- −0.4 -->
      <g transform="translate(195.390669 267.280073) scale(0.1 -0.1)">
       <use xlink:href="#DejaVuSans-2212"/>
       <use xlink:href="#DejaVuSans-30" transform="translate(83.789062 0)"/>
       <use xlink:href="#DejaVuSans-2e" transform="translate(147.412109 0)"/>
       <use xlink:href="#DejaVuSans-34" transform="translate(179.199219 0)"/>
      </g>
     </g>
    </g>
    <g id="xtick_7">
     <g id="line2d_13">
      <path d="M 242.290137 252.681635 
L 242.290137 6.799459 
" clip-path="url(#pb387f83b48)" style="fill: none; stroke: #e7e7e7; stroke-width: 0.8; stroke-linecap: square"/>
     </g>
     <g id="line2d_14">
      <g>
       <use xlink:href="#mbcb02aef95" x="242.290137" y="252.681635" style="stroke: #000000; stroke-width: 0.8"/>
      </g>
     </g>
     <g id="text_7">
      <!-- −0.2 -->
      <g transform="translate(230.14873 267.280073) scale(0.1 -0.1)">
       <use xlink:href="#DejaVuSans-2212"/>
       <use xlink:href="#DejaVuSans-30" transform="translate(83.789062 0)"/>
       <use xlink:href="#DejaVuSans-2e" transform="translate(147.412109 0)"/>
       <use xlink:href="#DejaVuSans-32" transform="translate(179.199219 0)"/>
      </g>
     </g>
    </g>
    <g id="xtick_8">
     <g id="line2d_15">
      <path d="M 277.048198 252.681635 
L 277.048198 6.799459 
" clip-path="url(#pb387f83b48)" style="fill: none; stroke: #e7e7e7; stroke-width: 0.8; stroke-linecap: square"/>
     </g>
     <g id="line2d_16">
      <g>
       <use xlink:href="#mbcb02aef95" x="277.048198" y="252.681635" style="stroke: #000000; stroke-width: 0.8"/>
      </g>
     </g>
     <g id="text_8">
      <!-- 0.0 -->
      <g transform="translate(269.096635 267.280073) scale(0.1 -0.1)">
       <use xlink:href="#DejaVuSans-30"/>
       <use xlink:href="#DejaVuSans-2e" transform="translate(63.623047 0)"/>
       <use xlink:href="#DejaVuSans-30" transform="translate(95.410156 0)"/>
      </g>
     </g>
    </g>
    <g id="text_9">
     <!-- $log_{10}$ Gini -->
     <g transform="translate(118.325469 282.47976) scale(0.12 -0.12)">
      <defs>
       <path id="DejaVuSans-Oblique-6c" d="M 1172 4863 
L 1747 4863 
L 800 0 
L 225 0 
L 1172 4863 
z
" transform="scale(0.015625)"/>
       <path id="DejaVuSans-Oblique-6f" d="M 1625 -91 
Q 1009 -91 651 289 
Q 294 669 294 1325 
Q 294 1706 417 2101 
Q 541 2497 738 2766 
Q 1047 3184 1428 3384 
Q 1809 3584 2291 3584 
Q 2888 3584 3255 3212 
Q 3622 2841 3622 2241 
Q 3622 1825 3500 1412 
Q 3378 1000 3181 728 
Q 2875 309 2494 109 
Q 2113 -91 1625 -91 
z
M 891 1344 
Q 891 869 1089 633 
Q 1288 397 1691 397 
Q 2269 397 2648 901 
Q 3028 1406 3028 2181 
Q 3028 2634 2825 2865 
Q 2622 3097 2228 3097 
Q 1903 3097 1650 2945 
Q 1397 2794 1197 2484 
Q 1050 2253 970 1956 
Q 891 1659 891 1344 
z
" transform="scale(0.015625)"/>
       <path id="DejaVuSans-Oblique-67" d="M 3816 3500 
L 3219 434 
Q 3047 -456 2561 -893 
Q 2075 -1331 1253 -1331 
Q 950 -1331 690 -1286 
Q 431 -1241 206 -1147 
L 313 -588 
Q 525 -725 762 -790 
Q 1000 -856 1269 -856 
Q 1816 -856 2167 -557 
Q 2519 -259 2631 300 
L 2681 563 
Q 2441 288 2122 144 
Q 1803 0 1434 0 
Q 903 0 598 351 
Q 294 703 294 1319 
Q 294 1803 478 2267 
Q 663 2731 997 3091 
Q 1219 3328 1514 3456 
Q 1809 3584 2131 3584 
Q 2484 3584 2746 3420 
Q 3009 3256 3138 2956 
L 3238 3500 
L 3816 3500 
z
M 2950 2216 
Q 2950 2641 2750 2872 
Q 2550 3103 2181 3103 
Q 1953 3103 1747 3012 
Q 1541 2922 1394 2759 
Q 1156 2491 1023 2127 
Q 891 1763 891 1375 
Q 891 944 1092 712 
Q 1294 481 1672 481 
Q 2219 481 2584 976 
Q 2950 1472 2950 2216 
z
" transform="scale(0.015625)"/>
       <path id="DejaVuSans-20" transform="scale(0.015625)"/>
       <path id="DejaVuSans-47" d="M 3809 666 
L 3809 1919 
L 2778 1919 
L 2778 2438 
L 4434 2438 
L 4434 434 
Q 4069 175 3628 42 
Q 3188 -91 2688 -91 
Q 1594 -91 976 548 
Q 359 1188 359 2328 
Q 359 3472 976 4111 
Q 1594 4750 2688 4750 
Q 3144 4750 3555 4637 
Q 3966 4525 4313 4306 
L 4313 3634 
Q 3963 3931 3569 4081 
Q 3175 4231 2741 4231 
Q 1884 4231 1454 3753 
Q 1025 3275 1025 2328 
Q 1025 1384 1454 906 
Q 1884 428 2741 428 
Q 3075 428 3337 486 
Q 3600 544 3809 666 
z
" transform="scale(0.015625)"/>
       <path id="DejaVuSans-69" d="M 603 3500 
L 1178 3500 
L 1178 0 
L 603 0 
L 603 3500 
z
M 603 4863 
L 1178 4863 
L 1178 4134 
L 603 4134 
L 603 4863 
z
" transform="scale(0.015625)"/>
       <path id="DejaVuSans-6e" d="M 3513 2113 
L 3513 0 
L 2938 0 
L 2938 2094 
Q 2938 2591 2744 2837 
Q 2550 3084 2163 3084 
Q 1697 3084 1428 2787 
Q 1159 2491 1159 1978 
L 1159 0 
L 581 0 
L 581 3500 
L 1159 3500 
L 1159 2956 
Q 1366 3272 1645 3428 
Q 1925 3584 2291 3584 
Q 2894 3584 3203 3211 
Q 3513 2838 3513 2113 
z
" transform="scale(0.015625)"/>
      </defs>
      <use xlink:href="#DejaVuSans-Oblique-6c" transform="translate(0 0.015625)"/>
      <use xlink:href="#DejaVuSans-Oblique-6f" transform="translate(27.783203 0.015625)"/>
      <use xlink:href="#DejaVuSans-Oblique-67" transform="translate(88.964844 0.015625)"/>
      <use xlink:href="#DejaVuSans-31" transform="translate(152.441406 -16.390625) scale(0.7)"/>
      <use xlink:href="#DejaVuSans-30" transform="translate(196.977539 -16.390625) scale(0.7)"/>
      <use xlink:href="#DejaVuSans-20" transform="translate(244.248047 0.015625)"/>
      <use xlink:href="#DejaVuSans-47" transform="translate(276.035156 0.015625)"/>
      <use xlink:href="#DejaVuSans-69" transform="translate(353.525391 0.015625)"/>
      <use xlink:href="#DejaVuSans-6e" transform="translate(381.308594 0.015625)"/>
      <use xlink:href="#DejaVuSans-69" transform="translate(444.6875 0.015625)"/>
     </g>
    </g>
   </g>
   <g id="matplotlib.axis_2">
    <g id="ytick_1">
     <g id="line2d_17">
      <path d="M 16.36274 252.681635 
L 277.048198 252.681635 
" clip-path="url(#pb387f83b48)" style="fill: none; stroke: #e7e7e7; stroke-width: 0.8; stroke-linecap: square"/>
     </g>
     <g id="line2d_18">
      <defs>
       <path id="me5179b328b" d="M 0 0 
L -3.5 0 
" style="stroke: #000000; stroke-width: 0.8"/>
      </defs>
      <g>
       <use xlink:href="#me5179b328b" x="16.36274" y="252.681635" style="stroke: #000000; stroke-width: 0.8"/>
      </g>
     </g>
     <g id="text_10">
      <!-- 0 -->
      <g transform="translate(3.00024 256.480854) scale(0.1 -0.1)">
       <use xlink:href="#DejaVuSans-30"/>
      </g>
     </g>
    </g>
    <g id="ytick_2">
     <g id="line2d_19">
      <path d="M 16.36274 203.5052 
L 277.048198 203.5052 
" clip-path="url(#pb387f83b48)" style="fill: none; stroke: #e7e7e7; stroke-width: 0.8; stroke-linecap: square"/>
     </g>
     <g id="line2d_20">
      <g>
       <use xlink:href="#me5179b328b" x="16.36274" y="203.5052" style="stroke: #000000; stroke-width: 0.8"/>
      </g>
     </g>
     <g id="text_11">
      <!-- 1 -->
      <g transform="translate(3.00024 207.304418) scale(0.1 -0.1)">
       <use xlink:href="#DejaVuSans-31"/>
      </g>
     </g>
    </g>
    <g id="ytick_3">
     <g id="line2d_21">
      <path d="M 16.36274 154.328764 
L 277.048198 154.328764 
" clip-path="url(#pb387f83b48)" style="fill: none; stroke: #e7e7e7; stroke-width: 0.8; stroke-linecap: square"/>
     </g>
     <g id="line2d_22">
      <g>
       <use xlink:href="#me5179b328b" x="16.36274" y="154.328764" style="stroke: #000000; stroke-width: 0.8"/>
      </g>
     </g>
     <g id="text_12">
      <!-- 2 -->
      <g transform="translate(3.00024 158.127983) scale(0.1 -0.1)">
       <use xlink:href="#DejaVuSans-32"/>
      </g>
     </g>
    </g>
    <g id="ytick_4">
     <g id="line2d_23">
      <path d="M 16.36274 105.152329 
L 277.048198 105.152329 
" clip-path="url(#pb387f83b48)" style="fill: none; stroke: #e7e7e7; stroke-width: 0.8; stroke-linecap: square"/>
     </g>
     <g id="line2d_24">
      <g>
       <use xlink:href="#me5179b328b" x="16.36274" y="105.152329" style="stroke: #000000; stroke-width: 0.8"/>
      </g>
     </g>
     <g id="text_13">
      <!-- 3 -->
      <g transform="translate(3.00024 108.951548) scale(0.1 -0.1)">
       <defs>
        <path id="DejaVuSans-33" d="M 2597 2516 
Q 3050 2419 3304 2112 
Q 3559 1806 3559 1356 
Q 3559 666 3084 287 
Q 2609 -91 1734 -91 
Q 1441 -91 1130 -33 
Q 819 25 488 141 
L 488 750 
Q 750 597 1062 519 
Q 1375 441 1716 441 
Q 2309 441 2620 675 
Q 2931 909 2931 1356 
Q 2931 1769 2642 2001 
Q 2353 2234 1838 2234 
L 1294 2234 
L 1294 2753 
L 1863 2753 
Q 2328 2753 2575 2939 
Q 2822 3125 2822 3475 
Q 2822 3834 2567 4026 
Q 2313 4219 1838 4219 
Q 1578 4219 1281 4162 
Q 984 4106 628 3988 
L 628 4550 
Q 988 4650 1302 4700 
Q 1616 4750 1894 4750 
Q 2613 4750 3031 4423 
Q 3450 4097 3450 3541 
Q 3450 3153 3228 2886 
Q 3006 2619 2597 2516 
z
" transform="scale(0.015625)"/>
       </defs>
       <use xlink:href="#DejaVuSans-33"/>
      </g>
     </g>
    </g>
    <g id="ytick_5">
     <g id="line2d_25">
      <path d="M 16.36274 55.975894 
L 277.048198 55.975894 
" clip-path="url(#pb387f83b48)" style="fill: none; stroke: #e7e7e7; stroke-width: 0.8; stroke-linecap: square"/>
     </g>
     <g id="line2d_26">
      <g>
       <use xlink:href="#me5179b328b" x="16.36274" y="55.975894" style="stroke: #000000; stroke-width: 0.8"/>
      </g>
     </g>
     <g id="text_14">
      <!-- 4 -->
      <g transform="translate(3.00024 59.775113) scale(0.1 -0.1)">
       <use xlink:href="#DejaVuSans-34"/>
      </g>
     </g>
    </g>
    <g id="ytick_6">
     <g id="line2d_27">
      <path d="M 16.36274 6.799459 
L 277.048198 6.799459 
" clip-path="url(#pb387f83b48)" style="fill: none; stroke: #e7e7e7; stroke-width: 0.8; stroke-linecap: square"/>
     </g>
     <g id="line2d_28">
      <g>
       <use xlink:href="#me5179b328b" x="16.36274" y="6.799459" style="stroke: #000000; stroke-width: 0.8"/>
      </g>
     </g>
     <g id="text_15">
      <!-- 5 -->
      <g transform="translate(3.00024 10.598678) scale(0.1 -0.1)">
       <defs>
        <path id="DejaVuSans-35" d="M 691 4666 
L 3169 4666 
L 3169 4134 
L 1269 4134 
L 1269 2991 
Q 1406 3038 1543 3061 
Q 1681 3084 1819 3084 
Q 2600 3084 3056 2656 
Q 3513 2228 3513 1497 
Q 3513 744 3044 326 
Q 2575 -91 1722 -91 
Q 1428 -91 1123 -41 
Q 819 9 494 109 
L 494 744 
Q 775 591 1075 516 
Q 1375 441 1709 441 
Q 2250 441 2565 725 
Q 2881 1009 2881 1497 
Q 2881 1984 2565 2268 
Q 2250 2553 1709 2553 
Q 1456 2553 1204 2497 
Q 953 2441 691 2322 
L 691 4666 
z
" transform="scale(0.015625)"/>
       </defs>
       <use xlink:href="#DejaVuSans-35"/>
      </g>
     </g>
    </g>
   </g>
   <g id="FillBetweenPolyCollection_1">
    <defs>
     <path id="mb897f96a9c" d="M 66.02994 -35.323989 
L 66.02994 -35.318365 
L 66.639321 -35.318365 
L 67.248703 -35.318365 
L 67.858084 -35.318365 
L 68.467466 -35.318365 
L 69.076847 -35.318365 
L 69.686229 -35.318365 
L 70.29561 -35.318365 
L 70.904992 -35.318365 
L 71.514373 -35.318365 
L 72.123755 -35.318365 
L 72.733136 -35.318365 
L 73.342518 -35.318365 
L 73.951899 -35.318365 
L 74.561281 -35.318365 
L 75.170662 -35.318365 
L 75.780044 -35.318365 
L 76.389425 -35.318365 
L 76.998807 -35.318365 
L 77.608188 -35.318365 
L 78.21757 -35.318365 
L 78.826951 -35.318365 
L 79.436333 -35.318365 
L 80.045714 -35.318365 
L 80.655096 -35.318365 
L 81.264477 -35.318365 
L 81.873859 -35.318365 
L 82.48324 -35.318365 
L 83.092622 -35.318365 
L 83.702003 -35.318365 
L 84.311385 -35.318365 
L 84.920766 -35.318365 
L 85.530148 -35.318365 
L 86.139529 -35.318365 
L 86.748911 -35.318365 
L 87.358292 -35.318365 
L 87.967674 -35.318365 
L 88.577055 -35.318365 
L 89.186437 -35.318365 
L 89.795818 -35.318365 
L 90.4052 -35.318365 
L 91.014581 -35.318365 
L 91.623963 -35.318365 
L 92.233344 -35.318365 
L 92.842726 -35.318365 
L 93.452107 -35.318365 
L 94.061489 -35.318365 
L 94.67087 -35.318365 
L 95.280252 -35.318365 
L 95.889633 -35.318365 
L 96.499015 -35.318365 
L 97.108396 -35.318365 
L 97.717778 -35.318365 
L 98.327159 -35.318365 
L 98.936541 -35.318365 
L 99.545922 -35.318365 
L 100.155304 -35.318365 
L 100.764685 -35.318365 
L 101.374067 -35.318365 
L 101.983448 -35.318365 
L 102.59283 -35.318365 
L 103.202211 -35.318365 
L 103.811593 -35.318365 
L 104.420974 -35.318365 
L 105.030356 -35.318365 
L 105.639737 -35.318365 
L 106.249119 -35.318365 
L 106.8585 -35.318365 
L 107.467882 -35.318365 
L 108.077263 -35.318365 
L 108.686645 -35.318365 
L 109.296026 -35.318365 
L 109.905408 -35.318365 
L 110.514789 -35.318365 
L 111.124171 -35.318365 
L 111.733552 -35.318365 
L 112.342934 -35.318365 
L 112.952315 -35.318365 
L 113.561697 -35.318365 
L 114.171078 -35.318365 
L 114.78046 -35.318365 
L 115.389841 -35.318365 
L 115.999223 -35.318365 
L 116.608604 -35.318365 
L 117.217986 -35.318365 
L 117.827367 -35.318365 
L 118.436749 -35.318365 
L 119.04613 -35.318365 
L 119.655512 -35.318365 
L 120.264893 -35.318365 
L 120.874275 -35.318365 
L 121.483656 -35.318365 
L 122.093038 -35.318365 
L 122.702419 -35.318365 
L 123.311801 -35.318365 
L 123.921182 -35.318365 
L 124.530564 -35.318365 
L 125.139945 -35.318365 
L 125.749327 -35.318365 
L 126.358708 -35.318365 
L 126.96809 -35.318365 
L 127.577471 -35.318365 
L 128.186853 -35.318365 
L 128.796234 -35.318365 
L 129.405616 -35.318365 
L 130.014997 -35.318365 
L 130.624379 -35.318365 
L 131.23376 -35.318365 
L 131.843142 -35.318365 
L 132.452523 -35.318365 
L 133.061905 -35.318365 
L 133.671286 -35.318365 
L 134.280668 -35.318365 
L 134.890049 -35.318365 
L 135.499431 -35.318365 
L 136.108812 -35.318365 
L 136.718194 -35.318365 
L 137.327575 -35.318365 
L 137.936957 -35.318365 
L 138.546338 -35.318365 
L 139.15572 -35.318365 
L 139.765101 -35.318365 
L 140.374483 -35.318365 
L 140.983864 -35.318365 
L 141.593246 -35.318365 
L 142.202627 -35.318365 
L 142.812009 -35.318365 
L 143.42139 -35.318365 
L 144.030772 -35.318365 
L 144.640153 -35.318365 
L 145.249535 -35.318365 
L 145.858916 -35.318365 
L 146.468298 -35.318365 
L 147.077679 -35.318365 
L 147.687061 -35.318365 
L 148.296442 -35.318365 
L 148.905824 -35.318365 
L 149.515205 -35.318365 
L 150.124587 -35.318365 
L 150.733968 -35.318365 
L 151.34335 -35.318365 
L 151.952731 -35.318365 
L 152.562113 -35.318365 
L 153.171494 -35.318365 
L 153.780876 -35.318365 
L 154.390257 -35.318365 
L 154.999639 -35.318365 
L 155.60902 -35.318365 
L 156.218402 -35.318365 
L 156.827783 -35.318365 
L 157.437165 -35.318365 
L 158.046546 -35.318365 
L 158.655928 -35.318365 
L 159.265309 -35.318365 
L 159.874691 -35.318365 
L 160.484072 -35.318365 
L 161.093454 -35.318365 
L 161.702836 -35.318365 
L 162.312217 -35.318365 
L 162.921599 -35.318365 
L 163.53098 -35.318365 
L 164.140362 -35.318365 
L 164.749743 -35.318365 
L 165.359125 -35.318365 
L 165.968506 -35.318365 
L 166.577888 -35.318365 
L 167.187269 -35.318365 
L 167.796651 -35.318365 
L 168.406032 -35.318365 
L 169.015414 -35.318365 
L 169.624795 -35.318365 
L 170.234177 -35.318365 
L 170.843558 -35.318365 
L 171.45294 -35.318365 
L 172.062321 -35.318365 
L 172.671703 -35.318365 
L 173.281084 -35.318365 
L 173.890466 -35.318365 
L 174.499847 -35.318365 
L 175.109229 -35.318365 
L 175.71861 -35.318365 
L 176.327992 -35.318365 
L 176.937373 -35.318365 
L 177.546755 -35.318365 
L 178.156136 -35.318365 
L 178.765518 -35.318365 
L 179.374899 -35.318365 
L 179.984281 -35.318365 
L 180.593662 -35.318365 
L 181.203044 -35.318365 
L 181.812425 -35.318365 
L 182.421807 -35.318365 
L 183.031188 -35.318365 
L 183.64057 -35.318365 
L 184.249951 -35.318365 
L 184.859333 -35.318365 
L 185.468714 -35.318365 
L 186.078096 -35.318365 
L 186.687477 -35.318365 
L 187.296859 -35.318365 
L 187.296859 -35.335727 
L 187.296859 -35.335727 
L 186.687477 -35.34781 
L 186.078096 -35.367213 
L 185.468714 -35.397643 
L 184.859333 -35.444251 
L 184.249951 -35.513975 
L 183.64057 -35.615851 
L 183.031188 -35.76124 
L 182.421807 -35.963913 
L 181.812425 -36.239897 
L 181.203044 -36.607031 
L 180.593662 -37.084182 
L 179.984281 -37.690105 
L 179.374899 -38.442004 
L 178.765518 -39.353878 
L 178.156136 -40.434822 
L 177.546755 -41.687467 
L 176.937373 -43.106771 
L 176.327992 -44.679347 
L 175.71861 -46.383459 
L 175.109229 -48.189751 
L 174.499847 -50.062677 
L 173.890466 -51.962497 
L 173.281084 -53.847664 
L 172.671703 -55.677361 
L 172.062321 -57.413954 
L 171.45294 -59.025139 
L 170.843558 -60.48563 
L 170.234177 -61.778262 
L 169.624795 -62.894491 
L 169.015414 -63.834282 
L 168.406032 -64.605467 
L 167.796651 -65.222644 
L 167.187269 -65.705765 
L 166.577888 -66.078507 
L 165.968506 -66.366586 
L 165.359125 -66.596124 
L 164.749743 -66.79218 
L 164.140362 -66.977534 
L 163.53098 -67.171777 
L 162.921599 -67.390722 
L 162.312217 -67.64614 
L 161.702836 -67.945748 
L 161.093454 -68.293393 
L 160.484072 -68.689332 
L 159.874691 -69.130531 
L 159.265309 -69.610903 
L 158.655928 -70.121459 
L 158.046546 -70.650369 
L 157.437165 -71.183007 
L 156.827783 -71.702055 
L 156.218402 -72.187791 
L 155.60902 -72.618679 
L 154.999639 -72.97231 
L 154.390257 -73.226731 
L 153.780876 -73.362066 
L 153.171494 -73.362292 
L 152.562113 -73.21696 
L 151.952731 -72.922613 
L 151.34335 -72.483684 
L 150.733968 -71.912727 
L 150.124587 -71.229905 
L 149.515205 -70.461807 
L 148.905824 -69.639743 
L 148.296442 -68.797761 
L 147.687061 -67.970655 
L 147.077679 -67.192199 
L 146.468298 -66.493803 
L 145.858916 -65.903651 
L 145.249535 -65.446312 
L 144.640153 -65.1427 
L 144.030772 -65.010227 
L 143.42139 -65.062979 
L 142.812009 -65.311775 
L 142.202627 -65.764056 
L 141.593246 -66.423641 
L 140.983864 -67.290455 
L 140.374483 -68.360447 
L 139.765101 -69.625886 
L 139.15572 -71.076274 
L 138.546338 -72.700013 
L 137.936957 -74.486869 
L 137.327575 -76.431151 
L 136.718194 -78.535322 
L 136.108812 -80.813644 
L 135.499431 -83.295278 
L 134.890049 -86.026197 
L 134.280668 -89.069281 
L 133.671286 -92.502043 
L 133.061905 -96.411681 
L 132.452523 -100.887436 
L 131.843142 -106.010635 
L 131.23376 -111.843187 
L 130.624379 -118.415625 
L 130.014997 -125.716088 
L 129.405616 -133.681648 
L 128.796234 -142.193377 
L 128.186853 -151.076188 
L 127.577471 -160.104055 
L 126.96809 -169.010617 
L 126.358708 -177.504503 
L 125.749327 -185.288108 
L 125.139945 -192.078043 
L 124.530564 -197.625167 
L 123.921182 -201.732109 
L 123.311801 -204.266391 
L 122.702419 -205.167806 
L 122.093038 -204.449377 
L 121.483656 -202.192028 
L 120.874275 -198.533846 
L 120.264893 -193.655434 
L 119.655512 -187.763238 
L 119.04613 -181.072832 
L 118.436749 -173.793979 
L 117.827367 -166.118844 
L 117.217986 -158.2142 
L 116.608604 -150.217798 
L 115.999223 -142.238531 
L 115.389841 -134.359529 
L 114.78046 -126.643094 
L 114.171078 -119.13632 
L 113.561697 -111.876382 
L 112.952315 -104.894758 
L 112.342934 -98.219993 
L 111.733552 -91.878967 
L 111.124171 -85.896877 
L 110.514789 -80.296339 
L 109.905408 -75.096043 
L 109.296026 -70.309373 
L 108.686645 -65.943282 
L 108.077263 -61.997603 
L 107.467882 -58.464853 
L 106.8585 -55.330513 
L 106.249119 -52.573717 
L 105.639737 -50.16827 
L 105.030356 -48.083918 
L 104.420974 -46.287768 
L 103.811593 -44.745792 
L 103.202211 -43.424295 
L 102.59283 -42.291252 
L 101.983448 -41.317419 
L 101.374067 -40.477116 
L 100.764685 -39.748648 
L 100.155304 -39.114351 
L 99.545922 -38.5603 
L 98.936541 -38.075775 
L 98.327159 -37.652575 
L 97.717778 -37.284309 
L 97.108396 -36.965754 
L 96.499015 -36.692356 
L 95.889633 -36.459899 
L 95.280252 -36.264359 
L 94.67087 -36.101879 
L 94.061489 -35.968852 
L 93.452107 -35.862022 
L 92.842726 -35.778577 
L 92.233344 -35.716198 
L 91.623963 -35.673038 
L 91.014581 -35.647648 
L 90.4052 -35.638861 
L 89.795818 -35.645654 
L 89.186437 -35.667016 
L 88.577055 -35.701848 
L 87.967674 -35.748889 
L 87.358292 -35.806683 
L 86.748911 -35.873582 
L 86.139529 -35.947747 
L 85.530148 -36.02717 
L 84.920766 -36.109674 
L 84.311385 -36.192898 
L 83.702003 -36.274289 
L 83.092622 -36.351087 
L 82.48324 -36.420354 
L 81.873859 -36.479051 
L 81.264477 -36.524176 
L 80.655096 -36.552967 
L 80.045714 -36.56316 
L 79.436333 -36.553242 
L 78.826951 -36.522686 
L 78.21757 -36.472099 
L 77.608188 -36.403268 
L 76.998807 -36.319059 
L 76.389425 -36.223202 
L 75.780044 -36.119977 
L 75.170662 -36.013832 
L 74.561281 -35.909015 
L 73.951899 -35.809241 
L 73.342518 -35.717455 
L 72.733136 -35.635699 
L 72.123755 -35.56509 
L 71.514373 -35.5059 
L 70.904992 -35.457699 
L 70.29561 -35.41954 
L 69.686229 -35.390159 
L 69.076847 -35.368145 
L 68.467466 -35.352089 
L 67.858084 -35.340686 
L 67.248703 -35.332797 
L 66.639321 -35.327481 
L 66.02994 -35.323989 
z
" style="stroke: #0071b2; stroke-width: 1.5"/>
    </defs>
    <g clip-path="url(#pb387f83b48)">
     <use xlink:href="#mb897f96a9c" x="0" y="288" style="fill: #0071b2; fill-opacity: 0.75; stroke: #0071b2; stroke-width: 1.5"/>
    </g>
   </g>
   <g id="FillBetweenPolyCollection_2">
    <path d="M -116.566758 252.679098 
L -116.566758 252.681635 
L -115.016784 252.681635 
L -113.466809 252.681635 
L -111.916835 252.681635 
L -110.36686 252.681635 
L -108.816886 252.681635 
L -107.266911 252.681635 
L -105.716936 252.681635 
L -104.166962 252.681635 
L -102.616987 252.681635 
L -101.067013 252.681635 
L -99.517038 252.681635 
L -97.967064 252.681635 
L -96.417089 252.681635 
L -94.867115 252.681635 
L -93.31714 252.681635 
L -91.767165 252.681635 
L -90.217191 252.681635 
L -88.667216 252.681635 
L -87.117242 252.681635 
L -85.567267 252.681635 
L -84.017293 252.681635 
L -82.467318 252.681635 
L -80.917343 252.681635 
L -79.367369 252.681635 
L -77.817394 252.681635 
L -76.26742 252.681635 
L -74.717445 252.681635 
L -73.167471 252.681635 
L -71.617496 252.681635 
L -70.067521 252.681635 
L -68.517547 252.681635 
L -66.967572 252.681635 
L -65.417598 252.681635 
L -63.867623 252.681635 
L -62.317649 252.681635 
L -60.767674 252.681635 
L -59.2177 252.681635 
L -57.667725 252.681635 
L -56.11775 252.681635 
L -54.567776 252.681635 
L -53.017801 252.681635 
L -51.467827 252.681635 
L -49.917852 252.681635 
L -48.367878 252.681635 
L -46.817903 252.681635 
L -45.267928 252.681635 
L -43.717954 252.681635 
L -42.167979 252.681635 
L -40.618005 252.681635 
L -39.06803 252.681635 
L -37.518056 252.681635 
L -35.968081 252.681635 
L -34.418107 252.681635 
L -32.868132 252.681635 
L -31.318157 252.681635 
L -29.768183 252.681635 
L -28.218208 252.681635 
L -26.668234 252.681635 
L -25.118259 252.681635 
L -23.568285 252.681635 
L -22.01831 252.681635 
L -20.468335 252.681635 
L -18.918361 252.681635 
L -17.368386 252.681635 
L -15.818412 252.681635 
L -14.268437 252.681635 
L -12.718463 252.681635 
L -11.168488 252.681635 
L -9.618513 252.681635 
L -8.068539 252.681635 
L -6.518564 252.681635 
L -4.96859 252.681635 
L -3.418615 252.681635 
L -1.868641 252.681635 
L -0.318666 252.681635 
L 1.231308 252.681635 
L 2.781283 252.681635 
L 4.331258 252.681635 
L 5.881232 252.681635 
L 7.431207 252.681635 
L 8.981181 252.681635 
L 10.531156 252.681635 
L 12.08113 252.681635 
L 13.631105 252.681635 
L 15.18108 252.681635 
L 16.731054 252.681635 
L 18.281029 252.681635 
L 19.831003 252.681635 
L 21.380978 252.681635 
L 22.930952 252.681635 
L 24.480927 252.681635 
L 26.030902 252.681635 
L 27.580876 252.681635 
L 29.130851 252.681635 
L 30.680825 252.681635 
L 32.2308 252.681635 
L 33.780774 252.681635 
L 35.330749 252.681635 
L 36.880723 252.681635 
L 38.430698 252.681635 
L 39.980673 252.681635 
L 41.530647 252.681635 
L 43.080622 252.681635 
L 44.630596 252.681635 
L 46.180571 252.681635 
L 47.730545 252.681635 
L 49.28052 252.681635 
L 50.830495 252.681635 
L 52.380469 252.681635 
L 53.930444 252.681635 
L 55.480418 252.681635 
L 57.030393 252.681635 
L 58.580367 252.681635 
L 60.130342 252.681635 
L 61.680316 252.681635 
L 63.230291 252.681635 
L 64.780266 252.681635 
L 66.33024 252.681635 
L 67.880215 252.681635 
L 69.430189 252.681635 
L 70.980164 252.681635 
L 72.530138 252.681635 
L 74.080113 252.681635 
L 75.630088 252.681635 
L 77.180062 252.681635 
L 78.730037 252.681635 
L 80.280011 252.681635 
L 81.829986 252.681635 
L 83.37996 252.681635 
L 84.929935 252.681635 
L 86.47991 252.681635 
L 88.029884 252.681635 
L 89.579859 252.681635 
L 91.129833 252.681635 
L 92.679808 252.681635 
L 94.229782 252.681635 
L 95.779757 252.681635 
L 97.329731 252.681635 
L 98.879706 252.681635 
L 100.429681 252.681635 
L 101.979655 252.681635 
L 103.52963 252.681635 
L 105.079604 252.681635 
L 106.629579 252.681635 
L 108.179553 252.681635 
L 109.729528 252.681635 
L 111.279503 252.681635 
L 112.829477 252.681635 
L 114.379452 252.681635 
L 115.929426 252.681635 
L 117.479401 252.681635 
L 119.029375 252.681635 
L 120.57935 252.681635 
L 122.129325 252.681635 
L 123.679299 252.681635 
L 125.229274 252.681635 
L 126.779248 252.681635 
L 128.329223 252.681635 
L 129.879197 252.681635 
L 131.429172 252.681635 
L 132.979146 252.681635 
L 134.529121 252.681635 
L 136.079096 252.681635 
L 137.62907 252.681635 
L 139.179045 252.681635 
L 140.729019 252.681635 
L 142.278994 252.681635 
L 143.828968 252.681635 
L 145.378943 252.681635 
L 146.928918 252.681635 
L 148.478892 252.681635 
L 150.028867 252.681635 
L 151.578841 252.681635 
L 153.128816 252.681635 
L 154.67879 252.681635 
L 156.228765 252.681635 
L 157.778739 252.681635 
L 159.328714 252.681635 
L 160.878689 252.681635 
L 162.428663 252.681635 
L 163.978638 252.681635 
L 165.528612 252.681635 
L 167.078587 252.681635 
L 168.628561 252.681635 
L 170.178536 252.681635 
L 171.728511 252.681635 
L 173.278485 252.681635 
L 174.82846 252.681635 
L 176.378434 252.681635 
L 177.928409 252.681635 
L 179.478383 252.681635 
L 181.028358 252.681635 
L 182.578333 252.681635 
L 184.128307 252.681635 
L 185.678282 252.681635 
L 187.228256 252.681635 
L 188.778231 252.681635 
L 190.328205 252.681635 
L 191.87818 252.681635 
L 191.87818 252.674002 
L 191.87818 252.674002 
L 190.328205 252.656189 
L 188.778231 252.605419 
L 187.228256 252.476516 
L 185.678282 252.185532 
L 184.128307 251.602761 
L 182.578333 250.569605 
L 181.028358 248.951997 
L 179.478383 246.720283 
L 177.928409 244.012899 
L 176.378434 241.129173 
L 174.82846 238.430526 
L 173.278485 236.19361 
L 171.728511 234.500674 
L 170.178536 233.233576 
L 168.628561 232.173834 
L 167.078587 231.148204 
L 165.528612 230.132428 
L 163.978638 229.24834 
L 162.428663 228.657798 
L 160.878689 228.43342 
L 159.328714 228.505809 
L 157.778739 228.720954 
L 156.228765 228.947398 
L 154.67879 229.140748 
L 153.128816 229.325538 
L 151.578841 229.527898 
L 150.028867 229.718749 
L 148.478892 229.800251 
L 146.928918 229.628848 
L 145.378943 229.050223 
L 143.828968 227.926525 
L 142.278994 226.14686 
L 140.729019 223.615851 
L 139.179045 220.217056 
L 137.62907 215.760407 
L 136.079096 209.945261 
L 134.529121 202.38435 
L 132.979146 192.718879 
L 131.429172 180.808929 
L 129.879197 166.927131 
L 128.329223 151.855038 
L 126.779248 136.814461 
L 125.229274 123.252548 
L 123.679299 112.574663 
L 122.129325 105.917654 
L 120.57935 103.993762 
L 119.029375 106.995053 
L 117.479401 114.565814 
L 115.929426 125.869653 
L 114.379452 139.748474 
L 112.829477 154.927157 
L 111.279503 170.213153 
L 109.729528 184.658347 
L 108.179553 197.652485 
L 106.629579 208.919885 
L 105.079604 218.42916 
L 103.52963 226.276048 
L 101.979655 232.604847 
L 100.429681 237.5862 
L 98.879706 241.419288 
L 97.329731 244.31992 
L 95.779757 246.487344 
L 94.229782 248.073219 
L 92.679808 249.177393 
L 91.129833 249.871443 
L 89.579859 250.229076 
L 88.029884 250.34218 
L 86.47991 250.317294 
L 84.929935 250.260543 
L 83.37996 250.259868 
L 81.829986 250.368771 
L 80.280011 250.595649 
L 78.730037 250.905643 
L 77.180062 251.238732 
L 75.630088 251.537306 
L 74.080113 251.768222 
L 72.530138 251.927631 
L 70.980164 252.029474 
L 69.430189 252.089715 
L 67.880215 252.118865 
L 66.33024 252.125749 
L 64.780266 252.124458 
L 63.230291 252.134028 
L 61.680316 252.168668 
L 60.130342 252.22705 
L 58.580367 252.291302 
L 57.030393 252.33786 
L 55.480418 252.352052 
L 53.930444 252.336028 
L 52.380469 252.306082 
L 50.830495 252.283278 
L 49.28052 252.284086 
L 47.730545 252.315132 
L 46.180571 252.372567 
L 44.630596 252.444918 
L 43.080622 252.518004 
L 41.530647 252.580136 
L 39.980673 252.62542 
L 38.430698 252.653948 
L 36.880723 252.669547 
L 35.330749 252.676967 
L 33.780774 252.680044 
L 32.2308 252.681157 
L 30.680825 252.681508 
L 29.130851 252.681604 
L 27.580876 252.681622 
L 26.030902 252.681601 
L 24.480927 252.681496 
L 22.930952 252.681119 
L 21.380978 252.679943 
L 19.831003 252.676758 
L 18.281029 252.669276 
L 16.731054 252.654088 
L 15.18108 252.62764 
L 13.631105 252.588559 
L 12.08113 252.540537 
L 10.531156 252.493525 
L 8.981181 252.461087 
L 7.431207 252.45423 
L 5.881232 252.475431 
L 4.331258 252.517198 
L 2.781283 252.566315 
L 1.231308 252.610512 
L -0.318666 252.643059 
L -1.868641 252.663234 
L -3.418615 252.673916 
L -4.96859 252.678787 
L -6.518564 252.680711 
L -8.068539 252.681371 
L -9.618513 252.681569 
L -11.168488 252.68162 
L -12.718463 252.681632 
L -14.268437 252.681635 
L -15.818412 252.681635 
L -17.368386 252.681635 
L -18.918361 252.681635 
L -20.468335 252.681635 
L -22.01831 252.681635 
L -23.568285 252.681635 
L -25.118259 252.681635 
L -26.668234 252.681635 
L -28.218208 252.681635 
L -29.768183 252.681635 
L -31.318157 252.681635 
L -32.868132 252.681635 
L -34.418107 252.681635 
L -35.968081 252.681635 
L -37.518056 252.681635 
L -39.06803 252.681635 
L -40.618005 252.681635 
L -42.167979 252.681635 
L -43.717954 252.681635 
L -45.267928 252.681635 
L -46.817903 252.681635 
L -48.367878 252.681635 
L -49.917852 252.681635 
L -51.467827 252.681635 
L -53.017801 252.681635 
L -54.567776 252.681635 
L -56.11775 252.681635 
L -57.667725 252.681635 
L -59.2177 252.681635 
L -60.767674 252.681635 
L -62.317649 252.681635 
L -63.867623 252.681635 
L -65.417598 252.681635 
L -66.967572 252.681635 
L -68.517547 252.681635 
L -70.067521 252.681635 
L -71.617496 252.681635 
L -73.167471 252.681635 
L -74.717445 252.681635 
L -76.26742 252.681635 
L -77.817394 252.681635 
L -79.367369 252.681635 
L -80.917343 252.681635 
L -82.467318 252.681634 
L -84.017293 252.681627 
L -85.567267 252.681597 
L -87.117242 252.681474 
L -88.667216 252.681044 
L -90.217191 252.679726 
L -91.767165 252.67621 
L -93.31714 252.668075 
L -94.867115 252.651829 
L -96.417089 252.624016 
L -97.967064 252.58368 
L -99.517038 252.535185 
L -101.067013 252.489079 
L -102.616987 252.458983 
L -104.166962 252.455224 
L -105.716936 252.479159 
L -107.266911 252.522395 
L -108.816886 252.571498 
L -110.36686 252.614644 
L -111.916835 252.6458 
L -113.466809 252.664777 
L -115.016784 252.674661 
L -116.566758 252.679098 
z
" clip-path="url(#pb387f83b48)" style="fill: #d55e00; fill-opacity: 0.75; stroke: #d55e00; stroke-width: 1.5"/>
   </g>
   <g id="patch_3">
    <path d="M 16.36274 252.681635 
L 16.36274 6.799459 
" style="fill: none; stroke: #000000; stroke-width: 0.8; stroke-linejoin: miter; stroke-linecap: square"/>
   </g>
   <g id="patch_4">
    <path d="M 277.048198 252.681635 
L 277.048198 6.799459 
" style="fill: none; stroke: #000000; stroke-width: 0.8; stroke-linejoin: miter; stroke-linecap: square"/>
   </g>
   <g id="patch_5">
    <path d="M 16.36274 252.681635 
L 277.048198 252.681635 
" style="fill: none; stroke: #000000; stroke-width: 0.8; stroke-linejoin: miter; stroke-linecap: square"/>
   </g>
   <g id="patch_6">
    <path d="M 16.36274 6.799459 
L 277.048198 6.799459 
" style="fill: none; stroke: #000000; stroke-width: 0.8; stroke-linejoin: miter; stroke-linecap: square"/>
   </g>
   <g id="legend_1">
    <g id="patch_7">
     <path d="M 68.488125 55.362584 
L 224.922812 55.362584 
Q 227.522812 55.362584 227.522812 52.762584 
L 227.522812 15.899459 
Q 227.522812 13.299459 224.922812 13.299459 
L 68.488125 13.299459 
Q 65.888125 13.299459 65.888125 15.899459 
L 65.888125 52.762584 
Q 65.888125 55.362584 68.488125 55.362584 
z
" style="fill: #ffffff; opacity: 0.8; stroke: #cccccc; stroke-linejoin: miter"/>
    </g>
    <g id="patch_8">
     <path d="M 71.088125 28.377427 
L 97.088125 28.377427 
L 97.088125 19.277427 
L 71.088125 19.277427 
z
" style="fill: #0071b2; stroke: #0071b2; stroke-linejoin: miter"/>
    </g>
    <g id="text_16">
     <!-- multimodal acces -->
     <g transform="translate(107.488125 28.377427) scale(0.13 -0.13)">
      <defs>
       <path id="DejaVuSans-6d" d="M 3328 2828 
Q 3544 3216 3844 3400 
Q 4144 3584 4550 3584 
Q 5097 3584 5394 3201 
Q 5691 2819 5691 2113 
L 5691 0 
L 5113 0 
L 5113 2094 
Q 5113 2597 4934 2840 
Q 4756 3084 4391 3084 
Q 3944 3084 3684 2787 
Q 3425 2491 3425 1978 
L 3425 0 
L 2847 0 
L 2847 2094 
Q 2847 2600 2669 2842 
Q 2491 3084 2119 3084 
Q 1678 3084 1418 2786 
Q 1159 2488 1159 1978 
L 1159 0 
L 581 0 
L 581 3500 
L 1159 3500 
L 1159 2956 
Q 1356 3278 1631 3431 
Q 1906 3584 2284 3584 
Q 2666 3584 2933 3390 
Q 3200 3197 3328 2828 
z
" transform="scale(0.015625)"/>
       <path id="DejaVuSans-75" d="M 544 1381 
L 544 3500 
L 1119 3500 
L 1119 1403 
Q 1119 906 1312 657 
Q 1506 409 1894 409 
Q 2359 409 2629 706 
Q 2900 1003 2900 1516 
L 2900 3500 
L 3475 3500 
L 3475 0 
L 2900 0 
L 2900 538 
Q 2691 219 2414 64 
Q 2138 -91 1772 -91 
Q 1169 -91 856 284 
Q 544 659 544 1381 
z
M 1991 3584 
L 1991 3584 
z
" transform="scale(0.015625)"/>
       <path id="DejaVuSans-6c" d="M 603 4863 
L 1178 4863 
L 1178 0 
L 603 0 
L 603 4863 
z
" transform="scale(0.015625)"/>
       <path id="DejaVuSans-74" d="M 1172 4494 
L 1172 3500 
L 2356 3500 
L 2356 3053 
L 1172 3053 
L 1172 1153 
Q 1172 725 1289 603 
Q 1406 481 1766 481 
L 2356 481 
L 2356 0 
L 1766 0 
Q 1100 0 847 248 
Q 594 497 594 1153 
L 594 3053 
L 172 3053 
L 172 3500 
L 594 3500 
L 594 4494 
L 1172 4494 
z
" transform="scale(0.015625)"/>
       <path id="DejaVuSans-6f" d="M 1959 3097 
Q 1497 3097 1228 2736 
Q 959 2375 959 1747 
Q 959 1119 1226 758 
Q 1494 397 1959 397 
Q 2419 397 2687 759 
Q 2956 1122 2956 1747 
Q 2956 2369 2687 2733 
Q 2419 3097 1959 3097 
z
M 1959 3584 
Q 2709 3584 3137 3096 
Q 3566 2609 3566 1747 
Q 3566 888 3137 398 
Q 2709 -91 1959 -91 
Q 1206 -91 779 398 
Q 353 888 353 1747 
Q 353 2609 779 3096 
Q 1206 3584 1959 3584 
z
" transform="scale(0.015625)"/>
       <path id="DejaVuSans-64" d="M 2906 2969 
L 2906 4863 
L 3481 4863 
L 3481 0 
L 2906 0 
L 2906 525 
Q 2725 213 2448 61 
Q 2172 -91 1784 -91 
Q 1150 -91 751 415 
Q 353 922 353 1747 
Q 353 2572 751 3078 
Q 1150 3584 1784 3584 
Q 2172 3584 2448 3432 
Q 2725 3281 2906 2969 
z
M 947 1747 
Q 947 1113 1208 752 
Q 1469 391 1925 391 
Q 2381 391 2643 752 
Q 2906 1113 2906 1747 
Q 2906 2381 2643 2742 
Q 2381 3103 1925 3103 
Q 1469 3103 1208 2742 
Q 947 2381 947 1747 
z
" transform="scale(0.015625)"/>
       <path id="DejaVuSans-61" d="M 2194 1759 
Q 1497 1759 1228 1600 
Q 959 1441 959 1056 
Q 959 750 1161 570 
Q 1363 391 1709 391 
Q 2188 391 2477 730 
Q 2766 1069 2766 1631 
L 2766 1759 
L 2194 1759 
z
M 3341 1997 
L 3341 0 
L 2766 0 
L 2766 531 
Q 2569 213 2275 61 
Q 1981 -91 1556 -91 
Q 1019 -91 701 211 
Q 384 513 384 1019 
Q 384 1609 779 1909 
Q 1175 2209 1959 2209 
L 2766 2209 
L 2766 2266 
Q 2766 2663 2505 2880 
Q 2244 3097 1772 3097 
Q 1472 3097 1187 3025 
Q 903 2953 641 2809 
L 641 3341 
Q 956 3463 1253 3523 
Q 1550 3584 1831 3584 
Q 2591 3584 2966 3190 
Q 3341 2797 3341 1997 
z
" transform="scale(0.015625)"/>
       <path id="DejaVuSans-63" d="M 3122 3366 
L 3122 2828 
Q 2878 2963 2633 3030 
Q 2388 3097 2138 3097 
Q 1578 3097 1268 2742 
Q 959 2388 959 1747 
Q 959 1106 1268 751 
Q 1578 397 2138 397 
Q 2388 397 2633 464 
Q 2878 531 3122 666 
L 3122 134 
Q 2881 22 2623 -34 
Q 2366 -91 2075 -91 
Q 1284 -91 818 406 
Q 353 903 353 1747 
Q 353 2603 823 3093 
Q 1294 3584 2113 3584 
Q 2378 3584 2631 3529 
Q 2884 3475 3122 3366 
z
" transform="scale(0.015625)"/>
       <path id="DejaVuSans-65" d="M 3597 1894 
L 3597 1613 
L 953 1613 
Q 991 1019 1311 708 
Q 1631 397 2203 397 
Q 2534 397 2845 478 
Q 3156 559 3463 722 
L 3463 178 
Q 3153 47 2828 -22 
Q 2503 -91 2169 -91 
Q 1331 -91 842 396 
Q 353 884 353 1716 
Q 353 2575 817 3079 
Q 1281 3584 2069 3584 
Q 2775 3584 3186 3129 
Q 3597 2675 3597 1894 
z
M 3022 2063 
Q 3016 2534 2758 2815 
Q 2500 3097 2075 3097 
Q 1594 3097 1305 2825 
Q 1016 2553 972 2059 
L 3022 2063 
z
" transform="scale(0.015625)"/>
       <path id="DejaVuSans-73" d="M 2834 3397 
L 2834 2853 
Q 2591 2978 2328 3040 
Q 2066 3103 1784 3103 
Q 1356 3103 1142 2972 
Q 928 2841 928 2578 
Q 928 2378 1081 2264 
Q 1234 2150 1697 2047 
L 1894 2003 
Q 2506 1872 2764 1633 
Q 3022 1394 3022 966 
Q 3022 478 2636 193 
Q 2250 -91 1575 -91 
Q 1294 -91 989 -36 
Q 684 19 347 128 
L 347 722 
Q 666 556 975 473 
Q 1284 391 1588 391 
Q 1994 391 2212 530 
Q 2431 669 2431 922 
Q 2431 1156 2273 1281 
Q 2116 1406 1581 1522 
L 1381 1569 
Q 847 1681 609 1914 
Q 372 2147 372 2553 
Q 372 3047 722 3315 
Q 1072 3584 1716 3584 
Q 2034 3584 2315 3537 
Q 2597 3491 2834 3397 
z
" transform="scale(0.015625)"/>
      </defs>
      <use xlink:href="#DejaVuSans-6d"/>
      <use xlink:href="#DejaVuSans-75" transform="translate(97.412109 0)"/>
      <use xlink:href="#DejaVuSans-6c" transform="translate(160.791016 0)"/>
      <use xlink:href="#DejaVuSans-74" transform="translate(188.574219 0)"/>
      <use xlink:href="#DejaVuSans-69" transform="translate(227.783203 0)"/>
      <use xlink:href="#DejaVuSans-6d" transform="translate(255.566406 0)"/>
      <use xlink:href="#DejaVuSans-6f" transform="translate(352.978516 0)"/>
      <use xlink:href="#DejaVuSans-64" transform="translate(414.160156 0)"/>
      <use xlink:href="#DejaVuSans-61" transform="translate(477.636719 0)"/>
      <use xlink:href="#DejaVuSans-6c" transform="translate(538.916016 0)"/>
      <use xlink:href="#DejaVuSans-20" transform="translate(566.699219 0)"/>
      <use xlink:href="#DejaVuSans-61" transform="translate(598.486328 0)"/>
      <use xlink:href="#DejaVuSans-63" transform="translate(659.765625 0)"/>
      <use xlink:href="#DejaVuSans-63" transform="translate(714.746094 0)"/>
      <use xlink:href="#DejaVuSans-65" transform="translate(769.726562 0)"/>
      <use xlink:href="#DejaVuSans-73" transform="translate(831.25 0)"/>
     </g>
    </g>
    <g id="patch_9">
     <path d="M 71.088125 47.45899 
L 97.088125 47.45899 
L 97.088125 38.35899 
L 71.088125 38.35899 
z
" style="fill: #d55e00; stroke: #d55e00; stroke-linejoin: miter"/>
    </g>
    <g id="text_17">
     <!-- walking access -->
     <g transform="translate(107.488125 47.45899) scale(0.13 -0.13)">
      <defs>
       <path id="DejaVuSans-77" d="M 269 3500 
L 844 3500 
L 1563 769 
L 2278 3500 
L 2956 3500 
L 3675 769 
L 4391 3500 
L 4966 3500 
L 4050 0 
L 3372 0 
L 2619 2869 
L 1863 0 
L 1184 0 
L 269 3500 
z
" transform="scale(0.015625)"/>
       <path id="DejaVuSans-6b" d="M 581 4863 
L 1159 4863 
L 1159 1991 
L 2875 3500 
L 3609 3500 
L 1753 1863 
L 3688 0 
L 2938 0 
L 1159 1709 
L 1159 0 
L 581 0 
L 581 4863 
z
" transform="scale(0.015625)"/>
       <path id="DejaVuSans-67" d="M 2906 1791 
Q 2906 2416 2648 2759 
Q 2391 3103 1925 3103 
Q 1463 3103 1205 2759 
Q 947 2416 947 1791 
Q 947 1169 1205 825 
Q 1463 481 1925 481 
Q 2391 481 2648 825 
Q 2906 1169 2906 1791 
z
M 3481 434 
Q 3481 -459 3084 -895 
Q 2688 -1331 1869 -1331 
Q 1566 -1331 1297 -1286 
Q 1028 -1241 775 -1147 
L 775 -588 
Q 1028 -725 1275 -790 
Q 1522 -856 1778 -856 
Q 2344 -856 2625 -561 
Q 2906 -266 2906 331 
L 2906 616 
Q 2728 306 2450 153 
Q 2172 0 1784 0 
Q 1141 0 747 490 
Q 353 981 353 1791 
Q 353 2603 747 3093 
Q 1141 3584 1784 3584 
Q 2172 3584 2450 3431 
Q 2728 3278 2906 2969 
L 2906 3500 
L 3481 3500 
L 3481 434 
z
" transform="scale(0.015625)"/>
      </defs>
      <use xlink:href="#DejaVuSans-77"/>
      <use xlink:href="#DejaVuSans-61" transform="translate(81.787109 0)"/>
      <use xlink:href="#DejaVuSans-6c" transform="translate(143.066406 0)"/>
      <use xlink:href="#DejaVuSans-6b" transform="translate(170.849609 0)"/>
      <use xlink:href="#DejaVuSans-69" transform="translate(228.759766 0)"/>
      <use xlink:href="#DejaVuSans-6e" transform="translate(256.542969 0)"/>
      <use xlink:href="#DejaVuSans-67" transform="translate(319.921875 0)"/>
      <use xlink:href="#DejaVuSans-20" transform="translate(383.398438 0)"/>
      <use xlink:href="#DejaVuSans-61" transform="translate(415.185547 0)"/>
      <use xlink:href="#DejaVuSans-63" transform="translate(476.464844 0)"/>
      <use xlink:href="#DejaVuSans-63" transform="translate(531.445312 0)"/>
      <use xlink:href="#DejaVuSans-65" transform="translate(586.425781 0)"/>
      <use xlink:href="#DejaVuSans-73" transform="translate(647.949219 0)"/>
      <use xlink:href="#DejaVuSans-73" transform="translate(700.048828 0)"/>
     </g>
    </g>
   </g>
  </g>
 </g>
 <defs>
  <clipPath id="pb387f83b48">
   <rect x="16.36274" y="6.799459" width="260.685457" height="245.882176"/>
  </clipPath>
 </defs>
</svg>
