<?xml version="1.0" encoding="utf-8" standalone="no"?>
<!DOCTYPE svg PUBLIC "-//W3C//DTD SVG 1.1//EN"
  "http://www.w3.org/Graphics/SVG/1.1/DTD/svg11.dtd">
<svg xmlns:xlink="http://www.w3.org/1999/xlink" width="432pt" height="288pt" viewBox="0 0 432 288" xmlns="http://www.w3.org/2000/svg" version="1.1">
 <metadata>
  <rdf:RDF xmlns:dc="http://purl.org/dc/elements/1.1/" xmlns:cc="http://creativecommons.org/ns#" xmlns:rdf="http://www.w3.org/1999/02/22-rdf-syntax-ns#">
   <cc:Work>
    <dc:type rdf:resource="http://purl.org/dc/dcmitype/StillImage"/>
    <dc:format>image/svg+xml</dc:format>
    <dc:creator>
     <cc:Agent>
      <dc:title>Gergő Pintér</dc:title>
     </cc:Agent>
    </dc:creator>
    <dc:rights>
     <cc:Agent>
      <dc:title>CC BY 4.0</dc:title>
     </cc:Agent>
    </dc:rights>
   </cc:Work>
  </rdf:RDF>
 </metadata>
 <defs>
  <style type="text/css">*{stroke-linejoin: round; stroke-linecap: butt}</style>
 </defs>
 <g id="figure_1">
  <g id="patch_1">
   <path d="M 0 288 
L 432 288 
L 432 0 
L 0 0 
z
" style="fill: #ffffff"/>
  </g>
  <g id="axes_1">
   <g id="patch_2">
    <path d="M 22.72524 252.681635 
L 421.048198 252.681635 
L 421.048198 3.00024 
L 22.72524 3.00024 
z
" style="fill: #ffffff"/>
   </g>
   <g id="matplotlib.axis_1">
    <g id="xtick_1">
     <g id="line2d_1">
      <path d="M 22.72524 252.681635 
L 22.72524 3.00024 
" clip-path="url(#p0f43fb2fd7)" style="fill: none; stroke: #e7e7e7; stroke-width: 0.8; stroke-linecap: square"/>
     </g>
     <g id="line2d_2">
      <defs>
       <path id="mbcb02aef95" d="M 0 0 
L 0 3.5 
" style="stroke: #000000; stroke-width: 0.8"/>
      </defs>
      <g>
       <use xlink:href="#mbcb02aef95" x="22.72524" y="252.681635" style="stroke: #000000; stroke-width: 0.8"/>
      </g>
     </g>
     <g id="text_1">
      <!-- −1.0 -->
      <g transform="translate(10.583834 267.280073) scale(0.1 -0.1)">
       <defs>
        <path id="DejaVuSans-2212" d="M 678 2272 
L 4684 2272 
L 4684 1741 
L 678 1741 
L 678 2272 
z
" transform="scale(0.015625)"/>
        <path id="DejaVuSans-31" d="M 794 531 
L 1825 531 
L 1825 4091 
L 703 3866 
L 703 4441 
L 1819 4666 
L 2450 4666 
L 2450 531 
L 3481 531 
L 3481 0 
L 794 0 
L 794 531 
z
" transform="scale(0.015625)"/>
        <path id="DejaVuSans-2e" d="M 684 794 
L 1344 794 
L 1344 0 
L 684 0 
L 684 794 
z
" transform="scale(0.015625)"/>
        <path id="DejaVuSans-30" d="M 2034 4250 
Q 1547 4250 1301 3770 
Q 1056 3291 1056 2328 
Q 1056 1369 1301 889 
Q 1547 409 2034 409 
Q 2525 409 2770 889 
Q 3016 1369 3016 2328 
Q 3016 3291 2770 3770 
Q 2525 4250 2034 4250 
z
M 2034 4750 
Q 2819 4750 3233 4129 
Q 3647 3509 3647 2328 
Q 3647 1150 3233 529 
Q 2819 -91 2034 -91 
Q 1250 -91 836 529 
Q 422 1150 422 2328 
Q 422 3509 836 4129 
Q 1250 4750 2034 4750 
z
" transform="scale(0.015625)"/>
       </defs>
       <use xlink:href="#DejaVuSans-2212"/>
       <use xlink:href="#DejaVuSans-31" transform="translate(83.789062 0)"/>
       <use xlink:href="#DejaVuSans-2e" transform="translate(147.412109 0)"/>
       <use xlink:href="#DejaVuSans-30" transform="translate(179.199219 0)"/>
      </g>
     </g>
    </g>
    <g id="xtick_2">
     <g id="line2d_3">
      <path d="M 102.389831 252.681635 
L 102.389831 3.00024 
" clip-path="url(#p0f43fb2fd7)" style="fill: none; stroke: #e7e7e7; stroke-width: 0.8; stroke-linecap: square"/>
     </g>
     <g id="line2d_4">
      <g>
       <use xlink:href="#mbcb02aef95" x="102.389831" y="252.681635" style="stroke: #000000; stroke-width: 0.8"/>
      </g>
     </g>
     <g id="text_2">
      <!-- −0.8 -->
      <g transform="translate(90.248425 267.280073) scale(0.1 -0.1)">
       <defs>
        <path id="DejaVuSans-38" d="M 2034 2216 
Q 1584 2216 1326 1975 
Q 1069 1734 1069 1313 
Q 1069 891 1326 650 
Q 1584 409 2034 409 
Q 2484 409 2743 651 
Q 3003 894 3003 1313 
Q 3003 1734 2745 1975 
Q 2488 2216 2034 2216 
z
M 1403 2484 
Q 997 2584 770 2862 
Q 544 3141 544 3541 
Q 544 4100 942 4425 
Q 1341 4750 2034 4750 
Q 2731 4750 3128 4425 
Q 3525 4100 3525 3541 
Q 3525 3141 3298 2862 
Q 3072 2584 2669 2484 
Q 3125 2378 3379 2068 
Q 3634 1759 3634 1313 
Q 3634 634 3220 271 
Q 2806 -91 2034 -91 
Q 1263 -91 848 271 
Q 434 634 434 1313 
Q 434 1759 690 2068 
Q 947 2378 1403 2484 
z
M 1172 3481 
Q 1172 3119 1398 2916 
Q 1625 2713 2034 2713 
Q 2441 2713 2670 2916 
Q 2900 3119 2900 3481 
Q 2900 3844 2670 4047 
Q 2441 4250 2034 4250 
Q 1625 4250 1398 4047 
Q 1172 3844 1172 3481 
z
" transform="scale(0.015625)"/>
       </defs>
       <use xlink:href="#DejaVuSans-2212"/>
       <use xlink:href="#DejaVuSans-30" transform="translate(83.789062 0)"/>
       <use xlink:href="#DejaVuSans-2e" transform="translate(147.412109 0)"/>
       <use xlink:href="#DejaVuSans-38" transform="translate(179.199219 0)"/>
      </g>
     </g>
    </g>
    <g id="xtick_3">
     <g id="line2d_5">
      <path d="M 182.054423 252.681635 
L 182.054423 3.00024 
" clip-path="url(#p0f43fb2fd7)" style="fill: none; stroke: #e7e7e7; stroke-width: 0.8; stroke-linecap: square"/>
     </g>
     <g id="line2d_6">
      <g>
       <use xlink:href="#mbcb02aef95" x="182.054423" y="252.681635" style="stroke: #000000; stroke-width: 0.8"/>
      </g>
     </g>
     <g id="text_3">
      <!-- −0.6 -->
      <g transform="translate(169.913017 267.280073) scale(0.1 -0.1)">
       <defs>
        <path id="DejaVuSans-36" d="M 2113 2584 
Q 1688 2584 1439 2293 
Q 1191 2003 1191 1497 
Q 1191 994 1439 701 
Q 1688 409 2113 409 
Q 2538 409 2786 701 
Q 3034 994 3034 1497 
Q 3034 2003 2786 2293 
Q 2538 2584 2113 2584 
z
M 3366 4563 
L 3366 3988 
Q 3128 4100 2886 4159 
Q 2644 4219 2406 4219 
Q 1781 4219 1451 3797 
Q 1122 3375 1075 2522 
Q 1259 2794 1537 2939 
Q 1816 3084 2150 3084 
Q 2853 3084 3261 2657 
Q 3669 2231 3669 1497 
Q 3669 778 3244 343 
Q 2819 -91 2113 -91 
Q 1303 -91 875 529 
Q 447 1150 447 2328 
Q 447 3434 972 4092 
Q 1497 4750 2381 4750 
Q 2619 4750 2861 4703 
Q 3103 4656 3366 4563 
z
" transform="scale(0.015625)"/>
       </defs>
       <use xlink:href="#DejaVuSans-2212"/>
       <use xlink:href="#DejaVuSans-30" transform="translate(83.789062 0)"/>
       <use xlink:href="#DejaVuSans-2e" transform="translate(147.412109 0)"/>
       <use xlink:href="#DejaVuSans-36" transform="translate(179.199219 0)"/>
      </g>
     </g>
    </g>
    <g id="xtick_4">
     <g id="line2d_7">
      <path d="M 261.719015 252.681635 
L 261.719015 3.00024 
" clip-path="url(#p0f43fb2fd7)" style="fill: none; stroke: #e7e7e7; stroke-width: 0.8; stroke-linecap: square"/>
     </g>
     <g id="line2d_8">
      <g>
       <use xlink:href="#mbcb02aef95" x="261.719015" y="252.681635" style="stroke: #000000; stroke-width: 0.8"/>
      </g>
     </g>
     <g id="text_4">
      <!-- −0.4 -->
      <g transform="translate(249.577608 267.280073) scale(0.1 -0.1)">
       <defs>
        <path id="DejaVuSans-34" d="M 2419 4116 
L 825 1625 
L 2419 1625 
L 2419 4116 
z
M 2253 4666 
L 3047 4666 
L 3047 1625 
L 3713 1625 
L 3713 1100 
L 3047 1100 
L 3047 0 
L 2419 0 
L 2419 1100 
L 313 1100 
L 313 1709 
L 2253 4666 
z
" transform="scale(0.015625)"/>
       </defs>
       <use xlink:href="#DejaVuSans-2212"/>
       <use xlink:href="#DejaVuSans-30" transform="translate(83.789062 0)"/>
       <use xlink:href="#DejaVuSans-2e" transform="translate(147.412109 0)"/>
       <use xlink:href="#DejaVuSans-34" transform="translate(179.199219 0)"/>
      </g>
     </g>
    </g>
    <g id="xtick_5">
     <g id="line2d_9">
      <path d="M 341.383606 252.681635 
L 341.383606 3.00024 
" clip-path="url(#p0f43fb2fd7)" style="fill: none; stroke: #e7e7e7; stroke-width: 0.8; stroke-linecap: square"/>
     </g>
     <g id="line2d_10">
      <g>
       <use xlink:href="#mbcb02aef95" x="341.383606" y="252.681635" style="stroke: #000000; stroke-width: 0.8"/>
      </g>
     </g>
     <g id="text_5">
      <!-- −0.2 -->
      <g transform="translate(329.2422 267.280073) scale(0.1 -0.1)">
       <defs>
        <path id="DejaVuSans-32" d="M 1228 531 
L 3431 531 
L 3431 0 
L 469 0 
L 469 531 
Q 828 903 1448 1529 
Q 2069 2156 2228 2338 
Q 2531 2678 2651 2914 
Q 2772 3150 2772 3378 
Q 2772 3750 2511 3984 
Q 2250 4219 1831 4219 
Q 1534 4219 1204 4116 
Q 875 4013 500 3803 
L 500 4441 
Q 881 4594 1212 4672 
Q 1544 4750 1819 4750 
Q 2544 4750 2975 4387 
Q 3406 4025 3406 3419 
Q 3406 3131 3298 2873 
Q 3191 2616 2906 2266 
Q 2828 2175 2409 1742 
Q 1991 1309 1228 531 
z
" transform="scale(0.015625)"/>
       </defs>
       <use xlink:href="#DejaVuSans-2212"/>
       <use xlink:href="#DejaVuSans-30" transform="translate(83.789062 0)"/>
       <use xlink:href="#DejaVuSans-2e" transform="translate(147.412109 0)"/>
       <use xlink:href="#DejaVuSans-32" transform="translate(179.199219 0)"/>
      </g>
     </g>
    </g>
    <g id="xtick_6">
     <g id="line2d_11">
      <path d="M 421.048198 252.681635 
L 421.048198 3.00024 
" clip-path="url(#p0f43fb2fd7)" style="fill: none; stroke: #e7e7e7; stroke-width: 0.8; stroke-linecap: square"/>
     </g>
     <g id="line2d_12">
      <g>
       <use xlink:href="#mbcb02aef95" x="421.048198" y="252.681635" style="stroke: #000000; stroke-width: 0.8"/>
      </g>
     </g>
     <g id="text_6">
      <!-- 0.0 -->
      <g transform="translate(413.096635 267.280073) scale(0.1 -0.1)">
       <use xlink:href="#DejaVuSans-30"/>
       <use xlink:href="#DejaVuSans-2e" transform="translate(63.623047 0)"/>
       <use xlink:href="#DejaVuSans-30" transform="translate(95.410156 0)"/>
      </g>
     </g>
    </g>
    <g id="text_7">
     <!-- $log_{10}$ Gini -->
     <g transform="translate(193.506719 282.47976) scale(0.12 -0.12)">
      <defs>
       <path id="DejaVuSans-Oblique-6c" d="M 1172 4863 
L 1747 4863 
L 800 0 
L 225 0 
L 1172 4863 
z
" transform="scale(0.015625)"/>
       <path id="DejaVuSans-Oblique-6f" d="M 1625 -91 
Q 1009 -91 651 289 
Q 294 669 294 1325 
Q 294 1706 417 2101 
Q 541 2497 738 2766 
Q 1047 3184 1428 3384 
Q 1809 3584 2291 3584 
Q 2888 3584 3255 3212 
Q 3622 2841 3622 2241 
Q 3622 1825 3500 1412 
Q 3378 1000 3181 728 
Q 2875 309 2494 109 
Q 2113 -91 1625 -91 
z
M 891 1344 
Q 891 869 1089 633 
Q 1288 397 1691 397 
Q 2269 397 2648 901 
Q 3028 1406 3028 2181 
Q 3028 2634 2825 2865 
Q 2622 3097 2228 3097 
Q 1903 3097 1650 2945 
Q 1397 2794 1197 2484 
Q 1050 2253 970 1956 
Q 891 1659 891 1344 
z
" transform="scale(0.015625)"/>
       <path id="DejaVuSans-Oblique-67" d="M 3816 3500 
L 3219 434 
Q 3047 -456 2561 -893 
Q 2075 -1331 1253 -1331 
Q 950 -1331 690 -1286 
Q 431 -1241 206 -1147 
L 313 -588 
Q 525 -725 762 -790 
Q 1000 -856 1269 -856 
Q 1816 -856 2167 -557 
Q 2519 -259 2631 300 
L 2681 563 
Q 2441 288 2122 144 
Q 1803 0 1434 0 
Q 903 0 598 351 
Q 294 703 294 1319 
Q 294 1803 478 2267 
Q 663 2731 997 3091 
Q 1219 3328 1514 3456 
Q 1809 3584 2131 3584 
Q 2484 3584 2746 3420 
Q 3009 3256 3138 2956 
L 3238 3500 
L 3816 3500 
z
M 2950 2216 
Q 2950 2641 2750 2872 
Q 2550 3103 2181 3103 
Q 1953 3103 1747 3012 
Q 1541 2922 1394 2759 
Q 1156 2491 1023 2127 
Q 891 1763 891 1375 
Q 891 944 1092 712 
Q 1294 481 1672 481 
Q 2219 481 2584 976 
Q 2950 1472 2950 2216 
z
" transform="scale(0.015625)"/>
       <path id="DejaVuSans-20" transform="scale(0.015625)"/>
       <path id="DejaVuSans-47" d="M 3809 666 
L 3809 1919 
L 2778 1919 
L 2778 2438 
L 4434 2438 
L 4434 434 
Q 4069 175 3628 42 
Q 3188 -91 2688 -91 
Q 1594 -91 976 548 
Q 359 1188 359 2328 
Q 359 3472 976 4111 
Q 1594 4750 2688 4750 
Q 3144 4750 3555 4637 
Q 3966 4525 4313 4306 
L 4313 3634 
Q 3963 3931 3569 4081 
Q 3175 4231 2741 4231 
Q 1884 4231 1454 3753 
Q 1025 3275 1025 2328 
Q 1025 1384 1454 906 
Q 1884 428 2741 428 
Q 3075 428 3337 486 
Q 3600 544 3809 666 
z
" transform="scale(0.015625)"/>
       <path id="DejaVuSans-69" d="M 603 3500 
L 1178 3500 
L 1178 0 
L 603 0 
L 603 3500 
z
M 603 4863 
L 1178 4863 
L 1178 4134 
L 603 4134 
L 603 4863 
z
" transform="scale(0.015625)"/>
       <path id="DejaVuSans-6e" d="M 3513 2113 
L 3513 0 
L 2938 0 
L 2938 2094 
Q 2938 2591 2744 2837 
Q 2550 3084 2163 3084 
Q 1697 3084 1428 2787 
Q 1159 2491 1159 1978 
L 1159 0 
L 581 0 
L 581 3500 
L 1159 3500 
L 1159 2956 
Q 1366 3272 1645 3428 
Q 1925 3584 2291 3584 
Q 2894 3584 3203 3211 
Q 3513 2838 3513 2113 
z
" transform="scale(0.015625)"/>
      </defs>
      <use xlink:href="#DejaVuSans-Oblique-6c" transform="translate(0 0.015625)"/>
      <use xlink:href="#DejaVuSans-Oblique-6f" transform="translate(27.783203 0.015625)"/>
      <use xlink:href="#DejaVuSans-Oblique-67" transform="translate(88.964844 0.015625)"/>
      <use xlink:href="#DejaVuSans-31" transform="translate(152.441406 -16.390625) scale(0.7)"/>
      <use xlink:href="#DejaVuSans-30" transform="translate(196.977539 -16.390625) scale(0.7)"/>
      <use xlink:href="#DejaVuSans-20" transform="translate(244.248047 0.015625)"/>
      <use xlink:href="#DejaVuSans-47" transform="translate(276.035156 0.015625)"/>
      <use xlink:href="#DejaVuSans-69" transform="translate(353.525391 0.015625)"/>
      <use xlink:href="#DejaVuSans-6e" transform="translate(381.308594 0.015625)"/>
      <use xlink:href="#DejaVuSans-69" transform="translate(444.6875 0.015625)"/>
     </g>
    </g>
   </g>
   <g id="matplotlib.axis_2">
    <g id="ytick_1">
     <g id="line2d_13">
      <path d="M 22.72524 252.681635 
L 421.048198 252.681635 
" clip-path="url(#p0f43fb2fd7)" style="fill: none; stroke: #e7e7e7; stroke-width: 0.8; stroke-linecap: square"/>
     </g>
     <g id="line2d_14">
      <defs>
       <path id="me5179b328b" d="M 0 0 
L -3.5 0 
" style="stroke: #000000; stroke-width: 0.8"/>
      </defs>
      <g>
       <use xlink:href="#me5179b328b" x="22.72524" y="252.681635" style="stroke: #000000; stroke-width: 0.8"/>
      </g>
     </g>
     <g id="text_8">
      <!-- 0 -->
      <g transform="translate(9.36274 256.480854) scale(0.1 -0.1)">
       <use xlink:href="#DejaVuSans-30"/>
      </g>
     </g>
    </g>
    <g id="ytick_2">
     <g id="line2d_15">
      <path d="M 22.72524 219.390782 
L 421.048198 219.390782 
" clip-path="url(#p0f43fb2fd7)" style="fill: none; stroke: #e7e7e7; stroke-width: 0.8; stroke-linecap: square"/>
     </g>
     <g id="line2d_16">
      <g>
       <use xlink:href="#me5179b328b" x="22.72524" y="219.390782" style="stroke: #000000; stroke-width: 0.8"/>
      </g>
     </g>
     <g id="text_9">
      <!-- 2 -->
      <g transform="translate(9.36274 223.190001) scale(0.1 -0.1)">
       <use xlink:href="#DejaVuSans-32"/>
      </g>
     </g>
    </g>
    <g id="ytick_3">
     <g id="line2d_17">
      <path d="M 22.72524 186.09993 
L 421.048198 186.09993 
" clip-path="url(#p0f43fb2fd7)" style="fill: none; stroke: #e7e7e7; stroke-width: 0.8; stroke-linecap: square"/>
     </g>
     <g id="line2d_18">
      <g>
       <use xlink:href="#me5179b328b" x="22.72524" y="186.09993" style="stroke: #000000; stroke-width: 0.8"/>
      </g>
     </g>
     <g id="text_10">
      <!-- 4 -->
      <g transform="translate(9.36274 189.899148) scale(0.1 -0.1)">
       <use xlink:href="#DejaVuSans-34"/>
      </g>
     </g>
    </g>
    <g id="ytick_4">
     <g id="line2d_19">
      <path d="M 22.72524 152.809077 
L 421.048198 152.809077 
" clip-path="url(#p0f43fb2fd7)" style="fill: none; stroke: #e7e7e7; stroke-width: 0.8; stroke-linecap: square"/>
     </g>
     <g id="line2d_20">
      <g>
       <use xlink:href="#me5179b328b" x="22.72524" y="152.809077" style="stroke: #000000; stroke-width: 0.8"/>
      </g>
     </g>
     <g id="text_11">
      <!-- 6 -->
      <g transform="translate(9.36274 156.608296) scale(0.1 -0.1)">
       <use xlink:href="#DejaVuSans-36"/>
      </g>
     </g>
    </g>
    <g id="ytick_5">
     <g id="line2d_21">
      <path d="M 22.72524 119.518224 
L 421.048198 119.518224 
" clip-path="url(#p0f43fb2fd7)" style="fill: none; stroke: #e7e7e7; stroke-width: 0.8; stroke-linecap: square"/>
     </g>
     <g id="line2d_22">
      <g>
       <use xlink:href="#me5179b328b" x="22.72524" y="119.518224" style="stroke: #000000; stroke-width: 0.8"/>
      </g>
     </g>
     <g id="text_12">
      <!-- 8 -->
      <g transform="translate(9.36274 123.317443) scale(0.1 -0.1)">
       <use xlink:href="#DejaVuSans-38"/>
      </g>
     </g>
    </g>
    <g id="ytick_6">
     <g id="line2d_23">
      <path d="M 22.72524 86.227372 
L 421.048198 86.227372 
" clip-path="url(#p0f43fb2fd7)" style="fill: none; stroke: #e7e7e7; stroke-width: 0.8; stroke-linecap: square"/>
     </g>
     <g id="line2d_24">
      <g>
       <use xlink:href="#me5179b328b" x="22.72524" y="86.227372" style="stroke: #000000; stroke-width: 0.8"/>
      </g>
     </g>
     <g id="text_13">
      <!-- 10 -->
      <g transform="translate(3.00024 90.02659) scale(0.1 -0.1)">
       <use xlink:href="#DejaVuSans-31"/>
       <use xlink:href="#DejaVuSans-30" transform="translate(63.623047 0)"/>
      </g>
     </g>
    </g>
    <g id="ytick_7">
     <g id="line2d_25">
      <path d="M 22.72524 52.936519 
L 421.048198 52.936519 
" clip-path="url(#p0f43fb2fd7)" style="fill: none; stroke: #e7e7e7; stroke-width: 0.8; stroke-linecap: square"/>
     </g>
     <g id="line2d_26">
      <g>
       <use xlink:href="#me5179b328b" x="22.72524" y="52.936519" style="stroke: #000000; stroke-width: 0.8"/>
      </g>
     </g>
     <g id="text_14">
      <!-- 12 -->
      <g transform="translate(3.00024 56.735738) scale(0.1 -0.1)">
       <use xlink:href="#DejaVuSans-31"/>
       <use xlink:href="#DejaVuSans-32" transform="translate(63.623047 0)"/>
      </g>
     </g>
    </g>
    <g id="ytick_8">
     <g id="line2d_27">
      <path d="M 22.72524 19.645666 
L 421.048198 19.645666 
" clip-path="url(#p0f43fb2fd7)" style="fill: none; stroke: #e7e7e7; stroke-width: 0.8; stroke-linecap: square"/>
     </g>
     <g id="line2d_28">
      <g>
       <use xlink:href="#me5179b328b" x="22.72524" y="19.645666" style="stroke: #000000; stroke-width: 0.8"/>
      </g>
     </g>
     <g id="text_15">
      <!-- 14 -->
      <g transform="translate(3.00024 23.444885) scale(0.1 -0.1)">
       <use xlink:href="#DejaVuSans-31"/>
       <use xlink:href="#DejaVuSans-34" transform="translate(63.623047 0)"/>
      </g>
     </g>
    </g>
   </g>
   <g id="FillBetweenPolyCollection_1">
    <defs>
     <path id="mb8a0ba6d34" d="M 170.021017 -35.406352 
L 170.021017 -35.318365 
L 170.368286 -35.318365 
L 170.715555 -35.318365 
L 171.062824 -35.318365 
L 171.410093 -35.318365 
L 171.757362 -35.318365 
L 172.104631 -35.318365 
L 172.451901 -35.318365 
L 172.79917 -35.318365 
L 173.146439 -35.318365 
L 173.493708 -35.318365 
L 173.840977 -35.318365 
L 174.188246 -35.318365 
L 174.535515 -35.318365 
L 174.882784 -35.318365 
L 175.230053 -35.318365 
L 175.577323 -35.318365 
L 175.924592 -35.318365 
L 176.271861 -35.318365 
L 176.61913 -35.318365 
L 176.966399 -35.318365 
L 177.313668 -35.318365 
L 177.660937 -35.318365 
L 178.008206 -35.318365 
L 178.355475 -35.318365 
L 178.702744 -35.318365 
L 179.050014 -35.318365 
L 179.397283 -35.318365 
L 179.744552 -35.318365 
L 180.091821 -35.318365 
L 180.43909 -35.318365 
L 180.786359 -35.318365 
L 181.133628 -35.318365 
L 181.480897 -35.318365 
L 181.828166 -35.318365 
L 182.175436 -35.318365 
L 182.522705 -35.318365 
L 182.869974 -35.318365 
L 183.217243 -35.318365 
L 183.564512 -35.318365 
L 183.911781 -35.318365 
L 184.25905 -35.318365 
L 184.606319 -35.318365 
L 184.953588 -35.318365 
L 185.300858 -35.318365 
L 185.648127 -35.318365 
L 185.995396 -35.318365 
L 186.342665 -35.318365 
L 186.689934 -35.318365 
L 187.037203 -35.318365 
L 187.384472 -35.318365 
L 187.731741 -35.318365 
L 188.07901 -35.318365 
L 188.426279 -35.318365 
L 188.773549 -35.318365 
L 189.120818 -35.318365 
L 189.468087 -35.318365 
L 189.815356 -35.318365 
L 190.162625 -35.318365 
L 190.509894 -35.318365 
L 190.857163 -35.318365 
L 191.204432 -35.318365 
L 191.551701 -35.318365 
L 191.898971 -35.318365 
L 192.24624 -35.318365 
L 192.593509 -35.318365 
L 192.940778 -35.318365 
L 193.288047 -35.318365 
L 193.635316 -35.318365 
L 193.982585 -35.318365 
L 194.329854 -35.318365 
L 194.677123 -35.318365 
L 195.024393 -35.318365 
L 195.371662 -35.318365 
L 195.718931 -35.318365 
L 196.0662 -35.318365 
L 196.413469 -35.318365 
L 196.760738 -35.318365 
L 197.108007 -35.318365 
L 197.455276 -35.318365 
L 197.802545 -35.318365 
L 198.149814 -35.318365 
L 198.497084 -35.318365 
L 198.844353 -35.318365 
L 199.191622 -35.318365 
L 199.538891 -35.318365 
L 199.88616 -35.318365 
L 200.233429 -35.318365 
L 200.580698 -35.318365 
L 200.927967 -35.318365 
L 201.275236 -35.318365 
L 201.622506 -35.318365 
L 201.969775 -35.318365 
L 202.317044 -35.318365 
L 202.664313 -35.318365 
L 203.011582 -35.318365 
L 203.358851 -35.318365 
L 203.70612 -35.318365 
L 204.053389 -35.318365 
L 204.400658 -35.318365 
L 204.747928 -35.318365 
L 205.095197 -35.318365 
L 205.442466 -35.318365 
L 205.789735 -35.318365 
L 206.137004 -35.318365 
L 206.484273 -35.318365 
L 206.831542 -35.318365 
L 207.178811 -35.318365 
L 207.52608 -35.318365 
L 207.873349 -35.318365 
L 208.220619 -35.318365 
L 208.567888 -35.318365 
L 208.915157 -35.318365 
L 209.262426 -35.318365 
L 209.609695 -35.318365 
L 209.956964 -35.318365 
L 210.304233 -35.318365 
L 210.651502 -35.318365 
L 210.998771 -35.318365 
L 211.346041 -35.318365 
L 211.69331 -35.318365 
L 212.040579 -35.318365 
L 212.387848 -35.318365 
L 212.735117 -35.318365 
L 213.082386 -35.318365 
L 213.429655 -35.318365 
L 213.776924 -35.318365 
L 214.124193 -35.318365 
L 214.471463 -35.318365 
L 214.818732 -35.318365 
L 215.166001 -35.318365 
L 215.51327 -35.318365 
L 215.860539 -35.318365 
L 216.207808 -35.318365 
L 216.555077 -35.318365 
L 216.902346 -35.318365 
L 217.249615 -35.318365 
L 217.596884 -35.318365 
L 217.944154 -35.318365 
L 218.291423 -35.318365 
L 218.638692 -35.318365 
L 218.985961 -35.318365 
L 219.33323 -35.318365 
L 219.680499 -35.318365 
L 220.027768 -35.318365 
L 220.375037 -35.318365 
L 220.722306 -35.318365 
L 221.069576 -35.318365 
L 221.416845 -35.318365 
L 221.764114 -35.318365 
L 222.111383 -35.318365 
L 222.458652 -35.318365 
L 222.805921 -35.318365 
L 223.15319 -35.318365 
L 223.500459 -35.318365 
L 223.847728 -35.318365 
L 224.194998 -35.318365 
L 224.542267 -35.318365 
L 224.889536 -35.318365 
L 225.236805 -35.318365 
L 225.584074 -35.318365 
L 225.931343 -35.318365 
L 226.278612 -35.318365 
L 226.625881 -35.318365 
L 226.97315 -35.318365 
L 227.320419 -35.318365 
L 227.667689 -35.318365 
L 228.014958 -35.318365 
L 228.362227 -35.318365 
L 228.709496 -35.318365 
L 229.056765 -35.318365 
L 229.404034 -35.318365 
L 229.751303 -35.318365 
L 230.098572 -35.318365 
L 230.445841 -35.318365 
L 230.793111 -35.318365 
L 231.14038 -35.318365 
L 231.487649 -35.318365 
L 231.834918 -35.318365 
L 232.182187 -35.318365 
L 232.529456 -35.318365 
L 232.876725 -35.318365 
L 233.223994 -35.318365 
L 233.571263 -35.318365 
L 233.918532 -35.318365 
L 234.265802 -35.318365 
L 234.613071 -35.318365 
L 234.96034 -35.318365 
L 235.307609 -35.318365 
L 235.654878 -35.318365 
L 236.002147 -35.318365 
L 236.349416 -35.318365 
L 236.696685 -35.318365 
L 237.043954 -35.318365 
L 237.391224 -35.318365 
L 237.738493 -35.318365 
L 238.085762 -35.318365 
L 238.433031 -35.318365 
L 238.7803 -35.318365 
L 239.127569 -35.318365 
L 239.127569 -35.331519 
L 239.127569 -35.331519 
L 238.7803 -35.340272 
L 238.433031 -35.354098 
L 238.085762 -35.375463 
L 237.738493 -35.407769 
L 237.391224 -35.455573 
L 237.043954 -35.524819 
L 236.696685 -35.623032 
L 236.349416 -35.759461 
L 236.002147 -35.945142 
L 235.654878 -36.192837 
L 235.307609 -36.516864 
L 234.96034 -36.932795 
L 234.613071 -37.457086 
L 234.265802 -38.106695 
L 233.918532 -38.898796 
L 233.571263 -39.850716 
L 233.223994 -40.980233 
L 232.876725 -42.306347 
L 232.529456 -43.850595 
L 232.182187 -45.638901 
L 231.834918 -47.703853 
L 231.487649 -50.087157 
L 231.14038 -52.84193 
L 230.793111 -56.034363 
L 230.445841 -59.74424 
L 230.098572 -64.063775 
L 229.751303 -69.094313 
L 229.404034 -74.940557 
L 229.056765 -81.702257 
L 228.709496 -89.463565 
L 228.362227 -98.280697 
L 228.014958 -108.168904 
L 227.667689 -119.09021 
L 227.320419 -130.943612 
L 226.97315 -143.559592 
L 226.625881 -156.700603 
L 226.278612 -170.068708 
L 225.931343 -183.320764 
L 225.584074 -196.090458 
L 225.236805 -208.015419 
L 224.889536 -218.766549 
L 224.542267 -228.076133 
L 224.194998 -235.761042 
L 223.847728 -241.737907 
L 223.500459 -246.028084 
L 223.15319 -248.751715 
L 222.805921 -250.111714 
L 222.458652 -250.369927 
L 222.111383 -249.818692 
L 221.764114 -248.75141 
L 221.416845 -247.435582 
L 221.069576 -246.091024 
L 220.722306 -244.874996 
L 220.375037 -243.874855 
L 220.027768 -243.107894 
L 219.680499 -242.527291 
L 219.33323 -242.032689 
L 218.985961 -241.483833 
L 218.638692 -240.715763 
L 218.291423 -239.554293 
L 217.944154 -237.830763 
L 217.596884 -235.395266 
L 217.249615 -232.127767 
L 216.902346 -227.946625 
L 216.555077 -222.814213 
L 216.207808 -216.739386 
L 215.860539 -209.776725 
L 215.51327 -202.022631 
L 215.166001 -193.608542 
L 214.818732 -184.691765 
L 214.471463 -175.444644 
L 214.124193 -166.042969 
L 213.776924 -156.654674 
L 213.429655 -147.429874 
L 213.082386 -138.493213 
L 212.735117 -129.9392 
L 212.387848 -121.830883 
L 212.040579 -114.201736 
L 211.69331 -107.06024 
L 211.346041 -100.396283 
L 210.998771 -94.188312 
L 210.651502 -88.410178 
L 210.304233 -83.036763 
L 209.956964 -78.04778 
L 209.609695 -73.42952 
L 209.262426 -69.174643 
L 208.915157 -65.280448 
L 208.567888 -61.746193 
L 208.220619 -58.57012 
L 207.873349 -55.746791 
L 207.52608 -53.265157 
L 207.178811 -51.107646 
L 206.831542 -49.250319 
L 206.484273 -47.663971 
L 206.137004 -46.315932 
L 205.789735 -45.172258 
L 205.442466 -44.199944 
L 205.095197 -43.368902 
L 204.747928 -42.653452 
L 204.400658 -42.033211 
L 204.053389 -41.493349 
L 203.70612 -41.024257 
L 203.358851 -40.620735 
L 203.011582 -40.280857 
L 202.664313 -40.004663 
L 202.317044 -39.792852 
L 201.969775 -39.645617 
L 201.622506 -39.561752 
L 201.275236 -39.538127 
L 200.927967 -39.569589 
L 200.580698 -39.649294 
L 200.233429 -39.76941 
L 199.88616 -39.922092 
L 199.538891 -40.100551 
L 199.191622 -40.300025 
L 198.844353 -40.518452 
L 198.497084 -40.756684 
L 198.149814 -41.018134 
L 197.802545 -41.307879 
L 197.455276 -41.631302 
L 197.108007 -41.99248 
L 196.760738 -42.39257 
L 196.413469 -42.828468 
L 196.0662 -43.291988 
L 195.718931 -43.769725 
L 195.371662 -44.243683 
L 195.024393 -44.692608 
L 194.677123 -45.09388 
L 194.329854 -45.425722 
L 193.982585 -45.669432 
L 193.635316 -45.811342 
L 193.288047 -45.844237 
L 192.940778 -45.768048 
L 192.593509 -45.58971 
L 192.24624 -45.322239 
L 191.898971 -44.983134 
L 191.551701 -44.592363 
L 191.204432 -44.170202 
L 190.857163 -43.735245 
L 190.509894 -43.302835 
L 190.162625 -42.884105 
L 189.815356 -42.485707 
L 189.468087 -42.110171 
L 189.120818 -41.75677 
L 188.773549 -41.422662 
L 188.426279 -41.104098 
L 188.07901 -40.79747 
L 187.731741 -40.500079 
L 187.384472 -40.210563 
L 187.037203 -39.928998 
L 186.689934 -39.656783 
L 186.342665 -39.396403 
L 185.995396 -39.151191 
L 185.648127 -38.925149 
L 185.300858 -38.72284 
L 184.953588 -38.549321 
L 184.606319 -38.410049 
L 184.25905 -38.310703 
L 183.911781 -38.256898 
L 183.564512 -38.253791 
L 183.217243 -38.305667 
L 182.869974 -38.415584 
L 182.522705 -38.585173 
L 182.175436 -38.814643 
L 181.828166 -39.102969 
L 181.480897 -39.448177 
L 181.133628 -39.847557 
L 180.786359 -40.297652 
L 180.43909 -40.793875 
L 180.091821 -41.329727 
L 179.744552 -41.89571 
L 179.397283 -42.478172 
L 179.050014 -43.05843 
L 178.702744 -43.612529 
L 178.355475 -44.111935 
L 178.008206 -44.525318 
L 177.660937 -44.821298 
L 177.313668 -44.971861 
L 176.966399 -44.955895 
L 176.61913 -44.762253 
L 176.271861 -44.391768 
L 175.924592 -43.857809 
L 175.577323 -43.185245 
L 175.230053 -42.407967 
L 174.882784 -41.565353 
L 174.535515 -40.698263 
L 174.188246 -39.84517 
L 173.840977 -39.038954 
L 173.493708 -38.304742 
L 173.146439 -37.658923 
L 172.79917 -37.1093 
L 172.451901 -36.656135 
L 172.104631 -36.293777 
L 171.757362 -36.012546 
L 171.410093 -35.800548 
L 171.062824 -35.645245 
L 170.715555 -35.534632 
L 170.368286 -35.458003 
L 170.021017 -35.406352 
z
" style="stroke: #0071b2; stroke-width: 1.5"/>
    </defs>
    <g clip-path="url(#p0f43fb2fd7)">
     <use xlink:href="#mb8a0ba6d34" x="0" y="288" style="fill: #0071b2; fill-opacity: 0.75; stroke: #0071b2; stroke-width: 1.5"/>
    </g>
   </g>
   <g id="FillBetweenPolyCollection_2">
    <defs>
     <path id="m422462c109" d="M 158.981885 -35.331727 
L 158.981885 -35.318365 
L 159.395783 -35.318365 
L 159.809681 -35.318365 
L 160.223578 -35.318365 
L 160.637476 -35.318365 
L 161.051374 -35.318365 
L 161.465272 -35.318365 
L 161.879169 -35.318365 
L 162.293067 -35.318365 
L 162.706965 -35.318365 
L 163.120863 -35.318365 
L 163.53476 -35.318365 
L 163.948658 -35.318365 
L 164.362556 -35.318365 
L 164.776454 -35.318365 
L 165.190351 -35.318365 
L 165.604249 -35.318365 
L 166.018147 -35.318365 
L 166.432044 -35.318365 
L 166.845942 -35.318365 
L 167.25984 -35.318365 
L 167.673738 -35.318365 
L 168.087635 -35.318365 
L 168.501533 -35.318365 
L 168.915431 -35.318365 
L 169.329329 -35.318365 
L 169.743226 -35.318365 
L 170.157124 -35.318365 
L 170.571022 -35.318365 
L 170.98492 -35.318365 
L 171.398817 -35.318365 
L 171.812715 -35.318365 
L 172.226613 -35.318365 
L 172.64051 -35.318365 
L 173.054408 -35.318365 
L 173.468306 -35.318365 
L 173.882204 -35.318365 
L 174.296101 -35.318365 
L 174.709999 -35.318365 
L 175.123897 -35.318365 
L 175.537795 -35.318365 
L 175.951692 -35.318365 
L 176.36559 -35.318365 
L 176.779488 -35.318365 
L 177.193386 -35.318365 
L 177.607283 -35.318365 
L 178.021181 -35.318365 
L 178.435079 -35.318365 
L 178.848976 -35.318365 
L 179.262874 -35.318365 
L 179.676772 -35.318365 
L 180.09067 -35.318365 
L 180.504567 -35.318365 
L 180.918465 -35.318365 
L 181.332363 -35.318365 
L 181.746261 -35.318365 
L 182.160158 -35.318365 
L 182.574056 -35.318365 
L 182.987954 -35.318365 
L 183.401852 -35.318365 
L 183.815749 -35.318365 
L 184.229647 -35.318365 
L 184.643545 -35.318365 
L 185.057442 -35.318365 
L 185.47134 -35.318365 
L 185.885238 -35.318365 
L 186.299136 -35.318365 
L 186.713033 -35.318365 
L 187.126931 -35.318365 
L 187.540829 -35.318365 
L 187.954727 -35.318365 
L 188.368624 -35.318365 
L 188.782522 -35.318365 
L 189.19642 -35.318365 
L 189.610318 -35.318365 
L 190.024215 -35.318365 
L 190.438113 -35.318365 
L 190.852011 -35.318365 
L 191.265908 -35.318365 
L 191.679806 -35.318365 
L 192.093704 -35.318365 
L 192.507602 -35.318365 
L 192.921499 -35.318365 
L 193.335397 -35.318365 
L 193.749295 -35.318365 
L 194.163193 -35.318365 
L 194.57709 -35.318365 
L 194.990988 -35.318365 
L 195.404886 -35.318365 
L 195.818783 -35.318365 
L 196.232681 -35.318365 
L 196.646579 -35.318365 
L 197.060477 -35.318365 
L 197.474374 -35.318365 
L 197.888272 -35.318365 
L 198.30217 -35.318365 
L 198.716068 -35.318365 
L 199.129965 -35.318365 
L 199.543863 -35.318365 
L 199.957761 -35.318365 
L 200.371659 -35.318365 
L 200.785556 -35.318365 
L 201.199454 -35.318365 
L 201.613352 -35.318365 
L 202.027249 -35.318365 
L 202.441147 -35.318365 
L 202.855045 -35.318365 
L 203.268943 -35.318365 
L 203.68284 -35.318365 
L 204.096738 -35.318365 
L 204.510636 -35.318365 
L 204.924534 -35.318365 
L 205.338431 -35.318365 
L 205.752329 -35.318365 
L 206.166227 -35.318365 
L 206.580125 -35.318365 
L 206.994022 -35.318365 
L 207.40792 -35.318365 
L 207.821818 -35.318365 
L 208.235715 -35.318365 
L 208.649613 -35.318365 
L 209.063511 -35.318365 
L 209.477409 -35.318365 
L 209.891306 -35.318365 
L 210.305204 -35.318365 
L 210.719102 -35.318365 
L 211.133 -35.318365 
L 211.546897 -35.318365 
L 211.960795 -35.318365 
L 212.374693 -35.318365 
L 212.788591 -35.318365 
L 213.202488 -35.318365 
L 213.616386 -35.318365 
L 214.030284 -35.318365 
L 214.444181 -35.318365 
L 214.858079 -35.318365 
L 215.271977 -35.318365 
L 215.685875 -35.318365 
L 216.099772 -35.318365 
L 216.51367 -35.318365 
L 216.927568 -35.318365 
L 217.341466 -35.318365 
L 217.755363 -35.318365 
L 218.169261 -35.318365 
L 218.583159 -35.318365 
L 218.997057 -35.318365 
L 219.410954 -35.318365 
L 219.824852 -35.318365 
L 220.23875 -35.318365 
L 220.652647 -35.318365 
L 221.066545 -35.318365 
L 221.480443 -35.318365 
L 221.894341 -35.318365 
L 222.308238 -35.318365 
L 222.722136 -35.318365 
L 223.136034 -35.318365 
L 223.549932 -35.318365 
L 223.963829 -35.318365 
L 224.377727 -35.318365 
L 224.791625 -35.318365 
L 225.205523 -35.318365 
L 225.61942 -35.318365 
L 226.033318 -35.318365 
L 226.447216 -35.318365 
L 226.861113 -35.318365 
L 227.275011 -35.318365 
L 227.688909 -35.318365 
L 228.102807 -35.318365 
L 228.516704 -35.318365 
L 228.930602 -35.318365 
L 229.3445 -35.318365 
L 229.758398 -35.318365 
L 230.172295 -35.318365 
L 230.586193 -35.318365 
L 231.000091 -35.318365 
L 231.413989 -35.318365 
L 231.827886 -35.318365 
L 232.241784 -35.318365 
L 232.655682 -35.318365 
L 233.069579 -35.318365 
L 233.483477 -35.318365 
L 233.897375 -35.318365 
L 234.311273 -35.318365 
L 234.72517 -35.318365 
L 235.139068 -35.318365 
L 235.552966 -35.318365 
L 235.966864 -35.318365 
L 236.380761 -35.318365 
L 236.794659 -35.318365 
L 237.208557 -35.318365 
L 237.622455 -35.318365 
L 238.036352 -35.318365 
L 238.45025 -35.318365 
L 238.864148 -35.318365 
L 239.278045 -35.318365 
L 239.691943 -35.318365 
L 240.105841 -35.318365 
L 240.519739 -35.318365 
L 240.933636 -35.318365 
L 241.347534 -35.318365 
L 241.347534 -35.364489 
L 241.347534 -35.364489 
L 240.933636 -35.393088 
L 240.519739 -35.43707 
L 240.105841 -35.503305 
L 239.691943 -35.600981 
L 239.278045 -35.742045 
L 238.864148 -35.94157 
L 238.45025 -36.217999 
L 238.036352 -36.593169 
L 237.622455 -37.092058 
L 237.208557 -37.742195 
L 236.794659 -38.572706 
L 236.380761 -39.613047 
L 235.966864 -40.891482 
L 235.552966 -42.433491 
L 235.139068 -44.260271 
L 234.72517 -46.387574 
L 234.311273 -48.825079 
L 233.897375 -51.576444 
L 233.483477 -54.64012 
L 233.069579 -58.010852 
L 232.655682 -61.681695 
L 232.241784 -65.646255 
L 231.827886 -69.900782 
L 231.413989 -74.44574 
L 231.000091 -79.286516 
L 230.586193 -84.433031 
L 230.172295 -89.898176 
L 229.758398 -95.695163 
L 229.3445 -101.834033 
L 228.930602 -108.317712 
L 228.516704 -115.138065 
L 228.102807 -122.272452 
L 227.688909 -129.681205 
L 227.275011 -137.306395 
L 226.861113 -145.072089 
L 226.447216 -152.886166 
L 226.033318 -160.643593 
L 225.61942 -168.230879 
L 225.205523 -175.531342 
L 224.791625 -182.430702 
L 224.377727 -188.822482 
L 223.963829 -194.612731 
L 223.549932 -199.723657 
L 223.136034 -204.095885 
L 222.722136 -207.689253 
L 222.308238 -210.482211 
L 221.894341 -212.47007 
L 221.480443 -213.662474 
L 221.066545 -214.080502 
L 220.652647 -213.753843 
L 220.23875 -212.718351 
L 219.824852 -211.014237 
L 219.410954 -208.684974 
L 218.997057 -205.776869 
L 218.583159 -202.339188 
L 218.169261 -198.424609 
L 217.755363 -194.089787 
L 217.341466 -189.395797 
L 216.927568 -184.408257 
L 216.51367 -179.196948 
L 216.099772 -173.834808 
L 215.685875 -168.396198 
L 215.271977 -162.954439 
L 214.858079 -157.578662 
L 214.444181 -152.330158 
L 214.030284 -147.258518 
L 213.616386 -142.397977 
L 213.202488 -137.764464 
L 212.788591 -133.353877 
L 212.374693 -129.142079 
L 211.960795 -125.0869 
L 211.546897 -121.132249 
L 211.133 -117.214109 
L 210.719102 -113.267861 
L 210.305204 -109.236155 
L 209.891306 -105.076333 
L 209.477409 -100.766433 
L 209.063511 -96.308918 
L 208.649613 -91.731578 
L 208.235715 -87.085463 
L 207.821818 -82.440111 
L 207.40792 -77.876758 
L 206.994022 -73.480457 
L 206.580125 -69.332176 
L 206.166227 -65.501863 
L 205.752329 -62.043263 
L 205.338431 -58.990936 
L 204.924534 -56.359575 
L 204.510636 -54.145374 
L 204.096738 -52.328945 
L 203.68284 -50.879153 
L 203.268943 -49.757196 
L 202.855045 -48.920382 
L 202.441147 -48.325186 
L 202.027249 -47.929402 
L 201.613352 -47.693384 
L 201.199454 -47.580516 
L 200.785556 -47.557186 
L 200.371659 -47.592509 
L 199.957761 -47.658092 
L 199.543863 -47.727973 
L 199.129965 -47.778851 
L 198.716068 -47.790568 
L 198.30217 -47.746755 
L 197.888272 -47.635501 
L 197.474374 -47.449893 
L 197.060477 -47.188298 
L 196.646579 -46.854316 
L 196.232681 -46.45636 
L 195.818783 -46.006928 
L 195.404886 -45.521603 
L 194.990988 -45.017916 
L 194.57709 -44.514147 
L 194.163193 -44.028163 
L 193.749295 -43.576365 
L 193.335397 -43.172788 
L 192.921499 -42.828388 
L 192.507602 -42.550517 
L 192.093704 -42.342628 
L 191.679806 -42.204191 
L 191.265908 -42.130864 
L 190.852011 -42.114899 
L 190.438113 -42.145796 
L 190.024215 -42.211179 
L 189.610318 -42.297834 
L 189.19642 -42.392835 
L 188.782522 -42.484653 
L 188.368624 -42.564136 
L 187.954727 -42.625247 
L 187.540829 -42.665479 
L 187.126931 -42.685897 
L 186.713033 -42.690825 
L 186.299136 -42.687223 
L 185.885238 -42.683871 
L 185.47134 -42.690485 
L 185.057442 -42.716906 
L 184.643545 -42.772454 
L 184.229647 -42.865529 
L 183.815749 -43.003442 
L 183.401852 -43.192427 
L 182.987954 -43.437691 
L 182.574056 -43.743395 
L 182.160158 -44.112391 
L 181.746261 -44.545653 
L 181.332363 -45.041379 
L 180.918465 -45.593849 
L 180.504567 -46.192237 
L 180.09067 -46.819631 
L 179.676772 -47.452566 
L 179.262874 -48.061331 
L 178.848976 -48.611226 
L 178.435079 -49.064788 
L 178.021181 -49.384847 
L 177.607283 -49.538073 
L 177.193386 -49.498574 
L 176.779488 -49.251027 
L 176.36559 -48.792877 
L 175.951692 -48.13524 
L 175.537795 -47.302337 
L 175.123897 -46.329532 
L 174.709999 -45.260216 
L 174.296101 -44.141957 
L 173.882204 -43.022429 
L 173.468306 -41.945601 
L 173.054408 -40.948613 
L 172.64051 -40.059603 
L 172.226613 -39.296611 
L 171.812715 -38.667527 
L 171.398817 -38.170912 
L 170.98492 -37.797491 
L 170.571022 -37.532038 
L 170.157124 -37.355422 
L 169.743226 -37.246616 
L 169.329329 -37.184505 
L 168.915431 -37.149406 
L 168.501533 -37.124229 
L 168.087635 -37.095268 
L 167.673738 -37.052613 
L 167.25984 -36.99022 
L 166.845942 -36.905668 
L 166.432044 -36.799671 
L 166.018147 -36.675406 
L 165.604249 -36.537747 
L 165.190351 -36.392474 
L 164.776454 -36.24555 
L 164.362556 -36.102507 
L 163.948658 -35.968001 
L 163.53476 -35.845534 
L 163.120863 -35.737356 
L 162.706965 -35.644515 
L 162.293067 -35.567006 
L 161.879169 -35.504 
L 161.465272 -35.454094 
L 161.051374 -35.415551 
L 160.637476 -35.386512 
L 160.223578 -35.36516 
L 159.809681 -35.349832 
L 159.395783 -35.339086 
L 158.981885 -35.331727 
z
" style="stroke: #d55e00; stroke-width: 1.5"/>
    </defs>
    <g clip-path="url(#p0f43fb2fd7)">
     <use xlink:href="#m422462c109" x="0" y="288" style="fill: #d55e00; fill-opacity: 0.75; stroke: #d55e00; stroke-width: 1.5"/>
    </g>
   </g>
   <g id="patch_3">
    <path d="M 22.72524 252.681635 
L 22.72524 3.00024 
" style="fill: none; stroke: #000000; stroke-width: 0.8; stroke-linejoin: miter; stroke-linecap: square"/>
   </g>
   <g id="patch_4">
    <path d="M 421.048198 252.681635 
L 421.048198 3.00024 
" style="fill: none; stroke: #000000; stroke-width: 0.8; stroke-linejoin: miter; stroke-linecap: square"/>
   </g>
   <g id="patch_5">
    <path d="M 22.72524 252.681635 
L 421.048198 252.681635 
" style="fill: none; stroke: #000000; stroke-width: 0.8; stroke-linejoin: miter; stroke-linecap: square"/>
   </g>
   <g id="patch_6">
    <path d="M 22.72524 3.00024 
L 421.048198 3.00024 
" style="fill: none; stroke: #000000; stroke-width: 0.8; stroke-linejoin: miter; stroke-linecap: square"/>
   </g>
   <g id="legend_1">
    <g id="patch_7">
     <path d="M 51.402812 34.749615 
L 392.370625 34.749615 
Q 395.170625 34.749615 395.170625 31.949615 
L 395.170625 12.80024 
Q 395.170625 10.00024 392.370625 10.00024 
L 51.402812 10.00024 
Q 48.602812 10.00024 48.602812 12.80024 
L 48.602812 31.949615 
Q 48.602812 34.749615 51.402812 34.749615 
z
" style="fill: #ffffff; opacity: 0.8; stroke: #cccccc; stroke-linejoin: miter"/>
    </g>
    <g id="patch_8">
     <path d="M 54.202812 26.238052 
L 82.202812 26.238052 
L 82.202812 16.438052 
L 54.202812 16.438052 
z
" style="fill: #0071b2; stroke: #0071b2; stroke-linejoin: miter"/>
    </g>
    <g id="text_16">
     <!-- multimodal acces -->
     <g transform="translate(93.402812 26.238052) scale(0.14 -0.14)">
      <defs>
       <path id="DejaVuSans-6d" d="M 3328 2828 
Q 3544 3216 3844 3400 
Q 4144 3584 4550 3584 
Q 5097 3584 5394 3201 
Q 5691 2819 5691 2113 
L 5691 0 
L 5113 0 
L 5113 2094 
Q 5113 2597 4934 2840 
Q 4756 3084 4391 3084 
Q 3944 3084 3684 2787 
Q 3425 2491 3425 1978 
L 3425 0 
L 2847 0 
L 2847 2094 
Q 2847 2600 2669 2842 
Q 2491 3084 2119 3084 
Q 1678 3084 1418 2786 
Q 1159 2488 1159 1978 
L 1159 0 
L 581 0 
L 581 3500 
L 1159 3500 
L 1159 2956 
Q 1356 3278 1631 3431 
Q 1906 3584 2284 3584 
Q 2666 3584 2933 3390 
Q 3200 3197 3328 2828 
z
" transform="scale(0.015625)"/>
       <path id="DejaVuSans-75" d="M 544 1381 
L 544 3500 
L 1119 3500 
L 1119 1403 
Q 1119 906 1312 657 
Q 1506 409 1894 409 
Q 2359 409 2629 706 
Q 2900 1003 2900 1516 
L 2900 3500 
L 3475 3500 
L 3475 0 
L 2900 0 
L 2900 538 
Q 2691 219 2414 64 
Q 2138 -91 1772 -91 
Q 1169 -91 856 284 
Q 544 659 544 1381 
z
M 1991 3584 
L 1991 3584 
z
" transform="scale(0.015625)"/>
       <path id="DejaVuSans-6c" d="M 603 4863 
L 1178 4863 
L 1178 0 
L 603 0 
L 603 4863 
z
" transform="scale(0.015625)"/>
       <path id="DejaVuSans-74" d="M 1172 4494 
L 1172 3500 
L 2356 3500 
L 2356 3053 
L 1172 3053 
L 1172 1153 
Q 1172 725 1289 603 
Q 1406 481 1766 481 
L 2356 481 
L 2356 0 
L 1766 0 
Q 1100 0 847 248 
Q 594 497 594 1153 
L 594 3053 
L 172 3053 
L 172 3500 
L 594 3500 
L 594 4494 
L 1172 4494 
z
" transform="scale(0.015625)"/>
       <path id="DejaVuSans-6f" d="M 1959 3097 
Q 1497 3097 1228 2736 
Q 959 2375 959 1747 
Q 959 1119 1226 758 
Q 1494 397 1959 397 
Q 2419 397 2687 759 
Q 2956 1122 2956 1747 
Q 2956 2369 2687 2733 
Q 2419 3097 1959 3097 
z
M 1959 3584 
Q 2709 3584 3137 3096 
Q 3566 2609 3566 1747 
Q 3566 888 3137 398 
Q 2709 -91 1959 -91 
Q 1206 -91 779 398 
Q 353 888 353 1747 
Q 353 2609 779 3096 
Q 1206 3584 1959 3584 
z
" transform="scale(0.015625)"/>
       <path id="DejaVuSans-64" d="M 2906 2969 
L 2906 4863 
L 3481 4863 
L 3481 0 
L 2906 0 
L 2906 525 
Q 2725 213 2448 61 
Q 2172 -91 1784 -91 
Q 1150 -91 751 415 
Q 353 922 353 1747 
Q 353 2572 751 3078 
Q 1150 3584 1784 3584 
Q 2172 3584 2448 3432 
Q 2725 3281 2906 2969 
z
M 947 1747 
Q 947 1113 1208 752 
Q 1469 391 1925 391 
Q 2381 391 2643 752 
Q 2906 1113 2906 1747 
Q 2906 2381 2643 2742 
Q 2381 3103 1925 3103 
Q 1469 3103 1208 2742 
Q 947 2381 947 1747 
z
" transform="scale(0.015625)"/>
       <path id="DejaVuSans-61" d="M 2194 1759 
Q 1497 1759 1228 1600 
Q 959 1441 959 1056 
Q 959 750 1161 570 
Q 1363 391 1709 391 
Q 2188 391 2477 730 
Q 2766 1069 2766 1631 
L 2766 1759 
L 2194 1759 
z
M 3341 1997 
L 3341 0 
L 2766 0 
L 2766 531 
Q 2569 213 2275 61 
Q 1981 -91 1556 -91 
Q 1019 -91 701 211 
Q 384 513 384 1019 
Q 384 1609 779 1909 
Q 1175 2209 1959 2209 
L 2766 2209 
L 2766 2266 
Q 2766 2663 2505 2880 
Q 2244 3097 1772 3097 
Q 1472 3097 1187 3025 
Q 903 2953 641 2809 
L 641 3341 
Q 956 3463 1253 3523 
Q 1550 3584 1831 3584 
Q 2591 3584 2966 3190 
Q 3341 2797 3341 1997 
z
" transform="scale(0.015625)"/>
       <path id="DejaVuSans-63" d="M 3122 3366 
L 3122 2828 
Q 2878 2963 2633 3030 
Q 2388 3097 2138 3097 
Q 1578 3097 1268 2742 
Q 959 2388 959 1747 
Q 959 1106 1268 751 
Q 1578 397 2138 397 
Q 2388 397 2633 464 
Q 2878 531 3122 666 
L 3122 134 
Q 2881 22 2623 -34 
Q 2366 -91 2075 -91 
Q 1284 -91 818 406 
Q 353 903 353 1747 
Q 353 2603 823 3093 
Q 1294 3584 2113 3584 
Q 2378 3584 2631 3529 
Q 2884 3475 3122 3366 
z
" transform="scale(0.015625)"/>
       <path id="DejaVuSans-65" d="M 3597 1894 
L 3597 1613 
L 953 1613 
Q 991 1019 1311 708 
Q 1631 397 2203 397 
Q 2534 397 2845 478 
Q 3156 559 3463 722 
L 3463 178 
Q 3153 47 2828 -22 
Q 2503 -91 2169 -91 
Q 1331 -91 842 396 
Q 353 884 353 1716 
Q 353 2575 817 3079 
Q 1281 3584 2069 3584 
Q 2775 3584 3186 3129 
Q 3597 2675 3597 1894 
z
M 3022 2063 
Q 3016 2534 2758 2815 
Q 2500 3097 2075 3097 
Q 1594 3097 1305 2825 
Q 1016 2553 972 2059 
L 3022 2063 
z
" transform="scale(0.015625)"/>
       <path id="DejaVuSans-73" d="M 2834 3397 
L 2834 2853 
Q 2591 2978 2328 3040 
Q 2066 3103 1784 3103 
Q 1356 3103 1142 2972 
Q 928 2841 928 2578 
Q 928 2378 1081 2264 
Q 1234 2150 1697 2047 
L 1894 2003 
Q 2506 1872 2764 1633 
Q 3022 1394 3022 966 
Q 3022 478 2636 193 
Q 2250 -91 1575 -91 
Q 1294 -91 989 -36 
Q 684 19 347 128 
L 347 722 
Q 666 556 975 473 
Q 1284 391 1588 391 
Q 1994 391 2212 530 
Q 2431 669 2431 922 
Q 2431 1156 2273 1281 
Q 2116 1406 1581 1522 
L 1381 1569 
Q 847 1681 609 1914 
Q 372 2147 372 2553 
Q 372 3047 722 3315 
Q 1072 3584 1716 3584 
Q 2034 3584 2315 3537 
Q 2597 3491 2834 3397 
z
" transform="scale(0.015625)"/>
      </defs>
      <use xlink:href="#DejaVuSans-6d"/>
      <use xlink:href="#DejaVuSans-75" transform="translate(97.412109 0)"/>
      <use xlink:href="#DejaVuSans-6c" transform="translate(160.791016 0)"/>
      <use xlink:href="#DejaVuSans-74" transform="translate(188.574219 0)"/>
      <use xlink:href="#DejaVuSans-69" transform="translate(227.783203 0)"/>
      <use xlink:href="#DejaVuSans-6d" transform="translate(255.566406 0)"/>
      <use xlink:href="#DejaVuSans-6f" transform="translate(352.978516 0)"/>
      <use xlink:href="#DejaVuSans-64" transform="translate(414.160156 0)"/>
      <use xlink:href="#DejaVuSans-61" transform="translate(477.636719 0)"/>
      <use xlink:href="#DejaVuSans-6c" transform="translate(538.916016 0)"/>
      <use xlink:href="#DejaVuSans-20" transform="translate(566.699219 0)"/>
      <use xlink:href="#DejaVuSans-61" transform="translate(598.486328 0)"/>
      <use xlink:href="#DejaVuSans-63" transform="translate(659.765625 0)"/>
      <use xlink:href="#DejaVuSans-63" transform="translate(714.746094 0)"/>
      <use xlink:href="#DejaVuSans-65" transform="translate(769.726562 0)"/>
      <use xlink:href="#DejaVuSans-73" transform="translate(831.25 0)"/>
     </g>
    </g>
    <g id="patch_9">
     <path d="M 245.070938 26.238052 
L 273.070938 26.238052 
L 273.070938 16.438052 
L 245.070938 16.438052 
z
" style="fill: #d55e00; stroke: #d55e00; stroke-linejoin: miter"/>
    </g>
    <g id="text_17">
     <!-- walking access -->
     <g transform="translate(284.270938 26.238052) scale(0.14 -0.14)">
      <defs>
       <path id="DejaVuSans-77" d="M 269 3500 
L 844 3500 
L 1563 769 
L 2278 3500 
L 2956 3500 
L 3675 769 
L 4391 3500 
L 4966 3500 
L 4050 0 
L 3372 0 
L 2619 2869 
L 1863 0 
L 1184 0 
L 269 3500 
z
" transform="scale(0.015625)"/>
       <path id="DejaVuSans-6b" d="M 581 4863 
L 1159 4863 
L 1159 1991 
L 2875 3500 
L 3609 3500 
L 1753 1863 
L 3688 0 
L 2938 0 
L 1159 1709 
L 1159 0 
L 581 0 
L 581 4863 
z
" transform="scale(0.015625)"/>
       <path id="DejaVuSans-67" d="M 2906 1791 
Q 2906 2416 2648 2759 
Q 2391 3103 1925 3103 
Q 1463 3103 1205 2759 
Q 947 2416 947 1791 
Q 947 1169 1205 825 
Q 1463 481 1925 481 
Q 2391 481 2648 825 
Q 2906 1169 2906 1791 
z
M 3481 434 
Q 3481 -459 3084 -895 
Q 2688 -1331 1869 -1331 
Q 1566 -1331 1297 -1286 
Q 1028 -1241 775 -1147 
L 775 -588 
Q 1028 -725 1275 -790 
Q 1522 -856 1778 -856 
Q 2344 -856 2625 -561 
Q 2906 -266 2906 331 
L 2906 616 
Q 2728 306 2450 153 
Q 2172 0 1784 0 
Q 1141 0 747 490 
Q 353 981 353 1791 
Q 353 2603 747 3093 
Q 1141 3584 1784 3584 
Q 2172 3584 2450 3431 
Q 2728 3278 2906 2969 
L 2906 3500 
L 3481 3500 
L 3481 434 
z
" transform="scale(0.015625)"/>
      </defs>
      <use xlink:href="#DejaVuSans-77"/>
      <use xlink:href="#DejaVuSans-61" transform="translate(81.787109 0)"/>
      <use xlink:href="#DejaVuSans-6c" transform="translate(143.066406 0)"/>
      <use xlink:href="#DejaVuSans-6b" transform="translate(170.849609 0)"/>
      <use xlink:href="#DejaVuSans-69" transform="translate(228.759766 0)"/>
      <use xlink:href="#DejaVuSans-6e" transform="translate(256.542969 0)"/>
      <use xlink:href="#DejaVuSans-67" transform="translate(319.921875 0)"/>
      <use xlink:href="#DejaVuSans-20" transform="translate(383.398438 0)"/>
      <use xlink:href="#DejaVuSans-61" transform="translate(415.185547 0)"/>
      <use xlink:href="#DejaVuSans-63" transform="translate(476.464844 0)"/>
      <use xlink:href="#DejaVuSans-63" transform="translate(531.445312 0)"/>
      <use xlink:href="#DejaVuSans-65" transform="translate(586.425781 0)"/>
      <use xlink:href="#DejaVuSans-73" transform="translate(647.949219 0)"/>
      <use xlink:href="#DejaVuSans-73" transform="translate(700.048828 0)"/>
     </g>
    </g>
   </g>
  </g>
 </g>
 <defs>
  <clipPath id="p0f43fb2fd7">
   <rect x="22.72524" y="3.00024" width="398.322958" height="249.681395"/>
  </clipPath>
 </defs>
</svg>
