<?xml version="1.0" encoding="utf-8" standalone="no"?>
<!DOCTYPE svg PUBLIC "-//W3C//DTD SVG 1.1//EN"
  "http://www.w3.org/Graphics/SVG/1.1/DTD/svg11.dtd">
<svg xmlns:xlink="http://www.w3.org/1999/xlink" width="288pt" height="288pt" viewBox="0 0 288 288" xmlns="http://www.w3.org/2000/svg" version="1.1">
 <metadata>
  <rdf:RDF xmlns:dc="http://purl.org/dc/elements/1.1/" xmlns:cc="http://creativecommons.org/ns#" xmlns:rdf="http://www.w3.org/1999/02/22-rdf-syntax-ns#">
   <cc:Work>
    <dc:type rdf:resource="http://purl.org/dc/dcmitype/StillImage"/>
    <dc:format>image/svg+xml</dc:format>
    <dc:creator>
     <cc:Agent>
      <dc:title>Gergő Pintér</dc:title>
     </cc:Agent>
    </dc:creator>
    <dc:rights>
     <cc:Agent>
      <dc:title>CC BY 4.0</dc:title>
     </cc:Agent>
    </dc:rights>
   </cc:Work>
  </rdf:RDF>
 </metadata>
 <defs>
  <style type="text/css">*{stroke-linejoin: round; stroke-linecap: butt}</style>
 </defs>
 <g id="figure_1">
  <g id="patch_1">
   <path d="M 0 288 
L 288 288 
L 288 0 
L 0 0 
z
" style="fill: #ffffff"/>
  </g>
  <g id="axes_1">
   <g id="patch_2">
    <path d="M 22.72524 252.681635 
L 277.048198 252.681635 
L 277.048198 6.799459 
L 22.72524 6.799459 
z
" style="fill: #ffffff"/>
   </g>
   <g id="matplotlib.axis_1">
    <g id="xtick_1">
     <g id="line2d_1">
      <path d="M 22.72524 252.681635 
L 22.72524 6.799459 
" clip-path="url(#pc553ae9177)" style="fill: none; stroke: #e7e7e7; stroke-width: 0.8; stroke-linecap: square"/>
     </g>
     <g id="line2d_2">
      <defs>
       <path id="mbcb02aef95" d="M 0 0 
L 0 3.5 
" style="stroke: #000000; stroke-width: 0.8"/>
      </defs>
      <g>
       <use xlink:href="#mbcb02aef95" x="22.72524" y="252.681635" style="stroke: #000000; stroke-width: 0.8"/>
      </g>
     </g>
     <g id="text_1">
      <!-- −1.0 -->
      <g transform="translate(10.583834 267.280073) scale(0.1 -0.1)">
       <defs>
        <path id="DejaVuSans-2212" d="M 678 2272 
L 4684 2272 
L 4684 1741 
L 678 1741 
L 678 2272 
z
" transform="scale(0.015625)"/>
        <path id="DejaVuSans-31" d="M 794 531 
L 1825 531 
L 1825 4091 
L 703 3866 
L 703 4441 
L 1819 4666 
L 2450 4666 
L 2450 531 
L 3481 531 
L 3481 0 
L 794 0 
L 794 531 
z
" transform="scale(0.015625)"/>
        <path id="DejaVuSans-2e" d="M 684 794 
L 1344 794 
L 1344 0 
L 684 0 
L 684 794 
z
" transform="scale(0.015625)"/>
        <path id="DejaVuSans-30" d="M 2034 4250 
Q 1547 4250 1301 3770 
Q 1056 3291 1056 2328 
Q 1056 1369 1301 889 
Q 1547 409 2034 409 
Q 2525 409 2770 889 
Q 3016 1369 3016 2328 
Q 3016 3291 2770 3770 
Q 2525 4250 2034 4250 
z
M 2034 4750 
Q 2819 4750 3233 4129 
Q 3647 3509 3647 2328 
Q 3647 1150 3233 529 
Q 2819 -91 2034 -91 
Q 1250 -91 836 529 
Q 422 1150 422 2328 
Q 422 3509 836 4129 
Q 1250 4750 2034 4750 
z
" transform="scale(0.015625)"/>
       </defs>
       <use xlink:href="#DejaVuSans-2212"/>
       <use xlink:href="#DejaVuSans-31" transform="translate(83.789062 0)"/>
       <use xlink:href="#DejaVuSans-2e" transform="translate(147.412109 0)"/>
       <use xlink:href="#DejaVuSans-30" transform="translate(179.199219 0)"/>
      </g>
     </g>
    </g>
    <g id="xtick_2">
     <g id="line2d_3">
      <path d="M 73.589831 252.681635 
L 73.589831 6.799459 
" clip-path="url(#pc553ae9177)" style="fill: none; stroke: #e7e7e7; stroke-width: 0.8; stroke-linecap: square"/>
     </g>
     <g id="line2d_4">
      <g>
       <use xlink:href="#mbcb02aef95" x="73.589831" y="252.681635" style="stroke: #000000; stroke-width: 0.8"/>
      </g>
     </g>
     <g id="text_2">
      <!-- −0.8 -->
      <g transform="translate(61.448425 267.280073) scale(0.1 -0.1)">
       <defs>
        <path id="DejaVuSans-38" d="M 2034 2216 
Q 1584 2216 1326 1975 
Q 1069 1734 1069 1313 
Q 1069 891 1326 650 
Q 1584 409 2034 409 
Q 2484 409 2743 651 
Q 3003 894 3003 1313 
Q 3003 1734 2745 1975 
Q 2488 2216 2034 2216 
z
M 1403 2484 
Q 997 2584 770 2862 
Q 544 3141 544 3541 
Q 544 4100 942 4425 
Q 1341 4750 2034 4750 
Q 2731 4750 3128 4425 
Q 3525 4100 3525 3541 
Q 3525 3141 3298 2862 
Q 3072 2584 2669 2484 
Q 3125 2378 3379 2068 
Q 3634 1759 3634 1313 
Q 3634 634 3220 271 
Q 2806 -91 2034 -91 
Q 1263 -91 848 271 
Q 434 634 434 1313 
Q 434 1759 690 2068 
Q 947 2378 1403 2484 
z
M 1172 3481 
Q 1172 3119 1398 2916 
Q 1625 2713 2034 2713 
Q 2441 2713 2670 2916 
Q 2900 3119 2900 3481 
Q 2900 3844 2670 4047 
Q 2441 4250 2034 4250 
Q 1625 4250 1398 4047 
Q 1172 3844 1172 3481 
z
" transform="scale(0.015625)"/>
       </defs>
       <use xlink:href="#DejaVuSans-2212"/>
       <use xlink:href="#DejaVuSans-30" transform="translate(83.789062 0)"/>
       <use xlink:href="#DejaVuSans-2e" transform="translate(147.412109 0)"/>
       <use xlink:href="#DejaVuSans-38" transform="translate(179.199219 0)"/>
      </g>
     </g>
    </g>
    <g id="xtick_3">
     <g id="line2d_5">
      <path d="M 124.454423 252.681635 
L 124.454423 6.799459 
" clip-path="url(#pc553ae9177)" style="fill: none; stroke: #e7e7e7; stroke-width: 0.8; stroke-linecap: square"/>
     </g>
     <g id="line2d_6">
      <g>
       <use xlink:href="#mbcb02aef95" x="124.454423" y="252.681635" style="stroke: #000000; stroke-width: 0.8"/>
      </g>
     </g>
     <g id="text_3">
      <!-- −0.6 -->
      <g transform="translate(112.313017 267.280073) scale(0.1 -0.1)">
       <defs>
        <path id="DejaVuSans-36" d="M 2113 2584 
Q 1688 2584 1439 2293 
Q 1191 2003 1191 1497 
Q 1191 994 1439 701 
Q 1688 409 2113 409 
Q 2538 409 2786 701 
Q 3034 994 3034 1497 
Q 3034 2003 2786 2293 
Q 2538 2584 2113 2584 
z
M 3366 4563 
L 3366 3988 
Q 3128 4100 2886 4159 
Q 2644 4219 2406 4219 
Q 1781 4219 1451 3797 
Q 1122 3375 1075 2522 
Q 1259 2794 1537 2939 
Q 1816 3084 2150 3084 
Q 2853 3084 3261 2657 
Q 3669 2231 3669 1497 
Q 3669 778 3244 343 
Q 2819 -91 2113 -91 
Q 1303 -91 875 529 
Q 447 1150 447 2328 
Q 447 3434 972 4092 
Q 1497 4750 2381 4750 
Q 2619 4750 2861 4703 
Q 3103 4656 3366 4563 
z
" transform="scale(0.015625)"/>
       </defs>
       <use xlink:href="#DejaVuSans-2212"/>
       <use xlink:href="#DejaVuSans-30" transform="translate(83.789062 0)"/>
       <use xlink:href="#DejaVuSans-2e" transform="translate(147.412109 0)"/>
       <use xlink:href="#DejaVuSans-36" transform="translate(179.199219 0)"/>
      </g>
     </g>
    </g>
    <g id="xtick_4">
     <g id="line2d_7">
      <path d="M 175.319015 252.681635 
L 175.319015 6.799459 
" clip-path="url(#pc553ae9177)" style="fill: none; stroke: #e7e7e7; stroke-width: 0.8; stroke-linecap: square"/>
     </g>
     <g id="line2d_8">
      <g>
       <use xlink:href="#mbcb02aef95" x="175.319015" y="252.681635" style="stroke: #000000; stroke-width: 0.8"/>
      </g>
     </g>
     <g id="text_4">
      <!-- −0.4 -->
      <g transform="translate(163.177608 267.280073) scale(0.1 -0.1)">
       <defs>
        <path id="DejaVuSans-34" d="M 2419 4116 
L 825 1625 
L 2419 1625 
L 2419 4116 
z
M 2253 4666 
L 3047 4666 
L 3047 1625 
L 3713 1625 
L 3713 1100 
L 3047 1100 
L 3047 0 
L 2419 0 
L 2419 1100 
L 313 1100 
L 313 1709 
L 2253 4666 
z
" transform="scale(0.015625)"/>
       </defs>
       <use xlink:href="#DejaVuSans-2212"/>
       <use xlink:href="#DejaVuSans-30" transform="translate(83.789062 0)"/>
       <use xlink:href="#DejaVuSans-2e" transform="translate(147.412109 0)"/>
       <use xlink:href="#DejaVuSans-34" transform="translate(179.199219 0)"/>
      </g>
     </g>
    </g>
    <g id="xtick_5">
     <g id="line2d_9">
      <path d="M 226.183606 252.681635 
L 226.183606 6.799459 
" clip-path="url(#pc553ae9177)" style="fill: none; stroke: #e7e7e7; stroke-width: 0.8; stroke-linecap: square"/>
     </g>
     <g id="line2d_10">
      <g>
       <use xlink:href="#mbcb02aef95" x="226.183606" y="252.681635" style="stroke: #000000; stroke-width: 0.8"/>
      </g>
     </g>
     <g id="text_5">
      <!-- −0.2 -->
      <g transform="translate(214.0422 267.280073) scale(0.1 -0.1)">
       <defs>
        <path id="DejaVuSans-32" d="M 1228 531 
L 3431 531 
L 3431 0 
L 469 0 
L 469 531 
Q 828 903 1448 1529 
Q 2069 2156 2228 2338 
Q 2531 2678 2651 2914 
Q 2772 3150 2772 3378 
Q 2772 3750 2511 3984 
Q 2250 4219 1831 4219 
Q 1534 4219 1204 4116 
Q 875 4013 500 3803 
L 500 4441 
Q 881 4594 1212 4672 
Q 1544 4750 1819 4750 
Q 2544 4750 2975 4387 
Q 3406 4025 3406 3419 
Q 3406 3131 3298 2873 
Q 3191 2616 2906 2266 
Q 2828 2175 2409 1742 
Q 1991 1309 1228 531 
z
" transform="scale(0.015625)"/>
       </defs>
       <use xlink:href="#DejaVuSans-2212"/>
       <use xlink:href="#DejaVuSans-30" transform="translate(83.789062 0)"/>
       <use xlink:href="#DejaVuSans-2e" transform="translate(147.412109 0)"/>
       <use xlink:href="#DejaVuSans-32" transform="translate(179.199219 0)"/>
      </g>
     </g>
    </g>
    <g id="xtick_6">
     <g id="line2d_11">
      <path d="M 277.048198 252.681635 
L 277.048198 6.799459 
" clip-path="url(#pc553ae9177)" style="fill: none; stroke: #e7e7e7; stroke-width: 0.8; stroke-linecap: square"/>
     </g>
     <g id="line2d_12">
      <g>
       <use xlink:href="#mbcb02aef95" x="277.048198" y="252.681635" style="stroke: #000000; stroke-width: 0.8"/>
      </g>
     </g>
     <g id="text_6">
      <!-- 0.0 -->
      <g transform="translate(269.096635 267.280073) scale(0.1 -0.1)">
       <use xlink:href="#DejaVuSans-30"/>
       <use xlink:href="#DejaVuSans-2e" transform="translate(63.623047 0)"/>
       <use xlink:href="#DejaVuSans-30" transform="translate(95.410156 0)"/>
      </g>
     </g>
    </g>
    <g id="text_7">
     <!-- $log_{10}$ Gini -->
     <g transform="translate(121.506719 282.47976) scale(0.12 -0.12)">
      <defs>
       <path id="DejaVuSans-Oblique-6c" d="M 1172 4863 
L 1747 4863 
L 800 0 
L 225 0 
L 1172 4863 
z
" transform="scale(0.015625)"/>
       <path id="DejaVuSans-Oblique-6f" d="M 1625 -91 
Q 1009 -91 651 289 
Q 294 669 294 1325 
Q 294 1706 417 2101 
Q 541 2497 738 2766 
Q 1047 3184 1428 3384 
Q 1809 3584 2291 3584 
Q 2888 3584 3255 3212 
Q 3622 2841 3622 2241 
Q 3622 1825 3500 1412 
Q 3378 1000 3181 728 
Q 2875 309 2494 109 
Q 2113 -91 1625 -91 
z
M 891 1344 
Q 891 869 1089 633 
Q 1288 397 1691 397 
Q 2269 397 2648 901 
Q 3028 1406 3028 2181 
Q 3028 2634 2825 2865 
Q 2622 3097 2228 3097 
Q 1903 3097 1650 2945 
Q 1397 2794 1197 2484 
Q 1050 2253 970 1956 
Q 891 1659 891 1344 
z
" transform="scale(0.015625)"/>
       <path id="DejaVuSans-Oblique-67" d="M 3816 3500 
L 3219 434 
Q 3047 -456 2561 -893 
Q 2075 -1331 1253 -1331 
Q 950 -1331 690 -1286 
Q 431 -1241 206 -1147 
L 313 -588 
Q 525 -725 762 -790 
Q 1000 -856 1269 -856 
Q 1816 -856 2167 -557 
Q 2519 -259 2631 300 
L 2681 563 
Q 2441 288 2122 144 
Q 1803 0 1434 0 
Q 903 0 598 351 
Q 294 703 294 1319 
Q 294 1803 478 2267 
Q 663 2731 997 3091 
Q 1219 3328 1514 3456 
Q 1809 3584 2131 3584 
Q 2484 3584 2746 3420 
Q 3009 3256 3138 2956 
L 3238 3500 
L 3816 3500 
z
M 2950 2216 
Q 2950 2641 2750 2872 
Q 2550 3103 2181 3103 
Q 1953 3103 1747 3012 
Q 1541 2922 1394 2759 
Q 1156 2491 1023 2127 
Q 891 1763 891 1375 
Q 891 944 1092 712 
Q 1294 481 1672 481 
Q 2219 481 2584 976 
Q 2950 1472 2950 2216 
z
" transform="scale(0.015625)"/>
       <path id="DejaVuSans-20" transform="scale(0.015625)"/>
       <path id="DejaVuSans-47" d="M 3809 666 
L 3809 1919 
L 2778 1919 
L 2778 2438 
L 4434 2438 
L 4434 434 
Q 4069 175 3628 42 
Q 3188 -91 2688 -91 
Q 1594 -91 976 548 
Q 359 1188 359 2328 
Q 359 3472 976 4111 
Q 1594 4750 2688 4750 
Q 3144 4750 3555 4637 
Q 3966 4525 4313 4306 
L 4313 3634 
Q 3963 3931 3569 4081 
Q 3175 4231 2741 4231 
Q 1884 4231 1454 3753 
Q 1025 3275 1025 2328 
Q 1025 1384 1454 906 
Q 1884 428 2741 428 
Q 3075 428 3337 486 
Q 3600 544 3809 666 
z
" transform="scale(0.015625)"/>
       <path id="DejaVuSans-69" d="M 603 3500 
L 1178 3500 
L 1178 0 
L 603 0 
L 603 3500 
z
M 603 4863 
L 1178 4863 
L 1178 4134 
L 603 4134 
L 603 4863 
z
" transform="scale(0.015625)"/>
       <path id="DejaVuSans-6e" d="M 3513 2113 
L 3513 0 
L 2938 0 
L 2938 2094 
Q 2938 2591 2744 2837 
Q 2550 3084 2163 3084 
Q 1697 3084 1428 2787 
Q 1159 2491 1159 1978 
L 1159 0 
L 581 0 
L 581 3500 
L 1159 3500 
L 1159 2956 
Q 1366 3272 1645 3428 
Q 1925 3584 2291 3584 
Q 2894 3584 3203 3211 
Q 3513 2838 3513 2113 
z
" transform="scale(0.015625)"/>
      </defs>
      <use xlink:href="#DejaVuSans-Oblique-6c" transform="translate(0 0.015625)"/>
      <use xlink:href="#DejaVuSans-Oblique-6f" transform="translate(27.783203 0.015625)"/>
      <use xlink:href="#DejaVuSans-Oblique-67" transform="translate(88.964844 0.015625)"/>
      <use xlink:href="#DejaVuSans-31" transform="translate(152.441406 -16.390625) scale(0.7)"/>
      <use xlink:href="#DejaVuSans-30" transform="translate(196.977539 -16.390625) scale(0.7)"/>
      <use xlink:href="#DejaVuSans-20" transform="translate(244.248047 0.015625)"/>
      <use xlink:href="#DejaVuSans-47" transform="translate(276.035156 0.015625)"/>
      <use xlink:href="#DejaVuSans-69" transform="translate(353.525391 0.015625)"/>
      <use xlink:href="#DejaVuSans-6e" transform="translate(381.308594 0.015625)"/>
      <use xlink:href="#DejaVuSans-69" transform="translate(444.6875 0.015625)"/>
     </g>
    </g>
   </g>
   <g id="matplotlib.axis_2">
    <g id="ytick_1">
     <g id="line2d_13">
      <path d="M 22.72524 252.681635 
L 277.048198 252.681635 
" clip-path="url(#pc553ae9177)" style="fill: none; stroke: #e7e7e7; stroke-width: 0.8; stroke-linecap: square"/>
     </g>
     <g id="line2d_14">
      <defs>
       <path id="me5179b328b" d="M 0 0 
L -3.5 0 
" style="stroke: #000000; stroke-width: 0.8"/>
      </defs>
      <g>
       <use xlink:href="#me5179b328b" x="22.72524" y="252.681635" style="stroke: #000000; stroke-width: 0.8"/>
      </g>
     </g>
     <g id="text_8">
      <!-- 0 -->
      <g transform="translate(9.36274 256.480854) scale(0.1 -0.1)">
       <use xlink:href="#DejaVuSans-30"/>
      </g>
     </g>
    </g>
    <g id="ytick_2">
     <g id="line2d_15">
      <path d="M 22.72524 225.361393 
L 277.048198 225.361393 
" clip-path="url(#pc553ae9177)" style="fill: none; stroke: #e7e7e7; stroke-width: 0.8; stroke-linecap: square"/>
     </g>
     <g id="line2d_16">
      <g>
       <use xlink:href="#me5179b328b" x="22.72524" y="225.361393" style="stroke: #000000; stroke-width: 0.8"/>
      </g>
     </g>
     <g id="text_9">
      <!-- 2 -->
      <g transform="translate(9.36274 229.160612) scale(0.1 -0.1)">
       <use xlink:href="#DejaVuSans-32"/>
      </g>
     </g>
    </g>
    <g id="ytick_3">
     <g id="line2d_17">
      <path d="M 22.72524 198.041151 
L 277.048198 198.041151 
" clip-path="url(#pc553ae9177)" style="fill: none; stroke: #e7e7e7; stroke-width: 0.8; stroke-linecap: square"/>
     </g>
     <g id="line2d_18">
      <g>
       <use xlink:href="#me5179b328b" x="22.72524" y="198.041151" style="stroke: #000000; stroke-width: 0.8"/>
      </g>
     </g>
     <g id="text_10">
      <!-- 4 -->
      <g transform="translate(9.36274 201.84037) scale(0.1 -0.1)">
       <use xlink:href="#DejaVuSans-34"/>
      </g>
     </g>
    </g>
    <g id="ytick_4">
     <g id="line2d_19">
      <path d="M 22.72524 170.72091 
L 277.048198 170.72091 
" clip-path="url(#pc553ae9177)" style="fill: none; stroke: #e7e7e7; stroke-width: 0.8; stroke-linecap: square"/>
     </g>
     <g id="line2d_20">
      <g>
       <use xlink:href="#me5179b328b" x="22.72524" y="170.72091" style="stroke: #000000; stroke-width: 0.8"/>
      </g>
     </g>
     <g id="text_11">
      <!-- 6 -->
      <g transform="translate(9.36274 174.520128) scale(0.1 -0.1)">
       <use xlink:href="#DejaVuSans-36"/>
      </g>
     </g>
    </g>
    <g id="ytick_5">
     <g id="line2d_21">
      <path d="M 22.72524 143.400668 
L 277.048198 143.400668 
" clip-path="url(#pc553ae9177)" style="fill: none; stroke: #e7e7e7; stroke-width: 0.8; stroke-linecap: square"/>
     </g>
     <g id="line2d_22">
      <g>
       <use xlink:href="#me5179b328b" x="22.72524" y="143.400668" style="stroke: #000000; stroke-width: 0.8"/>
      </g>
     </g>
     <g id="text_12">
      <!-- 8 -->
      <g transform="translate(9.36274 147.199887) scale(0.1 -0.1)">
       <use xlink:href="#DejaVuSans-38"/>
      </g>
     </g>
    </g>
    <g id="ytick_6">
     <g id="line2d_23">
      <path d="M 22.72524 116.080426 
L 277.048198 116.080426 
" clip-path="url(#pc553ae9177)" style="fill: none; stroke: #e7e7e7; stroke-width: 0.8; stroke-linecap: square"/>
     </g>
     <g id="line2d_24">
      <g>
       <use xlink:href="#me5179b328b" x="22.72524" y="116.080426" style="stroke: #000000; stroke-width: 0.8"/>
      </g>
     </g>
     <g id="text_13">
      <!-- 10 -->
      <g transform="translate(3.00024 119.879645) scale(0.1 -0.1)">
       <use xlink:href="#DejaVuSans-31"/>
       <use xlink:href="#DejaVuSans-30" transform="translate(63.623047 0)"/>
      </g>
     </g>
    </g>
    <g id="ytick_7">
     <g id="line2d_25">
      <path d="M 22.72524 88.760184 
L 277.048198 88.760184 
" clip-path="url(#pc553ae9177)" style="fill: none; stroke: #e7e7e7; stroke-width: 0.8; stroke-linecap: square"/>
     </g>
     <g id="line2d_26">
      <g>
       <use xlink:href="#me5179b328b" x="22.72524" y="88.760184" style="stroke: #000000; stroke-width: 0.8"/>
      </g>
     </g>
     <g id="text_14">
      <!-- 12 -->
      <g transform="translate(3.00024 92.559403) scale(0.1 -0.1)">
       <use xlink:href="#DejaVuSans-31"/>
       <use xlink:href="#DejaVuSans-32" transform="translate(63.623047 0)"/>
      </g>
     </g>
    </g>
    <g id="ytick_8">
     <g id="line2d_27">
      <path d="M 22.72524 61.439942 
L 277.048198 61.439942 
" clip-path="url(#pc553ae9177)" style="fill: none; stroke: #e7e7e7; stroke-width: 0.8; stroke-linecap: square"/>
     </g>
     <g id="line2d_28">
      <g>
       <use xlink:href="#me5179b328b" x="22.72524" y="61.439942" style="stroke: #000000; stroke-width: 0.8"/>
      </g>
     </g>
     <g id="text_15">
      <!-- 14 -->
      <g transform="translate(3.00024 65.239161) scale(0.1 -0.1)">
       <use xlink:href="#DejaVuSans-31"/>
       <use xlink:href="#DejaVuSans-34" transform="translate(63.623047 0)"/>
      </g>
     </g>
    </g>
    <g id="ytick_9">
     <g id="line2d_29">
      <path d="M 22.72524 34.119701 
L 277.048198 34.119701 
" clip-path="url(#pc553ae9177)" style="fill: none; stroke: #e7e7e7; stroke-width: 0.8; stroke-linecap: square"/>
     </g>
     <g id="line2d_30">
      <g>
       <use xlink:href="#me5179b328b" x="22.72524" y="34.119701" style="stroke: #000000; stroke-width: 0.8"/>
      </g>
     </g>
     <g id="text_16">
      <!-- 16 -->
      <g transform="translate(3.00024 37.918919) scale(0.1 -0.1)">
       <use xlink:href="#DejaVuSans-31"/>
       <use xlink:href="#DejaVuSans-36" transform="translate(63.623047 0)"/>
      </g>
     </g>
    </g>
    <g id="ytick_10">
     <g id="line2d_31">
      <path d="M 22.72524 6.799459 
L 277.048198 6.799459 
" clip-path="url(#pc553ae9177)" style="fill: none; stroke: #e7e7e7; stroke-width: 0.8; stroke-linecap: square"/>
     </g>
     <g id="line2d_32">
      <g>
       <use xlink:href="#me5179b328b" x="22.72524" y="6.799459" style="stroke: #000000; stroke-width: 0.8"/>
      </g>
     </g>
     <g id="text_17">
      <!-- 18 -->
      <g transform="translate(3.00024 10.598678) scale(0.1 -0.1)">
       <use xlink:href="#DejaVuSans-31"/>
       <use xlink:href="#DejaVuSans-38" transform="translate(63.623047 0)"/>
      </g>
     </g>
    </g>
   </g>
   <g id="FillBetweenPolyCollection_1">
    <defs>
     <path id="m9264ba5468" d="M 116.771282 -35.390572 
L 116.771282 -35.318365 
L 116.993008 -35.318365 
L 117.214734 -35.318365 
L 117.43646 -35.318365 
L 117.658185 -35.318365 
L 117.879911 -35.318365 
L 118.101637 -35.318365 
L 118.323363 -35.318365 
L 118.545089 -35.318365 
L 118.766815 -35.318365 
L 118.988541 -35.318365 
L 119.210267 -35.318365 
L 119.431992 -35.318365 
L 119.653718 -35.318365 
L 119.875444 -35.318365 
L 120.09717 -35.318365 
L 120.318896 -35.318365 
L 120.540622 -35.318365 
L 120.762348 -35.318365 
L 120.984074 -35.318365 
L 121.205799 -35.318365 
L 121.427525 -35.318365 
L 121.649251 -35.318365 
L 121.870977 -35.318365 
L 122.092703 -35.318365 
L 122.314429 -35.318365 
L 122.536155 -35.318365 
L 122.757881 -35.318365 
L 122.979606 -35.318365 
L 123.201332 -35.318365 
L 123.423058 -35.318365 
L 123.644784 -35.318365 
L 123.86651 -35.318365 
L 124.088236 -35.318365 
L 124.309962 -35.318365 
L 124.531688 -35.318365 
L 124.753413 -35.318365 
L 124.975139 -35.318365 
L 125.196865 -35.318365 
L 125.418591 -35.318365 
L 125.640317 -35.318365 
L 125.862043 -35.318365 
L 126.083769 -35.318365 
L 126.305495 -35.318365 
L 126.52722 -35.318365 
L 126.748946 -35.318365 
L 126.970672 -35.318365 
L 127.192398 -35.318365 
L 127.414124 -35.318365 
L 127.63585 -35.318365 
L 127.857576 -35.318365 
L 128.079302 -35.318365 
L 128.301027 -35.318365 
L 128.522753 -35.318365 
L 128.744479 -35.318365 
L 128.966205 -35.318365 
L 129.187931 -35.318365 
L 129.409657 -35.318365 
L 129.631383 -35.318365 
L 129.853109 -35.318365 
L 130.074834 -35.318365 
L 130.29656 -35.318365 
L 130.518286 -35.318365 
L 130.740012 -35.318365 
L 130.961738 -35.318365 
L 131.183464 -35.318365 
L 131.40519 -35.318365 
L 131.626916 -35.318365 
L 131.848641 -35.318365 
L 132.070367 -35.318365 
L 132.292093 -35.318365 
L 132.513819 -35.318365 
L 132.735545 -35.318365 
L 132.957271 -35.318365 
L 133.178997 -35.318365 
L 133.400723 -35.318365 
L 133.622448 -35.318365 
L 133.844174 -35.318365 
L 134.0659 -35.318365 
L 134.287626 -35.318365 
L 134.509352 -35.318365 
L 134.731078 -35.318365 
L 134.952804 -35.318365 
L 135.17453 -35.318365 
L 135.396255 -35.318365 
L 135.617981 -35.318365 
L 135.839707 -35.318365 
L 136.061433 -35.318365 
L 136.283159 -35.318365 
L 136.504885 -35.318365 
L 136.726611 -35.318365 
L 136.948337 -35.318365 
L 137.170062 -35.318365 
L 137.391788 -35.318365 
L 137.613514 -35.318365 
L 137.83524 -35.318365 
L 138.056966 -35.318365 
L 138.278692 -35.318365 
L 138.500418 -35.318365 
L 138.722144 -35.318365 
L 138.943869 -35.318365 
L 139.165595 -35.318365 
L 139.387321 -35.318365 
L 139.609047 -35.318365 
L 139.830773 -35.318365 
L 140.052499 -35.318365 
L 140.274225 -35.318365 
L 140.495951 -35.318365 
L 140.717677 -35.318365 
L 140.939402 -35.318365 
L 141.161128 -35.318365 
L 141.382854 -35.318365 
L 141.60458 -35.318365 
L 141.826306 -35.318365 
L 142.048032 -35.318365 
L 142.269758 -35.318365 
L 142.491484 -35.318365 
L 142.713209 -35.318365 
L 142.934935 -35.318365 
L 143.156661 -35.318365 
L 143.378387 -35.318365 
L 143.600113 -35.318365 
L 143.821839 -35.318365 
L 144.043565 -35.318365 
L 144.265291 -35.318365 
L 144.487016 -35.318365 
L 144.708742 -35.318365 
L 144.930468 -35.318365 
L 145.152194 -35.318365 
L 145.37392 -35.318365 
L 145.595646 -35.318365 
L 145.817372 -35.318365 
L 146.039098 -35.318365 
L 146.260823 -35.318365 
L 146.482549 -35.318365 
L 146.704275 -35.318365 
L 146.926001 -35.318365 
L 147.147727 -35.318365 
L 147.369453 -35.318365 
L 147.591179 -35.318365 
L 147.812905 -35.318365 
L 148.03463 -35.318365 
L 148.256356 -35.318365 
L 148.478082 -35.318365 
L 148.699808 -35.318365 
L 148.921534 -35.318365 
L 149.14326 -35.318365 
L 149.364986 -35.318365 
L 149.586712 -35.318365 
L 149.808437 -35.318365 
L 150.030163 -35.318365 
L 150.251889 -35.318365 
L 150.473615 -35.318365 
L 150.695341 -35.318365 
L 150.917067 -35.318365 
L 151.138793 -35.318365 
L 151.360519 -35.318365 
L 151.582244 -35.318365 
L 151.80397 -35.318365 
L 152.025696 -35.318365 
L 152.247422 -35.318365 
L 152.469148 -35.318365 
L 152.690874 -35.318365 
L 152.9126 -35.318365 
L 153.134326 -35.318365 
L 153.356051 -35.318365 
L 153.577777 -35.318365 
L 153.799503 -35.318365 
L 154.021229 -35.318365 
L 154.242955 -35.318365 
L 154.464681 -35.318365 
L 154.686407 -35.318365 
L 154.908133 -35.318365 
L 155.129858 -35.318365 
L 155.351584 -35.318365 
L 155.57331 -35.318365 
L 155.795036 -35.318365 
L 156.016762 -35.318365 
L 156.238488 -35.318365 
L 156.460214 -35.318365 
L 156.68194 -35.318365 
L 156.903665 -35.318365 
L 157.125391 -35.318365 
L 157.347117 -35.318365 
L 157.568843 -35.318365 
L 157.790569 -35.318365 
L 158.012295 -35.318365 
L 158.234021 -35.318365 
L 158.455747 -35.318365 
L 158.677472 -35.318365 
L 158.899198 -35.318365 
L 159.120924 -35.318365 
L 159.34265 -35.318365 
L 159.564376 -35.318365 
L 159.786102 -35.318365 
L 160.007828 -35.318365 
L 160.229554 -35.318365 
L 160.451279 -35.318365 
L 160.673005 -35.318365 
L 160.894731 -35.318365 
L 160.894731 -35.329159 
L 160.894731 -35.329159 
L 160.673005 -35.336343 
L 160.451279 -35.347689 
L 160.229554 -35.365223 
L 160.007828 -35.391734 
L 159.786102 -35.430965 
L 159.564376 -35.487792 
L 159.34265 -35.568391 
L 159.120924 -35.680352 
L 158.899198 -35.832731 
L 158.677472 -36.036004 
L 158.455747 -36.301917 
L 158.234021 -36.643252 
L 158.012295 -37.073513 
L 157.790569 -37.606617 
L 157.568843 -38.256657 
L 157.347117 -39.037853 
L 157.125391 -39.964795 
L 156.903665 -41.053074 
L 156.68194 -42.320366 
L 156.460214 -43.787945 
L 156.238488 -45.482554 
L 156.016762 -47.43842 
L 155.795036 -49.699133 
L 155.57331 -52.319013 
L 155.351584 -55.363535 
L 155.129858 -58.908375 
L 154.908133 -63.036702 
L 154.686407 -67.83444 
L 154.464681 -73.38345 
L 154.242955 -79.752792 
L 154.021229 -86.988598 
L 153.799503 -95.103387 
L 153.577777 -104.06599 
L 153.356051 -113.793522 
L 153.134326 -124.146865 
L 152.9126 -134.931076 
L 152.690874 -145.901653 
L 152.469148 -156.776994 
L 152.247422 -167.256484 
L 152.025696 -177.042739 
L 151.80397 -185.865688 
L 151.582244 -193.505627 
L 151.360519 -199.812271 
L 151.138793 -204.717204 
L 150.917067 -208.237952 
L 150.695341 -210.473108 
L 150.473615 -211.589195 
L 150.251889 -211.801098 
L 150.030163 -211.348726 
L 149.808437 -210.472858 
L 149.586712 -209.393019 
L 149.364986 -208.289604 
L 149.14326 -207.291666 
L 148.921534 -206.470897 
L 148.699808 -205.841489 
L 148.478082 -205.365015 
L 148.256356 -204.959118 
L 148.03463 -204.508698 
L 147.812905 -203.878379 
L 147.591179 -202.925215 
L 147.369453 -201.510794 
L 147.147727 -199.512097 
L 146.926001 -196.830613 
L 146.704275 -193.399346 
L 146.482549 -189.187416 
L 146.260823 -184.20209 
L 146.039098 -178.488161 
L 145.817372 -172.12474 
L 145.595646 -165.219691 
L 145.37392 -157.90211 
L 145.152194 -150.313432 
L 144.930468 -142.597918 
L 144.708742 -134.893385 
L 144.487016 -127.323024 
L 144.265291 -119.989125 
L 144.043565 -112.969247 
L 143.821839 -106.315132 
L 143.600113 -100.054249 
L 143.378387 -94.193558 
L 143.156661 -88.724761 
L 142.934935 -83.63017 
L 142.713209 -78.888326 
L 142.491484 -74.478616 
L 142.269758 -70.384393 
L 142.048032 -66.594403 
L 141.826306 -63.102625 
L 141.60458 -59.906842 
L 141.382854 -57.006444 
L 141.161128 -54.39999 
L 140.939402 -52.083016 
L 140.717677 -50.046456 
L 140.495951 -48.275888 
L 140.274225 -46.751667 
L 140.052499 -45.449825 
L 139.830773 -44.343553 
L 139.609047 -43.404993 
L 139.387321 -42.607061 
L 139.165595 -41.925063 
L 138.943869 -41.337927 
L 138.722144 -40.828924 
L 138.500418 -40.385885 
L 138.278692 -40.000923 
L 138.056966 -39.669771 
L 137.83524 -39.39085 
L 137.613514 -39.16419 
L 137.391788 -38.990367 
L 137.170062 -38.869538 
L 136.948337 -38.800714 
L 136.726611 -38.781326 
L 136.504885 -38.807146 
L 136.283159 -38.872556 
L 136.061433 -38.971129 
L 135.839707 -39.096428 
L 135.617981 -39.242881 
L 135.396255 -39.40658 
L 135.17453 -39.585833 
L 134.952804 -39.781338 
L 134.731078 -39.995898 
L 134.509352 -40.233678 
L 134.287626 -40.499096 
L 134.0659 -40.795498 
L 133.844174 -41.123834 
L 133.622448 -41.481555 
L 133.400723 -41.861944 
L 133.178997 -42.254 
L 132.957271 -42.642955 
L 132.735545 -43.011367 
L 132.513819 -43.340672 
L 132.292093 -43.612999 
L 132.070367 -43.813 
L 131.848641 -43.929459 
L 131.626916 -43.956455 
L 131.40519 -43.89393 
L 131.183464 -43.747576 
L 130.961738 -43.528075 
L 130.740012 -43.249788 
L 130.518286 -42.9291 
L 130.29656 -42.582653 
L 130.074834 -42.225704 
L 129.853109 -41.870845 
L 129.631383 -41.527213 
L 129.409657 -41.200266 
L 129.187931 -40.892082 
L 128.966205 -40.602062 
L 128.744479 -40.327876 
L 128.522753 -40.066445 
L 128.301027 -39.814809 
L 128.079302 -39.570755 
L 127.857576 -39.333163 
L 127.63585 -39.102096 
L 127.414124 -38.878701 
L 127.192398 -38.665019 
L 126.970672 -38.463785 
L 126.748946 -38.278283 
L 126.52722 -38.112258 
L 126.305495 -37.969859 
L 126.083769 -37.855565 
L 125.862043 -37.774037 
L 125.640317 -37.729881 
L 125.418591 -37.727332 
L 125.196865 -37.769904 
L 124.975139 -37.860107 
L 124.753413 -37.999281 
L 124.531688 -38.187596 
L 124.309962 -38.424212 
L 124.088236 -38.707508 
L 123.86651 -39.035261 
L 123.644784 -39.404632 
L 123.423058 -39.811859 
L 123.201332 -40.251608 
L 122.979606 -40.716083 
L 122.757881 -41.194083 
L 122.536155 -41.670274 
L 122.314429 -42.124996 
L 122.092703 -42.534836 
L 121.870977 -42.87408 
L 121.649251 -43.116977 
L 121.427525 -43.240537 
L 121.205799 -43.227434 
L 120.984074 -43.068521 
L 120.762348 -42.764482 
L 120.540622 -42.326286 
L 120.318896 -41.774345 
L 120.09717 -41.136469 
L 119.875444 -40.444975 
L 119.653718 -39.733395 
L 119.431992 -39.033301 
L 119.210267 -38.371678 
L 118.988541 -37.769144 
L 118.766815 -37.239151 
L 118.545089 -36.788102 
L 118.323363 -36.41621 
L 118.101637 -36.11884 
L 117.879911 -35.888046 
L 117.658185 -35.71407 
L 117.43646 -35.58662 
L 117.214734 -35.495845 
L 116.993008 -35.432959 
L 116.771282 -35.390572 
z
" style="stroke: #0071b2; stroke-width: 1.5"/>
    </defs>
    <g clip-path="url(#pc553ae9177)">
     <use xlink:href="#m9264ba5468" x="0" y="288" style="fill: #0071b2; fill-opacity: 0.75; stroke: #0071b2; stroke-width: 1.5"/>
    </g>
   </g>
   <g id="FillBetweenPolyCollection_2">
    <defs>
     <path id="m8abc4c7dee" d="M 109.72297 -35.32933 
L 109.72297 -35.318365 
L 109.987237 -35.318365 
L 110.251504 -35.318365 
L 110.515771 -35.318365 
L 110.780039 -35.318365 
L 111.044306 -35.318365 
L 111.308573 -35.318365 
L 111.57284 -35.318365 
L 111.837107 -35.318365 
L 112.101375 -35.318365 
L 112.365642 -35.318365 
L 112.629909 -35.318365 
L 112.894176 -35.318365 
L 113.158443 -35.318365 
L 113.422711 -35.318365 
L 113.686978 -35.318365 
L 113.951245 -35.318365 
L 114.215512 -35.318365 
L 114.479779 -35.318365 
L 114.744047 -35.318365 
L 115.008314 -35.318365 
L 115.272581 -35.318365 
L 115.536848 -35.318365 
L 115.801116 -35.318365 
L 116.065383 -35.318365 
L 116.32965 -35.318365 
L 116.593917 -35.318365 
L 116.858184 -35.318365 
L 117.122452 -35.318365 
L 117.386719 -35.318365 
L 117.650986 -35.318365 
L 117.915253 -35.318365 
L 118.17952 -35.318365 
L 118.443788 -35.318365 
L 118.708055 -35.318365 
L 118.972322 -35.318365 
L 119.236589 -35.318365 
L 119.500856 -35.318365 
L 119.765124 -35.318365 
L 120.029391 -35.318365 
L 120.293658 -35.318365 
L 120.557925 -35.318365 
L 120.822192 -35.318365 
L 121.08646 -35.318365 
L 121.350727 -35.318365 
L 121.614994 -35.318365 
L 121.879261 -35.318365 
L 122.143528 -35.318365 
L 122.407796 -35.318365 
L 122.672063 -35.318365 
L 122.93633 -35.318365 
L 123.200597 -35.318365 
L 123.464865 -35.318365 
L 123.729132 -35.318365 
L 123.993399 -35.318365 
L 124.257666 -35.318365 
L 124.521933 -35.318365 
L 124.786201 -35.318365 
L 125.050468 -35.318365 
L 125.314735 -35.318365 
L 125.579002 -35.318365 
L 125.843269 -35.318365 
L 126.107537 -35.318365 
L 126.371804 -35.318365 
L 126.636071 -35.318365 
L 126.900338 -35.318365 
L 127.164605 -35.318365 
L 127.428873 -35.318365 
L 127.69314 -35.318365 
L 127.957407 -35.318365 
L 128.221674 -35.318365 
L 128.485941 -35.318365 
L 128.750209 -35.318365 
L 129.014476 -35.318365 
L 129.278743 -35.318365 
L 129.54301 -35.318365 
L 129.807277 -35.318365 
L 130.071545 -35.318365 
L 130.335812 -35.318365 
L 130.600079 -35.318365 
L 130.864346 -35.318365 
L 131.128614 -35.318365 
L 131.392881 -35.318365 
L 131.657148 -35.318365 
L 131.921415 -35.318365 
L 132.185682 -35.318365 
L 132.44995 -35.318365 
L 132.714217 -35.318365 
L 132.978484 -35.318365 
L 133.242751 -35.318365 
L 133.507018 -35.318365 
L 133.771286 -35.318365 
L 134.035553 -35.318365 
L 134.29982 -35.318365 
L 134.564087 -35.318365 
L 134.828354 -35.318365 
L 135.092622 -35.318365 
L 135.356889 -35.318365 
L 135.621156 -35.318365 
L 135.885423 -35.318365 
L 136.14969 -35.318365 
L 136.413958 -35.318365 
L 136.678225 -35.318365 
L 136.942492 -35.318365 
L 137.206759 -35.318365 
L 137.471026 -35.318365 
L 137.735294 -35.318365 
L 137.999561 -35.318365 
L 138.263828 -35.318365 
L 138.528095 -35.318365 
L 138.792363 -35.318365 
L 139.05663 -35.318365 
L 139.320897 -35.318365 
L 139.585164 -35.318365 
L 139.849431 -35.318365 
L 140.113699 -35.318365 
L 140.377966 -35.318365 
L 140.642233 -35.318365 
L 140.9065 -35.318365 
L 141.170767 -35.318365 
L 141.435035 -35.318365 
L 141.699302 -35.318365 
L 141.963569 -35.318365 
L 142.227836 -35.318365 
L 142.492103 -35.318365 
L 142.756371 -35.318365 
L 143.020638 -35.318365 
L 143.284905 -35.318365 
L 143.549172 -35.318365 
L 143.813439 -35.318365 
L 144.077707 -35.318365 
L 144.341974 -35.318365 
L 144.606241 -35.318365 
L 144.870508 -35.318365 
L 145.134775 -35.318365 
L 145.399043 -35.318365 
L 145.66331 -35.318365 
L 145.927577 -35.318365 
L 146.191844 -35.318365 
L 146.456112 -35.318365 
L 146.720379 -35.318365 
L 146.984646 -35.318365 
L 147.248913 -35.318365 
L 147.51318 -35.318365 
L 147.777448 -35.318365 
L 148.041715 -35.318365 
L 148.305982 -35.318365 
L 148.570249 -35.318365 
L 148.834516 -35.318365 
L 149.098784 -35.318365 
L 149.363051 -35.318365 
L 149.627318 -35.318365 
L 149.891585 -35.318365 
L 150.155852 -35.318365 
L 150.42012 -35.318365 
L 150.684387 -35.318365 
L 150.948654 -35.318365 
L 151.212921 -35.318365 
L 151.477188 -35.318365 
L 151.741456 -35.318365 
L 152.005723 -35.318365 
L 152.26999 -35.318365 
L 152.534257 -35.318365 
L 152.798525 -35.318365 
L 153.062792 -35.318365 
L 153.327059 -35.318365 
L 153.591326 -35.318365 
L 153.855593 -35.318365 
L 154.119861 -35.318365 
L 154.384128 -35.318365 
L 154.648395 -35.318365 
L 154.912662 -35.318365 
L 155.176929 -35.318365 
L 155.441197 -35.318365 
L 155.705464 -35.318365 
L 155.969731 -35.318365 
L 156.233998 -35.318365 
L 156.498265 -35.318365 
L 156.762533 -35.318365 
L 157.0268 -35.318365 
L 157.291067 -35.318365 
L 157.555334 -35.318365 
L 157.819601 -35.318365 
L 158.083869 -35.318365 
L 158.348136 -35.318365 
L 158.612403 -35.318365 
L 158.87667 -35.318365 
L 159.140937 -35.318365 
L 159.405205 -35.318365 
L 159.669472 -35.318365 
L 159.933739 -35.318365 
L 160.198006 -35.318365 
L 160.462274 -35.318365 
L 160.726541 -35.318365 
L 160.990808 -35.318365 
L 161.255075 -35.318365 
L 161.519342 -35.318365 
L 161.78361 -35.318365 
L 162.047877 -35.318365 
L 162.312144 -35.318365 
L 162.312144 -35.356217 
L 162.312144 -35.356217 
L 162.047877 -35.379686 
L 161.78361 -35.415781 
L 161.519342 -35.470136 
L 161.255075 -35.550295 
L 160.990808 -35.666059 
L 160.726541 -35.8298 
L 160.462274 -36.056652 
L 160.198006 -36.364537 
L 159.933739 -36.773952 
L 159.669472 -37.307488 
L 159.405205 -37.98905 
L 159.140937 -38.842809 
L 158.87667 -39.891961 
L 158.612403 -41.157415 
L 158.348136 -42.656568 
L 158.083869 -44.402346 
L 157.819601 -46.402692 
L 157.555334 -48.660608 
L 157.291067 -51.174824 
L 157.0268 -53.941025 
L 156.762533 -56.953514 
L 156.498265 -60.207042 
L 156.233998 -63.698533 
L 155.969731 -67.428367 
L 155.705464 -71.400965 
L 155.441197 -75.624468 
L 155.176929 -80.109457 
L 154.912662 -84.866772 
L 154.648395 -89.904655 
L 154.384128 -95.225506 
L 154.119861 -100.82265 
L 153.855593 -106.677507 
L 153.591326 -112.757524 
L 153.327059 -119.015159 
L 153.062792 -125.3881 
L 152.798525 -131.800747 
L 152.534257 -138.166903 
L 152.26999 -144.393433 
L 152.005723 -150.384581 
L 151.741456 -156.046562 
L 151.477188 -161.291996 
L 151.212921 -166.043782 
L 150.948654 -170.238079 
L 150.684387 -173.826162 
L 150.42012 -176.77507 
L 150.155852 -179.06712 
L 149.891585 -180.698463 
L 149.627318 -181.677013 
L 149.363051 -182.020069 
L 149.098784 -181.751995 
L 148.834516 -180.902215 
L 148.570249 -179.503729 
L 148.305982 -177.592212 
L 148.041715 -175.205666 
L 147.777448 -172.384523 
L 147.51318 -169.172011 
L 147.248913 -165.614626 
L 146.984646 -161.762489 
L 146.720379 -157.669449 
L 146.456112 -153.392772 
L 146.191844 -148.992315 
L 145.927577 -144.529103 
L 145.66331 -140.063306 
L 145.399043 -135.651658 
L 145.134775 -131.344457 
L 144.870508 -127.1824 
L 144.606241 -123.193582 
L 144.341974 -119.391074 
L 144.077707 -115.771513 
L 143.813439 -112.315088 
L 143.549172 -108.987192 
L 143.284905 -105.741796 
L 143.020638 -102.526362 
L 142.756371 -99.287862 
L 142.492103 -95.97923 
L 142.227836 -92.565459 
L 141.963569 -89.028526 
L 141.699302 -85.370452 
L 141.435035 -81.614044 
L 141.170767 -77.801195 
L 140.9065 -73.988972 
L 140.642233 -70.244043 
L 140.377966 -66.636205 
L 140.113699 -63.231905 
L 139.849431 -60.088546 
L 139.585164 -57.250235 
L 139.320897 -54.745334 
L 139.05663 -52.5859 
L 138.792363 -50.768808 
L 138.528095 -49.27815 
L 138.263828 -48.088374 
L 137.999561 -47.167637 
L 137.735294 -46.480903 
L 137.471026 -45.992453 
L 137.206759 -45.667652 
L 136.942492 -45.473963 
L 136.678225 -45.381338 
L 136.413958 -45.362191 
L 136.14969 -45.39118 
L 135.885423 -45.445 
L 135.621156 -45.502348 
L 135.356889 -45.544101 
L 135.092622 -45.553717 
L 134.828354 -45.517762 
L 134.564087 -45.426461 
L 134.29982 -45.274141 
L 134.035553 -45.059463 
L 133.771286 -44.785379 
L 133.507018 -44.458796 
L 133.242751 -44.089967 
L 132.978484 -43.691684 
L 132.714217 -43.278332 
L 132.44995 -42.864912 
L 132.185682 -42.466088 
L 131.921415 -42.095318 
L 131.657148 -41.764122 
L 131.392881 -41.481489 
L 131.128614 -41.253453 
L 130.864346 -41.082848 
L 130.600079 -40.96924 
L 130.335812 -40.909064 
L 130.071545 -40.895962 
L 129.807277 -40.921317 
L 129.54301 -40.974974 
L 129.278743 -41.046088 
L 129.014476 -41.12405 
L 128.750209 -41.199401 
L 128.485941 -41.264629 
L 128.221674 -41.31478 
L 127.957407 -41.347797 
L 127.69314 -41.364553 
L 127.428873 -41.368597 
L 127.164605 -41.365641 
L 126.900338 -41.36289 
L 126.636071 -41.368318 
L 126.371804 -41.390001 
L 126.107537 -41.435586 
L 125.843269 -41.511968 
L 125.579002 -41.625148 
L 125.314735 -41.780238 
L 125.050468 -41.981515 
L 124.786201 -42.232392 
L 124.521933 -42.535209 
L 124.257666 -42.890767 
L 123.993399 -43.297586 
L 123.729132 -43.750973 
L 123.464865 -44.242042 
L 123.200597 -44.756915 
L 122.93633 -45.276335 
L 122.672063 -45.77592 
L 122.407796 -46.227193 
L 122.143528 -46.59941 
L 121.879261 -46.862068 
L 121.614994 -46.987813 
L 121.350727 -46.955397 
L 121.08646 -46.752247 
L 120.822192 -46.376265 
L 120.557925 -45.836573 
L 120.293658 -45.153049 
L 120.029391 -44.354714 
L 119.765124 -43.477176 
L 119.500856 -42.559473 
L 119.236589 -41.640729 
L 118.972322 -40.757027 
L 118.708055 -39.938846 
L 118.443788 -39.209277 
L 118.17952 -38.583125 
L 117.915253 -38.066865 
L 117.650986 -37.659316 
L 117.386719 -37.352868 
L 117.122452 -37.135023 
L 116.858184 -36.990082 
L 116.593917 -36.90079 
L 116.32965 -36.849818 
L 116.065383 -36.821014 
L 115.801116 -36.800353 
L 115.536848 -36.776586 
L 115.272581 -36.741581 
L 115.008314 -36.690378 
L 114.744047 -36.62099 
L 114.479779 -36.534004 
L 114.215512 -36.432025 
L 113.951245 -36.319054 
L 113.686978 -36.199836 
L 113.422711 -36.079262 
L 113.158443 -35.961874 
L 112.894176 -35.851491 
L 112.629909 -35.750988 
L 112.365642 -35.662212 
L 112.101375 -35.586021 
L 111.837107 -35.522413 
L 111.57284 -35.470707 
L 111.308573 -35.429752 
L 111.044306 -35.398121 
L 110.780039 -35.37429 
L 110.515771 -35.356768 
L 110.251504 -35.344189 
L 109.987237 -35.33537 
L 109.72297 -35.32933 
z
" style="stroke: #d55e00; stroke-width: 1.5"/>
    </defs>
    <g clip-path="url(#pc553ae9177)">
     <use xlink:href="#m8abc4c7dee" x="0" y="288" style="fill: #d55e00; fill-opacity: 0.75; stroke: #d55e00; stroke-width: 1.5"/>
    </g>
   </g>
   <g id="patch_3">
    <path d="M 22.72524 252.681635 
L 22.72524 6.799459 
" style="fill: none; stroke: #000000; stroke-width: 0.8; stroke-linejoin: miter; stroke-linecap: square"/>
   </g>
   <g id="patch_4">
    <path d="M 277.048198 252.681635 
L 277.048198 6.799459 
" style="fill: none; stroke: #000000; stroke-width: 0.8; stroke-linejoin: miter; stroke-linecap: square"/>
   </g>
   <g id="patch_5">
    <path d="M 22.72524 252.681635 
L 277.048198 252.681635 
" style="fill: none; stroke: #000000; stroke-width: 0.8; stroke-linejoin: miter; stroke-linecap: square"/>
   </g>
   <g id="patch_6">
    <path d="M 22.72524 6.799459 
L 277.048198 6.799459 
" style="fill: none; stroke: #000000; stroke-width: 0.8; stroke-linejoin: miter; stroke-linecap: square"/>
   </g>
   <g id="legend_1">
    <g id="patch_7">
     <path d="M 71.669375 55.362584 
L 228.104063 55.362584 
Q 230.704063 55.362584 230.704063 52.762584 
L 230.704063 15.899459 
Q 230.704063 13.299459 228.104063 13.299459 
L 71.669375 13.299459 
Q 69.069375 13.299459 69.069375 15.899459 
L 69.069375 52.762584 
Q 69.069375 55.362584 71.669375 55.362584 
z
" style="fill: #ffffff; opacity: 0.8; stroke: #cccccc; stroke-linejoin: miter"/>
    </g>
    <g id="patch_8">
     <path d="M 74.269375 28.377427 
L 100.269375 28.377427 
L 100.269375 19.277427 
L 74.269375 19.277427 
z
" style="fill: #0071b2; stroke: #0071b2; stroke-linejoin: miter"/>
    </g>
    <g id="text_18">
     <!-- multimodal acces -->
     <g transform="translate(110.669375 28.377427) scale(0.13 -0.13)">
      <defs>
       <path id="DejaVuSans-6d" d="M 3328 2828 
Q 3544 3216 3844 3400 
Q 4144 3584 4550 3584 
Q 5097 3584 5394 3201 
Q 5691 2819 5691 2113 
L 5691 0 
L 5113 0 
L 5113 2094 
Q 5113 2597 4934 2840 
Q 4756 3084 4391 3084 
Q 3944 3084 3684 2787 
Q 3425 2491 3425 1978 
L 3425 0 
L 2847 0 
L 2847 2094 
Q 2847 2600 2669 2842 
Q 2491 3084 2119 3084 
Q 1678 3084 1418 2786 
Q 1159 2488 1159 1978 
L 1159 0 
L 581 0 
L 581 3500 
L 1159 3500 
L 1159 2956 
Q 1356 3278 1631 3431 
Q 1906 3584 2284 3584 
Q 2666 3584 2933 3390 
Q 3200 3197 3328 2828 
z
" transform="scale(0.015625)"/>
       <path id="DejaVuSans-75" d="M 544 1381 
L 544 3500 
L 1119 3500 
L 1119 1403 
Q 1119 906 1312 657 
Q 1506 409 1894 409 
Q 2359 409 2629 706 
Q 2900 1003 2900 1516 
L 2900 3500 
L 3475 3500 
L 3475 0 
L 2900 0 
L 2900 538 
Q 2691 219 2414 64 
Q 2138 -91 1772 -91 
Q 1169 -91 856 284 
Q 544 659 544 1381 
z
M 1991 3584 
L 1991 3584 
z
" transform="scale(0.015625)"/>
       <path id="DejaVuSans-6c" d="M 603 4863 
L 1178 4863 
L 1178 0 
L 603 0 
L 603 4863 
z
" transform="scale(0.015625)"/>
       <path id="DejaVuSans-74" d="M 1172 4494 
L 1172 3500 
L 2356 3500 
L 2356 3053 
L 1172 3053 
L 1172 1153 
Q 1172 725 1289 603 
Q 1406 481 1766 481 
L 2356 481 
L 2356 0 
L 1766 0 
Q 1100 0 847 248 
Q 594 497 594 1153 
L 594 3053 
L 172 3053 
L 172 3500 
L 594 3500 
L 594 4494 
L 1172 4494 
z
" transform="scale(0.015625)"/>
       <path id="DejaVuSans-6f" d="M 1959 3097 
Q 1497 3097 1228 2736 
Q 959 2375 959 1747 
Q 959 1119 1226 758 
Q 1494 397 1959 397 
Q 2419 397 2687 759 
Q 2956 1122 2956 1747 
Q 2956 2369 2687 2733 
Q 2419 3097 1959 3097 
z
M 1959 3584 
Q 2709 3584 3137 3096 
Q 3566 2609 3566 1747 
Q 3566 888 3137 398 
Q 2709 -91 1959 -91 
Q 1206 -91 779 398 
Q 353 888 353 1747 
Q 353 2609 779 3096 
Q 1206 3584 1959 3584 
z
" transform="scale(0.015625)"/>
       <path id="DejaVuSans-64" d="M 2906 2969 
L 2906 4863 
L 3481 4863 
L 3481 0 
L 2906 0 
L 2906 525 
Q 2725 213 2448 61 
Q 2172 -91 1784 -91 
Q 1150 -91 751 415 
Q 353 922 353 1747 
Q 353 2572 751 3078 
Q 1150 3584 1784 3584 
Q 2172 3584 2448 3432 
Q 2725 3281 2906 2969 
z
M 947 1747 
Q 947 1113 1208 752 
Q 1469 391 1925 391 
Q 2381 391 2643 752 
Q 2906 1113 2906 1747 
Q 2906 2381 2643 2742 
Q 2381 3103 1925 3103 
Q 1469 3103 1208 2742 
Q 947 2381 947 1747 
z
" transform="scale(0.015625)"/>
       <path id="DejaVuSans-61" d="M 2194 1759 
Q 1497 1759 1228 1600 
Q 959 1441 959 1056 
Q 959 750 1161 570 
Q 1363 391 1709 391 
Q 2188 391 2477 730 
Q 2766 1069 2766 1631 
L 2766 1759 
L 2194 1759 
z
M 3341 1997 
L 3341 0 
L 2766 0 
L 2766 531 
Q 2569 213 2275 61 
Q 1981 -91 1556 -91 
Q 1019 -91 701 211 
Q 384 513 384 1019 
Q 384 1609 779 1909 
Q 1175 2209 1959 2209 
L 2766 2209 
L 2766 2266 
Q 2766 2663 2505 2880 
Q 2244 3097 1772 3097 
Q 1472 3097 1187 3025 
Q 903 2953 641 2809 
L 641 3341 
Q 956 3463 1253 3523 
Q 1550 3584 1831 3584 
Q 2591 3584 2966 3190 
Q 3341 2797 3341 1997 
z
" transform="scale(0.015625)"/>
       <path id="DejaVuSans-63" d="M 3122 3366 
L 3122 2828 
Q 2878 2963 2633 3030 
Q 2388 3097 2138 3097 
Q 1578 3097 1268 2742 
Q 959 2388 959 1747 
Q 959 1106 1268 751 
Q 1578 397 2138 397 
Q 2388 397 2633 464 
Q 2878 531 3122 666 
L 3122 134 
Q 2881 22 2623 -34 
Q 2366 -91 2075 -91 
Q 1284 -91 818 406 
Q 353 903 353 1747 
Q 353 2603 823 3093 
Q 1294 3584 2113 3584 
Q 2378 3584 2631 3529 
Q 2884 3475 3122 3366 
z
" transform="scale(0.015625)"/>
       <path id="DejaVuSans-65" d="M 3597 1894 
L 3597 1613 
L 953 1613 
Q 991 1019 1311 708 
Q 1631 397 2203 397 
Q 2534 397 2845 478 
Q 3156 559 3463 722 
L 3463 178 
Q 3153 47 2828 -22 
Q 2503 -91 2169 -91 
Q 1331 -91 842 396 
Q 353 884 353 1716 
Q 353 2575 817 3079 
Q 1281 3584 2069 3584 
Q 2775 3584 3186 3129 
Q 3597 2675 3597 1894 
z
M 3022 2063 
Q 3016 2534 2758 2815 
Q 2500 3097 2075 3097 
Q 1594 3097 1305 2825 
Q 1016 2553 972 2059 
L 3022 2063 
z
" transform="scale(0.015625)"/>
       <path id="DejaVuSans-73" d="M 2834 3397 
L 2834 2853 
Q 2591 2978 2328 3040 
Q 2066 3103 1784 3103 
Q 1356 3103 1142 2972 
Q 928 2841 928 2578 
Q 928 2378 1081 2264 
Q 1234 2150 1697 2047 
L 1894 2003 
Q 2506 1872 2764 1633 
Q 3022 1394 3022 966 
Q 3022 478 2636 193 
Q 2250 -91 1575 -91 
Q 1294 -91 989 -36 
Q 684 19 347 128 
L 347 722 
Q 666 556 975 473 
Q 1284 391 1588 391 
Q 1994 391 2212 530 
Q 2431 669 2431 922 
Q 2431 1156 2273 1281 
Q 2116 1406 1581 1522 
L 1381 1569 
Q 847 1681 609 1914 
Q 372 2147 372 2553 
Q 372 3047 722 3315 
Q 1072 3584 1716 3584 
Q 2034 3584 2315 3537 
Q 2597 3491 2834 3397 
z
" transform="scale(0.015625)"/>
      </defs>
      <use xlink:href="#DejaVuSans-6d"/>
      <use xlink:href="#DejaVuSans-75" transform="translate(97.412109 0)"/>
      <use xlink:href="#DejaVuSans-6c" transform="translate(160.791016 0)"/>
      <use xlink:href="#DejaVuSans-74" transform="translate(188.574219 0)"/>
      <use xlink:href="#DejaVuSans-69" transform="translate(227.783203 0)"/>
      <use xlink:href="#DejaVuSans-6d" transform="translate(255.566406 0)"/>
      <use xlink:href="#DejaVuSans-6f" transform="translate(352.978516 0)"/>
      <use xlink:href="#DejaVuSans-64" transform="translate(414.160156 0)"/>
      <use xlink:href="#DejaVuSans-61" transform="translate(477.636719 0)"/>
      <use xlink:href="#DejaVuSans-6c" transform="translate(538.916016 0)"/>
      <use xlink:href="#DejaVuSans-20" transform="translate(566.699219 0)"/>
      <use xlink:href="#DejaVuSans-61" transform="translate(598.486328 0)"/>
      <use xlink:href="#DejaVuSans-63" transform="translate(659.765625 0)"/>
      <use xlink:href="#DejaVuSans-63" transform="translate(714.746094 0)"/>
      <use xlink:href="#DejaVuSans-65" transform="translate(769.726562 0)"/>
      <use xlink:href="#DejaVuSans-73" transform="translate(831.25 0)"/>
     </g>
    </g>
    <g id="patch_9">
     <path d="M 74.269375 47.45899 
L 100.269375 47.45899 
L 100.269375 38.35899 
L 74.269375 38.35899 
z
" style="fill: #d55e00; stroke: #d55e00; stroke-linejoin: miter"/>
    </g>
    <g id="text_19">
     <!-- walking access -->
     <g transform="translate(110.669375 47.45899) scale(0.13 -0.13)">
      <defs>
       <path id="DejaVuSans-77" d="M 269 3500 
L 844 3500 
L 1563 769 
L 2278 3500 
L 2956 3500 
L 3675 769 
L 4391 3500 
L 4966 3500 
L 4050 0 
L 3372 0 
L 2619 2869 
L 1863 0 
L 1184 0 
L 269 3500 
z
" transform="scale(0.015625)"/>
       <path id="DejaVuSans-6b" d="M 581 4863 
L 1159 4863 
L 1159 1991 
L 2875 3500 
L 3609 3500 
L 1753 1863 
L 3688 0 
L 2938 0 
L 1159 1709 
L 1159 0 
L 581 0 
L 581 4863 
z
" transform="scale(0.015625)"/>
       <path id="DejaVuSans-67" d="M 2906 1791 
Q 2906 2416 2648 2759 
Q 2391 3103 1925 3103 
Q 1463 3103 1205 2759 
Q 947 2416 947 1791 
Q 947 1169 1205 825 
Q 1463 481 1925 481 
Q 2391 481 2648 825 
Q 2906 1169 2906 1791 
z
M 3481 434 
Q 3481 -459 3084 -895 
Q 2688 -1331 1869 -1331 
Q 1566 -1331 1297 -1286 
Q 1028 -1241 775 -1147 
L 775 -588 
Q 1028 -725 1275 -790 
Q 1522 -856 1778 -856 
Q 2344 -856 2625 -561 
Q 2906 -266 2906 331 
L 2906 616 
Q 2728 306 2450 153 
Q 2172 0 1784 0 
Q 1141 0 747 490 
Q 353 981 353 1791 
Q 353 2603 747 3093 
Q 1141 3584 1784 3584 
Q 2172 3584 2450 3431 
Q 2728 3278 2906 2969 
L 2906 3500 
L 3481 3500 
L 3481 434 
z
" transform="scale(0.015625)"/>
      </defs>
      <use xlink:href="#DejaVuSans-77"/>
      <use xlink:href="#DejaVuSans-61" transform="translate(81.787109 0)"/>
      <use xlink:href="#DejaVuSans-6c" transform="translate(143.066406 0)"/>
      <use xlink:href="#DejaVuSans-6b" transform="translate(170.849609 0)"/>
      <use xlink:href="#DejaVuSans-69" transform="translate(228.759766 0)"/>
      <use xlink:href="#DejaVuSans-6e" transform="translate(256.542969 0)"/>
      <use xlink:href="#DejaVuSans-67" transform="translate(319.921875 0)"/>
      <use xlink:href="#DejaVuSans-20" transform="translate(383.398438 0)"/>
      <use xlink:href="#DejaVuSans-61" transform="translate(415.185547 0)"/>
      <use xlink:href="#DejaVuSans-63" transform="translate(476.464844 0)"/>
      <use xlink:href="#DejaVuSans-63" transform="translate(531.445312 0)"/>
      <use xlink:href="#DejaVuSans-65" transform="translate(586.425781 0)"/>
      <use xlink:href="#DejaVuSans-73" transform="translate(647.949219 0)"/>
      <use xlink:href="#DejaVuSans-73" transform="translate(700.048828 0)"/>
     </g>
    </g>
   </g>
  </g>
 </g>
 <defs>
  <clipPath id="pc553ae9177">
   <rect x="22.72524" y="6.799459" width="254.322958" height="245.882176"/>
  </clipPath>
 </defs>
</svg>
