<?xml version="1.0" encoding="utf-8" standalone="no"?>
<!DOCTYPE svg PUBLIC "-//W3C//DTD SVG 1.1//EN"
  "http://www.w3.org/Graphics/SVG/1.1/DTD/svg11.dtd">
<svg xmlns:xlink="http://www.w3.org/1999/xlink" width="569.99952pt" height="353.99946pt" viewBox="0 0 569.99952 353.99946" xmlns="http://www.w3.org/2000/svg" version="1.1">
 <metadata>
  <rdf:RDF xmlns:dc="http://purl.org/dc/elements/1.1/" xmlns:cc="http://creativecommons.org/ns#" xmlns:rdf="http://www.w3.org/1999/02/22-rdf-syntax-ns#">
   <cc:Work>
    <dc:type rdf:resource="http://purl.org/dc/dcmitype/StillImage"/>
    <dc:format>image/svg+xml</dc:format>
    <dc:creator>
     <cc:Agent>
      <dc:title>Gergő Pintér</dc:title>
     </cc:Agent>
    </dc:creator>
    <dc:rights>
     <cc:Agent>
      <dc:title>CC BY 4.0</dc:title>
     </cc:Agent>
    </dc:rights>
   </cc:Work>
  </rdf:RDF>
 </metadata>
 <defs>
  <style type="text/css">*{stroke-linejoin: round; stroke-linecap: butt}</style>
 </defs>
 <g id="figure_1">
  <g id="patch_1">
   <path d="M 0 353.99946 
L 569.99952 353.99946 
L 569.99952 0 
L 0 0 
z
" style="fill: #ffffff"/>
  </g>
  <g id="axes_1">
   <g id="patch_2">
    <path d="M 49.999375 318.621335 
L 562.047957 318.621335 
L 562.047957 2.404557 
L 49.999375 2.404557 
z
" style="fill: #ffffff"/>
   </g>
   <g id="patch_3">
    <path d="M 49.999375 318.621335 
L 76.9493 318.621335 
L 76.9493 318.621335 
L 49.999375 318.621335 
z
" clip-path="url(#pb4050f08ef)" style="fill: #260d40; stroke: #4c4c4c; stroke-width: 0.5; stroke-linejoin: miter"/>
   </g>
   <g id="patch_4">
    <path d="M 76.9493 318.621335 
L 103.899226 318.621335 
L 103.899226 318.621335 
L 76.9493 318.621335 
z
" clip-path="url(#pb4050f08ef)" style="fill: #260d40; stroke: #4c4c4c; stroke-width: 0.5; stroke-linejoin: miter"/>
   </g>
   <g id="patch_5">
    <path d="M 103.899226 318.621335 
L 130.849151 318.621335 
L 130.849151 318.621335 
L 103.899226 318.621335 
z
" clip-path="url(#pb4050f08ef)" style="fill: #260d40; stroke: #4c4c4c; stroke-width: 0.5; stroke-linejoin: miter"/>
   </g>
   <g id="patch_6">
    <path d="M 130.849151 318.621335 
L 157.799077 318.621335 
L 157.799077 318.621335 
L 130.849151 318.621335 
z
" clip-path="url(#pb4050f08ef)" style="fill: #260d40; stroke: #4c4c4c; stroke-width: 0.5; stroke-linejoin: miter"/>
   </g>
   <g id="patch_7">
    <path d="M 157.799077 318.621335 
L 184.749002 318.621335 
L 184.749002 318.621335 
L 157.799077 318.621335 
z
" clip-path="url(#pb4050f08ef)" style="fill: #260d40; stroke: #4c4c4c; stroke-width: 0.5; stroke-linejoin: miter"/>
   </g>
   <g id="patch_8">
    <path d="M 184.749002 318.621335 
L 211.698927 318.621335 
L 211.698927 318.621335 
L 184.749002 318.621335 
z
" clip-path="url(#pb4050f08ef)" style="fill: #260d40; stroke: #4c4c4c; stroke-width: 0.5; stroke-linejoin: miter"/>
   </g>
   <g id="patch_9">
    <path d="M 211.698927 318.621335 
L 238.648853 318.621335 
L 238.648853 318.621335 
L 211.698927 318.621335 
z
" clip-path="url(#pb4050f08ef)" style="fill: #260d40; stroke: #4c4c4c; stroke-width: 0.5; stroke-linejoin: miter"/>
   </g>
   <g id="patch_10">
    <path d="M 238.648853 318.621335 
L 265.598778 318.621335 
L 265.598778 318.621335 
L 238.648853 318.621335 
z
" clip-path="url(#pb4050f08ef)" style="fill: #260d40; stroke: #4c4c4c; stroke-width: 0.5; stroke-linejoin: miter"/>
   </g>
   <g id="patch_11">
    <path d="M 265.598778 318.621335 
L 292.548704 318.621335 
L 292.548704 318.621335 
L 265.598778 318.621335 
z
" clip-path="url(#pb4050f08ef)" style="fill: #260d40; stroke: #4c4c4c; stroke-width: 0.5; stroke-linejoin: miter"/>
   </g>
   <g id="patch_12">
    <path d="M 292.548704 318.621335 
L 319.498629 318.621335 
L 319.498629 318.621335 
L 292.548704 318.621335 
z
" clip-path="url(#pb4050f08ef)" style="fill: #260d40; stroke: #4c4c4c; stroke-width: 0.5; stroke-linejoin: miter"/>
   </g>
   <g id="patch_13">
    <path d="M 319.498629 318.621335 
L 346.448554 318.621335 
L 346.448554 318.621335 
L 319.498629 318.621335 
z
" clip-path="url(#pb4050f08ef)" style="fill: #260d40; stroke: #4c4c4c; stroke-width: 0.5; stroke-linejoin: miter"/>
   </g>
   <g id="patch_14">
    <path d="M 346.448554 318.621335 
L 373.39848 318.621335 
L 373.39848 318.621335 
L 346.448554 318.621335 
z
" clip-path="url(#pb4050f08ef)" style="fill: #260d40; stroke: #4c4c4c; stroke-width: 0.5; stroke-linejoin: miter"/>
   </g>
   <g id="patch_15">
    <path d="M 373.39848 318.621335 
L 400.348405 318.621335 
L 400.348405 318.621335 
L 373.39848 318.621335 
z
" clip-path="url(#pb4050f08ef)" style="fill: #260d40; stroke: #4c4c4c; stroke-width: 0.5; stroke-linejoin: miter"/>
   </g>
   <g id="patch_16">
    <path d="M 400.348405 318.621335 
L 427.298331 318.621335 
L 427.298331 318.621335 
L 400.348405 318.621335 
z
" clip-path="url(#pb4050f08ef)" style="fill: #260d40; stroke: #4c4c4c; stroke-width: 0.5; stroke-linejoin: miter"/>
   </g>
   <g id="patch_17">
    <path d="M 427.298331 318.621335 
L 454.248256 318.621335 
L 454.248256 318.621335 
L 427.298331 318.621335 
z
" clip-path="url(#pb4050f08ef)" style="fill: #260d40; stroke: #4c4c4c; stroke-width: 0.5; stroke-linejoin: miter"/>
   </g>
   <g id="patch_18">
    <path d="M 454.248256 318.621335 
L 481.198181 318.621335 
L 481.198181 318.621335 
L 454.248256 318.621335 
z
" clip-path="url(#pb4050f08ef)" style="fill: #260d40; stroke: #4c4c4c; stroke-width: 0.5; stroke-linejoin: miter"/>
   </g>
   <g id="patch_19">
    <path d="M 481.198181 318.621335 
L 508.148107 318.621335 
L 508.148107 318.621335 
L 481.198181 318.621335 
z
" clip-path="url(#pb4050f08ef)" style="fill: #260d40; stroke: #4c4c4c; stroke-width: 0.5; stroke-linejoin: miter"/>
   </g>
   <g id="patch_20">
    <path d="M 508.148107 318.621335 
L 535.098032 318.621335 
L 535.098032 318.621335 
L 508.148107 318.621335 
z
" clip-path="url(#pb4050f08ef)" style="fill: #260d40; stroke: #4c4c4c; stroke-width: 0.5; stroke-linejoin: miter"/>
   </g>
   <g id="patch_21">
    <path d="M 535.098032 318.621335 
L 562.047957 318.621335 
L 562.047957 318.621335 
L 535.098032 318.621335 
z
" clip-path="url(#pb4050f08ef)" style="fill: #260d40; stroke: #4c4c4c; stroke-width: 0.5; stroke-linejoin: miter"/>
   </g>
   <g id="patch_22">
    <path d="M 49.999375 318.621335 
L 76.9493 318.621335 
L 76.9493 318.621335 
L 49.999375 318.621335 
z
" clip-path="url(#pb4050f08ef)" style="fill: #403261; stroke: #4c4c4c; stroke-width: 0.5; stroke-linejoin: miter"/>
   </g>
   <g id="patch_23">
    <path d="M 76.9493 318.621335 
L 103.899226 318.621335 
L 103.899226 318.621335 
L 76.9493 318.621335 
z
" clip-path="url(#pb4050f08ef)" style="fill: #403261; stroke: #4c4c4c; stroke-width: 0.5; stroke-linejoin: miter"/>
   </g>
   <g id="patch_24">
    <path d="M 103.899226 318.621335 
L 130.849151 318.621335 
L 130.849151 318.621335 
L 103.899226 318.621335 
z
" clip-path="url(#pb4050f08ef)" style="fill: #403261; stroke: #4c4c4c; stroke-width: 0.5; stroke-linejoin: miter"/>
   </g>
   <g id="patch_25">
    <path d="M 130.849151 318.621335 
L 157.799077 318.621335 
L 157.799077 318.621335 
L 130.849151 318.621335 
z
" clip-path="url(#pb4050f08ef)" style="fill: #403261; stroke: #4c4c4c; stroke-width: 0.5; stroke-linejoin: miter"/>
   </g>
   <g id="patch_26">
    <path d="M 157.799077 318.621335 
L 184.749002 318.621335 
L 184.749002 318.621335 
L 157.799077 318.621335 
z
" clip-path="url(#pb4050f08ef)" style="fill: #403261; stroke: #4c4c4c; stroke-width: 0.5; stroke-linejoin: miter"/>
   </g>
   <g id="patch_27">
    <path d="M 184.749002 318.621335 
L 211.698927 318.621335 
L 211.698927 318.621335 
L 184.749002 318.621335 
z
" clip-path="url(#pb4050f08ef)" style="fill: #403261; stroke: #4c4c4c; stroke-width: 0.5; stroke-linejoin: miter"/>
   </g>
   <g id="patch_28">
    <path d="M 211.698927 318.621335 
L 238.648853 318.621335 
L 238.648853 318.621335 
L 211.698927 318.621335 
z
" clip-path="url(#pb4050f08ef)" style="fill: #403261; stroke: #4c4c4c; stroke-width: 0.5; stroke-linejoin: miter"/>
   </g>
   <g id="patch_29">
    <path d="M 238.648853 318.621335 
L 265.598778 318.621335 
L 265.598778 318.621335 
L 238.648853 318.621335 
z
" clip-path="url(#pb4050f08ef)" style="fill: #403261; stroke: #4c4c4c; stroke-width: 0.5; stroke-linejoin: miter"/>
   </g>
   <g id="patch_30">
    <path d="M 265.598778 318.621335 
L 292.548704 318.621335 
L 292.548704 318.621335 
L 265.598778 318.621335 
z
" clip-path="url(#pb4050f08ef)" style="fill: #403261; stroke: #4c4c4c; stroke-width: 0.5; stroke-linejoin: miter"/>
   </g>
   <g id="patch_31">
    <path d="M 292.548704 318.621335 
L 319.498629 318.621335 
L 319.498629 318.621335 
L 292.548704 318.621335 
z
" clip-path="url(#pb4050f08ef)" style="fill: #403261; stroke: #4c4c4c; stroke-width: 0.5; stroke-linejoin: miter"/>
   </g>
   <g id="patch_32">
    <path d="M 319.498629 318.621335 
L 346.448554 318.621335 
L 346.448554 318.621335 
L 319.498629 318.621335 
z
" clip-path="url(#pb4050f08ef)" style="fill: #403261; stroke: #4c4c4c; stroke-width: 0.5; stroke-linejoin: miter"/>
   </g>
   <g id="patch_33">
    <path d="M 346.448554 318.621335 
L 373.39848 318.621335 
L 373.39848 318.621335 
L 346.448554 318.621335 
z
" clip-path="url(#pb4050f08ef)" style="fill: #403261; stroke: #4c4c4c; stroke-width: 0.5; stroke-linejoin: miter"/>
   </g>
   <g id="patch_34">
    <path d="M 373.39848 318.621335 
L 400.348405 318.621335 
L 400.348405 318.621335 
L 373.39848 318.621335 
z
" clip-path="url(#pb4050f08ef)" style="fill: #403261; stroke: #4c4c4c; stroke-width: 0.5; stroke-linejoin: miter"/>
   </g>
   <g id="patch_35">
    <path d="M 400.348405 318.621335 
L 427.298331 318.621335 
L 427.298331 318.621335 
L 400.348405 318.621335 
z
" clip-path="url(#pb4050f08ef)" style="fill: #403261; stroke: #4c4c4c; stroke-width: 0.5; stroke-linejoin: miter"/>
   </g>
   <g id="patch_36">
    <path d="M 427.298331 318.621335 
L 454.248256 318.621335 
L 454.248256 318.621335 
L 427.298331 318.621335 
z
" clip-path="url(#pb4050f08ef)" style="fill: #403261; stroke: #4c4c4c; stroke-width: 0.5; stroke-linejoin: miter"/>
   </g>
   <g id="patch_37">
    <path d="M 454.248256 318.621335 
L 481.198181 318.621335 
L 481.198181 318.621335 
L 454.248256 318.621335 
z
" clip-path="url(#pb4050f08ef)" style="fill: #403261; stroke: #4c4c4c; stroke-width: 0.5; stroke-linejoin: miter"/>
   </g>
   <g id="patch_38">
    <path d="M 481.198181 318.621335 
L 508.148107 318.621335 
L 508.148107 318.621335 
L 481.198181 318.621335 
z
" clip-path="url(#pb4050f08ef)" style="fill: #403261; stroke: #4c4c4c; stroke-width: 0.5; stroke-linejoin: miter"/>
   </g>
   <g id="patch_39">
    <path d="M 508.148107 318.621335 
L 535.098032 318.621335 
L 535.098032 318.621335 
L 508.148107 318.621335 
z
" clip-path="url(#pb4050f08ef)" style="fill: #403261; stroke: #4c4c4c; stroke-width: 0.5; stroke-linejoin: miter"/>
   </g>
   <g id="patch_40">
    <path d="M 535.098032 318.621335 
L 562.047957 318.621335 
L 562.047957 318.621335 
L 535.098032 318.621335 
z
" clip-path="url(#pb4050f08ef)" style="fill: #403261; stroke: #4c4c4c; stroke-width: 0.5; stroke-linejoin: miter"/>
   </g>
   <g id="patch_41">
    <path d="M 49.999375 318.621335 
L 76.9493 318.621335 
L 76.9493 318.621335 
L 49.999375 318.621335 
z
" clip-path="url(#pb4050f08ef)" style="fill: #585380; stroke: #4c4c4c; stroke-width: 0.5; stroke-linejoin: miter"/>
   </g>
   <g id="patch_42">
    <path d="M 76.9493 318.621335 
L 103.899226 318.621335 
L 103.899226 318.621335 
L 76.9493 318.621335 
z
" clip-path="url(#pb4050f08ef)" style="fill: #585380; stroke: #4c4c4c; stroke-width: 0.5; stroke-linejoin: miter"/>
   </g>
   <g id="patch_43">
    <path d="M 103.899226 318.621335 
L 130.849151 318.621335 
L 130.849151 318.621335 
L 103.899226 318.621335 
z
" clip-path="url(#pb4050f08ef)" style="fill: #585380; stroke: #4c4c4c; stroke-width: 0.5; stroke-linejoin: miter"/>
   </g>
   <g id="patch_44">
    <path d="M 130.849151 318.621335 
L 157.799077 318.621335 
L 157.799077 318.621335 
L 130.849151 318.621335 
z
" clip-path="url(#pb4050f08ef)" style="fill: #585380; stroke: #4c4c4c; stroke-width: 0.5; stroke-linejoin: miter"/>
   </g>
   <g id="patch_45">
    <path d="M 157.799077 318.621335 
L 184.749002 318.621335 
L 184.749002 318.621335 
L 157.799077 318.621335 
z
" clip-path="url(#pb4050f08ef)" style="fill: #585380; stroke: #4c4c4c; stroke-width: 0.5; stroke-linejoin: miter"/>
   </g>
   <g id="patch_46">
    <path d="M 184.749002 318.621335 
L 211.698927 318.621335 
L 211.698927 318.621335 
L 184.749002 318.621335 
z
" clip-path="url(#pb4050f08ef)" style="fill: #585380; stroke: #4c4c4c; stroke-width: 0.5; stroke-linejoin: miter"/>
   </g>
   <g id="patch_47">
    <path d="M 211.698927 318.621335 
L 238.648853 318.621335 
L 238.648853 318.621335 
L 211.698927 318.621335 
z
" clip-path="url(#pb4050f08ef)" style="fill: #585380; stroke: #4c4c4c; stroke-width: 0.5; stroke-linejoin: miter"/>
   </g>
   <g id="patch_48">
    <path d="M 238.648853 318.621335 
L 265.598778 318.621335 
L 265.598778 318.621335 
L 238.648853 318.621335 
z
" clip-path="url(#pb4050f08ef)" style="fill: #585380; stroke: #4c4c4c; stroke-width: 0.5; stroke-linejoin: miter"/>
   </g>
   <g id="patch_49">
    <path d="M 265.598778 318.621335 
L 292.548704 318.621335 
L 292.548704 318.621335 
L 265.598778 318.621335 
z
" clip-path="url(#pb4050f08ef)" style="fill: #585380; stroke: #4c4c4c; stroke-width: 0.5; stroke-linejoin: miter"/>
   </g>
   <g id="patch_50">
    <path d="M 292.548704 318.621335 
L 319.498629 318.621335 
L 319.498629 318.621335 
L 292.548704 318.621335 
z
" clip-path="url(#pb4050f08ef)" style="fill: #585380; stroke: #4c4c4c; stroke-width: 0.5; stroke-linejoin: miter"/>
   </g>
   <g id="patch_51">
    <path d="M 319.498629 318.621335 
L 346.448554 318.621335 
L 346.448554 318.621335 
L 319.498629 318.621335 
z
" clip-path="url(#pb4050f08ef)" style="fill: #585380; stroke: #4c4c4c; stroke-width: 0.5; stroke-linejoin: miter"/>
   </g>
   <g id="patch_52">
    <path d="M 346.448554 318.621335 
L 373.39848 318.621335 
L 373.39848 318.621335 
L 346.448554 318.621335 
z
" clip-path="url(#pb4050f08ef)" style="fill: #585380; stroke: #4c4c4c; stroke-width: 0.5; stroke-linejoin: miter"/>
   </g>
   <g id="patch_53">
    <path d="M 373.39848 318.621335 
L 400.348405 318.621335 
L 400.348405 318.621335 
L 373.39848 318.621335 
z
" clip-path="url(#pb4050f08ef)" style="fill: #585380; stroke: #4c4c4c; stroke-width: 0.5; stroke-linejoin: miter"/>
   </g>
   <g id="patch_54">
    <path d="M 400.348405 318.621335 
L 427.298331 318.621335 
L 427.298331 318.621335 
L 400.348405 318.621335 
z
" clip-path="url(#pb4050f08ef)" style="fill: #585380; stroke: #4c4c4c; stroke-width: 0.5; stroke-linejoin: miter"/>
   </g>
   <g id="patch_55">
    <path d="M 427.298331 318.621335 
L 454.248256 318.621335 
L 454.248256 318.621335 
L 427.298331 318.621335 
z
" clip-path="url(#pb4050f08ef)" style="fill: #585380; stroke: #4c4c4c; stroke-width: 0.5; stroke-linejoin: miter"/>
   </g>
   <g id="patch_56">
    <path d="M 454.248256 318.621335 
L 481.198181 318.621335 
L 481.198181 318.621335 
L 454.248256 318.621335 
z
" clip-path="url(#pb4050f08ef)" style="fill: #585380; stroke: #4c4c4c; stroke-width: 0.5; stroke-linejoin: miter"/>
   </g>
   <g id="patch_57">
    <path d="M 481.198181 318.621335 
L 508.148107 318.621335 
L 508.148107 318.621335 
L 481.198181 318.621335 
z
" clip-path="url(#pb4050f08ef)" style="fill: #585380; stroke: #4c4c4c; stroke-width: 0.5; stroke-linejoin: miter"/>
   </g>
   <g id="patch_58">
    <path d="M 508.148107 318.621335 
L 535.098032 318.621335 
L 535.098032 318.621335 
L 508.148107 318.621335 
z
" clip-path="url(#pb4050f08ef)" style="fill: #585380; stroke: #4c4c4c; stroke-width: 0.5; stroke-linejoin: miter"/>
   </g>
   <g id="patch_59">
    <path d="M 535.098032 318.621335 
L 562.047957 318.621335 
L 562.047957 318.621335 
L 535.098032 318.621335 
z
" clip-path="url(#pb4050f08ef)" style="fill: #585380; stroke: #4c4c4c; stroke-width: 0.5; stroke-linejoin: miter"/>
   </g>
   <g id="patch_60">
    <path d="M 49.999375 318.621335 
L 76.9493 318.621335 
L 76.9493 318.621335 
L 49.999375 318.621335 
z
" clip-path="url(#pb4050f08ef)" style="fill: #7d638e; stroke: #4c4c4c; stroke-width: 0.5; stroke-linejoin: miter"/>
   </g>
   <g id="patch_61">
    <path d="M 76.9493 318.621335 
L 103.899226 318.621335 
L 103.899226 318.621335 
L 76.9493 318.621335 
z
" clip-path="url(#pb4050f08ef)" style="fill: #7d638e; stroke: #4c4c4c; stroke-width: 0.5; stroke-linejoin: miter"/>
   </g>
   <g id="patch_62">
    <path d="M 103.899226 318.621335 
L 130.849151 318.621335 
L 130.849151 318.621335 
L 103.899226 318.621335 
z
" clip-path="url(#pb4050f08ef)" style="fill: #7d638e; stroke: #4c4c4c; stroke-width: 0.5; stroke-linejoin: miter"/>
   </g>
   <g id="patch_63">
    <path d="M 130.849151 318.621335 
L 157.799077 318.621335 
L 157.799077 318.621335 
L 130.849151 318.621335 
z
" clip-path="url(#pb4050f08ef)" style="fill: #7d638e; stroke: #4c4c4c; stroke-width: 0.5; stroke-linejoin: miter"/>
   </g>
   <g id="patch_64">
    <path d="M 157.799077 318.621335 
L 184.749002 318.621335 
L 184.749002 318.621335 
L 157.799077 318.621335 
z
" clip-path="url(#pb4050f08ef)" style="fill: #7d638e; stroke: #4c4c4c; stroke-width: 0.5; stroke-linejoin: miter"/>
   </g>
   <g id="patch_65">
    <path d="M 184.749002 318.621335 
L 211.698927 318.621335 
L 211.698927 318.621335 
L 184.749002 318.621335 
z
" clip-path="url(#pb4050f08ef)" style="fill: #7d638e; stroke: #4c4c4c; stroke-width: 0.5; stroke-linejoin: miter"/>
   </g>
   <g id="patch_66">
    <path d="M 211.698927 318.621335 
L 238.648853 318.621335 
L 238.648853 318.621335 
L 211.698927 318.621335 
z
" clip-path="url(#pb4050f08ef)" style="fill: #7d638e; stroke: #4c4c4c; stroke-width: 0.5; stroke-linejoin: miter"/>
   </g>
   <g id="patch_67">
    <path d="M 238.648853 318.621335 
L 265.598778 318.621335 
L 265.598778 318.621335 
L 238.648853 318.621335 
z
" clip-path="url(#pb4050f08ef)" style="fill: #7d638e; stroke: #4c4c4c; stroke-width: 0.5; stroke-linejoin: miter"/>
   </g>
   <g id="patch_68">
    <path d="M 265.598778 318.621335 
L 292.548704 318.621335 
L 292.548704 318.621335 
L 265.598778 318.621335 
z
" clip-path="url(#pb4050f08ef)" style="fill: #7d638e; stroke: #4c4c4c; stroke-width: 0.5; stroke-linejoin: miter"/>
   </g>
   <g id="patch_69">
    <path d="M 292.548704 318.621335 
L 319.498629 318.621335 
L 319.498629 318.621335 
L 292.548704 318.621335 
z
" clip-path="url(#pb4050f08ef)" style="fill: #7d638e; stroke: #4c4c4c; stroke-width: 0.5; stroke-linejoin: miter"/>
   </g>
   <g id="patch_70">
    <path d="M 319.498629 318.621335 
L 346.448554 318.621335 
L 346.448554 318.621335 
L 319.498629 318.621335 
z
" clip-path="url(#pb4050f08ef)" style="fill: #7d638e; stroke: #4c4c4c; stroke-width: 0.5; stroke-linejoin: miter"/>
   </g>
   <g id="patch_71">
    <path d="M 346.448554 318.621335 
L 373.39848 318.621335 
L 373.39848 318.621335 
L 346.448554 318.621335 
z
" clip-path="url(#pb4050f08ef)" style="fill: #7d638e; stroke: #4c4c4c; stroke-width: 0.5; stroke-linejoin: miter"/>
   </g>
   <g id="patch_72">
    <path d="M 373.39848 318.621335 
L 400.348405 318.621335 
L 400.348405 318.621335 
L 373.39848 318.621335 
z
" clip-path="url(#pb4050f08ef)" style="fill: #7d638e; stroke: #4c4c4c; stroke-width: 0.5; stroke-linejoin: miter"/>
   </g>
   <g id="patch_73">
    <path d="M 400.348405 318.621335 
L 427.298331 318.621335 
L 427.298331 318.621335 
L 400.348405 318.621335 
z
" clip-path="url(#pb4050f08ef)" style="fill: #7d638e; stroke: #4c4c4c; stroke-width: 0.5; stroke-linejoin: miter"/>
   </g>
   <g id="patch_74">
    <path d="M 427.298331 318.621335 
L 454.248256 318.621335 
L 454.248256 318.621335 
L 427.298331 318.621335 
z
" clip-path="url(#pb4050f08ef)" style="fill: #7d638e; stroke: #4c4c4c; stroke-width: 0.5; stroke-linejoin: miter"/>
   </g>
   <g id="patch_75">
    <path d="M 454.248256 318.621335 
L 481.198181 318.621335 
L 481.198181 318.621335 
L 454.248256 318.621335 
z
" clip-path="url(#pb4050f08ef)" style="fill: #7d638e; stroke: #4c4c4c; stroke-width: 0.5; stroke-linejoin: miter"/>
   </g>
   <g id="patch_76">
    <path d="M 481.198181 318.621335 
L 508.148107 318.621335 
L 508.148107 318.621335 
L 481.198181 318.621335 
z
" clip-path="url(#pb4050f08ef)" style="fill: #7d638e; stroke: #4c4c4c; stroke-width: 0.5; stroke-linejoin: miter"/>
   </g>
   <g id="patch_77">
    <path d="M 508.148107 318.621335 
L 535.098032 318.621335 
L 535.098032 318.621335 
L 508.148107 318.621335 
z
" clip-path="url(#pb4050f08ef)" style="fill: #7d638e; stroke: #4c4c4c; stroke-width: 0.5; stroke-linejoin: miter"/>
   </g>
   <g id="patch_78">
    <path d="M 535.098032 318.621335 
L 562.047957 318.621335 
L 562.047957 318.621335 
L 535.098032 318.621335 
z
" clip-path="url(#pb4050f08ef)" style="fill: #7d638e; stroke: #4c4c4c; stroke-width: 0.5; stroke-linejoin: miter"/>
   </g>
   <g id="patch_79">
    <path d="M 49.999375 318.621335 
L 76.9493 318.621335 
L 76.9493 318.621335 
L 49.999375 318.621335 
z
" clip-path="url(#pb4050f08ef)" style="fill: #a76690; stroke: #4c4c4c; stroke-width: 0.5; stroke-linejoin: miter"/>
   </g>
   <g id="patch_80">
    <path d="M 76.9493 318.621335 
L 103.899226 318.621335 
L 103.899226 318.621335 
L 76.9493 318.621335 
z
" clip-path="url(#pb4050f08ef)" style="fill: #a76690; stroke: #4c4c4c; stroke-width: 0.5; stroke-linejoin: miter"/>
   </g>
   <g id="patch_81">
    <path d="M 103.899226 318.621335 
L 130.849151 318.621335 
L 130.849151 318.621335 
L 103.899226 318.621335 
z
" clip-path="url(#pb4050f08ef)" style="fill: #a76690; stroke: #4c4c4c; stroke-width: 0.5; stroke-linejoin: miter"/>
   </g>
   <g id="patch_82">
    <path d="M 130.849151 318.621335 
L 157.799077 318.621335 
L 157.799077 318.621335 
L 130.849151 318.621335 
z
" clip-path="url(#pb4050f08ef)" style="fill: #a76690; stroke: #4c4c4c; stroke-width: 0.5; stroke-linejoin: miter"/>
   </g>
   <g id="patch_83">
    <path d="M 157.799077 318.621335 
L 184.749002 318.621335 
L 184.749002 318.621335 
L 157.799077 318.621335 
z
" clip-path="url(#pb4050f08ef)" style="fill: #a76690; stroke: #4c4c4c; stroke-width: 0.5; stroke-linejoin: miter"/>
   </g>
   <g id="patch_84">
    <path d="M 184.749002 318.621335 
L 211.698927 318.621335 
L 211.698927 318.621335 
L 184.749002 318.621335 
z
" clip-path="url(#pb4050f08ef)" style="fill: #a76690; stroke: #4c4c4c; stroke-width: 0.5; stroke-linejoin: miter"/>
   </g>
   <g id="patch_85">
    <path d="M 211.698927 318.621335 
L 238.648853 318.621335 
L 238.648853 318.621335 
L 211.698927 318.621335 
z
" clip-path="url(#pb4050f08ef)" style="fill: #a76690; stroke: #4c4c4c; stroke-width: 0.5; stroke-linejoin: miter"/>
   </g>
   <g id="patch_86">
    <path d="M 238.648853 318.621335 
L 265.598778 318.621335 
L 265.598778 318.621335 
L 238.648853 318.621335 
z
" clip-path="url(#pb4050f08ef)" style="fill: #a76690; stroke: #4c4c4c; stroke-width: 0.5; stroke-linejoin: miter"/>
   </g>
   <g id="patch_87">
    <path d="M 265.598778 318.621335 
L 292.548704 318.621335 
L 292.548704 318.621335 
L 265.598778 318.621335 
z
" clip-path="url(#pb4050f08ef)" style="fill: #a76690; stroke: #4c4c4c; stroke-width: 0.5; stroke-linejoin: miter"/>
   </g>
   <g id="patch_88">
    <path d="M 292.548704 318.621335 
L 319.498629 318.621335 
L 319.498629 318.621335 
L 292.548704 318.621335 
z
" clip-path="url(#pb4050f08ef)" style="fill: #a76690; stroke: #4c4c4c; stroke-width: 0.5; stroke-linejoin: miter"/>
   </g>
   <g id="patch_89">
    <path d="M 319.498629 318.621335 
L 346.448554 318.621335 
L 346.448554 318.621335 
L 319.498629 318.621335 
z
" clip-path="url(#pb4050f08ef)" style="fill: #a76690; stroke: #4c4c4c; stroke-width: 0.5; stroke-linejoin: miter"/>
   </g>
   <g id="patch_90">
    <path d="M 346.448554 318.621335 
L 373.39848 318.621335 
L 373.39848 318.621335 
L 346.448554 318.621335 
z
" clip-path="url(#pb4050f08ef)" style="fill: #a76690; stroke: #4c4c4c; stroke-width: 0.5; stroke-linejoin: miter"/>
   </g>
   <g id="patch_91">
    <path d="M 373.39848 318.621335 
L 400.348405 318.621335 
L 400.348405 318.621335 
L 373.39848 318.621335 
z
" clip-path="url(#pb4050f08ef)" style="fill: #a76690; stroke: #4c4c4c; stroke-width: 0.5; stroke-linejoin: miter"/>
   </g>
   <g id="patch_92">
    <path d="M 400.348405 318.621335 
L 427.298331 318.621335 
L 427.298331 318.621335 
L 400.348405 318.621335 
z
" clip-path="url(#pb4050f08ef)" style="fill: #a76690; stroke: #4c4c4c; stroke-width: 0.5; stroke-linejoin: miter"/>
   </g>
   <g id="patch_93">
    <path d="M 427.298331 318.621335 
L 454.248256 318.621335 
L 454.248256 318.621335 
L 427.298331 318.621335 
z
" clip-path="url(#pb4050f08ef)" style="fill: #a76690; stroke: #4c4c4c; stroke-width: 0.5; stroke-linejoin: miter"/>
   </g>
   <g id="patch_94">
    <path d="M 454.248256 318.621335 
L 481.198181 318.621335 
L 481.198181 318.621335 
L 454.248256 318.621335 
z
" clip-path="url(#pb4050f08ef)" style="fill: #a76690; stroke: #4c4c4c; stroke-width: 0.5; stroke-linejoin: miter"/>
   </g>
   <g id="patch_95">
    <path d="M 481.198181 318.621335 
L 508.148107 318.621335 
L 508.148107 318.621335 
L 481.198181 318.621335 
z
" clip-path="url(#pb4050f08ef)" style="fill: #a76690; stroke: #4c4c4c; stroke-width: 0.5; stroke-linejoin: miter"/>
   </g>
   <g id="patch_96">
    <path d="M 508.148107 318.621335 
L 535.098032 318.621335 
L 535.098032 318.621335 
L 508.148107 318.621335 
z
" clip-path="url(#pb4050f08ef)" style="fill: #a76690; stroke: #4c4c4c; stroke-width: 0.5; stroke-linejoin: miter"/>
   </g>
   <g id="patch_97">
    <path d="M 535.098032 318.621335 
L 562.047957 318.621335 
L 562.047957 318.621335 
L 535.098032 318.621335 
z
" clip-path="url(#pb4050f08ef)" style="fill: #a76690; stroke: #4c4c4c; stroke-width: 0.5; stroke-linejoin: miter"/>
   </g>
   <g id="patch_98">
    <path d="M 49.999375 318.621335 
L 76.9493 318.621335 
L 76.9493 318.621335 
L 49.999375 318.621335 
z
" clip-path="url(#pb4050f08ef)" style="fill: #cf789e; stroke: #4c4c4c; stroke-width: 0.5; stroke-linejoin: miter"/>
   </g>
   <g id="patch_99">
    <path d="M 76.9493 318.621335 
L 103.899226 318.621335 
L 103.899226 318.621335 
L 76.9493 318.621335 
z
" clip-path="url(#pb4050f08ef)" style="fill: #cf789e; stroke: #4c4c4c; stroke-width: 0.5; stroke-linejoin: miter"/>
   </g>
   <g id="patch_100">
    <path d="M 103.899226 318.621335 
L 130.849151 318.621335 
L 130.849151 318.621335 
L 103.899226 318.621335 
z
" clip-path="url(#pb4050f08ef)" style="fill: #cf789e; stroke: #4c4c4c; stroke-width: 0.5; stroke-linejoin: miter"/>
   </g>
   <g id="patch_101">
    <path d="M 130.849151 318.621335 
L 157.799077 318.621335 
L 157.799077 318.621335 
L 130.849151 318.621335 
z
" clip-path="url(#pb4050f08ef)" style="fill: #cf789e; stroke: #4c4c4c; stroke-width: 0.5; stroke-linejoin: miter"/>
   </g>
   <g id="patch_102">
    <path d="M 157.799077 318.621335 
L 184.749002 318.621335 
L 184.749002 318.621335 
L 157.799077 318.621335 
z
" clip-path="url(#pb4050f08ef)" style="fill: #cf789e; stroke: #4c4c4c; stroke-width: 0.5; stroke-linejoin: miter"/>
   </g>
   <g id="patch_103">
    <path d="M 184.749002 318.621335 
L 211.698927 318.621335 
L 211.698927 318.621335 
L 184.749002 318.621335 
z
" clip-path="url(#pb4050f08ef)" style="fill: #cf789e; stroke: #4c4c4c; stroke-width: 0.5; stroke-linejoin: miter"/>
   </g>
   <g id="patch_104">
    <path d="M 211.698927 318.621335 
L 238.648853 318.621335 
L 238.648853 318.621335 
L 211.698927 318.621335 
z
" clip-path="url(#pb4050f08ef)" style="fill: #cf789e; stroke: #4c4c4c; stroke-width: 0.5; stroke-linejoin: miter"/>
   </g>
   <g id="patch_105">
    <path d="M 238.648853 318.621335 
L 265.598778 318.621335 
L 265.598778 318.621335 
L 238.648853 318.621335 
z
" clip-path="url(#pb4050f08ef)" style="fill: #cf789e; stroke: #4c4c4c; stroke-width: 0.5; stroke-linejoin: miter"/>
   </g>
   <g id="patch_106">
    <path d="M 265.598778 318.621335 
L 292.548704 318.621335 
L 292.548704 318.621335 
L 265.598778 318.621335 
z
" clip-path="url(#pb4050f08ef)" style="fill: #cf789e; stroke: #4c4c4c; stroke-width: 0.5; stroke-linejoin: miter"/>
   </g>
   <g id="patch_107">
    <path d="M 292.548704 318.621335 
L 319.498629 318.621335 
L 319.498629 318.621335 
L 292.548704 318.621335 
z
" clip-path="url(#pb4050f08ef)" style="fill: #cf789e; stroke: #4c4c4c; stroke-width: 0.5; stroke-linejoin: miter"/>
   </g>
   <g id="patch_108">
    <path d="M 319.498629 318.621335 
L 346.448554 318.621335 
L 346.448554 318.621335 
L 319.498629 318.621335 
z
" clip-path="url(#pb4050f08ef)" style="fill: #cf789e; stroke: #4c4c4c; stroke-width: 0.5; stroke-linejoin: miter"/>
   </g>
   <g id="patch_109">
    <path d="M 346.448554 318.621335 
L 373.39848 318.621335 
L 373.39848 318.621335 
L 346.448554 318.621335 
z
" clip-path="url(#pb4050f08ef)" style="fill: #cf789e; stroke: #4c4c4c; stroke-width: 0.5; stroke-linejoin: miter"/>
   </g>
   <g id="patch_110">
    <path d="M 373.39848 318.621335 
L 400.348405 318.621335 
L 400.348405 318.621335 
L 373.39848 318.621335 
z
" clip-path="url(#pb4050f08ef)" style="fill: #cf789e; stroke: #4c4c4c; stroke-width: 0.5; stroke-linejoin: miter"/>
   </g>
   <g id="patch_111">
    <path d="M 400.348405 318.621335 
L 427.298331 318.621335 
L 427.298331 318.621335 
L 400.348405 318.621335 
z
" clip-path="url(#pb4050f08ef)" style="fill: #cf789e; stroke: #4c4c4c; stroke-width: 0.5; stroke-linejoin: miter"/>
   </g>
   <g id="patch_112">
    <path d="M 427.298331 318.621335 
L 454.248256 318.621335 
L 454.248256 318.621335 
L 427.298331 318.621335 
z
" clip-path="url(#pb4050f08ef)" style="fill: #cf789e; stroke: #4c4c4c; stroke-width: 0.5; stroke-linejoin: miter"/>
   </g>
   <g id="patch_113">
    <path d="M 454.248256 318.621335 
L 481.198181 318.621335 
L 481.198181 235.256439 
L 454.248256 235.256439 
z
" clip-path="url(#pb4050f08ef)" style="fill: #cf789e; stroke: #4c4c4c; stroke-width: 0.5; stroke-linejoin: miter"/>
   </g>
   <g id="patch_114">
    <path d="M 481.198181 318.621335 
L 508.148107 318.621335 
L 508.148107 269.194263 
L 481.198181 269.194263 
z
" clip-path="url(#pb4050f08ef)" style="fill: #cf789e; stroke: #4c4c4c; stroke-width: 0.5; stroke-linejoin: miter"/>
   </g>
   <g id="patch_115">
    <path d="M 508.148107 318.621335 
L 535.098032 318.621335 
L 535.098032 281.031575 
L 508.148107 281.031575 
z
" clip-path="url(#pb4050f08ef)" style="fill: #cf789e; stroke: #4c4c4c; stroke-width: 0.5; stroke-linejoin: miter"/>
   </g>
   <g id="patch_116">
    <path d="M 535.098032 318.621335 
L 562.047957 318.621335 
L 562.047957 289.279914 
L 535.098032 289.279914 
z
" clip-path="url(#pb4050f08ef)" style="fill: #cf789e; stroke: #4c4c4c; stroke-width: 0.5; stroke-linejoin: miter"/>
   </g>
   <g id="patch_117">
    <path d="M 49.999375 318.621335 
L 76.9493 318.621335 
L 76.9493 318.621335 
L 49.999375 318.621335 
z
" clip-path="url(#pb4050f08ef)" style="fill: #dda1c2; stroke: #4c4c4c; stroke-width: 0.5; stroke-linejoin: miter"/>
   </g>
   <g id="patch_118">
    <path d="M 76.9493 318.621335 
L 103.899226 318.621335 
L 103.899226 318.621335 
L 76.9493 318.621335 
z
" clip-path="url(#pb4050f08ef)" style="fill: #dda1c2; stroke: #4c4c4c; stroke-width: 0.5; stroke-linejoin: miter"/>
   </g>
   <g id="patch_119">
    <path d="M 103.899226 318.621335 
L 130.849151 318.621335 
L 130.849151 318.621335 
L 103.899226 318.621335 
z
" clip-path="url(#pb4050f08ef)" style="fill: #dda1c2; stroke: #4c4c4c; stroke-width: 0.5; stroke-linejoin: miter"/>
   </g>
   <g id="patch_120">
    <path d="M 130.849151 318.621335 
L 157.799077 318.621335 
L 157.799077 318.621335 
L 130.849151 318.621335 
z
" clip-path="url(#pb4050f08ef)" style="fill: #dda1c2; stroke: #4c4c4c; stroke-width: 0.5; stroke-linejoin: miter"/>
   </g>
   <g id="patch_121">
    <path d="M 157.799077 318.621335 
L 184.749002 318.621335 
L 184.749002 318.621335 
L 157.799077 318.621335 
z
" clip-path="url(#pb4050f08ef)" style="fill: #dda1c2; stroke: #4c4c4c; stroke-width: 0.5; stroke-linejoin: miter"/>
   </g>
   <g id="patch_122">
    <path d="M 184.749002 318.621335 
L 211.698927 318.621335 
L 211.698927 318.621335 
L 184.749002 318.621335 
z
" clip-path="url(#pb4050f08ef)" style="fill: #dda1c2; stroke: #4c4c4c; stroke-width: 0.5; stroke-linejoin: miter"/>
   </g>
   <g id="patch_123">
    <path d="M 211.698927 318.621335 
L 238.648853 318.621335 
L 238.648853 318.621335 
L 211.698927 318.621335 
z
" clip-path="url(#pb4050f08ef)" style="fill: #dda1c2; stroke: #4c4c4c; stroke-width: 0.5; stroke-linejoin: miter"/>
   </g>
   <g id="patch_124">
    <path d="M 238.648853 318.621335 
L 265.598778 318.621335 
L 265.598778 318.621335 
L 238.648853 318.621335 
z
" clip-path="url(#pb4050f08ef)" style="fill: #dda1c2; stroke: #4c4c4c; stroke-width: 0.5; stroke-linejoin: miter"/>
   </g>
   <g id="patch_125">
    <path d="M 265.598778 318.621335 
L 292.548704 318.621335 
L 292.548704 318.621335 
L 265.598778 318.621335 
z
" clip-path="url(#pb4050f08ef)" style="fill: #dda1c2; stroke: #4c4c4c; stroke-width: 0.5; stroke-linejoin: miter"/>
   </g>
   <g id="patch_126">
    <path d="M 292.548704 318.621335 
L 319.498629 318.621335 
L 319.498629 318.621335 
L 292.548704 318.621335 
z
" clip-path="url(#pb4050f08ef)" style="fill: #dda1c2; stroke: #4c4c4c; stroke-width: 0.5; stroke-linejoin: miter"/>
   </g>
   <g id="patch_127">
    <path d="M 319.498629 318.621335 
L 346.448554 318.621335 
L 346.448554 98.182889 
L 319.498629 98.182889 
z
" clip-path="url(#pb4050f08ef)" style="fill: #dda1c2; stroke: #4c4c4c; stroke-width: 0.5; stroke-linejoin: miter"/>
   </g>
   <g id="patch_128">
    <path d="M 346.448554 318.621335 
L 373.39848 318.621335 
L 373.39848 133.63186 
L 346.448554 133.63186 
z
" clip-path="url(#pb4050f08ef)" style="fill: #dda1c2; stroke: #4c4c4c; stroke-width: 0.5; stroke-linejoin: miter"/>
   </g>
   <g id="patch_129">
    <path d="M 373.39848 318.621335 
L 400.348405 318.621335 
L 400.348405 182.618181 
L 373.39848 182.618181 
z
" clip-path="url(#pb4050f08ef)" style="fill: #dda1c2; stroke: #4c4c4c; stroke-width: 0.5; stroke-linejoin: miter"/>
   </g>
   <g id="patch_130">
    <path d="M 400.348405 318.621335 
L 427.298331 318.621335 
L 427.298331 195.714781 
L 400.348405 195.714781 
z
" clip-path="url(#pb4050f08ef)" style="fill: #dda1c2; stroke: #4c4c4c; stroke-width: 0.5; stroke-linejoin: miter"/>
   </g>
   <g id="patch_131">
    <path d="M 427.298331 318.621335 
L 454.248256 318.621335 
L 454.248256 224.489522 
L 427.298331 224.489522 
z
" clip-path="url(#pb4050f08ef)" style="fill: #dda1c2; stroke: #4c4c4c; stroke-width: 0.5; stroke-linejoin: miter"/>
   </g>
   <g id="patch_132">
    <path d="M 454.248256 318.621335 
L 481.198181 318.621335 
L 481.198181 318.621335 
L 454.248256 318.621335 
z
" clip-path="url(#pb4050f08ef)" style="fill: #dda1c2; stroke: #4c4c4c; stroke-width: 0.5; stroke-linejoin: miter"/>
   </g>
   <g id="patch_133">
    <path d="M 481.198181 318.621335 
L 508.148107 318.621335 
L 508.148107 318.621335 
L 481.198181 318.621335 
z
" clip-path="url(#pb4050f08ef)" style="fill: #dda1c2; stroke: #4c4c4c; stroke-width: 0.5; stroke-linejoin: miter"/>
   </g>
   <g id="patch_134">
    <path d="M 508.148107 318.621335 
L 535.098032 318.621335 
L 535.098032 318.621335 
L 508.148107 318.621335 
z
" clip-path="url(#pb4050f08ef)" style="fill: #dda1c2; stroke: #4c4c4c; stroke-width: 0.5; stroke-linejoin: miter"/>
   </g>
   <g id="patch_135">
    <path d="M 535.098032 318.621335 
L 562.047957 318.621335 
L 562.047957 318.621335 
L 535.098032 318.621335 
z
" clip-path="url(#pb4050f08ef)" style="fill: #dda1c2; stroke: #4c4c4c; stroke-width: 0.5; stroke-linejoin: miter"/>
   </g>
   <g id="patch_136">
    <path d="M 49.999375 318.621335 
L 76.9493 318.621335 
L 76.9493 318.621335 
L 49.999375 318.621335 
z
" clip-path="url(#pb4050f08ef)" style="fill: #e8cae1; stroke: #4c4c4c; stroke-width: 0.5; stroke-linejoin: miter"/>
   </g>
   <g id="patch_137">
    <path d="M 76.9493 318.621335 
L 103.899226 318.621335 
L 103.899226 318.621335 
L 76.9493 318.621335 
z
" clip-path="url(#pb4050f08ef)" style="fill: #e8cae1; stroke: #4c4c4c; stroke-width: 0.5; stroke-linejoin: miter"/>
   </g>
   <g id="patch_138">
    <path d="M 103.899226 318.621335 
L 130.849151 318.621335 
L 130.849151 318.621335 
L 103.899226 318.621335 
z
" clip-path="url(#pb4050f08ef)" style="fill: #e8cae1; stroke: #4c4c4c; stroke-width: 0.5; stroke-linejoin: miter"/>
   </g>
   <g id="patch_139">
    <path d="M 130.849151 318.621335 
L 157.799077 318.621335 
L 157.799077 318.621335 
L 130.849151 318.621335 
z
" clip-path="url(#pb4050f08ef)" style="fill: #e8cae1; stroke: #4c4c4c; stroke-width: 0.5; stroke-linejoin: miter"/>
   </g>
   <g id="patch_140">
    <path d="M 157.799077 318.621335 
L 184.749002 318.621335 
L 184.749002 318.621335 
L 157.799077 318.621335 
z
" clip-path="url(#pb4050f08ef)" style="fill: #e8cae1; stroke: #4c4c4c; stroke-width: 0.5; stroke-linejoin: miter"/>
   </g>
   <g id="patch_141">
    <path d="M 184.749002 318.621335 
L 211.698927 318.621335 
L 211.698927 22.688546 
L 184.749002 22.688546 
z
" clip-path="url(#pb4050f08ef)" style="fill: #e8cae1; stroke: #4c4c4c; stroke-width: 0.5; stroke-linejoin: miter"/>
   </g>
   <g id="patch_142">
    <path d="M 211.698927 318.621335 
L 238.648853 318.621335 
L 238.648853 22.940403 
L 211.698927 22.940403 
z
" clip-path="url(#pb4050f08ef)" style="fill: #e8cae1; stroke: #4c4c4c; stroke-width: 0.5; stroke-linejoin: miter"/>
   </g>
   <g id="patch_143">
    <path d="M 238.648853 318.621335 
L 265.598778 318.621335 
L 265.598778 18.91068 
L 238.648853 18.91068 
z
" clip-path="url(#pb4050f08ef)" style="fill: #e8cae1; stroke: #4c4c4c; stroke-width: 0.5; stroke-linejoin: miter"/>
   </g>
   <g id="patch_144">
    <path d="M 265.598778 318.621335 
L 292.548704 318.621335 
L 292.548704 17.462499 
L 265.598778 17.462499 
z
" clip-path="url(#pb4050f08ef)" style="fill: #e8cae1; stroke: #4c4c4c; stroke-width: 0.5; stroke-linejoin: miter"/>
   </g>
   <g id="patch_145">
    <path d="M 292.548704 318.621335 
L 319.498629 318.621335 
L 319.498629 67.959966 
L 292.548704 67.959966 
z
" clip-path="url(#pb4050f08ef)" style="fill: #e8cae1; stroke: #4c4c4c; stroke-width: 0.5; stroke-linejoin: miter"/>
   </g>
   <g id="patch_146">
    <path d="M 319.498629 318.621335 
L 346.448554 318.621335 
L 346.448554 318.621335 
L 319.498629 318.621335 
z
" clip-path="url(#pb4050f08ef)" style="fill: #e8cae1; stroke: #4c4c4c; stroke-width: 0.5; stroke-linejoin: miter"/>
   </g>
   <g id="patch_147">
    <path d="M 346.448554 318.621335 
L 373.39848 318.621335 
L 373.39848 318.621335 
L 346.448554 318.621335 
z
" clip-path="url(#pb4050f08ef)" style="fill: #e8cae1; stroke: #4c4c4c; stroke-width: 0.5; stroke-linejoin: miter"/>
   </g>
   <g id="patch_148">
    <path d="M 373.39848 318.621335 
L 400.348405 318.621335 
L 400.348405 318.621335 
L 373.39848 318.621335 
z
" clip-path="url(#pb4050f08ef)" style="fill: #e8cae1; stroke: #4c4c4c; stroke-width: 0.5; stroke-linejoin: miter"/>
   </g>
   <g id="patch_149">
    <path d="M 400.348405 318.621335 
L 427.298331 318.621335 
L 427.298331 318.621335 
L 400.348405 318.621335 
z
" clip-path="url(#pb4050f08ef)" style="fill: #e8cae1; stroke: #4c4c4c; stroke-width: 0.5; stroke-linejoin: miter"/>
   </g>
   <g id="patch_150">
    <path d="M 427.298331 318.621335 
L 454.248256 318.621335 
L 454.248256 318.621335 
L 427.298331 318.621335 
z
" clip-path="url(#pb4050f08ef)" style="fill: #e8cae1; stroke: #4c4c4c; stroke-width: 0.5; stroke-linejoin: miter"/>
   </g>
   <g id="patch_151">
    <path d="M 454.248256 318.621335 
L 481.198181 318.621335 
L 481.198181 318.621335 
L 454.248256 318.621335 
z
" clip-path="url(#pb4050f08ef)" style="fill: #e8cae1; stroke: #4c4c4c; stroke-width: 0.5; stroke-linejoin: miter"/>
   </g>
   <g id="patch_152">
    <path d="M 481.198181 318.621335 
L 508.148107 318.621335 
L 508.148107 318.621335 
L 481.198181 318.621335 
z
" clip-path="url(#pb4050f08ef)" style="fill: #e8cae1; stroke: #4c4c4c; stroke-width: 0.5; stroke-linejoin: miter"/>
   </g>
   <g id="patch_153">
    <path d="M 508.148107 318.621335 
L 535.098032 318.621335 
L 535.098032 318.621335 
L 508.148107 318.621335 
z
" clip-path="url(#pb4050f08ef)" style="fill: #e8cae1; stroke: #4c4c4c; stroke-width: 0.5; stroke-linejoin: miter"/>
   </g>
   <g id="patch_154">
    <path d="M 535.098032 318.621335 
L 562.047957 318.621335 
L 562.047957 318.621335 
L 535.098032 318.621335 
z
" clip-path="url(#pb4050f08ef)" style="fill: #e8cae1; stroke: #4c4c4c; stroke-width: 0.5; stroke-linejoin: miter"/>
   </g>
   <g id="patch_155">
    <path d="M 49.999375 318.621335 
L 76.9493 318.621335 
L 76.9493 238.341696 
L 49.999375 238.341696 
z
" clip-path="url(#pb4050f08ef)" style="fill: #f0eafa; stroke: #4c4c4c; stroke-width: 0.5; stroke-linejoin: miter"/>
   </g>
   <g id="patch_156">
    <path d="M 76.9493 318.621335 
L 103.899226 318.621335 
L 103.899226 197.855571 
L 76.9493 197.855571 
z
" clip-path="url(#pb4050f08ef)" style="fill: #f0eafa; stroke: #4c4c4c; stroke-width: 0.5; stroke-linejoin: miter"/>
   </g>
   <g id="patch_157">
    <path d="M 103.899226 318.621335 
L 130.849151 318.621335 
L 130.849151 117.198145 
L 103.899226 117.198145 
z
" clip-path="url(#pb4050f08ef)" style="fill: #f0eafa; stroke: #4c4c4c; stroke-width: 0.5; stroke-linejoin: miter"/>
   </g>
   <g id="patch_158">
    <path d="M 130.849151 318.621335 
L 157.799077 318.621335 
L 157.799077 61.285737 
L 130.849151 61.285737 
z
" clip-path="url(#pb4050f08ef)" style="fill: #f0eafa; stroke: #4c4c4c; stroke-width: 0.5; stroke-linejoin: miter"/>
   </g>
   <g id="patch_159">
    <path d="M 157.799077 318.621335 
L 184.749002 318.621335 
L 184.749002 44.600165 
L 157.799077 44.600165 
z
" clip-path="url(#pb4050f08ef)" style="fill: #f0eafa; stroke: #4c4c4c; stroke-width: 0.5; stroke-linejoin: miter"/>
   </g>
   <g id="patch_160">
    <path d="M 184.749002 318.621335 
L 211.698927 318.621335 
L 211.698927 318.621335 
L 184.749002 318.621335 
z
" clip-path="url(#pb4050f08ef)" style="fill: #f0eafa; stroke: #4c4c4c; stroke-width: 0.5; stroke-linejoin: miter"/>
   </g>
   <g id="patch_161">
    <path d="M 211.698927 318.621335 
L 238.648853 318.621335 
L 238.648853 318.621335 
L 211.698927 318.621335 
z
" clip-path="url(#pb4050f08ef)" style="fill: #f0eafa; stroke: #4c4c4c; stroke-width: 0.5; stroke-linejoin: miter"/>
   </g>
   <g id="patch_162">
    <path d="M 238.648853 318.621335 
L 265.598778 318.621335 
L 265.598778 318.621335 
L 238.648853 318.621335 
z
" clip-path="url(#pb4050f08ef)" style="fill: #f0eafa; stroke: #4c4c4c; stroke-width: 0.5; stroke-linejoin: miter"/>
   </g>
   <g id="patch_163">
    <path d="M 265.598778 318.621335 
L 292.548704 318.621335 
L 292.548704 318.621335 
L 265.598778 318.621335 
z
" clip-path="url(#pb4050f08ef)" style="fill: #f0eafa; stroke: #4c4c4c; stroke-width: 0.5; stroke-linejoin: miter"/>
   </g>
   <g id="patch_164">
    <path d="M 292.548704 318.621335 
L 319.498629 318.621335 
L 319.498629 318.621335 
L 292.548704 318.621335 
z
" clip-path="url(#pb4050f08ef)" style="fill: #f0eafa; stroke: #4c4c4c; stroke-width: 0.5; stroke-linejoin: miter"/>
   </g>
   <g id="patch_165">
    <path d="M 319.498629 318.621335 
L 346.448554 318.621335 
L 346.448554 318.621335 
L 319.498629 318.621335 
z
" clip-path="url(#pb4050f08ef)" style="fill: #f0eafa; stroke: #4c4c4c; stroke-width: 0.5; stroke-linejoin: miter"/>
   </g>
   <g id="patch_166">
    <path d="M 346.448554 318.621335 
L 373.39848 318.621335 
L 373.39848 318.621335 
L 346.448554 318.621335 
z
" clip-path="url(#pb4050f08ef)" style="fill: #f0eafa; stroke: #4c4c4c; stroke-width: 0.5; stroke-linejoin: miter"/>
   </g>
   <g id="patch_167">
    <path d="M 373.39848 318.621335 
L 400.348405 318.621335 
L 400.348405 318.621335 
L 373.39848 318.621335 
z
" clip-path="url(#pb4050f08ef)" style="fill: #f0eafa; stroke: #4c4c4c; stroke-width: 0.5; stroke-linejoin: miter"/>
   </g>
   <g id="patch_168">
    <path d="M 400.348405 318.621335 
L 427.298331 318.621335 
L 427.298331 318.621335 
L 400.348405 318.621335 
z
" clip-path="url(#pb4050f08ef)" style="fill: #f0eafa; stroke: #4c4c4c; stroke-width: 0.5; stroke-linejoin: miter"/>
   </g>
   <g id="patch_169">
    <path d="M 427.298331 318.621335 
L 454.248256 318.621335 
L 454.248256 318.621335 
L 427.298331 318.621335 
z
" clip-path="url(#pb4050f08ef)" style="fill: #f0eafa; stroke: #4c4c4c; stroke-width: 0.5; stroke-linejoin: miter"/>
   </g>
   <g id="patch_170">
    <path d="M 454.248256 318.621335 
L 481.198181 318.621335 
L 481.198181 318.621335 
L 454.248256 318.621335 
z
" clip-path="url(#pb4050f08ef)" style="fill: #f0eafa; stroke: #4c4c4c; stroke-width: 0.5; stroke-linejoin: miter"/>
   </g>
   <g id="patch_171">
    <path d="M 481.198181 318.621335 
L 508.148107 318.621335 
L 508.148107 318.621335 
L 481.198181 318.621335 
z
" clip-path="url(#pb4050f08ef)" style="fill: #f0eafa; stroke: #4c4c4c; stroke-width: 0.5; stroke-linejoin: miter"/>
   </g>
   <g id="patch_172">
    <path d="M 508.148107 318.621335 
L 535.098032 318.621335 
L 535.098032 318.621335 
L 508.148107 318.621335 
z
" clip-path="url(#pb4050f08ef)" style="fill: #f0eafa; stroke: #4c4c4c; stroke-width: 0.5; stroke-linejoin: miter"/>
   </g>
   <g id="patch_173">
    <path d="M 535.098032 318.621335 
L 562.047957 318.621335 
L 562.047957 318.621335 
L 535.098032 318.621335 
z
" clip-path="url(#pb4050f08ef)" style="fill: #f0eafa; stroke: #4c4c4c; stroke-width: 0.5; stroke-linejoin: miter"/>
   </g>
   <g id="matplotlib.axis_1">
    <g id="xtick_1">
     <g id="line2d_1">
      <defs>
       <path id="mbcb02aef95" d="M 0 0 
L 0 3.5 
" style="stroke: #000000; stroke-width: 0.8"/>
      </defs>
      <g>
       <use xlink:href="#mbcb02aef95" x="130.849151" y="318.621335" style="stroke: #000000; stroke-width: 0.8"/>
      </g>
     </g>
     <g id="text_1">
      <!-- 0.4 -->
      <g transform="translate(122.897589 333.219773) scale(0.1 -0.1)">
       <defs>
        <path id="DejaVuSans-30" d="M 2034 4250 
Q 1547 4250 1301 3770 
Q 1056 3291 1056 2328 
Q 1056 1369 1301 889 
Q 1547 409 2034 409 
Q 2525 409 2770 889 
Q 3016 1369 3016 2328 
Q 3016 3291 2770 3770 
Q 2525 4250 2034 4250 
z
M 2034 4750 
Q 2819 4750 3233 4129 
Q 3647 3509 3647 2328 
Q 3647 1150 3233 529 
Q 2819 -91 2034 -91 
Q 1250 -91 836 529 
Q 422 1150 422 2328 
Q 422 3509 836 4129 
Q 1250 4750 2034 4750 
z
" transform="scale(0.015625)"/>
        <path id="DejaVuSans-2e" d="M 684 794 
L 1344 794 
L 1344 0 
L 684 0 
L 684 794 
z
" transform="scale(0.015625)"/>
        <path id="DejaVuSans-34" d="M 2419 4116 
L 825 1625 
L 2419 1625 
L 2419 4116 
z
M 2253 4666 
L 3047 4666 
L 3047 1625 
L 3713 1625 
L 3713 1100 
L 3047 1100 
L 3047 0 
L 2419 0 
L 2419 1100 
L 313 1100 
L 313 1709 
L 2253 4666 
z
" transform="scale(0.015625)"/>
       </defs>
       <use xlink:href="#DejaVuSans-30"/>
       <use xlink:href="#DejaVuSans-2e" transform="translate(63.623047 0)"/>
       <use xlink:href="#DejaVuSans-34" transform="translate(95.410156 0)"/>
      </g>
     </g>
    </g>
    <g id="xtick_2">
     <g id="line2d_2">
      <g>
       <use xlink:href="#mbcb02aef95" x="238.648853" y="318.621335" style="stroke: #000000; stroke-width: 0.8"/>
      </g>
     </g>
     <g id="text_2">
      <!-- 0.6 -->
      <g transform="translate(230.69729 333.219773) scale(0.1 -0.1)">
       <defs>
        <path id="DejaVuSans-36" d="M 2113 2584 
Q 1688 2584 1439 2293 
Q 1191 2003 1191 1497 
Q 1191 994 1439 701 
Q 1688 409 2113 409 
Q 2538 409 2786 701 
Q 3034 994 3034 1497 
Q 3034 2003 2786 2293 
Q 2538 2584 2113 2584 
z
M 3366 4563 
L 3366 3988 
Q 3128 4100 2886 4159 
Q 2644 4219 2406 4219 
Q 1781 4219 1451 3797 
Q 1122 3375 1075 2522 
Q 1259 2794 1537 2939 
Q 1816 3084 2150 3084 
Q 2853 3084 3261 2657 
Q 3669 2231 3669 1497 
Q 3669 778 3244 343 
Q 2819 -91 2113 -91 
Q 1303 -91 875 529 
Q 447 1150 447 2328 
Q 447 3434 972 4092 
Q 1497 4750 2381 4750 
Q 2619 4750 2861 4703 
Q 3103 4656 3366 4563 
z
" transform="scale(0.015625)"/>
       </defs>
       <use xlink:href="#DejaVuSans-30"/>
       <use xlink:href="#DejaVuSans-2e" transform="translate(63.623047 0)"/>
       <use xlink:href="#DejaVuSans-36" transform="translate(95.410156 0)"/>
      </g>
     </g>
    </g>
    <g id="xtick_3">
     <g id="line2d_3">
      <g>
       <use xlink:href="#mbcb02aef95" x="346.448554" y="318.621335" style="stroke: #000000; stroke-width: 0.8"/>
      </g>
     </g>
     <g id="text_3">
      <!-- 0.8 -->
      <g transform="translate(338.496992 333.219773) scale(0.1 -0.1)">
       <defs>
        <path id="DejaVuSans-38" d="M 2034 2216 
Q 1584 2216 1326 1975 
Q 1069 1734 1069 1313 
Q 1069 891 1326 650 
Q 1584 409 2034 409 
Q 2484 409 2743 651 
Q 3003 894 3003 1313 
Q 3003 1734 2745 1975 
Q 2488 2216 2034 2216 
z
M 1403 2484 
Q 997 2584 770 2862 
Q 544 3141 544 3541 
Q 544 4100 942 4425 
Q 1341 4750 2034 4750 
Q 2731 4750 3128 4425 
Q 3525 4100 3525 3541 
Q 3525 3141 3298 2862 
Q 3072 2584 2669 2484 
Q 3125 2378 3379 2068 
Q 3634 1759 3634 1313 
Q 3634 634 3220 271 
Q 2806 -91 2034 -91 
Q 1263 -91 848 271 
Q 434 634 434 1313 
Q 434 1759 690 2068 
Q 947 2378 1403 2484 
z
M 1172 3481 
Q 1172 3119 1398 2916 
Q 1625 2713 2034 2713 
Q 2441 2713 2670 2916 
Q 2900 3119 2900 3481 
Q 2900 3844 2670 4047 
Q 2441 4250 2034 4250 
Q 1625 4250 1398 4047 
Q 1172 3844 1172 3481 
z
" transform="scale(0.015625)"/>
       </defs>
       <use xlink:href="#DejaVuSans-30"/>
       <use xlink:href="#DejaVuSans-2e" transform="translate(63.623047 0)"/>
       <use xlink:href="#DejaVuSans-38" transform="translate(95.410156 0)"/>
      </g>
     </g>
    </g>
    <g id="xtick_4">
     <g id="line2d_4">
      <g>
       <use xlink:href="#mbcb02aef95" x="454.248256" y="318.621335" style="stroke: #000000; stroke-width: 0.8"/>
      </g>
     </g>
     <g id="text_4">
      <!-- 1.0 -->
      <g transform="translate(446.296693 333.219773) scale(0.1 -0.1)">
       <defs>
        <path id="DejaVuSans-31" d="M 794 531 
L 1825 531 
L 1825 4091 
L 703 3866 
L 703 4441 
L 1819 4666 
L 2450 4666 
L 2450 531 
L 3481 531 
L 3481 0 
L 794 0 
L 794 531 
z
" transform="scale(0.015625)"/>
       </defs>
       <use xlink:href="#DejaVuSans-31"/>
       <use xlink:href="#DejaVuSans-2e" transform="translate(63.623047 0)"/>
       <use xlink:href="#DejaVuSans-30" transform="translate(95.410156 0)"/>
      </g>
     </g>
    </g>
    <g id="xtick_5">
     <g id="line2d_5">
      <g>
       <use xlink:href="#mbcb02aef95" x="562.047957" y="318.621335" style="stroke: #000000; stroke-width: 0.8"/>
      </g>
     </g>
     <g id="text_5">
      <!-- 1.2 -->
      <g transform="translate(554.096395 333.219773) scale(0.1 -0.1)">
       <defs>
        <path id="DejaVuSans-32" d="M 1228 531 
L 3431 531 
L 3431 0 
L 469 0 
L 469 531 
Q 828 903 1448 1529 
Q 2069 2156 2228 2338 
Q 2531 2678 2651 2914 
Q 2772 3150 2772 3378 
Q 2772 3750 2511 3984 
Q 2250 4219 1831 4219 
Q 1534 4219 1204 4116 
Q 875 4013 500 3803 
L 500 4441 
Q 881 4594 1212 4672 
Q 1544 4750 1819 4750 
Q 2544 4750 2975 4387 
Q 3406 4025 3406 3419 
Q 3406 3131 3298 2873 
Q 3191 2616 2906 2266 
Q 2828 2175 2409 1742 
Q 1991 1309 1228 531 
z
" transform="scale(0.015625)"/>
       </defs>
       <use xlink:href="#DejaVuSans-31"/>
       <use xlink:href="#DejaVuSans-2e" transform="translate(63.623047 0)"/>
       <use xlink:href="#DejaVuSans-32" transform="translate(95.410156 0)"/>
      </g>
     </g>
    </g>
    <g id="text_6">
     <!-- Price of 1 m$^2$ real estate in 2018 (million HUF) -->
     <g transform="translate(144.673666 351.087898) scale(0.14 -0.14)">
      <defs>
       <path id="DejaVuSans-50" d="M 1259 4147 
L 1259 2394 
L 2053 2394 
Q 2494 2394 2734 2622 
Q 2975 2850 2975 3272 
Q 2975 3691 2734 3919 
Q 2494 4147 2053 4147 
L 1259 4147 
z
M 628 4666 
L 2053 4666 
Q 2838 4666 3239 4311 
Q 3641 3956 3641 3272 
Q 3641 2581 3239 2228 
Q 2838 1875 2053 1875 
L 1259 1875 
L 1259 0 
L 628 0 
L 628 4666 
z
" transform="scale(0.015625)"/>
       <path id="DejaVuSans-72" d="M 2631 2963 
Q 2534 3019 2420 3045 
Q 2306 3072 2169 3072 
Q 1681 3072 1420 2755 
Q 1159 2438 1159 1844 
L 1159 0 
L 581 0 
L 581 3500 
L 1159 3500 
L 1159 2956 
Q 1341 3275 1631 3429 
Q 1922 3584 2338 3584 
Q 2397 3584 2469 3576 
Q 2541 3569 2628 3553 
L 2631 2963 
z
" transform="scale(0.015625)"/>
       <path id="DejaVuSans-69" d="M 603 3500 
L 1178 3500 
L 1178 0 
L 603 0 
L 603 3500 
z
M 603 4863 
L 1178 4863 
L 1178 4134 
L 603 4134 
L 603 4863 
z
" transform="scale(0.015625)"/>
       <path id="DejaVuSans-63" d="M 3122 3366 
L 3122 2828 
Q 2878 2963 2633 3030 
Q 2388 3097 2138 3097 
Q 1578 3097 1268 2742 
Q 959 2388 959 1747 
Q 959 1106 1268 751 
Q 1578 397 2138 397 
Q 2388 397 2633 464 
Q 2878 531 3122 666 
L 3122 134 
Q 2881 22 2623 -34 
Q 2366 -91 2075 -91 
Q 1284 -91 818 406 
Q 353 903 353 1747 
Q 353 2603 823 3093 
Q 1294 3584 2113 3584 
Q 2378 3584 2631 3529 
Q 2884 3475 3122 3366 
z
" transform="scale(0.015625)"/>
       <path id="DejaVuSans-65" d="M 3597 1894 
L 3597 1613 
L 953 1613 
Q 991 1019 1311 708 
Q 1631 397 2203 397 
Q 2534 397 2845 478 
Q 3156 559 3463 722 
L 3463 178 
Q 3153 47 2828 -22 
Q 2503 -91 2169 -91 
Q 1331 -91 842 396 
Q 353 884 353 1716 
Q 353 2575 817 3079 
Q 1281 3584 2069 3584 
Q 2775 3584 3186 3129 
Q 3597 2675 3597 1894 
z
M 3022 2063 
Q 3016 2534 2758 2815 
Q 2500 3097 2075 3097 
Q 1594 3097 1305 2825 
Q 1016 2553 972 2059 
L 3022 2063 
z
" transform="scale(0.015625)"/>
       <path id="DejaVuSans-20" transform="scale(0.015625)"/>
       <path id="DejaVuSans-6f" d="M 1959 3097 
Q 1497 3097 1228 2736 
Q 959 2375 959 1747 
Q 959 1119 1226 758 
Q 1494 397 1959 397 
Q 2419 397 2687 759 
Q 2956 1122 2956 1747 
Q 2956 2369 2687 2733 
Q 2419 3097 1959 3097 
z
M 1959 3584 
Q 2709 3584 3137 3096 
Q 3566 2609 3566 1747 
Q 3566 888 3137 398 
Q 2709 -91 1959 -91 
Q 1206 -91 779 398 
Q 353 888 353 1747 
Q 353 2609 779 3096 
Q 1206 3584 1959 3584 
z
" transform="scale(0.015625)"/>
       <path id="DejaVuSans-66" d="M 2375 4863 
L 2375 4384 
L 1825 4384 
Q 1516 4384 1395 4259 
Q 1275 4134 1275 3809 
L 1275 3500 
L 2222 3500 
L 2222 3053 
L 1275 3053 
L 1275 0 
L 697 0 
L 697 3053 
L 147 3053 
L 147 3500 
L 697 3500 
L 697 3744 
Q 697 4328 969 4595 
Q 1241 4863 1831 4863 
L 2375 4863 
z
" transform="scale(0.015625)"/>
       <path id="DejaVuSans-6d" d="M 3328 2828 
Q 3544 3216 3844 3400 
Q 4144 3584 4550 3584 
Q 5097 3584 5394 3201 
Q 5691 2819 5691 2113 
L 5691 0 
L 5113 0 
L 5113 2094 
Q 5113 2597 4934 2840 
Q 4756 3084 4391 3084 
Q 3944 3084 3684 2787 
Q 3425 2491 3425 1978 
L 3425 0 
L 2847 0 
L 2847 2094 
Q 2847 2600 2669 2842 
Q 2491 3084 2119 3084 
Q 1678 3084 1418 2786 
Q 1159 2488 1159 1978 
L 1159 0 
L 581 0 
L 581 3500 
L 1159 3500 
L 1159 2956 
Q 1356 3278 1631 3431 
Q 1906 3584 2284 3584 
Q 2666 3584 2933 3390 
Q 3200 3197 3328 2828 
z
" transform="scale(0.015625)"/>
       <path id="DejaVuSans-61" d="M 2194 1759 
Q 1497 1759 1228 1600 
Q 959 1441 959 1056 
Q 959 750 1161 570 
Q 1363 391 1709 391 
Q 2188 391 2477 730 
Q 2766 1069 2766 1631 
L 2766 1759 
L 2194 1759 
z
M 3341 1997 
L 3341 0 
L 2766 0 
L 2766 531 
Q 2569 213 2275 61 
Q 1981 -91 1556 -91 
Q 1019 -91 701 211 
Q 384 513 384 1019 
Q 384 1609 779 1909 
Q 1175 2209 1959 2209 
L 2766 2209 
L 2766 2266 
Q 2766 2663 2505 2880 
Q 2244 3097 1772 3097 
Q 1472 3097 1187 3025 
Q 903 2953 641 2809 
L 641 3341 
Q 956 3463 1253 3523 
Q 1550 3584 1831 3584 
Q 2591 3584 2966 3190 
Q 3341 2797 3341 1997 
z
" transform="scale(0.015625)"/>
       <path id="DejaVuSans-6c" d="M 603 4863 
L 1178 4863 
L 1178 0 
L 603 0 
L 603 4863 
z
" transform="scale(0.015625)"/>
       <path id="DejaVuSans-73" d="M 2834 3397 
L 2834 2853 
Q 2591 2978 2328 3040 
Q 2066 3103 1784 3103 
Q 1356 3103 1142 2972 
Q 928 2841 928 2578 
Q 928 2378 1081 2264 
Q 1234 2150 1697 2047 
L 1894 2003 
Q 2506 1872 2764 1633 
Q 3022 1394 3022 966 
Q 3022 478 2636 193 
Q 2250 -91 1575 -91 
Q 1294 -91 989 -36 
Q 684 19 347 128 
L 347 722 
Q 666 556 975 473 
Q 1284 391 1588 391 
Q 1994 391 2212 530 
Q 2431 669 2431 922 
Q 2431 1156 2273 1281 
Q 2116 1406 1581 1522 
L 1381 1569 
Q 847 1681 609 1914 
Q 372 2147 372 2553 
Q 372 3047 722 3315 
Q 1072 3584 1716 3584 
Q 2034 3584 2315 3537 
Q 2597 3491 2834 3397 
z
" transform="scale(0.015625)"/>
       <path id="DejaVuSans-74" d="M 1172 4494 
L 1172 3500 
L 2356 3500 
L 2356 3053 
L 1172 3053 
L 1172 1153 
Q 1172 725 1289 603 
Q 1406 481 1766 481 
L 2356 481 
L 2356 0 
L 1766 0 
Q 1100 0 847 248 
Q 594 497 594 1153 
L 594 3053 
L 172 3053 
L 172 3500 
L 594 3500 
L 594 4494 
L 1172 4494 
z
" transform="scale(0.015625)"/>
       <path id="DejaVuSans-6e" d="M 3513 2113 
L 3513 0 
L 2938 0 
L 2938 2094 
Q 2938 2591 2744 2837 
Q 2550 3084 2163 3084 
Q 1697 3084 1428 2787 
Q 1159 2491 1159 1978 
L 1159 0 
L 581 0 
L 581 3500 
L 1159 3500 
L 1159 2956 
Q 1366 3272 1645 3428 
Q 1925 3584 2291 3584 
Q 2894 3584 3203 3211 
Q 3513 2838 3513 2113 
z
" transform="scale(0.015625)"/>
       <path id="DejaVuSans-28" d="M 1984 4856 
Q 1566 4138 1362 3434 
Q 1159 2731 1159 2009 
Q 1159 1288 1364 580 
Q 1569 -128 1984 -844 
L 1484 -844 
Q 1016 -109 783 600 
Q 550 1309 550 2009 
Q 550 2706 781 3412 
Q 1013 4119 1484 4856 
L 1984 4856 
z
" transform="scale(0.015625)"/>
       <path id="DejaVuSans-48" d="M 628 4666 
L 1259 4666 
L 1259 2753 
L 3553 2753 
L 3553 4666 
L 4184 4666 
L 4184 0 
L 3553 0 
L 3553 2222 
L 1259 2222 
L 1259 0 
L 628 0 
L 628 4666 
z
" transform="scale(0.015625)"/>
       <path id="DejaVuSans-55" d="M 556 4666 
L 1191 4666 
L 1191 1831 
Q 1191 1081 1462 751 
Q 1734 422 2344 422 
Q 2950 422 3222 751 
Q 3494 1081 3494 1831 
L 3494 4666 
L 4128 4666 
L 4128 1753 
Q 4128 841 3676 375 
Q 3225 -91 2344 -91 
Q 1459 -91 1007 375 
Q 556 841 556 1753 
L 556 4666 
z
" transform="scale(0.015625)"/>
       <path id="DejaVuSans-46" d="M 628 4666 
L 3309 4666 
L 3309 4134 
L 1259 4134 
L 1259 2759 
L 3109 2759 
L 3109 2228 
L 1259 2228 
L 1259 0 
L 628 0 
L 628 4666 
z
" transform="scale(0.015625)"/>
       <path id="DejaVuSans-29" d="M 513 4856 
L 1013 4856 
Q 1481 4119 1714 3412 
Q 1947 2706 1947 2009 
Q 1947 1309 1714 600 
Q 1481 -109 1013 -844 
L 513 -844 
Q 928 -128 1133 580 
Q 1338 1288 1338 2009 
Q 1338 2731 1133 3434 
Q 928 4138 513 4856 
z
" transform="scale(0.015625)"/>
      </defs>
      <use xlink:href="#DejaVuSans-50" transform="translate(0 0.765625)"/>
      <use xlink:href="#DejaVuSans-72" transform="translate(60.302734 0.765625)"/>
      <use xlink:href="#DejaVuSans-69" transform="translate(101.416016 0.765625)"/>
      <use xlink:href="#DejaVuSans-63" transform="translate(129.199219 0.765625)"/>
      <use xlink:href="#DejaVuSans-65" transform="translate(184.179688 0.765625)"/>
      <use xlink:href="#DejaVuSans-20" transform="translate(245.703125 0.765625)"/>
      <use xlink:href="#DejaVuSans-6f" transform="translate(277.490234 0.765625)"/>
      <use xlink:href="#DejaVuSans-66" transform="translate(338.671875 0.765625)"/>
      <use xlink:href="#DejaVuSans-20" transform="translate(373.876953 0.765625)"/>
      <use xlink:href="#DejaVuSans-31" transform="translate(405.664062 0.765625)"/>
      <use xlink:href="#DejaVuSans-20" transform="translate(469.287109 0.765625)"/>
      <use xlink:href="#DejaVuSans-6d" transform="translate(501.074219 0.765625)"/>
      <use xlink:href="#DejaVuSans-32" transform="translate(599.443359 39.046875) scale(0.7)"/>
      <use xlink:href="#DejaVuSans-20" transform="translate(646.713867 0.765625)"/>
      <use xlink:href="#DejaVuSans-72" transform="translate(678.500977 0.765625)"/>
      <use xlink:href="#DejaVuSans-65" transform="translate(719.614258 0.765625)"/>
      <use xlink:href="#DejaVuSans-61" transform="translate(781.137695 0.765625)"/>
      <use xlink:href="#DejaVuSans-6c" transform="translate(842.416992 0.765625)"/>
      <use xlink:href="#DejaVuSans-20" transform="translate(870.200195 0.765625)"/>
      <use xlink:href="#DejaVuSans-65" transform="translate(901.987305 0.765625)"/>
      <use xlink:href="#DejaVuSans-73" transform="translate(963.510742 0.765625)"/>
      <use xlink:href="#DejaVuSans-74" transform="translate(1015.610352 0.765625)"/>
      <use xlink:href="#DejaVuSans-61" transform="translate(1054.819336 0.765625)"/>
      <use xlink:href="#DejaVuSans-74" transform="translate(1116.098633 0.765625)"/>
      <use xlink:href="#DejaVuSans-65" transform="translate(1155.307617 0.765625)"/>
      <use xlink:href="#DejaVuSans-20" transform="translate(1216.831055 0.765625)"/>
      <use xlink:href="#DejaVuSans-69" transform="translate(1248.618164 0.765625)"/>
      <use xlink:href="#DejaVuSans-6e" transform="translate(1276.401367 0.765625)"/>
      <use xlink:href="#DejaVuSans-20" transform="translate(1339.780273 0.765625)"/>
      <use xlink:href="#DejaVuSans-32" transform="translate(1371.567383 0.765625)"/>
      <use xlink:href="#DejaVuSans-30" transform="translate(1435.19043 0.765625)"/>
      <use xlink:href="#DejaVuSans-31" transform="translate(1498.813477 0.765625)"/>
      <use xlink:href="#DejaVuSans-38" transform="translate(1562.436523 0.765625)"/>
      <use xlink:href="#DejaVuSans-20" transform="translate(1626.05957 0.765625)"/>
      <use xlink:href="#DejaVuSans-28" transform="translate(1657.84668 0.765625)"/>
      <use xlink:href="#DejaVuSans-6d" transform="translate(1696.860352 0.765625)"/>
      <use xlink:href="#DejaVuSans-69" transform="translate(1794.272461 0.765625)"/>
      <use xlink:href="#DejaVuSans-6c" transform="translate(1822.055664 0.765625)"/>
      <use xlink:href="#DejaVuSans-6c" transform="translate(1849.838867 0.765625)"/>
      <use xlink:href="#DejaVuSans-69" transform="translate(1877.62207 0.765625)"/>
      <use xlink:href="#DejaVuSans-6f" transform="translate(1905.405273 0.765625)"/>
      <use xlink:href="#DejaVuSans-6e" transform="translate(1966.586914 0.765625)"/>
      <use xlink:href="#DejaVuSans-20" transform="translate(2029.96582 0.765625)"/>
      <use xlink:href="#DejaVuSans-48" transform="translate(2061.75293 0.765625)"/>
      <use xlink:href="#DejaVuSans-55" transform="translate(2136.948242 0.765625)"/>
      <use xlink:href="#DejaVuSans-46" transform="translate(2207.891602 0.765625)"/>
      <use xlink:href="#DejaVuSans-29" transform="translate(2265.411133 0.765625)"/>
     </g>
    </g>
   </g>
   <g id="matplotlib.axis_2">
    <g id="ytick_1">
     <g id="line2d_6">
      <defs>
       <path id="me5179b328b" d="M 0 0 
L -3.5 0 
" style="stroke: #000000; stroke-width: 0.8"/>
      </defs>
      <g>
       <use xlink:href="#me5179b328b" x="49.999375" y="318.621335" style="stroke: #000000; stroke-width: 0.8"/>
      </g>
     </g>
     <g id="text_7">
      <!-- 0 -->
      <g transform="translate(36.636875 322.420554) scale(0.1 -0.1)">
       <use xlink:href="#DejaVuSans-30"/>
      </g>
     </g>
    </g>
    <g id="ytick_2">
     <g id="line2d_7">
      <g>
       <use xlink:href="#me5179b328b" x="49.999375" y="255.656912" style="stroke: #000000; stroke-width: 0.8"/>
      </g>
     </g>
     <g id="text_8">
      <!-- 1000 -->
      <g transform="translate(17.549375 259.456131) scale(0.1 -0.1)">
       <use xlink:href="#DejaVuSans-31"/>
       <use xlink:href="#DejaVuSans-30" transform="translate(63.623047 0)"/>
       <use xlink:href="#DejaVuSans-30" transform="translate(127.246094 0)"/>
       <use xlink:href="#DejaVuSans-30" transform="translate(190.869141 0)"/>
      </g>
     </g>
    </g>
    <g id="ytick_3">
     <g id="line2d_8">
      <g>
       <use xlink:href="#me5179b328b" x="49.999375" y="192.692489" style="stroke: #000000; stroke-width: 0.8"/>
      </g>
     </g>
     <g id="text_9">
      <!-- 2000 -->
      <g transform="translate(17.549375 196.491707) scale(0.1 -0.1)">
       <use xlink:href="#DejaVuSans-32"/>
       <use xlink:href="#DejaVuSans-30" transform="translate(63.623047 0)"/>
       <use xlink:href="#DejaVuSans-30" transform="translate(127.246094 0)"/>
       <use xlink:href="#DejaVuSans-30" transform="translate(190.869141 0)"/>
      </g>
     </g>
    </g>
    <g id="ytick_4">
     <g id="line2d_9">
      <g>
       <use xlink:href="#me5179b328b" x="49.999375" y="129.728065" style="stroke: #000000; stroke-width: 0.8"/>
      </g>
     </g>
     <g id="text_10">
      <!-- 3000 -->
      <g transform="translate(17.549375 133.527284) scale(0.1 -0.1)">
       <defs>
        <path id="DejaVuSans-33" d="M 2597 2516 
Q 3050 2419 3304 2112 
Q 3559 1806 3559 1356 
Q 3559 666 3084 287 
Q 2609 -91 1734 -91 
Q 1441 -91 1130 -33 
Q 819 25 488 141 
L 488 750 
Q 750 597 1062 519 
Q 1375 441 1716 441 
Q 2309 441 2620 675 
Q 2931 909 2931 1356 
Q 2931 1769 2642 2001 
Q 2353 2234 1838 2234 
L 1294 2234 
L 1294 2753 
L 1863 2753 
Q 2328 2753 2575 2939 
Q 2822 3125 2822 3475 
Q 2822 3834 2567 4026 
Q 2313 4219 1838 4219 
Q 1578 4219 1281 4162 
Q 984 4106 628 3988 
L 628 4550 
Q 988 4650 1302 4700 
Q 1616 4750 1894 4750 
Q 2613 4750 3031 4423 
Q 3450 4097 3450 3541 
Q 3450 3153 3228 2886 
Q 3006 2619 2597 2516 
z
" transform="scale(0.015625)"/>
       </defs>
       <use xlink:href="#DejaVuSans-33"/>
       <use xlink:href="#DejaVuSans-30" transform="translate(63.623047 0)"/>
       <use xlink:href="#DejaVuSans-30" transform="translate(127.246094 0)"/>
       <use xlink:href="#DejaVuSans-30" transform="translate(190.869141 0)"/>
      </g>
     </g>
    </g>
    <g id="ytick_5">
     <g id="line2d_10">
      <g>
       <use xlink:href="#me5179b328b" x="49.999375" y="66.763642" style="stroke: #000000; stroke-width: 0.8"/>
      </g>
     </g>
     <g id="text_11">
      <!-- 4000 -->
      <g transform="translate(17.549375 70.562861) scale(0.1 -0.1)">
       <use xlink:href="#DejaVuSans-34"/>
       <use xlink:href="#DejaVuSans-30" transform="translate(63.623047 0)"/>
       <use xlink:href="#DejaVuSans-30" transform="translate(127.246094 0)"/>
       <use xlink:href="#DejaVuSans-30" transform="translate(190.869141 0)"/>
      </g>
     </g>
    </g>
    <g id="ytick_6">
     <g id="line2d_11">
      <g>
       <use xlink:href="#me5179b328b" x="49.999375" y="3.799219" style="stroke: #000000; stroke-width: 0.8"/>
      </g>
     </g>
     <g id="text_12">
      <!-- 5000 -->
      <g transform="translate(17.549375 7.598438) scale(0.1 -0.1)">
       <defs>
        <path id="DejaVuSans-35" d="M 691 4666 
L 3169 4666 
L 3169 4134 
L 1269 4134 
L 1269 2991 
Q 1406 3038 1543 3061 
Q 1681 3084 1819 3084 
Q 2600 3084 3056 2656 
Q 3513 2228 3513 1497 
Q 3513 744 3044 326 
Q 2575 -91 1722 -91 
Q 1428 -91 1123 -41 
Q 819 9 494 109 
L 494 744 
Q 775 591 1075 516 
Q 1375 441 1709 441 
Q 2250 441 2565 725 
Q 2881 1009 2881 1497 
Q 2881 1984 2565 2268 
Q 2250 2553 1709 2553 
Q 1456 2553 1204 2497 
Q 953 2441 691 2322 
L 691 4666 
z
" transform="scale(0.015625)"/>
       </defs>
       <use xlink:href="#DejaVuSans-35"/>
       <use xlink:href="#DejaVuSans-30" transform="translate(63.623047 0)"/>
       <use xlink:href="#DejaVuSans-30" transform="translate(127.246094 0)"/>
       <use xlink:href="#DejaVuSans-30" transform="translate(190.869141 0)"/>
      </g>
     </g>
    </g>
    <g id="text_13">
     <!-- Count -->
     <g transform="translate(10.637813 181.300759) rotate(-90) scale(0.14 -0.14)">
      <defs>
       <path id="DejaVuSans-43" d="M 4122 4306 
L 4122 3641 
Q 3803 3938 3442 4084 
Q 3081 4231 2675 4231 
Q 1875 4231 1450 3742 
Q 1025 3253 1025 2328 
Q 1025 1406 1450 917 
Q 1875 428 2675 428 
Q 3081 428 3442 575 
Q 3803 722 4122 1019 
L 4122 359 
Q 3791 134 3420 21 
Q 3050 -91 2638 -91 
Q 1578 -91 968 557 
Q 359 1206 359 2328 
Q 359 3453 968 4101 
Q 1578 4750 2638 4750 
Q 3056 4750 3426 4639 
Q 3797 4528 4122 4306 
z
" transform="scale(0.015625)"/>
       <path id="DejaVuSans-75" d="M 544 1381 
L 544 3500 
L 1119 3500 
L 1119 1403 
Q 1119 906 1312 657 
Q 1506 409 1894 409 
Q 2359 409 2629 706 
Q 2900 1003 2900 1516 
L 2900 3500 
L 3475 3500 
L 3475 0 
L 2900 0 
L 2900 538 
Q 2691 219 2414 64 
Q 2138 -91 1772 -91 
Q 1169 -91 856 284 
Q 544 659 544 1381 
z
M 1991 3584 
L 1991 3584 
z
" transform="scale(0.015625)"/>
      </defs>
      <use xlink:href="#DejaVuSans-43"/>
      <use xlink:href="#DejaVuSans-6f" transform="translate(69.824219 0)"/>
      <use xlink:href="#DejaVuSans-75" transform="translate(131.005859 0)"/>
      <use xlink:href="#DejaVuSans-6e" transform="translate(194.384766 0)"/>
      <use xlink:href="#DejaVuSans-74" transform="translate(257.763672 0)"/>
     </g>
    </g>
   </g>
   <g id="line2d_12">
    <path d="M 168.579047 318.621335 
L 168.579047 2.404557 
" clip-path="url(#pb4050f08ef)" style="fill: none; stroke-dasharray: 5.55,2.4; stroke-dashoffset: 0; stroke: #2d2d2d; stroke-width: 1.5"/>
   </g>
   <g id="line2d_13">
    <path d="M 249.428823 318.621335 
L 249.428823 2.404557 
" clip-path="url(#pb4050f08ef)" style="fill: none; stroke: #2d2d2d; stroke-width: 1.5; stroke-linecap: square"/>
   </g>
   <g id="line2d_14">
    <path d="M 341.058569 318.621335 
L 341.058569 2.404557 
" clip-path="url(#pb4050f08ef)" style="fill: none; stroke-dasharray: 5.55,2.4; stroke-dashoffset: 0; stroke: #2d2d2d; stroke-width: 1.5"/>
   </g>
   <g id="patch_174">
    <path d="M 49.999375 318.621335 
L 49.999375 2.404557 
" style="fill: none; stroke: #000000; stroke-width: 0.8; stroke-linejoin: miter; stroke-linecap: square"/>
   </g>
   <g id="patch_175">
    <path d="M 562.047957 318.621335 
L 562.047957 2.404557 
" style="fill: none; stroke: #000000; stroke-width: 0.8; stroke-linejoin: miter; stroke-linecap: square"/>
   </g>
   <g id="patch_176">
    <path d="M 49.999375 318.621335 
L 562.047957 318.621335 
" style="fill: none; stroke: #000000; stroke-width: 0.8; stroke-linejoin: miter; stroke-linecap: square"/>
   </g>
   <g id="patch_177">
    <path d="M 49.999375 2.404557 
L 562.047957 2.404557 
" style="fill: none; stroke: #000000; stroke-width: 0.8; stroke-linejoin: miter; stroke-linecap: square"/>
   </g>
   <g id="legend_1">
    <g id="patch_178">
     <path d="M 466.747957 157.185807 
L 555.047957 157.185807 
Q 557.047957 157.185807 557.047957 155.185807 
L 557.047957 9.404557 
Q 557.047957 7.404557 555.047957 7.404557 
L 466.747957 7.404557 
Q 464.747957 7.404557 464.747957 9.404557 
L 464.747957 155.185807 
Q 464.747957 157.185807 466.747957 157.185807 
z
" style="fill: #ffffff; opacity: 0.8; stroke: #cccccc; stroke-linejoin: miter"/>
    </g>
    <g id="text_14">
     <!-- Real estate price -->
     <g transform="translate(468.754207 19.002994) scale(0.1 -0.1)">
      <defs>
       <path id="DejaVuSans-52" d="M 2841 2188 
Q 3044 2119 3236 1894 
Q 3428 1669 3622 1275 
L 4263 0 
L 3584 0 
L 2988 1197 
Q 2756 1666 2539 1819 
Q 2322 1972 1947 1972 
L 1259 1972 
L 1259 0 
L 628 0 
L 628 4666 
L 2053 4666 
Q 2853 4666 3247 4331 
Q 3641 3997 3641 3322 
Q 3641 2881 3436 2590 
Q 3231 2300 2841 2188 
z
M 1259 4147 
L 1259 2491 
L 2053 2491 
Q 2509 2491 2742 2702 
Q 2975 2913 2975 3322 
Q 2975 3731 2742 3939 
Q 2509 4147 2053 4147 
L 1259 4147 
z
" transform="scale(0.015625)"/>
       <path id="DejaVuSans-70" d="M 1159 525 
L 1159 -1331 
L 581 -1331 
L 581 3500 
L 1159 3500 
L 1159 2969 
Q 1341 3281 1617 3432 
Q 1894 3584 2278 3584 
Q 2916 3584 3314 3078 
Q 3713 2572 3713 1747 
Q 3713 922 3314 415 
Q 2916 -91 2278 -91 
Q 1894 -91 1617 61 
Q 1341 213 1159 525 
z
M 3116 1747 
Q 3116 2381 2855 2742 
Q 2594 3103 2138 3103 
Q 1681 3103 1420 2742 
Q 1159 2381 1159 1747 
Q 1159 1113 1420 752 
Q 1681 391 2138 391 
Q 2594 391 2855 752 
Q 3116 1113 3116 1747 
z
" transform="scale(0.015625)"/>
      </defs>
      <use xlink:href="#DejaVuSans-52"/>
      <use xlink:href="#DejaVuSans-65" transform="translate(64.982422 0)"/>
      <use xlink:href="#DejaVuSans-61" transform="translate(126.505859 0)"/>
      <use xlink:href="#DejaVuSans-6c" transform="translate(187.785156 0)"/>
      <use xlink:href="#DejaVuSans-20" transform="translate(215.568359 0)"/>
      <use xlink:href="#DejaVuSans-65" transform="translate(247.355469 0)"/>
      <use xlink:href="#DejaVuSans-73" transform="translate(308.878906 0)"/>
      <use xlink:href="#DejaVuSans-74" transform="translate(360.978516 0)"/>
      <use xlink:href="#DejaVuSans-61" transform="translate(400.1875 0)"/>
      <use xlink:href="#DejaVuSans-74" transform="translate(461.466797 0)"/>
      <use xlink:href="#DejaVuSans-65" transform="translate(500.675781 0)"/>
      <use xlink:href="#DejaVuSans-20" transform="translate(562.199219 0)"/>
      <use xlink:href="#DejaVuSans-70" transform="translate(593.986328 0)"/>
      <use xlink:href="#DejaVuSans-72" transform="translate(657.462891 0)"/>
      <use xlink:href="#DejaVuSans-69" transform="translate(698.576172 0)"/>
      <use xlink:href="#DejaVuSans-63" transform="translate(726.359375 0)"/>
      <use xlink:href="#DejaVuSans-65" transform="translate(781.339844 0)"/>
     </g>
    </g>
    <g id="patch_179">
     <path d="M 468.747957 33.681119 
L 488.747957 33.681119 
L 488.747957 26.681119 
L 468.747957 26.681119 
z
" style="fill: #f0eafa; stroke: #4c4c4c; stroke-width: 0.5; stroke-linejoin: miter"/>
    </g>
    <g id="text_15">
     <!-- $0.25-0.5$ -->
     <g transform="translate(496.747957 33.681119) scale(0.1 -0.1)">
      <defs>
       <path id="DejaVuSans-2212" d="M 678 2272 
L 4684 2272 
L 4684 1741 
L 678 1741 
L 678 2272 
z
" transform="scale(0.015625)"/>
      </defs>
      <use xlink:href="#DejaVuSans-30" transform="translate(0 0.78125)"/>
      <use xlink:href="#DejaVuSans-2e" transform="translate(63.623047 0.78125)"/>
      <use xlink:href="#DejaVuSans-32" transform="translate(89.910156 0.78125)"/>
      <use xlink:href="#DejaVuSans-35" transform="translate(153.533203 0.78125)"/>
      <use xlink:href="#DejaVuSans-2212" transform="translate(236.638672 0.78125)"/>
      <use xlink:href="#DejaVuSans-30" transform="translate(339.910156 0.78125)"/>
      <use xlink:href="#DejaVuSans-2e" transform="translate(403.533203 0.78125)"/>
      <use xlink:href="#DejaVuSans-35" transform="translate(435.320312 0.78125)"/>
     </g>
    </g>
    <g id="patch_180">
     <path d="M 468.747957 48.359244 
L 488.747957 48.359244 
L 488.747957 41.359244 
L 468.747957 41.359244 
z
" style="fill: #e8cae1; stroke: #4c4c4c; stroke-width: 0.5; stroke-linejoin: miter"/>
    </g>
    <g id="text_16">
     <!-- $0.50-0.75$ -->
     <g transform="translate(496.747957 48.359244) scale(0.1 -0.1)">
      <defs>
       <path id="DejaVuSans-37" d="M 525 4666 
L 3525 4666 
L 3525 4397 
L 1831 0 
L 1172 0 
L 2766 4134 
L 525 4134 
L 525 4666 
z
" transform="scale(0.015625)"/>
      </defs>
      <use xlink:href="#DejaVuSans-30" transform="translate(0 0.78125)"/>
      <use xlink:href="#DejaVuSans-2e" transform="translate(63.623047 0.78125)"/>
      <use xlink:href="#DejaVuSans-35" transform="translate(95.410156 0.78125)"/>
      <use xlink:href="#DejaVuSans-30" transform="translate(159.033203 0.78125)"/>
      <use xlink:href="#DejaVuSans-2212" transform="translate(242.138672 0.78125)"/>
      <use xlink:href="#DejaVuSans-30" transform="translate(345.410156 0.78125)"/>
      <use xlink:href="#DejaVuSans-2e" transform="translate(409.033203 0.78125)"/>
      <use xlink:href="#DejaVuSans-37" transform="translate(433.070312 0.78125)"/>
      <use xlink:href="#DejaVuSans-35" transform="translate(496.693359 0.78125)"/>
     </g>
    </g>
    <g id="patch_181">
     <path d="M 468.747957 63.037369 
L 488.747957 63.037369 
L 488.747957 56.037369 
L 468.747957 56.037369 
z
" style="fill: #dda1c2; stroke: #4c4c4c; stroke-width: 0.5; stroke-linejoin: miter"/>
    </g>
    <g id="text_17">
     <!-- $0.75-1.0$ -->
     <g transform="translate(496.747957 63.037369) scale(0.1 -0.1)">
      <use xlink:href="#DejaVuSans-30" transform="translate(0 0.78125)"/>
      <use xlink:href="#DejaVuSans-2e" transform="translate(63.623047 0.78125)"/>
      <use xlink:href="#DejaVuSans-37" transform="translate(87.660156 0.78125)"/>
      <use xlink:href="#DejaVuSans-35" transform="translate(151.283203 0.78125)"/>
      <use xlink:href="#DejaVuSans-2212" transform="translate(234.388672 0.78125)"/>
      <use xlink:href="#DejaVuSans-31" transform="translate(337.660156 0.78125)"/>
      <use xlink:href="#DejaVuSans-2e" transform="translate(401.283203 0.78125)"/>
      <use xlink:href="#DejaVuSans-30" transform="translate(433.070312 0.78125)"/>
     </g>
    </g>
    <g id="patch_182">
     <path d="M 468.747957 77.715494 
L 488.747957 77.715494 
L 488.747957 70.715494 
L 468.747957 70.715494 
z
" style="fill: #cf789e; stroke: #4c4c4c; stroke-width: 0.5; stroke-linejoin: miter"/>
    </g>
    <g id="text_18">
     <!-- $1.00-1.25$ -->
     <g transform="translate(496.747957 77.715494) scale(0.1 -0.1)">
      <use xlink:href="#DejaVuSans-31" transform="translate(0 0.78125)"/>
      <use xlink:href="#DejaVuSans-2e" transform="translate(63.623047 0.78125)"/>
      <use xlink:href="#DejaVuSans-30" transform="translate(95.410156 0.78125)"/>
      <use xlink:href="#DejaVuSans-30" transform="translate(159.033203 0.78125)"/>
      <use xlink:href="#DejaVuSans-2212" transform="translate(242.138672 0.78125)"/>
      <use xlink:href="#DejaVuSans-31" transform="translate(345.410156 0.78125)"/>
      <use xlink:href="#DejaVuSans-2e" transform="translate(409.033203 0.78125)"/>
      <use xlink:href="#DejaVuSans-32" transform="translate(435.320312 0.78125)"/>
      <use xlink:href="#DejaVuSans-35" transform="translate(498.943359 0.78125)"/>
     </g>
    </g>
    <g id="patch_183">
     <path d="M 468.747957 92.393619 
L 488.747957 92.393619 
L 488.747957 85.393619 
L 468.747957 85.393619 
z
" style="fill: #a76690; stroke: #4c4c4c; stroke-width: 0.5; stroke-linejoin: miter"/>
    </g>
    <g id="text_19">
     <!-- $1.25-1.5$ -->
     <g transform="translate(496.747957 92.393619) scale(0.1 -0.1)">
      <use xlink:href="#DejaVuSans-31" transform="translate(0 0.78125)"/>
      <use xlink:href="#DejaVuSans-2e" transform="translate(63.623047 0.78125)"/>
      <use xlink:href="#DejaVuSans-32" transform="translate(89.910156 0.78125)"/>
      <use xlink:href="#DejaVuSans-35" transform="translate(153.533203 0.78125)"/>
      <use xlink:href="#DejaVuSans-2212" transform="translate(236.638672 0.78125)"/>
      <use xlink:href="#DejaVuSans-31" transform="translate(339.910156 0.78125)"/>
      <use xlink:href="#DejaVuSans-2e" transform="translate(403.533203 0.78125)"/>
      <use xlink:href="#DejaVuSans-35" transform="translate(435.320312 0.78125)"/>
     </g>
    </g>
    <g id="patch_184">
     <path d="M 468.747957 107.071744 
L 488.747957 107.071744 
L 488.747957 100.071744 
L 468.747957 100.071744 
z
" style="fill: #7d638e; stroke: #4c4c4c; stroke-width: 0.5; stroke-linejoin: miter"/>
    </g>
    <g id="text_20">
     <!-- $1.50-1.75$ -->
     <g transform="translate(496.747957 107.071744) scale(0.1 -0.1)">
      <use xlink:href="#DejaVuSans-31" transform="translate(0 0.78125)"/>
      <use xlink:href="#DejaVuSans-2e" transform="translate(63.623047 0.78125)"/>
      <use xlink:href="#DejaVuSans-35" transform="translate(95.410156 0.78125)"/>
      <use xlink:href="#DejaVuSans-30" transform="translate(159.033203 0.78125)"/>
      <use xlink:href="#DejaVuSans-2212" transform="translate(242.138672 0.78125)"/>
      <use xlink:href="#DejaVuSans-31" transform="translate(345.410156 0.78125)"/>
      <use xlink:href="#DejaVuSans-2e" transform="translate(409.033203 0.78125)"/>
      <use xlink:href="#DejaVuSans-37" transform="translate(433.070312 0.78125)"/>
      <use xlink:href="#DejaVuSans-35" transform="translate(496.693359 0.78125)"/>
     </g>
    </g>
    <g id="patch_185">
     <path d="M 468.747957 121.749869 
L 488.747957 121.749869 
L 488.747957 114.749869 
L 468.747957 114.749869 
z
" style="fill: #585380; stroke: #4c4c4c; stroke-width: 0.5; stroke-linejoin: miter"/>
    </g>
    <g id="text_21">
     <!-- $1.75-2.0$ -->
     <g transform="translate(496.747957 121.749869) scale(0.1 -0.1)">
      <use xlink:href="#DejaVuSans-31" transform="translate(0 0.78125)"/>
      <use xlink:href="#DejaVuSans-2e" transform="translate(63.623047 0.78125)"/>
      <use xlink:href="#DejaVuSans-37" transform="translate(87.660156 0.78125)"/>
      <use xlink:href="#DejaVuSans-35" transform="translate(151.283203 0.78125)"/>
      <use xlink:href="#DejaVuSans-2212" transform="translate(234.388672 0.78125)"/>
      <use xlink:href="#DejaVuSans-32" transform="translate(337.660156 0.78125)"/>
      <use xlink:href="#DejaVuSans-2e" transform="translate(401.283203 0.78125)"/>
      <use xlink:href="#DejaVuSans-30" transform="translate(433.070312 0.78125)"/>
     </g>
    </g>
    <g id="patch_186">
     <path d="M 468.747957 136.427994 
L 488.747957 136.427994 
L 488.747957 129.427994 
L 468.747957 129.427994 
z
" style="fill: #403261; stroke: #4c4c4c; stroke-width: 0.5; stroke-linejoin: miter"/>
    </g>
    <g id="text_22">
     <!-- $2.00-2.25$ -->
     <g transform="translate(496.747957 136.427994) scale(0.1 -0.1)">
      <use xlink:href="#DejaVuSans-32" transform="translate(0 0.78125)"/>
      <use xlink:href="#DejaVuSans-2e" transform="translate(63.623047 0.78125)"/>
      <use xlink:href="#DejaVuSans-30" transform="translate(95.410156 0.78125)"/>
      <use xlink:href="#DejaVuSans-30" transform="translate(159.033203 0.78125)"/>
      <use xlink:href="#DejaVuSans-2212" transform="translate(242.138672 0.78125)"/>
      <use xlink:href="#DejaVuSans-32" transform="translate(345.410156 0.78125)"/>
      <use xlink:href="#DejaVuSans-2e" transform="translate(409.033203 0.78125)"/>
      <use xlink:href="#DejaVuSans-32" transform="translate(435.320312 0.78125)"/>
      <use xlink:href="#DejaVuSans-35" transform="translate(498.943359 0.78125)"/>
     </g>
    </g>
    <g id="patch_187">
     <path d="M 468.747957 151.106119 
L 488.747957 151.106119 
L 488.747957 144.106119 
L 468.747957 144.106119 
z
" style="fill: #260d40; stroke: #4c4c4c; stroke-width: 0.5; stroke-linejoin: miter"/>
    </g>
    <g id="text_23">
     <!-- $2.25-2.5$ -->
     <g transform="translate(496.747957 151.106119) scale(0.1 -0.1)">
      <use xlink:href="#DejaVuSans-32" transform="translate(0 0.78125)"/>
      <use xlink:href="#DejaVuSans-2e" transform="translate(63.623047 0.78125)"/>
      <use xlink:href="#DejaVuSans-32" transform="translate(89.910156 0.78125)"/>
      <use xlink:href="#DejaVuSans-35" transform="translate(153.533203 0.78125)"/>
      <use xlink:href="#DejaVuSans-2212" transform="translate(236.638672 0.78125)"/>
      <use xlink:href="#DejaVuSans-32" transform="translate(339.910156 0.78125)"/>
      <use xlink:href="#DejaVuSans-2e" transform="translate(403.533203 0.78125)"/>
      <use xlink:href="#DejaVuSans-35" transform="translate(435.320312 0.78125)"/>
     </g>
    </g>
   </g>
  </g>
 </g>
 <defs>
  <clipPath id="pb4050f08ef">
   <rect x="49.999375" y="2.404557" width="512.048582" height="316.216778"/>
  </clipPath>
 </defs>
</svg>
